<svg width="24" height="24" viewBox="0 0 24 24" fill="none" xmlns="http://www.w3.org/2000/svg">
<path fill-rule="evenodd" clip-rule="evenodd" d="M15.4851 7.38614C15.4521 7.49175 15.4125 7.59736 15.3795 7.70297C15.3465 7.80858 15.2805 7.88119 15.1947 7.92739C15.1155 7.95379 15.0495 7.94719 14.9901 7.90759C14.9307 7.86799 14.8779 7.80858 14.8251 7.72937C14.8251 7.45875 14.8647 7.19472 14.9439 6.94389C15.0231 6.69307 15.1419 6.44224 15.3003 6.18482C15.2937 6.27062 15.2409 6.42904 15.1551 6.66006C15.0693 6.89109 15.0231 7.06271 15.0231 7.18812C15.0231 7.28713 15.0363 7.36634 15.0561 7.42574C15.0759 7.48515 15.1221 7.55115 15.1947 7.62376C15.2541 7.62376 15.3201 7.57756 15.3795 7.49175C15.4125 7.43894 15.4521 7.40594 15.4851 7.38614ZM12.6469 6.69967C12.6469 6.87788 12.5809 7.04951 12.4422 7.21452C12.3036 7.37954 12.1452 7.50495 11.9604 7.58416C11.7228 7.63036 11.571 7.55115 11.4984 7.34653C11.4984 7.14191 11.5512 6.91749 11.6568 6.67327C11.7096 6.54786 11.8218 6.34983 11.9868 6.066C11.9868 6.13861 11.9274 6.31683 11.8152 6.60726C11.7624 6.73927 11.736 6.85148 11.736 6.93729C11.736 7.07591 11.8086 7.18812 11.9472 7.26732C12.0528 7.24752 12.1452 7.22772 12.2178 7.19472C12.2904 7.16171 12.363 7.10231 12.4224 7.0165C12.4158 6.93729 12.33 6.83829 12.1782 6.71947C12.0264 6.60066 11.9472 6.51485 11.9472 6.46204C11.9472 6.40264 12.0132 6.32343 12.1452 6.23762C12.2442 6.28383 12.3366 6.34323 12.4356 6.42904C12.5347 6.51485 12.6007 6.60066 12.6469 6.69967ZM13.3069 9.0099L12.7657 9.74917C12.6403 9.70297 12.5149 9.65016 12.3894 9.58416C12.264 9.51815 12.1386 9.45215 12.0264 9.37954C12.099 9.24753 12.1716 9.11551 12.2574 8.9769C12.3432 8.83828 12.4422 8.71947 12.5677 8.61386C12.7723 8.67327 12.8977 8.71947 12.9505 8.74588C13.0891 8.80528 13.2079 8.89769 13.3069 9.0099ZM14.165 9.92079L13.3993 9.57756L12.7657 10.132L11.8944 9.69637C11.7558 9.79538 11.637 9.91419 11.538 10.0528C11.4851 10.132 11.4059 10.2838 11.3003 10.5016C11.4389 10.5809 11.5908 10.6601 11.7492 10.7393C11.9076 10.8185 12.0528 10.8581 12.1848 10.8581C12.2838 10.7789 12.3762 10.6799 12.4752 10.5677C12.6139 10.4026 12.7063 10.297 12.7393 10.2508C12.8251 10.3498 12.9769 10.4356 13.1881 10.5149C13.3993 10.5941 13.538 10.6535 13.5974 10.6997L14.165 9.92079ZM19.8152 16.9835C19.7162 17.1485 19.5908 17.3003 19.4323 17.4323C19.2739 17.5644 19.0891 17.67 18.8779 17.7492C18.6667 17.8284 18.4092 17.868 18.099 17.868C17.934 17.868 17.8086 17.8614 17.7294 17.8416C17.5974 17.7822 17.5314 17.6832 17.5314 17.5512C17.5314 17.4983 17.5578 17.4323 17.6172 17.3465C17.6766 17.2607 17.7558 17.1815 17.868 17.0957C17.9802 17.0099 18.1056 16.9307 18.2442 16.8515C18.1848 16.7393 18.0726 16.6799 17.9142 16.6799C17.8416 16.6799 17.7822 16.6931 17.7294 16.7195L17.6766 16.7855L17.6106 16.7195C17.7426 16.5611 17.835 16.462 17.8944 16.429C17.9538 16.396 18.0198 16.3762 18.099 16.3762C18.1848 16.3762 18.264 16.396 18.3366 16.429C18.4092 16.462 18.4951 16.5281 18.6007 16.6139C18.5677 16.7723 18.4554 16.9175 18.2706 17.0495C18.1122 17.1485 17.9538 17.2475 17.7954 17.3531C17.9208 17.5049 18.0924 17.5776 18.3102 17.5776C18.462 17.5776 18.6403 17.5446 18.8515 17.4719C19.1683 17.3663 19.3465 17.3069 19.3927 17.3003L19.8152 16.9835ZM21.9934 8.15182C21.8878 7.81518 21.7888 7.50495 21.6898 7.21452C21.4785 6.57426 21.2871 6.06601 21.1221 5.69637C21.0891 5.75577 21.0165 5.86138 20.9109 6C20.7723 6.21122 20.6997 6.38944 20.6997 6.54125C20.6997 6.57426 20.7063 6.64026 20.7261 6.72607L21.2673 12.3234L21.3069 13.2607C20.6007 13.1749 20.0462 13.0825 19.6304 12.9967C19.0561 12.8845 18.5281 12.7327 18.0462 12.5479C18.1782 12.2508 18.2442 11.901 18.2442 11.505C18.2442 11.4059 18.2442 11.3201 18.2442 11.2475C18.2442 11.1749 18.2244 11.0429 18.198 10.8647C18.1716 10.6865 18.1122 10.3696 18.0198 9.92079C17.9274 9.47195 17.8812 9.14191 17.8812 8.93069C18.0132 8.85809 18.3102 8.73267 18.7789 8.54785C19.4323 8.29043 19.868 8.0066 20.0858 7.68977C19.6964 7.86798 19.3003 8.0462 18.8845 8.23762C18.4686 8.42904 18.1122 8.56766 17.802 8.66667C17.769 8.51485 17.736 8.35643 17.703 8.19142C17.67 8.0264 17.6568 7.87459 17.6568 7.74257C17.6568 7.56435 17.6832 7.42574 17.736 7.32013C17.7822 7.35313 17.8548 7.45215 17.9604 7.61056C18.0396 7.73597 18.1254 7.80858 18.2244 7.83498C18.2244 7.52475 18.1122 7.15512 17.8812 6.71287C17.5578 6.08581 17.3729 5.72937 17.3399 5.64356C17.2079 5.75577 17.1023 5.90099 17.0165 6.066C16.9307 6.23102 16.8911 6.40264 16.8911 6.58085C17.0165 7.35313 17.1353 8.13201 17.2607 8.90429C17.2079 8.93729 16.9175 9.06931 16.3894 9.30033C16.0396 9.45214 15.8218 9.65017 15.7426 9.89439C15.9868 9.75578 16.2442 9.63036 16.5149 9.52475C16.7855 9.41914 17.0429 9.31353 17.3003 9.20792C17.3861 9.68977 17.4851 10.1914 17.5842 10.7129C17.6832 11.2343 17.736 11.6898 17.736 12.0858C17.5314 12.0858 17.0363 12.1056 16.2442 12.1518C15.9274 12.1716 15.637 12.1782 15.3729 12.1782L15.0297 13.0363C15.3795 13.0957 15.8944 13.1947 16.5743 13.3201C17.2541 13.4455 17.802 13.5842 18.2244 13.7228C17.6964 13.934 17.1749 14.1386 16.6535 14.3432C15.9934 14.6007 15.4389 14.7261 14.9901 14.7261C14.7261 14.7261 14.4686 14.6865 14.2178 14.6007C13.967 14.5148 13.7294 14.3894 13.5115 14.2112C13.4917 14.1584 13.505 14.0792 13.538 13.9736C13.571 13.868 13.5842 13.7954 13.5644 13.7492C13.4851 13.802 13.4257 13.868 13.3927 13.9538C13.3597 14.0396 13.3135 14.1386 13.2607 14.264C13.1815 14.4224 13.0693 14.5347 12.9307 14.6007C12.7921 14.6667 12.6271 14.6997 12.4422 14.6997C12.3432 14.6997 12.264 14.6997 12.198 14.6799C12.132 14.6667 12.066 14.6271 12 14.5677C11.934 14.5083 11.8746 14.429 11.8218 14.33C11.8548 14.1716 11.8746 14.066 11.8746 14.0066C11.8746 13.9472 11.8614 13.9208 11.835 13.9208C11.5974 14.1518 11.3663 14.3762 11.1353 14.6073C10.8977 14.8185 10.6865 14.9241 10.5016 14.9241C10.3894 14.9241 10.2838 14.8911 10.198 14.8317C10.0924 14.7987 9.9868 14.7195 9.88779 14.6007C9.78878 14.4818 9.71617 14.3696 9.68317 14.264C9.59736 14.1122 9.48515 13.9934 9.34653 13.9076C9.20792 13.8218 9.06931 13.7756 8.91749 13.7756C8.40924 13.8218 7.90759 13.9934 7.41254 14.2904C7.06931 14.5016 6.64686 14.8449 6.14521 15.3201C5.87459 15.5776 5.46535 15.967 4.93069 16.4951C4.44884 16.9439 4.0264 17.2805 3.66337 17.4983C3.55116 17.5314 3.41254 17.5512 3.25413 17.5512C3.09571 17.5512 2.94389 17.5248 2.80528 17.4653C2.66667 17.4059 2.54785 17.3267 2.46205 17.2211C2.33003 16.9901 2.26403 16.7459 2.26403 16.4818C2.26403 16.2706 2.31683 16.033 2.41584 15.7624C2.51485 15.4917 2.70627 15.1485 2.9769 14.7261C2.68647 15.0891 2.46865 15.4125 2.31683 15.703C2.10561 16.1056 2 16.495 2 16.8647C2 17.0495 2.0264 17.2409 2.07921 17.4455C2.15182 17.637 2.28383 17.8152 2.48845 17.967C2.69307 18.1188 2.89769 18.2178 3.10891 18.264C3.47855 18.1914 3.83498 18.0528 4.17162 17.835C4.50825 17.6172 4.9901 17.1947 5.61716 16.5611C6.14522 16.0132 6.53465 15.6436 6.77888 15.4521C7.22112 15.1023 7.66337 14.8779 8.11221 14.7789C8.24422 14.7195 8.36964 14.6865 8.49505 14.6865C8.70627 14.6865 8.95049 14.8581 9.22112 15.2013C9.49175 15.5446 9.72937 15.7492 9.92079 15.8086C10.0198 15.835 10.099 15.8482 10.1716 15.8482C10.4092 15.8482 10.6403 15.736 10.8713 15.5182C11.0495 15.3267 11.2211 15.1287 11.3993 14.9241C11.4191 15.0891 11.4521 15.2277 11.505 15.3267C11.5578 15.4257 11.6436 15.5116 11.769 15.5842C11.8812 15.6172 12.0132 15.637 12.1518 15.637C12.1848 15.637 12.2442 15.637 12.3234 15.6304C12.4026 15.6304 12.4752 15.6172 12.5347 15.6106C12.7393 15.5776 12.8977 15.4455 13.0099 15.2145C13.0693 15.0891 13.1617 14.8977 13.2871 14.6337C13.5248 14.9307 13.7426 15.1551 13.934 15.2937C14.2178 15.4984 14.5083 15.5974 14.8185 15.5974H14.8977C14.9307 15.5974 14.9703 15.5974 15.0033 15.5842C15.4455 15.5116 15.934 15.3795 16.4752 15.1815C17.0165 14.9835 17.5314 14.7921 18.0264 14.6073C18.7591 14.3366 19.5446 14.198 20.3894 14.198C20.6733 14.198 20.9637 14.2112 21.2739 14.2376C21.3333 14.396 21.3663 14.5743 21.3663 14.7789C21.3663 14.9571 21.3399 15.1485 21.2937 15.3531C21.2475 15.5578 21.1881 15.7624 21.1155 15.9538C21.3201 15.6304 21.5182 15.0891 21.7096 14.33C21.8482 13.7822 21.9406 13.4521 21.9736 13.3267H21.8284L21.4059 7.78218L21.5116 7.63696C21.5644 7.69637 21.637 7.78878 21.736 7.90759C21.835 8.0264 21.9208 8.10561 22 8.15182H21.9934ZM7.61716 6.72607C7.61056 6.81188 7.59076 6.89109 7.57096 6.9505C7.55116 7.0099 7.50495 7.04951 7.44555 7.06931C7.38614 6.91749 7.26073 6.82508 7.07591 6.77888C7.0495 6.88449 7.0165 7.16831 6.9835 7.62376C6.9505 8.07921 6.84488 8.38944 6.67987 8.54785C6.54785 8.30363 6.42244 8.0528 6.29703 7.80858C6.11881 7.53795 5.88779 7.41254 5.59736 7.43894C5.56436 7.37954 5.54455 7.31353 5.54455 7.24092C5.54455 7.16171 5.56436 7.08251 5.59736 6.9967C5.63036 6.91089 5.68317 6.82508 5.74257 6.72607C6 6.79868 6.21122 6.9901 6.38944 7.30693C6.52145 7.57756 6.65347 7.85478 6.78548 8.12541C6.79208 8.09241 6.81848 7.84158 6.85148 7.37294C6.88449 6.90429 6.9769 6.58746 7.12871 6.40924C7.35974 6.45545 7.51815 6.56105 7.61716 6.72607ZM9.65016 10.9901C9.61716 11.1155 9.58416 11.2343 9.55776 11.3465C9.50495 11.5049 9.41914 11.604 9.30693 11.637C9.22772 11.6436 9.16172 11.6172 9.10891 11.5578C9.05611 11.4983 9.0165 11.4455 8.9901 11.4125C8.9901 11.0231 9.06271 10.5743 9.21452 10.0528C9.29373 9.79538 9.37294 9.53795 9.45215 9.27393C9.47195 9.43894 9.42574 9.70297 9.32013 10.0528C9.21452 10.4026 9.16172 10.6403 9.16172 10.7657C9.16172 10.8911 9.18152 10.9901 9.22112 11.0693C9.26073 11.1485 9.33993 11.2211 9.45215 11.2937C9.48515 11.2145 9.51815 11.1485 9.54455 11.0957C9.57096 11.0429 9.60396 11.0099 9.65016 10.9901ZM7.39274 9.12871C7.32013 9.32013 7.07591 9.44554 6.65347 9.49175C6.23102 9.53795 5.94719 9.65676 5.80858 9.84158C5.9604 10.4488 6.11221 11.0561 6.27063 11.6634C6.31683 11.9274 6.33663 12.1716 6.33663 12.3894C6.33663 12.5941 6.31683 12.7855 6.28383 12.9703C6.25083 13.1551 6.18482 13.3399 6.09901 13.5248C6.13201 13.4125 6.15842 13.3069 6.16502 13.2079C6.17162 13.1089 6.17822 12.9901 6.17822 12.8515C6.17822 12.6601 6.16502 12.462 6.13201 12.2706C6.09901 12.0792 6.05281 11.868 5.9934 11.6502C5.89439 11.2805 5.82838 10.9769 5.78218 10.7393C5.70957 10.3762 5.67657 10.0726 5.67657 9.81518C5.73597 9.57756 5.94059 9.39934 6.28383 9.27393C6.44885 9.22112 6.62046 9.16171 6.78548 9.10231C6.71287 9.0693 6.64686 9.0297 6.57426 8.9967C6.50165 8.9637 6.42904 8.94389 6.34983 8.94389C6.29703 8.94389 6.24422 8.9571 6.19142 8.9835C6.17162 9.0099 6.15182 9.0363 6.11881 9.0561C6.08581 9.0759 6.0462 9.10231 5.9934 9.12871C5.9934 9.0297 6.0264 8.93069 6.09901 8.83168C6.17162 8.73267 6.23762 8.67327 6.31023 8.65347C6.38284 8.63367 6.44884 8.62706 6.52145 8.62706C6.67327 8.62706 6.82508 8.68647 6.9835 8.79868C7.11551 8.91089 7.25413 9.0231 7.39274 9.12871ZM13.2805 16.3498C13.2805 16.6205 13.1551 16.8383 12.8977 16.9967C12.8713 16.9901 12.8251 16.9835 12.7657 16.9835C12.7063 16.9835 12.5479 17.0429 12.3036 17.1551C12.1914 17.2079 12.099 17.2343 12.0264 17.2343C11.967 17.2343 11.9274 17.2343 11.9076 17.2211C11.835 17.1881 11.769 17.1089 11.6964 16.9967C11.505 17.0297 11.3003 17.1023 11.0891 17.2079C11.0363 17.2343 10.7261 17.4257 10.1518 17.7888C9.88119 17.9736 9.65677 18.1056 9.47855 18.1848C9.22112 18.297 8.9703 18.3564 8.71287 18.3564C8.63366 18.3498 8.57426 18.3432 8.54125 18.3432C8.80528 18.2706 9.06931 18.1716 9.33333 18.0396C9.51815 17.9406 9.76238 17.7954 10.066 17.5974C10.3696 17.3993 10.6403 17.2343 10.8713 17.0957C11.1023 16.9571 11.3597 16.8317 11.6436 16.7063C11.6766 16.6865 11.7228 16.6799 11.7756 16.6799C11.8482 16.6799 11.9472 16.7393 12.0792 16.8515C12.1518 16.9109 12.2112 16.9439 12.264 16.9439C12.3234 16.9439 12.3894 16.9109 12.462 16.8515C12.5083 16.7657 12.5479 16.6865 12.5875 16.6205C12.6271 16.5545 12.6799 16.5016 12.7393 16.4686L12.7657 16.7063C12.8713 16.7591 12.9703 16.7393 13.0561 16.6403C13.1287 16.5413 13.2013 16.4488 13.2805 16.3498ZM4.0264 13.1815C3.967 13.4455 3.90759 13.7096 3.85479 13.9736C3.76898 14.2706 3.63036 14.5083 3.44554 14.6733C3.33993 14.6931 3.24092 14.6865 3.14191 14.6535C3.0429 14.6205 2.9505 14.5611 2.85149 14.4752C2.71287 14.1584 2.64026 13.8218 2.64026 13.4587C2.64026 13.0165 2.73927 12.5479 2.94389 12.0462C3.04951 11.7756 3.26733 11.3531 3.59076 10.7921C3.46535 11.1089 3.33993 11.4455 3.20792 11.802C3.07591 12.1584 3.0099 12.4818 3.0099 12.7723C3.0099 13.0033 3.05611 13.2277 3.14191 13.4587C3.24753 13.571 3.32013 13.6436 3.35974 13.67C3.39934 13.6964 3.45215 13.7096 3.52475 13.7096C3.57096 13.7096 3.61716 13.6898 3.66997 13.6502C3.72277 13.6106 3.78878 13.5314 3.86139 13.4059C3.93399 13.2805 3.9934 13.2079 4.0264 13.1815Z" fill="white"/>
</svg>
