<svg width="24" height="24" viewBox="0 0 24 24" fill="none" xmlns="http://www.w3.org/2000/svg">
<path fill-rule="evenodd" clip-rule="evenodd" d="M21.9872 9.77586C21.8979 9.62702 21.8469 9.54622 21.8341 9.52921C21.8001 9.48243 21.7576 9.43565 21.7108 9.39738C21.7108 9.72908 21.7363 10.2564 21.7831 10.9794C21.8299 11.7023 21.8554 12.2466 21.8554 12.6123C21.8554 13.3268 21.8342 13.8541 21.7959 14.1943C21.7278 14.7599 21.5832 15.249 21.3579 15.6657C21.4259 15.4403 21.4727 15.2064 21.4939 14.9683C21.5195 14.7259 21.528 14.441 21.528 14.105C21.528 13.8669 21.528 13.6287 21.5195 13.3906C21.511 13.1524 21.5067 12.9143 21.4982 12.6761L21.243 8.55111C21.243 8.45756 21.2771 8.35124 21.3451 8.23642C21.3706 8.18113 21.4429 8.07907 21.5577 7.93023C21.7066 8.33848 21.8044 8.6149 21.8554 8.75524C21.949 9.06142 22 9.32934 22 9.56323C22 9.65679 22 9.72908 21.9915 9.77586H21.9872ZM17.1818 6.89685L17.0882 7.02868L15.872 7.45819C15.5998 7.55175 15.3957 7.62405 15.2596 7.67082C15.0087 7.76013 14.8088 7.83242 14.6558 7.89621C14.9279 7.6368 15.3234 7.42843 15.838 7.27533C16.2802 7.15201 16.7268 7.02868 17.1733 6.89685H17.1818ZM17.4455 8.80627C17.3221 8.99764 17.2031 9.189 17.0882 9.37612C16.9989 9.35485 16.8926 9.30382 16.7735 9.22302C16.6247 9.12096 16.5226 9.06142 16.4674 9.04016C16.5567 8.89132 16.6162 8.78926 16.6502 8.73398C16.7183 8.63191 16.7991 8.53835 16.8969 8.44905C17.0074 8.48307 17.0967 8.5256 17.169 8.57237C17.2413 8.61915 17.3349 8.69995 17.4497 8.80627H17.4455ZM18.2024 9.46117C18.1812 9.41864 18.1259 9.37612 18.0408 9.32934C17.9515 9.28256 17.8877 9.24004 17.8452 9.20602C17.7772 9.13797 17.7134 9.10395 17.6496 9.10395C17.5688 9.10395 17.4837 9.1805 17.3944 9.32934C17.2839 9.50795 17.2158 9.61001 17.1818 9.63553C17.2031 9.70357 17.3009 9.78011 17.471 9.86517C17.6453 9.95022 17.7559 10.0183 17.8027 10.065C17.8792 9.997 17.9515 9.90344 18.0281 9.78012C18.0621 9.71207 18.1216 9.60576 18.2024 9.46542V9.46117ZM16.2632 8.01103C16.2973 8.06631 16.3143 8.13436 16.3143 8.21516C16.3143 8.30446 16.3015 8.37676 16.2717 8.44054C16.2462 8.50008 16.225 8.54686 16.2122 8.57237C16.1314 8.54686 16.0208 8.57238 15.8848 8.65318C15.804 8.69995 15.7359 8.72547 15.6806 8.72547C15.6253 8.72547 15.5871 8.71697 15.5573 8.70421C15.4978 8.67019 15.4637 8.6149 15.4637 8.54261C15.4637 8.50859 15.4765 8.45756 15.4978 8.39377C15.5233 8.32998 15.5318 8.2832 15.5318 8.25768L15.5531 8.21516H15.5956C15.5956 8.38526 15.6296 8.47031 15.6976 8.47031C15.7912 8.47031 15.8507 8.40227 15.8762 8.26194C15.9018 8.1216 15.94 8.0408 15.9953 8.02379C16.0038 8.05781 15.9953 8.10459 15.9783 8.15987C15.9613 8.21941 15.9528 8.25343 15.9528 8.26619C15.9528 8.32572 15.9868 8.35975 16.0549 8.36825H16.1654C16.1527 8.30021 16.1654 8.22366 16.1952 8.13436C16.208 8.08758 16.2292 8.04505 16.2547 8.01103H16.2632ZM17.0882 9.65254L16.3738 9.31658L15.9741 9.84816C15.9826 9.9162 16.0506 9.98424 16.1782 10.0523C16.2462 10.0863 16.3483 10.1373 16.4844 10.2054C16.5992 10.2266 16.714 10.1629 16.8331 10.0098C16.8926 9.93321 16.9777 9.81414 17.0882 9.65254ZM13.8435 9.49944C13.8648 9.55898 13.8563 9.62702 13.818 9.69506C13.7797 9.7631 13.7457 9.82689 13.7117 9.89068C13.5416 10.0608 13.363 10.1458 13.1801 10.1458C13.0908 10.0353 13.0483 9.92045 13.0483 9.79713C13.0483 9.6738 13.0865 9.55048 13.1588 9.41865C13.2354 9.29107 13.3204 9.17199 13.4225 9.06142C13.3757 9.15073 13.3289 9.24429 13.2864 9.34635C13.2439 9.44841 13.2184 9.54197 13.2184 9.63128C13.2184 9.74184 13.2524 9.83115 13.3204 9.90769C13.38 9.89493 13.4438 9.87793 13.5075 9.85666C13.5713 9.8354 13.6266 9.79713 13.6649 9.73334C13.6649 9.6738 13.6181 9.60576 13.5203 9.53772C13.4267 9.46968 13.3757 9.41439 13.3757 9.37612C13.3757 9.32934 13.4182 9.27831 13.499 9.22302C13.5586 9.22302 13.6181 9.25705 13.6734 9.32083C13.7287 9.38462 13.784 9.44416 13.835 9.49944H13.8435ZM10.6073 8.76374C10.6285 8.82328 10.6158 8.89132 10.5775 8.96361C10.535 9.03591 10.501 9.0997 10.4669 9.16349C10.4329 9.189 10.3904 9.189 10.3394 9.16349C10.2883 9.13797 10.2543 9.10395 10.233 9.06142C10.2118 8.98063 10.2033 8.90408 10.2033 8.83604C10.2033 8.69995 10.2288 8.56387 10.2841 8.42779C10.3181 8.34699 10.3861 8.21516 10.4882 8.0408C10.4797 8.08333 10.4542 8.17263 10.4117 8.31297C10.3691 8.4533 10.3436 8.56387 10.3436 8.64467C10.3436 8.75949 10.3861 8.8573 10.4669 8.9296L10.6115 8.76799L10.6073 8.76374ZM18.313 14.6536C18.3258 14.7557 18.3045 14.8747 18.2535 15.0108C18.2407 15.0363 18.2109 15.1044 18.1599 15.2149C18.0493 15.2149 17.9303 15.266 17.8027 15.368C17.6751 15.4701 17.5688 15.5211 17.488 15.5211C17.4199 15.5211 17.3519 15.5041 17.2796 15.4658C17.2073 15.4276 17.118 15.4106 17.0074 15.4106C16.8161 15.4106 16.5907 15.5169 16.3355 15.7253C15.9613 16.0314 15.7444 16.2015 15.6806 16.2356L15.0257 16.5503C14.9109 16.6055 14.7918 16.6523 14.6685 16.6863C14.5452 16.7246 14.4304 16.7416 14.3198 16.7416C14.4984 16.6991 14.677 16.6311 14.8641 16.5375C15.0512 16.4439 15.3277 16.2568 15.6976 15.9847C16.1824 15.6232 16.4589 15.4191 16.5354 15.3723C16.6842 15.2787 16.8671 15.1767 17.0882 15.0746C17.1435 15.0619 17.2456 15.0959 17.3944 15.1767C17.4752 15.2192 17.539 15.2362 17.5773 15.2362C17.6453 15.2362 17.6879 15.1937 17.7049 15.1044C17.7219 15.0151 17.7346 14.9513 17.7474 14.9088C17.7559 14.8662 17.7814 14.8492 17.8239 14.8492C17.8367 14.862 17.8452 14.9002 17.8452 14.9555C17.8452 15.0108 17.8707 15.0491 17.9175 15.0618C17.9983 15.0491 18.0748 15.0193 18.1429 14.9768C18.2109 14.9343 18.2492 14.8662 18.2535 14.7769C18.2407 14.7089 18.262 14.6664 18.313 14.6451V14.6536ZM10.3011 9.6738C10.3011 9.82264 10.2586 9.89919 10.1778 9.89919C10.1565 9.89919 10.131 9.89068 10.097 9.86942H10.0162C9.97363 9.9247 9.9226 10.065 9.86307 10.2862C9.80353 10.5073 9.72273 10.6476 9.62917 10.6944C9.56113 10.5116 9.50585 10.3755 9.46757 10.2862C9.39103 10.1246 9.28046 10.0395 9.13162 10.0395C9.1061 10.0055 9.08909 9.96298 9.08909 9.9162C9.08909 9.87367 9.0976 9.8354 9.11035 9.79287C9.12311 9.75035 9.13587 9.71207 9.15288 9.66955C9.1784 9.65679 9.20391 9.64403 9.22518 9.63553C9.24644 9.62702 9.26345 9.63127 9.27621 9.65254C9.35275 9.71207 9.4208 9.80988 9.48458 9.93746C9.54837 10.065 9.62067 10.2054 9.70572 10.3542C9.73974 10.3202 9.79077 10.1841 9.85456 9.95022C9.91835 9.71633 10.0034 9.59725 10.1055 9.59725C10.165 9.59725 10.233 9.62277 10.3096 9.66955L10.3011 9.6738ZM10.5265 11.3068C10.501 11.4301 10.4754 11.5322 10.4542 11.613C10.4329 11.6938 10.3819 11.7491 10.3011 11.7746C10.2586 11.7831 10.2245 11.7746 10.1905 11.7491C10.1565 11.7236 10.1267 11.6725 10.097 11.5917C10.0842 11.4812 10.0757 11.4004 10.0757 11.3451C10.0757 11.1324 10.1267 10.9453 10.2288 10.7837C10.2288 10.8305 10.2245 10.9071 10.2118 11.0091C10.2033 11.1112 10.1948 11.1665 10.1948 11.1707C10.1948 11.2515 10.2033 11.3196 10.2203 11.3706C10.2373 11.4216 10.2713 11.4727 10.3266 11.5194C10.3691 11.5109 10.4031 11.4854 10.4287 11.4386C10.4372 11.4301 10.4542 11.3876 10.4797 11.3068H10.5222H10.5265ZM20.1714 9.54197C20.1118 9.25704 20.0268 8.95936 19.9162 8.65318C19.8609 8.49583 19.7546 8.20665 19.5888 7.78564C19.508 7.84093 19.4272 7.93874 19.3421 8.07482C19.2613 8.21516 19.2145 8.28745 19.2103 8.29595C19.2103 8.55536 19.2953 9.34635 19.4654 10.6732C19.5335 11.2047 19.5675 11.6895 19.5675 12.1318C19.4867 12.1998 19.4059 12.2466 19.3336 12.2679C19.2571 12.2934 19.172 12.3019 19.07 12.3019C18.9934 12.3019 18.9254 12.3019 18.8658 12.2934C18.8063 12.2849 18.7425 12.2764 18.683 12.2636C18.6277 12.2381 18.5299 12.1913 18.3853 12.1318C18.2747 12.0723 18.2237 12 18.2237 11.9192C18.2237 11.8724 18.2407 11.8214 18.2747 11.7661C18.1471 11.9362 18.0196 12.102 17.8962 12.2679C17.7346 12.4635 17.5518 12.5656 17.3562 12.5656C17.1946 12.5656 17.0542 12.489 16.9394 12.3317C16.9139 12.2977 16.8969 12.2551 16.8969 12.1998C16.8969 12.1531 16.9096 12.0893 16.9394 12.0042C16.9649 11.9234 16.9819 11.8596 16.9819 11.8214C16.8458 11.9702 16.7098 12.119 16.5737 12.2594C16.2802 12.5656 16.0038 12.7187 15.7487 12.7187C15.6594 12.7187 15.5786 12.7059 15.502 12.6761C15.2426 12.5613 15.0342 12.2721 14.8811 11.8086C14.7876 11.5279 14.7025 11.3366 14.626 11.226C14.5452 11.2005 14.4686 11.1835 14.4006 11.1835C14.3666 11.1835 14.273 11.192 14.1242 11.2047C13.7287 11.4004 13.4353 11.7151 13.2481 12.1446C13.0908 12.4975 13.0142 12.927 13.0142 13.4288C12.8101 13.5522 12.572 13.6117 12.2998 13.6117C11.9341 13.6117 11.6066 13.5224 11.3217 13.348C11.3302 13.3055 11.343 13.246 11.3642 13.1652C11.3642 13.1397 11.3557 13.1057 11.3345 13.0716C11.309 13.0929 11.1941 13.2205 10.9985 13.4586C10.922 13.5479 10.8454 13.6117 10.7689 13.6585C10.6923 13.701 10.603 13.7265 10.5095 13.7265C10.3394 13.7265 10.1905 13.6713 10.0587 13.5649C9.98214 13.5224 9.94812 13.4629 9.94812 13.3821C9.94812 13.3395 9.96513 13.2758 9.9949 13.1822C10.0247 13.0886 10.0374 13.0291 10.0289 12.9951C9.84606 13.1907 9.66319 13.3438 9.48458 13.4459C9.30598 13.5479 9.10185 13.599 8.87646 13.599C8.80842 13.599 8.75739 13.599 8.72337 13.5904C8.49798 13.5904 8.31087 13.4841 8.16202 13.2758C8.05996 13.1269 7.97491 12.927 7.90687 12.6846C7.80481 12.7739 7.73251 12.8675 7.69424 12.9653C7.65171 13.0631 7.6347 13.1652 7.6347 13.2673C7.6347 13.3268 7.6347 13.3821 7.64321 13.4288C7.65171 13.4756 7.66022 13.5224 7.67298 13.5734C7.7155 13.735 7.75803 13.9094 7.80906 14.0923C7.86009 14.2751 7.88561 14.4282 7.88561 14.5515C7.5454 14.9002 7.12014 15.1894 6.60982 15.4276C6.26962 15.5849 5.78907 15.7593 5.17244 15.9464C4.91303 15.9889 4.65363 16.0059 4.38571 16.0059C3.99022 16.0059 3.64151 15.9506 3.33532 15.8443C2.98235 15.7168 2.69743 15.5126 2.47629 15.2405C2.36572 15.0278 2.31469 14.8067 2.31469 14.5771C2.31469 14.3134 2.39124 14.003 2.54859 13.65C2.59111 13.5564 2.7272 13.28 2.96534 12.825C2.99086 12.825 3.03764 12.8335 3.09717 12.8505C3.15671 12.8675 3.20774 12.8675 3.24176 12.8462C3.42037 12.7187 3.5437 12.5571 3.62024 12.3614C3.69679 12.1658 3.73081 11.9489 3.73081 11.7023C3.67553 11.7278 3.62875 11.7958 3.58197 11.9022C3.53944 12.0085 3.49692 12.0723 3.45864 12.0978C3.42037 12.1233 3.38635 12.1318 3.35233 12.1318C3.29704 12.1318 3.25027 12.119 3.20349 12.0893C3.16096 12.0638 3.11418 12.017 3.0674 11.9575C2.96534 11.7618 2.91431 11.5407 2.91431 11.3025C2.91431 11.0516 2.9781 10.7455 3.10993 10.384C3.21199 10.1203 3.31831 9.85241 3.42462 9.58875C3.15246 9.997 2.95684 10.3415 2.84202 10.6179C2.66341 11.0346 2.57835 11.4174 2.57835 11.7703C2.57835 12.1233 2.66341 12.4337 2.83351 12.7187C2.54859 13.263 2.34871 13.701 2.23815 14.037C2.12758 14.3687 2.05103 14.6749 2.00851 14.947C2 14.9938 2 15.0661 2 15.1597C2 15.6785 2.20838 16.0697 2.62088 16.3419C2.85052 16.4865 3.09292 16.5885 3.33957 16.6523C3.58622 16.7161 3.84988 16.7501 4.13055 16.7501C4.41123 16.7501 4.67489 16.7246 4.96832 16.6693C5.34255 16.5928 5.72528 16.4737 6.11227 16.3121C6.49926 16.1505 6.85647 15.9634 7.18393 15.7508C7.4646 15.6147 7.70274 15.4021 7.89836 15.1086C8.05996 14.8577 8.18329 14.5685 8.26409 14.2411C8.37891 14.2666 8.51499 14.2836 8.67234 14.2836C8.87646 14.2836 9.06358 14.2496 9.23793 14.1858C9.41229 14.122 9.55688 14.02 9.6717 13.8839C9.6717 14.0667 9.73974 14.2071 9.87582 14.3006C9.95662 14.3432 10.0374 14.3772 10.114 14.4027C10.1905 14.4282 10.2671 14.4452 10.3436 14.4452C10.4797 14.4452 10.6158 14.3984 10.7519 14.3006C10.8071 14.105 10.8837 14.003 10.9858 14.003C11.0325 14.003 11.1091 14.0327 11.2111 14.0965C11.4068 14.2198 11.5428 14.2794 11.6194 14.2794C11.6449 14.2794 11.6789 14.2709 11.7215 14.2581C11.8235 14.2794 11.9256 14.2879 12.0276 14.2879C12.1637 14.2879 12.3636 14.2581 12.623 14.2028C12.8867 14.1433 13.0483 14.1093 13.1163 14.0965C13.1588 14.2113 13.2354 14.4112 13.3502 14.7004C13.5331 15.1171 13.7925 15.3213 14.1242 15.3213C14.3368 15.0704 14.4942 14.8407 14.6047 14.6366C14.7621 14.3517 14.8386 14.0923 14.8386 13.8626C14.8386 13.684 14.8003 13.5267 14.728 13.3821C14.6005 13.2587 14.4346 13.1992 14.239 13.1992C13.9668 13.2417 13.6989 13.28 13.431 13.3225C13.397 13.229 13.3757 13.1354 13.363 13.0419C13.3502 12.9483 13.346 12.8335 13.346 12.6889V12.2892C13.4055 12.2084 13.4863 12.1276 13.5841 12.0425C13.6819 11.9617 13.7755 11.9064 13.8648 11.8809C13.9456 11.8681 14.0094 11.8596 14.0604 11.8596C14.205 11.8596 14.307 11.8979 14.3666 11.9702C14.6132 12.6251 14.7833 13.0078 14.8769 13.1227C15.047 13.3268 15.2596 13.4288 15.519 13.4288C15.7359 13.4288 15.9443 13.3523 16.1399 13.2035C16.2845 13.0929 16.4376 12.9313 16.5992 12.7144C16.6077 12.7399 16.6119 12.7697 16.6205 12.7952C16.6205 12.9058 16.6672 13.0078 16.765 13.1014C16.8246 13.1609 16.9181 13.2247 17.0415 13.2843C17.0755 13.297 17.1308 13.3055 17.2031 13.3055C17.3647 13.3055 17.5305 13.229 17.6921 13.0801C17.7729 13.0036 17.8877 12.8675 18.0408 12.6719C18.1174 12.7739 18.2067 12.8505 18.3172 12.9058C18.3725 12.9313 18.4831 12.9738 18.6532 13.0291C18.7297 13.0504 18.7978 13.0589 18.8658 13.0589C18.9934 13.0589 19.1125 13.0376 19.2145 12.9993C19.3166 12.9568 19.4272 12.8973 19.5505 12.8165C19.6866 12.6123 19.7801 12.3997 19.8354 12.1786C19.8907 11.9574 19.9162 11.7023 19.9162 11.4089C19.9162 11.2047 19.895 10.9241 19.8567 10.5626C19.7759 9.83965 19.7334 9.38888 19.7334 9.20602C19.7801 9.23153 19.8524 9.29957 19.946 9.40163C20.0225 9.48243 20.0948 9.52921 20.1714 9.54622V9.54197ZM7.12864 8.37676C7.12014 8.41078 7.10313 8.42779 7.06911 8.42779C7.01382 8.41503 6.9798 8.40652 6.96704 8.40652C6.95428 8.40652 6.93302 8.39802 6.90751 8.38526C6.85222 8.35124 6.81395 8.35974 6.79694 8.40652C6.7374 8.50859 6.69913 8.69995 6.68637 8.97637C6.67361 9.25705 6.63959 9.45692 6.58431 9.58024C6.66085 9.593 6.7289 9.62277 6.79694 9.6738C6.86498 9.72058 6.97129 9.82264 7.11163 9.97999C7.11163 10.1586 6.95003 10.2607 6.62683 10.2862C6.30364 10.3117 6.12077 10.4223 6.0825 10.6136C6.10802 10.8263 6.16755 11.1112 6.25686 11.4769C6.34616 11.8426 6.4057 12.1148 6.43547 12.3019C6.46524 12.489 6.48225 12.6676 6.48225 12.8377C6.48225 13.0419 6.46098 13.229 6.4142 13.4033C6.37168 13.5777 6.29513 13.7478 6.19307 13.9179C6.32915 13.6457 6.39719 13.3608 6.39719 13.0589C6.39719 12.91 6.38869 12.7782 6.36742 12.6719C6.34616 12.5613 6.30789 12.387 6.25686 12.1403C6.18031 11.8256 6.12928 11.596 6.09526 11.4471C6.02722 11.1495 5.9932 10.9113 5.9932 10.7412C5.9932 10.6051 6.00595 10.4775 6.03572 10.3542C6.06124 10.2309 6.1633 10.1416 6.3334 10.0906C6.48225 10.0565 6.63109 10.0183 6.78418 9.97999C6.70763 9.90344 6.62258 9.86942 6.52052 9.86942C6.46098 9.86942 6.40995 9.88218 6.37593 9.91195C6.32065 9.96723 6.28663 9.98849 6.27387 9.98424C6.27387 9.89493 6.29513 9.81414 6.34191 9.74609C6.38444 9.6738 6.44822 9.62277 6.52902 9.58875C6.50351 9.55473 6.42696 9.40163 6.30364 9.12947C6.21433 8.93385 6.10802 8.83178 5.98894 8.83178C5.97619 8.83178 5.94216 8.84029 5.88688 8.85305C5.78482 8.81052 5.73379 8.74248 5.73379 8.64042C5.73379 8.59789 5.74229 8.55962 5.76356 8.51709C5.78907 8.39377 5.8316 8.30871 5.88688 8.26194C6.01021 8.30446 6.11652 8.38951 6.20157 8.5256C6.31639 8.74248 6.43121 8.95936 6.55029 9.16774C6.60982 8.70421 6.64384 8.46181 6.65235 8.4448C6.69913 8.29596 6.78418 8.17688 6.90751 8.08758C6.96279 8.10884 7.01807 8.1301 7.08186 8.15987C7.1414 8.18539 7.17542 8.22791 7.17542 8.2832C7.17542 8.30871 7.16691 8.34274 7.14565 8.38526L7.12864 8.37676ZM11.8831 15.2745C11.8363 15.4786 11.7215 15.6274 11.5471 15.7253C11.5046 15.704 11.4663 15.6955 11.4238 15.6955C11.3642 15.6955 11.2919 15.7168 11.2111 15.755C11.0283 15.8486 10.9177 15.8996 10.8837 15.8996C10.7901 15.8996 10.7051 15.8401 10.637 15.7253C10.4117 15.7678 10.182 15.8613 9.94387 16.0102C9.8418 16.0782 9.63343 16.2313 9.32299 16.4695C9.04231 16.6863 8.83394 16.8352 8.68935 16.9075C8.4427 17.0351 8.2003 17.1031 7.95365 17.1031C8.17053 17.0351 8.40017 16.9245 8.63832 16.7757C8.76589 16.6949 8.98703 16.5333 9.30172 16.2951C9.61642 16.057 9.82054 15.9039 9.9226 15.8358C10.1522 15.6742 10.3819 15.5551 10.6073 15.4871C10.6838 15.4658 10.7689 15.4871 10.8709 15.5552C10.973 15.6189 11.0453 15.653 11.0836 15.653C11.1176 15.653 11.1601 15.6317 11.2154 15.5934C11.2367 15.5339 11.2622 15.4701 11.2919 15.4106C11.3217 15.351 11.3685 15.317 11.428 15.3085C11.4365 15.3213 11.428 15.3595 11.4068 15.4148C11.3855 15.4744 11.3983 15.5041 11.4493 15.5126C11.5386 15.5339 11.6236 15.5126 11.7044 15.4531C11.7852 15.3638 11.8448 15.3085 11.8788 15.2787L11.8831 15.2745ZM4.61535 13.2417C4.61535 13.4203 4.55582 13.5692 4.43249 13.6925C4.2879 13.6925 4.20285 13.6032 4.17733 13.4288C4.17733 13.2502 4.1986 13.0886 4.24538 12.9441C4.2879 12.7995 4.3602 12.6379 4.45375 12.4593C4.45375 12.5273 4.42824 12.6379 4.37721 12.791C4.32617 12.9441 4.30066 13.0546 4.30066 13.1227C4.30066 13.2375 4.33893 13.3353 4.41123 13.4203C4.44525 13.4118 4.50053 13.3566 4.57283 13.246H4.61535V13.2417ZM14.4942 14.4665C14.4474 14.543 14.3878 14.5771 14.3198 14.5771C14.2603 14.5685 14.1965 14.56 14.1369 14.5473C14.0136 14.492 13.9073 14.4027 13.8222 14.2709C13.7755 14.1943 13.7117 14.071 13.6394 13.8924H13.9966C14.0434 13.8924 14.0987 13.9009 14.1667 13.9136C14.2305 13.9264 14.2773 13.9477 14.3028 13.9732C14.3836 14.0412 14.4389 14.1093 14.4601 14.1773C14.4856 14.2454 14.4942 14.3389 14.4942 14.4622V14.4665Z" fill="white"/>
</svg>
