<svg width="24" height="24" viewBox="0 0 24 24" fill="none" xmlns="http://www.w3.org/2000/svg">
<path fill-rule="evenodd" clip-rule="evenodd" d="M21.8754 12.7223C21.9547 13.283 22 13.8324 22 14.3649C22 14.835 21.966 15.2655 21.898 15.6506C21.8301 16.0358 21.7111 16.4323 21.5355 16.8401C21.5922 16.404 21.6148 15.9791 21.6148 15.56C21.6148 14.8237 21.5299 13.991 21.3656 13.0565C21.1957 12.1219 21.0371 11.2213 20.8842 10.349C20.7029 9.27849 20.6123 8.40055 20.6123 7.70953C20.55 7.61891 20.516 7.52828 20.516 7.43766C20.516 7.31305 20.5726 7.16578 20.6803 7.00152C20.8275 6.82027 20.9182 6.69566 20.9635 6.63335C20.9805 6.74097 21.1674 7.19976 21.5185 8.00407C21.6658 8.33825 21.7338 8.62712 21.7338 8.85935C21.6545 8.83103 21.5695 8.75739 21.4902 8.64411C21.4109 8.52517 21.3486 8.46853 21.3146 8.46853C21.2863 8.46853 21.2523 8.49685 21.207 8.54782C21.2637 9.13689 21.3939 9.99784 21.6035 11.1307C21.7508 11.9123 21.8414 12.4334 21.8754 12.7053V12.7223ZM16.6304 8.26462C16.6304 8.26462 16.5001 8.2986 16.3189 8.33259C16.1376 8.36657 15.9847 8.4572 15.8544 8.59314C15.7072 8.59314 15.6109 8.55915 15.5599 8.49684C15.5089 8.43454 15.4863 8.33259 15.4863 8.19665C15.4863 8.10602 15.4863 8.0154 15.4976 7.92477C15.5089 7.83415 15.5146 7.74352 15.5259 7.65289C15.5259 7.57926 15.5259 7.52828 15.5146 7.48863C15.5146 7.40933 15.5429 7.35269 15.5939 7.32437C15.6505 7.36968 15.6732 7.45465 15.6732 7.58492C15.6619 7.70954 15.6619 7.80583 15.6619 7.86813C15.6619 7.95876 15.6732 8.03805 15.6958 8.10036C15.7185 8.16266 15.7978 8.17965 15.9337 8.157C16.0244 8.08336 16.0697 7.97574 16.0697 7.82848C16.0697 7.79449 16.0697 7.73219 16.0583 7.65289C16.047 7.57359 16.047 7.50563 16.047 7.46031C16.047 7.3357 16.0867 7.22808 16.1716 7.14879C16.1999 7.1941 16.2169 7.3357 16.2339 7.56793C16.2453 7.80582 16.3302 7.93044 16.4832 7.94743C16.4832 7.89079 16.4775 7.81149 16.4605 7.70387C16.4492 7.59625 16.4378 7.53394 16.4378 7.52828C16.4378 7.39234 16.4775 7.29605 16.5624 7.24507C16.5794 7.32437 16.6078 7.44332 16.6531 7.59625C16.6927 7.74918 16.7154 7.86813 16.7154 7.94743C16.7154 8.05505 16.6871 8.16266 16.6361 8.25895L16.6304 8.26462ZM16.2509 9.86756L15.8544 10.6832C15.7525 10.6492 15.6505 10.5982 15.5429 10.5359C15.373 10.4283 15.2031 10.3207 15.0388 10.2074C15.0388 10.0715 15.0954 9.9242 15.2144 9.75994C15.3956 9.50506 15.4976 9.36346 15.5146 9.3408C15.6619 9.38611 15.7865 9.44842 15.8997 9.53338C16.013 9.61268 16.1263 9.72596 16.2453 9.87322L16.2509 9.86756ZM15.3107 6.60503C14.1495 7.00152 12.9941 7.40367 11.8442 7.80016C10.5018 8.27028 9.36335 8.70642 8.41745 9.1029C8.29283 9.15955 8.17955 9.24451 8.08893 9.36346C7.9983 9.4824 7.96432 9.60135 7.98131 9.71463C8.08893 9.59002 8.23619 9.48807 8.41745 9.40877C8.5987 9.32947 8.77429 9.2615 8.94987 9.1992L14.9425 6.98453L15.2824 6.72398L15.3107 6.59937V6.60503ZM10.0884 7.61324C10.0884 7.76051 10.077 7.87379 10.0487 7.95309C10.0204 8.03239 9.98641 8.10036 9.94109 8.157C9.8618 8.14567 9.78816 8.12868 9.72586 8.09469C9.66355 8.06071 9.6239 8.00407 9.60125 7.92477C9.60125 7.69821 9.61258 7.52262 9.63523 7.40367C9.65789 7.27906 9.70886 7.14312 9.79383 6.99019C9.81082 7.04683 9.81082 7.13746 9.78816 7.26773C9.76551 7.39801 9.75418 7.48297 9.75418 7.51695C9.75418 7.65289 9.81082 7.74352 9.92977 7.78883L10.094 7.61324H10.0884ZM14.0023 12.3315C14.0363 12.3768 14.0589 12.4447 14.0589 12.5354C14.0589 12.609 14.0476 12.6826 14.0193 12.7619C13.9909 12.8412 13.9626 12.9149 13.923 12.9885C13.8607 13.0451 13.804 13.0791 13.753 13.1018C13.7021 13.1244 13.6511 13.1188 13.5944 13.0791C13.4755 12.9262 13.4189 12.7619 13.4189 12.592C13.4189 12.4108 13.4982 12.1729 13.6511 11.8727C13.7247 11.7367 13.7984 11.6008 13.8663 11.4648C13.8777 11.5725 13.8323 11.7367 13.7417 11.952C13.6511 12.1672 13.6058 12.3258 13.6058 12.4277C13.6058 12.5354 13.6341 12.626 13.6851 12.6996C13.7927 12.7336 13.8663 12.6883 13.9003 12.5637C13.9343 12.4391 13.9683 12.3598 13.9966 12.3315H14.0023ZM19.2359 12.2352C19.2189 12.1275 19.134 11.6801 18.9924 10.8871C18.8224 9.96952 18.7035 9.23884 18.6412 8.68376C18.6752 8.62146 18.7205 8.58747 18.7658 8.58747C18.8224 8.58747 18.9074 8.66677 19.0263 8.8197C19.117 8.93865 19.1736 9.00661 19.1906 9.02361C19.1906 8.70642 19.0717 8.30426 18.8394 7.81149C18.5789 7.26773 18.4203 6.87691 18.3636 6.64468C18.2617 6.73531 18.1824 6.84859 18.1144 6.98453C18.0464 7.12046 17.9841 7.25074 17.9332 7.38102C17.9615 7.5736 18.2334 9.13689 18.7488 12.0822C18.9414 13.1414 19.0717 14.093 19.1453 14.9369C18.9074 15.1352 18.6752 15.2938 18.4373 15.4127C18.1994 15.5317 17.9558 15.5883 17.7009 15.5883C17.0099 15.4071 16.5568 14.7953 16.3302 13.7531C16.149 12.9035 16.0413 12.4277 16.0017 12.3258C15.8941 12.4447 15.8204 12.5693 15.7751 12.7053C15.7298 12.8412 15.7128 12.9885 15.7128 13.1414C15.8035 13.6512 15.8997 14.1496 15.996 14.6481C15.8488 14.8576 15.6788 15.0106 15.4806 15.1012C15.2824 15.1975 15.0615 15.2428 14.8122 15.2428C14.6763 15.2428 14.5404 15.2315 14.4044 15.2032C14.2232 15.2032 14.1325 15.1182 14.1325 14.9426C14.1325 14.8633 14.1325 14.7727 14.1439 14.6764C14.1552 14.5801 14.1552 14.5178 14.1439 14.4782C13.9513 14.733 13.7644 14.9879 13.5718 15.2371C13.4528 15.3391 13.3339 15.4127 13.2093 15.4637C13.0847 15.5147 12.9601 15.5373 12.8241 15.5373C12.7165 15.5373 12.6032 15.5147 12.4843 15.4694C12.3767 15.458 12.303 15.4297 12.2577 15.3731C12.2181 15.3164 12.1954 15.2485 12.1954 15.1692C12.1954 15.1239 12.2067 15.0332 12.2294 14.8973C12.2521 14.7614 12.2577 14.6707 12.2521 14.6254C12.0708 14.835 11.8952 15.0389 11.7196 15.2371C11.4931 15.4807 11.2665 15.6223 11.0399 15.6563C10.7681 15.6563 10.5698 15.6393 10.4395 15.5996C10.3149 15.5657 10.2073 15.509 10.128 15.4297C10.0487 15.3504 10.0034 15.2711 10.0034 15.1918C10.0034 15.1578 10.0261 15.0729 10.077 14.9483C10.128 14.8237 10.145 14.716 10.1393 14.6368C9.403 15.1352 8.99519 15.4014 8.91589 15.4411C8.63268 15.577 8.37213 15.645 8.12858 15.645C7.919 15.645 7.73209 15.611 7.5565 15.5373C7.36392 15.4297 7.21665 15.2825 7.10337 15.1012C6.99009 14.92 6.89946 14.7217 6.83716 14.5008C6.71821 13.8098 6.64458 12.9828 6.61059 12.0086C6.57661 11.0344 6.54829 10.0998 6.51997 9.1992C6.46333 8.18532 6.36137 7.33004 6.20844 6.62769L5.80062 7.43199C5.93656 8.33825 6.03852 9.15955 6.11215 9.90155C6.18578 10.6379 6.21977 11.3855 6.21977 12.1389C6.25375 12.9262 6.29907 13.7135 6.34438 14.5065C6.435 15.4127 6.7352 16.0811 7.23931 16.5172C7.35826 16.5739 7.44888 16.6022 7.51685 16.6135C7.58482 16.6249 7.68677 16.6249 7.82271 16.6249C8.15123 16.6249 8.48542 16.5286 8.83093 16.3417C9.07448 16.2057 9.36335 15.9961 9.7032 15.7186L9.74285 16.2907C9.83348 16.4096 9.94676 16.4946 10.0884 16.5512C10.23 16.6079 10.3829 16.6475 10.5415 16.6758C10.785 16.6588 11.0173 16.5965 11.2268 16.5002C11.4421 16.3983 11.6233 16.2624 11.7763 16.0924L12.0085 16.3643C12.1897 16.4833 12.3937 16.5399 12.6202 16.5399C12.6542 16.5399 12.6995 16.5399 12.7562 16.5286C12.9657 16.5286 13.164 16.4436 13.3566 16.268C13.5038 16.1038 13.6454 15.9452 13.7927 15.7922L14.0532 16.0641C14.2458 16.1717 14.4497 16.2284 14.6763 16.2284C14.8292 16.2284 14.9822 16.2114 15.1238 16.1831C15.271 16.1491 15.424 16.1038 15.5882 16.0414C15.7355 15.9622 15.8488 15.8319 15.9394 15.662C15.996 15.5543 16.0527 15.3901 16.115 15.1748C16.2849 15.594 16.4662 15.9112 16.6474 16.1264C16.8003 16.3077 16.9646 16.4323 17.1289 16.4946C17.2988 16.5569 17.4574 16.5909 17.6103 16.5909C17.8935 16.5909 18.1711 16.5229 18.4486 16.3813C18.7261 16.2397 18.9697 16.0584 19.1736 15.8319C19.3209 15.2598 19.3888 14.6764 19.3888 14.076C19.3888 13.5492 19.3322 12.9375 19.2246 12.2408L19.2359 12.2352ZM11.8952 10.1678C11.8952 10.1678 11.9065 10.2244 11.9065 10.2471V10.315C11.9065 10.434 11.8499 10.4906 11.7423 10.4906C11.6403 10.4793 11.5667 10.4793 11.5101 10.4793C11.3741 10.4793 11.3061 10.5586 11.3061 10.7228C11.2722 11.023 11.2382 11.2779 11.2099 11.4818C11.1815 11.6914 11.1249 11.8783 11.0343 12.0369C11.0059 12.0086 10.904 11.7594 10.7227 11.2893C10.6038 10.9721 10.4112 10.8361 10.1393 10.8814C10.0487 10.8361 10.0034 10.7682 10.0034 10.6775C10.0034 10.6209 10.0261 10.5416 10.0714 10.434C10.1167 10.3264 10.145 10.2584 10.162 10.2301C10.1733 10.2017 10.213 10.1904 10.2753 10.1961C10.3376 10.1961 10.3772 10.2074 10.3999 10.2187C10.5018 10.3433 10.6038 10.5019 10.7114 10.6832C10.819 10.8644 10.9436 11.125 11.0796 11.4592C11.1362 11.04 11.1759 10.7908 11.2042 10.7002C11.2835 10.417 11.4194 10.2074 11.612 10.0601C11.7479 10.0318 11.8442 10.0715 11.8952 10.1678ZM7.44888 8.87634C7.4772 8.7404 7.49419 8.63845 7.50552 8.57615C7.51685 8.51384 7.51685 8.40622 7.51685 8.26462C7.51685 7.76618 7.4149 7.30172 7.21665 6.87691L7.36392 6.72964C7.48287 6.83726 7.56783 6.97886 7.62447 7.14879C7.68111 7.31871 7.70377 7.49996 7.70377 7.68121C7.70377 7.89645 7.68111 8.0947 7.64146 8.27028C7.60181 8.44587 7.53384 8.64978 7.44322 8.87634H7.44888ZM16.2453 16.3247C16.2792 16.3983 16.2736 16.4719 16.2169 16.5512C16.1603 16.6305 16.0923 16.6815 16.013 16.7098C15.3786 16.9364 14.7499 17.1686 14.1212 17.4008C14.1495 17.1573 14.3081 16.993 14.597 16.9137C15.0161 16.7948 15.2484 16.7211 15.305 16.6815L16.2453 16.3303V16.3247ZM8.86491 12.558C8.86491 12.7563 8.84792 12.9035 8.8196 12.9942C8.78561 13.0848 8.73464 13.1584 8.661 13.2094C8.57038 13.2377 8.49108 13.2094 8.41745 13.1414C8.38912 13.1131 8.34381 13.0395 8.28151 12.9262C8.27018 12.8356 8.27018 12.7676 8.27018 12.7223C8.27018 12.3711 8.36647 12.0369 8.55338 11.7311C8.50807 11.884 8.47409 12.0143 8.44577 12.1275C8.41745 12.2352 8.40612 12.3371 8.40612 12.4277C8.40612 12.5297 8.42311 12.6203 8.46276 12.6996C8.49674 12.7449 8.53639 12.7846 8.57038 12.8242C8.60436 12.8639 8.64967 12.8695 8.69499 12.8526L8.87058 12.5693L8.86491 12.558ZM4.28264 7.14879C4.24865 7.25074 4.20901 7.34703 4.17502 7.44898C4.05607 7.34136 3.93713 7.30172 3.82385 7.32437C3.71623 7.47164 3.65392 7.72086 3.64826 8.0777C3.63693 8.43454 3.58595 8.68943 3.484 8.83103C3.42169 8.77439 3.30841 8.54782 3.14415 8.14001C3.02521 7.83414 2.83263 7.67555 2.56075 7.67555C2.50411 7.63024 2.48145 7.57359 2.48145 7.51129C2.48145 7.4773 2.49278 7.42633 2.5211 7.36402C2.54942 7.30172 2.56075 7.25074 2.56075 7.21676C2.62305 7.1148 2.69669 7.06949 2.77598 7.06949C2.80997 7.06949 2.84395 7.08648 2.87227 7.12613C3.00821 7.26207 3.1215 7.43766 3.21212 7.65856C3.30275 7.87379 3.39337 8.0777 3.484 8.27028C3.51798 8.03239 3.55763 7.80016 3.59162 7.56227C3.65392 7.30172 3.7672 7.09781 3.93146 6.95054C3.99377 6.96187 4.06174 6.9732 4.13537 6.99019C4.20901 7.00718 4.25998 7.06382 4.28264 7.15445V7.14879ZM4.31096 9.31248C4.31096 9.49373 4.24865 9.66932 4.12971 9.83358C4.0051 10.0035 3.8465 10.1281 3.64826 10.2074C3.63693 10.2074 3.56896 10.2301 3.43869 10.2754C3.30841 10.3207 3.20646 10.332 3.13282 10.315C3.31408 10.2244 3.43302 10.1678 3.484 10.1394C3.69924 10.0148 3.90314 9.85623 4.09572 9.67498C3.97111 9.65799 3.85783 9.641 3.75588 9.62967C3.65392 9.61834 3.55763 9.60702 3.45568 9.60702C3.30841 9.60702 3.1838 9.62967 3.07618 9.66932C2.96856 9.70897 2.8836 9.7826 2.81563 9.87889C2.78731 9.82225 2.8043 9.75428 2.85528 9.66366C2.93458 9.5617 2.99122 9.49373 3.01954 9.44842C3.09317 9.38611 3.1838 9.3408 3.29142 9.31248C3.39904 9.28416 3.50666 9.27283 3.61994 9.27283C3.73888 9.27283 3.85217 9.27283 3.96545 9.28416C4.07873 9.29549 4.19201 9.30115 4.31096 9.31248ZM3.59162 11.7594C3.61994 11.816 3.61427 11.8897 3.58595 11.9916C3.55197 12.0936 3.51232 12.2068 3.45568 12.3315C3.39904 12.3881 3.33673 12.4108 3.2631 12.4108C3.20646 12.4108 3.16114 12.3938 3.12716 12.3541C3.04786 12.2182 3.00255 12.0879 3.00255 11.9576C3.00255 11.8217 3.0422 11.6518 3.12716 11.4535C3.25177 11.1477 3.31974 10.9721 3.33107 10.9381C3.33107 11.0004 3.31408 11.0853 3.27443 11.1986C3.19513 11.4535 3.14982 11.6178 3.14982 11.6857C3.14982 11.8217 3.20079 11.9406 3.29708 12.0369C3.35939 12.0539 3.41037 12.0482 3.44435 12.0086C3.47833 11.9746 3.52365 11.884 3.58029 11.7481L3.59162 11.7594ZM5.46644 14.4498C5.22288 14.9313 4.71878 15.3164 3.95979 15.6053C2.99122 15.9791 2.38516 16.2567 2.15293 16.4493C2.21524 16.3133 2.31153 16.1661 2.43614 16.0131C2.60606 15.8206 2.73634 15.6846 2.81563 15.594C2.61739 15.4694 2.47012 15.3731 2.3795 15.3108C2.20957 15.1918 2.0793 15.0616 2 14.9143C2.25489 14.4272 2.5211 14.042 2.8043 13.7701C3.19513 13.3963 3.6256 13.2151 4.09572 13.2151L4.31096 13.4869C4.34494 13.5606 4.3676 13.6342 4.3676 13.7192C4.3676 13.8438 4.3053 13.9854 4.18635 14.1383C4.06174 14.2912 3.94279 14.4385 3.82385 14.5744C3.81252 14.5631 3.7672 14.4838 3.68224 14.3366C3.59728 14.1893 3.50666 14.093 3.41603 14.059C3.16114 14.0307 2.94591 14.0987 2.76466 14.2629C3.11017 14.6367 3.55197 14.818 4.09572 14.818C4.24299 14.818 4.41291 14.7953 4.61116 14.75C4.89436 14.6481 5.17757 14.5518 5.46644 14.4498Z" fill="white"/>
</svg>
