<svg width="24" height="24" viewBox="0 0 24 24" fill="none" xmlns="http://www.w3.org/2000/svg">
<path fill-rule="evenodd" clip-rule="evenodd" d="M21.9954 9.10106C21.9351 9.07323 21.884 9.01757 21.8377 8.93408C21.7124 8.69753 21.6336 8.56766 21.6058 8.54447L21.5176 8.81349C21.5176 9.17527 21.5501 9.61126 21.6197 10.1168C21.7774 11.2949 21.8516 12.0463 21.8516 12.3664C21.8516 13.1827 21.833 13.7671 21.7959 14.1242C21.731 14.755 21.5872 15.3024 21.3738 15.7708C21.462 15.1261 21.5083 14.4768 21.5083 13.8228C21.5083 13.0064 21.4434 12.051 21.3089 10.9563C21.1744 9.86173 21.0445 8.81813 20.9193 7.82091C20.9657 7.58436 21.0167 7.41275 21.077 7.31071C21.1373 7.20866 21.2115 7.12518 21.2996 7.06488C21.3089 7.11126 21.4759 7.5287 21.8098 8.32184C21.9351 8.62796 22 8.8877 22 9.10106H21.9954ZM17.7746 6.42944C17.7653 6.54076 17.7096 6.62425 17.5983 6.68455C17.5612 6.70774 17.4592 6.74948 17.2876 6.80514C16.1744 7.16692 15.4694 7.40811 15.1679 7.51943C14.8664 7.63074 14.4443 7.80699 13.8924 8.05282C13.9759 7.79308 14.1985 7.60755 14.5696 7.49624C15.1122 7.32462 15.4137 7.22258 15.4833 7.18547C16.2486 6.93501 17.0139 6.67991 17.7746 6.42944ZM16.6289 8.40996C16.5408 8.20124 16.3785 8.0621 16.1512 7.98788C16.0399 7.93686 15.9378 7.98788 15.8404 8.13167C15.7894 8.20588 15.7106 8.32648 15.6085 8.48881C15.5946 8.60941 15.6827 8.72072 15.8822 8.82277C16.077 8.92481 16.1976 9.01293 16.2347 9.07787C16.3089 9.01757 16.3785 8.90625 16.4481 8.74391C16.513 8.58158 16.5779 8.47026 16.6382 8.40996H16.6289ZM13.7904 10.8914C13.7904 11.0027 13.7718 11.1094 13.7347 11.2161C13.6976 11.3181 13.6327 11.3923 13.5352 11.4294C13.4378 11.4294 13.359 11.3738 13.3033 11.2625C13.2801 11.0537 13.3544 10.7986 13.526 10.4925C13.628 10.2977 13.6976 10.1539 13.7254 10.0565C13.7254 10.1215 13.679 10.2513 13.5909 10.4461C13.5028 10.6409 13.4564 10.7755 13.4564 10.8589C13.4564 10.9703 13.5213 11.0537 13.6466 11.1048L13.7904 10.8914ZM12.5891 8.76711C12.3942 9.11497 12.1531 9.40718 11.8655 9.63445C11.5315 9.90347 11.1929 10.0333 10.8544 10.0333C10.9564 9.94985 11.1327 9.84317 11.3831 9.70403C11.6336 9.56488 11.8145 9.45356 11.9351 9.36544C11.8145 9.35152 11.6892 9.33297 11.5547 9.30978C11.4202 9.28659 11.3043 9.27731 11.1976 9.27731C10.9147 9.27731 10.6874 9.34688 10.5204 9.49067C10.6224 9.25412 10.7662 9.05468 10.9425 8.90161C11.1558 8.71609 11.3831 8.62332 11.6197 8.62332C11.782 8.63724 11.9583 8.65115 12.1484 8.66043C12.3386 8.66971 12.4824 8.70681 12.5891 8.76711ZM9.4397 8.2198C9.4397 8.2198 9.46289 8.27546 9.46289 8.32184C9.46289 8.35894 9.45362 8.40996 9.43043 8.47026C9.40724 8.5352 9.38868 8.58158 9.37477 8.61868C9.31447 8.68362 9.25417 8.72072 9.19852 8.72072C9.16141 8.72072 9.1243 8.71145 9.0872 8.68826C8.97588 8.57694 8.92022 8.44243 8.92022 8.28937C8.92022 8.16878 8.94805 8.03427 9.00835 7.87657C9.09647 7.69104 9.15677 7.55653 9.1846 7.47768C9.17532 7.53798 9.16141 7.60755 9.13822 7.69104C9.0872 7.88584 9.05937 8.02035 9.05937 8.10384C9.05937 8.26154 9.11503 8.37286 9.22634 8.43779C9.32375 8.40996 9.37941 8.37286 9.39332 8.32648C9.40724 8.28009 9.42115 8.24763 9.4397 8.22444V8.2198ZM15.8961 16.3367C15.859 16.448 15.8033 16.564 15.7338 16.6892C15.6642 16.8098 15.5807 16.9396 15.4833 17.0742C15.4601 17.051 15.3395 16.9721 15.1169 16.8422C14.9592 16.7448 14.8664 16.6521 14.8386 16.5639C14.9128 16.4434 14.987 16.332 15.0612 16.2207C15.1725 16.0816 15.2931 16.0074 15.4276 16.0074C15.525 16.0677 15.6224 16.128 15.7152 16.1836C15.7987 16.2578 15.8544 16.3088 15.8915 16.3413L15.8961 16.3367ZM19.2681 8.81349C19.231 8.61868 19.1846 8.43315 19.1336 8.25226C19.0826 8.07137 19.0223 7.91831 18.9573 7.80236L18.9249 7.82555C18.8785 7.6864 18.8228 7.5287 18.7486 7.35709C18.6744 7.18547 18.6002 7.0185 18.526 6.85616C18.475 6.90254 18.4239 6.96748 18.3822 7.0556C18.3358 7.14373 18.2755 7.27824 18.192 7.45449C18.192 7.81163 18.308 8.66507 18.5352 10.0148C18.6373 10.6224 18.6929 11.1419 18.6929 11.5732C18.5677 11.6845 18.4147 11.7634 18.243 11.8144C18.0668 11.8608 17.8813 11.8886 17.6818 11.8886C17.4221 11.8886 17.1531 11.8515 16.8794 11.7773C16.9629 11.5825 17.0232 11.4016 17.0696 11.23C17.116 11.0584 17.1345 10.8868 17.1345 10.7198C17.1345 10.5621 17.116 10.423 17.0742 10.2977C17.0325 10.1725 16.9675 10.0565 16.8794 9.95449C16.7774 9.88955 16.7032 9.84781 16.6568 9.8339C16.6104 9.81998 16.5547 9.81998 16.4805 9.8339C16.1327 10.0426 15.8636 10.3441 15.6781 10.7476C15.5436 11.0306 15.4462 11.4063 15.3766 11.884C14.5 12.153 13.6234 12.4127 12.7514 12.6725C12.6633 12.7931 12.5751 12.9137 12.4824 13.0343C12.3942 13.1549 12.3479 13.2708 12.3479 13.3729C12.6586 13.3729 12.9601 13.4007 13.2477 13.4517C13.3358 13.4656 13.8135 13.5816 14.6855 13.7949C14.3748 13.8784 13.8785 14.0176 13.2059 14.217C12.6354 14.3747 12.116 14.486 11.6475 14.551C11.4481 14.5788 11.2672 14.602 11.1002 14.6113C10.9378 14.6205 10.7848 14.6298 10.6456 14.6298C10.2607 14.6298 9.89889 14.5927 9.5603 14.5139C9.22171 14.435 8.89703 14.3098 8.58627 14.1289C8.11317 13.846 7.83488 13.4332 7.76067 12.8951C7.64935 12.9786 7.5705 13.0714 7.51948 13.1781C7.4731 13.2847 7.44527 13.4007 7.44527 13.5166C7.53339 13.9387 7.62616 14.3608 7.72356 14.7736C6.98145 15.3534 6.0538 15.8868 4.94063 16.3784C3.96197 16.7727 2.9833 17.1669 2 17.5704C2.28293 17.5241 2.73748 17.4591 3.36827 17.371C4.30983 17.2365 5.03339 17.051 5.53896 16.8144C6.01206 16.5547 6.49443 16.2949 6.97681 16.0352C7.52412 15.7105 7.87662 15.3116 8.03432 14.8432C8.09926 14.8061 8.18274 14.8153 8.28015 14.8756C8.33117 14.9035 8.41002 14.9545 8.51206 15.0194C8.88312 15.1818 9.2449 15.2884 9.60204 15.3302C9.95918 15.3766 10.3766 15.3951 10.859 15.3951C11.1327 15.3951 11.397 15.3719 11.6568 15.3209C11.9119 15.2745 12.4128 15.1447 13.1549 14.9359C13.8089 14.7597 14.1892 14.653 14.3006 14.6252C14.7458 14.5139 15.1447 14.4304 15.4972 14.3747C15.8497 14.3191 16.1929 14.2912 16.5269 14.2912C16.7217 14.2912 16.9443 14.3051 17.2041 14.3376C17.4638 14.3654 17.6957 14.4072 17.8952 14.4582L18.3312 13.6883C18.0065 13.6883 17.6633 13.6558 17.3015 13.5862C16.9397 13.5213 16.5779 13.4378 16.2069 13.3404C15.5297 13.1641 14.8571 12.9832 14.18 12.807C14.4258 12.7235 14.6855 12.64 14.9638 12.5473C15.2421 12.4545 15.4879 12.4081 15.7059 12.4081C15.8404 12.4081 15.975 12.4313 16.1048 12.473C16.3414 12.5565 16.564 12.6168 16.7681 12.6586C16.9722 12.7003 17.1902 12.7189 17.4174 12.7189C17.6772 12.7189 17.923 12.6818 18.1596 12.6029C18.3915 12.5241 18.5863 12.4035 18.744 12.2411C18.8321 12.0417 18.8924 11.8469 18.9295 11.6614C18.9666 11.4758 18.9805 11.2578 18.9805 11.0027C18.9805 10.7662 18.9573 10.4554 18.9156 10.0797C18.8182 9.25412 18.7718 8.75319 18.7718 8.57694L18.8599 8.38677C18.897 8.42388 18.962 8.50737 19.0594 8.6326C19.1336 8.73 19.2032 8.7903 19.2727 8.80885L19.2681 8.81349ZM10.8729 11.2625L10.7941 11.5176C10.757 11.5268 10.7106 11.5176 10.6503 11.499C10.59 11.4805 10.5529 11.4712 10.539 11.4712C10.4926 11.4712 10.4555 11.4944 10.4184 11.5361C10.321 11.8979 10.2282 12.2597 10.1401 12.6168C9.98237 12.2968 9.82931 11.9768 9.67161 11.6614L9.61595 11.8051C9.53247 11.7912 9.46753 11.7727 9.42115 11.7495C9.37477 11.7263 9.33766 11.6845 9.31447 11.6289C9.32839 11.5083 9.35158 11.4155 9.37941 11.3413C9.40724 11.2671 9.46289 11.2022 9.53711 11.1511C9.6948 11.2254 9.8154 11.3691 9.90352 11.5779C9.99165 11.7912 10.0798 11.9907 10.1586 12.1855C10.2189 11.9257 10.2653 11.7309 10.3024 11.6057C10.3673 11.3738 10.4787 11.2254 10.6364 11.1511L10.8683 11.2625H10.8729ZM14.0362 16.6382C13.897 16.8144 13.7069 16.9582 13.475 17.0649C13.243 17.1716 12.9926 17.2272 12.7236 17.2272C12.5891 17.2272 12.4685 17.2133 12.3571 17.1808C12.2737 17.1345 12.218 17.102 12.1809 17.0788C12.1067 17.0324 12.0649 16.9814 12.0603 16.9211C12.0742 16.7819 12.1391 16.6474 12.2505 16.5222C12.3896 16.3645 12.603 16.2254 12.8859 16.1001C12.7839 16.0166 12.6401 15.9795 12.4638 15.9795C12.3757 15.9795 12.3108 15.9888 12.2737 16.0027C12.2737 15.9517 12.3015 15.9007 12.3525 15.845C12.4035 15.794 12.4638 15.7523 12.5288 15.7244C12.7375 15.7476 12.872 15.7615 12.9276 15.7755C12.9879 15.7847 13.0575 15.8265 13.141 15.8914C13.1688 16.0259 13.09 16.1558 12.8998 16.2857C12.7096 16.4155 12.5102 16.55 12.3061 16.6938C12.3061 16.7773 12.4221 16.8608 12.6493 16.9489C12.7514 16.9628 12.8256 16.9721 12.872 16.9721C13.0436 16.9721 13.2338 16.935 13.4378 16.8562C13.6466 16.7773 13.846 16.7077 14.0408 16.6382H14.0362ZM6.54545 7.55653C6.51762 7.64002 6.48516 7.71887 6.45733 7.80236C6.37384 7.72814 6.28571 7.70032 6.18831 7.72351C6.08627 8.20588 5.97959 8.68362 5.87755 9.16135C5.99814 9.19846 6.10482 9.27267 6.20223 9.38863C6.29963 9.50458 6.39239 9.6159 6.48052 9.72722C6.40631 9.85245 6.20686 9.93594 5.87755 9.97304C5.55288 10.0101 5.33024 10.1029 5.20965 10.2513C5.20965 10.5018 5.23748 10.7894 5.29777 11.1094C5.3859 11.5083 5.4462 11.7912 5.4833 11.9489C5.51577 12.1066 5.53896 12.2504 5.55751 12.3756C5.57143 12.5009 5.5807 12.6354 5.5807 12.7745C5.5807 12.9508 5.56215 13.1178 5.52968 13.2708C5.49722 13.4239 5.43692 13.5816 5.35807 13.7439C5.43228 13.5306 5.46939 13.3079 5.46939 13.076C5.46939 12.8998 5.45547 12.7467 5.43228 12.6215C5.40445 12.4962 5.35343 12.2782 5.26994 11.9768C5.1679 11.5964 5.10761 11.3831 5.09369 11.332C5.04267 11.1094 5.01484 10.8914 5.01484 10.6734V10.5018C5.01484 10.4554 5.0334 10.3534 5.0705 10.205C5.10761 10.0565 5.23284 9.93594 5.45083 9.83853C5.72449 9.74113 5.92393 9.6762 6.03989 9.63909C5.9564 9.52777 5.84508 9.47212 5.70594 9.47212C5.63173 9.47212 5.56679 9.48603 5.51577 9.5185L5.33952 9.68547C5.31633 9.63445 5.32096 9.57416 5.34879 9.50922C5.35807 9.49531 5.38126 9.44892 5.42764 9.37471C5.47403 9.3005 5.53896 9.25412 5.62245 9.23093C5.70594 9.20774 5.78942 9.18455 5.87291 9.16599C5.80798 9.09178 5.73377 8.95264 5.65955 8.75319C5.53896 8.42852 5.37199 8.26154 5.14935 8.26154C5.06586 8.21516 5.01484 8.17805 4.98701 8.15022C4.95918 8.12239 4.94527 8.08529 4.93599 8.03891C4.93599 7.91831 4.94991 7.81627 4.98237 7.73278C5.0102 7.6493 5.06586 7.57972 5.14935 7.5287C5.29777 7.6261 5.41837 7.75597 5.51577 7.91831C5.65028 8.17805 5.78479 8.43779 5.91466 8.69753C5.94249 8.40996 5.97959 8.11776 6.0167 7.83019C6.06308 7.65393 6.14657 7.51479 6.2718 7.41738C6.33673 7.42666 6.39703 7.43594 6.44341 7.45449C6.4898 7.47304 6.5269 7.51015 6.55009 7.56117L6.54545 7.55653ZM8.96197 16.4619C8.96197 16.6242 8.87848 16.7819 8.71614 16.9304C8.59555 16.9675 8.52134 16.9025 8.48423 16.7309C8.50742 16.5315 8.56308 16.3274 8.65121 16.1187C8.78571 15.8589 8.88312 15.6641 8.93877 15.5389C8.93877 15.6131 8.91095 15.7152 8.85992 15.8404C8.73469 16.1372 8.66976 16.3181 8.66976 16.3877C8.66976 16.499 8.71614 16.5825 8.81354 16.6428C8.85993 16.5825 8.90631 16.5222 8.95733 16.4665L8.96197 16.4619ZM16.7542 11.4758C16.6892 11.5129 16.6336 11.5361 16.5918 11.55C16.5501 11.5593 16.4898 11.5686 16.4063 11.5686C16.1744 11.5686 15.9981 11.4851 15.8729 11.3135C15.8126 11.2393 15.7848 11.179 15.7848 11.1372C15.7848 11.0955 15.7987 11.0584 15.8312 11.0352C15.8915 10.9378 15.9471 10.8682 15.9981 10.8218C16.0492 10.7755 16.128 10.7244 16.2301 10.6641C16.4388 10.6409 16.5826 10.7337 16.666 10.9424C16.6892 11.0306 16.7124 11.1233 16.7449 11.2161C16.7727 11.3088 16.7774 11.397 16.7542 11.4758Z" fill="white"/>
</svg>
