<svg width="24" height="24" viewBox="0 0 24 24" fill="none" xmlns="http://www.w3.org/2000/svg">
<path fill-rule="evenodd" clip-rule="evenodd" d="M19.1968 7.91217C19.2753 7.94236 19.3175 8.00274 19.3175 8.08124C19.3175 8.10539 19.2994 8.13558 19.2692 8.17181C19.239 8.20804 19.2088 8.24427 19.1847 8.28654C19.1666 8.26842 19.1485 8.25634 19.1243 8.24427C19.1002 8.23219 19.076 8.22615 19.0519 8.22615C18.9794 8.22615 18.8707 8.30465 18.7258 8.45561C18.5809 8.60656 18.4722 8.69109 18.3997 8.69713C18.2367 8.7877 18.122 8.84809 18.0495 8.89036C17.7838 9.03527 17.5846 9.13189 17.4457 9.1802C17.9348 8.83602 18.4299 8.48579 18.9311 8.12954C18.8345 8.03897 18.762 7.9786 18.7137 7.93633C18.6231 7.85783 18.5809 7.77933 18.5809 7.70688C18.5809 7.68272 18.599 7.64649 18.6352 7.59215C18.6714 7.5378 18.7439 7.47742 18.8466 7.40497C18.9492 7.33251 19.0337 7.29626 19.1002 7.29626C19.2028 7.29626 19.2692 7.37478 19.2934 7.53781C19.2934 7.60423 19.2934 7.67064 19.2934 7.73706C19.2934 7.80348 19.2572 7.86387 19.2028 7.91217H19.1968ZM17.2645 7.98463C17.3189 7.98463 17.3732 7.95444 17.4276 7.89406C17.4819 7.83368 17.5 7.77932 17.4819 7.73102C16.7392 7.94235 16.0026 8.14766 15.2719 8.34692L10.6105 9.82024C10.5199 9.87459 10.4535 9.93497 10.4112 9.98931C10.3689 10.0437 10.3387 10.1161 10.3327 10.1946L10.381 10.1704C11.5102 9.75985 12.6453 9.37342 13.7986 9.01113C14.813 8.6911 15.9663 8.34692 17.2645 7.98463ZM18.7499 16.6555C18.6473 16.6011 18.593 16.5166 18.593 16.4019C18.593 16.3717 18.6171 16.3173 18.6594 16.2449C18.7016 16.1724 18.7983 16.0879 18.9432 15.9973C19.0881 15.9067 19.1968 15.8343 19.2692 15.786C19.1666 15.7135 19.0458 15.6773 18.919 15.6773C18.8526 15.6773 18.8043 15.6833 18.7741 15.7014L18.7016 15.7256C18.7077 15.6592 18.7439 15.5988 18.8103 15.5384C18.8767 15.478 18.9371 15.4418 19.0035 15.4358C19.1002 15.4297 19.1907 15.4358 19.2813 15.4599C19.3598 15.5022 19.4443 15.5384 19.5349 15.5686C19.5772 15.7135 19.4745 15.8524 19.239 15.9852C19.0035 16.1181 18.8828 16.2087 18.8828 16.257C18.8828 16.3113 18.9371 16.3717 19.0398 16.4381C19.0881 16.4441 19.1545 16.4502 19.233 16.4502C19.4081 16.4502 19.5953 16.42 19.7825 16.3536C19.9697 16.2871 20.1568 16.2268 20.332 16.1724C20.2112 16.3173 20.0361 16.4441 19.8127 16.5468C19.5893 16.6494 19.3598 16.7038 19.1243 16.7038C18.9794 16.7038 18.8526 16.6857 18.7499 16.6555ZM14.6561 10.6414C14.6259 10.6475 14.5594 10.6354 14.4628 10.5931C14.3662 10.5509 14.2938 10.5509 14.2455 10.5931C14.179 10.6958 14.1005 10.9252 14.0039 11.2694C13.9556 11.4385 13.9013 11.5773 13.8469 11.68C13.8167 11.6377 13.7322 11.4505 13.6054 11.1124C13.5148 10.8709 13.3578 10.7501 13.1344 10.7501C13.0801 10.726 13.0499 10.6897 13.0499 10.6414C13.0499 10.6112 13.062 10.5629 13.0801 10.5086C13.0982 10.4542 13.1163 10.418 13.1223 10.3999C13.2129 10.2852 13.2914 10.2369 13.3639 10.255C13.4907 10.3758 13.5994 10.5327 13.6779 10.726C13.7564 10.9192 13.8349 11.1064 13.9073 11.2936C13.9556 11.1064 14.0039 10.9252 14.0522 10.738C14.1247 10.5388 14.2273 10.3878 14.3662 10.2912C14.4326 10.2912 14.4991 10.2912 14.5655 10.2912C14.6319 10.2912 14.6862 10.3335 14.7285 10.4059L14.6561 10.6354V10.6414ZM11.9026 8.02086L7.78459 9.51833C7.73628 9.5606 7.69402 9.59682 7.65175 9.63909C7.65779 9.56059 7.70005 9.47606 7.76647 9.39756C7.83289 9.31907 7.91139 9.25869 7.98989 9.21642C9.37263 8.72733 10.7614 8.2322 12.1562 7.7431C12.1502 7.79745 12.12 7.85178 12.0717 7.90008C12.0234 7.94839 11.9691 7.99066 11.9026 8.02086ZM12.2649 13.1412C12.2227 13.1473 12.1864 13.1412 12.1442 13.1171C12.0657 13.0688 12.0174 13.0084 12.0113 12.936C12.0113 12.7427 12.0777 12.5193 12.2045 12.2597C12.271 12.1329 12.3374 12 12.4098 11.8612C12.4098 11.9276 12.3857 12.0121 12.3374 12.1147C12.2227 12.3623 12.1683 12.5193 12.1683 12.5857C12.1683 12.6884 12.2227 12.7729 12.3253 12.8393L12.5065 12.6099C12.5306 12.6823 12.5185 12.7669 12.4642 12.8635C12.4098 12.9601 12.3434 13.0507 12.2649 13.1412ZM21.7932 13.902C21.9079 13.7571 21.9683 13.6605 21.9864 13.6062C22.0045 13.5518 22.0045 13.5096 21.9864 13.4794C21.0746 13.4794 20.0844 13.3647 19.0156 13.1352C17.9469 12.9058 16.9143 12.6763 15.9241 12.4529C16.8177 11.9879 17.7235 11.5834 18.6413 11.2452C18.6896 11.2875 18.762 11.3962 18.8586 11.5834C18.8888 11.6498 18.9311 11.6981 18.9794 11.7404C18.9734 11.5653 18.9613 11.3841 18.9552 11.1969C19.1002 11.1728 19.2511 11.1486 19.4081 11.1245C19.5651 11.1003 19.71 11.0882 19.8489 11.0882C19.9214 11.0882 20.0119 11.0943 20.1267 11.1124L20.4406 10.412C20.2716 10.0678 20.0482 9.7659 19.7644 9.51833C19.4443 9.23454 19.1122 9.07753 18.7741 9.03527C18.6956 9.07753 18.6292 9.11378 18.5748 9.14397C18.5205 9.17416 18.4782 9.21642 18.436 9.26472C18.3212 9.45191 18.2367 9.61494 18.1824 9.75986C18.1039 9.95912 18.0616 10.1403 18.0616 10.3033C18.0616 10.3818 18.0737 10.4724 18.0978 10.5629C18.122 10.6535 18.1522 10.732 18.1944 10.7984L16.4071 11.6317C16.1596 11.7947 15.906 11.9517 15.6584 12.1027C15.127 12.4408 14.8432 12.8091 14.801 13.2016C14.8191 13.1956 14.8432 13.1775 14.8734 13.1594C14.9036 13.1412 14.9278 13.1231 14.9338 13.1171C15.4712 13.1714 16.0811 13.2681 16.7513 13.4069C17.4215 13.5458 18.0676 13.6786 18.6896 13.8054L17.494 14.2402C16.8902 14.4817 16.2864 14.6629 15.6765 14.7897C15.0666 14.9165 14.4326 14.9768 13.7745 14.9768C13.219 14.9768 12.6816 14.9225 12.1562 14.8138C11.6309 14.7051 11.1539 14.5421 10.7191 14.3247C10.5078 14.2342 10.3508 14.0711 10.2482 13.8296C10.2421 13.8054 10.1757 13.5941 10.0549 13.1895C9.93418 13.2862 9.66247 13.6545 9.23375 14.2885C8.91977 14.7655 8.55748 15.001 8.14688 15.001C8.00196 15.0252 7.86308 15.001 7.73628 14.9165C7.70609 14.8984 7.5974 14.8138 7.4223 14.6508C7.23511 14.3791 7.09623 14.0953 6.99359 13.8054C6.89094 13.5156 6.76413 12.9601 6.6011 12.1389C6.48638 11.5894 6.37165 11.1607 6.25089 10.8467C6.08182 10.4059 5.85237 10.0316 5.56253 9.7357C5.49007 9.8142 5.44177 9.8927 5.41158 9.96515C5.38139 10.0376 5.36931 10.1161 5.36931 10.1946C5.36931 10.3576 5.44177 10.5629 5.58669 10.8105C5.77387 11.1245 5.87652 11.3177 5.90067 11.3902C5.97917 11.6015 6.0637 11.8068 6.1422 12.0061C6.30523 12.4348 6.38373 12.7971 6.38373 13.0929C6.38373 13.111 6.38373 13.1714 6.37165 13.2862C6.36561 13.4009 6.3475 13.4915 6.32335 13.5639C6.08182 13.8779 5.82821 14.1617 5.55649 14.4213C5.28478 14.681 5.00098 14.9104 4.69303 15.1097C4.04695 15.5263 3.36463 15.7377 2.64005 15.7377C2.41664 15.5505 2.30191 15.321 2.30191 15.0493C2.30191 14.9104 2.34418 14.7051 2.43475 14.4334C2.60382 13.9202 2.68835 13.582 2.68835 13.4311C2.62193 13.4552 2.5857 13.4975 2.56759 13.5579C2.54948 13.6183 2.53136 13.6847 2.50721 13.7632C2.48306 13.8417 2.38041 14.1496 2.19322 14.6991C2.06642 15.0674 2 15.3754 2 15.6169C2 15.9369 2.09057 16.2147 2.27776 16.4381C2.39852 16.5347 2.54948 16.583 2.73666 16.583C2.82723 16.583 2.92988 16.5709 3.05065 16.5468C3.17141 16.5226 3.28613 16.5045 3.38878 16.4864C3.76919 16.3415 4.09525 16.1966 4.37905 16.0516C4.7353 15.8645 5.0674 15.6471 5.37535 15.3995C5.6833 15.152 5.94294 14.8682 6.1422 14.5602C6.34146 14.2523 6.46222 13.9081 6.50449 13.5398C6.55883 13.733 6.64337 14.0289 6.74602 14.4213C6.84867 14.7534 6.96943 15.0191 7.10831 15.2305C7.25323 15.4176 7.39211 15.5505 7.51891 15.6411C7.68798 15.7618 7.86308 15.8222 8.03819 15.8222C8.11065 15.8222 8.18915 15.8101 8.27972 15.786C8.59974 15.7135 8.88958 15.4901 9.13714 15.1218C9.32433 14.8018 9.51151 14.4757 9.70473 14.1557C9.68662 14.2704 9.68058 14.3489 9.68058 14.3972C9.68058 14.7655 9.80738 15.1278 10.067 15.4841C10.1818 15.635 10.4535 15.9248 10.8882 16.3536C11.0392 16.3052 11.1479 16.1664 11.2143 15.9309C11.2203 15.9007 11.2505 15.6954 11.2988 15.315C11.6671 15.4659 12.0355 15.5807 12.3917 15.6471C12.748 15.7135 13.1163 15.7497 13.4967 15.7497C14.167 15.7497 14.9097 15.629 15.7308 15.3935C16.552 15.158 17.343 14.9165 18.1099 14.6749C19.0217 14.3911 19.7946 14.2221 20.4406 14.1557C20.5433 14.1315 20.7788 14.1073 21.135 14.0892C21.4913 14.0711 21.7147 14.0047 21.7932 13.902ZM7.24115 8.95074C7.16869 8.93263 7.10831 8.90847 7.06001 8.8662C7.0117 8.82393 6.98755 8.76959 6.98755 8.69713C6.98755 8.46164 7.02981 8.2503 7.12039 8.05708C7.21096 7.86386 7.34984 7.70082 7.54306 7.56195C7.41626 7.83367 7.28946 8.11143 7.16869 8.38315C7.16869 8.46165 7.19888 8.55825 7.2653 8.6609C7.38003 8.68505 7.45249 8.64279 7.48268 8.52806L7.54306 8.5039C7.51287 8.59448 7.47664 8.67901 7.44645 8.76958C7.39814 8.8662 7.33172 8.92659 7.24115 8.95074ZM9.92211 11.8128L9.77719 11.7283C9.73492 11.7827 9.69266 11.837 9.64435 11.8913C9.59605 11.9457 9.5417 11.9759 9.48736 11.994C9.39678 11.9879 9.32433 11.9698 9.26395 11.9396C9.20356 11.9094 9.16733 11.8611 9.14922 11.7887C9.14922 11.529 9.15526 11.3419 9.17337 11.2271C9.19149 11.1124 9.23979 10.9977 9.33036 10.895C9.34848 10.9615 9.35452 11.0098 9.35452 11.04C9.35452 11.0943 9.34244 11.1728 9.32433 11.2754C9.30621 11.3781 9.29414 11.4324 9.29414 11.4505C9.29414 11.5653 9.34848 11.6498 9.45113 11.7042C9.56585 11.7042 9.65039 11.6438 9.71681 11.523C9.72285 11.4687 9.72889 11.4022 9.71681 11.3358C9.71681 11.2694 9.71681 11.203 9.71681 11.1366C9.71681 11.0218 9.75304 10.9433 9.8255 10.895C9.84965 10.9433 9.86173 10.9916 9.86173 11.04C9.86173 11.0883 9.86173 11.1426 9.84965 11.1969C9.84361 11.2513 9.83154 11.3056 9.8255 11.3539C9.8255 11.4687 9.88588 11.529 10.0066 11.5351L10.1395 11.523C10.1395 11.4928 10.1334 11.4324 10.1153 11.3539C10.0972 11.2754 10.0912 11.209 10.0912 11.1607C10.0912 11.0701 10.1214 10.9977 10.1878 10.9313C10.2301 11.0339 10.2602 11.1245 10.2784 11.1969C10.2965 11.2694 10.3086 11.3539 10.3086 11.4505C10.3086 11.5049 10.2904 11.5834 10.2602 11.68C10.2059 11.7826 10.1214 11.837 10.0187 11.837L9.92211 11.8128ZM4.39112 8.23824C4.34282 8.19597 4.30659 8.17181 4.28244 8.1537C4.20998 8.09935 4.14356 8.08727 4.07714 8.12954C4.02279 8.24426 3.97449 8.40127 3.93222 8.6126C3.84165 9.04735 3.76919 9.31906 3.71485 9.43379C3.64843 9.35529 3.59408 9.25264 3.54578 9.13188C3.41898 8.83601 3.32236 8.64884 3.26802 8.57638L3.19556 8.69713C3.19556 8.69713 3.11103 8.67298 3.01442 8.64279C2.91781 8.6126 2.85139 8.57637 2.82119 8.52806C2.82119 8.40126 2.83327 8.28653 2.86346 8.18388C2.89365 8.08123 2.948 8.01482 3.03857 7.97256C3.23783 8.06313 3.4069 8.26239 3.54578 8.57638C3.6122 8.72733 3.67258 8.87828 3.739 9.0232C3.74504 9.00508 3.79938 8.79978 3.89599 8.39522C3.96241 8.14765 4.04695 7.95444 4.16167 7.81556C4.30659 7.79744 4.40924 7.85783 4.47566 7.98463L4.39112 8.23824ZM4.07714 10.1946C4.02883 10.1886 3.96241 10.1825 3.87184 10.1825C3.56389 10.1825 3.31029 10.2731 3.11103 10.4603C3.11103 10.6716 3.12914 10.889 3.17141 11.1185C3.21368 11.3479 3.24991 11.5592 3.29217 11.7525C3.33444 11.9457 3.35255 12.0725 3.35859 12.1329C3.35859 12.1932 3.35859 12.2536 3.35859 12.32C3.35859 12.5857 3.29217 12.8454 3.16537 13.0929C3.23179 12.942 3.26198 12.785 3.26198 12.622C3.26198 12.4468 3.22575 12.2295 3.15933 11.9698C3.09291 11.7102 3.03253 11.4747 2.98423 11.2634C2.93592 11.052 2.91177 10.8769 2.91177 10.7501C2.91177 10.5327 2.97819 10.3516 3.11103 10.2007C3.24387 10.0497 3.46728 9.94704 3.78127 9.8927C3.70881 9.79005 3.61824 9.7357 3.51559 9.7357C3.47332 9.7357 3.43105 9.75382 3.38275 9.78402C3.33444 9.81421 3.28613 9.85043 3.23783 9.8927C3.21971 9.86251 3.21971 9.82023 3.23783 9.77193C3.25594 9.72362 3.27406 9.66928 3.29821 9.60286C3.37067 9.51229 3.47936 9.47002 3.62427 9.47002C3.64843 9.47002 3.69069 9.47606 3.75711 9.49418C3.92618 9.6089 4.05902 9.74174 4.15563 9.8927C4.17979 9.94704 4.15563 10.0497 4.0711 10.1946H4.07714ZM4.76549 13.5277C4.69907 13.5458 4.64473 13.5277 4.59642 13.4673C4.54812 13.3888 4.51793 13.3284 4.49981 13.2982C4.49981 13.0748 4.51189 12.8937 4.53 12.7548C4.54812 12.6159 4.60246 12.477 4.68096 12.3321C4.6568 12.5012 4.63869 12.6642 4.62058 12.8273C4.62058 13.0024 4.67492 13.1473 4.78964 13.2499C4.84399 13.2499 4.89229 13.2137 4.92852 13.1352C4.96475 13.0567 4.99494 13.0144 5.0191 13.0084C4.9889 13.1352 4.96475 13.2258 4.94664 13.2741C4.90437 13.3888 4.84399 13.4733 4.76549 13.5277ZM19.0398 7.67065C19.0217 7.62234 18.9975 7.59215 18.9613 7.57403C18.9251 7.55592 18.8888 7.57403 18.8466 7.61026L19.076 7.82763L19.0398 7.67065ZM18.593 9.83231C18.762 9.85647 18.9251 9.91684 19.076 10.0135C19.227 10.1101 19.384 10.2308 19.5349 10.3757C19.4323 10.3999 19.3175 10.4241 19.2028 10.4422C19.0881 10.4603 18.9915 10.4724 18.919 10.4724C18.8043 10.4724 18.7077 10.4422 18.6171 10.3757C18.5265 10.3093 18.4601 10.2067 18.4118 10.0618C18.3937 10.0135 18.4058 9.97119 18.436 9.92893C18.4843 9.89874 18.5386 9.8625 18.593 9.83231Z" fill="white"/>
</svg>
