<svg width="24" height="24" viewBox="0 0 24 24" fill="none" xmlns="http://www.w3.org/2000/svg">
<path fill-rule="evenodd" clip-rule="evenodd" d="M22 9.68679L21.9447 9.76427L21.5683 9.31048C21.5683 9.74767 21.6015 10.29 21.6735 10.9375C21.7454 11.585 21.8008 12.1052 21.8395 12.487C21.8783 12.8689 21.9004 13.2729 21.9004 13.6934C21.9004 14.0421 21.8838 14.3631 21.845 14.6564C21.8063 14.9497 21.7399 15.2485 21.6348 15.5529H21.5794C21.6015 15.3149 21.6126 15.0825 21.6126 14.8556C21.6126 14.3409 21.5739 13.7764 21.5019 13.1622C21.3193 11.6292 21.2252 10.6885 21.2252 10.3509C21.1976 10.2181 21.1588 9.90262 21.1146 9.39902C21.0703 8.89542 20.9928 8.53018 20.8821 8.30329C20.9264 8.18707 20.9762 8.05979 21.0371 7.92144C21.098 7.78308 21.1754 7.68901 21.2695 7.6392C21.513 8.32542 21.7565 9.00611 22 9.68679ZM17.8937 9.04484C17.855 9.08358 17.8163 9.10019 17.772 9.10019C17.7333 9.10019 17.689 9.08358 17.6281 9.05591L17.5838 9.02271C17.534 9.09465 17.4898 9.14999 17.4566 9.1832C17.4234 9.2164 17.3901 9.23854 17.3514 9.24407C17.1799 9.27174 17.0747 9.22193 17.0304 9.08912C17.0304 8.80688 17.0636 8.53572 17.1301 8.27008C17.1467 8.31436 17.1522 8.3863 17.1522 8.48038C17.1522 8.56892 17.1522 8.65747 17.1522 8.74601C17.1522 8.83455 17.1854 8.9065 17.2352 8.95631C17.368 8.95631 17.451 8.92863 17.4898 8.86776C17.4953 8.84562 17.5008 8.82348 17.5008 8.79581V8.74601C17.4953 8.6298 17.4898 8.54125 17.4898 8.48038C17.4898 8.40844 17.5064 8.33649 17.534 8.27008H17.5783C17.5783 8.27008 17.6004 8.34202 17.6004 8.41396C17.5949 8.51911 17.5894 8.59659 17.5894 8.64639C17.5894 8.79581 17.6724 8.85115 17.8329 8.81242C17.8495 8.77368 17.8495 8.71281 17.8329 8.61873C17.8163 8.52465 17.8107 8.4693 17.8107 8.44717C17.8107 8.36416 17.8329 8.30328 17.8771 8.25901C17.938 8.35309 17.9657 8.47484 17.9657 8.62426C17.9657 8.77921 17.938 8.91756 17.8882 9.04484H17.8937ZM17.5617 7.18541C17.534 7.09133 17.4953 7.03045 17.4566 7.00278C17.4178 6.97511 17.368 6.96958 17.3182 6.98618C17.2131 6.98618 17.1245 7.04152 17.0415 7.15221C16.9917 7.21861 16.9474 7.31269 16.9087 7.42891C16.9308 7.51192 16.9806 7.57279 17.0526 7.61706C17.1245 7.66133 17.202 7.70007 17.2739 7.73881C16.6486 8.28668 16.0232 8.82902 15.4034 9.37689C15.9347 9.03931 16.2833 8.80688 16.4438 8.69067C16.8257 8.40843 17.13 8.11513 17.3514 7.80523C17.3791 7.82736 17.4289 7.8661 17.4953 7.9159C17.523 7.8661 17.5506 7.8163 17.5728 7.77202C17.5949 7.72775 17.606 7.68901 17.606 7.65027C17.606 7.5894 17.5672 7.54512 17.4953 7.51745C17.5396 7.44551 17.5617 7.33483 17.5617 7.18541ZM18.6464 11.4134C18.6408 11.4854 18.6298 11.5628 18.6242 11.6348C18.5966 11.8063 18.5246 11.917 18.4139 11.9668C18.3531 11.9668 18.3088 11.9502 18.2701 11.9225C18.2037 11.8727 18.1649 11.7953 18.1483 11.6901C18.1483 11.2917 18.2203 10.932 18.3586 10.6054C18.3752 10.6774 18.3641 10.8047 18.3309 10.9818C18.2977 11.1588 18.2811 11.2751 18.2811 11.3249C18.2811 11.4134 18.2922 11.4798 18.3143 11.5296C18.3365 11.5794 18.3863 11.6237 18.4693 11.668C18.497 11.6458 18.5302 11.6016 18.5578 11.5296C18.5855 11.4577 18.6187 11.4189 18.6464 11.4134ZM14.6397 6.96405L14.518 7.18541C13.4112 7.6724 12.3099 8.15387 11.2086 8.63533C11.2086 8.44164 11.3304 8.29222 11.5739 8.18154C11.6901 8.13173 11.8118 8.07639 11.9281 8.02658C12.8301 7.67241 13.7322 7.31823 14.6397 6.96405ZM20.052 12.1328C19.9413 11.6292 19.8251 11.109 19.7089 10.5667C19.5927 10.0244 19.5318 9.54844 19.5318 9.13339C19.5982 9.09465 19.6702 9.14446 19.7532 9.27727C19.8639 9.45436 19.9303 9.54844 19.9524 9.56504L19.9745 9.53184C19.9303 9.2164 19.8362 8.88436 19.6868 8.54678C19.5761 8.28668 19.4211 7.98785 19.2219 7.6392C19.1334 7.73328 19.0614 7.84949 19.0006 7.98231C18.9784 8.02658 18.9341 8.14833 18.8677 8.34756L19.0338 8.56892C19.0614 8.76814 19.2717 9.97457 19.6646 12.1882C19.8141 13.0238 19.9247 13.7543 20.0077 14.3797C19.8528 14.5733 19.6868 14.7228 19.5042 14.8279C19.3215 14.9331 19.1278 14.9884 18.9231 14.9884C18.7958 14.9884 18.6906 14.9607 18.5966 14.9054C18.5025 14.8501 18.4084 14.7726 18.3033 14.6674C18.1704 14.4461 17.8107 13.4942 17.2186 11.8119C16.9806 11.1422 16.7039 10.5999 16.3885 10.1959C16.2833 10.2347 16.2169 10.3343 16.1782 10.5058C16.1561 10.6552 16.1395 10.7991 16.1229 10.9486C16.4051 11.3691 16.6265 11.7676 16.7869 12.1439C16.9806 12.5811 17.1079 13.0128 17.1743 13.4499C16.9364 13.7377 16.715 13.9812 16.4992 14.1804C16.2501 14.4184 15.99 14.6287 15.7244 14.8113C15.4311 15.0271 15.1433 15.1932 14.8666 15.3149C14.5899 15.4367 14.2856 15.5252 13.9535 15.5861C13.8152 15.5473 13.71 15.5141 13.6436 15.4754C13.5385 15.4145 13.4555 15.337 13.389 15.2319C13.3392 15.1268 13.3116 15.0271 13.3116 14.922C13.4056 14.5955 13.5053 14.2745 13.5993 13.948C13.4444 14.186 13.3282 14.4073 13.2562 14.6121C13.1621 14.8777 13.1123 15.1323 13.1123 15.3758C13.1123 15.6469 13.1788 15.8904 13.3116 16.0952C13.3946 16.2004 13.4831 16.2668 13.5883 16.2944C13.6934 16.3221 13.8373 16.3387 14.0199 16.3387C14.7117 16.1782 15.3647 15.8572 15.9679 15.3758C16.2778 15.1378 16.549 14.8777 16.7759 14.5899C17.0028 14.3022 17.1909 13.9923 17.3293 13.6602C17.4898 14.0587 17.6558 14.4571 17.8163 14.8556C17.9103 15.0769 18.021 15.2596 18.1372 15.3979C18.2867 15.5695 18.4638 15.6912 18.6685 15.7632C18.6962 15.7632 18.7405 15.7632 18.8013 15.7742C19.0227 15.7742 19.2385 15.7189 19.4433 15.6027C19.648 15.4865 19.8251 15.337 19.9745 15.1434C20.1295 14.6785 20.207 14.1749 20.207 13.6381C20.207 13.4001 20.1959 13.1622 20.1682 12.9242C20.1406 12.6862 20.1018 12.4206 20.052 12.1328ZM14.5844 10.3177C14.5844 10.5003 14.5291 10.6719 14.4184 10.8268C14.2856 10.8489 14.2081 10.7936 14.1859 10.6663C14.1638 10.539 14.1527 10.445 14.1527 10.3841C14.1527 10.2347 14.1749 10.0797 14.2247 9.91369C14.2745 9.74767 14.3298 9.58165 14.3962 9.41009C14.3962 9.4765 14.3852 9.56504 14.363 9.67572C14.3132 9.93582 14.2856 10.0963 14.2856 10.1627C14.2856 10.2513 14.2966 10.3232 14.3132 10.3785C14.3298 10.4339 14.3741 10.4892 14.4405 10.539C14.4682 10.4782 14.4958 10.4339 14.5125 10.3951C14.5291 10.3564 14.5567 10.3343 14.5844 10.3177ZM13.4665 9.11126C13.3946 9.35476 13.2839 9.58718 13.1345 9.80854C13.0847 9.76427 12.9906 9.70339 12.8578 9.63145C12.6309 9.50417 12.5091 9.39349 12.5036 9.29941L12.8356 8.72387C13.0183 8.79028 13.1621 8.85669 13.2562 8.92309C13.3226 8.96737 13.3946 9.02825 13.4665 9.11126ZM16.2778 12.0554L15.979 12.8191C15.5529 12.8191 15.1101 12.9076 14.6619 13.0847C14.3796 13.1954 13.9812 13.4001 13.4665 13.6934C12.8854 14.0255 12.4925 14.2358 12.2933 14.3243C11.834 14.5235 11.4023 14.6232 10.9983 14.6232C10.7825 14.6232 10.5833 14.5678 10.3896 14.4571C10.1959 14.3464 10.0631 14.1915 9.98008 13.9923C9.83066 13.4887 9.73658 12.7194 9.69784 11.6735C9.6591 10.6276 9.62037 9.95796 9.58163 9.65359C9.58163 9.4931 9.55949 9.28835 9.50968 9.05038C9.45988 8.81242 9.41561 8.57999 9.37133 8.35863C9.35473 8.29222 9.34366 8.23134 9.33813 8.17047C9.3326 8.10959 9.32706 8.04318 9.32706 7.97124C9.32706 7.81629 9.3492 7.67794 9.399 7.55066C9.44881 7.42337 9.53182 7.30162 9.64804 7.18541C9.73658 7.68901 9.80852 8.30329 9.8694 9.03378C9.89707 9.36029 9.93581 9.93583 9.97454 10.7715C10.0133 11.6071 10.0576 12.2878 10.1018 12.8191C10.1406 12.9961 10.1793 13.14 10.2291 13.2452C10.2789 13.3503 10.3564 13.461 10.4671 13.5717C10.4173 13.4444 10.3896 13.306 10.3896 13.1511C10.3896 12.9574 10.4283 12.7471 10.5003 12.5202C10.5501 12.3597 10.6386 12.155 10.7548 11.9115C10.9983 11.6957 11.2474 11.5462 11.4964 11.4522C11.7454 11.3581 12.0111 11.3138 12.2822 11.3138C12.4593 11.3138 12.6364 11.3304 12.8135 11.3636C12.9906 11.3968 13.2009 11.4466 13.4444 11.513C13.5385 11.5352 13.8428 11.6292 14.352 11.7897C14.9939 11.989 15.5086 12.0886 15.8904 12.0886C16.0177 12.0886 16.145 12.0775 16.2778 12.0554ZM11.2308 10.1738C11.2308 10.0576 11.2197 9.89708 11.1976 9.69233C11.1754 9.48757 11.1035 9.33262 10.9873 9.22194L10.8434 9.49864C10.9043 9.51524 10.9485 9.57058 10.9873 9.67572C11.0592 9.81407 11.098 9.96903 11.098 10.1295C11.098 10.29 11.0647 10.4726 10.9928 10.6442C10.9209 10.8157 10.8379 10.9762 10.7327 11.1146C10.8655 10.9818 10.9707 10.8434 11.0426 10.694C11.1146 10.5446 11.181 10.373 11.2308 10.1738ZM17.3293 16.394C17.3071 16.4771 17.285 16.5601 17.2629 16.6486C17.2241 16.7427 17.1688 16.8091 17.0858 16.8478C17.0249 16.8534 16.9751 16.8368 16.9253 16.798C16.8755 16.7593 16.8478 16.715 16.8423 16.6652C16.8367 16.6154 16.8312 16.5545 16.8312 16.4826C16.8312 16.2889 16.8644 16.1063 16.9308 15.9292C16.9972 15.7521 17.0913 15.5584 17.2186 15.3536C17.1522 15.5252 17.1024 15.6525 17.0747 15.741C17.0083 15.9237 16.9751 16.0731 16.9751 16.1838C16.9751 16.3166 17.0138 16.4438 17.0858 16.5601C17.13 16.5822 17.1688 16.5656 17.2075 16.5158C17.2463 16.466 17.2684 16.4272 17.285 16.4051L17.3293 16.394ZM8.19812 9.52077C8.17045 9.68126 8.14831 9.78087 8.13171 9.80854C8.08744 9.93583 8.02103 10.0188 7.93249 10.0631C7.86608 10.0686 7.81074 10.052 7.772 10.0078C7.73326 9.9635 7.70006 9.90262 7.67792 9.83068C7.67792 9.62592 7.69452 9.43777 7.72773 9.26621C7.76093 9.09466 7.81627 8.9397 7.89928 8.79028C7.87714 8.88436 7.85501 8.98397 7.83841 9.08912C7.82181 9.19426 7.81074 9.28835 7.81074 9.37689C7.81074 9.54844 7.84947 9.68679 7.93249 9.79747C8.00443 9.81408 8.05977 9.77534 8.09851 9.68126C8.13724 9.58718 8.17045 9.53737 8.19812 9.52077ZM6.11732 7.96018L6.07305 8.18154C6.03431 8.18707 5.9845 8.17047 5.9181 8.13173C5.85169 8.09299 5.81295 8.07086 5.79635 8.07086C5.75761 8.07086 5.72994 8.09853 5.7078 8.1594V8.30329C5.7078 8.53018 5.69673 8.71834 5.68013 8.86222C5.66353 9.0061 5.61372 9.13893 5.54178 9.26621C5.45877 9.19427 5.3813 9.05038 5.29828 8.83456C5.21527 8.61873 5.1378 8.47484 5.05479 8.39183C5.05479 8.44164 5.02712 8.45824 4.96624 8.43611C4.90537 8.41397 4.87216 8.40843 4.85556 8.41396C4.80576 8.36969 4.77809 8.31435 4.77809 8.24794C4.77809 8.22027 4.78362 8.176 4.80022 8.11513C4.81682 8.05426 4.82236 8.00998 4.82236 7.97124L4.92197 7.9159C5.06032 7.99892 5.18207 8.1428 5.28722 8.35863C5.37023 8.54125 5.45324 8.72387 5.54178 8.90096C5.56392 8.85116 5.58605 8.65193 5.60819 8.30882C5.63033 7.96571 5.70227 7.79416 5.82955 7.79416C5.91256 7.79416 6.00664 7.8495 6.11732 7.96018ZM12.7471 16.4051C12.4095 16.8257 11.9723 17.036 11.4411 17.036C11.2695 17.036 11.109 17.0083 10.9596 16.953C10.8102 16.8976 10.7272 16.8036 10.7106 16.6707C10.7548 16.5103 10.8323 16.3719 10.9485 16.2557C11.0647 16.1395 11.2086 16.0343 11.3857 15.9403C11.275 15.8794 11.2086 15.8462 11.181 15.8351C11.1533 15.824 11.1146 15.8185 11.0647 15.8185C11.0205 15.8185 10.9762 15.8296 10.9319 15.8517L10.8766 15.896C10.8766 15.8572 10.8877 15.824 10.9098 15.7853C10.9319 15.7466 10.9817 15.6912 11.0647 15.6082C11.1256 15.5861 11.1754 15.575 11.2197 15.575C11.2861 15.575 11.3581 15.5916 11.4355 15.6304C11.513 15.6691 11.5905 15.7023 11.6624 15.741C11.6846 15.8738 11.5628 16.0177 11.3027 16.1782C11.0426 16.3387 10.9098 16.4439 10.9098 16.5047C10.9098 16.5877 11.0315 16.6707 11.275 16.7593C11.3913 16.7759 11.4798 16.7814 11.5296 16.7814C11.7288 16.7814 11.9225 16.7482 12.1107 16.6873C12.2988 16.6265 12.5091 16.5324 12.7471 16.4051ZM6.18373 11.0371C6.14499 11.0648 6.09519 11.1533 6.02878 11.3027C5.96237 11.4522 5.87936 11.5241 5.78528 11.5241C5.77975 11.5186 5.65246 11.4466 5.40897 11.3138C5.25401 11.2308 5.1876 11.1201 5.20974 10.9818L5.57499 10.4726C5.75761 10.5667 5.89596 10.6442 5.9845 10.694C6.14499 10.7881 6.2114 10.9043 6.18373 11.0371ZM7.25733 13.3171C7.26287 13.3448 7.2684 13.3891 7.2684 13.4499C7.2684 13.6658 7.18539 13.8318 7.0249 13.948C6.88655 13.9701 6.79801 13.9037 6.75927 13.7488C6.75374 13.71 6.7482 13.6602 6.7482 13.5938C6.7482 13.4555 6.78694 13.2895 6.86995 13.0958C6.90869 13.0072 6.94743 12.9131 6.9917 12.8191C7.0083 12.8799 7.00277 12.9463 6.98063 13.0294C6.91422 13.2729 6.88102 13.4001 6.88102 13.4167C6.88102 13.544 6.94189 13.6326 7.06918 13.6824L7.25733 13.3171ZM8.98395 16.3387C8.98395 16.4494 8.97288 16.5435 8.94521 16.6154C8.91754 16.6874 8.86774 16.7538 8.79579 16.8036C8.72385 16.8091 8.65744 16.8036 8.6021 16.787C8.54676 16.7704 8.51909 16.7316 8.51909 16.6707C8.51909 16.4715 8.54676 16.2778 8.60764 16.0841C8.62977 16.0122 8.70172 15.8351 8.81793 15.5529C8.82346 15.6137 8.81793 15.6968 8.78473 15.8074C8.70172 16.0786 8.66298 16.2336 8.66298 16.2723C8.66298 16.383 8.71832 16.4549 8.829 16.4937C8.85667 16.4881 8.88434 16.4604 8.90648 16.4106C8.92861 16.3608 8.95628 16.3387 8.98395 16.3387ZM3.47205 11.4356C3.47205 11.6624 3.43332 11.8838 3.36137 12.0886C3.28943 12.2933 3.17322 12.4704 3.01826 12.6088C2.90758 12.6309 2.8135 12.6143 2.73049 12.559C2.64748 12.5036 2.57001 12.4151 2.49806 12.2989C2.44826 12.0941 2.42059 11.8727 2.42059 11.6348C2.42059 11.2308 2.5036 10.8157 2.67515 10.3951C2.80244 10.0797 3.00719 9.7034 3.29496 9.26621C3.11234 9.65913 2.99059 9.92476 2.94079 10.0742C2.8135 10.4118 2.75263 10.7161 2.75263 10.9818C2.75263 11.1588 2.77476 11.3138 2.82457 11.4466C2.87438 11.5794 2.95739 11.7122 3.08467 11.8451C3.19535 11.8617 3.27836 11.8008 3.32817 11.668C3.37797 11.5352 3.42778 11.4577 3.47205 11.4356ZM9.21638 12.3874C8.99502 12.0111 8.77919 11.6348 8.56336 11.2585C8.45268 11.2972 8.36967 11.3747 8.31433 11.4964C8.25899 11.6182 8.21472 11.7621 8.17598 11.9336C8.19812 12.0498 8.342 12.5258 8.60764 13.3614C8.71278 13.6934 8.77919 13.9812 8.81793 14.2247C8.51356 14.5069 8.12618 14.7836 7.64472 15.0548C7.24073 15.2706 6.83121 15.4865 6.42723 15.7078C6.11179 15.8406 5.79081 15.9458 5.47537 16.0177C5.15993 16.0897 4.83896 16.1284 4.51245 16.1284C4.14167 16.1284 3.8041 16.0675 3.48866 15.9513C3.17322 15.8351 2.90758 15.647 2.68622 15.3979C2.55894 15.2374 2.47039 15.0603 2.41505 14.8667C2.35971 14.673 2.33204 14.4682 2.33204 14.2468C2.33204 13.9978 2.35971 13.7432 2.41505 13.4887C2.47039 13.2341 2.5368 12.9795 2.61981 12.7194C2.43719 13.1622 2.32651 13.4333 2.28777 13.5385C2.09408 14.0698 2 14.5512 2 14.9884C2 15.3426 2.09408 15.6691 2.2767 15.9624C2.45932 16.2557 2.70836 16.4771 3.01826 16.6154C3.26176 16.7206 3.49972 16.7925 3.72662 16.8423C3.95351 16.8921 4.19148 16.9142 4.43498 16.9142C4.70061 16.9142 4.98284 16.881 5.28722 16.8146C5.59159 16.7482 5.86829 16.6652 6.12839 16.5601C6.56558 16.3885 7.03044 16.145 7.53403 15.8185C7.91588 15.5695 8.34754 15.2596 8.81793 14.8888C8.92861 14.7394 9.00609 14.5733 9.05036 14.3907C9.09463 14.2081 9.11677 14.0144 9.11677 13.8152C9.11677 13.5717 9.08356 13.3116 9.01162 13.0294C8.93968 12.7471 8.85667 12.4925 8.76259 12.2546C8.80686 12.2269 8.87881 12.249 8.97842 12.321C9.07803 12.3929 9.15551 12.4151 9.21638 12.3874ZM5.60819 13.4721C5.60819 13.4721 5.57499 13.4942 5.57499 13.5108V13.5717C5.46431 13.5496 5.38129 13.5385 5.33149 13.5385C5.25955 13.5385 5.21527 13.5772 5.19867 13.6602C5.14887 13.9978 5.09353 14.3354 5.04372 14.6674C4.98284 14.6232 4.90537 14.4793 4.81129 14.2413C4.71721 14.0033 4.60653 13.8816 4.49032 13.8816C4.46265 13.8816 4.4073 13.8982 4.33536 13.9259C4.28556 13.8761 4.25789 13.8152 4.25789 13.7488C4.25789 13.699 4.26895 13.6381 4.29662 13.5717C4.32429 13.5053 4.35196 13.4444 4.37963 13.3835C4.38517 13.3559 4.41284 13.3393 4.45711 13.3448C4.50138 13.3448 4.52905 13.3559 4.53459 13.3614C4.62867 13.4721 4.71721 13.6104 4.78915 13.7709C4.8611 13.9314 4.93857 14.0864 5.01051 14.2358C5.05479 14.0089 5.10459 13.7764 5.1544 13.5385C5.19867 13.4001 5.27061 13.2895 5.37576 13.2064C5.42557 13.223 5.48644 13.2396 5.55838 13.2618C5.63033 13.2839 5.66353 13.3227 5.66353 13.3725C5.66353 13.3891 5.64693 13.4223 5.60819 13.4721ZM17.3514 7.41784L17.2518 7.3625L17.1522 7.2961C17.2684 7.23522 17.3348 7.25735 17.3514 7.3625V7.41784ZM14.1306 12.5645C13.5993 12.8744 13.0681 13.1843 12.5368 13.4942C12.3154 13.6104 12.1162 13.699 11.9336 13.7488C11.751 13.7986 11.5573 13.8262 11.3525 13.8262C11.1478 13.8262 10.9485 13.793 10.7327 13.7266C10.7327 13.6879 10.7216 13.5828 10.694 13.4001C10.6663 13.2175 10.6552 13.0792 10.6552 12.974C10.6552 12.8412 10.6774 12.725 10.7161 12.6309C10.7548 12.5368 10.8268 12.4538 10.9319 12.3874C11.109 12.2601 11.2806 12.1771 11.4466 12.1328C11.6126 12.0886 11.8008 12.0664 12.0055 12.0664C12.321 12.0664 12.7748 12.1605 13.3669 12.3431C13.6768 12.4372 13.9314 12.5147 14.1306 12.5645Z" fill="white"/>
</svg>
