<svg width="24" height="24" viewBox="0 0 24 24" fill="none" xmlns="http://www.w3.org/2000/svg">
<path fill-rule="evenodd" clip-rule="evenodd" d="M21.9959 9.67447C21.9175 9.6497 21.839 9.57954 21.7689 9.46811C21.6698 9.31128 21.6079 9.21636 21.579 9.19159L21.5006 9.34017C21.5006 9.67859 21.5419 10.2069 21.6203 10.925C21.6987 11.6431 21.74 12.1879 21.74 12.5593C21.74 13.2939 21.7194 13.8222 21.6822 14.1441C21.6162 14.6972 21.4717 15.1842 21.2447 15.601C21.319 15.4235 21.3686 15.2296 21.3933 15.0232C21.4181 14.8169 21.4346 14.594 21.4346 14.3546C21.4346 14.1441 21.4263 13.8594 21.4098 13.5086C21.3933 13.1536 21.3851 12.9514 21.3851 12.8977L21.0301 8.34141C21.0054 8.28775 20.9889 8.22585 20.9889 8.15156C20.9889 8.05251 21.0384 7.9287 21.1333 7.78425C21.2282 7.6398 21.2984 7.53662 21.3355 7.47884C21.5089 7.89568 21.6409 8.25061 21.7317 8.54776C21.8514 8.93158 21.9381 9.30715 22 9.67859L21.9959 9.67447ZM18.2815 7.27661C18.2939 7.34265 18.2732 7.40042 18.2237 7.45408C18.2031 7.47471 18.1535 7.51186 18.0751 7.57376C17.7697 7.6852 17.2868 7.85853 16.6182 8.08965C15.8011 8.37442 15.3099 8.54364 15.1531 8.60554C14.6496 8.79126 14.1709 8.98524 13.7169 9.19159C13.7375 9.04714 13.8324 8.93158 14.0058 8.84492C14.1585 8.77888 14.3112 8.70872 14.4598 8.63856C15.735 8.1887 17.0103 7.73885 18.2815 7.28074V7.27661ZM18.0256 10.991C18.038 11.0777 18.0256 11.1644 17.9761 11.2552C17.9307 11.3459 17.8688 11.4161 17.7862 11.4698C17.7284 11.478 17.6789 11.4615 17.6459 11.4285C17.6129 11.3955 17.584 11.3459 17.5551 11.2799C17.5551 11.1561 17.584 11.0323 17.6376 10.9126C17.6954 10.7929 17.7656 10.6897 17.8523 10.6072C17.8523 10.6526 17.8275 10.7228 17.7738 10.8135C17.7202 10.9043 17.6954 10.9786 17.6954 11.0323C17.6954 11.0859 17.7326 11.1355 17.8027 11.1809C17.8481 11.1809 17.8935 11.152 17.9307 11.0983C17.9719 11.0405 18.0008 11.0075 18.0215 10.9951L18.0256 10.991ZM17.1341 10.0088C17.0929 10.1078 17.0351 10.2151 16.9525 10.3307C16.87 10.4462 16.7916 10.5577 16.7214 10.6608C16.6348 10.6361 16.5233 10.5742 16.383 10.4834C16.2427 10.3926 16.1436 10.3307 16.0858 10.3059C16.1189 10.1862 16.1766 10.0707 16.2551 9.95924C16.3005 9.8932 16.3913 9.79002 16.5233 9.65383C16.6224 9.68685 16.7214 9.73637 16.8246 9.80653C16.9278 9.87669 17.031 9.94273 17.1383 10.0088H17.1341ZM19.6393 9.49287C19.598 9.21636 19.5114 8.90682 19.371 8.56014C19.2307 8.21759 19.0986 7.88742 18.9666 7.56964C18.8799 7.62329 18.8056 7.70583 18.7396 7.81726C18.6735 7.9287 18.6199 8.04838 18.5828 8.1722C18.657 8.82428 18.7313 9.48049 18.8097 10.1326C18.9336 11.2221 19.0161 11.9403 19.0532 12.2911C19.0904 12.6419 19.1523 13.2609 19.2348 14.1524C19.078 14.2721 18.9129 14.3546 18.7478 14.4041C18.5828 14.4537 18.3929 14.4784 18.1824 14.4784C18.0173 14.4784 17.8481 14.4578 17.6789 14.4206C17.7119 14.2225 17.7449 14.0162 17.7821 13.7975C17.8192 13.5787 17.8357 13.393 17.8357 13.2444C17.8357 13.0958 17.8192 12.9514 17.7862 12.8193C17.7532 12.6873 17.6954 12.5634 17.6088 12.4438C17.5551 12.4107 17.5056 12.3942 17.4602 12.3942C17.4478 12.3942 17.3735 12.4107 17.2414 12.4438C16.8989 12.6542 16.6348 12.9225 16.4532 13.2527C16.2716 13.5787 16.1808 13.9295 16.1808 14.3092C16.1808 14.3959 16.1808 14.4578 16.189 14.4991C15.9579 14.5857 15.7185 14.6559 15.4668 14.7054C15.215 14.7591 14.9633 14.7838 14.7033 14.7838C14.5506 14.7838 14.3855 14.7715 14.208 14.7426C14.0305 14.7178 13.8778 14.6765 13.754 14.6229C13.5023 14.5156 13.3042 14.334 13.1597 14.0698C13.0483 13.8635 12.9699 13.6159 12.9203 13.3187L12.6934 8.96873L12.487 7.57376C12.4003 7.63154 12.326 7.73059 12.26 7.86266C12.227 7.93695 12.1775 8.04013 12.1114 8.18045C12.2229 8.91508 12.3095 9.55478 12.3632 10.1037C12.421 10.6526 12.4457 11.2015 12.4457 11.7587C12.4664 12.3653 12.487 12.972 12.5159 13.5828C12.5737 14.2762 12.7759 14.8086 13.1184 15.1759C13.3042 15.308 13.5023 15.407 13.7169 15.4689C13.9315 15.5308 14.1544 15.5639 14.3855 15.5639C14.4309 15.5639 14.4969 15.5639 14.5794 15.5597C14.662 15.5597 14.8023 15.5391 14.9963 15.5102C15.1903 15.4813 15.4255 15.4277 15.6938 15.3575C15.7474 15.3451 16.1189 15.2254 16.8122 15.0026C16.9567 15.1016 17.1135 15.1718 17.2827 15.2172C17.4519 15.2626 17.6376 15.2832 17.844 15.2832C18.2278 15.2832 18.5827 15.2131 18.9129 15.0769C19.1358 14.9242 19.2967 14.7219 19.3875 14.4619C19.4783 14.206 19.5279 13.9171 19.5279 13.5994L19.1234 9.24937L19.2307 9.03064L19.6352 9.50525L19.6393 9.49287ZM14.9261 11.0199C14.8683 11.2964 14.8023 11.4987 14.7322 11.6307C14.662 11.7587 14.5712 11.8618 14.4598 11.932C14.6579 11.7009 14.7569 11.412 14.7569 11.0612C14.7569 10.9539 14.7528 10.8713 14.7404 10.8135C14.7322 10.7558 14.7033 10.665 14.6579 10.5453C14.5918 10.405 14.534 10.3018 14.4845 10.2275C14.435 10.1532 14.3813 10.0913 14.3194 10.0377C14.3401 9.97987 14.369 9.93035 14.4102 9.88908C14.4515 9.8478 14.4969 9.8313 14.5506 9.8313C14.6744 10.0046 14.7734 10.1697 14.8395 10.3307C14.9055 10.4916 14.9385 10.6691 14.9385 10.8589C14.9385 10.9332 14.9385 10.9828 14.9303 11.0158L14.9261 11.0199ZM16.1849 12.2291L16.0858 12.4768C16.0611 12.4685 16.0116 12.4479 15.9414 12.4107C15.8712 12.3736 15.8176 12.3488 15.7763 12.3365C15.6525 12.712 15.5287 13.0876 15.409 13.4549C15.3553 13.3971 15.3058 13.3063 15.2604 13.1866C15.149 12.8812 15.0871 12.7203 15.0706 12.6996C15.0458 12.745 15.0004 12.7698 14.9426 12.7698C14.9179 12.7698 14.889 12.7657 14.8601 12.7533C14.8312 12.745 14.8106 12.7368 14.7941 12.7368C14.761 12.712 14.7445 12.6749 14.7445 12.6295C14.7899 12.518 14.8147 12.4314 14.8147 12.3736C14.8725 12.2745 14.9385 12.225 15.0128 12.225C15.0541 12.225 15.0871 12.2539 15.1118 12.3158C15.1779 12.4149 15.2398 12.5387 15.3017 12.6831C15.3595 12.8276 15.4131 12.972 15.4585 13.1082C15.4833 13.067 15.5328 12.8854 15.5988 12.5593C15.6649 12.2333 15.7557 12.0682 15.8754 12.0682C15.9538 12.0682 16.057 12.1218 16.1808 12.225L16.1849 12.2291ZM11.1746 9.08016L10.7 9.6951C10.4936 9.61669 10.3409 9.55478 10.2336 9.51351C10.1263 9.47224 10.0437 9.41446 9.98597 9.34017L9.56913 9.83542C9.56913 9.83542 9.44119 9.77764 9.20182 9.67859C9.04911 9.61256 8.96244 9.53827 8.94594 9.4516L9.44944 8.84904L10.0231 9.04714L10.5184 8.65919C10.5184 8.65919 10.6793 8.7665 10.9435 8.92746C11.0755 9.00587 11.1498 9.05953 11.1705 9.08429L11.1746 9.08016ZM10.0231 7.46646C9.40405 7.67694 8.78498 7.88742 8.17004 8.10203C7.43128 8.35379 6.8246 8.60142 6.35823 8.84492C6.33347 8.88619 6.30871 8.92333 6.28807 8.9646C6.26744 9.00587 6.27156 9.03889 6.29633 9.07191C7.31985 8.60967 8.49608 8.17632 9.82088 7.77599C9.96533 7.7017 10.0314 7.60265 10.019 7.47059L10.0231 7.46646ZM8.06273 10.1986L8.00495 10.438C7.96368 10.4462 7.91003 10.4297 7.83987 10.3967C7.76971 10.3637 7.71605 10.3637 7.67478 10.3967C7.58399 10.5081 7.51383 10.7062 7.46843 10.991C7.42303 11.2758 7.38589 11.445 7.36112 11.5069C7.30334 11.4615 7.20429 11.284 7.06397 10.9828C6.95667 10.7599 6.80809 10.6443 6.61824 10.6443C6.58523 10.6113 6.56872 10.5618 6.56872 10.4958C6.56872 10.4545 6.56872 10.4215 6.57697 10.3885C6.58523 10.3554 6.60173 10.2977 6.63475 10.2192C6.79984 10.1945 6.94016 10.2935 7.05159 10.5247C7.14239 10.7145 7.23731 10.9085 7.32811 11.0983C7.38589 10.8424 7.43541 10.6485 7.46843 10.5247C7.53446 10.3018 7.64177 10.1532 7.78622 10.0789C7.844 10.0707 7.9059 10.0872 7.96368 10.1284C7.98844 10.1491 8.02146 10.1697 8.06273 10.1986ZM12.1156 15.0108C12.0413 15.0892 11.9505 15.1635 11.839 15.2337C11.7276 15.3039 11.6121 15.3616 11.4924 15.407C11.447 15.4277 11.3562 15.4607 11.22 15.5102C11.0838 15.5597 10.9435 15.6093 10.799 15.6629C10.8733 15.5721 10.9558 15.4937 11.0508 15.4318C11.1457 15.3699 11.2654 15.308 11.4016 15.2502C11.6409 15.1718 11.8762 15.0934 12.1156 15.0108ZM5.79282 10.2399L5.4544 10.8342C5.38836 10.7888 5.28518 10.731 5.14073 10.6608C5.00041 10.5907 4.89311 10.5412 4.81882 10.5081C4.86422 10.3885 4.92612 10.277 5.00867 10.1697C5.06232 10.0954 5.14899 10.0005 5.27693 9.88082C5.409 9.9386 5.50392 9.984 5.56583 10.0088C5.68551 10.0665 5.7598 10.145 5.79282 10.2358V10.2399ZM5.14073 8.31664C5.06232 8.09791 4.90136 7.87917 4.66612 7.66456C4.60834 7.63154 4.54643 7.61503 4.48865 7.61503C4.37722 7.61503 4.2988 7.73472 4.25753 7.96997C4.21626 8.20934 4.16261 8.35379 4.10483 8.40744C4.10483 8.48586 4.13785 8.54776 4.20388 8.58491C4.2369 8.60554 4.29468 8.63443 4.37309 8.6757C4.06356 8.98524 3.67148 9.30715 3.19274 9.63732C2.92035 9.82304 2.5324 10.083 2.02476 10.4215C2.52002 10.2027 2.96162 9.96749 3.35369 9.71986C3.80355 9.43097 4.19563 9.09667 4.53405 8.7211C4.62072 8.82015 4.71977 8.86968 4.8312 8.86968C4.8766 8.86968 4.91374 8.86142 4.93851 8.84904C5.02518 8.80364 5.07883 8.72936 5.09534 8.62618C5.11597 8.523 5.13248 8.42395 5.14486 8.3249L5.14073 8.31664ZM11.1044 16.0426C10.7949 16.2407 10.44 16.3398 10.0437 16.3398C9.95295 16.3398 9.88279 16.3398 9.83739 16.3315C9.68469 16.2778 9.6104 16.2201 9.6104 16.154C9.6104 16.1086 9.70945 16.0137 9.90343 15.8651C10.0974 15.7207 10.1882 15.5927 10.1758 15.4896C10.085 15.4359 10.0107 15.4029 9.95295 15.3864C9.89517 15.3699 9.82088 15.3699 9.73009 15.3823C9.68469 15.3905 9.63929 15.4194 9.58977 15.4772C9.54437 15.535 9.51548 15.5845 9.51135 15.6299C9.63516 15.6299 9.73009 15.634 9.78787 15.6464C9.84565 15.6547 9.87866 15.6794 9.87866 15.7124C9.75485 15.8197 9.63516 15.9188 9.52373 16.0178C9.4123 16.1169 9.35452 16.2077 9.35452 16.2944C9.35452 16.3398 9.36277 16.3728 9.37516 16.3934C9.44944 16.4718 9.52373 16.5255 9.60215 16.5585C9.68056 16.5874 9.77549 16.6039 9.89104 16.6039C9.95708 16.6039 10.0479 16.5956 10.1676 16.5833C10.4647 16.5172 10.6546 16.4677 10.733 16.4347C10.9393 16.348 11.0631 16.2201 11.1085 16.0467L11.1044 16.0426ZM4.78168 10.438C4.65786 10.6485 4.53405 10.8589 4.41436 11.0736C4.31531 11.0529 4.17499 10.9993 3.98927 10.9167C3.86546 10.8589 3.77879 10.8218 3.73339 10.8094C3.79942 10.665 3.8572 10.5494 3.90673 10.4669C3.95625 10.3843 4.02641 10.2812 4.12134 10.1532C4.26579 10.1862 4.39373 10.2234 4.50929 10.2688C4.62072 10.31 4.71564 10.3678 4.7858 10.4421L4.78168 10.438ZM11.6244 13.6778C11.0425 13.6778 10.3946 13.6282 9.67231 13.5333C8.95419 13.4384 8.26083 13.3435 7.6005 13.2527C7.95543 13.0752 8.35988 12.7904 8.80974 12.4025C9.18118 12.0723 9.55262 11.738 9.92819 11.4037C10.0355 11.4698 10.1057 11.5688 10.1469 11.7009C10.1799 11.9072 10.213 12.1053 10.246 12.3034C10.3368 12.1384 10.4111 11.9774 10.4647 11.8247C10.5184 11.6679 10.5431 11.5069 10.5431 11.3336C10.5431 11.1891 10.5184 11.0488 10.473 10.9167L10.2955 10.6691C10.1222 10.7351 9.94057 10.8631 9.75072 11.057C9.22245 11.5729 8.95006 11.8371 8.93768 11.8495C8.74783 12.0063 8.36814 12.2374 7.80685 12.5346C6.95667 12.9885 6.45728 13.4797 6.31284 13.9997C6.46554 13.979 6.61824 13.9708 6.76682 13.9708C7.03095 13.9708 7.34461 13.9956 7.7078 14.0492C7.89352 14.074 8.20305 14.1276 8.64053 14.206C8.43417 14.3175 8.23194 14.4289 8.02559 14.5445C7.60462 14.7632 7.22906 14.8705 6.90714 14.8705C6.79571 14.8705 6.64713 14.854 6.46141 14.8169C6.27569 14.7797 6.08997 14.6683 5.90838 14.4867C5.68964 14.2638 5.50392 13.9295 5.34296 13.4879C5.28931 13.4755 5.25629 13.4673 5.24391 13.4673C5.1655 13.4673 5.08296 13.492 4.99629 13.5457C4.97152 13.5663 4.90549 13.62 4.79818 13.7025C4.62485 13.8594 4.39785 14.2721 4.11308 14.9407C3.89022 15.4607 3.59307 15.7743 3.22988 15.8816C2.98638 15.7372 2.79241 15.5515 2.64383 15.3286C2.49938 15.1057 2.3962 14.8581 2.33842 14.5899C2.28064 14.3216 2.24763 14.0616 2.24763 13.814C2.24763 13.6571 2.25588 13.5127 2.26826 13.3847C2.28064 13.2568 2.30128 13.1247 2.32604 12.9927C2.1073 13.4466 2 13.9295 2 14.4372C2 14.5899 2.00825 14.7426 2.02889 14.8911C2.1527 15.3946 2.28477 15.7661 2.42509 16.0096C2.64796 16.4058 2.95749 16.6452 3.34544 16.7236C3.55592 16.5998 3.73339 16.414 3.88196 16.1705C3.948 16.0632 4.0553 15.8321 4.19975 15.4772C4.32357 15.1594 4.43913 14.9283 4.53818 14.7838C4.69088 14.5651 4.88898 14.4 5.13248 14.2886C5.42138 14.8375 5.61535 15.1594 5.70615 15.2585C5.87123 15.4359 6.04045 15.5432 6.21791 15.5762C6.39125 15.6093 6.54808 15.6258 6.6884 15.6258C6.96492 15.6258 7.27033 15.568 7.6005 15.4483C7.81923 15.3699 8.09988 15.2419 8.44243 15.0727C8.88403 14.854 9.22658 14.7054 9.46182 14.627C9.83739 14.5032 10.213 14.4372 10.5803 14.4372C10.6133 14.4289 10.6669 14.4289 10.7371 14.4289C10.7454 14.4289 10.8114 14.433 10.9393 14.4454C11.0673 14.4537 11.1705 14.4619 11.2406 14.4619C11.3974 14.4619 11.4965 14.4206 11.5378 14.3422C11.5584 14.2845 11.579 14.2225 11.6079 14.1648C11.6409 14.041 11.6574 13.9295 11.6574 13.8387C11.6574 13.7644 11.6451 13.7149 11.6162 13.6901L11.6244 13.6778ZM3.91911 12.8647C3.91911 12.972 3.91085 13.067 3.89022 13.1536C3.86958 13.2403 3.82831 13.3105 3.76228 13.36C3.68799 13.3682 3.62196 13.3435 3.56418 13.2898C3.5064 13.2362 3.46925 13.1866 3.45687 13.1371C3.44449 13.0876 3.43624 13.0257 3.43624 12.9555C3.43624 12.8028 3.47751 12.6336 3.56418 12.4396C3.63846 12.2993 3.68799 12.2003 3.71275 12.1425C3.72513 12.2085 3.70037 12.3158 3.63434 12.4644C3.5683 12.613 3.53529 12.7244 3.53529 12.7946C3.53529 12.9019 3.58894 12.9927 3.69212 13.0711C3.76641 13.0835 3.82419 13.0504 3.86958 12.972C3.88196 12.939 3.89847 12.9019 3.91911 12.8647ZM17.4189 13.459C17.4519 13.6035 17.4849 13.7479 17.518 13.8965C17.518 13.9708 17.4726 14.0244 17.3776 14.0657C17.2786 14.1317 17.1878 14.1648 17.1094 14.1648C16.936 14.1648 16.804 14.0864 16.7049 13.9254C16.6059 13.847 16.5563 13.7644 16.5563 13.6778C16.5563 13.6241 16.5687 13.5828 16.5976 13.5498C16.6513 13.4632 16.7297 13.3806 16.8411 13.3022C16.9484 13.2238 17.0516 13.1825 17.1424 13.1825C17.2951 13.1825 17.3859 13.2733 17.4189 13.459ZM4.95914 8.49411C4.95089 8.52713 4.922 8.54364 4.86835 8.54364C4.83533 8.54364 4.79406 8.53538 4.7404 8.523C4.69913 8.48998 4.68263 8.46522 4.68263 8.44458C4.68263 8.42395 4.69913 8.39093 4.73628 8.34553C4.77342 8.30014 4.7858 8.25886 4.78168 8.22585L4.95914 8.49411ZM4.57119 8.36617C4.55056 8.33315 4.4969 8.31252 4.40611 8.30839C4.31531 8.30014 4.27817 8.26712 4.29055 8.20934C4.32357 8.15569 4.37309 8.13092 4.43913 8.13092C4.54643 8.13092 4.5877 8.17632 4.56707 8.27125V8.3703L4.57119 8.36617Z" fill="white"/>
</svg>
