<svg width="24" height="24" viewBox="0 0 24 24" fill="none" xmlns="http://www.w3.org/2000/svg">
<path fill-rule="evenodd" clip-rule="evenodd" d="M21.9583 11.8742C21.9722 11.9993 21.9861 12.1522 21.9907 12.3376C21.9954 12.5229 22 12.6897 22 12.8427C22 13.3107 21.9629 13.7324 21.8934 14.1031C21.8239 14.4784 21.6942 14.8538 21.5088 15.2338C21.5459 15.0345 21.5737 14.8167 21.5876 14.5896C21.6015 14.3626 21.6108 14.1355 21.6108 13.9224C21.6108 13.32 21.5459 12.6341 21.4161 11.8649C21.2864 11.0957 21.1566 10.3264 21.0269 9.55722C20.8971 8.78798 20.8323 8.1068 20.8323 7.50439C20.8323 7.35611 20.8693 7.20318 20.9481 7.05026C21.0269 6.89271 21.1288 6.77687 21.2539 6.69346C21.291 6.7954 21.3976 7.0549 21.5783 7.47195C21.8146 8.02802 21.9351 8.47288 21.9351 8.80652L21.5551 8.28289L21.4532 8.4497C21.6154 9.58965 21.7822 10.7342 21.9537 11.8742H21.9583ZM17.241 9.14017C17.2132 9.15407 17.0788 9.19576 16.8424 9.26064C16.7173 9.29771 16.5922 9.36259 16.4625 9.45991C16.291 9.43674 16.1844 9.35332 16.1381 9.20503C16.1381 9.15406 16.1381 9.07528 16.1288 8.97334C16.1196 8.87139 16.1196 8.79261 16.1196 8.74164C16.1196 8.63969 16.1288 8.54239 16.152 8.45898C16.1752 8.37557 16.2169 8.29678 16.2864 8.23191C16.3095 8.27825 16.3188 8.34776 16.3188 8.44508C16.3188 8.50532 16.3188 8.56556 16.3095 8.63507C16.3003 8.69994 16.2956 8.76481 16.2864 8.82505C16.2864 8.95943 16.3373 9.05676 16.4439 9.11236C16.5088 9.13553 16.5644 9.13089 16.6061 9.10772C16.6478 9.07992 16.6803 9.03357 16.7127 8.9687C16.7127 8.90846 16.7034 8.82505 16.6849 8.71384C16.6664 8.60262 16.6571 8.53312 16.6571 8.50068C16.6571 8.40337 16.6849 8.31532 16.7359 8.23191C16.7729 8.26898 16.8007 8.39873 16.8146 8.62115C16.8285 8.84358 16.9351 8.94091 17.1251 8.90847C17.1483 8.84823 17.1437 8.76019 17.1158 8.63507C17.088 8.51459 17.0695 8.44044 17.0695 8.41727C17.0695 8.33386 17.0973 8.26435 17.1483 8.2041C17.2085 8.39873 17.2456 8.52848 17.2641 8.59799C17.2827 8.6675 17.2919 8.75554 17.2919 8.85749C17.2919 8.95944 17.278 9.05212 17.2456 9.13553L17.241 9.14017ZM16.9073 7.48121C16.9351 7.44414 16.9537 7.40245 16.9537 7.36074C16.9537 7.32367 16.9166 7.26805 16.8471 7.18927C16.7776 7.1105 16.7405 7.04563 16.7405 6.99466C16.7405 6.93442 16.7683 6.87417 16.8285 6.81857C16.8146 6.7815 16.7915 6.70272 16.7637 6.58687C16.7359 6.50346 16.6756 6.47102 16.5876 6.48492C16.3883 6.57297 16.2447 6.71662 16.1659 6.90661C16.1427 6.95295 16.1335 6.99002 16.1335 7.01782C16.1335 7.0827 16.1798 7.15684 16.2771 7.23098C16.4115 7.33292 16.481 7.38854 16.4903 7.39781C15.7581 8.07899 15.026 8.76017 14.2984 9.43209C14.8823 9.05211 15.2947 8.76945 15.531 8.57483C15.9759 8.21801 16.3188 7.84729 16.5644 7.46267C16.6108 7.43487 16.6571 7.44878 16.7081 7.50902C16.759 7.56926 16.7915 7.6017 16.81 7.61096C16.8702 7.56462 16.9027 7.52756 16.912 7.49049L16.9073 7.48121ZM17.1946 11.4061C17.2178 11.5035 17.1854 11.6332 17.1066 11.7954C17.0602 11.8788 17.0232 11.9529 16.9861 12.0271C16.9259 12.0178 16.8842 11.99 16.8563 11.9437C16.8285 11.8973 16.8007 11.8325 16.7729 11.7491C16.7637 11.7027 16.7637 11.6425 16.7637 11.5591C16.7637 11.3737 16.7915 11.1884 16.8517 11.003C16.8749 10.9289 16.949 10.7574 17.0741 10.4933C17.0278 10.6137 16.9907 10.7389 16.9583 10.8732C16.9259 11.0076 16.9073 11.1328 16.9073 11.2532C16.9073 11.4154 16.9444 11.5591 17.0185 11.6888L17.1946 11.4108V11.4061ZM13.1446 7.21245L13.0565 7.48121C13.0287 7.48121 12.9685 7.45804 12.8804 7.40707C12.7924 7.36073 12.7275 7.33293 12.6905 7.33293C12.607 7.33293 12.5653 7.3978 12.5561 7.52292C12.5283 7.77315 12.5005 7.98631 12.4773 8.1624C12.4541 8.33849 12.3985 8.48215 12.3105 8.60263C12.2271 8.50532 12.1437 8.34313 12.051 8.11143C11.9583 7.87974 11.8795 7.72219 11.81 7.63414C11.7868 7.69902 11.7451 7.73609 11.6895 7.73609C11.6617 7.73609 11.6154 7.71755 11.5505 7.67584C11.4856 7.63414 11.4578 7.5739 11.4578 7.49049C11.4578 7.45342 11.4671 7.40707 11.4856 7.34683C11.5042 7.28659 11.5227 7.23099 11.5459 7.18001L11.6107 7.05953C11.7868 7.11977 11.9351 7.26806 12.0556 7.50439C12.1529 7.70365 12.2502 7.9029 12.3429 8.1068C12.38 7.87047 12.4217 7.67584 12.4634 7.52756C12.5375 7.30513 12.6348 7.13367 12.7507 7.01782C12.8156 7.04099 12.8851 7.06416 12.9546 7.09197C13.0241 7.11977 13.0843 7.16147 13.1399 7.22172L13.1446 7.21245ZM9.44208 7.95851C9.46525 8.03265 9.44208 8.12534 9.38647 8.24118C9.32623 8.35703 9.28452 8.4219 9.26599 8.4358C9.24745 8.4497 9.21501 8.45898 9.17794 8.45898C9.06673 8.45898 8.98332 8.39874 8.93234 8.28289C8.91844 8.22265 8.90917 8.14387 8.90917 8.03729C8.90917 7.89827 8.92308 7.77779 8.95551 7.67584C8.98332 7.5739 9.076 7.37927 9.22428 7.09197C9.17331 7.26342 9.1316 7.39781 9.10843 7.50439C9.08063 7.60634 9.07136 7.69901 9.07136 7.77315C9.07136 7.94461 9.1455 8.06973 9.29379 8.15314L9.45134 7.96315L9.44208 7.95851ZM19.0528 8.72774C19.0158 8.4219 18.9184 8.08827 18.7655 7.72219C18.608 7.35611 18.4597 6.99929 18.3114 6.66102C18.1909 6.73516 18.0982 6.84637 18.0241 6.99466C17.987 7.05953 17.9361 7.19854 17.8665 7.40707C18.0426 8.39409 18.228 9.42747 18.4226 10.5025C18.6172 11.5822 18.7099 12.5415 18.7099 13.3895C18.4736 13.5656 18.1817 13.7185 17.8295 13.839C17.4819 13.9594 16.9583 14.1355 16.2632 14.3579C15.9203 14.5062 15.582 14.6962 15.2391 14.9233C14.9518 15.1225 14.6413 15.3682 14.317 15.6555C13.9555 15.9798 13.645 16.2393 13.3948 16.4247C13.038 16.6935 12.7044 16.8834 12.3939 17.0039C12.2827 16.99 12.1807 16.9622 12.0927 16.9251C12.0046 16.8881 11.9305 16.8325 11.8702 16.7583C11.6756 16.573 11.5829 16.3552 11.5829 16.1003C11.5829 15.9613 11.6108 15.7852 11.6617 15.5767C12.3151 15.2291 12.7878 14.9604 13.0843 14.775C13.5941 14.4553 14.0343 14.1216 14.3957 13.7741C14.7062 13.3014 14.8638 12.7453 14.8638 12.1151C14.8638 11.9159 14.8452 11.7166 14.8082 11.5266C14.7711 11.332 14.7155 11.1605 14.6413 11.003C14.4791 10.7806 14.317 10.6091 14.164 10.4933C13.9555 10.3311 13.747 10.2477 13.5431 10.2477C13.4782 10.2477 13.4041 10.2569 13.3207 10.2801C13.0751 10.4794 12.8712 10.725 12.709 11.0123C12.5746 11.2579 12.4588 11.5498 12.3661 11.8927C12.4124 12.2634 12.7183 12.4766 13.2929 12.5322C13.8675 12.5878 14.2011 12.6527 14.2984 12.7268C14.3077 12.7639 14.3494 12.8427 14.4328 12.9585C14.4838 13.0327 14.4977 13.1207 14.4652 13.2273C14.0806 13.5099 13.696 13.7648 13.3207 13.9965C12.9778 14.1958 12.5885 14.4089 12.1437 14.6313C12.1807 14.5711 12.2363 14.4831 12.3151 14.3719C12.3939 14.256 12.4356 14.1587 12.4449 14.0753L11.9444 14.8074C11.4625 15.0808 10.9435 15.3542 10.3874 15.6323C10.202 15.7203 9.66914 15.9706 8.78406 16.3783C8.10751 16.6888 7.57924 16.939 7.19462 17.1244C8.01946 17.0039 8.75626 16.851 9.40964 16.6564C10.2159 16.4201 10.9018 16.1188 11.4671 15.7574C11.4208 15.9289 11.4022 16.1003 11.4022 16.281C11.4022 16.5035 11.4393 16.7073 11.5134 16.8927C11.5876 17.0781 11.7081 17.2356 11.8795 17.3607C12.0556 17.4627 12.2363 17.5183 12.4124 17.5183C12.6997 17.5183 13.089 17.3051 13.5709 16.8834C13.8675 16.6239 14.0853 16.4479 14.2289 16.3598C14.7386 15.9057 15.4059 15.5072 16.2215 15.1596C16.9351 14.8862 17.6441 14.6128 18.3577 14.3348C18.6404 14.1031 18.835 13.8343 18.9462 13.5192C19.0575 13.2041 19.1131 12.8334 19.1131 12.4117C19.1131 12.18 19.0992 11.9483 19.0667 11.7166C19.0389 11.4849 18.9323 10.9057 18.7563 9.98817C18.6311 9.34405 18.5663 8.82506 18.5663 8.43118L18.6775 8.28753L19.0667 8.73238L19.0528 8.72774ZM11.0686 13.876C11.0454 14.015 11.0176 14.1309 10.9805 14.2189C10.9435 14.307 10.8786 14.3858 10.7813 14.4506C10.7349 14.4599 10.6979 14.4367 10.6608 14.3858C10.633 14.3209 10.6098 14.2745 10.5959 14.2514C10.5959 14.0382 10.633 13.8204 10.7071 13.6073C10.7349 13.5192 10.823 13.3246 10.962 13.028C10.9527 13.0558 10.9018 13.2226 10.8044 13.5192C10.7581 13.6536 10.7396 13.7509 10.7396 13.8204C10.7396 13.9409 10.7813 14.0382 10.8601 14.1216C10.9064 14.0382 10.9388 13.978 10.9666 13.9363C10.9944 13.8946 11.0269 13.876 11.0732 13.876H11.0686ZM6.72196 9.38112C6.67563 9.55721 6.49954 9.66379 6.18443 9.69623C5.86932 9.72866 5.66543 9.79817 5.57739 9.90012C5.57739 10.1457 5.61909 10.4562 5.69787 10.8362C5.73494 11.0308 5.77664 11.2161 5.81835 11.4015C5.84615 11.6008 5.86469 11.7352 5.86932 11.8093C5.86932 11.8788 5.87396 11.9576 5.87396 12.0364C5.87396 12.2078 5.86006 12.3561 5.83689 12.4859C5.80908 12.6156 5.76274 12.7546 5.69787 12.9029C5.73494 12.7315 5.75348 12.5785 5.75348 12.4349C5.75348 12.2032 5.7164 11.9437 5.64226 11.6471C5.57739 11.4386 5.52641 11.2764 5.49861 11.1513C5.47081 11.0308 5.43837 10.8918 5.41057 10.7389C5.38276 10.5859 5.36423 10.4469 5.36423 10.3218C5.36423 10.1828 5.37349 10.0623 5.39666 9.965C5.41983 9.86769 5.46617 9.76574 5.54032 9.65452C5.61446 9.54331 5.74884 9.46916 5.9481 9.43209C6.14272 9.39502 6.25857 9.36722 6.28638 9.35332C6.2215 9.25138 6.11955 9.19577 5.98517 9.19577C5.92493 9.19577 5.86932 9.20967 5.81835 9.24211L5.6608 9.37649C5.6469 9.32551 5.65153 9.26992 5.68397 9.21431C5.71177 9.1587 5.74421 9.10309 5.77201 9.05212L6.01761 8.87603C5.9203 8.6675 5.85079 8.51458 5.80445 8.408C5.7164 8.21337 5.61909 8.11143 5.51715 8.09753C5.50788 8.08827 5.443 8.06972 5.32252 8.04191C5.20204 8.01411 5.14643 7.94461 5.16033 7.84266C5.16033 7.68047 5.20667 7.53219 5.29472 7.39781C5.50324 7.44878 5.67933 7.62487 5.82762 7.92144C5.89249 8.06973 5.96664 8.21338 6.04078 8.35703C6.07785 8.12534 6.11492 7.89826 6.15199 7.66657C6.21687 7.3978 6.34198 7.22171 6.51807 7.13367C6.63855 7.17074 6.70343 7.19855 6.71733 7.22172L6.63855 7.52292C6.58758 7.49975 6.53661 7.48121 6.49027 7.46267C6.44393 7.44414 6.39759 7.44878 6.35125 7.48121C6.30491 7.6017 6.26784 7.76852 6.24004 7.98169C6.16589 8.53776 6.12419 8.82506 6.11955 8.84823C6.36515 8.96871 6.56441 9.14479 6.72196 9.38112ZM10.9481 11.1837C10.9018 11.5266 10.7766 11.8139 10.5681 12.0503C10.2345 12.1105 9.90083 12.2078 9.56719 12.3515C9.56719 12.4349 9.56719 12.5183 9.57646 12.6063C9.58573 12.6944 9.59036 12.7824 9.59963 12.8751C9.59963 13.0512 9.55329 13.1624 9.46525 13.2087C9.38183 13.0605 9.32623 12.9492 9.28916 12.8751C9.21501 12.7407 9.14087 12.6388 9.06673 12.5646C8.53383 12.7036 8.01019 12.9539 7.50046 13.3107C7.08341 13.598 6.63392 13.9965 6.14272 14.5016C5.31789 15.3913 4.49768 16.2857 3.67285 17.18C3.62187 17.2263 3.56163 17.2542 3.48749 17.2727C3.41798 17.2912 3.33457 17.3005 3.23726 17.3005H3.07044C2.99629 17.2866 2.94532 17.2773 2.91288 17.2773C2.69045 17.1522 2.50046 17.0039 2.34754 16.8325C2.17146 16.6332 2.06024 16.42 2.02317 16.1976C2.0139 16.1235 2.00927 16.0586 2.00463 16.003C2.00463 15.9474 2 15.8964 2 15.8547C2 15.2847 2.21316 14.6684 2.64411 14.0104C2.78313 13.7972 3.0241 13.4636 3.36701 13.0095C3.18165 12.8334 3.04727 12.6341 2.95922 12.421C2.87581 12.2078 2.82947 11.9668 2.82947 11.7073C2.82947 11.4478 2.87581 11.1605 2.96386 10.8408C3.0519 10.5211 3.19092 10.155 3.37627 9.73793C3.6126 9.256 3.77479 8.9131 3.86747 8.71384C3.8443 8.81115 3.72845 9.18186 3.51066 9.82598C3.34847 10.3079 3.26506 10.7018 3.26506 11.003C3.26506 11.2162 3.2975 11.4108 3.35774 11.5776C3.42261 11.7444 3.53383 11.9112 3.69601 12.0734C3.79796 12.1012 3.89991 12.0503 3.99722 11.9159C4.1316 11.7213 4.21038 11.6193 4.22892 11.6054C4.27525 11.7073 4.29379 11.8093 4.29379 11.9066C4.29379 12.0271 4.27525 12.1383 4.23818 12.2403C4.20111 12.3422 4.10843 12.5322 3.96015 12.8056C3.90917 12.8705 3.83503 12.9168 3.74235 12.9446C3.64968 12.9724 3.5431 12.991 3.42725 13.0049C3.16775 13.3895 2.91288 13.7741 2.65802 14.1494C2.37071 14.6406 2.22243 15.0669 2.22243 15.4284C2.22243 15.5767 2.24096 15.7157 2.27803 15.8501C2.31511 15.9845 2.37998 16.1235 2.47729 16.2718C2.54217 16.3459 2.64411 16.4061 2.77386 16.4479C2.90361 16.4942 3.03336 16.5127 3.15848 16.5127C3.26043 16.5127 3.35774 16.5035 3.44578 16.4803C3.71455 16.3227 3.96942 16.1327 4.21501 15.9011C4.3772 15.7435 4.73401 15.3357 5.28082 14.6684C5.66543 14.2097 5.962 13.8714 6.17053 13.6582C6.51344 13.3107 6.85635 13.0141 7.20389 12.7685C7.63948 12.4719 8.07044 12.2078 8.49212 11.9807C8.40408 11.8973 8.3392 11.8093 8.30213 11.7073C8.26506 11.6054 8.24652 11.5035 8.24652 11.4015C8.24652 11.2301 8.29286 11.0215 8.39018 10.7806C8.53846 10.3959 8.61724 10.1921 8.62187 10.1689C8.71918 10.067 8.82113 9.9789 8.92771 9.91402C9.03429 9.84915 9.15014 9.81208 9.27989 9.81208C9.3633 9.81208 9.43744 9.82598 9.50232 9.85842C9.76182 9.9928 10.0259 10.1828 10.2901 10.4377C10.5264 10.6601 10.7396 10.9103 10.9249 11.1837H10.9481ZM16.6108 7.0132C16.6108 7.0132 16.5505 6.99003 16.4995 6.96686C16.4486 6.94369 16.4115 6.91588 16.3883 6.87881C16.4347 6.81394 16.481 6.80466 16.532 6.85563C16.569 6.88344 16.5968 6.93905 16.6108 7.0132ZM14.0436 11.6842H13.7192C13.5246 11.6842 13.367 11.6656 13.2373 11.6332C13.1075 11.6008 12.9963 11.5313 12.899 11.4293C12.899 11.3413 12.9314 11.2671 12.9917 11.2115C13.0565 11.1559 13.1307 11.1188 13.2187 11.1049C13.3948 11.1327 13.5616 11.1976 13.7099 11.2996C13.8582 11.4015 13.9694 11.5266 14.0436 11.6842ZM10.0167 11.3598C9.94254 11.3876 9.82206 11.434 9.6506 11.4988C9.47915 11.5637 9.34013 11.6054 9.22892 11.6286C9.20575 11.5637 9.10843 11.4386 8.92771 11.2625C8.78869 11.1142 8.72845 10.9798 8.75162 10.864C8.84893 10.7667 8.94625 10.7157 9.03892 10.7064C9.21501 10.7296 9.39574 10.8084 9.57183 10.952C9.72011 11.091 9.8684 11.2301 10.0167 11.3644V11.3598Z" fill="white"/>
</svg>
