<svg width="24" height="24" viewBox="0 0 24 24" fill="none" xmlns="http://www.w3.org/2000/svg">
<path fill-rule="evenodd" clip-rule="evenodd" d="M22 9.31291C21.9485 9.29084 21.8933 9.23566 21.8418 9.15474C21.7719 9.04438 21.7204 8.9708 21.691 8.94138C21.691 9.39383 21.7131 9.89043 21.7609 10.4238C21.8308 11.1007 21.886 11.6083 21.9191 11.9504C21.9559 12.2925 21.9706 12.6603 21.9706 13.0539C21.9706 13.4071 21.9485 13.7234 21.9044 14.003C21.8602 14.2826 21.7793 14.5732 21.6616 14.8711L21.7241 13.6609L21.1944 8.31236C21.176 8.26454 21.1687 8.21671 21.1687 8.17257C21.1687 8.07693 21.2018 7.97761 21.2643 7.87093C21.3048 7.80104 21.3747 7.71276 21.4666 7.60608C21.5843 7.84886 21.691 8.12475 21.783 8.43742C21.8602 8.69492 21.9301 8.9892 21.9963 9.31291H22ZM19.1234 8.88988C19.0756 9.02967 18.9432 9.15473 18.7261 9.2614C18.4098 9.4159 18.2259 9.50787 18.178 9.54466C18.1964 9.46373 18.2222 9.39383 18.2516 9.34233C18.2847 9.29083 18.3325 9.25037 18.3987 9.2283C18.3509 9.20991 18.3068 9.18783 18.2626 9.15841C18.2185 9.12898 18.1744 9.09955 18.1339 9.07013C18.2111 8.82367 18.3583 8.63606 18.5753 8.51467C18.6342 8.48524 18.6894 8.50732 18.7445 8.57721C18.7666 8.61399 18.7923 8.64341 18.8144 8.67284C18.785 8.72434 18.7556 8.77953 18.7261 8.83103C18.6967 8.86045 18.6636 8.86781 18.6305 8.84941C18.6305 8.83102 18.6158 8.81263 18.59 8.78689C18.5643 8.76114 18.5459 8.74642 18.5312 8.73538C18.4907 8.74642 18.4502 8.76848 18.4135 8.80159C18.3767 8.8347 18.3509 8.85678 18.3399 8.86781C18.3767 8.92667 18.4245 8.96345 18.4907 8.98185C18.5569 9.00024 18.6489 9.01495 18.774 9.02599L19.1271 8.89355L19.1234 8.88988ZM19.2485 9.29451C19.1676 9.35336 19.0682 9.40487 18.9579 9.44533C18.8917 9.4674 18.796 9.50419 18.6673 9.55569C18.5385 9.60719 18.4355 9.66604 18.3583 9.73593C18.281 9.80582 18.2332 9.89411 18.2075 10.0008C18.2737 9.93457 18.3399 9.88675 18.4098 9.84997C18.5275 9.79847 18.6452 9.74329 18.7666 9.69179C18.888 9.64029 18.9873 9.58144 19.0682 9.5189C19.1492 9.45637 19.208 9.38279 19.2485 9.29451ZM20.4035 9.22462C20.352 8.95976 20.2748 8.69124 20.1755 8.42271C20.0688 8.16889 19.9658 7.91507 19.8665 7.6539C19.7892 7.70172 19.7193 7.79368 19.6531 7.93714C19.6237 8.01439 19.5759 8.12475 19.5133 8.27189C19.5538 8.29396 19.5832 8.33075 19.6016 8.37857C19.62 8.42639 19.6237 8.47421 19.609 8.52939L20.1387 12.6419C20.146 12.7376 20.1497 12.8296 20.1571 12.9215C20.1644 13.0135 20.1644 13.1091 20.1644 13.2084C20.1644 13.3445 20.1497 13.4659 20.1166 13.5763C20.0835 13.6866 20.0283 13.7749 19.9437 13.8448C19.9621 13.7381 19.9695 13.6315 19.9695 13.5285C19.9695 13.2231 19.8959 12.9178 19.7488 12.6088C19.631 12.3624 19.4545 12.1012 19.2191 11.8216C18.9616 11.5458 18.7004 11.2662 18.4429 10.9829C18.1486 10.6592 17.9205 10.365 17.7624 10.1001C17.6263 9.94193 17.4902 9.78008 17.3577 9.61455C17.1002 9.29084 16.9421 9.00024 16.8906 8.73906C16.9126 8.71699 16.9421 8.70228 16.9715 8.70228C17.0009 8.70228 17.0451 8.72434 17.1039 8.7648C17.1628 8.80527 17.2069 8.82734 17.2363 8.82734C17.2658 8.82734 17.2952 8.81263 17.3246 8.7832V8.74273C17.3246 8.72066 17.3173 8.70963 17.3062 8.70228L17.3246 8.72803L17.2878 8.7648C16.9273 8.4227 16.5705 8.0806 16.21 7.74218C16.1622 7.81207 16.1328 7.90037 16.1218 8.00336C16.1107 8.10636 16.096 8.23878 16.0776 8.39695C16.2726 8.74273 16.4565 9.05909 16.6331 9.34233C16.8391 9.6734 17.0487 9.9824 17.2584 10.2693C17.446 10.5342 17.6814 10.8321 17.9647 11.1595C18.1302 11.3545 18.3804 11.6377 18.7151 12.0166C19.0204 12.3587 19.2522 12.6567 19.414 12.9068C19.6274 13.2379 19.7708 13.5726 19.8481 13.9147C19.6605 14.1906 19.3404 14.4407 18.8843 14.6651C18.2663 14.9704 17.8985 15.1691 17.7808 15.2574C17.9279 15.2095 18.2001 15.1691 18.5937 15.1286C18.9873 15.0918 19.2779 15.0183 19.4692 14.9116C19.8297 14.5768 20.0761 14.1538 20.2122 13.6499C20.3116 13.2783 20.3631 12.7891 20.3631 12.1858C20.3631 11.9099 20.2821 11.2625 20.1166 10.2436C20.0467 9.8095 20.0099 9.44165 20.0099 9.14737L20.0798 8.94506C20.1313 8.99656 20.1902 9.05174 20.249 9.10691C20.3079 9.16209 20.3594 9.20255 20.4072 9.22462H20.4035ZM15.5994 8.43007C15.5516 8.58457 15.4964 8.70228 15.4302 8.7832C15.364 8.86413 15.2941 8.92299 15.2168 8.95978C15.147 8.98185 15.0955 8.99655 15.066 8.99655C15.0292 8.99655 14.9961 8.97816 14.9594 8.94506C14.9189 8.86781 14.8968 8.79056 14.8968 8.70596C14.8968 8.5956 14.9299 8.47788 14.9925 8.35281C15.0219 8.30132 15.0881 8.19833 15.1948 8.05119C15.1874 8.09901 15.1617 8.17992 15.1102 8.29396C15.0587 8.40799 15.0366 8.49628 15.0366 8.55514C15.0366 8.64342 15.0771 8.71331 15.1617 8.76849C15.261 8.73906 15.3456 8.69124 15.4081 8.6287C15.4008 8.58824 15.364 8.52938 15.2978 8.45581C15.2316 8.38224 15.1948 8.32339 15.1948 8.28292C15.1948 8.23142 15.2279 8.18361 15.2904 8.14315C15.3603 8.16154 15.4228 8.19464 15.4817 8.24982C15.5369 8.30132 15.5737 8.36385 15.5921 8.43374L15.5994 8.43007ZM16.199 9.78007L15.8275 10.3355C15.8275 10.3355 15.7098 10.2472 15.5258 10.1222C15.4008 10.0412 15.353 9.95665 15.375 9.87572L15.6914 9.39015C15.8679 9.47108 16.0372 9.60351 16.1953 9.78007H16.199ZM14.231 8.95978C14.242 9.05909 14.231 9.15105 14.1869 9.2283C14.1464 9.30923 14.0875 9.36073 14.0103 9.39015C13.9698 9.39751 13.9367 9.39015 13.9147 9.3644C13.8926 9.34233 13.8632 9.30187 13.8337 9.25037C13.8264 9.20255 13.8264 9.16945 13.8264 9.1437C13.8264 9.03702 13.8411 8.94506 13.8668 8.86413C13.8926 8.7832 13.9698 8.6287 14.0912 8.40064C14.0434 8.5772 13.9956 8.75377 13.9514 8.93034C13.9514 9.02598 13.9772 9.09955 14.0324 9.15841C14.0802 9.15841 14.1133 9.13634 14.1354 9.0922C14.1574 9.04805 14.1758 9.00391 14.1942 8.95609H14.2384L14.231 8.95978ZM14.0103 10.3723C13.9588 10.5084 13.9147 10.6077 13.8779 10.6739C13.8264 10.7696 13.7528 10.8616 13.6572 10.9572C13.6351 10.9278 13.5431 10.8726 13.385 10.788C13.2672 10.7291 13.2231 10.6482 13.2525 10.5489L13.613 10.0707C13.6939 10.1111 13.7675 10.1553 13.8337 10.1994C13.8999 10.2436 13.9588 10.3024 14.0103 10.3723ZM14.7239 11.1485C14.6761 11.1117 14.5989 11.0528 14.4959 10.9719C14.4149 10.913 14.3303 10.8726 14.2494 10.8468C14.1685 10.8763 14.0655 10.9609 13.9478 11.1043C13.8595 11.211 13.808 11.2735 13.7896 11.2883C13.7896 11.3545 13.8521 11.428 13.9735 11.509C14.1317 11.6156 14.231 11.6855 14.2641 11.7223C14.3708 11.6745 14.4628 11.5936 14.5474 11.4759C14.5989 11.3986 14.6577 11.2919 14.7239 11.1485ZM15.2794 12.1564C15.2573 12.2373 15.2352 12.3219 15.2168 12.4028C15.1874 12.4911 15.1359 12.5573 15.0587 12.5978C15.0072 12.5978 14.9594 12.5757 14.9189 12.5279C14.9005 12.5058 14.8895 12.4764 14.8821 12.4396C14.8747 12.4028 14.8747 12.355 14.8747 12.2888C14.8747 12.1527 14.8968 12.0313 14.941 11.9173C14.9851 11.8069 15.0513 11.6819 15.1396 11.5458C15.0918 11.6524 15.0587 11.7334 15.044 11.7922C15.0035 11.9026 14.9814 11.9982 14.9814 12.0755C14.9814 12.1748 15.0145 12.2594 15.0771 12.333C15.1286 12.344 15.1653 12.3182 15.1874 12.252C15.2095 12.1858 15.2389 12.1564 15.2794 12.1564ZM13.4953 7.98129C13.488 8.02911 13.4585 8.07693 13.407 8.12843C13.3555 8.17993 13.3003 8.20567 13.2489 8.21303C13.1532 8.24246 12.7596 8.36753 12.0644 8.58456C11.6046 8.72434 11.2146 8.85677 10.8909 8.97448C10.4679 9.12898 10.0853 9.29083 9.74324 9.46005C9.78003 9.29083 9.87567 9.16576 10.0338 9.08851C10.2987 9.00023 10.5635 8.90827 10.8284 8.81631C10.9461 8.77952 11.2772 8.67284 11.8179 8.48892C12.5242 8.25349 13.0833 8.08428 13.4953 7.98496V7.98129ZM12.8516 9.22462C12.7706 9.1584 12.6971 9.12898 12.6309 9.12898C12.5352 9.12898 12.4617 9.25404 12.4102 9.5005C12.3587 9.74696 12.3182 9.88675 12.2961 9.91618C12.2593 9.83893 12.2078 9.72489 12.1416 9.5704C12.0754 9.4159 11.9945 9.30186 11.9062 9.22462C11.84 9.22462 11.8032 9.23565 11.7922 9.2614C11.7922 9.28347 11.7775 9.3313 11.748 9.40119C11.7186 9.47108 11.7039 9.52625 11.7039 9.55936C11.7039 9.59982 11.726 9.64029 11.7664 9.68443C11.7885 9.67707 11.8179 9.67708 11.8547 9.67708C11.9614 9.67708 12.0497 9.76536 12.1196 9.94561C12.1894 10.1259 12.2446 10.2325 12.2888 10.2693C12.3366 10.159 12.3734 10.0449 12.4028 9.93089C12.4322 9.81686 12.48 9.63661 12.5426 9.38647C12.583 9.37544 12.6235 9.37177 12.6566 9.3828C12.6934 9.39016 12.7375 9.40487 12.789 9.42326C12.8074 9.39383 12.8185 9.36441 12.8258 9.33498C12.8332 9.30555 12.8405 9.26876 12.8516 9.2283V9.22462ZM13.7087 11.3066C13.6792 11.3287 13.602 11.4464 13.4806 11.6598C13.3923 11.8143 13.282 11.8731 13.1532 11.8437C13.0429 11.7738 12.9582 11.7186 12.9067 11.6855C12.8001 11.6156 12.7596 11.5421 12.7817 11.4648C12.8295 11.4354 12.892 11.3545 12.9656 11.222C13.0429 11.0896 13.1127 11.0234 13.179 11.0234C13.2268 11.0234 13.2746 11.0455 13.3187 11.0859L13.7087 11.3066ZM16.8685 12.6383C16.8979 12.7045 16.92 12.7854 16.9384 12.881C16.9568 12.9767 16.9641 13.0687 16.9641 13.1496C16.9641 13.3041 16.9494 13.4512 16.9163 13.5984C16.8832 13.7455 16.8317 13.9257 16.7618 14.1354C16.6551 14.2421 16.5337 14.3193 16.394 14.3635C16.2542 14.4113 16.107 14.4334 15.9489 14.4334C15.8312 14.4334 15.7061 14.4187 15.57 14.3892C15.4596 14.3524 15.3493 14.3157 15.2426 14.2752C15.1138 14.2163 15.0329 14.1281 15.0035 14.0103C14.9373 14.1281 14.8784 14.2458 14.8196 14.3635C14.7423 14.4885 14.643 14.5768 14.5179 14.6357C14.4591 14.6541 14.4002 14.6651 14.345 14.6762C14.2899 14.6835 14.2347 14.6909 14.1832 14.6909C14.1133 14.6909 14.0544 14.6798 14.0066 14.6541C13.9367 14.632 13.8779 14.5842 13.8337 14.518C13.7896 14.4518 13.7565 14.3782 13.7307 14.301C13.5431 14.5842 13.2636 14.724 12.892 14.724C12.8442 14.724 12.7743 14.7166 12.686 14.7019C12.5941 14.6872 12.5095 14.6431 12.4285 14.5695C12.3476 14.4959 12.2924 14.4076 12.2557 14.3083C12.0717 14.4628 11.8878 14.5805 11.6965 14.6688C11.5052 14.7571 11.3066 14.8012 11.1006 14.8012H10.9056C10.8394 14.7828 10.7953 14.7718 10.7732 14.7644C10.6629 14.6872 10.5525 14.6504 10.4458 14.6504C10.3649 14.6504 10.1589 14.7166 9.8352 14.8454C9.67703 14.9116 9.5446 14.941 9.43793 14.941C9.37907 14.941 9.33493 14.941 9.3055 14.9337C9.27607 14.9263 9.22825 14.9116 9.16572 14.8822C8.90822 14.7828 8.72062 14.5695 8.61026 14.2458C8.55876 14.0876 8.49623 13.7823 8.42634 13.3372C8.42634 12.4028 8.40059 11.52 8.35277 10.696C8.30127 9.87203 8.21666 9.0738 8.0916 8.30499C8.13942 8.20567 8.19091 8.10268 8.24977 7.996C8.30863 7.88932 8.37852 7.81208 8.46312 7.7569C8.54037 8.23878 8.59555 8.86413 8.63233 9.62925C8.64337 9.9125 8.66176 10.4974 8.69119 11.3913C8.71694 12.2815 8.75005 12.9583 8.79419 13.4181C8.8604 13.6241 8.90822 13.7602 8.94501 13.8227C9.02226 13.9699 9.12525 14.0766 9.254 14.1391C9.30182 14.1612 9.35332 14.1796 9.41218 14.1906C9.47103 14.2016 9.52989 14.209 9.58874 14.209C9.65496 14.209 9.70646 14.209 9.74692 14.2016C9.78738 14.1943 9.84624 14.1832 9.92349 14.1648C9.90142 14.0692 9.8867 13.9662 9.8867 13.8485C9.8867 13.5358 9.97499 13.2342 10.1516 12.9399C10.3281 12.6456 10.5562 12.3955 10.8321 12.1895C10.9388 12.1711 11.027 12.2116 11.0969 12.3146C11.1668 12.4507 11.2183 12.5426 11.2477 12.5868C11.2992 12.6971 11.3287 12.8295 11.3287 12.984C11.3287 13.0944 11.3066 13.2636 11.2588 13.488C11.211 13.7124 11.1889 13.8742 11.1889 13.9736C11.1889 14.0324 11.1889 14.0766 11.1962 14.106C11.748 14.106 12.2189 13.8816 12.6014 13.4365C12.6198 13.4659 12.6272 13.4954 12.6272 13.5248C12.6051 13.6351 12.583 13.7455 12.5646 13.8522C12.6824 13.9772 12.8369 14.0361 13.0318 14.0361C13.1679 14.0361 13.304 14.0067 13.4365 13.9478C13.5321 13.8816 13.6241 13.786 13.7197 13.6535C13.8153 13.5211 13.8852 13.4218 13.9331 13.3593V13.6057C13.9441 13.705 13.9698 13.7896 14.014 13.8522C14.1023 13.9589 14.2163 14.0103 14.3598 14.0103C14.4186 14.0103 14.4848 13.9956 14.5547 13.9662C14.6724 13.9294 14.7717 13.8559 14.8564 13.7455C14.9667 13.5689 15.0807 13.3924 15.1911 13.2158C15.1985 13.2636 15.1911 13.3262 15.1727 13.4071C15.1543 13.488 15.147 13.5321 15.147 13.5432C15.4045 13.6793 15.6767 13.7455 15.9599 13.7455C16.2615 13.7455 16.5117 13.6682 16.7177 13.5174C16.6809 13.3225 16.6 13.0944 16.4712 12.8296C16.1585 12.2005 15.9893 11.818 15.9636 11.6855C15.9378 11.5531 15.9231 11.4391 15.9231 11.3471C15.9231 11.1338 15.982 10.9314 16.0997 10.7365C16.2542 10.891 16.3682 11.0087 16.4455 11.0896C16.5852 11.2441 16.6588 11.3692 16.6588 11.4685C16.6588 11.4869 16.6515 11.5126 16.6404 11.5494L16.4565 11.4979C16.4344 11.6524 16.4823 11.84 16.6073 12.0644C16.7729 12.3661 16.8648 12.5573 16.8795 12.6383H16.8685ZM9.50414 8.70228C9.50414 8.52571 9.48575 8.37121 9.44528 8.23878C9.4085 8.10636 9.33493 8.00336 9.22825 7.93347L9.13997 8.08429C9.29446 8.30868 9.36803 8.56617 9.36803 8.86045C9.36803 9.05541 9.33125 9.2283 9.26136 9.3828C9.32021 9.27245 9.36803 9.15841 9.4085 9.04437C9.44528 8.93034 9.47839 8.81631 9.50046 8.70596L9.50414 8.70228ZM11.4648 10.468L10.9424 10.1847L10.5893 10.5636C10.5488 10.571 10.5084 10.5599 10.4716 10.5342C10.4348 10.5084 10.3833 10.4753 10.3244 10.4312C10.2582 10.3502 10.192 10.3061 10.1221 10.3061C10.0449 10.3061 9.96027 10.365 9.86463 10.4827C9.81681 10.5415 9.7506 10.6261 9.66231 10.7402C9.61449 10.8505 9.68806 10.9425 9.88302 11.0124C10.0118 11.0602 10.0927 11.097 10.1221 11.1264C10.2031 11.1264 10.2803 11.0639 10.3465 10.9425C10.4127 10.8174 10.4642 10.7438 10.501 10.7218L11.0822 10.994C11.1631 10.9241 11.2367 10.8395 11.3029 10.7475C11.3507 10.6776 11.4022 10.582 11.4611 10.4643L11.4648 10.468ZM14.7239 15.1286C14.5179 15.3125 14.2016 15.4707 13.7786 15.6068C13.2268 15.776 12.8847 15.8974 12.7559 15.9673C12.7559 15.8422 12.8185 15.7503 12.9399 15.6841C13.5358 15.4965 14.128 15.3089 14.7239 15.1286ZM6.38845 8.62135C6.42891 8.77952 6.37741 8.91931 6.23027 9.03702C6.16406 9.05541 6.11256 9.03702 6.0721 8.98552C6.02428 8.90459 5.99117 8.84941 5.97646 8.82734C5.9691 8.78688 5.9691 8.73171 5.9691 8.65814C5.9691 8.52939 5.98749 8.41167 6.02796 8.30499C6.06474 8.19832 6.1236 8.09164 6.20085 7.97761C6.17142 8.04382 6.14567 8.11739 6.12728 8.20199C6.1052 8.2866 6.09785 8.36753 6.09785 8.44478C6.09785 8.58456 6.13831 8.69859 6.22292 8.77952C6.27074 8.79056 6.30384 8.77952 6.32959 8.73538C6.35166 8.69492 6.37741 8.65445 6.39949 8.62135H6.38845ZM9.85727 12.1969C9.82785 12.2042 9.8021 12.2336 9.77635 12.2925C9.75428 12.3514 9.72485 12.3881 9.69542 12.3992C9.65496 12.3697 9.62921 12.3366 9.61449 12.3035C9.60346 12.2667 9.5961 12.2263 9.5961 12.1785C9.5961 12.1564 9.60346 12.1049 9.61817 12.024C9.63289 11.943 9.63656 11.8842 9.63289 11.8437C9.58507 11.943 9.54828 12.0387 9.52253 12.127C9.49678 12.2152 9.48207 12.3109 9.48207 12.4102C9.5115 12.4911 9.53357 12.5426 9.5446 12.561C9.58139 12.6125 9.62553 12.6419 9.67703 12.6419C9.74324 12.5904 9.78738 12.5206 9.80945 12.4396C9.81681 12.4102 9.83152 12.3293 9.8536 12.2005L9.85727 12.1969ZM7.65753 10.7402C7.66489 10.8174 7.65017 10.8947 7.61339 10.9756C7.5766 11.0565 7.52511 11.1227 7.45521 11.1816C7.41475 11.2 7.36693 11.1889 7.30807 11.1558C7.2529 11.119 7.21611 11.0676 7.2014 11.0013C7.18668 10.9351 7.17933 10.8616 7.17933 10.7843C7.17933 10.5673 7.24186 10.365 7.36325 10.1737C7.34486 10.284 7.33382 10.3797 7.32279 10.4569C7.31543 10.5342 7.30807 10.582 7.30807 10.5967C7.30807 10.7549 7.34854 10.8726 7.43314 10.9498C7.48464 10.9498 7.53246 10.9167 7.56925 10.8468C7.60603 10.7806 7.63546 10.7438 7.65385 10.7365L7.65753 10.7402ZM7.08369 9.61822L6.67905 10.1479C6.47305 10.0376 6.34431 9.96032 6.28913 9.91986C6.21188 9.861 6.15303 9.79847 6.11256 9.73593C6.06106 9.78375 6.00956 9.84629 5.96174 9.93089C5.85507 10.1148 5.77414 10.2252 5.71528 10.2656C5.627 10.2656 5.53504 10.2399 5.44308 10.1921C5.34743 10.1406 5.25547 10.078 5.15983 10.0008C5.23708 9.87204 5.29226 9.77272 5.32904 9.71018C5.39525 9.59247 5.46515 9.50418 5.54239 9.44533L6.09049 9.64765L6.53191 9.25773C6.74894 9.36809 6.87033 9.43062 6.8924 9.44166C6.95862 9.48212 7.02115 9.54097 7.08736 9.61822H7.08369ZM10.3943 15.559C10.3943 15.6546 10.3796 15.7429 10.3465 15.8312C10.3134 15.9195 10.2582 15.9894 10.1847 16.0446C10.1074 16.0446 10.0449 15.9967 9.9897 15.9048C9.98234 15.868 9.98234 15.8202 9.98234 15.754C9.98234 15.6252 10.0081 15.4891 10.0633 15.3493C10.1001 15.25 10.1589 15.1323 10.2398 14.9962C10.2104 15.0624 10.181 15.1433 10.1479 15.2463C10.1148 15.3493 10.1001 15.4376 10.1001 15.5075C10.1001 15.6179 10.1368 15.7209 10.2067 15.8091C10.2546 15.7907 10.295 15.7503 10.3318 15.6804C10.3686 15.6142 10.3907 15.5737 10.4017 15.5627L10.3943 15.559ZM4.79566 8.01072L4.74416 8.18729C4.72209 8.19832 4.68898 8.19464 4.64852 8.17257C4.60806 8.1505 4.57863 8.14315 4.56024 8.14315C4.54184 8.14315 4.51977 8.1505 4.49034 8.16889C4.43149 8.27557 4.38735 8.44846 4.3616 8.68389C4.33585 8.91931 4.3101 9.08117 4.28803 9.15474C4.41677 9.25038 4.51609 9.32394 4.58231 9.37912C4.64852 9.4343 4.6853 9.48947 4.6853 9.54097C4.6853 9.59983 4.65955 9.655 4.60438 9.71018C4.40574 9.74697 4.23653 9.77639 4.09674 9.80214C3.95696 9.82789 3.86132 9.89778 3.80246 10.0081C3.82454 10.1332 3.87236 10.3171 3.93857 10.5599C4.00478 10.8027 4.0526 10.994 4.07467 11.1338C4.09674 11.2735 4.11146 11.4133 4.11146 11.5531C4.11146 11.6524 4.1041 11.7444 4.09307 11.8327C4.08203 11.9173 4.04892 12.024 3.99742 12.1453C4.03789 12.046 4.05996 11.932 4.05996 11.7996C4.05996 11.612 4.0011 11.3545 3.88339 11.0308C3.82454 10.8836 3.77304 10.7438 3.72889 10.6114C3.68475 10.479 3.65532 10.3834 3.64061 10.3245C3.6259 10.2656 3.61854 10.1994 3.61854 10.1295C3.61854 9.97136 3.67004 9.84261 3.76936 9.73962C3.86868 9.6403 4.04892 9.55936 4.30642 9.5005C4.27699 9.43429 4.21813 9.40487 4.12985 9.40487C4.09307 9.40487 4.06364 9.41223 4.03421 9.43062L3.95328 9.5005C3.93489 9.47843 3.93489 9.44165 3.95328 9.39751C3.97168 9.35336 3.99007 9.30187 4.01582 9.24302L4.17399 9.14737C4.10778 8.98184 4.06364 8.86046 4.03421 8.77585C3.97535 8.62871 3.90546 8.51468 3.82086 8.43007C3.8135 8.49628 3.78407 8.5257 3.72522 8.5257C3.68475 8.5257 3.6259 8.50731 3.55233 8.46685C3.47876 8.43006 3.44197 8.36386 3.44197 8.26822C3.44197 8.23143 3.44933 8.19097 3.46036 8.14315C3.4714 8.09533 3.48244 8.05118 3.48979 8.01072C3.49715 7.97025 3.53393 7.94819 3.59279 7.94819C3.659 7.94819 3.70315 7.9629 3.73257 7.99233C3.85764 8.07326 3.968 8.21671 4.06732 8.41535C4.14456 8.56985 4.19239 8.66917 4.21814 8.71699C4.26596 8.52939 4.29906 8.38592 4.32481 8.28292C4.37263 8.09532 4.4462 7.9629 4.54552 7.88565C4.59702 7.87461 4.64116 7.87829 4.67795 7.893C4.71473 7.91139 4.7552 7.9445 4.80302 7.98865L4.79566 8.01072ZM7.70167 13.4843C7.70167 13.1533 7.63914 12.8516 7.51775 12.5794C7.39268 12.3072 7.21243 12.035 6.96965 11.7701C6.83355 11.6819 6.73423 11.6267 6.66802 11.6009C6.55766 11.5531 6.44363 11.531 6.33327 11.531C6.24499 11.531 6.16038 11.5531 6.07578 11.5936C5.87714 11.7885 5.72264 11.9909 5.61229 12.2079C5.50193 12.4212 5.45043 12.6567 5.45043 12.9105C5.45043 12.9877 5.45043 13.0466 5.45779 13.087C5.53504 13.2526 5.65643 13.3703 5.82932 13.4402C5.96542 13.4917 6.13463 13.5211 6.34063 13.5211C6.42156 13.5211 6.54295 13.5137 6.70112 13.5027C6.8593 13.4917 6.97333 13.4843 7.03587 13.4843C7.15358 13.5542 7.2345 13.6131 7.28232 13.6609C7.35222 13.7381 7.38164 13.8301 7.37061 13.9331C6.96965 14.2936 6.63491 14.5732 6.3627 14.7718C5.96174 15.0661 5.59022 15.2868 5.25179 15.4339C4.8398 15.6105 4.43517 15.6988 4.03421 15.6988C3.87603 15.6988 3.7105 15.6841 3.54129 15.6546C3.37208 15.6252 3.21023 15.5811 3.05573 15.5222C2.80927 15.3935 2.61799 15.2059 2.48556 14.9557C2.35314 14.7093 2.28692 14.4371 2.28692 14.1428C2.28692 13.8853 2.32371 13.6462 2.3936 13.4291C2.46349 13.2121 2.58488 13.0539 2.75409 12.9509C2.89388 12.8332 3.00055 12.6934 3.07044 12.5353C3.14033 12.3771 3.17712 12.2079 3.17712 12.0313C3.17712 11.9798 3.17712 11.9357 3.16976 11.9062C3.11826 11.943 3.08516 12.0019 3.07412 12.0902C3.03366 12.1564 2.99319 12.2042 2.94905 12.2373C2.90859 12.2704 2.85709 12.2888 2.79823 12.2962C2.69891 12.1711 2.62902 12.0607 2.59224 11.9577C2.55545 11.8548 2.53338 11.737 2.53338 11.6083C2.53338 11.3655 2.6327 11.0565 2.83502 10.6813C3.11826 10.1442 3.26908 9.84996 3.29483 9.79111C2.97112 10.1957 2.72466 10.5746 2.55177 10.9204C2.32739 11.3802 2.21703 11.8253 2.21703 12.252C2.21703 12.3808 2.22439 12.5095 2.24278 12.6309C2.32371 12.7192 2.36785 12.8222 2.36785 12.9399C2.36785 13.0392 2.32003 13.1974 2.22807 13.4181C2.13243 13.6351 2.08828 13.797 2.08828 13.9037C2.02943 14.1391 2 14.3598 2 14.5658C2 14.8601 2.05518 15.1396 2.16185 15.4008C2.27221 15.662 2.43774 15.879 2.66213 16.0482C2.84605 16.1733 3.03366 16.2616 3.2323 16.3131C3.43094 16.3646 3.63325 16.394 3.84661 16.394C4.21813 16.394 4.60806 16.3131 5.02005 16.1549C5.37318 16.0188 5.71896 15.8386 6.05371 15.6068C6.55398 15.2426 6.91447 14.9373 7.13151 14.6872C7.47729 14.2973 7.66857 13.8963 7.70535 13.477L7.70167 13.4843ZM4.58598 13.3078C4.57495 13.3776 4.56391 13.4365 4.5492 13.4843C4.53816 13.5321 4.50138 13.5358 4.44252 13.5027C4.36527 13.4365 4.30274 13.4218 4.24756 13.4586C4.19974 13.5469 4.16664 13.6719 4.14089 13.8301C4.08939 14.2311 4.05628 14.4444 4.04525 14.4738C3.97903 14.4223 3.92018 14.3267 3.86132 14.1906C3.78039 13.9956 3.72889 13.8853 3.7105 13.8559C3.69211 13.9221 3.65165 13.9515 3.58543 13.9515C3.54865 13.9515 3.51922 13.9441 3.49715 13.9331C3.47508 13.9221 3.46036 13.911 3.45301 13.9074C3.39415 13.8595 3.36472 13.8007 3.36472 13.7308C3.36472 13.694 3.37576 13.6462 3.39415 13.58C3.41622 13.5138 3.42358 13.4696 3.42358 13.4402C3.44565 13.4218 3.47508 13.4034 3.50451 13.3887C3.63325 13.4291 3.73993 13.5285 3.82086 13.6903C3.87971 13.8301 3.94225 13.9699 4.00478 14.106C4.02317 13.9478 4.04157 13.786 4.06732 13.6204C4.1041 13.4512 4.17399 13.3114 4.28067 13.2048C4.40574 13.1864 4.50506 13.2232 4.58231 13.3114L4.58598 13.3078ZM11.0491 13.5211C11.0013 13.3519 10.9571 13.2232 10.9167 13.1422C10.8468 13.0061 10.7475 12.9289 10.615 12.9031C10.5157 12.9325 10.4238 13.0024 10.3428 13.1165C10.2913 13.1937 10.2362 13.2967 10.1847 13.4255C10.2546 13.5836 10.3723 13.7234 10.5378 13.8411C10.6187 13.8227 10.707 13.7823 10.8026 13.7234C10.8983 13.6609 10.9792 13.5947 11.0491 13.5248V13.5211ZM6.92551 12.7964C6.8078 12.8332 6.68641 12.8479 6.56502 12.8479C6.44363 12.8479 6.32224 12.8332 6.21188 12.8001C6.10153 12.767 6.00589 12.7266 5.92864 12.6714C5.91024 12.642 5.87714 12.5905 5.82196 12.5206C5.80357 12.4911 5.79621 12.4617 5.79621 12.4323C5.79621 12.3918 5.81093 12.355 5.84035 12.3256C5.90657 12.2594 5.98749 12.23 6.08681 12.23C6.19349 12.23 6.29281 12.252 6.38845 12.2998C6.49513 12.3293 6.59812 12.3955 6.69744 12.4948C6.77837 12.5757 6.85562 12.6787 6.92551 12.7964Z" fill="white"/>
</svg>
