<svg width="24" height="24" viewBox="0 0 24 24" fill="none" xmlns="http://www.w3.org/2000/svg">
<path fill-rule="evenodd" clip-rule="evenodd" d="M22 8.98564C21.9383 8.93712 21.8721 8.86656 21.806 8.77836C21.7398 8.69016 21.6781 8.60195 21.6207 8.51816L21.559 8.6681L21.9824 12.9327C21.9824 13.3693 21.9471 13.7883 21.8765 14.194C21.806 14.5953 21.6913 14.9614 21.5369 15.2833C21.581 14.9217 21.6075 14.5998 21.6251 14.3087C21.6428 14.0176 21.6516 13.7089 21.6516 13.3781L21.1003 8.16094C21.043 8.0992 21.0165 8.01982 21.0165 7.9272C21.0165 7.83459 21.0606 7.71992 21.1533 7.5788C21.2723 7.38916 21.3385 7.2745 21.3561 7.23922C21.6957 7.74638 21.9118 8.32852 22 8.98564ZM17.387 7.27009C17.409 7.42445 17.3605 7.55234 17.2503 7.64936C17.3429 7.72875 17.387 7.79931 17.387 7.86105C17.387 7.90515 17.3694 7.94043 17.3341 7.97572C17.2415 7.94043 17.1444 7.96689 17.0386 8.0595C16.871 8.22268 16.7034 8.38144 16.5402 8.5358C16.3638 8.65046 16.1477 8.77836 15.8964 8.9283C15.8258 8.9724 15.6891 9.04297 15.4818 9.14881C15.9978 8.73426 16.5138 8.31088 17.0254 7.88751C17.0121 7.86546 16.9504 7.81695 16.8401 7.74639C16.7299 7.67141 16.6637 7.59644 16.6329 7.51706C16.6417 7.40239 16.6946 7.30096 16.7916 7.20835C16.8534 7.14661 16.9592 7.08045 17.1003 7.01871C17.1709 7.00548 17.2282 7.02312 17.2767 7.07604C17.3208 7.12896 17.3605 7.19071 17.387 7.26127V7.27009ZM18.1808 9.93823C18.194 10.0529 18.1852 10.1631 18.1544 10.2734C18.1235 10.3837 18.0662 10.4674 17.978 10.5336C17.8368 10.5336 17.753 10.4851 17.731 10.3925C17.7045 10.2954 17.6957 10.1896 17.6957 10.0705C17.6957 9.94264 17.7178 9.81033 17.7574 9.66921C17.7971 9.52808 17.8501 9.39578 17.9074 9.27671C17.9162 9.33404 17.903 9.43988 17.8721 9.59424C17.8412 9.74859 17.8236 9.85444 17.8236 9.91177C17.8236 10.0794 17.8942 10.194 18.0353 10.2513C18.0573 10.1808 18.0794 10.119 18.097 10.0705C18.1191 10.022 18.1455 9.97792 18.1808 9.94264V9.93823ZM17.2062 9.45311C17.1444 9.3605 17.0562 9.28552 16.9416 9.21937C16.8357 9.17527 16.7343 9.13117 16.6329 9.08266C16.527 9.16645 16.4344 9.26788 16.3506 9.39137C16.2712 9.51044 16.2227 9.62511 16.2095 9.73095C16.28 9.753 16.3771 9.80151 16.505 9.88089C16.5623 9.91618 16.6549 9.97792 16.7784 10.0617C16.8357 9.99115 16.8975 9.90736 16.968 9.81474C17.0386 9.71772 17.118 9.60306 17.2018 9.46193L17.2062 9.45311ZM14.9614 8.54462C14.9261 8.72103 14.9041 8.81364 14.8997 8.81805C14.8644 8.91507 14.7982 8.99004 14.6968 9.03856C14.5998 9.08266 14.5072 9.02974 14.4234 8.88861C14.4234 8.69016 14.4498 8.49611 14.5028 8.30206C14.5557 8.10802 14.6262 7.90956 14.7189 7.70228C14.7189 7.78607 14.6924 7.91838 14.6395 8.09478C14.5865 8.27119 14.5601 8.39908 14.5601 8.47406C14.5601 8.58872 14.5865 8.68574 14.6439 8.76954C14.7233 8.78277 14.7894 8.7519 14.8467 8.6681C14.9041 8.58872 14.9438 8.54462 14.9614 8.5358V8.54462ZM14.8776 6.76733C14.2558 6.95697 13.6604 7.15984 13.0959 7.37594C12.527 7.59203 11.9846 7.83459 11.4598 8.0992C11.4112 8.14771 11.3716 8.20063 11.3451 8.25796C11.3186 8.3153 11.3142 8.36822 11.3363 8.41673C11.6053 8.21386 11.9802 8.0154 12.4697 7.82577C13.2547 7.52147 13.6516 7.36711 13.6648 7.35829C13.7266 7.32301 13.9515 7.24804 14.3308 7.13778C14.6042 7.0584 14.7894 6.93492 14.882 6.76733H14.8776ZM15.6097 10.9041C15.548 11.2701 15.3539 11.495 15.0364 11.5832C14.9791 11.5744 14.9217 11.5656 14.86 11.5479C14.7982 11.5303 14.763 11.495 14.7497 11.4377C14.7497 11.248 14.7894 11.0584 14.8644 10.8644C14.9129 10.7453 15.0055 10.5777 15.1378 10.366C15.0584 10.5998 14.9879 10.8335 14.9173 11.0628C14.9173 11.1598 14.957 11.248 15.032 11.3186C15.1863 11.3186 15.3186 11.2569 15.4245 11.129C15.4157 11.0716 15.3627 11.0011 15.2613 10.9173C15.1599 10.8335 15.1069 10.7673 15.1069 10.7144C15.1069 10.6703 15.151 10.6174 15.2348 10.5556C15.3275 10.5997 15.4024 10.6439 15.4642 10.6968C15.5259 10.7497 15.57 10.8203 15.6053 10.9041H15.6097ZM13.6428 9.32522C13.5987 9.3605 13.5369 9.46193 13.4531 9.63393C13.3693 9.80151 13.2856 9.88972 13.2106 9.88972C13.1841 9.88972 13.1488 9.88089 13.1047 9.85884L12.5226 9.51927C12.4653 9.56337 12.4079 9.64715 12.3462 9.77505C12.2845 9.90294 12.2271 9.99115 12.1698 10.0397C11.9934 9.9691 11.8875 9.925 11.8523 9.91177C11.6053 9.7971 11.495 9.67803 11.5259 9.55013C11.645 9.38255 11.7641 9.21055 11.8875 9.04297C11.9934 9.07825 12.1036 9.13117 12.2139 9.20174C12.3286 9.2723 12.4388 9.34286 12.5535 9.41342L13.0209 8.8842L13.6472 9.32963L13.6428 9.32522ZM19.6979 11.5391C19.6891 11.4906 19.57 10.9085 19.3363 9.79269C19.2569 9.42665 19.1996 9.08707 19.1555 8.77836L19.2701 8.56667C19.2701 8.56667 19.3627 8.6637 19.5039 8.80923C19.5391 8.85333 19.5832 8.88861 19.6318 8.92389C19.4068 8.33293 19.1819 7.73757 18.9658 7.14661C18.8864 7.24363 18.8115 7.34947 18.7321 7.46414C18.6527 7.5788 18.6174 7.68465 18.6174 7.78167C18.6174 7.84341 18.6395 7.90956 18.6792 7.9713C18.6792 8.4917 18.7541 9.09589 18.8997 9.77946C19.0496 10.463 19.1951 11.1378 19.3407 11.7993C19.4862 12.4608 19.5568 13.0694 19.5568 13.6207C19.3804 13.8236 19.1599 14 18.8909 14.1411C18.688 14.2469 18.4322 14.344 18.1279 14.4278C18.0838 14.4366 18.0265 14.4366 17.9471 14.4366C17.7707 14.4366 17.6163 14.4101 17.4796 14.3572C17.3473 14.3043 17.2282 14.2205 17.1312 14.1102C17.3561 14.0264 17.5369 13.8633 17.6692 13.6251C17.753 13.4708 17.8324 13.2458 17.903 12.9592C17.9471 12.8533 17.9647 12.7475 17.9647 12.6416C17.9647 12.4785 17.9206 12.3109 17.828 12.1345C17.7663 12.0198 17.6648 11.8699 17.5325 11.6802C17.4531 11.6009 17.3958 11.5479 17.3517 11.5215C17.2723 11.473 17.2018 11.4465 17.1312 11.4465C17.0739 11.4465 17.0342 11.4553 17.0033 11.4685C16.7652 11.7023 16.5755 11.9713 16.4388 12.28C16.3021 12.5887 16.2315 12.9063 16.2315 13.237C16.2315 13.4222 16.2536 13.6031 16.2933 13.7883C15.7993 13.9867 15.3848 14.1676 15.0452 14.3395C14.5865 14.5733 14.194 14.8114 13.8721 15.0584C13.7795 15.1201 13.4399 15.4421 12.8578 16.0198C12.4564 16.4211 12.0816 16.6505 11.7376 16.7078C11.5127 16.6857 11.3319 16.6019 11.1996 16.452C11.1643 16.355 11.1466 16.2403 11.1466 16.1124C11.1466 15.9272 11.1907 15.7332 11.2745 15.5215C11.2966 15.4641 11.3804 15.2833 11.5303 14.9834C11.8611 14.9834 12.2271 14.8467 12.6329 14.5689C12.8313 14.4278 13.0298 14.2866 13.2238 14.1455C13.2459 14.0617 13.3297 13.8191 13.4796 13.4134C13.5943 13.1091 13.6472 12.8622 13.6472 12.6725C13.6472 12.5887 13.6384 12.4961 13.6163 12.3991C13.5943 12.3021 13.559 12.2139 13.5105 12.1345C13.3605 11.861 13.2106 11.6494 13.0562 11.4994C12.8357 11.2877 12.6064 11.1907 12.3594 11.2128C12.1257 11.2833 11.9361 11.4509 11.7861 11.7199C11.6803 11.9537 11.5744 12.1874 11.4686 12.4167C11.4686 12.4388 11.4686 12.4696 11.4598 12.5138C11.4509 12.5579 11.4509 12.5931 11.4509 12.6196C11.4509 12.9724 11.7288 13.1665 12.28 13.1973C12.8357 13.2282 13.1621 13.3208 13.2679 13.4796C12.8666 13.7486 12.6108 13.9118 12.505 13.9647C12.2007 14.1279 11.9228 14.2072 11.667 14.2072C11.4906 14.2072 11.323 14.172 11.1599 14.1014C10.9702 13.9691 10.8335 13.7883 10.7453 13.5634C10.71 13.4796 10.6615 13.2723 10.5954 12.9371C10.5954 11.914 10.5601 10.9305 10.4939 9.98233C10.4278 9.03855 10.3175 8.13448 10.1588 7.2745H10.0838C9.99118 7.45972 9.93385 7.57439 9.91621 7.6229C9.87211 7.71993 9.83682 7.839 9.80154 7.9713C9.90739 8.39467 9.98677 8.85774 10.0353 9.35609C10.0838 9.85884 10.1323 10.3528 10.1852 10.8379C10.2337 11.0849 10.2602 11.2877 10.2646 11.4421C10.2646 11.5964 10.269 11.7376 10.269 11.8655V12.4388C10.269 13.1444 10.3175 13.6648 10.419 13.9956C10.516 14.3263 10.6659 14.6042 10.8644 14.8203C11.0408 14.8467 11.1643 14.8908 11.2304 14.9437C11.2966 14.9967 11.3319 15.0716 11.3319 15.1731C11.3319 15.2657 11.2613 15.4509 11.1246 15.7332C10.9879 16.0154 10.9173 16.2315 10.9173 16.377C10.9173 16.4608 10.9305 16.5358 10.9614 16.5975C10.9835 16.6813 11.0276 16.7651 11.0981 16.8533C11.1202 16.8754 11.2437 16.9812 11.4686 17.1709C11.5259 17.215 11.6009 17.2326 11.6891 17.2326C11.7729 17.2326 11.8567 17.215 11.9361 17.1841C12.0154 17.1532 12.0816 17.1268 12.1301 17.1047C12.6681 16.6372 13.1268 16.2624 13.5061 15.9713C14.0441 15.5612 14.5204 15.2436 14.9438 15.0187C15.4598 14.7453 15.9846 14.538 16.5226 14.4057C16.6637 14.6042 16.8049 14.7629 16.946 14.882C17.1224 15.0364 17.3076 15.1378 17.4972 15.1775C17.6119 15.1907 17.7001 15.1995 17.7619 15.1995C18.1058 15.1995 18.4234 15.1246 18.7144 14.9702C19.0055 14.8203 19.2878 14.6042 19.5612 14.3307C19.7288 13.85 19.817 13.3384 19.817 12.796C19.817 12.5843 19.8082 12.3947 19.7905 12.2315C19.7729 12.0639 19.742 11.8346 19.7023 11.5391H19.6979ZM16.2271 15.8258C16.2271 15.9228 16.2095 16.0198 16.1742 16.1168C16.1389 16.2139 16.0772 16.2977 15.9934 16.377C15.9361 16.3682 15.892 16.3329 15.8567 16.2712C15.8302 16.1918 15.8082 16.1389 15.7949 16.1124C15.7949 15.9448 15.8346 15.764 15.9096 15.5744C15.9537 15.4685 15.9978 15.3671 16.0463 15.2657C16.0463 15.301 16.0287 15.3892 15.989 15.5347C15.9493 15.6802 15.9316 15.7728 15.9316 15.8169C15.9316 15.9316 15.9669 16.0198 16.0375 16.0904C16.086 16.0771 16.1257 16.033 16.1477 15.9625C16.1742 15.8919 16.2007 15.8478 16.2271 15.8258ZM11.3495 11.1775C11.2922 11.3627 11.2525 11.495 11.2348 11.5788C11.1863 11.742 11.1114 11.8522 11.0143 11.9051C11.1555 11.7023 11.226 11.4553 11.226 11.1642C11.226 11.0496 11.2084 10.9393 11.1731 10.8247C11.1378 10.71 11.1114 10.635 11.0893 10.5909C11.0408 10.4983 11.0143 10.4278 11.0143 10.3792C11.0143 10.3175 11.0496 10.2558 11.1202 10.1984C11.204 10.2822 11.2657 10.3881 11.3054 10.516C11.3451 10.6438 11.3627 10.7894 11.3627 10.9481C11.3627 11.0452 11.3627 11.1201 11.3539 11.1687L11.3495 11.1775ZM7.56119 9.67362C7.54796 9.76623 7.53473 9.85884 7.51709 9.94704C7.49063 10.0441 7.42889 10.1146 7.33627 10.1587C7.28776 10.1676 7.23925 10.1499 7.19956 10.1102C7.15546 10.0705 7.12018 10.022 7.09372 9.95587C7.09372 9.76623 7.14223 9.57219 7.24366 9.37373C7.27894 9.29435 7.38479 9.13117 7.56119 8.87538C7.56119 8.93271 7.48622 9.08266 7.34068 9.32963C7.2613 9.45752 7.22602 9.55454 7.22602 9.6251C7.22602 9.72213 7.28776 9.80592 7.41566 9.86766C7.43771 9.81033 7.45976 9.76623 7.4774 9.73095C7.49945 9.69567 7.52591 9.67362 7.56119 9.66921V9.67362ZM6.54686 7.58762C6.56009 7.65818 6.56891 7.69787 6.56891 7.70228C6.56891 7.78166 6.52481 7.81695 6.44101 7.81695C6.36163 7.80813 6.30871 7.80813 6.27343 7.80813C6.15877 7.80813 6.09261 7.88751 6.07056 8.04187C6.04851 8.19622 6.02646 8.35499 6.00882 8.51816C5.98677 8.68134 5.94708 8.81805 5.88093 8.93272C5.84565 8.88861 5.76185 8.71662 5.62514 8.41232C5.52811 8.19181 5.40463 8.08597 5.25469 8.08597C5.21058 8.08597 5.1753 8.08596 5.14884 8.09478C5.12679 8.0595 5.11797 8.01981 5.11797 7.98012C5.11797 7.94043 5.12679 7.88751 5.14884 7.83018C5.17089 7.77285 5.18412 7.73315 5.19294 7.70228L5.32966 7.58762C5.44432 7.69346 5.54135 7.81695 5.62514 7.95366C5.70893 8.09038 5.7839 8.24473 5.84565 8.41232C5.90739 8.17417 5.96031 7.98894 5.99559 7.86105C6.06615 7.62731 6.172 7.51265 6.31312 7.51265C6.37486 7.51265 6.45425 7.53911 6.54686 7.58762ZM6.10143 10.2954C6.10143 10.2954 6.03087 10.4278 5.96031 10.6306C5.88534 10.8335 5.80154 10.9305 5.70011 10.9305L5.61632 10.9085C5.61632 10.9085 5.50165 10.8379 5.32084 10.7409C5.19294 10.6703 5.13561 10.5909 5.15325 10.5071C5.17971 10.4586 5.23263 10.366 5.30761 10.2249C5.38258 10.0882 5.44873 9.99115 5.50165 9.93381C5.6075 9.99115 5.71334 10.0441 5.81918 10.097C5.92503 10.1499 6.02205 10.2161 6.10584 10.291L6.10143 10.2954ZM9.49724 15.7905C9.51047 15.8699 9.50606 15.9493 9.47519 16.0375C9.44873 16.1257 9.39581 16.2006 9.32525 16.2668C9.26351 16.2756 9.21058 16.2536 9.16648 16.2095C9.12238 16.1654 9.09151 16.108 9.06946 16.0463C9.06946 15.8566 9.09592 15.6891 9.14443 15.5435C9.19294 15.398 9.27674 15.226 9.38699 15.0187C9.31643 15.2392 9.25028 15.4597 9.18412 15.6846C9.18412 15.7773 9.19294 15.839 9.21058 15.8743C9.22822 15.9096 9.26351 15.9537 9.32084 16.0022C9.35612 15.9934 9.3914 15.9625 9.42227 15.9007C9.45314 15.839 9.47519 15.8037 9.49283 15.7905H9.49724ZM3.61411 9.03856C3.5656 9.13558 3.44653 9.36491 3.25248 9.71772C2.97023 10.2337 2.82911 10.6438 2.82911 10.957C2.82911 11.1069 2.84675 11.2392 2.88644 11.3539C2.92613 11.4685 2.99669 11.592 3.10254 11.7199C3.18633 11.7067 3.26571 11.6361 3.33627 11.5126C3.40684 11.3892 3.45976 11.3186 3.49504 11.2966C3.43771 11.5435 3.38037 11.7905 3.32745 12.0375C3.23043 12.3285 3.05843 12.4696 2.82029 12.4696C2.70562 12.3285 2.62183 12.1742 2.5645 12.011C2.50717 11.8434 2.48071 11.6758 2.48071 11.5082C2.48071 11.1995 2.57332 10.8379 2.75413 10.4278C2.8247 10.2646 2.99669 9.93822 3.27453 9.44429C3.34509 9.33844 3.39361 9.25906 3.42448 9.21055C3.48181 9.12676 3.54355 9.06943 3.61411 9.04297V9.03856ZM9.02095 13.5281C9.02095 13.3517 8.95039 13.0915 8.81367 12.7431C8.67696 12.3991 8.6064 12.1345 8.6064 11.9581C8.66373 11.936 8.72988 11.9493 8.80926 12.0022C8.88864 12.0507 8.95039 12.0771 8.9989 12.0771C8.9989 11.8919 8.91951 11.6802 8.75634 11.4333C8.70783 11.3539 8.55347 11.1598 8.30209 10.8423C8.29327 10.8688 8.24035 10.9746 8.13451 11.151C8.06395 11.2701 8.02867 11.3715 8.02867 11.4597C8.02867 11.5215 8.05072 11.5876 8.09041 11.6494C8.28886 12.4476 8.48732 13.2414 8.6946 14.0308C8.39912 14.3131 8.05072 14.5733 7.65821 14.8158C7.43771 14.9481 7.06726 15.1422 6.54686 15.398C6.172 15.5656 5.81477 15.6979 5.47078 15.7861C5.12679 15.8743 4.77398 15.9184 4.40794 15.9184C4.06395 15.9184 3.7376 15.861 3.4333 15.7508C3.129 15.6361 2.86439 15.4597 2.63947 15.2216C2.51158 15.0716 2.42778 14.9261 2.37927 14.7806C2.33517 14.635 2.30871 14.463 2.30871 14.269C2.42337 13.6824 2.53804 13.0959 2.65711 12.5005C2.55127 12.7828 2.44983 13.0606 2.3484 13.3384C2.22051 13.6824 2.12789 13.9647 2.07497 14.1852C2.04851 14.3351 2.02646 14.4542 2.01764 14.5468C2.00882 14.6394 2 14.7276 2 14.8114C2 15.0937 2.05292 15.3583 2.15435 15.6009C2.25579 15.8434 2.42337 16.0507 2.65711 16.2271C2.89085 16.3991 3.13782 16.527 3.40243 16.6064C3.66703 16.6857 3.94928 16.7298 4.25358 16.7298C4.45204 16.7298 4.6505 16.7122 4.85777 16.6769C5.06064 16.6416 5.26351 16.5975 5.46196 16.5402C5.88534 16.4211 6.34399 16.2315 6.83793 15.9669C7.23925 15.7552 7.64939 15.5038 8.06395 15.2172C8.36825 15.054 8.59757 14.8114 8.75193 14.4851C8.86659 14.2513 8.9548 13.9382 9.01654 13.5413L9.02095 13.5281ZM5.49724 13.3781C5.45314 13.387 5.40022 13.3825 5.32966 13.3737C5.2591 13.3649 5.21499 13.3561 5.19294 13.3561C5.12238 13.4487 5.06064 13.6119 5.01213 13.85C4.96362 14.0882 4.90628 14.2469 4.84454 14.3307C4.82249 14.2954 4.76075 14.1499 4.65491 13.8985C4.57552 13.7133 4.49614 13.5722 4.41235 13.4752C4.3903 13.5104 4.37266 13.5413 4.35502 13.5634C4.33738 13.5898 4.31533 13.5986 4.28445 13.5986C4.17861 13.5986 4.12569 13.5413 4.12569 13.4311C4.12569 13.387 4.13451 13.3517 4.15656 13.3164C4.16979 13.2591 4.18743 13.2061 4.20507 13.1532C4.22271 13.1003 4.25799 13.0606 4.3065 13.0297C4.44763 13.1003 4.5667 13.2326 4.66814 13.4222C4.76516 13.656 4.83572 13.8236 4.87982 13.9294C4.9151 13.8677 4.95921 13.7354 5.00772 13.5369C5.0871 13.2282 5.22381 13.0694 5.42227 13.0694C5.51488 13.0694 5.55899 13.1003 5.55899 13.1664C5.53252 13.2635 5.51488 13.334 5.50606 13.3781H5.49724ZM17.1929 7.56557V7.50383C17.1577 7.38475 17.0959 7.32301 17.0121 7.32301C16.9768 7.32301 16.9504 7.34947 16.9283 7.4068C16.9857 7.45531 17.0342 7.49501 17.0783 7.53029C17.1224 7.56116 17.1577 7.57439 17.1929 7.56557ZM17.5413 13.1841C17.4223 13.2635 17.2944 13.3429 17.1665 13.4267C17.0342 13.5104 16.9107 13.5678 16.7916 13.5942C16.6417 13.3208 16.5711 13.0297 16.5711 12.7254C16.5711 12.6064 16.5888 12.4741 16.624 12.3329C16.6858 12.2491 16.7696 12.205 16.8666 12.205C16.9372 12.205 16.9945 12.2227 17.0342 12.258C17.1885 12.3903 17.312 12.5358 17.4046 12.6902C17.4972 12.8445 17.5413 13.0077 17.5413 13.1753V13.1841ZM12.8225 12.3991C12.7387 12.4079 12.6593 12.4123 12.5888 12.4167C12.5182 12.4167 12.4564 12.4211 12.4079 12.4211C12.3109 12.4211 12.2271 12.4123 12.161 12.3947C12.0948 12.377 12.0331 12.3462 11.9757 12.3065C11.9316 12.2447 11.9008 12.1918 11.8787 12.1565C11.8567 12.1212 11.8611 12.0816 11.8875 12.0419C11.9449 11.9801 12.0287 11.9448 12.1433 11.9448C12.2271 11.9448 12.3065 11.9625 12.3771 11.9978C12.4829 12.0683 12.5711 12.1345 12.6417 12.1918C12.7122 12.2536 12.774 12.3197 12.8225 12.3991Z" fill="white"/>
</svg>
