<svg width="24" height="24" viewBox="0 0 24 24" fill="none" xmlns="http://www.w3.org/2000/svg">
<path fill-rule="evenodd" clip-rule="evenodd" d="M15.69 6.90422C15.648 6.99864 15.6113 7.08256 15.5746 7.16649C15.5222 7.15075 15.4854 7.13503 15.4592 7.12978C15.3438 7.07208 15.2809 7.04061 15.2704 7.04061C15.1445 7.51267 15.0239 7.9795 14.9032 8.45157C14.8455 8.39387 14.7564 8.23127 14.6462 7.97425C14.5308 7.71199 14.4102 7.58611 14.2738 7.58611C14.0535 7.55464 13.9486 7.44449 13.9486 7.26091C13.9486 7.21895 13.9591 7.17174 13.9853 7.12453C13.9958 7.07208 14.0168 7.03012 14.0483 6.99865C14.1217 6.92522 14.2004 6.91472 14.2738 6.97241C14.3997 7.04585 14.5046 7.15599 14.5885 7.29762C14.6987 7.53365 14.8088 7.76444 14.9137 7.98999C14.9452 7.67003 14.9872 7.41826 15.0344 7.23468C15.0816 7.05109 15.1655 6.86751 15.2914 6.69442C15.3438 6.70491 15.3963 6.71016 15.454 6.72065C15.5641 6.75213 15.6376 6.81506 15.6795 6.90947L15.69 6.90422ZM15.9418 10.151C15.9418 10.2454 15.9208 10.3503 15.8788 10.4657C15.8369 10.5811 15.7844 10.686 15.7162 10.7804C15.6218 10.8119 15.5431 10.8014 15.4697 10.7385C15.3963 10.6755 15.3491 10.6336 15.3228 10.6073C15.3124 10.5654 15.3124 10.5024 15.3124 10.4185C15.3124 10.2769 15.3333 10.1405 15.3701 10.0094C15.4068 9.87827 15.4697 9.74713 15.5536 9.61076C15.5536 9.65272 15.5379 9.74713 15.5012 9.88875C15.4697 10.0304 15.4487 10.1248 15.4487 10.1667C15.4487 10.3084 15.5117 10.4133 15.6376 10.4815C15.7215 10.4972 15.7739 10.4552 15.7949 10.3503C15.8159 10.2454 15.8474 10.1825 15.8893 10.1563H15.9418V10.151ZM11.4729 7.60708C11.4729 7.79066 11.4204 7.95327 11.3155 8.08965C11.2106 8.22602 11.0637 8.34666 10.8801 8.44632C10.812 8.46205 10.7595 8.47255 10.7175 8.47255C10.5392 8.47255 10.4343 8.39912 10.4028 8.2575C10.4028 8.05818 10.4395 7.85886 10.5182 7.66479C10.5707 7.5389 10.6546 7.3658 10.7805 7.15075C10.7805 7.20845 10.7543 7.31859 10.7071 7.47595C10.6546 7.63331 10.6336 7.75395 10.6336 7.82739C10.6336 7.86935 10.6389 7.92181 10.6546 7.9795C10.6651 8.0372 10.7123 8.0949 10.7857 8.1421C10.8697 8.1421 10.9536 8.12111 11.0323 8.0844C11.1109 8.04768 11.1949 7.99 11.2788 7.91656C11.2788 7.83264 11.2001 7.74346 11.048 7.6438C10.8906 7.54939 10.8172 7.47596 10.8172 7.42351C10.8172 7.36581 10.8749 7.29238 10.9955 7.20846C11.1057 7.25042 11.2054 7.30287 11.305 7.37106C11.3994 7.43924 11.4624 7.51267 11.4886 7.5966L11.4729 7.60708ZM19.304 15.412C19.304 15.4644 19.2725 15.5169 19.2095 15.5746C19.1466 15.6323 19.0994 15.6795 19.0627 15.7109L15.7897 16.9069C15.7634 16.8072 15.8211 16.718 15.968 16.6341C16.1096 16.5554 16.1883 16.5082 16.2093 16.4872C17.1901 16.1778 18.2234 15.8159 19.304 15.4067V15.412ZM9.04432 7.97425C9.04432 8.17357 8.99187 8.34667 8.89221 8.48829C8.83976 8.51452 8.7978 8.52499 8.76633 8.52499C8.6824 8.52499 8.61421 8.48303 8.55652 8.39386C8.50407 8.30469 8.45686 8.20504 8.42539 8.10013C8.42539 7.8641 8.45161 7.65954 8.50931 7.4812C8.56176 7.30286 8.65618 7.156 8.78206 7.04061C8.72961 7.12453 8.68765 7.22944 8.65093 7.35532C8.61422 7.48121 8.59323 7.59659 8.59323 7.70674C8.59323 7.87459 8.6352 8.01097 8.71912 8.12112C8.76108 8.16308 8.80304 8.18406 8.84501 8.18406C8.88697 8.18406 8.91844 8.1526 8.93942 8.0949C8.9604 8.0372 8.97613 7.99523 8.98138 7.969H9.04432V7.97425ZM22 12.8103C21.7797 12.7946 21.5804 12.7789 21.3916 12.7579C21.2027 12.7421 21.0664 12.7107 20.9824 12.6687C20.9824 12.0655 20.9352 11.3732 20.8356 10.5969C20.7411 9.82057 20.6467 9.0705 20.5523 8.35191L20.6782 8.04769C20.7307 8.07392 20.8198 8.15783 20.9562 8.29945C21.0559 8.4096 21.1555 8.47255 21.2447 8.48829L20.3373 6.31153C20.3058 6.36398 20.2376 6.4479 20.1379 6.57379C20.0016 6.76786 19.9386 6.93045 19.9386 7.06682C19.9386 7.13501 19.9491 7.19272 19.9753 7.24518C19.9753 7.71725 20.1012 8.85021 20.353 10.6546C20.4632 11.4361 20.5156 12.1075 20.5156 12.6687C20.1117 12.611 19.6869 12.5428 19.2305 12.4694C18.7742 12.396 18.4123 12.3068 18.1343 12.2071C18.2025 12.055 18.2444 11.9239 18.2602 11.8085C18.2759 11.6931 18.2864 11.5567 18.2864 11.3889C18.2864 11.221 18.2707 11.048 18.2339 10.8644C18.2025 10.686 18.1605 10.5077 18.1185 10.3293C18.0189 10.0199 17.9192 9.68944 17.8143 9.3485C17.7147 9.00231 17.6622 8.70859 17.6622 8.45682C17.6622 8.44108 17.6517 8.37814 17.6307 8.27323C17.6098 8.16833 17.5993 8.08441 17.5993 8.02671C17.5993 7.91656 17.636 7.84313 17.7147 7.80117C17.7724 7.83264 17.8301 7.89558 17.893 7.9795C17.9927 8.13686 18.0818 8.22603 18.1553 8.24176C18.1133 8.02146 18.0294 7.75395 17.9035 7.434C17.5835 6.62623 17.4157 6.19613 17.3999 6.13843C17.2846 6.23284 17.1849 6.35872 17.1115 6.52657C17.038 6.69442 16.9646 6.85702 16.8964 7.01962C16.9698 7.3658 17.1272 8.17357 17.3632 9.44816C17.5468 10.4657 17.7199 11.263 17.8773 11.8505C17.615 11.8924 17.4052 11.9186 17.2373 11.9344C17.0695 11.9449 16.7863 11.9554 16.3929 11.9554H15.9418C15.8316 12.1075 15.753 12.2491 15.6953 12.3907C15.6428 12.5271 15.6113 12.6792 15.6113 12.8366C16.0729 12.8366 16.5607 12.8785 17.0695 12.9625C17.3947 13.0149 17.8563 13.1093 18.4542 13.2509C17.1797 13.7964 16.4978 14.0849 16.4138 14.1216C15.9837 14.2895 15.5746 14.4259 15.1865 14.536C14.7983 14.6462 14.4416 14.7248 14.1164 14.7773C13.7912 14.8297 13.4503 14.8507 13.0884 14.8507C12.5744 14.8507 12.0708 14.7825 11.5673 14.6514C11.3575 14.5675 11.1844 14.4364 11.0427 14.2633C10.9064 14.0849 10.812 13.8909 10.77 13.6706C11.7246 13.3611 12.6897 13.0464 13.6549 12.7264C13.8122 12.653 13.9381 12.5271 14.0325 12.3593C14.1269 12.1914 14.1899 12.0026 14.2213 11.7928C14.1899 11.8085 14.1532 11.798 14.1217 11.7613C14.0902 11.7246 14.064 11.6984 14.0483 11.6931C13.0307 11.4256 12.2701 11.242 11.7561 11.1529C10.9064 10.9955 10.1091 10.9116 9.36428 10.9116C9.08628 10.9116 8.80829 10.9221 8.53554 10.9483C8.26803 11.0165 8.032 11.1581 7.83268 11.3679C7.63336 11.583 7.49698 11.8295 7.4288 12.1022C7.41831 12.1337 7.41831 12.1809 7.41831 12.2386C7.41831 12.4484 7.50747 12.6792 7.69106 12.9257C7.86939 13.1723 8.17362 13.4345 8.59323 13.7125C8.5198 13.744 8.39392 13.8069 8.22607 13.8909C8.08969 13.9486 7.96905 13.9958 7.8589 14.0272C7.50747 14.1426 7.18752 14.2895 6.90428 14.4678C6.54236 14.6934 6.07553 15.071 5.49331 15.6008C4.97928 16.0624 4.60687 16.3823 4.37084 16.5554C3.94073 16.8754 3.53685 17.1062 3.1487 17.2478C2.99135 17.2321 2.84448 17.1953 2.7081 17.1429C2.57173 17.0904 2.46682 17.0118 2.3829 16.9121C2.28324 16.6918 2.23079 16.482 2.23079 16.2722C2.23079 16.1306 2.24128 16.0047 2.26751 15.8945C2.29373 15.7844 2.31471 15.7005 2.33569 15.6375C2.35667 15.5746 2.45109 15.3018 2.61894 14.814C2.68712 14.6304 2.73433 14.4888 2.75531 14.3839C2.43535 15.0448 2.26751 15.4015 2.25177 15.4434C2.08392 15.863 2 16.2407 2 16.5764C2 16.8806 2.07343 17.1691 2.21505 17.4471C2.36716 17.5887 2.50879 17.6936 2.64516 17.7618C2.78154 17.83 2.9284 17.8615 3.08576 17.8615C3.18542 17.8615 3.29032 17.8405 3.40047 17.7985C3.74666 17.6569 4.12431 17.4209 4.53344 17.0957C4.87962 16.802 5.22581 16.5082 5.57724 16.2145C6.02308 15.8368 6.385 15.5536 6.65775 15.37C7.06163 15.092 7.44978 14.8979 7.82743 14.7773C8.0792 14.6619 8.33622 14.536 8.59323 14.4101C8.77157 14.3367 8.91844 14.2947 9.03383 14.2947C9.14923 14.2947 9.25413 14.3262 9.33805 14.3839V14.2475C9.33805 14.1793 9.34855 14.1321 9.36428 14.1112C9.74194 13.9695 9.99895 13.8804 10.1301 13.8384C10.2665 13.8017 10.4133 13.7702 10.5812 13.744V14.1321C10.5812 14.2685 10.5917 14.4049 10.6074 14.5465C10.6231 14.6881 10.6598 14.8088 10.7071 14.9137C10.8434 15.1917 11.048 15.3962 11.326 15.5326C11.5463 15.6323 11.7981 15.7005 12.0813 15.7319C12.3645 15.7634 12.6163 15.7844 12.8261 15.7844C13.3611 15.7844 13.8961 15.7109 14.4259 15.5693C14.7616 15.4854 15.1078 15.3753 15.4592 15.2441C15.711 15.1497 16.0467 15.0133 16.4663 14.8298C16.7181 14.7301 16.9698 14.6252 17.2216 14.515C17.6727 14.3315 18.0923 14.1793 18.4805 14.0535C18.8686 13.9328 19.2253 13.8437 19.5505 13.7807C19.8757 13.723 20.2429 13.6915 20.6467 13.6915C20.673 13.8699 20.6835 14.0377 20.6835 14.2056C20.6835 14.4888 20.6625 14.7773 20.6153 15.0658C20.5681 15.3543 20.5104 15.6113 20.4317 15.8421C20.5733 15.606 20.6782 15.3805 20.7464 15.1602C20.8146 14.9399 20.9038 14.5098 21.0087 13.8646C20.9982 13.8384 20.9982 13.8122 20.9982 13.7755C20.9982 13.6653 21.0611 13.6129 21.187 13.6129C21.2185 13.6129 21.2919 13.6233 21.4073 13.6391C21.5227 13.6548 21.5961 13.6548 21.6276 13.6391C21.6853 13.5552 21.743 13.4135 21.7954 13.209C21.8479 13.0097 21.9161 12.8733 21.9895 12.8051L22 12.8103ZM6.10176 7.11928L6.02832 7.434C5.97063 7.40777 5.91293 7.38679 5.86572 7.37106C5.81327 7.35532 5.77131 7.34482 5.72935 7.34482C5.68739 7.34482 5.65591 7.35532 5.64018 7.37106C5.59822 7.49694 5.55626 7.73822 5.50905 8.08965C5.46184 8.44108 5.39365 8.69809 5.29924 8.85544C5.14188 8.58794 4.97928 8.31519 4.82192 8.03719C4.6803 7.87984 4.49672 7.79592 4.28167 7.79592C4.27118 7.76969 4.27118 7.72773 4.27118 7.67004C4.27118 7.60185 4.28691 7.52317 4.32363 7.43925C4.3551 7.35008 4.38133 7.28714 4.39706 7.24518C4.42853 7.2137 4.47574 7.2032 4.52819 7.21894C4.58065 7.23468 4.6331 7.26091 4.67506 7.29238C4.81143 7.41827 4.93732 7.5966 5.05271 7.83264C5.23105 8.16833 5.33071 8.35715 5.35694 8.39911C5.35694 8.07916 5.38841 7.80641 5.44611 7.58086C5.5038 7.35532 5.61395 7.156 5.77131 6.98815C5.8395 6.96192 5.90244 6.96718 5.96014 6.99865C6.02832 7.05635 6.07553 7.09307 6.11225 7.11405L6.10176 7.11928ZM12.396 16.802C12.2019 16.9855 11.9921 17.1324 11.7666 17.2373C11.541 17.3422 11.2945 17.3947 11.0375 17.3947C10.8592 17.3947 10.6966 17.3632 10.5445 17.3055C10.471 17.253 10.4291 17.1744 10.4291 17.0642C10.4291 17.0327 10.4396 16.996 10.4553 16.9646C10.5235 16.8544 10.6126 16.7547 10.7175 16.6603C10.749 16.6289 10.8592 16.5449 11.0427 16.4191C10.9483 16.3456 10.8382 16.3037 10.7018 16.3037H10.6284C10.5969 16.3194 10.5759 16.3299 10.5654 16.3299C10.5497 16.2879 10.5654 16.2407 10.6231 16.1935C10.6756 16.1411 10.728 16.0991 10.7805 16.0571C10.9641 16.0047 11.1529 16.0571 11.347 16.2092C11.347 16.3351 11.2368 16.4662 11.0113 16.6079C10.791 16.7442 10.6756 16.8387 10.6756 16.8911C10.6756 16.9593 10.7543 17.0275 10.9169 17.0904C11.0532 17.1062 11.1424 17.1167 11.1949 17.1167C11.3889 17.1167 11.5883 17.0852 11.7981 17.017C12.0656 16.9173 12.2649 16.8439 12.3908 16.802H12.396ZM5.93916 9.43767C5.93916 9.57405 5.90244 9.67895 5.82376 9.75239H5.58248C5.30448 9.75239 5.08943 9.77336 4.93207 9.82056C4.77472 9.86777 4.65408 9.97793 4.55966 10.1563C4.59114 10.3923 4.66457 10.6913 4.77472 11.0637C4.92683 11.5935 5.016 11.9029 5.03698 11.9973C5.10517 12.2911 5.13664 12.5691 5.13664 12.8261C5.13664 13.2037 5.05796 13.5499 4.89536 13.8699C4.98977 13.6338 5.03173 13.3821 5.03173 13.1146C5.03173 12.8943 5.00551 12.6792 4.94781 12.4589C4.89536 12.2386 4.81668 11.9868 4.71702 11.7036C4.61736 11.4204 4.53868 11.1738 4.49148 10.9745C4.43902 10.7752 4.41804 10.5811 4.41804 10.3975C4.41804 10.1772 4.4705 9.96743 4.58065 9.75762C4.69079 9.65796 4.81668 9.57405 4.96355 9.50586C5.11041 9.43767 5.26252 9.4062 5.42512 9.4062C5.35169 9.29605 5.22581 9.24884 5.05796 9.26982C5.00551 9.25933 4.95306 9.28031 4.89536 9.32228C4.83766 9.36424 4.7957 9.38522 4.76947 9.38522C4.7957 9.17541 4.89536 9.0233 5.0737 8.93414C5.25203 8.90791 5.41463 8.94987 5.56675 9.06002C5.66116 9.1282 5.7818 9.25933 5.93391 9.44816L5.93916 9.43767ZM6.51613 13.1251C6.54236 13.2352 6.53186 13.3454 6.4899 13.4503C6.44794 13.5604 6.37975 13.6653 6.29059 13.765C6.2224 13.7912 6.16995 13.7807 6.12798 13.7387C6.08602 13.6968 6.04406 13.6076 6.0021 13.4765C5.98636 13.3349 5.99161 13.2142 6.01259 13.1093C6.03882 13.0097 6.11749 12.7579 6.25387 12.354C6.25387 12.4222 6.23813 12.5323 6.20142 12.6949C6.16995 12.8523 6.14896 12.9782 6.14896 13.0726C6.14896 13.23 6.19617 13.3611 6.28534 13.4607C6.33779 13.445 6.37975 13.3768 6.42172 13.2614C6.43745 13.209 6.46892 13.167 6.51088 13.1251H6.51613ZM10.0304 16.4243L9.55311 17.1272C9.52164 17.1009 9.39051 17.0432 9.16496 16.9488C8.845 16.8124 8.68765 16.6708 8.68765 16.5187C8.69814 16.5082 8.77682 16.3928 8.92893 16.1673C9.02859 16.0152 9.12825 15.9417 9.21741 15.9417C9.22791 15.9417 9.25413 15.9522 9.30658 15.968C9.35904 15.9994 9.47443 16.0624 9.65277 16.1568C9.8311 16.2512 9.96223 16.3351 10.0357 16.4191L10.0304 16.4243ZM12.7002 12.2701C12.459 12.354 11.8925 12.5323 11.0113 12.8103C10.3137 13.0306 9.75243 13.2195 9.32232 13.3768C9.24889 13.125 9.01285 12.8838 8.61946 12.653C8.22607 12.4222 7.97954 12.1967 7.89038 11.9816C8.11592 11.9082 8.34671 11.8505 8.58274 11.819C8.81878 11.7875 9.04957 11.7665 9.27511 11.7665C10.4186 11.9344 11.5568 12.1022 12.7002 12.2701Z" fill="white"/>
</svg>
