<svg width="24" height="24" viewBox="0 0 24 24" fill="none" xmlns="http://www.w3.org/2000/svg">
<path fill-rule="evenodd" clip-rule="evenodd" d="M22 9.61987C22 9.61987 21.9507 9.53478 21.8746 9.387C21.7985 9.23921 21.7223 9.13621 21.6417 9.08247C21.5835 9.24817 21.5566 9.43178 21.5566 9.64226C21.5566 9.81243 21.5656 9.98709 21.588 10.1573C21.6507 10.6812 21.6865 10.9723 21.6865 11.0261C21.7358 11.456 21.7761 11.8008 21.803 12.0561C21.9015 12.8577 21.9552 13.4578 21.9552 13.8518C21.9552 14.2459 21.9194 14.6087 21.8433 14.9445C21.7671 15.2759 21.6417 15.5894 21.4626 15.876C21.5343 15.3834 21.5701 14.8684 21.5701 14.34C21.5701 13.7309 21.5253 13.0681 21.4402 12.3516C21.3551 11.6351 21.2656 10.9007 21.176 10.1528C21.0864 9.40491 21.0416 8.75108 21.0416 8.1913C21.0058 8.13308 20.9879 8.07486 20.9879 8.00769C20.9879 7.9226 21.0282 7.81064 21.1043 7.6763C21.2253 7.47029 21.2924 7.35834 21.2969 7.3449C21.4313 7.7166 21.5746 8.0883 21.7179 8.45104C21.8701 8.88991 21.9597 9.27952 21.9955 9.62435L22 9.61987ZM17.7322 8.35252C17.7322 8.58091 17.6516 8.75108 17.4859 8.85856C17.4232 8.88095 17.365 8.85856 17.3202 8.78691C17.2754 8.71974 17.2441 8.67048 17.2306 8.64361C17.2172 8.57195 17.2082 8.51374 17.2082 8.47343C17.2082 8.357 17.2306 8.24952 17.2709 8.14204C17.3157 8.03456 17.3695 7.91364 17.4411 7.77482C17.4411 7.82408 17.4232 7.91364 17.3918 8.04351C17.3605 8.17338 17.3426 8.25847 17.3426 8.30326C17.3426 8.43313 17.3874 8.53165 17.4814 8.6033C17.5441 8.61226 17.5889 8.57195 17.6158 8.48687C17.6426 8.40178 17.6785 8.357 17.7277 8.357L17.7322 8.35252ZM17.1321 9.78109C17.047 9.93335 16.9798 10.0408 16.9395 10.1125C16.8545 10.2558 16.7604 10.3454 16.6619 10.3812C16.6395 10.3095 16.5096 10.2289 16.2633 10.1349C16.1469 10.0901 16.0931 10.0408 16.0931 9.98261C16.0931 9.92439 16.1335 9.85722 16.2096 9.77661L16.5096 9.43178C16.6082 9.42283 16.7156 9.45417 16.8321 9.52135C16.9485 9.58852 17.047 9.67361 17.1321 9.77213V9.78109ZM15.3139 7.87782C15.3139 7.99873 15.2915 8.0883 15.2512 8.14652C15.1885 8.11069 15.1348 8.08382 15.0945 8.06591C15.0542 8.04799 15.0184 8.04799 14.9825 8.06143C14.9019 8.1913 14.8303 8.48687 14.7586 8.95261C14.7228 9.16757 14.6735 9.34222 14.6064 9.48105C14.5437 9.39596 14.4765 9.27504 14.4138 9.11382C14.2794 8.77795 14.172 8.56747 14.1003 8.47791L14.0242 8.63913C13.9615 8.61673 13.8988 8.58091 13.8361 8.53165C13.7734 8.48239 13.7152 8.41969 13.657 8.34804C13.6704 8.2316 13.6928 8.14652 13.7152 8.08382C13.7421 8.02112 13.7913 7.96738 13.8719 7.91812C14.0287 7.96291 14.2123 8.19578 14.4183 8.62569C14.5034 8.80482 14.5884 8.87648 14.678 8.84065C14.7138 8.51821 14.7407 8.32565 14.7541 8.25847C14.8034 8.03456 14.893 7.87334 15.0228 7.76586C15.0855 7.75243 15.1393 7.7569 15.1841 7.77482C15.2288 7.81064 15.2691 7.84199 15.3139 7.87334V7.87782ZM14.9154 11.7694C14.9154 11.8635 14.8974 11.9575 14.8661 12.0471C14.8348 12.1411 14.7765 12.2038 14.687 12.2397C14.6243 12.2621 14.5705 12.2441 14.5302 12.1904C14.4899 12.1367 14.4541 12.0695 14.4183 11.9934C14.4093 11.9575 14.4093 11.9038 14.4093 11.8321C14.4093 11.7112 14.4317 11.5948 14.472 11.4828C14.5168 11.3709 14.5705 11.2544 14.6422 11.1335C14.6064 11.3127 14.575 11.4873 14.5437 11.662C14.5437 11.7918 14.5884 11.8904 14.6825 11.962C14.7407 11.9754 14.79 11.9486 14.8258 11.8814C14.8661 11.8142 14.893 11.7739 14.9064 11.7694H14.9154ZM11.8746 8.48239C11.7761 8.71078 11.6283 8.93021 11.4402 9.13174C11.2521 9.33774 11.0372 9.49896 10.7998 9.61987C10.5132 9.69152 10.2311 9.7587 9.94895 9.82587C10.3162 9.63331 10.5893 9.48552 10.773 9.39148C10.9566 9.29296 11.1088 9.18548 11.2297 9.06456C11.1491 9.05113 11.0596 9.03769 10.9521 9.01978C10.8446 9.00634 10.7461 8.99739 10.652 8.99739C10.4863 8.99739 10.3565 9.0153 10.2535 9.04665C10.1549 9.078 10.0654 9.14517 9.98477 9.24369C10.0072 9.06456 10.0833 8.88991 10.2221 8.71526C10.3565 8.54508 10.5177 8.43761 10.6968 8.39282C10.755 8.37939 10.8133 8.37043 10.876 8.37043H11.0193C11.1536 8.37043 11.279 8.37939 11.391 8.39282C11.5029 8.40626 11.6641 8.4376 11.8791 8.47791L11.8746 8.48239ZM9.24138 8.59882C9.24138 8.80482 9.16077 8.95261 8.99507 9.03769C8.85177 9.01082 8.77116 8.94365 8.74877 8.84513C8.74877 8.65256 8.77116 8.47791 8.82042 8.33012C8.8652 8.17786 8.94133 8.01664 9.03986 7.83751C9.06225 7.90917 9.03986 8.02112 8.98164 8.17786C8.91894 8.33013 8.89207 8.44208 8.89207 8.50478C8.89207 8.62121 8.95925 8.70182 9.09807 8.75108C9.12047 8.74213 9.14286 8.71526 9.16077 8.66599C9.18316 8.61673 9.21003 8.59434 9.24586 8.6033L9.24138 8.59882ZM12.1657 11.8008C12.1433 11.9172 12.1209 12.0157 12.103 12.0964C12.0806 12.177 12.0403 12.2486 11.9731 12.3068C11.8791 12.3203 11.803 12.2979 11.7492 12.2441C11.691 12.1859 11.6641 12.1098 11.6641 12.0202C11.6641 11.6844 11.7358 11.4022 11.8791 11.1828C11.8791 11.241 11.8612 11.3306 11.8253 11.4515C11.7895 11.5724 11.7716 11.6709 11.7716 11.7426C11.7716 11.8366 11.794 11.9127 11.8343 11.9665L11.9866 12.065L12.1254 11.8053H12.1702L12.1657 11.8008ZM19.4653 9.13622C19.4205 8.86304 19.313 8.52717 19.1429 8.12412C18.901 7.55986 18.7667 7.23742 18.7443 7.16577C18.6144 7.25982 18.5293 7.35386 18.4801 7.45686C18.4353 7.55538 18.4084 7.67182 18.4084 7.80169C18.4084 7.9226 18.4353 8.11069 18.4935 8.36147C18.5517 8.61226 18.5786 8.80035 18.5786 8.92126L19.2996 13.2204L19.3444 14.0265C18.9951 14.2997 18.5741 14.434 18.086 14.434C17.8576 14.434 17.6247 14.3937 17.3874 14.3176C17.4859 14.031 17.5531 13.8339 17.5799 13.7265C17.6382 13.5025 17.665 13.2965 17.665 13.104C17.665 12.8442 17.6113 12.6248 17.5038 12.4367C17.459 12.3203 17.4008 12.2352 17.3247 12.177C17.2485 12.1188 17.1545 12.1053 17.0381 12.1322C16.7022 12.3337 16.438 12.6024 16.2409 12.9383C16.0484 13.2741 15.9498 13.6279 15.9498 13.9907C15.9498 14.0847 15.9498 14.1564 15.9588 14.2056C15.193 14.5281 14.3511 14.6893 13.4331 14.6893C13.1599 14.6893 12.8867 14.6758 12.6046 14.6445C12.3269 14.6176 12.0627 14.5728 11.8209 14.5146C11.3462 14.3624 10.9879 14.2101 10.7371 14.0534C10.352 13.8026 10.1549 13.5025 10.1549 13.1488C10.0027 13.2204 9.77429 13.4667 9.46529 13.8922C9.22347 14.228 8.95029 14.3982 8.65025 14.3982C8.48455 14.3848 8.34572 14.3176 8.22481 14.2056C8.10837 14.0892 7.99194 13.8832 7.88446 13.5831C7.82176 13.0547 7.7725 12.4278 7.74563 11.7023C7.71876 10.9768 7.69189 10.2603 7.66502 9.54374C7.63815 8.82722 7.59337 8.1913 7.53068 7.63151C7.37841 7.76138 7.27989 7.90469 7.22615 8.06143C7.17241 8.21817 7.14554 8.40626 7.14554 8.62121C7.14554 8.76452 7.19033 9.11382 7.27541 9.67361C7.31124 9.91096 7.32915 10.1125 7.32915 10.2737C7.32915 10.4797 7.3605 11.0171 7.42768 11.8859C7.45455 12.271 7.47246 12.5934 7.47246 12.8442C7.47246 13.1084 7.45455 13.3816 7.41424 13.6548C7.37394 13.9325 7.3202 14.1743 7.24854 14.3803C6.49619 14.9625 5.86028 15.361 5.33632 15.5849C4.87953 15.7775 4.44962 15.876 4.05553 15.876C3.8137 15.876 3.58083 15.8402 3.35692 15.773C3.133 15.7059 2.91805 15.5984 2.70309 15.4551C2.47918 15.2759 2.3717 15.0207 2.3717 14.6938C2.3717 14.5639 2.38513 14.4519 2.41648 14.3624C2.50157 13.9817 2.57322 13.722 2.63144 13.5787C2.74787 13.301 2.90461 13.1308 3.10614 13.0726C3.27183 12.9651 3.4017 12.7994 3.49127 12.58C3.52709 12.4949 3.58979 12.2889 3.67488 11.9665C3.63009 11.9799 3.58083 12.0292 3.52262 12.1098C3.4644 12.1904 3.41962 12.2486 3.38827 12.28C3.35692 12.3113 3.30766 12.3292 3.24496 12.3292C3.12853 12.3292 3.04344 12.28 2.98522 12.177C2.9494 12.0337 2.93148 11.8635 2.93148 11.6709C2.93148 11.3574 2.99866 11.026 3.13748 10.6812C3.25392 10.3857 3.41514 10.0946 3.62114 9.799C3.30766 10.1931 3.06135 10.5603 2.89118 10.9051C2.66726 11.3485 2.55979 11.7739 2.55979 12.1725C2.55979 12.4591 2.618 12.7323 2.72996 12.9875C2.515 13.3682 2.36274 13.6682 2.2687 13.8922C2.13435 14.2056 2.04478 14.5236 2 14.8371C2.02239 15.0431 2.04478 15.2535 2.07613 15.4595C2.13883 15.8671 2.309 16.1492 2.58218 16.3104C2.7837 16.4403 2.97627 16.5299 3.16883 16.5791C3.35692 16.6284 3.56292 16.6552 3.77788 16.6552C4.21675 16.6552 4.7004 16.5299 5.2378 16.2791C5.59606 16.1134 6.03493 15.8626 6.55889 15.5267C6.76489 15.3924 6.97089 15.1998 7.17241 14.958C7.33811 14.743 7.50381 14.5281 7.66502 14.3131C7.76355 14.6803 7.96059 14.949 8.25616 15.1192C8.37707 15.164 8.48007 15.1819 8.56964 15.1819C8.8652 15.1819 9.16525 14.9625 9.47425 14.5281C9.70264 14.2056 9.84147 14.0175 9.89521 13.9593L9.9579 14.2056C10.3296 14.6579 10.7953 14.9848 11.3551 15.1819C11.8298 15.3521 12.3896 15.4416 13.0434 15.4416C13.4957 15.4416 13.957 15.3969 14.4317 15.3118C14.9064 15.2267 15.3677 15.1147 15.82 14.9804C15.9498 14.8729 16.0931 14.8192 16.2499 14.8192C16.5455 14.9042 16.8365 14.9893 17.1321 15.0789C17.3829 15.164 17.6471 15.2088 17.9292 15.2088C18.2114 15.2088 18.4756 15.164 18.7264 15.0744C18.9772 14.9849 19.1966 14.855 19.3802 14.6803C19.5683 14.2056 19.6579 13.6861 19.6579 13.1219C19.6579 12.6293 19.5593 11.8769 19.3578 10.8738C19.1563 9.87065 19.0578 9.12726 19.0578 8.63913L19.4787 9.13174L19.4653 9.13622ZM9.89073 11.0619C9.90416 11.1335 9.91312 11.1738 9.91312 11.1783C9.91312 11.25 9.84147 11.2903 9.69816 11.2947C9.55486 11.3037 9.49216 11.3754 9.51455 11.5187C9.48768 11.7202 9.46081 11.8859 9.43842 12.0247C9.41603 12.1591 9.37573 12.2755 9.30855 12.3695C9.22794 12.3203 9.14286 12.1635 9.04433 11.8948C8.94581 11.6306 8.80699 11.5142 8.6189 11.55C8.56964 11.5052 8.54277 11.4649 8.54277 11.4201C8.54277 11.3933 8.56068 11.344 8.59203 11.2813C8.62338 11.2186 8.64129 11.1649 8.64129 11.129C8.67712 11.0574 8.73981 11.0305 8.8249 11.0529C8.90551 11.1246 8.97268 11.2321 9.0309 11.3754C9.17421 11.7247 9.25929 11.9217 9.29064 11.9575C9.31303 11.9307 9.36229 11.7426 9.4429 11.3977C9.50112 11.147 9.59964 11.0216 9.74295 11.0216C9.78773 11.0216 9.83699 11.0305 9.89521 11.0529L9.89073 11.0619ZM6.15137 11.7694C6.17376 11.8411 6.1648 11.9307 6.12897 12.0381C6.09315 12.1456 6.04837 12.2262 5.99015 12.2844C5.93193 12.3113 5.87371 12.3113 5.80654 12.2755C5.74384 12.2397 5.70354 12.1949 5.6901 12.1411C5.67667 12.0874 5.66771 12.0337 5.66771 11.9754V11.8456C5.66771 11.6933 5.68562 11.5545 5.71697 11.4201C5.74832 11.2858 5.80206 11.1425 5.87371 10.9857C5.87371 11.0484 5.86028 11.1559 5.82893 11.3082C5.80206 11.4604 5.78415 11.5724 5.78415 11.653C5.78415 11.7739 5.80206 11.859 5.84236 11.9127C5.88267 11.962 5.93193 11.9978 5.9991 12.0202L6.15137 11.7739V11.7694ZM5.42141 7.77034L5.37662 7.99425C5.37662 7.99425 5.33184 7.98082 5.26467 7.95843C5.19749 7.93156 5.13927 7.9226 5.09897 7.9226C5.0721 7.9226 5.03627 7.93156 5.00045 7.95395C4.93775 8.35699 4.87506 8.75556 4.81684 9.15861C4.90193 9.181 4.97806 9.2213 5.04971 9.27504C5.11688 9.33326 5.19301 9.40939 5.26914 9.51239C5.26914 9.68257 5.11688 9.78109 4.80788 9.80348C4.49888 9.82587 4.31079 9.90648 4.23914 10.0498C4.3914 10.8514 4.53919 11.653 4.69145 12.4591C4.69145 12.889 4.5974 13.2741 4.41379 13.61C4.53023 13.3324 4.58397 13.0278 4.58397 12.7054C4.58397 12.4412 4.54366 12.1232 4.46753 11.7605C4.3511 11.2321 4.23914 10.6991 4.1227 10.1707C4.16749 10.014 4.20331 9.902 4.23914 9.83931C4.30184 9.71839 4.3914 9.63778 4.50784 9.60196C4.53471 9.57957 4.60188 9.56613 4.70488 9.56613C4.80788 9.56613 4.87953 9.54822 4.91536 9.51687C4.8661 9.49448 4.83027 9.48104 4.80788 9.47209C4.72279 9.43626 4.65562 9.41835 4.60188 9.41835C4.57949 9.41835 4.54814 9.4273 4.50336 9.44074C4.44066 9.50343 4.40036 9.55718 4.38692 9.593C4.36005 9.54822 4.3511 9.50343 4.36901 9.44969C4.38692 9.39595 4.40484 9.34222 4.42723 9.29295C4.48992 9.2213 4.57949 9.17652 4.68697 9.16308C4.56605 8.84065 4.48545 8.65256 4.44962 8.59434C4.37797 8.47791 4.29736 8.41521 4.21227 8.40178C4.13166 8.37491 4.06897 8.34804 4.01523 8.32565C3.96149 8.30326 3.92118 8.27191 3.88983 8.22713C3.92566 8.05695 3.95253 7.95395 3.96597 7.9226C3.9794 7.89125 4.01075 7.85543 4.06449 7.8196C4.22123 7.90469 4.36453 8.05695 4.4944 8.27191C4.59292 8.45104 4.7004 8.63017 4.80788 8.8093C4.82132 8.54956 4.83923 8.28982 4.86162 8.0256C4.89745 7.85543 4.97358 7.72556 5.08554 7.64047C5.21988 7.64047 5.33184 7.68525 5.41693 7.7793L5.42141 7.77034ZM10.8491 16.1223C10.7998 16.2074 10.7326 16.3104 10.6431 16.4224C10.5938 16.4851 10.5132 16.5836 10.4057 16.7135C10.2848 16.6508 10.1594 16.5791 10.0296 16.5075C9.89969 16.4358 9.77877 16.391 9.66234 16.3776C9.70712 16.2343 9.79669 16.091 9.93999 15.9477C10.0206 15.8671 10.0967 15.7954 10.1773 15.7238C10.2938 15.782 10.4102 15.8402 10.5356 15.9074C10.661 15.9701 10.764 16.0417 10.8401 16.1223H10.8491ZM9.64442 16.2209C9.64442 16.2209 9.56382 16.3462 9.42051 16.5746C9.31303 16.7448 9.21003 16.8344 9.10703 16.8344C9.03538 16.8344 8.95477 16.7896 8.86968 16.6956C8.80699 16.6597 8.75773 16.6329 8.73086 16.6194C8.62338 16.5612 8.53829 16.5209 8.47112 16.503C8.53381 16.3821 8.60546 16.2701 8.68159 16.1716C8.75772 16.0731 8.84729 15.9835 8.95477 15.9119C9.0712 15.9387 9.18316 15.9835 9.2996 16.0417C9.41603 16.0999 9.52799 16.1582 9.64442 16.2253V16.2209ZM5.15271 14.0937L5.09001 14.3534C5.09001 14.3534 5.0318 14.3176 4.95567 14.2728C4.87953 14.228 4.82132 14.2056 4.77653 14.2146C4.74966 14.2773 4.72279 14.443 4.70488 14.7072C4.68697 14.9714 4.61979 15.1461 4.50784 15.2222C4.45858 15.1774 4.39588 15.052 4.31975 14.8415C4.24362 14.6311 4.12718 14.5236 3.97044 14.5236C3.99283 14.3937 4.00627 14.3086 4.0197 14.2728C4.02866 14.2325 4.06449 14.2011 4.1227 14.1698C4.23914 14.228 4.33318 14.3489 4.40931 14.5415C4.48545 14.7296 4.53918 14.846 4.57501 14.8818C4.58845 14.7162 4.60188 14.5505 4.61979 14.3758C4.65562 14.1608 4.73623 14.0086 4.85714 13.9235C4.91536 13.9145 4.96462 13.928 5.0094 13.9593C5.05419 13.9907 5.10345 14.0355 5.16167 14.0937H5.15271ZM17.3202 13.6638C17.1858 13.7444 17.0515 13.8205 16.9216 13.9011C16.841 13.9459 16.7649 13.9638 16.6843 13.9638C16.6574 13.9638 16.6126 13.9548 16.5544 13.9414C16.5544 13.9325 16.5007 13.8698 16.3932 13.7533C16.2857 13.6369 16.2499 13.5294 16.2857 13.4354C16.3215 13.3906 16.3798 13.3145 16.4559 13.198C16.5723 13.0458 16.6798 12.9562 16.7873 12.9204C16.8097 12.9114 16.841 12.9114 16.8858 12.9114C16.9933 12.9114 17.0784 12.9696 17.1455 13.0816C17.1903 13.1801 17.2306 13.2831 17.2754 13.3816C17.2754 13.3906 17.2844 13.4264 17.3023 13.4936C17.3202 13.5608 17.3247 13.619 17.3202 13.6593V13.6638Z" fill="white"/>
</svg>
