<svg width="24" height="24" viewBox="0 0 24 24" fill="none" xmlns="http://www.w3.org/2000/svg">
<path fill-rule="evenodd" clip-rule="evenodd" d="M22 9.62018C21.953 9.60736 21.8932 9.54755 21.8248 9.445C21.7565 9.34246 21.7052 9.27838 21.671 9.24847L21.5898 9.35101C21.5898 9.66718 21.6283 10.1543 21.7009 10.8165C21.7778 11.4788 21.812 11.9744 21.812 12.3034V12.6708C21.812 13.2647 21.7992 13.6877 21.7693 13.944C21.7223 14.3756 21.624 14.7729 21.4702 15.1446C21.4958 14.9481 21.5172 14.7088 21.53 14.4354C21.5428 14.162 21.5514 13.8971 21.5514 13.645C21.5514 12.9827 21.5001 12.1923 21.3976 11.278C21.295 10.3636 21.201 9.49201 21.1113 8.66313C21.0558 8.60331 21.0301 8.53494 21.0301 8.45804C21.0301 8.38113 21.0558 8.30423 21.1028 8.22305C21.2523 7.97524 21.3292 7.85133 21.3292 7.84278C21.5599 8.2615 21.7095 8.53494 21.7693 8.67167C21.9188 9.01347 21.9957 9.32964 21.9957 9.61591L22 9.62018ZM18.6161 9.18865C18.5691 9.30401 18.4666 9.41083 18.3085 9.50483C18.0607 9.65437 17.8171 9.80391 17.5693 9.95772C17.5437 9.90218 17.5522 9.84236 17.5992 9.774C17.6676 9.6971 17.7402 9.62018 17.8129 9.539C17.8129 9.49628 17.736 9.47919 17.5779 9.47919C17.5223 9.45356 17.4967 9.41083 17.4967 9.35528C17.4967 9.3211 17.5095 9.27838 17.5309 9.22711C17.5565 9.17584 17.5821 9.12884 17.6163 9.09039C17.6847 9.03484 17.7573 8.97502 17.8385 8.91093C17.9154 8.84684 17.988 8.81267 18.0479 8.81267C18.1077 8.81267 18.1589 8.84258 18.2017 8.90667C18.2102 8.96648 18.1931 9.02629 18.1504 9.08611C18.1077 9.14592 18.0863 9.18011 18.0778 9.19292L17.9752 9.03912C17.9197 9.03912 17.8684 9.05192 17.8214 9.08183C17.7744 9.10747 17.7274 9.14166 17.6761 9.18438C17.7701 9.31256 17.9239 9.38092 18.129 9.38092C18.176 9.38092 18.2401 9.37238 18.3256 9.35956L18.6118 9.1972L18.6161 9.18865ZM18.7614 9.62018C18.5563 9.72272 18.3512 9.821 18.1461 9.91927C18.0179 9.97909 17.9111 10.0432 17.83 10.1073C17.7488 10.1714 17.6847 10.2525 17.6462 10.3465C17.7231 10.2995 17.8214 10.244 17.9453 10.1842C18.0137 10.1585 18.1077 10.1158 18.2273 10.056C18.3469 9.99618 18.4537 9.93208 18.5435 9.85945C18.6332 9.78681 18.7101 9.70563 18.7656 9.62018H18.7614ZM19.0476 11.0259C19.0605 11.107 19.0562 11.1797 19.0305 11.2395C19.0049 11.2993 18.9793 11.3677 18.9451 11.4446C18.8767 11.4788 18.8169 11.4531 18.7614 11.3634C18.7486 11.3378 18.7315 11.2993 18.7144 11.2566C18.6973 11.2139 18.6887 11.1626 18.6887 11.107C18.6887 11.0173 18.7058 10.9233 18.74 10.8251C18.7742 10.7268 18.8169 10.6285 18.8639 10.5345C18.8554 10.5901 18.8468 10.6542 18.834 10.7225C18.8212 10.7952 18.8126 10.8507 18.8126 10.8934C18.8126 11.0173 18.8511 11.1199 18.9237 11.201L19.0476 11.0259ZM20.2482 9.54756C20.1884 9.20575 20.103 8.90666 20.0004 8.64603C19.8765 8.32986 19.7184 8.0735 19.5176 7.86842C19.5048 7.92396 19.4493 8.01796 19.3595 8.15469C19.2655 8.29141 19.2228 8.40249 19.2228 8.48367C19.2228 8.55203 19.2399 8.61186 19.2741 8.6674L19.8381 12.8118C19.8381 12.8118 19.8466 12.9058 19.8594 13.0682C19.8722 13.2305 19.8808 13.3502 19.8808 13.4185C19.8808 13.5552 19.8637 13.6706 19.8338 13.7603C19.8039 13.85 19.7441 13.9355 19.6543 14.0124C19.6543 13.9013 19.6415 13.7817 19.6116 13.6535C19.586 13.5253 19.5518 13.4142 19.5176 13.3245C18.5136 11.9787 17.5095 10.6285 16.514 9.2741C16.4713 9.22711 16.4328 9.17583 16.3944 9.12456C16.3559 9.07329 16.3388 9.02202 16.3388 8.97502C16.3388 8.94938 16.3474 8.91521 16.3687 8.88103C16.4157 8.91521 16.4713 8.94939 16.5311 8.98785C16.5909 9.0263 16.6422 9.05193 16.6849 9.06475C16.6165 8.90239 16.4798 8.70586 16.2747 8.47941C16.0013 8.17178 15.8432 7.99232 15.8047 7.93678C15.7107 8.01369 15.6424 8.12478 15.5997 8.27432C15.574 8.41959 15.5484 8.55631 15.527 8.69304C15.8432 9.18011 16.1679 9.65436 16.5097 10.1243C16.8515 10.5943 17.1933 11.06 17.5351 11.5258C17.9026 11.9616 18.2786 12.3974 18.6546 12.8289C19.0989 13.3502 19.3766 13.8244 19.4834 14.2559C19.1203 14.5978 18.7058 14.8883 18.2316 15.1276C17.8342 15.3241 17.3685 15.5035 16.8387 15.6616C17.2019 15.6616 17.5992 15.6189 18.0265 15.5377C18.458 15.4565 18.8212 15.3326 19.1245 15.1703C19.492 14.8199 19.7483 14.3927 19.8936 13.88C20.0047 13.4912 20.056 12.9827 20.056 12.3632C20.056 12.0769 19.9748 11.4147 19.8082 10.3722C19.7398 9.94063 19.7056 9.56464 19.7056 9.24419L19.8082 9.11174C19.8765 9.20147 19.9406 9.2741 20.0047 9.33819C20.0688 9.40228 20.1457 9.47064 20.2397 9.55182L20.2482 9.54756ZM14.2794 8.8383C14.3136 8.8853 14.3093 8.94939 14.2709 9.02202C14.2111 9.13738 14.1769 9.20147 14.1769 9.20574C14.1427 9.26128 14.0957 9.28692 14.0316 9.28692C13.9974 9.28692 13.9718 9.2741 13.9504 9.24419C13.8949 9.16301 13.8693 9.07329 13.8693 8.97929C13.8693 8.89811 13.8821 8.81694 13.912 8.74431C13.9376 8.6674 14.0017 8.54777 14.0957 8.38541C14.1085 8.42814 14.0957 8.50503 14.053 8.61612C14.0103 8.72721 13.9932 8.80839 13.9932 8.85539C13.9932 8.94511 14.0487 9.00065 14.1555 9.03056L14.2794 8.83403V8.8383ZM15.6424 10.4704C15.5997 10.5858 15.5484 10.6926 15.48 10.7866C15.3775 10.9105 15.3006 11.0002 15.2536 11.0643C15.1938 11.0301 15.0955 10.9575 14.9673 10.8507C14.8776 10.7738 14.8178 10.7268 14.7836 10.7054C14.8263 10.5901 14.8776 10.4875 14.9374 10.3978C14.9972 10.3081 15.0784 10.2184 15.1724 10.1329C15.2493 10.1543 15.3305 10.197 15.4202 10.2653C15.48 10.3123 15.5569 10.3807 15.6467 10.4704H15.6424ZM13.6129 7.72315C13.6129 7.81288 13.5702 7.87696 13.4847 7.92396C13.3993 7.96669 13.3181 8.00941 13.2455 8.0436C12.8438 8.18032 12.4849 8.3085 12.1773 8.42386C11.8697 8.53922 11.5322 8.68021 11.1604 8.84257C11.1604 8.78275 11.1903 8.71439 11.2544 8.64603C11.3142 8.57767 11.3826 8.53494 11.451 8.52212C11.8056 8.3854 12.173 8.24868 12.549 8.10768C12.925 7.96669 13.2796 7.83851 13.6172 7.72315H13.6129ZM13.9803 10.7909C13.9376 10.825 13.8821 10.9233 13.8052 11.09C13.7283 11.2523 13.6471 11.3378 13.5574 11.3378C13.5317 11.3378 13.4975 11.3292 13.4548 11.3079C13.4292 11.248 13.3523 11.1882 13.2284 11.1327C13.1045 11.0771 13.0446 11.0301 13.0446 10.9874C13.0446 10.9532 13.0617 10.9148 13.0959 10.8763L13.4975 10.4961L13.9803 10.7951V10.7909ZM12.3397 10.103L12.2799 10.338L11.9808 10.1414C11.9594 10.3337 11.9252 10.5131 11.8782 10.6841C11.8312 10.855 11.7629 11.0173 11.6731 11.1669C11.6261 11.107 11.5578 10.9532 11.4681 10.7054C11.4211 10.5772 11.3741 10.4747 11.3228 10.4063C11.31 10.4491 11.2843 10.4662 11.2502 10.4662C11.2288 10.4662 11.1989 10.4576 11.1647 10.4362C11.1263 10.4149 11.0963 10.4021 11.0793 10.3935C11.0536 10.3679 11.0365 10.3337 11.0365 10.2995C11.0365 10.2739 11.0493 10.2312 11.0707 10.1714C11.0963 10.1115 11.1049 10.0731 11.1049 10.0517C11.1604 10.0175 11.216 9.98336 11.2673 9.94918C11.3014 9.94918 11.3271 9.9748 11.3484 10.0303C11.4382 10.1329 11.5108 10.2611 11.5621 10.4106C11.6176 10.5602 11.6731 10.7054 11.7244 10.8422C11.7671 10.6114 11.8013 10.4149 11.8312 10.2525C11.8611 10.0902 11.9252 9.95772 12.0192 9.84663C12.079 9.88081 12.1389 9.91927 12.1944 9.95772C12.2499 10.0004 12.2927 10.0432 12.3269 10.0902L12.3397 10.103ZM16.279 13.1066C16.3004 13.1963 16.3175 13.2818 16.3303 13.3673C16.3431 13.4527 16.3516 13.5382 16.3516 13.6193C16.3516 13.8116 16.3175 13.9868 16.2534 14.1491C16.1893 14.3115 16.0825 14.461 15.9286 14.6063C15.7577 14.7003 15.5697 14.7772 15.3647 14.8285C15.1596 14.8797 14.9417 14.9054 14.7067 14.9054C14.4888 14.9054 14.2752 14.8797 14.0658 14.8327C13.8564 14.7858 13.6684 14.7088 13.4975 14.6063C13.2796 14.7088 13.0532 14.7772 12.8225 14.8157C12.5918 14.8541 12.3354 14.8712 12.0534 14.8712C11.8611 14.8712 11.5663 14.8584 11.1604 14.8285C10.7588 14.8028 10.4512 14.7857 10.2461 14.7857C10.088 14.7857 9.94275 14.7943 9.80602 14.8071C9.31895 14.8541 9.04978 14.8797 8.99423 14.8797C8.70797 14.8797 8.48152 14.8456 8.31916 14.7772C8.10126 14.6875 7.92608 14.5294 7.79791 14.2944C7.66118 13.85 7.56719 13.363 7.51591 12.8332C7.46464 12.3034 7.43901 11.7394 7.43901 11.137C7.43901 10.9233 7.43901 10.5986 7.44755 10.1628C7.4561 9.72701 7.4561 9.39801 7.4561 9.18011C7.4561 9.0562 7.44755 8.94511 7.43474 8.84257C7.38774 8.47513 7.3621 8.27432 7.3621 8.24868C7.3621 8.09914 7.38347 7.97096 7.42192 7.86842C7.46464 7.76588 7.53728 7.67189 7.64837 7.58216C7.70818 7.94533 7.75091 8.29996 7.768 8.65031C7.78509 9.00066 7.79363 9.42792 7.79363 9.93209C7.79363 10.1457 7.79363 10.3551 7.78936 10.5644C7.78936 10.7738 7.78509 10.9831 7.78509 11.1968C7.78509 11.6625 7.79363 12.0257 7.81072 12.2948C7.82781 12.5597 7.86627 12.8973 7.93036 13.2989C7.99872 13.4612 8.07562 13.6065 8.1568 13.7304C8.26789 13.8885 8.39607 14.0039 8.54561 14.0808C8.84042 13.8073 9.04978 13.6022 9.18223 13.4655C9.42149 13.2134 9.54112 12.9571 9.54112 12.6965C9.54112 12.6409 9.54112 12.5982 9.53258 12.564C9.53258 11.8718 9.49412 11.1626 9.42149 10.432C9.34458 9.70136 9.24204 8.9323 9.11386 8.12478C9.14805 8.00087 9.19932 7.88551 9.26768 7.77442C9.33604 7.66333 9.41295 7.57788 9.50267 7.50952C9.80175 8.00941 10.0325 8.50931 10.1906 9.01775C10.1008 9.00493 10.0197 8.95793 9.93847 8.87248C9.86157 8.7913 9.78466 8.71013 9.7163 8.62467C9.70775 8.7144 9.70348 8.7913 9.69921 8.85539C9.69921 8.91947 9.69494 8.97503 9.69494 9.0263C9.69494 9.25702 9.72484 9.70136 9.78893 10.3508C9.82311 10.714 9.84021 10.9874 9.84021 11.1711C9.84021 11.8334 9.74621 12.4786 9.55394 13.1109C9.64794 13.0554 9.8103 12.9314 10.0367 12.7434C10.3999 12.4444 10.7118 12.2906 10.9682 12.2906C11.0152 12.2991 11.0536 12.2991 11.0793 12.2991C11.4125 12.3546 11.6774 12.4273 11.8697 12.5127C12.1303 12.6281 12.3439 12.7947 12.5148 13.0169C12.4465 13.2989 12.3696 13.5168 12.2799 13.6749C12.1645 13.8928 12.0021 14.0594 11.7971 14.179C11.6603 14.2602 11.498 14.3371 11.31 14.4055C11.122 14.4739 10.9767 14.5251 10.8742 14.5593C11.2416 14.5593 11.6091 14.5209 11.9765 14.4482C12.3439 14.3713 12.7413 14.2645 13.1728 14.1192C13.1728 13.7091 13.2497 13.3416 13.3993 13.0212C13.5787 12.6452 13.8351 12.3803 14.1769 12.2307C14.2581 12.2179 14.335 12.2436 14.4033 12.3119C14.4717 12.3803 14.523 12.4572 14.5571 12.5426C14.5913 12.6281 14.6127 12.7007 14.617 12.7563C14.6255 12.8161 14.6255 12.8887 14.6255 12.9784C14.6255 13.1622 14.5999 13.3544 14.5443 13.5595C14.4888 13.7603 14.4332 13.9569 14.382 14.1491C14.5443 14.1919 14.7067 14.2089 14.8648 14.2089C15.0827 14.2089 15.292 14.1748 15.4971 14.1064C15.6979 14.038 15.8902 13.9441 16.0782 13.8201C16.044 13.6578 15.9799 13.4783 15.8902 13.2903C15.7962 13.1023 15.7065 12.9186 15.6167 12.7434C15.5612 12.6195 15.527 12.517 15.5099 12.4316C15.4928 12.3461 15.4843 12.2606 15.4843 12.1795C15.4843 12.0897 15.4971 12 15.527 11.906C15.5527 11.812 15.6039 11.718 15.6723 11.624C15.8176 11.9402 15.9244 12.1795 16.0013 12.3418C16.138 12.6409 16.232 12.9015 16.2875 13.1194L16.279 13.1066ZM8.43452 8.00942C8.40034 8.01797 8.37471 8.03505 8.35334 8.06923C8.33198 8.10341 8.31062 8.14614 8.28071 8.19314C8.40889 8.44522 8.47725 8.7443 8.47725 9.08611C8.47725 9.26556 8.45589 9.43219 8.41743 9.59027C8.54134 9.36382 8.60115 9.09039 8.60115 8.76994C8.60115 8.47513 8.54561 8.22305 8.43879 8.00942H8.43452ZM6.80239 8.90239C6.78957 9.00493 6.76821 9.09039 6.74258 9.15875C6.69558 9.26984 6.63149 9.33392 6.55885 9.35528C6.51186 9.37665 6.46486 9.36383 6.4264 9.31256C6.38368 9.26556 6.35804 9.23138 6.34523 9.21002C6.33668 9.16729 6.33668 9.11175 6.33668 9.03484C6.33668 8.89812 6.36232 8.7443 6.41359 8.57767C6.46486 8.41104 6.50331 8.2786 6.53322 8.1846C6.54604 8.24014 6.55458 8.27859 6.55458 8.29568C6.55458 8.36404 6.53749 8.46231 6.50758 8.59476C6.47768 8.72294 6.46059 8.80839 6.46059 8.84257C6.46059 8.91093 6.4734 8.96648 6.49477 9.00493C6.5204 9.04765 6.5674 9.08184 6.64431 9.10748C6.66567 9.09466 6.68703 9.05621 6.71267 9.00066C6.7383 8.94085 6.76821 8.91094 6.81094 8.90239H6.80239ZM8.96432 11.5087C8.93869 11.5172 8.90878 11.5514 8.88314 11.6155C8.85751 11.6796 8.82333 11.7137 8.7806 11.7137C8.72506 11.6668 8.69088 11.6112 8.67379 11.5557C8.6567 11.4958 8.64815 11.4189 8.64815 11.3249C8.64815 11.2566 8.6567 11.1711 8.67806 11.0643C8.69942 10.9575 8.71224 10.8934 8.72079 10.8763C8.65242 10.9917 8.60115 11.0985 8.57124 11.201C8.54134 11.2993 8.52425 11.4061 8.52425 11.5258C8.52425 11.6027 8.53279 11.6753 8.54988 11.7522C8.56697 11.8291 8.59261 11.8889 8.63106 11.9359C8.66952 11.9829 8.71651 12 8.7806 11.9872C8.90451 11.8718 8.96432 11.7138 8.96432 11.5172V11.5087ZM13.8265 15.4352C13.6813 15.5505 13.5146 15.6574 13.3224 15.7514C13.1301 15.8454 12.9336 15.9308 12.7285 16.0034C12.5234 16.0761 12.3183 16.153 12.109 16.2342C11.8996 16.3153 11.7159 16.4008 11.5621 16.4905C11.5364 16.435 11.545 16.3794 11.592 16.3153C11.6176 16.2812 11.6689 16.2384 11.7372 16.1914C12.4337 15.9393 13.1301 15.6873 13.8308 15.4309L13.8265 15.4352ZM5.46934 8.35122L5.41807 8.53494C5.37107 8.54349 5.31126 8.51785 5.23862 8.45804C5.16599 8.39822 5.11045 8.37686 5.06772 8.38967C5.02072 8.49222 4.97372 8.66312 4.92245 8.89811C4.87545 9.13311 4.84555 9.27838 4.82846 9.33393C4.86264 9.36811 4.95663 9.43219 5.11472 9.53046C5.2429 9.60737 5.31126 9.68427 5.31126 9.76545C5.31126 9.78681 5.30699 9.80818 5.29417 9.83381C5.28562 9.85945 5.11472 9.90218 4.78573 9.97054C4.5721 10.0175 4.4311 10.1115 4.3542 10.2483C4.44392 10.6841 4.53365 11.1199 4.6191 11.5514C4.64473 11.7351 4.66182 11.8633 4.6661 11.9359C4.6661 12.0086 4.67037 12.0812 4.67037 12.1581C4.67037 12.4102 4.63619 12.6494 4.56783 12.8759C4.60201 12.7178 4.6191 12.5811 4.6191 12.4657C4.6191 12.3205 4.61055 12.1923 4.58919 12.0769C4.56783 11.9616 4.51228 11.7437 4.41401 11.4318C4.35847 11.248 4.31147 11.0729 4.27729 10.9105C4.23884 10.7482 4.22175 10.5943 4.22175 10.4491C4.22175 10.2867 4.23884 10.15 4.27302 10.0389C4.33283 9.95772 4.41401 9.88936 4.51228 9.83381C4.61055 9.77827 4.72164 9.73554 4.84555 9.70136C4.80282 9.633 4.743 9.59882 4.66182 9.59882C4.64046 9.59882 4.61483 9.60737 4.58065 9.62874C4.53792 9.62019 4.50801 9.64155 4.48665 9.68855C4.46529 9.73554 4.44819 9.76545 4.43538 9.76973C4.41401 9.727 4.41401 9.67146 4.43538 9.59882C4.45674 9.52619 4.48238 9.46637 4.51656 9.41937C4.56355 9.38519 4.60201 9.35956 4.63619 9.34674C4.6661 9.33393 4.70455 9.32964 4.743 9.33819C4.70028 9.22283 4.65755 9.1032 4.61483 8.98357C4.5721 8.86394 4.51228 8.74857 4.43538 8.64176C4.42683 8.6973 4.40974 8.72294 4.37556 8.72294C4.3542 8.72294 4.32429 8.71012 4.28156 8.68876C4.23884 8.66313 4.19611 8.63749 4.15339 8.61186C4.11066 8.58622 4.08502 8.53922 4.08502 8.47941C4.08502 8.43241 4.09357 8.38541 4.10639 8.34268C4.11921 8.29996 4.1363 8.25295 4.15339 8.20596C4.17048 8.15896 4.19611 8.13333 4.23029 8.13333C4.25593 8.13333 4.28584 8.14614 4.31147 8.1675C4.33711 8.19314 4.36702 8.2145 4.39265 8.23587C4.47383 8.32559 4.55501 8.44095 4.62764 8.58622C4.64046 8.61186 4.70028 8.7443 4.80282 8.97502C4.837 8.91947 4.87118 8.79131 4.90963 8.58622C4.94809 8.38114 5.01218 8.23587 5.09763 8.15469C5.24717 8.15469 5.3668 8.22305 5.45653 8.35978L5.46934 8.35122ZM8.95578 16.2982C8.90023 16.3239 8.85324 16.3196 8.81906 16.2812C8.7806 16.2427 8.75924 16.2043 8.75069 16.1701C8.74215 16.1316 8.74215 16.0846 8.74215 16.0205C8.74215 15.8924 8.76778 15.7727 8.81478 15.6659C8.86178 15.5591 8.93441 15.4352 9.02841 15.2899C8.97287 15.4736 8.91733 15.6574 8.86605 15.8454C8.86605 15.9223 8.88742 15.9906 8.92587 16.0504C8.97287 16.0504 9.01132 16.0163 9.03696 15.9522C9.06259 15.8881 9.07968 15.8496 9.08823 15.8454C9.10105 15.9009 9.10959 15.9394 9.10959 15.9564C9.10959 16.0163 9.09677 16.0718 9.07541 16.1188C9.04978 16.1658 9.01132 16.2256 8.95578 16.294V16.2982ZM6.84512 12.6665C6.84512 12.5213 6.78957 12.3504 6.68276 12.1538C6.62722 12.0513 6.53749 11.8975 6.40504 11.6924C6.34522 11.7949 6.28114 11.8975 6.21705 12.0043C6.15296 12.1111 6.11878 12.2094 6.11878 12.2948C6.11878 12.3717 6.14441 12.4358 6.19141 12.4914C6.19141 12.5255 6.19141 12.5725 6.18287 12.6366C6.27259 13.0938 6.36232 13.551 6.46059 14.0124C6.05896 14.3115 5.58043 14.5978 5.02499 14.8627C4.64901 15.0421 4.14484 15.2515 3.50822 15.4993C2.7477 15.7941 2.24781 15.9906 2 16.0932C2.68361 16.0333 3.3715 15.9693 4.05939 15.9094C4.58492 15.6702 5.11045 15.4266 5.64025 15.1831C6.24696 14.8541 6.59304 14.4226 6.67421 13.8928C6.74258 13.7774 6.77676 13.6621 6.77676 13.5424C6.77676 13.4612 6.75539 13.3459 6.71694 13.2049C6.64003 12.9443 6.60585 12.7734 6.60585 12.6922C6.60585 12.6025 6.61867 12.5298 6.64858 12.4657L6.85366 12.6708L6.84512 12.6665ZM14.3606 13.692C14.3478 13.5894 14.335 13.4826 14.3307 13.3758C14.3179 13.316 14.2922 13.2476 14.2581 13.1793C14.1897 13.0297 14.1042 12.9528 14.0017 12.9528C13.912 12.9528 13.8094 13.0126 13.6941 13.128C13.6044 13.2177 13.5274 13.316 13.4591 13.4271C13.4249 13.5296 13.4591 13.6321 13.5531 13.7347C13.63 13.8116 13.6813 13.8629 13.7069 13.8885C13.7283 13.897 13.7667 13.8971 13.818 13.8971C13.8949 13.8971 13.9889 13.8714 14.1043 13.8159C14.2196 13.7603 14.3051 13.7219 14.3606 13.692ZM12.0021 13.5296C11.8782 13.3843 11.6817 13.2647 11.4082 13.1622C11.263 13.1152 11.1263 13.0639 10.9895 13.0083C10.8656 12.9742 10.7588 12.9571 10.6734 12.9571C10.3743 12.9571 10.0538 13.1066 9.72057 13.41C9.43858 13.6621 9.16513 13.9141 8.89169 14.1705C8.98141 14.179 9.05832 14.1833 9.12241 14.1876C9.1865 14.1876 9.24204 14.1919 9.29331 14.1919C9.72912 14.1919 10.1991 14.1235 10.699 13.9868C10.9981 13.9056 11.4382 13.7561 12.0107 13.5339L12.0021 13.5296Z" fill="white"/>
</svg>
