<svg width="24" height="24" viewBox="0 0 24 24" fill="none" xmlns="http://www.w3.org/2000/svg">
<path fill-rule="evenodd" clip-rule="evenodd" d="M21.9711 8.59158C21.8902 8.54537 21.792 8.44716 21.6823 8.30273C21.4974 8.05432 21.3992 7.92145 21.3934 7.91567C21.3125 8.02544 21.2663 8.16986 21.2663 8.34317C21.2663 8.38939 21.2779 8.44716 21.2952 8.52226C21.2952 9.11152 21.3992 9.94341 21.6129 11.0064C21.7689 11.792 21.8614 12.2946 21.8902 12.5199C21.9653 13.0572 22 13.554 22 14.0162C22 14.4784 21.9653 14.9232 21.896 15.2929C21.8267 15.6626 21.6996 16.0439 21.5147 16.4425C21.5321 16.2288 21.5494 16.067 21.5552 15.9573C21.6014 15.4951 21.6245 15.1889 21.6245 15.0445C21.6245 14.9001 21.6245 14.7788 21.6129 14.6979C21.6014 14.617 21.5841 14.4841 21.5552 14.3108L20.5962 7.54594C20.6135 7.4824 20.5962 7.38996 20.5557 7.27442C20.5095 7.15888 20.4864 7.08379 20.4864 7.04335C20.4864 6.96825 20.5211 6.89892 20.5962 6.83537C20.7002 6.66206 20.7753 6.52342 20.833 6.43099C20.8908 6.33855 20.9486 6.28078 21.0121 6.25189C21.3934 7.10111 21.6014 7.5806 21.6476 7.69614C21.7747 8.01966 21.8845 8.32007 21.9653 8.59736L21.9711 8.59158ZM16.6909 10.3651C16.662 10.5211 16.5696 10.7002 16.4136 10.9082C16.2577 11.1104 16.171 11.2201 16.1652 11.2432C16.1306 11.1681 15.9746 11.0526 15.7088 10.8966C15.5066 10.7753 15.4315 10.6366 15.4893 10.4807L16.0324 9.72965C16.2172 9.88563 16.3674 10.0185 16.483 10.1225C16.5985 10.2265 16.6678 10.3074 16.6967 10.3651H16.6909ZM14.6516 10.0474C14.5592 10.0763 14.3859 10.0994 14.1259 10.1225C13.866 10.1456 13.6522 10.2265 13.4905 10.3651C13.398 10.3651 13.3114 10.3362 13.2247 10.2842C13.1438 10.2265 13.0976 10.1572 13.0976 10.0763C13.0976 9.86253 13.1092 9.68921 13.1323 9.55634C13.1554 9.42347 13.2016 9.29638 13.2767 9.17506C13.2652 9.35993 13.2652 9.50435 13.2652 9.60256C13.2652 9.77009 13.3056 9.89141 13.3923 9.97807C13.6118 9.97807 13.7793 9.90296 13.8891 9.75854C13.918 9.67766 13.9295 9.59678 13.9295 9.52168C13.9295 9.48702 13.9295 9.42347 13.918 9.34259C13.9064 9.26172 13.9064 9.19239 13.9064 9.14618C13.9064 9.01908 13.9526 8.90932 14.0451 8.82844C14.0624 8.87466 14.0739 8.95554 14.0739 9.0653C14.0624 9.2155 14.0624 9.31949 14.0624 9.38304C14.0624 9.48702 14.0797 9.5679 14.1086 9.63144C14.1433 9.69499 14.2068 9.74698 14.3108 9.78164C14.3859 9.7932 14.4379 9.7932 14.4783 9.7932C14.5361 9.7932 14.5765 9.77009 14.6054 9.72388C14.6054 9.64878 14.5823 9.54479 14.5419 9.41192C14.5014 9.27904 14.4783 9.18661 14.4783 9.1404C14.4783 9.03641 14.5188 8.94976 14.6054 8.87466C14.6632 9.04219 14.7036 9.18084 14.7383 9.29638C14.773 9.41192 14.7845 9.52746 14.7845 9.63722C14.7845 9.77587 14.7441 9.90874 14.6574 10.0416L14.6516 10.0474ZM16.4252 6.48298C15.3622 6.76027 14.357 7.04334 13.4154 7.32642C12.6297 7.56905 11.6476 7.89257 10.4749 8.29696C9.67764 8.57425 8.70711 8.9151 7.5517 9.32526C7.44772 9.38303 7.36106 9.4408 7.28596 9.50435C7.21086 9.5679 7.16465 9.65456 7.14731 9.75277C8.23917 9.35415 9.23281 9.00175 10.1283 8.70135C11.5263 8.22185 12.5199 7.88679 13.1207 7.70193C14.0104 7.42463 15.0214 7.13 16.1594 6.81226L16.4252 6.4772V6.48298ZM13.3865 12.0289C13.4211 12.0924 13.4154 12.1733 13.3576 12.2715C13.2998 12.3698 13.2536 12.4622 13.2074 12.5546C13.1323 12.5662 13.0687 12.5431 13.011 12.4853C12.9532 12.4275 12.907 12.3582 12.8666 12.2715C12.8261 12.1849 12.803 12.0809 12.803 11.9596C12.803 11.8325 12.8261 11.7054 12.8666 11.5841C12.907 11.4628 12.9763 11.3472 13.0687 11.2375C13.0341 11.3877 13.011 11.5205 13.011 11.6418C13.011 11.7632 13.0225 11.8614 13.0456 11.9422C13.0687 12.0231 13.1207 12.0982 13.2074 12.1733C13.2652 12.1907 13.2998 12.1733 13.3229 12.1156C13.346 12.0578 13.3692 12.0347 13.3865 12.0347V12.0289ZM19.4177 8.75912C19.4177 8.75912 19.1982 8.21608 18.7533 7.15311C18.5973 6.78338 18.4414 6.48297 18.2796 6.25189C18.1525 6.41942 18.0543 6.56964 17.9908 6.70251C17.9272 6.83538 17.881 6.99135 17.8521 7.16466C18.1583 8.64357 18.3258 9.47547 18.3663 9.66033C18.4934 10.3247 18.6436 11.1335 18.8111 12.0809C18.9786 13.0283 19.1173 13.8949 19.227 14.6806C18.8458 15.0618 18.4009 15.2467 17.881 15.2467C17.7423 15.2467 17.6037 15.2351 17.4651 15.2063C17.1993 15.1312 17.0607 14.9867 17.0607 14.7788C17.0607 14.6979 17.0953 14.5477 17.1646 14.3397C17.234 14.1317 17.2686 13.9815 17.2686 13.8891C17.2686 13.8544 17.2571 13.8082 17.2397 13.7505C15.3911 14.3975 14.3166 14.7614 14.022 14.8481C13.2709 15.0676 12.5893 15.2294 11.9711 15.3333C11.7054 15.3796 11.4165 15.4142 11.1161 15.4431C10.8157 15.472 10.5442 15.4836 10.3073 15.4836C9.63143 15.4836 8.99596 15.4027 8.40093 15.2351C7.80589 15.0676 7.23397 14.8019 6.69093 14.4321C6.56384 14.5246 6.42519 14.6863 6.27499 14.9232C6.12478 15.16 6.00347 15.316 5.89948 15.4027C5.7435 15.4778 5.63374 15.524 5.56441 15.5413C5.50087 15.5587 5.40843 15.5702 5.28712 15.5702C5.2409 15.5702 5.17158 15.5587 5.07915 15.5413C4.92317 15.4604 4.78452 15.3449 4.66898 15.2063C4.55344 15.0676 4.46678 14.9116 4.41479 14.7325C4.18371 12.0174 3.95841 9.2906 3.7331 6.56385C3.5829 6.7025 3.47891 6.86426 3.40959 7.0549C3.34027 7.24555 3.3056 7.45352 3.3056 7.6846C3.3056 7.91568 3.33449 8.12942 3.38648 8.34895L3.79087 14.4206C3.84864 14.8712 3.90064 15.1947 3.95841 15.3911C4.05084 15.7435 4.20104 16.0266 4.41479 16.2519C4.50722 16.3617 4.60543 16.4368 4.70364 16.483C4.80763 16.5234 4.92894 16.5465 5.07915 16.5465C5.16002 16.5465 5.28712 16.535 5.45465 16.5176C5.65107 16.4541 5.84171 16.275 6.03235 15.9919C6.22299 15.7031 6.35586 15.5298 6.44252 15.4662C6.82958 15.7435 7.22819 15.9573 7.64414 16.1017C8.0543 16.2519 8.50491 16.3501 8.99596 16.4079C9.31947 16.4368 9.6372 16.4483 9.95494 16.4483C10.4633 16.4483 10.9775 16.4079 11.4916 16.3328C12.0116 16.2519 12.5142 16.1421 13.0052 15.9919C13.346 15.8879 14.1317 15.6222 15.3622 15.1889C15.9457 14.9867 16.4079 14.8308 16.7487 14.7325C16.8122 14.8076 16.8469 14.9059 16.8469 15.0214C16.8469 15.0503 16.8354 15.1254 16.8122 15.2583C16.7891 15.3853 16.7776 15.4951 16.7776 15.576C16.7776 15.6569 16.7891 15.7435 16.818 15.8244C16.8758 15.9168 16.9451 15.9977 17.0376 16.0613C17.0838 16.0959 17.1704 16.1421 17.3033 16.1999C17.4419 16.2288 17.5864 16.2403 17.7308 16.2403C18.0428 16.2403 18.3374 16.1768 18.6089 16.0439C18.8804 15.9168 19.1057 15.7204 19.279 15.4604C19.3888 15.1254 19.4639 14.8365 19.5101 14.5823C19.5505 14.3282 19.5737 14.0277 19.5737 13.6754C19.5737 13.1092 19.5101 12.52 19.3772 11.9018C19.3426 11.6881 19.2155 11.1046 19.0017 10.1398C18.8458 9.41192 18.7418 8.81688 18.6956 8.36628L18.8458 8.16986C18.9555 8.32584 19.0653 8.48182 19.1808 8.62624C19.2559 8.70712 19.331 8.75334 19.4177 8.75334V8.75912ZM10.394 6.51186L10.186 6.81804C9.29058 7.15311 8.62045 7.39574 8.17562 7.55172C6.75448 8.07743 5.64529 8.52226 4.84806 8.88043C4.99827 8.61469 5.29289 8.38939 5.73772 8.21608C6.0959 8.07743 6.46563 7.933 6.83536 7.78858C8.01964 7.36108 9.20393 6.93936 10.3998 6.51186H10.394ZM10.7406 11.4454C10.6944 11.4454 10.6251 11.4223 10.5326 11.3703C10.4402 11.3183 10.3709 11.301 10.3247 11.3068C10.2322 11.4628 10.1745 11.7169 10.1456 12.0636C10.1167 12.4102 10.0763 12.6528 10.0185 12.7915C9.90872 12.699 9.81051 12.5835 9.72964 12.4448C9.59099 12.2253 9.45234 11.9942 9.31369 11.7632C9.27903 11.8209 9.22126 11.8267 9.14616 11.792C9.07106 11.7574 9.02484 11.7343 9.00751 11.7343C8.91508 11.6707 8.86886 11.5783 8.86886 11.457C8.86886 11.4223 8.88042 11.3761 8.90352 11.3183C8.92663 11.2606 8.94974 11.2028 8.97863 11.1392C9.0364 11.0641 9.09417 11.0526 9.15771 11.0988C9.31369 11.249 9.45812 11.4165 9.59677 11.6072C9.72964 11.7978 9.85095 12 9.94916 12.208C10.0127 11.8672 10.0647 11.6072 10.0994 11.4339C10.1802 11.1104 10.3189 10.9486 10.5038 10.9486C10.55 10.9486 10.6193 10.9717 10.706 11.0121C10.7926 11.0526 10.8388 11.1046 10.8388 11.1739C10.8388 11.2201 10.8273 11.2663 10.8042 11.3126C10.7811 11.3588 10.7579 11.405 10.7406 11.4512V11.4454ZM15.2871 17.4188C15.3044 17.5228 15.2756 17.6384 15.1889 17.7655C15.1427 17.829 15.1023 17.8868 15.0734 17.933C15.0387 17.9792 14.9983 18.0023 14.9405 18.0023H14.8423C14.7383 17.8464 14.6921 17.6788 14.6921 17.5055C14.6921 17.3206 14.7499 17.1011 14.8712 16.8411C14.9636 16.639 15.0618 16.4368 15.16 16.2288C15.16 16.3039 15.1023 16.5119 14.9925 16.8527C14.9347 17.026 14.9116 17.1647 14.9116 17.2571C14.9116 17.4246 14.9694 17.5575 15.0791 17.6615C15.1138 17.6442 15.1485 17.6037 15.1774 17.5344C15.2062 17.4651 15.2409 17.4304 15.2871 17.4246V17.4188ZM3.69844 6.18835C3.63489 6.41943 3.40959 6.6274 3.03408 6.81226C2.58348 7.03179 2.28885 7.22244 2.16176 7.37842C2.13287 7.30331 2.1502 7.22243 2.2022 7.13C2.29463 7.02024 2.35817 6.93936 2.39861 6.89314C2.36973 6.86425 2.3004 6.82382 2.18486 6.76605C2.06932 6.70828 2.00578 6.63896 2 6.55808C2.10399 6.35589 2.19642 6.1999 2.2773 6.08436C2.40439 5.8995 2.54304 5.75507 2.69324 5.65686C2.84922 5.69152 2.95898 5.75508 3.02831 5.83596C2.99365 5.99193 2.9301 6.10169 2.84922 6.15368C2.69902 6.03237 2.60659 5.9746 2.56037 5.9746L2.27152 6.32122C2.32929 6.39632 2.39861 6.44832 2.49105 6.48298C2.58348 6.51764 2.68746 6.52919 2.80878 6.52919C2.91277 6.52919 2.99942 6.52919 3.07452 6.51764C3.14962 6.50608 3.24783 6.45986 3.38071 6.37899C3.55402 6.26922 3.66956 6.20568 3.71577 6.18257L3.69844 6.18835ZM6.5985 11.844C6.63316 12.0405 6.57539 12.2253 6.41941 12.3986C6.35586 12.4564 6.30387 12.4853 6.27499 12.4968C6.24032 12.5084 6.20566 12.4968 6.171 12.4564C6.06701 12.3004 6.0208 12.1271 6.0208 11.9422C6.0208 11.792 6.05546 11.6361 6.11901 11.4628C6.18255 11.2894 6.26921 11.1161 6.36742 10.9428C6.36742 11.0064 6.33853 11.1335 6.28654 11.3183C6.22877 11.5032 6.20566 11.6476 6.20566 11.7458C6.20566 11.9018 6.26343 12.0347 6.3732 12.1329C6.43674 12.1213 6.48296 12.0751 6.50607 11.9942C6.52917 11.9134 6.56384 11.8614 6.61005 11.844H6.5985ZM7.64991 17.5691C7.56904 17.7077 7.4766 17.8406 7.37262 17.9619C7.26863 18.089 7.17042 18.2161 7.06644 18.3432L6.16522 17.8868C6.21144 17.7308 6.29232 17.5748 6.40208 17.4304C6.46563 17.3495 6.59272 17.2167 6.77759 17.0433C6.8238 17.0722 6.93356 17.1242 7.11265 17.1935C7.37262 17.3033 7.5517 17.4304 7.65569 17.5691H7.64991Z" fill="white"/>
</svg>
