<svg width="24" height="24" viewBox="0 0 24 24" fill="none" xmlns="http://www.w3.org/2000/svg">
<path fill-rule="evenodd" clip-rule="evenodd" d="M22 5.78929C21.9673 5.97908 21.856 6.12961 21.6728 6.24741C20.017 6.80369 18.3613 7.35343 16.712 7.89662C16.699 7.75919 16.7709 7.63485 16.9215 7.53013C17.072 7.41888 17.1571 7.35998 17.1636 7.34689C18.7736 6.83642 20.3901 6.31285 22 5.78929ZM17.8508 10.4228C17.8508 10.7697 17.7461 11.0773 17.5366 11.3521C17.4123 11.3652 17.301 11.3194 17.1963 11.2278C17.0982 11.1362 17.0327 11.0314 17 10.9136C17 10.6649 17.0262 10.4424 17.0785 10.2461C17.1309 10.0498 17.216 9.81416 17.3272 9.53275C17.3469 9.62437 17.3272 9.78799 17.2749 10.0105C17.216 10.233 17.1898 10.3901 17.1898 10.4752C17.1898 10.593 17.216 10.6846 17.2683 10.7566C17.3207 10.8286 17.4188 10.8809 17.5694 10.9136C17.6021 10.7435 17.6348 10.6257 17.6741 10.5602C17.7134 10.4948 17.7723 10.449 17.8573 10.4293L17.8508 10.4228ZM11.5681 9.08772C11.483 9.22516 11.3979 9.35605 11.3194 9.48039C11.4045 9.31024 11.4634 9.15317 11.4895 8.9961C11.5223 8.83903 11.5353 8.64924 11.5353 8.43327C11.5353 8.08641 11.483 7.75265 11.3717 7.41888C11.2605 7.09165 11.1034 6.77752 10.894 6.48301C10.9267 6.39794 10.9594 6.31285 10.9856 6.23432C11.0249 6.16887 11.0772 6.1427 11.1427 6.1427C11.339 6.4372 11.4961 6.74479 11.6073 7.07856C11.7186 7.40579 11.7709 7.7461 11.7709 8.09296C11.7709 8.45945 11.7055 8.79322 11.5681 9.10082V9.08772ZM21.8691 14.4149C21.8691 14.0485 21.6859 13.7278 21.3194 13.4595C20.9921 13.2697 20.6715 13.0799 20.3442 12.8966C19.9058 12.6348 19.4542 12.504 18.9961 12.504C18.3024 12.504 17.5497 12.8508 16.7317 13.538C16.0838 14.1466 15.4359 14.7553 14.7814 15.3574C14.8861 15.004 14.9647 14.6506 15.0105 14.3037C15.0563 13.9568 15.0825 13.5838 15.0825 13.1715C15.0825 12.6348 15.0497 12.0917 14.9908 11.5354C14.8992 10.8875 14.801 10.2134 14.7029 9.50657C14.6047 8.80631 14.5524 8.17804 14.5524 7.62176L14.7094 7.30762C14.7094 7.30762 14.8207 7.4516 14.945 7.63484C15.0366 7.77228 15.1152 7.8639 15.1806 7.91626C15.1086 7.3927 14.9908 6.90841 14.8272 6.46338C14.6636 6.01836 14.4607 5.5995 14.2055 5.21338C14.1401 5.33118 14.0353 5.50788 13.8783 5.75003C13.7605 5.97254 13.7081 6.16233 13.7081 6.33249C13.7081 6.45029 13.7277 6.54846 13.7736 6.63354L14.572 13.2304C14.5851 13.3482 14.6047 13.5184 14.6374 13.754C14.6702 13.9896 14.6832 14.2055 14.6832 14.4084C14.6832 14.6571 14.6702 14.8796 14.6374 15.0759C14.6047 15.2723 14.5458 15.4555 14.4673 15.6322L13.8063 16.339C13.7343 16.5157 13.623 16.6139 13.4791 16.6401C13.3351 16.6597 13.1715 16.6728 12.9948 16.6728H12.6348C12.445 16.6728 12.3076 16.6859 12.2291 16.7055C12.1963 16.7055 12.144 16.7055 12.072 16.7186H11.8037C10.8809 16.7186 10.0236 16.4765 9.21859 15.9987C8.42016 15.5144 7.75262 14.8665 7.21597 14.0485C6.65969 14.271 6.20812 14.9123 5.84817 15.9791C5.61911 16.6466 5.42277 17.1047 5.26571 17.3469C5.12827 17.5236 4.94503 17.6152 4.71597 17.6152C4.65052 17.6152 4.57199 17.6021 4.46728 17.5825C3.82592 17.288 3.39398 16.7579 3.16492 15.9987C3.1322 15.8809 3.02094 15.2003 2.81806 13.9437L3.00785 13.911C3.25 13.7343 3.4267 13.5053 3.5445 13.2304C3.6623 12.9555 3.71466 12.6545 3.71466 12.3273C3.71466 12.2422 3.70157 12.1309 3.68194 11.9804C3.64267 12.0197 3.60995 12.072 3.59686 12.1244C3.58377 12.1767 3.57068 12.2422 3.55759 12.3273C3.4856 12.4647 3.39398 12.5694 3.28927 12.6479C3.18455 12.7265 3.06675 12.7526 2.94241 12.7199C2.66754 12.3403 2.53665 11.928 2.53665 11.4765C2.53665 11.0576 2.66099 10.5602 2.91623 9.98432C3.13874 9.52621 3.36126 9.06155 3.59031 8.60343C3.4856 8.66888 3.38089 8.78668 3.27618 8.96992C3.17147 9.15317 3.09293 9.27097 3.04058 9.32333C2.67408 10.0367 2.44503 10.5144 2.34686 10.7697C2.1178 11.3587 2 11.8888 2 12.3731C2 12.6676 2.04581 12.9424 2.13089 13.1977C2.22251 13.4529 2.36649 13.6951 2.56283 13.911C2.56283 14.6767 2.59555 15.3377 2.65445 15.9006C2.7199 16.4634 2.87042 16.9804 3.11256 17.4647C3.40707 17.9032 3.64267 18.2042 3.81937 18.3613C4.12042 18.6427 4.44764 18.7867 4.7945 18.7867C4.89921 18.7867 4.97775 18.7867 5.0301 18.7736C5.22644 18.6296 5.40314 18.4333 5.54712 18.1977C5.6911 17.9621 5.84817 17.5694 6.01832 17.0131C6.15576 16.555 6.27356 16.2147 6.37827 16.0053C6.54843 15.6584 6.77094 15.3901 7.05236 15.1872C7.3534 15.7828 7.75262 16.2998 8.24346 16.7448C8.7801 17.2291 9.36257 17.5301 10.0039 17.6545C10.6453 17.7788 11.3455 17.8443 12.1113 17.8443C12.7199 17.8443 13.3154 17.8116 13.911 17.7527C14.5 17.6872 15.1086 17.6087 15.7238 17.504C16.6793 17.3469 17.5955 17.1506 18.4856 16.9084C19.3757 16.6663 20.2788 16.3783 21.2016 16.0445C21.3456 15.7958 21.5026 15.5406 21.6597 15.2919C21.8298 14.9909 21.9018 14.7029 21.8822 14.428L21.8691 14.4149ZM12.3338 11.5877C12.3469 11.6401 12.3338 11.7055 12.2945 11.7841C12.2552 11.8626 12.2421 11.928 12.2421 11.9804C12.1571 11.915 12.072 11.8495 11.9738 11.7841C11.8822 11.7186 11.7906 11.6924 11.7055 11.7121C11.6008 12.3534 11.4961 12.9882 11.3914 13.6296C11.2343 13.5445 11.0838 13.3024 10.9332 12.9097C10.7893 12.5105 10.5864 12.3142 10.3377 12.3142C10.2723 12.3142 10.1872 12.3273 10.0694 12.36C9.99738 12.3207 9.95812 12.2553 9.95812 12.1702C9.95812 12.1178 9.9712 12.0393 10.0039 11.9346C10.0366 11.8299 10.0497 11.7579 10.0497 11.7121C10.0825 11.6466 10.1545 11.5615 10.2723 11.4437C10.5144 11.5615 10.7238 11.7972 10.9005 12.1636C11.1492 12.7003 11.3063 12.9948 11.3586 13.0602C11.3717 12.9882 11.3914 12.7265 11.4306 12.2749C11.4699 11.8233 11.5681 11.4896 11.7382 11.267C11.9869 11.267 12.1898 11.3718 12.3338 11.5812V11.5877ZM8.36126 7.42542C8.38089 7.5105 8.39398 7.5694 8.39398 7.59558C8.39398 7.68066 8.34817 7.79191 8.25 7.9228C8.15838 8.06024 8.10602 8.14532 8.09293 8.19113C8.00785 8.19113 7.85079 8.13223 7.62173 8.02097C7.49738 7.95553 7.39267 7.92935 7.30759 7.92935C6.92147 8.36783 6.47644 8.76705 5.97251 9.12045C5.34424 9.55893 4.48691 10.0105 3.39398 10.4686C4.63743 9.5982 5.88743 8.72778 7.13089 7.8639C7.1178 7.85082 7.05236 7.82464 6.92147 7.77228C6.79058 7.71993 6.71204 7.64793 6.67932 7.54977C6.71204 7.32725 6.78403 7.11783 6.90183 6.92149C6.96728 6.81678 7.09817 6.62699 7.30759 6.35867C7.54974 6.41102 7.76571 6.53537 7.94895 6.73825C8.13874 6.93458 8.27618 7.17019 8.35471 7.43197L8.36126 7.42542ZM5.17408 13.911C5.13482 14.1008 5.09555 14.2841 5.06283 14.4608C5.02356 14.5786 4.95811 14.6636 4.87304 14.7291C4.75524 14.7291 4.66361 14.6898 4.58508 14.6113C4.50654 14.5328 4.44764 14.4346 4.40183 14.3233C4.38874 14.2579 4.38874 14.1597 4.38874 14.0223C4.38874 13.7474 4.42147 13.4856 4.49346 13.2369C4.5589 12.9883 4.65707 12.7265 4.78141 12.4516C4.70942 12.8508 4.63743 13.2435 4.57853 13.6296C4.57853 13.911 4.66361 14.1335 4.82722 14.2906C4.9123 14.3102 4.96466 14.2841 4.99084 14.2055C5.01702 14.127 5.04319 14.0288 5.07592 13.9176H5.16754L5.17408 13.911ZM21.0838 15.1218C19.9712 15.5013 18.8914 15.7958 17.8377 16.0184C16.784 16.2409 15.5995 16.4176 14.2775 16.555C14.7487 16.0838 15.2199 15.6061 15.6911 15.1283C16.6728 14.1532 17.5628 13.6689 18.3613 13.6689C18.4856 13.6689 18.623 13.682 18.767 13.7016C18.911 13.7212 19.055 13.7605 19.199 13.8194C19.3429 13.8783 19.6047 13.983 19.9908 14.1401C20.534 14.3888 20.894 14.7225 21.0772 15.1283L21.0838 15.1218ZM8.09293 7.72647C8.09293 7.72647 7.98168 7.67411 7.82461 7.62176C7.66754 7.5694 7.589 7.51704 7.589 7.45814C7.589 7.40579 7.60864 7.35343 7.65445 7.30108L7.68717 7.1571C7.79188 7.19636 7.87696 7.28144 7.93586 7.40579C7.96859 7.47123 8.02094 7.57595 8.09293 7.71992V7.72647ZM7.37304 7.42542C7.37304 7.42542 7.26832 7.38615 7.11126 7.34034C6.96073 7.29453 6.90838 7.22254 6.96073 7.13092C7.01309 7.07856 7.07199 7.05238 7.13089 7.05238C7.26832 7.05238 7.34686 7.11128 7.36649 7.22254V7.42542H7.37304Z" fill="white"/>
</svg>
