<svg width="24" height="24" viewBox="0 0 24 24" fill="none" xmlns="http://www.w3.org/2000/svg">
<path fill-rule="evenodd" clip-rule="evenodd" d="M22 9.1466C21.9031 9.12018 21.8195 9.04092 21.7578 8.91323C21.6962 8.78553 21.6301 8.67544 21.5685 8.58737L21.4848 8.70186C21.4848 9.06294 21.5068 9.48565 21.5465 9.97883C21.6433 11.1325 21.6962 11.8635 21.6962 12.1673C21.6962 12.8718 21.6653 13.4399 21.5993 13.867C21.5156 14.4394 21.3571 14.959 21.1237 15.4302C21.203 15.0163 21.2558 14.6111 21.2823 14.2148C21.3087 13.8185 21.3263 13.3782 21.3263 12.8938C21.3263 12.295 21.2999 11.6301 21.2426 10.8947C21.2206 10.6217 21.1105 9.52969 20.9036 7.61864C20.9036 7.51296 20.9256 7.41608 20.9652 7.32361C21.0092 7.23114 21.1193 7.07263 21.3043 6.84806C21.4672 7.26197 21.5993 7.64066 21.705 7.97972C21.8371 8.39363 21.9384 8.78112 22 9.1422V9.1466ZM17.5923 9.0101C17.3457 9.10257 17.1915 9.16421 17.1255 9.19503C17.0594 9.22586 16.9802 9.2831 16.8833 9.37116C16.8217 9.37116 16.76 9.35356 16.6984 9.31393C16.6367 9.2743 16.5795 9.23467 16.5222 9.19064C16.487 9.12019 16.4694 9.0233 16.4694 8.90441C16.4694 8.70626 16.5266 8.50811 16.6367 8.31436C16.6499 8.34959 16.6499 8.41565 16.6323 8.51693C16.6147 8.6138 16.6059 8.67544 16.6059 8.69745C16.6059 8.80313 16.6499 8.88239 16.7336 8.93083C16.7908 8.94404 16.8437 8.93084 16.8965 8.8824C16.9494 8.83837 16.9846 8.81195 17.0066 8.80314C17.0198 8.64022 17.033 8.50371 17.0418 8.38923C17.0506 8.27474 17.0947 8.19988 17.1739 8.15585V8.3584C17.1739 8.46408 17.1871 8.55215 17.2092 8.6182C17.2356 8.68425 17.2884 8.73269 17.3721 8.75911C17.469 8.72388 17.5218 8.67985 17.5218 8.6226C17.5086 8.58738 17.4954 8.56535 17.491 8.56095C17.4557 8.4905 17.4381 8.42885 17.4381 8.38041C17.4381 8.30115 17.4646 8.2263 17.5218 8.14704C17.6187 8.26593 17.6715 8.42885 17.6715 8.63141C17.6715 8.77231 17.6451 8.90002 17.5878 9.0101H17.5923ZM17.8653 6.81282C17.3721 6.96254 16.8701 7.11666 16.3549 7.28398C15.8397 7.45131 15.3686 7.60103 14.937 7.74193C14.6684 7.8344 14.1841 7.99733 13.4795 8.23951C13.3474 8.29676 13.2285 8.38483 13.1273 8.50372C13.026 8.62261 12.9731 8.73709 12.9731 8.84277C13.4399 8.60939 13.9375 8.39363 14.4747 8.19989C14.8005 8.081 15.3113 7.90486 16.0159 7.67148C16.8613 7.38967 17.3809 7.21794 17.5702 7.15189L17.8653 6.81282ZM17.6979 10.6702C17.7111 10.7186 17.7067 10.7758 17.6891 10.8375C17.6407 10.952 17.5923 11.0621 17.5526 11.1765C17.5174 11.1897 17.469 11.1854 17.4117 11.1677C17.3501 11.1457 17.306 11.0973 17.2752 11.018C17.2444 10.9388 17.2268 10.8683 17.2268 10.7979C17.2268 10.7054 17.2532 10.5997 17.306 10.4808C17.3589 10.3619 17.3985 10.2739 17.4293 10.2166C17.3941 10.3091 17.3765 10.406 17.3765 10.5116C17.3765 10.6746 17.4293 10.7934 17.535 10.8727C17.5702 10.8639 17.6055 10.8331 17.6363 10.7758C17.6671 10.7186 17.6891 10.6834 17.7067 10.6702H17.6979ZM12.6341 7.90045C12.5856 8.06337 12.5548 8.15585 12.5504 8.17347C12.5064 8.27034 12.4447 8.3496 12.3611 8.40684C12.2906 8.42005 12.229 8.41124 12.1761 8.38041C12.1233 8.34959 12.0881 8.30996 12.0705 8.27033C12.0528 8.22629 12.0396 8.18227 12.0352 8.13823C12.0264 8.0942 12.0264 8.05017 12.0264 8.01494C12.0264 7.90926 12.0528 7.79477 12.1013 7.66707C12.1101 7.64506 12.2026 7.46452 12.3875 7.12986C12.3875 7.18711 12.3567 7.2972 12.2906 7.45572C12.229 7.61864 12.1937 7.74194 12.1937 7.8256C12.1937 7.94009 12.2334 8.03255 12.3082 8.11181C12.3787 8.13383 12.4403 8.103 12.4932 8.02374C12.546 7.94448 12.5945 7.90045 12.6341 7.90045ZM19.2391 8.8736C19.107 8.43767 18.9705 7.99733 18.8384 7.55259C18.7459 7.24876 18.6358 6.98897 18.5126 6.7688C18.4069 6.88329 18.3276 6.99776 18.2748 7.11665C18.2219 7.23554 18.1779 7.37646 18.1427 7.53938C18.1867 7.87844 18.288 8.50812 18.4509 9.43282C18.583 10.2166 18.6843 10.8375 18.7459 11.3042C18.8384 12 18.8824 12.6341 18.8824 13.2065C18.6931 13.3738 18.4421 13.5235 18.1383 13.6512C17.83 13.7789 17.3765 13.9595 16.7688 14.1884C16.4386 14.2809 16.1039 14.4526 15.7649 14.708C15.5667 14.8577 15.2717 15.1175 14.8754 15.4918C14.391 15.941 14.0123 16.2492 13.7393 16.4121C13.4663 16.575 13.2065 16.6851 12.9511 16.738C12.8102 16.738 12.6869 16.7072 12.5768 16.6499C12.4668 16.5883 12.3655 16.5046 12.2642 16.3901C12.1805 16.2052 12.1365 16.0334 12.1365 15.8705C12.1365 15.7516 12.1585 15.6239 12.207 15.483C12.251 15.3465 12.3038 15.2188 12.3655 15.1043C12.4271 14.9898 12.5768 14.7389 12.8234 14.3602C12.9379 14.1928 13.0172 14.0519 13.0656 13.9462C12.9819 14.0607 12.8542 14.2281 12.6869 14.4526C12.5196 14.6772 12.3919 14.8577 12.3082 14.9898C12.2026 15.1572 12.1233 15.2981 12.0749 15.4126C11.956 15.6812 11.8943 15.941 11.8943 16.1964C11.8943 16.3373 11.9384 16.4826 12.022 16.6279C12.1057 16.7776 12.2686 16.9361 12.5064 17.1035C12.6913 17.1871 12.8807 17.2311 13.0788 17.2311C13.4883 17.2311 13.8362 17.0946 14.1268 16.8172C14.4923 16.4738 14.8225 16.1831 15.122 15.9498C15.4522 15.6944 15.7957 15.4698 16.1524 15.2717C16.509 15.0735 16.8789 14.893 17.2664 14.7345C17.6539 14.5715 18.0458 14.4218 18.4377 14.2809C18.7107 14.0343 18.9044 13.7393 19.0189 13.3914C19.1114 13.1096 19.1554 12.7617 19.1554 12.3434C19.1554 12.0748 19.085 11.4407 18.9441 10.4412C18.8824 9.99205 18.8472 9.63097 18.8472 9.36236C18.8472 9.29191 18.8384 9.20384 18.8164 9.09816C18.7723 8.8868 18.7547 8.75029 18.7547 8.68424C18.7547 8.56535 18.7856 8.46408 18.8516 8.37602C18.8956 8.4817 18.9441 8.60058 19.0057 8.72828C19.0674 8.86038 19.1202 8.92203 19.1686 8.92203C19.1951 8.92203 19.2215 8.90002 19.2435 8.86039L19.2391 8.8736ZM10.0978 7.70231C10.1198 7.74634 10.1286 7.79037 10.1286 7.83881C10.1286 7.90926 10.111 7.97971 10.0757 8.05016C10.0405 8.12061 10.0053 8.19107 9.97006 8.26153C9.86438 8.42885 9.71907 8.51693 9.53853 8.51693C9.48129 8.51693 9.42404 8.50812 9.35799 8.4861C9.24351 8.42886 9.19067 8.31877 9.19067 8.14704C9.19067 8.05016 9.20828 7.95769 9.24351 7.87403L9.51651 7.33682C9.51651 7.38526 9.5033 7.45132 9.47248 7.53938C9.40203 7.75955 9.3668 7.89606 9.3668 7.9533C9.3668 8.0854 9.42845 8.17346 9.55614 8.21749C9.6354 8.2307 9.70145 8.2263 9.7587 8.19548C9.81594 8.16906 9.87759 8.11622 9.94804 8.04577C9.94804 7.97531 9.88639 7.89605 9.7587 7.81239C9.631 7.72873 9.56935 7.65827 9.56935 7.60102C9.56935 7.54378 9.60898 7.48214 9.68384 7.41168C9.78071 7.4381 9.86438 7.47333 9.92602 7.51736C9.98767 7.56139 10.0449 7.62304 10.0934 7.7067L10.0978 7.70231ZM7.62307 8.07219C7.62307 8.16906 7.60986 8.25713 7.58785 8.33639C7.56143 8.41565 7.51739 8.49931 7.45575 8.59178C7.3985 8.6182 7.34126 8.63581 7.28842 8.63581C7.25319 8.63581 7.21797 8.627 7.18274 8.60499C7.08587 8.51252 7.03303 8.38483 7.03303 8.2131C7.03303 8.16906 7.04183 8.12063 7.05504 8.06338C7.06825 8.00614 7.08146 7.95329 7.09908 7.90486L7.31044 7.46011C7.30163 7.52176 7.27961 7.61864 7.23998 7.75074C7.20035 7.88284 7.18274 7.97091 7.18274 8.01935C7.18274 8.13824 7.22677 8.23951 7.31044 8.31436C7.3941 8.32757 7.46015 8.30556 7.49978 8.24391C7.54381 8.18226 7.58344 8.12502 7.62748 8.06778L7.62307 8.07219ZM10.1506 10.1021L10.0757 10.3135C10.0405 10.3135 9.98767 10.3047 9.91722 10.2871C9.84676 10.2695 9.80273 10.2606 9.78952 10.2606C9.73228 10.2606 9.67944 10.2871 9.631 10.3443C9.56935 10.4632 9.50771 10.6834 9.44606 11.0048C9.38441 11.3263 9.30956 11.5464 9.21708 11.6653L8.77235 10.8419C8.74593 10.8683 8.7107 10.8859 8.66667 10.8859C8.64025 10.8859 8.61383 10.8859 8.59181 10.8771C8.53016 10.8507 8.48613 10.8331 8.46411 10.8243C8.38485 10.767 8.34963 10.6922 8.34963 10.6041C8.34963 10.5425 8.35843 10.4852 8.37164 10.4368C8.38485 10.3883 8.40247 10.3399 8.42448 10.2959C8.4465 10.2518 8.48173 10.2254 8.53016 10.2254C8.5786 10.2254 8.62263 10.243 8.65786 10.2783C8.75033 10.3707 8.8384 10.4896 8.92206 10.6393C9.04095 10.8639 9.15984 11.0885 9.28314 11.3175C9.34038 10.9652 9.38882 10.6966 9.43285 10.516C9.51211 10.177 9.64421 10.0097 9.83355 10.0097C9.92602 10.0097 10.0317 10.0449 10.1506 10.1153V10.1021ZM9.93043 12.5416C9.8952 12.6825 9.86878 12.7838 9.85557 12.8498C9.82034 12.9687 9.7631 13.0568 9.68824 13.114C9.60898 13.1404 9.54293 13.1316 9.48569 13.0832C9.47688 13.0744 9.43725 13.0215 9.35799 12.9247C9.35799 12.7573 9.38001 12.6032 9.42845 12.4711C9.47248 12.339 9.55174 12.2069 9.66623 12.0792C9.66623 12.1277 9.63981 12.2113 9.58256 12.3214C9.52532 12.4359 9.4989 12.524 9.4989 12.5856C9.4989 12.6825 9.55614 12.7617 9.66623 12.819C9.74549 12.8278 9.79833 12.7838 9.82915 12.6913C9.85997 12.5988 9.8952 12.5504 9.93043 12.5416ZM16.5354 11.5464C16.3857 11.5949 15.8926 11.8194 15.0559 12.2245C14.4571 12.5152 13.9463 12.6561 13.5236 12.6561C13.2506 12.6561 12.9687 12.5988 12.6781 12.4887C12.4227 12.3346 12.2158 12.1365 12.0528 11.8987C11.8899 11.6609 11.7974 11.4011 11.7666 11.1281C12.4712 10.6349 13.2902 10.3884 14.2193 10.3884C14.642 10.3884 15.0339 10.4456 15.3906 10.5557C15.188 10.3091 14.9414 10.1285 14.6508 10.0185C14.3602 9.90397 14.0432 9.85114 13.6909 9.85114C13.4179 9.85114 13.1185 9.89517 12.8014 9.97883C12.4403 10.0977 12.1145 10.3223 11.8239 10.6569C11.5332 10.9872 11.3307 11.3351 11.225 11.6917L11.247 11.6697C11.3175 12.0132 11.4408 12.3346 11.6213 12.6297C11.8019 12.9247 12.0308 13.1625 12.3126 13.3386C11.8415 13.5764 11.3527 13.7657 10.8419 13.8978C10.3355 14.0299 9.82475 14.1004 9.30956 14.1004C9.28314 14.1004 9.2303 14.1092 9.15103 14.1224H8.90885C8.27477 14.1224 7.77279 13.9374 7.40731 13.572C7.1255 13.2901 6.88771 12.8498 6.69837 12.251C6.58388 11.8767 6.42536 11.291 6.22281 10.4984C6.01145 9.82032 5.73404 9.32714 5.38617 9.0189L5.21885 9.83352C5.72523 10.5601 6.0731 11.3527 6.26684 12.2113C6.28886 12.295 6.29767 12.3743 6.29767 12.4447C6.29767 12.6296 6.23602 12.8102 6.10832 12.9951C6.08631 13.0304 5.96301 13.1801 5.73844 13.4399C5.21004 13.8626 4.72127 14.1752 4.26772 14.3822C3.71731 14.6376 3.15808 14.7609 2.58565 14.7609C2.45795 14.7036 2.37428 14.642 2.32585 14.5715C2.28181 14.5011 2.25539 14.4174 2.25539 14.3161C2.25539 14.2149 2.30823 14.0387 2.41391 13.7789C2.51959 13.5191 2.56363 13.3254 2.54161 13.1977C2.37869 13.4883 2.2598 13.7305 2.18054 13.9286C2.06165 14.2369 2 14.5143 2 14.7521C2 14.9898 2.05724 15.2232 2.16733 15.4302C2.24659 15.527 2.35667 15.5975 2.50638 15.6415C2.63408 15.6636 2.76178 15.6856 2.88507 15.7164C3.73932 15.5182 4.46147 15.232 5.05152 14.8489C5.80009 14.3646 6.27125 13.7657 6.4694 13.0524C6.55306 13.3914 6.68956 13.6953 6.88331 13.9727C7.20916 14.3381 7.57023 14.6023 7.97094 14.7653C8.32321 14.9062 8.72831 14.9766 9.18626 14.9766C9.64421 14.9766 10.1902 14.8886 10.7803 14.7124C11.203 14.5847 11.727 14.391 12.3567 14.1312C13.1801 13.7877 13.6601 13.5896 13.7922 13.5411C14.0035 13.3782 14.3866 13.1977 14.9458 12.9907C15.5007 12.7882 15.8838 12.5944 16.0863 12.4183L16.5178 11.564L16.5354 11.5464ZM4.22369 7.15189C4.2325 7.19592 4.22369 7.23995 4.21488 7.28839C4.20167 7.33683 4.18846 7.38526 4.17085 7.42489C4.1092 7.41168 4.04315 7.39407 3.98151 7.37206C3.95509 7.37206 3.91986 7.38967 3.88463 7.42489C3.79216 7.55259 3.72171 7.78157 3.67327 8.11622C3.62483 8.45088 3.55878 8.67984 3.48393 8.79874C3.42668 8.71947 3.36063 8.58297 3.29018 8.38041C3.21532 8.17786 3.14487 8.03255 3.07442 7.94008C3.0524 7.9753 3.02158 7.99293 2.97754 7.99293C2.94232 7.99293 2.89828 7.98412 2.84985 7.9621C2.80141 7.94009 2.75297 7.91806 2.71334 7.90045C2.63408 7.85201 2.59886 7.78597 2.59886 7.6979C2.59886 7.64065 2.61207 7.57461 2.63408 7.49535C2.6605 7.41609 2.66931 7.36765 2.66931 7.34564C2.76178 7.26638 2.83223 7.23555 2.88067 7.24876C3.03479 7.38967 3.17569 7.60103 3.30339 7.88284C3.36504 8.02375 3.42668 8.16466 3.48393 8.30556C3.51035 8.24392 3.55878 8.05898 3.62043 7.75514C3.7129 7.33242 3.88023 7.09904 4.12682 7.05941L4.22369 7.14307V7.15189ZM11.5156 16.4518C11.3131 16.6851 11.0489 16.8657 10.7318 16.989C10.6394 17.0242 10.5469 17.055 10.4588 17.077C10.3664 17.1034 10.2475 17.1123 10.0978 17.1123C10.0009 17.1123 9.88639 17.0946 9.7587 17.0594C9.69705 17.0154 9.64861 16.989 9.62219 16.9758C9.56495 16.9405 9.53413 16.9053 9.52092 16.8745C9.50771 16.8436 9.5033 16.8128 9.5033 16.7908V16.7424C9.5033 16.6235 9.54293 16.509 9.61779 16.3989C9.69705 16.2888 9.79833 16.1875 9.92602 16.0863C9.85557 16.0422 9.80713 16.0114 9.77631 15.9894C9.71907 15.9454 9.67944 15.9013 9.66182 15.8529C9.73228 15.734 9.81154 15.6327 9.8952 15.5447C10.0097 15.4302 10.1154 15.3773 10.221 15.3773C10.2783 15.3773 10.3355 15.3949 10.3884 15.4302C10.3752 15.5579 10.3091 15.6459 10.199 15.6944C10.1638 15.6371 10.0845 15.6151 9.96565 15.6327L9.92162 15.6856C9.98327 15.7428 10.0537 15.7912 10.133 15.8265C10.2122 15.8661 10.2871 15.8749 10.3664 15.8529C10.4016 15.8177 10.45 15.7913 10.5073 15.778C10.5689 15.7648 10.6394 15.7472 10.723 15.7252C10.701 15.7604 10.4676 15.9234 10.0141 16.2096C9.84676 16.3241 9.74108 16.4562 9.69705 16.6103C9.86438 16.7732 10.0669 16.8525 10.3003 16.8525C10.4852 16.8525 10.6966 16.804 10.9344 16.7027C11.203 16.5751 11.3923 16.487 11.5068 16.4385L11.5156 16.4518ZM4.07398 9.45483C4.09599 9.53409 4.09159 9.60896 4.05636 9.68381C4.02554 9.75867 3.9683 9.84673 3.89344 9.95241C3.77455 10.0581 3.65126 10.1418 3.52796 10.199C3.40467 10.2606 3.27697 10.2871 3.14047 10.2871C3.1889 10.2078 3.30339 10.1241 3.48393 10.0273C3.66447 9.9304 3.78336 9.84232 3.84941 9.75866C3.73052 9.72343 3.61162 9.70582 3.48833 9.70582C3.38265 9.70582 3.29899 9.71904 3.23294 9.74106C3.17129 9.76748 3.11405 9.81151 3.06561 9.87315H3.02158C3.03479 9.77628 3.06561 9.68821 3.10964 9.60895C3.15368 9.52969 3.21973 9.47686 3.29899 9.45044C3.37825 9.42402 3.46631 9.4064 3.55878 9.4064C3.61603 9.4064 3.7129 9.4152 3.84941 9.42841C3.98591 9.44162 4.06077 9.45044 4.06517 9.45044L4.07398 9.45483ZM4.41303 12.5724C4.42624 12.6296 4.43505 12.6693 4.43505 12.6869C4.43505 12.7662 4.40423 12.8718 4.33818 13.0039C4.30295 13.0656 4.27213 13.1272 4.2413 13.1845C4.22809 13.1845 4.18846 13.1933 4.11801 13.2153C4.05196 13.2373 3.99912 13.2329 3.96389 13.2065C3.8362 13.1096 3.77455 12.9687 3.77455 12.7838C3.77455 12.7397 3.78336 12.6869 3.79657 12.6164C3.85821 12.4535 3.90665 12.3346 3.93307 12.2554C3.99031 12.1277 4.05196 12.0132 4.12241 11.9075C4.12241 11.9339 4.07838 12.0748 3.98591 12.3302C3.94188 12.4447 3.92426 12.5372 3.92426 12.6164C3.92426 12.7441 3.98151 12.8454 4.09159 12.9247C4.18406 12.9379 4.25011 12.9027 4.29414 12.819C4.33818 12.7353 4.3734 12.6517 4.40863 12.5768L4.41303 12.5724Z" fill="white"/>
</svg>
