<svg width="24" height="24" viewBox="0 0 24 24" fill="none" xmlns="http://www.w3.org/2000/svg">
<path fill-rule="evenodd" clip-rule="evenodd" d="M22 9.97501C21.9483 9.95778 21.888 9.90608 21.8234 9.81991C21.7587 9.73374 21.7027 9.67773 21.6639 9.65619C21.6639 9.66912 21.651 9.68635 21.6209 9.70789C21.5907 9.72943 21.5821 9.75098 21.595 9.76821L21.5692 9.75959C21.5692 10.1215 21.6036 10.5524 21.6726 11.0478C21.7415 11.5433 21.8104 12.0215 21.8794 12.4826C21.8966 12.6334 21.9095 12.7841 21.9224 12.9393C21.9354 13.0944 21.9397 13.2452 21.9397 13.396C21.9397 13.7277 21.9138 14.0336 21.8578 14.3137C21.8018 14.5937 21.707 14.8738 21.5692 15.1538C21.6079 14.9815 21.6381 14.7962 21.6553 14.5937C21.6726 14.3912 21.6812 14.193 21.6812 13.9991C21.6812 13.5338 21.6252 12.8919 21.5088 12.0776C21.427 11.5131 21.3796 11.134 21.3623 10.9401C21.246 10.2292 21.134 9.514 21.0263 8.8031C21.0478 8.66954 21.0866 8.55322 21.134 8.44982C21.1814 8.34641 21.246 8.25593 21.3279 8.18269C21.3839 8.33348 21.483 8.55752 21.6209 8.8548C21.832 9.3072 21.9612 9.68204 22 9.97501ZM18.7945 8.56183C18.7299 8.66954 18.648 8.76002 18.5403 8.82895C18.4326 8.89789 18.299 8.96252 18.131 9.01853C17.9629 9.07454 17.838 9.12194 17.7518 9.1564C17.5967 9.21241 17.4718 9.28135 17.3727 9.35459C17.4244 9.23395 17.5019 9.13487 17.6097 9.053C17.7174 8.97114 17.8509 8.90652 18.019 8.8505C18.187 8.79449 18.3119 8.75571 18.3981 8.72555C18.5575 8.66954 18.6911 8.61353 18.7945 8.56183ZM18.8031 9.69928C18.7686 9.85007 18.6394 9.96641 18.4153 10.0526C18.1008 10.1732 17.9156 10.2551 17.8639 10.2939C17.8639 10.2594 17.8854 10.2163 17.9285 10.1646C17.9716 10.1129 17.9974 10.0698 18.0017 10.0353C17.894 9.99656 17.838 9.919 17.838 9.81129C17.838 9.74666 17.8682 9.68204 17.9328 9.61741C17.9974 9.55279 18.0534 9.49678 18.1051 9.458C18.1784 9.40199 18.2516 9.37183 18.3206 9.37183C18.3895 9.37183 18.4455 9.39768 18.4929 9.44938C18.4757 9.55709 18.4326 9.63033 18.3636 9.6648C18.3162 9.63033 18.2645 9.6131 18.1999 9.6131C18.1482 9.6131 18.1094 9.62603 18.0793 9.65619L18.0362 9.69928C18.0534 9.75098 18.0965 9.78975 18.1698 9.81129C18.243 9.83283 18.2947 9.85008 18.3292 9.863L18.8031 9.69928ZM20.2249 9.95779C20.2249 9.68205 20.1474 9.37614 19.9922 9.03577C19.9362 8.91082 19.7811 8.62646 19.5269 8.18269C19.4709 8.28178 19.4149 8.38088 19.3589 8.48428C19.3029 8.58768 19.277 8.68247 19.277 8.76864C19.277 8.83327 19.2857 8.87636 19.3029 8.90652C19.3244 9.07455 19.4494 9.82422 19.6734 11.1642C19.7553 11.6596 19.8199 12.112 19.8716 12.5256C19.8716 12.6247 19.8845 12.7626 19.9147 12.9479C19.9449 13.1331 19.9578 13.271 19.9578 13.3615C19.9578 13.4951 19.9362 13.6114 19.8975 13.7148C19.8113 13.4261 19.6691 13.1374 19.4666 12.8445C19.2986 12.6032 19.0918 12.349 18.8376 12.0862C18.7902 12.0345 18.6092 11.8535 18.2861 11.5433C17.9026 11.1685 17.6053 10.8626 17.3985 10.6213C17.3425 10.5394 17.2003 10.38 16.9763 10.1387C16.6661 9.79837 16.4808 9.514 16.4248 9.28565L16.7523 9.26843C16.455 8.99269 16.1534 8.71694 15.8561 8.44119C15.7915 8.51444 15.7527 8.60923 15.7311 8.72555C15.7096 8.84188 15.701 8.97545 15.701 9.13055C15.8346 9.42784 16.0069 9.72944 16.218 10.0353C16.4076 10.3111 16.6273 10.5911 16.8729 10.8712C17.028 11.0478 17.2736 11.315 17.614 11.6639C17.9371 11.9957 18.1913 12.2628 18.3809 12.4567C18.6911 12.7842 18.9324 13.0513 19.1047 13.2581C19.3503 13.5554 19.5571 13.8354 19.7251 14.0939C19.4838 14.3998 19.1607 14.6928 18.7514 14.9815C18.4024 15.2098 18.0491 15.4425 17.7001 15.6708C17.8897 15.6234 18.0922 15.576 18.3033 15.5243C18.5144 15.4726 18.6911 15.4166 18.829 15.352C19.3287 15.115 19.6863 14.7704 19.8975 14.318C20.0741 13.9388 20.1646 13.4563 20.1646 12.8703C20.031 11.8363 19.9018 10.7979 19.7768 9.75959C19.7984 9.69496 19.8285 9.6648 19.863 9.6648C19.8802 9.6648 19.9535 9.73805 20.087 9.88885C20.1387 9.94486 20.1861 9.97071 20.2249 9.95779ZM14.8307 8.90652C14.8479 8.997 14.8436 9.08315 14.8134 9.16502C14.7833 9.24688 14.7316 9.3072 14.6497 9.35459C14.6153 9.36752 14.5851 9.35459 14.5549 9.32874C14.5032 9.28135 14.4731 9.2555 14.4688 9.25119C14.4688 9.09609 14.486 8.95391 14.5248 8.82465C14.5635 8.6954 14.6196 8.56614 14.6928 8.44119C14.723 8.51013 14.71 8.60492 14.6626 8.72987C14.6153 8.85481 14.5894 8.92375 14.5894 8.94098C14.5894 9.00561 14.6282 9.04869 14.71 9.07023C14.7273 9.0573 14.7402 9.03146 14.7531 8.98407C14.766 8.93667 14.7919 8.91083 14.8307 8.90652ZM14.9255 10.1818C14.9384 10.2465 14.9255 10.3111 14.891 10.3757C14.8565 10.4403 14.8221 10.505 14.7876 10.561C14.6626 10.6773 14.5248 10.7333 14.374 10.7333C14.3352 10.7333 14.3007 10.7333 14.2792 10.7247C14.1715 10.673 14.1155 10.5739 14.1155 10.4317C14.1155 10.3671 14.1198 10.324 14.1327 10.2939C14.1456 10.2637 14.1542 10.2465 14.1586 10.2335L14.4257 9.76821C14.4257 9.80699 14.3955 9.91039 14.3395 10.0698C14.305 10.1689 14.2878 10.2378 14.2878 10.2766C14.2878 10.3585 14.318 10.4274 14.3826 10.4834C14.4558 10.4964 14.5162 10.492 14.5635 10.4791C14.6109 10.4662 14.6713 10.436 14.7531 10.3973C14.766 10.3412 14.71 10.2809 14.5851 10.2206C14.4601 10.1603 14.3998 10.1086 14.3998 10.0612C14.3998 10.0138 14.4343 9.96209 14.5032 9.89746C14.6196 9.93193 14.6971 9.9621 14.7359 9.98364C14.8264 10.0353 14.891 10.1 14.9255 10.1818ZM16.2008 11.0263C16.2309 11.0564 16.2309 11.0952 16.2094 11.1426C16.1879 11.19 16.1663 11.2288 16.1491 11.2589C16.1189 11.2589 16.0801 11.2503 16.0327 11.2374C15.9854 11.2245 15.9552 11.2159 15.9509 11.2159C15.9121 11.2159 15.8776 11.2288 15.8561 11.2589C15.8346 11.315 15.8001 11.4313 15.7527 11.5993C15.7053 11.7674 15.6622 11.9009 15.6234 12C15.5847 11.9655 15.533 11.8535 15.4726 11.6596C15.4123 11.4658 15.3089 11.3839 15.1581 11.4054C15.1107 11.3753 15.0892 11.3408 15.0892 11.302C15.0892 11.2719 15.1021 11.2331 15.1323 11.1857C15.1624 11.1383 15.1797 11.0995 15.184 11.0694C15.2141 10.9703 15.2615 10.953 15.3305 11.009C15.4123 11.078 15.4769 11.1685 15.5287 11.2848C15.5459 11.3236 15.5847 11.4356 15.6407 11.6122C15.6622 11.5735 15.701 11.4701 15.757 11.3063C15.813 11.1426 15.8733 11.0306 15.9423 10.966C16.0629 10.966 16.1491 10.9875 16.2008 11.0263ZM13.7191 8.13098C13.7191 8.19992 13.6932 8.26455 13.6372 8.32487C13.5812 8.38519 13.5209 8.42396 13.452 8.44119C12.3533 8.83757 11.2589 9.23396 10.1603 9.63034C10.1474 9.5614 10.1689 9.49247 10.2163 9.41923C10.2637 9.34598 10.3283 9.28997 10.4016 9.25119C10.8281 9.11332 11.2331 8.97976 11.6252 8.84619C12.9177 8.40242 13.6157 8.16545 13.7191 8.13098ZM12.685 9.81991C12.5127 9.68635 12.3231 9.57863 12.1163 9.49247C11.9914 9.63034 11.9095 9.72081 11.8751 9.75959C11.8061 9.85007 11.7501 9.95348 11.7113 10.0612C11.7501 10.0913 11.8535 10.1431 12.0215 10.2249C12.1465 10.2895 12.2499 10.3455 12.3231 10.3973C12.405 10.3068 12.4696 10.2163 12.5213 10.1258C12.573 10.0353 12.629 9.93624 12.685 9.81991ZM18.7255 13.1978C18.3421 13.1978 17.9371 13.1461 17.5106 13.0427C17.2003 12.9694 16.8212 12.8531 16.3774 12.6937C15.9337 12.5343 15.6191 12.4352 15.4425 12.3878C15.1021 12.3016 14.7747 12.2585 14.4515 12.2585C14.2792 12.2585 14.1241 12.2714 13.9862 12.293C13.9647 12.293 13.9302 12.293 13.8914 12.2844C13.6889 12.2844 13.5338 12.3705 13.4261 12.5429C13.3701 12.6334 13.3055 12.81 13.2365 13.0685C13.3012 13.0858 13.3615 13.0944 13.4261 13.0944C13.439 13.0944 13.5769 13.0728 13.8397 13.034C13.913 13.0211 13.9991 13.0168 14.0896 13.0168C14.1758 13.0168 14.2404 13.0211 14.2792 13.034C14.3998 12.9996 14.5205 12.9823 14.6411 12.9823C14.8695 12.9823 15.1883 13.0599 15.5976 13.215C15.869 13.3184 16.05 13.383 16.1491 13.4132C16.1189 13.4347 16.0801 13.4563 16.0241 13.4692C15.9681 13.4821 15.938 13.4951 15.925 13.4994C15.2917 13.7277 14.6626 13.9561 14.0379 14.1801C13.7923 14.2533 13.5812 14.3094 13.4132 14.3395C13.2452 14.3697 13.0513 14.3869 12.8402 14.3869C12.5687 14.3869 12.3059 14.3481 12.0474 14.2749C12.1637 14.1758 12.2499 14.0551 12.3145 13.9044C12.3619 13.788 12.3964 13.6545 12.4179 13.5037C12.4395 13.3529 12.4524 13.2193 12.4524 13.103C12.4524 12.8919 12.4222 12.7066 12.3662 12.5558C12.3102 12.405 12.2025 12.2757 12.0474 12.1723C11.944 12.1206 11.8492 12.0948 11.763 12.0948C11.7113 12.0948 11.6553 12.1077 11.5993 12.1379C11.4054 12.3576 11.2546 12.5903 11.1469 12.8359C11.0392 13.0814 10.9875 13.3443 10.9875 13.62C10.9875 13.8139 11.0177 13.9991 11.0737 14.1715C10.9832 14.2361 10.8755 14.2749 10.7592 14.2878C10.6428 14.3007 10.5006 14.3094 10.3412 14.3094C10.1646 14.2533 10.0095 14.137 9.88022 13.9604C9.75097 13.7837 9.66911 13.6028 9.63464 13.4132L9.09177 9.053L8.94528 8.19131C8.87635 8.24732 8.81603 8.33349 8.76433 8.44551C8.71262 8.55753 8.66523 8.66093 8.62645 8.76003L9.07454 11.6726C9.13055 12.2542 9.19087 12.8316 9.25549 13.4046C9.35459 14.0724 9.57863 14.5722 9.93623 14.9125C10.0784 15.003 10.2335 15.0504 10.3929 15.0504C10.5351 15.0504 10.7031 15.0116 10.897 14.9341C11.0909 14.8565 11.2676 14.779 11.4356 14.7057C11.5218 14.7919 11.6252 14.8651 11.7458 14.9298C11.832 14.9772 11.9397 15.0246 12.0732 15.0763C12.3705 15.0763 12.6635 15.0633 12.9522 15.0332C13.2408 15.003 13.495 14.9599 13.7191 14.8996C13.9431 14.8393 14.2103 14.7531 14.5162 14.6411C14.8221 14.5291 15.0935 14.4257 15.3218 14.3352C15.701 14.193 15.8949 14.1155 15.9078 14.1112C16.2352 13.9948 16.5584 13.9087 16.8729 13.8527C17.0108 13.8225 17.153 13.8009 17.2951 13.7837C17.4373 13.7665 17.5752 13.7579 17.7001 13.7579C17.8251 13.7579 17.9673 13.7665 18.1094 13.7837C18.2516 13.8009 18.3852 13.8225 18.5101 13.8527C18.6609 13.6631 18.7342 13.4778 18.7342 13.2926C18.7342 13.2452 18.7342 13.215 18.7255 13.1978ZM13.2796 11.2072C13.2796 11.2934 13.271 11.3667 13.2495 11.427C13.2279 11.4873 13.1935 11.5648 13.1417 11.6553C13.09 11.6682 13.0383 11.6553 12.9866 11.6338C12.9349 11.6079 12.9005 11.5692 12.8875 11.5131C12.8746 11.4571 12.866 11.4054 12.866 11.3537C12.866 11.2848 12.8789 11.2116 12.9091 11.1297C12.9134 11.1168 12.9479 11.0435 13.0125 10.9056C12.9953 11.0134 12.9866 11.0995 12.9866 11.1642C12.9866 11.2805 13.0211 11.358 13.09 11.4054C13.1374 11.4097 13.1719 11.3839 13.2021 11.3193C13.2322 11.2546 13.2581 11.2202 13.2796 11.2072ZM11.6769 9.93193C11.6036 10.1 11.5433 10.2206 11.5045 10.2939C11.4313 10.4317 11.3408 10.5006 11.2374 10.5006C11.1297 10.4533 11.022 10.4102 10.9186 10.3628C10.7936 10.2938 10.729 10.2206 10.729 10.1387L11.1254 9.73374L11.6769 9.93193ZM16.6661 15.3779C16.5282 15.5157 16.3602 15.6321 16.1663 15.7268C15.9724 15.8216 15.7742 15.869 15.5804 15.869C15.4554 15.869 15.3348 15.8475 15.2184 15.8087C15.1323 15.7613 15.0892 15.6967 15.0892 15.6105C15.0892 15.5717 15.1021 15.5287 15.1323 15.4899C15.1667 15.4209 15.2314 15.3477 15.3218 15.2745C15.3692 15.2357 15.4468 15.1754 15.5631 15.0935C15.4899 15.0418 15.4209 15.0159 15.3649 15.0159C15.3003 15.0159 15.2529 15.0418 15.2184 15.0935C15.2184 15.0289 15.2357 14.9729 15.2744 14.9212C15.3132 14.8695 15.3606 14.8307 15.4252 14.8091C15.6105 14.8091 15.7527 14.8565 15.8561 14.9556C15.8561 15.0806 15.7355 15.1969 15.4942 15.3003C15.3779 15.352 15.3218 15.3994 15.3218 15.4468C15.3218 15.4942 15.3563 15.5459 15.4252 15.6105C15.5114 15.6321 15.6019 15.645 15.701 15.645C15.8216 15.645 15.9466 15.6278 16.0715 15.5933C16.106 15.5804 16.3042 15.5114 16.6661 15.3779ZM10.6428 11.9569C10.604 12.0948 10.5523 12.2197 10.4877 12.3318C10.4231 12.4438 10.3412 12.5601 10.2378 12.6807C10.4576 12.405 10.5653 12.0905 10.5653 11.7415C10.5653 11.539 10.5179 11.358 10.4274 11.19L10.3412 11.1297L10.4877 10.8712C10.6299 11.078 10.7031 11.315 10.7031 11.5864C10.7031 11.72 10.6816 11.8406 10.6428 11.9569ZM8.02327 8.96683C8.00603 9.06592 7.98018 9.14778 7.94571 9.22103C7.91124 9.29427 7.86385 9.35891 7.79922 9.41492C7.74321 9.41922 7.69151 9.4106 7.64843 9.38044C7.60534 9.35028 7.57087 9.28997 7.54071 9.19088C7.52779 9.10902 7.52348 9.053 7.52348 9.01853C7.52348 8.89789 7.54502 8.78156 7.5838 8.66954C7.62258 8.55752 7.68289 8.43258 7.75614 8.29471C7.72167 8.39811 7.69582 8.48428 7.67859 8.55322C7.66135 8.62215 7.65274 8.70401 7.65274 8.79449C7.65274 8.93236 7.6872 9.04438 7.75614 9.13055C7.77337 9.16502 7.79492 9.17794 7.82507 9.16502C7.85523 9.15209 7.88109 9.13486 7.90263 9.1047C7.93279 9.08747 7.95002 9.06592 7.95433 9.04438C7.95864 9.02284 7.96726 8.99699 7.97156 8.96683H8.02327ZM7.00646 9.69928C6.95045 9.91039 6.84274 10.1172 6.68763 10.3197C6.6704 10.3068 6.57131 10.2551 6.38604 10.156C6.26109 10.0913 6.19647 10.0181 6.19647 9.93193C6.26971 9.81129 6.32572 9.72081 6.36019 9.6648C6.42482 9.5614 6.49375 9.47954 6.567 9.41492C6.64024 9.45369 6.71779 9.49246 6.79535 9.53124C6.8729 9.57002 6.94183 9.62603 7.00646 9.69928ZM5.59328 8.51874L5.53296 8.76003C5.49418 8.75572 5.45972 8.74709 5.42956 8.73417C5.34769 8.70401 5.28738 8.6954 5.2486 8.6997C5.20982 8.80311 5.17966 8.93667 5.16243 9.1047C5.12365 9.47093 5.08488 9.70359 5.05041 9.79406C4.97716 9.77683 4.86945 9.63033 4.73158 9.35459C4.66695 9.22103 4.59371 9.14778 4.51185 9.12624C4.42999 9.1047 4.36536 9.08316 4.31797 9.053C4.27057 9.02284 4.24041 8.97545 4.22318 8.90652C4.2361 8.80742 4.24903 8.70832 4.26626 8.60492C4.28781 8.54029 4.32658 8.51013 4.37829 8.51013C4.40844 8.51013 4.44291 8.52306 4.48169 8.54461C4.58509 8.63508 4.67557 8.76433 4.74882 8.92374C4.82206 9.08316 4.8953 9.23827 4.96424 9.38907C4.9944 9.33306 5.02456 9.18225 5.06333 8.93667C5.10211 8.69108 5.16674 8.52736 5.26583 8.44119C5.3994 8.42396 5.50711 8.44981 5.59328 8.51874ZM5.99828 11.6381C6.0112 11.6596 6.01551 11.6941 6.01551 11.7415C6.01551 11.7975 6.00689 11.8535 5.98535 11.9052C5.96381 11.9569 5.94227 12.0086 5.92072 12.0603C5.88195 12.0991 5.83455 12.1206 5.78285 12.1206C5.74408 12.1206 5.70961 12.1077 5.68807 12.0776C5.62344 11.9914 5.59328 11.888 5.59328 11.7673C5.59328 11.6683 5.61482 11.5562 5.66221 11.4227C5.72684 11.2719 5.76993 11.1685 5.79147 11.1038C5.80439 11.1555 5.80009 11.2116 5.78285 11.2762C5.73546 11.483 5.71392 11.5907 5.71392 11.6036C5.71392 11.72 5.76131 11.8061 5.8604 11.8621L5.99828 11.6381ZM5.48988 10.2594C5.48557 10.3326 5.47695 10.3886 5.46402 10.4231C5.4511 10.4576 5.42525 10.4834 5.38647 10.5006C5.1495 10.5006 4.99009 10.5136 4.90392 10.5351C4.73158 10.5825 4.61094 10.6773 4.54201 10.8281C4.62387 11.1168 4.68419 11.3451 4.72727 11.5218C4.77036 11.6984 4.80483 11.8751 4.82637 12.0517C4.84791 12.2284 4.87376 12.4265 4.90392 12.6463C4.90392 12.7454 4.891 12.8359 4.86514 12.9263C4.83929 13.0168 4.7919 13.1073 4.72296 13.1978C4.78759 13.0728 4.81775 12.9263 4.81775 12.7583C4.81775 12.5817 4.77897 12.3705 4.70573 12.1293C4.63249 11.9181 4.55924 11.7027 4.49031 11.4916C4.46876 11.4097 4.45153 11.3494 4.4386 11.302C4.40844 11.1857 4.39552 11.0823 4.39552 10.9832C4.39552 10.8109 4.45153 10.6601 4.55924 10.5351C4.66695 10.4102 4.85653 10.3068 5.12796 10.2335C5.07626 10.1991 5.03318 10.1732 4.99871 10.1603C4.96424 10.1474 4.92977 10.1387 4.8953 10.1387C4.84791 10.1387 4.81344 10.1517 4.78328 10.1818C4.71866 10.2465 4.67988 10.2809 4.66265 10.2852C4.65834 10.2335 4.66265 10.1861 4.67557 10.1431C4.6885 10.1 4.71866 10.0439 4.76605 9.97501C4.83068 9.90608 4.89961 9.87161 4.97286 9.87161C5.05472 9.87161 5.1452 9.91901 5.2486 10.0095C5.36493 10.1301 5.44248 10.212 5.48988 10.2594ZM3.0685 11.2762C3.0685 11.4959 3.04265 11.6855 2.99095 11.8535C2.93925 12.0216 2.84446 12.168 2.70659 12.293C2.67212 12.3102 2.64196 12.3188 2.61181 12.3188C2.57734 12.3188 2.53425 12.3059 2.48686 12.2801C2.43947 12.2542 2.40069 12.237 2.37915 12.224C2.31021 12.0905 2.26282 11.9569 2.23266 11.819C2.2025 11.6812 2.18957 11.539 2.18957 11.3882C2.18957 11.0435 2.28005 10.6773 2.4567 10.2852C2.59026 9.99656 2.78845 9.67343 3.05127 9.31152C3.01249 9.43215 2.93063 9.61741 2.81 9.87161C2.60319 10.3197 2.49978 10.6644 2.49978 10.9056C2.49978 11.0478 2.51702 11.1728 2.55579 11.2762C2.59457 11.3796 2.66351 11.4916 2.76691 11.6122C2.84877 11.6122 2.90478 11.5605 2.94356 11.4528C2.98234 11.3451 3.02111 11.2891 3.0685 11.2762ZM8.11805 12.3792C7.99741 12.1508 7.82938 11.9483 7.61396 11.776C7.39853 11.6036 7.17018 11.5045 6.92891 11.4744C6.64024 11.5993 6.42913 11.819 6.29125 12.1293C6.17492 12.3878 6.11891 12.6894 6.11891 13.034C6.18354 13.1935 6.27833 13.3055 6.40327 13.3701C6.49375 13.4175 6.62301 13.439 6.78242 13.439C6.81258 13.439 6.89875 13.4304 7.04955 13.4175C7.20034 13.4046 7.31237 13.396 7.39423 13.396C7.52779 13.396 7.63981 13.4132 7.73029 13.4434C7.82077 13.4735 7.89832 13.5381 7.96295 13.6372C7.66997 13.844 7.37268 14.0078 7.0754 14.1284C6.77811 14.249 6.43774 14.3567 6.0586 14.4558C5.92072 14.4903 5.58035 14.5679 5.03318 14.6885C4.87807 14.71 4.73589 14.7273 4.60233 14.7359C4.46876 14.7445 4.34813 14.7488 4.2318 14.7488C3.80095 14.7488 3.43903 14.6842 3.14606 14.5593C2.79707 14.4041 2.52994 14.1542 2.3533 13.8096C2.28005 13.6588 2.24128 13.4907 2.24128 13.3012C2.24128 13.159 2.26282 12.9996 2.3059 12.8272C2.34899 12.6549 2.40069 12.4998 2.4567 12.3619C2.1508 12.866 2 13.4261 2 14.0336C2 14.2878 2.08617 14.5248 2.26282 14.7488C2.43947 14.9729 2.64196 15.1237 2.87462 15.2055C3.10728 15.2874 3.32271 15.3391 3.51659 15.3692C3.71047 15.3994 3.92589 15.4123 4.15424 15.4123C4.38259 15.4123 4.61525 15.3951 4.86514 15.3606C5.11504 15.3262 5.352 15.2831 5.57604 15.2314C6.0112 15.128 6.42912 14.9858 6.82551 14.8091C7.22189 14.6325 7.61396 14.4171 7.99741 14.1629C8.08789 14.0034 8.16114 13.8311 8.20853 13.6459C8.25592 13.4606 8.28177 13.2796 8.28177 13.0944C8.28177 12.9522 8.26885 12.8229 8.24731 12.7152C8.22576 12.6075 8.18268 12.4955 8.11805 12.3792ZM3.85265 12.9134C3.85265 13.0168 3.83972 13.103 3.81818 13.1762C3.79664 13.2495 3.74494 13.3227 3.67169 13.396C3.61568 13.3916 3.56398 13.3744 3.51659 13.3486C3.46919 13.3227 3.44334 13.2839 3.43042 13.2322C3.43042 13.0599 3.45196 12.8962 3.49935 12.7411C3.5209 12.6592 3.58121 12.5213 3.67169 12.3188C3.676 12.3748 3.65446 12.4739 3.60707 12.6075C3.55967 12.7411 3.53382 12.8402 3.53382 12.9048C3.53382 13.0082 3.58121 13.0901 3.67169 13.1547C3.71909 13.1374 3.75355 13.0944 3.7751 13.0254C3.79664 12.9565 3.82249 12.9177 3.85265 12.9134ZM12.1077 13.5511L11.5735 13.8957C11.4744 13.7234 11.414 13.6071 11.3839 13.5424C11.3279 13.4046 11.2977 13.271 11.2977 13.1461C11.2977 13.0211 11.3322 12.9005 11.4011 12.8014C11.4184 12.7971 11.4485 12.7928 11.4873 12.7928C11.5907 12.7928 11.6855 12.8229 11.7716 12.8876C11.8104 12.9177 11.8578 12.9565 11.9095 13.0082C12.0086 13.159 12.0732 13.34 12.1077 13.5511ZM7.52348 12.6807C7.45885 12.6937 7.38561 12.7023 7.29944 12.7152C7.21327 12.7281 7.13572 12.7324 7.06678 12.7324C6.90737 12.7324 6.7695 12.7023 6.66178 12.6463C6.61439 12.6075 6.57131 12.5644 6.52822 12.517C6.48514 12.4696 6.46359 12.4265 6.46359 12.3878C6.46359 12.349 6.48514 12.3102 6.52391 12.2757C6.57131 12.2111 6.63162 12.181 6.70487 12.181C6.81258 12.2154 6.9246 12.2456 7.03231 12.2757C7.10556 12.3145 7.18742 12.3748 7.27359 12.4567C7.35976 12.5386 7.44162 12.6118 7.52348 12.6807Z" fill="white"/>
</svg>
