<svg width="24" height="24" viewBox="0 0 24 24" fill="none" xmlns="http://www.w3.org/2000/svg">
<path fill-rule="evenodd" clip-rule="evenodd" d="M22 9.30556C21.9152 9.28536 21.8384 9.21669 21.7657 9.10358C21.6688 8.95008 21.6041 8.85313 21.5718 8.82081L21.4547 8.94604C21.4547 9.26921 21.487 9.66912 21.5516 10.1498C21.7011 11.2486 21.7738 11.9475 21.7738 12.2423C21.7738 13.0179 21.7576 13.5673 21.7253 13.8905C21.6688 14.4722 21.5395 14.9812 21.3456 15.4215C21.4183 14.9771 21.4506 14.4884 21.4506 13.9592C21.4506 13.3896 21.4062 12.7554 21.3133 12.0606C21.2244 11.3617 21.1315 10.6507 21.0426 9.92362C20.9537 9.19649 20.9053 8.58247 20.9053 8.08561C20.982 7.80283 21.1073 7.57258 21.285 7.39888C21.3617 7.5847 21.4627 7.82303 21.5839 8.1058C21.8021 8.61479 21.9394 9.01875 21.9919 9.3096L22 9.30556ZM20.2064 9.06319C20.1418 9.01875 20.0772 8.95816 20.0125 8.87736C19.9923 8.85717 19.9358 8.78042 19.8388 8.64307C19.7823 8.73194 19.7499 8.84505 19.7499 8.97432C19.7499 9.05915 19.758 9.13994 19.7701 9.21669C19.8146 9.47522 19.8388 9.61257 19.8388 9.63277C19.8792 9.92362 19.9277 10.2831 19.9923 10.7073C20.1216 11.5475 20.1862 12.1939 20.1862 12.6463C20.1862 13.2078 20.1054 13.6885 19.9438 14.0925C19.758 14.557 19.451 14.9408 19.0309 15.2478C18.8572 15.3003 18.635 15.3488 18.3603 15.3932C18.2715 15.4053 17.8998 15.4538 17.2454 15.5386C17.7625 15.3124 18.1503 15.1347 18.4088 15.0054C18.8612 14.7711 19.2086 14.5005 19.447 14.1894C19.4066 13.9067 19.3137 13.632 19.1642 13.3653C19.0471 13.1512 18.8774 12.9129 18.6512 12.6463C18.534 12.509 18.3846 12.3433 18.2068 12.1414C17.9483 11.8626 17.6898 11.5839 17.4312 11.2971C16.9869 10.7921 16.5385 10.2872 16.0941 9.77415C15.5973 9.17225 15.2458 8.63095 15.0479 8.1462C15.0721 8.02501 15.1044 7.89171 15.1448 7.75032C15.1852 7.60894 15.2377 7.50794 15.3104 7.45139C15.3508 7.5039 15.5245 7.68569 15.8356 7.9927C16.0618 8.21891 16.187 8.42089 16.2153 8.60267C16.1062 8.54612 15.9972 8.48552 15.8841 8.42897C15.9689 8.67942 16.1466 8.96624 16.4173 9.28132C16.7485 9.64489 16.9909 9.91554 17.1444 10.0973C17.2939 10.2993 17.4918 10.5255 17.7342 10.776C18.3926 11.4546 18.7481 11.8263 18.8006 11.8909C19.0471 12.1818 19.2288 12.4524 19.3541 12.7069C19.5035 13.0179 19.5762 13.329 19.5762 13.6481C19.5762 13.7531 19.5682 13.8339 19.556 13.8945C19.5439 13.9551 19.5359 14.0036 19.5359 14.0359L19.556 14.0642C19.6934 13.9592 19.7823 13.8299 19.8307 13.6764C19.8792 13.5229 19.9035 13.3411 19.9035 13.1351C19.9035 12.9937 19.8954 12.8685 19.8833 12.7634C19.8711 12.6584 19.859 12.5695 19.855 12.5049C19.7903 12.008 19.7176 11.4991 19.6368 10.978C19.556 10.4568 19.4753 9.93978 19.3985 9.42271C19.2773 8.63499 19.1965 8.126 19.1642 7.89978C19.2288 7.77052 19.2773 7.67761 19.3096 7.61701C19.3662 7.50795 19.4308 7.41907 19.5035 7.35444C19.5682 7.51602 19.6732 7.72204 19.8146 7.97654C20.0731 8.43705 20.2024 8.79658 20.2024 9.06319H20.2064ZM14.5833 8.57844C14.551 8.63499 14.5146 8.69962 14.4783 8.76426C14.4379 8.82889 14.3894 8.86121 14.3248 8.86121C14.1874 8.88141 14.0784 8.86525 13.9935 8.81677C13.9087 8.7683 13.8683 8.71578 13.8683 8.65519C13.8683 8.61479 13.8885 8.5542 13.9329 8.46937C13.9733 8.38454 13.9976 8.32798 13.9976 8.29567L14.1147 8.15024C14.1268 8.18256 14.1147 8.23911 14.0703 8.3199C14.0299 8.40069 14.0137 8.46533 14.0259 8.51784C14.0784 8.5744 14.139 8.60671 14.2117 8.60671C14.2521 8.60671 14.3005 8.60267 14.3571 8.59055C14.4137 8.58247 14.446 8.5744 14.4541 8.5744L14.5025 8.534C14.4258 8.40473 14.349 8.27547 14.2803 8.1462C14.2803 8.08965 14.3207 8.03713 14.3975 7.9927C14.4823 8.04925 14.547 8.11388 14.5914 8.17852C14.6358 8.24315 14.6601 8.31586 14.6601 8.40069C14.6601 8.46533 14.6358 8.52188 14.5914 8.5744L14.5833 8.57844ZM15.2418 9.83071C15.2539 9.74588 15.2095 9.66913 15.1125 9.59641C15.0115 9.5237 14.9186 9.45907 14.8257 9.39443C14.7489 9.31768 14.6843 9.27729 14.6318 9.27729C14.5591 9.27729 14.4864 9.35808 14.4096 9.5237C14.3329 9.68932 14.2723 9.78223 14.2359 9.81051C14.2359 9.91958 14.349 10.0408 14.5752 10.17C14.757 10.2751 14.854 10.3276 14.8661 10.3357L15.2458 9.83071H15.2418ZM12.7211 8.33606C12.7211 8.44109 12.7009 8.53804 12.6645 8.62691C12.6241 8.71578 12.5635 8.78041 12.4787 8.82081C12.4221 8.82889 12.3696 8.80869 12.3292 8.7683C12.2888 8.7279 12.2606 8.66731 12.2484 8.59459C12.2363 8.52188 12.2282 8.46533 12.2282 8.43301C12.2282 8.27143 12.2686 8.09773 12.3535 7.90787C12.3939 7.82303 12.4787 7.67357 12.616 7.45139C12.6039 7.5241 12.5554 7.64933 12.4747 7.83111C12.3939 8.01289 12.3535 8.15428 12.3535 8.25931C12.3535 8.34414 12.3777 8.42897 12.4302 8.52188C12.4625 8.54208 12.4908 8.55016 12.5191 8.55016C12.5595 8.55016 12.5918 8.534 12.6201 8.49765C12.6484 8.46129 12.6726 8.41685 12.6928 8.36838L12.7211 8.3401V8.33606ZM20.5821 15.6356L20.1862 15.7729C19.9842 15.7729 19.8065 15.7083 19.6449 15.579L19.7823 15.4417C19.8711 15.4296 19.9277 15.4659 19.9479 15.5588C20.0772 15.5467 20.1499 15.4781 20.1701 15.3569C20.1378 15.3003 20.0974 15.268 20.0529 15.2599C20.0085 15.2518 19.96 15.2438 19.9075 15.2316C19.7903 15.2842 19.6894 15.3528 19.6086 15.4457C19.552 15.5104 19.4753 15.6033 19.3864 15.7285C19.4106 15.7729 19.4591 15.8174 19.5237 15.8537C19.556 15.8739 19.6045 15.8982 19.6692 15.9305L19.4066 16.2294C19.4833 16.1769 19.7015 16.0961 20.057 15.987C20.3397 15.9022 20.5175 15.7851 20.5902 15.6396L20.5821 15.6356ZM20.6993 16.0921C20.6467 16.189 20.5659 16.2738 20.4569 16.3425C20.3801 16.395 20.2711 16.4435 20.1378 16.4879C20.0004 16.5324 19.8711 16.5768 19.7419 16.6172C19.6126 16.6576 19.4995 16.7061 19.4025 16.7586C19.4591 16.6617 19.5399 16.5809 19.6368 16.5203C19.7338 16.4597 19.8469 16.4072 19.9762 16.3708C20.1054 16.3304 20.2347 16.2941 20.368 16.2537C20.5013 16.2133 20.6104 16.1607 20.7033 16.088L20.6993 16.0921ZM10.6851 7.56046C10.7821 7.66953 10.8548 7.80284 10.9033 7.9523C10.9517 8.10581 10.976 8.25931 10.976 8.42089C10.976 8.65519 10.9396 8.8814 10.8629 9.10762C10.7901 9.33384 10.6892 9.55198 10.568 9.76608C10.6447 9.59237 10.7094 9.41059 10.7578 9.21669C10.8063 9.02683 10.8305 8.83293 10.8305 8.63903C10.8305 8.30374 10.7417 8.01693 10.568 7.77456L10.6851 7.55238V7.56046ZM13.836 9.45099C13.634 9.51562 13.2866 9.63681 12.7897 9.81051C12.4343 9.93978 12.0788 10.069 11.7233 10.1983C11.3678 10.3276 11.0123 10.4528 10.6568 10.578C10.4953 10.6548 10.3821 10.7639 10.3175 10.9093L13.0402 9.9317C13.1897 9.87514 13.3472 9.81051 13.5088 9.74588C13.6744 9.68124 13.7835 9.58429 13.832 9.45503L13.836 9.45099ZM16.6273 13.2886C16.6273 13.0826 16.5264 12.8038 16.3284 12.4564C16.1264 12.109 16.0295 11.8465 16.0295 11.6728C16.0699 11.7253 16.1224 11.7536 16.1951 11.7616C16.2678 11.7697 16.3163 11.7859 16.3405 11.8101C16.3405 11.6606 16.2557 11.491 16.0901 11.2971C15.8517 11.0183 15.7184 10.8608 15.6942 10.8204C15.6053 10.8204 15.5286 10.8689 15.472 10.9658C15.4599 10.9901 15.3993 11.1638 15.2983 11.4789C15.3508 11.7172 15.4639 12.008 15.6376 12.3514C16.0578 13.1916 16.284 13.6522 16.3163 13.737C16.0456 13.9188 15.7427 14.0076 15.4155 14.0076C15.266 14.0076 15.1327 13.9915 15.0075 13.9632C14.8863 13.9349 14.7974 13.8986 14.7489 13.8582C14.7005 13.8178 14.6762 13.7612 14.6762 13.6966C14.6762 13.632 14.6924 13.5714 14.7247 13.5108C14.6358 13.5633 14.5146 13.6966 14.3692 13.9067C14.2238 14.1207 14.0905 14.2541 13.9653 14.3025C13.8804 14.3025 13.7996 14.2904 13.7188 14.2702C13.6381 14.246 13.5734 14.2137 13.5209 14.1692C13.424 14.1046 13.3755 14.0238 13.3755 13.9268C13.3755 13.8945 13.3916 13.8137 13.424 13.6845C13.3472 13.7612 13.2139 13.9147 13.0281 14.1409C12.8463 14.3227 12.6645 14.4116 12.4868 14.4116C12.3575 14.4237 12.2444 14.4035 12.1515 14.355C12.0586 14.3025 11.9616 14.2177 11.8647 14.1046C11.8202 14.0602 11.796 14.0076 11.796 13.9511C11.796 13.9188 11.8122 13.8582 11.8485 13.7653C11.8849 13.6764 11.897 13.6077 11.8808 13.5633C11.6748 13.733 11.4688 13.8945 11.2587 14.0561C11.0083 14.25 10.7699 14.347 10.5518 14.347C10.4791 14.347 10.4064 14.3389 10.3296 14.3187C10.2206 14.2743 10.1196 14.1894 10.0307 14.0602C9.94183 13.9349 9.87316 13.8097 9.82872 13.6885C9.77621 13.3977 9.73985 13.127 9.72369 12.8806C9.70349 12.6301 9.69542 12.2666 9.69542 11.7899C9.69542 11.7051 9.70753 11.2163 9.73581 10.3155C9.74389 10.0892 9.74389 9.79839 9.74389 9.44291C9.74389 9.06723 9.72773 8.68347 9.69945 8.28355C9.67118 7.88363 9.62674 7.54026 9.57019 7.24133C9.49748 7.27365 9.43284 7.35444 9.37629 7.48371C9.29954 7.65337 9.24702 7.75032 9.22278 7.78264C9.28742 8.22295 9.33185 8.66731 9.35205 9.11974C9.37629 9.57218 9.38437 10.1014 9.38437 10.7113C9.37629 11.0224 9.37629 11.3254 9.37629 11.6283V12.5251C9.39649 12.8887 9.41668 13.2482 9.43284 13.6118C9.48536 14.3429 9.71157 14.8358 10.1115 15.0943C10.2004 15.1064 10.265 15.1145 10.3054 15.1145C10.5397 15.1145 10.7659 15.0377 10.9921 14.8802C11.1739 14.759 11.3476 14.5934 11.5173 14.3874C11.5173 14.6217 11.59 14.8156 11.7394 14.9691C11.9212 15.0983 12.103 15.163 12.2808 15.163C12.3656 15.163 12.4262 15.1549 12.4666 15.1428C12.7251 15.0701 12.9271 14.9085 13.0766 14.6499C13.2301 14.9327 13.4563 15.0781 13.7552 15.0781C13.8723 15.066 13.9733 15.0054 14.0622 14.9044C14.1511 14.8034 14.2601 14.6378 14.3975 14.4197L14.7287 14.6419C14.9348 14.7186 15.1569 14.759 15.3993 14.759C15.7104 14.759 15.9851 14.6863 16.2234 14.5449C16.4092 14.4358 16.5344 14.25 16.591 13.9915C16.6233 13.8501 16.6395 13.6158 16.6395 13.2926L16.6273 13.2886ZM13.3714 11.6324L13.3149 11.7374L13.0725 11.6C12.9675 11.9353 12.8665 12.2706 12.7615 12.5978C12.7089 12.5574 12.6362 12.3918 12.5393 12.0929C12.4666 11.8747 12.3373 11.7818 12.1515 11.8222C12.0949 11.798 12.0626 11.7495 12.0626 11.6849C12.0626 11.6526 12.0626 11.6243 12.0707 11.596C12.103 11.5112 12.1232 11.4587 12.1272 11.4304C12.1596 11.39 12.1838 11.3617 12.204 11.3415C12.2242 11.3213 12.2484 11.3132 12.2808 11.3132C12.305 11.3132 12.3292 11.3213 12.3494 11.3415C12.4545 11.4263 12.5393 11.5758 12.612 11.798C12.6847 12.0161 12.7493 12.1616 12.8059 12.2343C12.8382 12.0525 12.8746 11.8707 12.9109 11.6808C12.9675 11.4748 13.0725 11.3617 13.222 11.3415C13.2987 11.4061 13.3432 11.4425 13.3472 11.4465C13.3795 11.4869 13.3957 11.5193 13.3957 11.5435C13.3957 11.5637 13.3876 11.5879 13.3674 11.6202L13.3714 11.6324ZM8.14421 8.47341C8.13209 8.57036 8.11998 8.66731 8.10382 8.76426C8.07958 8.86929 8.03111 8.95008 7.95839 9.01471C7.90184 9.01471 7.84528 8.99048 7.79681 8.94604C7.74833 8.9016 7.70794 8.84505 7.67562 8.78042C7.65542 8.68347 7.64734 8.59056 7.64734 8.49765C7.64734 8.30375 7.69582 8.10176 7.79277 7.89574C7.86548 7.74224 7.97051 7.57258 8.1119 7.3908C8.1119 7.47563 8.03918 7.67357 7.88972 7.9927C7.81701 8.14216 7.78469 8.26739 7.78469 8.37242C7.78469 8.44513 7.79681 8.50572 7.81701 8.56228C7.84124 8.61883 7.88164 8.67538 7.93819 8.73194C7.96243 8.71982 7.99071 8.67539 8.01899 8.59459C8.04726 8.51784 8.08766 8.47341 8.14017 8.46937L8.14421 8.47341ZM6.22541 7.56046C6.22541 7.63317 6.20117 7.70185 6.14866 7.77456C6.09614 7.74224 6.04363 7.72608 5.98303 7.72608C5.92244 7.72608 5.88204 7.7584 5.85781 7.82303C5.83357 7.88767 5.79721 8.04925 5.75278 8.31182C5.70834 8.5744 5.63159 8.74406 5.5306 8.82081C5.47809 8.77637 5.39729 8.60267 5.28822 8.29567C5.20339 8.06945 5.07009 7.96846 4.88023 7.99673C4.82771 7.96442 4.80347 7.92402 4.80347 7.87151C4.80347 7.83919 4.81155 7.79476 4.82771 7.74224C4.84387 7.68569 4.85195 7.65337 4.85195 7.64125C4.87619 7.59682 4.9085 7.56046 4.94082 7.52814C4.97314 7.49987 5.00545 7.48371 5.03777 7.48371C5.06201 7.48371 5.08625 7.49987 5.10644 7.53218C5.19531 7.61702 5.28015 7.76244 5.35286 7.9725C5.42557 8.18256 5.50232 8.32394 5.57907 8.39262C5.63159 8.15428 5.66795 7.98058 5.69622 7.86747C5.74874 7.66145 5.83357 7.50795 5.94668 7.41099C6.02343 7.42311 6.08806 7.43523 6.13654 7.44331C6.18501 7.45139 6.21733 7.49179 6.22945 7.55642L6.22541 7.56046ZM14.2521 15.3569C14.2763 15.4094 14.2763 15.4579 14.244 15.5063C14.2117 15.5548 14.1794 15.6033 14.147 15.6558C13.9653 15.7729 13.8198 15.8497 13.7067 15.8941C13.5936 15.9345 13.4886 15.9588 13.3916 15.9588C13.2866 15.9588 13.1977 15.9305 13.121 15.8699C13.0766 15.8578 13.0079 15.8497 12.919 15.8497C12.7776 15.8497 12.6362 15.878 12.4908 15.9386C12.3858 15.979 12.2484 16.0517 12.0747 16.1607C11.8364 16.3021 11.6627 16.3991 11.5617 16.4516C11.3759 16.5405 11.1941 16.6051 11.0204 16.6374L10.3337 16.7424C10.5599 16.698 10.7982 16.6213 11.0527 16.5081C11.2143 16.4435 11.4405 16.3344 11.7354 16.185C12.0303 16.0315 12.2525 15.9224 12.3979 15.8497C12.6766 15.7083 12.9028 15.6033 13.0766 15.5386C13.1533 15.5306 13.2301 15.5669 13.3108 15.6437C13.3876 15.7204 13.4442 15.7608 13.4765 15.7608C13.5209 15.7608 13.5694 15.7366 13.6219 15.6841C13.6542 15.6639 13.6865 15.6194 13.7188 15.5467C13.7512 15.474 13.7875 15.4336 13.8239 15.4215C13.8441 15.4417 13.8441 15.474 13.8279 15.5225C13.8118 15.571 13.8037 15.6033 13.8037 15.6154C13.8481 15.6356 13.9006 15.6316 13.9531 15.6073C14.0097 15.5831 14.0622 15.5588 14.1147 15.5386C14.1349 15.4861 14.1511 15.4457 14.1672 15.4175C14.1834 15.3892 14.2157 15.369 14.2601 15.3528L14.2521 15.3569ZM6.25369 10.3559C6.25369 10.3559 6.14866 10.4851 6.00323 10.7033C5.8982 10.8527 5.79317 10.9052 5.6841 10.8689L5.32458 10.4326L5.75278 9.96806C5.87396 10.0448 5.96688 10.1054 6.02343 10.1418C6.1325 10.2145 6.20925 10.2831 6.25773 10.3559H6.25369ZM6.95254 12.5292C6.93234 12.6463 6.9081 12.7392 6.87578 12.8038C6.84347 12.8725 6.78287 12.9291 6.68996 12.9735C6.66572 12.9816 6.63745 12.9735 6.60917 12.9493C6.58089 12.925 6.5405 12.8725 6.48798 12.7877C6.4799 12.7473 6.4799 12.7069 6.4799 12.6665V12.5655C6.4799 12.3797 6.50414 12.1939 6.55665 12.0121C6.60917 11.8303 6.68188 11.6404 6.77883 11.4385C6.77883 11.5152 6.74652 11.6606 6.68592 11.8747C6.62533 12.0888 6.59301 12.2383 6.59301 12.3191C6.59301 12.3756 6.60109 12.4362 6.62129 12.4928C6.64149 12.5494 6.69804 12.5978 6.79499 12.6382C6.83539 12.5655 6.86366 12.517 6.88386 12.4847C6.9081 12.5049 6.93234 12.517 6.95254 12.5251V12.5292ZM3.28863 11.1719C3.24419 11.3658 3.19976 11.5556 3.15128 11.7455C3.07453 11.9798 2.96142 12.1454 2.81196 12.2504C2.74732 12.2706 2.67865 12.2585 2.6019 12.21C2.52919 12.1656 2.47263 12.1333 2.44032 12.1131C2.36356 11.9757 2.30701 11.8384 2.27469 11.697C2.24238 11.5556 2.22622 11.4061 2.22622 11.2526C2.22622 10.8568 2.35548 10.368 2.61402 9.77819C2.7352 9.50754 2.86447 9.23285 2.99374 8.95412C2.97354 9.04299 2.88871 9.32172 2.73117 9.78627C2.60998 10.1539 2.54534 10.4488 2.54534 10.6669C2.54534 10.8406 2.56958 10.9941 2.61806 11.1234C2.66653 11.2526 2.75944 11.3779 2.89275 11.5031C2.96546 11.5273 3.02606 11.5233 3.07857 11.4829C3.13108 11.4425 3.16744 11.386 3.19572 11.3092C3.21996 11.2648 3.25227 11.2203 3.28459 11.1719H3.28863ZM8.61281 11.4829C8.56837 11.3415 8.52393 11.2284 8.47546 11.1436C8.45526 11.1032 8.35023 10.9295 8.15633 10.6184C8.01899 10.7477 7.93011 10.877 7.88164 11.0103C7.83316 11.1436 7.80893 11.3011 7.80893 11.491C7.80893 11.7172 7.88164 12.0808 8.02707 12.5817C8.17249 13.0826 8.2452 13.4461 8.2452 13.6724C7.37265 14.3066 6.39911 14.7873 5.32862 15.1185C5.15896 15.1589 5.01353 15.1872 4.88427 15.2074C4.755 15.2276 4.61361 15.2357 4.45607 15.2357C4.08847 15.2357 3.7451 15.171 3.43405 15.0418C3.11897 14.9125 2.85235 14.7105 2.63422 14.4399C2.52919 14.2904 2.45647 14.1329 2.41608 13.9592C2.37568 13.7895 2.35144 13.5956 2.35144 13.3815C2.35144 12.9856 2.42012 12.618 2.55342 12.2747C2.28681 12.6503 2.12119 13.0624 2.04848 13.5148C2.01616 13.6966 2 13.8582 2 13.9996C2 14.3349 2.07271 14.6459 2.2141 14.9246C2.35548 15.2074 2.56958 15.4296 2.85235 15.5992C3.08665 15.7285 3.31691 15.8214 3.54716 15.8739C3.77742 15.9305 4.02383 15.9547 4.29045 15.9547C4.70248 15.9547 5.15088 15.8739 5.62755 15.7123C6.16481 15.5306 6.84751 15.1993 7.6837 14.7146C8.02707 14.5409 8.27348 14.2581 8.41891 13.8703C8.53605 13.5673 8.59261 13.1916 8.59261 12.7473C8.58453 12.7069 8.5199 12.4807 8.39063 12.0686C8.34619 11.9273 8.32196 11.798 8.32196 11.6808C8.32196 11.6283 8.32599 11.5758 8.33811 11.5273C8.34619 11.4748 8.35831 11.4385 8.37043 11.4223C8.39467 11.4344 8.43506 11.4546 8.48758 11.4789C8.54009 11.5031 8.58049 11.5031 8.61281 11.4789V11.4829ZM4.347 12.4039C4.347 12.5413 4.33892 12.6382 4.31872 12.6948C4.27833 12.7998 4.20965 12.8685 4.10463 12.9089C4.02787 12.8846 3.96728 12.8523 3.92688 12.8119C3.88649 12.7715 3.86225 12.7311 3.86225 12.6867C3.86225 12.5009 3.88649 12.3231 3.939 12.1535C3.97132 12.0363 4.03191 11.8869 4.12482 11.7091C4.12482 11.7818 4.10059 11.8869 4.04807 12.0282C3.99556 12.1696 3.97132 12.2787 3.97132 12.3474C3.97132 12.4443 4.01575 12.5332 4.10866 12.618C4.16522 12.6301 4.20965 12.614 4.23389 12.5655C4.25813 12.517 4.28641 12.4686 4.31064 12.4241L4.35104 12.4039H4.347Z" fill="white"/>
</svg>
