<svg width="24" height="24" viewBox="0 0 24 24" fill="none" xmlns="http://www.w3.org/2000/svg">
<path fill-rule="evenodd" clip-rule="evenodd" d="M20.8296 8.28228C20.8124 8.32818 20.8067 8.39703 20.8067 8.48882C20.8067 8.52898 20.8067 8.58636 20.8181 8.66094C20.8239 8.73553 20.8296 8.79289 20.8296 8.83305C20.8296 8.96501 20.7894 9.06828 20.7149 9.15434L20.5772 9.01665C20.3018 9.33793 19.9862 9.61905 19.6248 9.86576C19.3494 10.0493 18.988 10.2444 18.5347 10.451C19.183 9.95182 19.8371 9.45268 20.4968 8.9478C20.4739 8.89617 20.3993 8.82731 20.2731 8.75273C20.1469 8.67815 20.0838 8.6093 20.0838 8.54619C20.0838 8.5175 20.101 8.46587 20.1354 8.40276C20.1698 8.33965 20.2272 8.27654 20.3133 8.21343C20.3591 8.18474 20.4452 8.13885 20.5657 8.08722C20.6288 8.07001 20.6804 8.08722 20.7263 8.12164C20.7722 8.1618 20.8067 8.21344 20.8296 8.28228ZM20.9673 10.3477L20.3936 9.96903L19.8657 10.3247C19.8141 10.3878 19.7854 10.4337 19.7854 10.4739C19.7854 10.537 19.86 10.5944 20.0149 10.6518C20.1698 10.7091 20.2559 10.7665 20.2788 10.8181C20.3477 10.864 20.405 10.887 20.4509 10.887C20.537 10.887 20.6288 10.8067 20.7263 10.6403C20.8239 10.4739 20.9042 10.3764 20.9673 10.3477ZM18.8904 9.03959C18.8503 9.03959 18.8158 9.06828 18.7871 9.13139C18.7355 9.22892 18.6724 9.27482 18.6036 9.25761C18.5577 9.18876 18.5347 9.10844 18.5347 9.01665C18.5347 8.94206 18.5519 8.83879 18.5806 8.71831C18.6093 8.59783 18.6265 8.51751 18.6265 8.47735C18.6036 8.52324 18.5634 8.6093 18.5003 8.72979C18.4142 8.91338 18.3741 9.06828 18.3741 9.18877C18.3741 9.30925 18.4142 9.42399 18.4888 9.52153C18.6208 9.52153 18.7126 9.46415 18.7757 9.34941C18.8158 9.25187 18.8503 9.1486 18.8904 9.03959ZM16.0103 9.15434C15.9816 9.26334 15.9587 9.3494 15.9415 9.42399C15.9243 9.49857 15.8841 9.55021 15.8153 9.57889H15.6431C15.58 9.57889 15.5341 9.56169 15.5055 9.52153C15.4309 9.61906 15.3678 9.6879 15.3219 9.72806C15.2358 9.79691 15.1555 9.83133 15.0694 9.83133C15.0293 9.83133 14.9776 9.81986 14.9088 9.79691C14.8399 9.77396 14.794 9.72233 14.7711 9.63627C14.7481 9.55021 14.7309 9.48709 14.7252 9.4412C14.7252 9.30924 14.7424 9.1945 14.7768 9.08549C14.8112 8.97648 14.8686 8.88469 14.9432 8.81011C14.9432 8.85027 14.9375 8.91911 14.9203 9.01665C14.903 9.11418 14.8973 9.18877 14.8973 9.23467C14.8973 9.36662 14.9489 9.45842 15.0465 9.52153C15.1211 9.54448 15.1842 9.54448 15.2301 9.52153C15.276 9.49284 15.3276 9.44694 15.3907 9.3781V9.09123C15.3907 8.99944 15.3964 8.91911 15.4137 8.85026C15.4309 8.78142 15.4653 8.72978 15.5169 8.68962C15.5112 8.84453 15.5055 8.95353 15.5055 9.02238C15.5055 9.15434 15.5399 9.2404 15.6087 9.2863C15.6259 9.30351 15.6546 9.30924 15.7063 9.30924H15.8153C15.8382 9.25761 15.8382 9.17155 15.8153 9.05107C15.7866 8.93059 15.7751 8.856 15.7751 8.82732C15.7751 8.73552 15.8153 8.67241 15.9013 8.63225L16.0161 9.16008L16.0103 9.15434ZM17.4102 9.70511C16.1193 10.1928 14.8285 10.6862 13.5433 11.1738C13.4687 11.1968 13.4056 11.2427 13.3655 11.3058C13.3253 11.3689 13.2851 11.455 13.245 11.5525C13.5433 11.3919 13.8876 11.237 14.2777 11.0935C14.4613 11.0247 14.817 10.9042 15.3448 10.7263C15.4137 10.6977 15.6833 10.5886 16.1595 10.4051C16.7332 10.1813 17.152 9.95181 17.4102 9.70511ZM13.3482 9.13139C13.3081 9.2404 13.2794 9.32072 13.2565 9.37235C13.2048 9.48136 13.1474 9.55021 13.0958 9.57889C13.0499 9.58463 13.0098 9.56168 12.9696 9.51005C12.9639 9.50431 12.9352 9.45841 12.8893 9.37235C12.8835 9.33219 12.8778 9.28056 12.8778 9.21171C12.8778 8.98796 12.9524 8.78142 13.0958 8.59209C13.0729 8.74699 13.0499 8.89616 13.027 9.03959C13.027 9.15434 13.0614 9.2404 13.1302 9.30351C13.1761 9.30925 13.2163 9.28629 13.245 9.22892C13.2737 9.17155 13.3081 9.13713 13.3482 9.13139ZM11.191 7.57086C11.0935 7.69134 10.973 7.79462 10.8353 7.88068C10.6976 7.96674 10.5485 8.04132 10.3821 8.11016C10.2157 8.17901 10.0608 8.24786 9.90591 8.3167C9.751 8.38555 9.60757 8.47161 9.46988 8.56914C9.54446 8.42571 9.642 8.30523 9.75674 8.21917C9.87149 8.13311 10.0264 8.04706 10.2272 7.961C10.4395 7.88641 10.6001 7.82904 10.7091 7.78888C10.9099 7.7143 11.0706 7.63971 11.191 7.57086ZM15.276 11.9426C15.2473 12.0516 15.2186 12.1205 15.1899 12.1549C15.1612 12.1893 15.1211 12.1893 15.0694 12.1492C15.0178 12.0975 14.9375 12.0631 14.8285 12.0459C14.7596 12.3213 14.708 12.5221 14.6793 12.6541C14.6162 12.8893 14.5359 13.0729 14.4383 13.1934C14.4096 13.1417 14.3523 13.0212 14.2719 12.8434C14.1916 12.6655 14.1285 12.545 14.0826 12.4819H13.8302C13.813 12.3672 13.8302 12.2582 13.8589 12.1606C13.8933 12.0631 13.9507 11.9885 14.0367 11.9426C14.1285 12.0344 14.2146 12.1664 14.3006 12.3385C14.3867 12.5106 14.467 12.677 14.5416 12.8376C14.5703 12.6483 14.6047 12.4533 14.6449 12.2524C14.708 12.023 14.8055 11.8566 14.9432 11.7476C15.0178 11.7877 15.0866 11.8164 15.1383 11.8394C15.1899 11.8623 15.2358 11.8967 15.276 11.9426ZM21.9082 14.5244C21.9713 14.381 22 14.2375 22 14.0998C22 13.9449 21.9598 13.7613 21.8853 13.5491C21.8566 13.4573 21.7877 13.2909 21.6787 13.0442C21.5353 12.7917 21.3746 12.5909 21.1968 12.4475C20.996 12.2811 20.778 12.1836 20.5313 12.1606C20.3018 12.2065 20.101 12.327 19.9231 12.5278C19.7166 12.7631 19.5445 13.1245 19.4068 13.6064C19.4814 13.9679 19.7051 14.1859 20.0723 14.2605C20.2788 14.3006 20.6059 14.3351 21.0591 14.3752C21.2714 14.4383 21.3976 14.4842 21.432 14.5129C21.4664 14.5416 21.5009 14.6449 21.5295 14.8112C21.0247 15.0465 20.3993 15.2301 19.6592 15.362C19.0109 15.4596 18.3626 15.5571 17.72 15.6489C18.0126 15.5514 18.2536 15.3563 18.4429 15.0637C18.6093 14.8055 18.7183 14.5129 18.7642 14.1916C18.6552 13.9621 18.4716 13.7613 18.2019 13.595C18.0356 13.486 17.7946 13.3712 17.4791 13.2393C17.3586 13.1704 17.2438 13.1245 17.1348 13.1016C17.0258 13.0786 16.9111 13.0671 16.7906 13.0671C16.2857 13.0671 15.689 13.4401 15.0006 14.1916C14.5186 14.7195 14.2031 15.0465 14.0597 15.167L13.5892 14.903C13.4974 14.8285 13.4228 14.7424 13.3655 14.6563C13.3081 14.5703 13.2794 14.4785 13.2794 14.3867C13.2794 14.3408 13.2794 14.3006 13.2909 14.272C13.1819 14.3408 13.0729 14.4613 12.9581 14.6277C12.8032 14.8572 12.7114 14.9891 12.6827 15.0178C12.4991 15.2186 12.2869 15.3161 12.0402 15.3161C11.9426 15.3161 11.8508 15.2989 11.7648 15.2702C11.6558 15.2186 11.5754 15.1497 11.5181 15.0637C11.4607 14.9776 11.4033 14.8686 11.3517 14.7309V13.0671C11.3517 12.0402 11.3287 11.1452 11.2828 10.3821C11.2369 9.61906 11.1394 8.88469 10.996 8.17901C10.8755 8.38555 10.755 8.58635 10.6403 8.78715C10.7493 9.65921 10.8296 10.4395 10.887 11.1337C10.9443 11.8279 10.973 12.4991 10.973 13.1475C10.973 13.1647 10.9788 13.3024 10.996 13.572C11.0132 13.8417 11.0189 14.0253 11.0189 14.1343C11.0189 14.3179 11.0017 14.4842 10.9673 14.6391C10.9329 14.794 10.8755 14.926 10.7894 15.0407C10.5772 15.2989 10.3133 15.4309 9.9977 15.4309C9.90017 15.4309 9.80264 15.4194 9.71084 15.3964C9.61905 15.3563 9.55594 15.3047 9.52151 15.2415C9.48709 15.1784 9.46988 15.1038 9.46988 15.0178C9.47562 14.9489 9.48709 14.8801 9.49283 14.8112C9.49857 14.7424 9.5043 14.6793 9.5043 14.6162C9.5043 14.5244 9.48135 14.4498 9.44119 14.3982C9.40103 14.3465 9.32071 14.3121 9.20597 14.3064C8.40849 14.5875 7.61675 14.8744 6.83075 15.1555C6.44636 15.2645 6.07917 15.3506 5.71773 15.4194C5.35628 15.4882 5.01205 15.5227 4.68503 15.5227C4.249 15.5227 3.84739 15.4538 3.48021 15.3161C3.11302 15.1784 2.80321 14.9547 2.55077 14.6506C2.40734 14.4498 2.33276 14.1859 2.33276 13.8589C2.33276 13.6351 2.37292 13.4286 2.4475 13.2393C2.28112 13.5548 2.14343 13.8646 2.0459 14.1687C2.04016 14.2146 2.02869 14.2777 2.01721 14.358C2.00574 14.4383 2 14.5129 2 14.5818C2 15.035 2.16064 15.3907 2.48193 15.6489C2.75732 15.8726 3.04991 16.0276 3.35399 16.1193C3.65806 16.2111 4.00229 16.257 4.38669 16.257C4.77108 16.257 5.23006 16.1997 5.74068 16.0849C6.10212 16.0103 6.52668 15.8956 7.01434 15.7407C7.11188 15.712 7.49053 15.5571 8.13884 15.2817C8.58061 15.0924 8.965 14.9948 9.28629 14.9948C9.26334 15.1383 9.25186 15.2415 9.24613 15.2989C9.24613 15.3563 9.24613 15.4251 9.24613 15.5112C9.24613 15.6259 9.2576 15.7235 9.27481 15.8038C9.29202 15.8841 9.32645 15.9587 9.37235 16.0275C9.44693 16.1021 9.53873 16.148 9.64773 16.1652C9.75674 16.1824 9.89443 16.1939 10.0608 16.2111C10.2903 16.1824 10.4968 16.0734 10.6862 15.8956C10.8755 15.7177 10.996 15.5112 11.0476 15.2817L11.1968 15.6718C11.3115 15.9243 11.5238 16.0677 11.8394 16.0964C12.109 16.0964 12.35 15.9759 12.5737 15.7292C12.7057 15.5915 12.8663 15.3563 13.0557 15.0178C13.1245 15.0407 13.1933 15.144 13.2565 15.3219C13.3196 15.4997 13.3941 15.6202 13.4802 15.6718C13.5204 15.7235 13.5376 15.7751 13.5376 15.821C13.5376 15.8497 13.4745 15.9816 13.354 16.2111C13.3081 16.2972 13.2966 16.366 13.3196 16.4292L13.813 15.9243C14.14 16.0448 14.5301 16.1079 14.9719 16.1079C15.1956 16.1079 15.4596 16.0907 15.7636 16.0505C16.0677 16.0103 16.3259 15.9759 16.5324 15.9358C16.7676 16.0218 17.0201 16.0849 17.2783 16.1308C17.2955 16.1308 17.5479 16.1652 18.047 16.2341C18.7986 16.1193 19.5445 16.0046 20.296 15.8899C20.7091 15.7923 21.0361 15.6489 21.2828 15.4653C21.5812 15.2358 21.7935 14.9203 21.9139 14.5244H21.9082ZM9.33219 11.1279C9.33219 11.2025 9.31497 11.2829 9.28055 11.3632C9.24613 11.4435 9.20023 11.5296 9.14859 11.6213C9.10843 11.6443 9.06254 11.6558 9.0109 11.6558C8.95927 11.6558 8.91337 11.6386 8.88468 11.5984C8.856 11.5353 8.83305 11.4664 8.81583 11.3804C8.79862 11.2943 8.79289 11.214 8.79289 11.1394C8.79289 10.9558 8.82157 10.778 8.88468 10.6059C8.94779 10.4337 9.03385 10.2444 9.14859 10.0379C9.14286 10.0608 9.1027 10.187 9.02811 10.4223C8.95353 10.6575 8.91911 10.8353 8.91911 10.9673C8.91911 11.1279 8.965 11.2656 9.0568 11.3804C9.14286 11.4033 9.20023 11.3689 9.24039 11.2771C9.28055 11.1853 9.30924 11.1337 9.33219 11.1279ZM5.67183 8.43145C5.67183 8.43145 5.68904 8.49455 5.67183 8.54619C5.65462 8.59783 5.64314 8.64373 5.62593 8.68389C5.55135 8.67815 5.47103 8.68389 5.39071 8.7011C5.31038 8.71831 5.25875 8.76994 5.2358 8.84453C5.2358 9.05107 5.22433 9.22318 5.20711 9.36088C5.1899 9.49857 5.14974 9.63626 5.08663 9.77396C4.9891 9.71085 4.8973 9.59611 4.82272 9.41825C4.72519 9.1945 4.6506 9.0568 4.6047 8.99369C4.6047 9.03959 4.57602 9.06255 4.51291 9.06255H4.44406C4.41538 9.04533 4.39243 9.03959 4.38669 9.03959C4.32358 8.99943 4.29489 8.93632 4.29489 8.84453C4.29489 8.78142 4.30063 8.72978 4.31784 8.68962C4.33505 8.64946 4.34653 8.60357 4.358 8.55193C4.36948 8.5003 4.4039 8.47735 4.45554 8.47735C4.58749 8.54046 4.70224 8.67241 4.79977 8.87895C4.93173 9.1486 5.01779 9.30924 5.06368 9.37235C5.09237 9.1027 5.13253 8.87895 5.17269 8.68962C5.21285 8.50029 5.32186 8.4085 5.49971 8.4085C5.5743 8.4085 5.63167 8.41424 5.67183 8.43145ZM7.55364 11.0362C7.49053 11.0763 7.42742 11.1624 7.35284 11.2943C7.27826 11.4263 7.20367 11.5123 7.12909 11.5525L6.46357 11.1279L6.01606 11.6672C5.82674 11.5984 5.68904 11.541 5.60298 11.4951C5.4366 11.4033 5.33907 11.2943 5.31612 11.1738C5.44808 10.996 5.5743 10.8181 5.70625 10.6345C5.83821 10.6804 5.96443 10.7378 6.09065 10.8067C6.21687 10.8755 6.34309 10.9444 6.47504 11.0132L6.95697 10.4739C7.11188 10.5714 7.2381 10.6575 7.33563 10.7263C7.54217 10.864 7.61675 10.9673 7.55364 11.0362ZM5.63741 13.2278C5.66609 13.2966 5.66609 13.3712 5.62593 13.4515C5.58577 13.5318 5.55135 13.6122 5.51119 13.6868C5.41939 13.704 5.3276 13.7154 5.2358 13.7212C5.17269 13.6236 5.144 13.5032 5.144 13.3655C5.144 13.2278 5.17843 13.0729 5.25301 12.9008C5.3276 12.7286 5.39644 12.568 5.46529 12.4131C5.46529 12.4877 5.4366 12.6139 5.37349 12.7803C5.31038 12.9467 5.2817 13.0786 5.2817 13.1704C5.2817 13.2794 5.31038 13.3712 5.37349 13.4573C5.44808 13.4745 5.50545 13.4401 5.54561 13.3655C5.58577 13.2909 5.61446 13.245 5.63741 13.2278ZM3.62937 9.63627C3.58348 9.77396 3.38841 10.1239 3.04418 10.6919C2.77453 11.1337 2.64257 11.5123 2.64257 11.8164C2.64257 12.023 2.69421 12.2238 2.79174 12.4246C2.83764 12.4934 2.90075 12.5278 2.97533 12.5278C3.02696 12.5278 3.09581 12.5106 3.1704 12.4819C3.19908 12.459 3.23351 12.4188 3.26219 12.3557C3.3253 12.241 3.3712 12.1779 3.41136 12.1606C3.31956 12.4819 3.24498 12.7229 3.18187 12.8835C3.06713 13.1819 2.8778 13.3081 2.60815 13.2622C2.48767 13.1704 2.39587 13.0557 2.34423 12.9237C2.2926 12.7917 2.26391 12.6483 2.26391 12.5049C2.26391 12.327 2.29834 12.1205 2.36718 11.8738C2.45898 11.5984 2.52209 11.4033 2.55077 11.2886C2.68273 10.9845 2.83764 10.6862 3.02123 10.3936C3.20482 10.101 3.40562 9.84855 3.62937 9.63627ZM20.6001 8.61504V8.47735C20.5944 8.40276 20.5542 8.3626 20.4854 8.3626C20.4337 8.3626 20.3821 8.38555 20.3362 8.43145C20.4223 8.49456 20.5083 8.55193 20.6001 8.61504ZM21.0935 13.5605C20.8009 13.5605 20.5829 13.5433 20.428 13.5032C20.1985 13.4401 20.0321 13.3253 19.9346 13.1475C19.8944 13.0729 19.883 13.0212 19.9002 12.9983C19.992 12.9524 20.0895 12.9294 20.187 12.9294C20.3534 12.9294 20.5255 12.9926 20.6919 13.113C20.8583 13.2335 20.996 13.3827 21.0935 13.5605ZM18.2364 14.8342C17.7831 14.9891 17.3299 15.1096 16.8709 15.1957C16.4119 15.2817 15.953 15.3276 15.494 15.3276C15.3104 15.3276 15.1153 15.3219 14.9145 15.3047C14.7137 15.2874 14.5359 15.2645 14.3924 15.2358C15.0293 14.5875 15.4079 14.2203 15.5284 14.1343C15.8267 13.9277 16.1193 13.8245 16.4119 13.8245C16.8537 13.9162 17.2037 14.0195 17.4561 14.1343C17.8176 14.3006 18.0757 14.5359 18.2364 14.8342Z" fill="white"/>
</svg>
