<svg width="24" height="24" viewBox="0 0 24 24" fill="none" xmlns="http://www.w3.org/2000/svg">
<path fill-rule="evenodd" clip-rule="evenodd" d="M22 9.13486C21.9328 9.0901 21.8489 8.98377 21.7426 8.8103C21.681 8.71517 21.6307 8.63682 21.5859 8.58646L21.474 8.73195C21.474 9.2188 21.5355 9.90711 21.653 10.8025C21.7426 11.4572 21.7985 11.9161 21.8209 12.1735C21.8433 12.4309 21.8545 12.6156 21.8601 12.7275C21.8601 12.8394 21.8601 12.9569 21.8601 13.0856C21.8601 13.5109 21.8265 13.8914 21.765 14.2272C21.7034 14.563 21.5859 14.9099 21.4236 15.268C21.474 14.8484 21.502 14.4063 21.502 13.9362C21.502 13.3374 21.4516 12.6771 21.3565 11.9496C21.2613 11.2222 21.1606 10.4779 21.0655 9.72244C20.9703 8.96698 20.92 8.32345 20.92 7.79183C20.9032 7.71908 20.8976 7.66312 20.8976 7.62395C20.8976 7.49524 20.9312 7.36654 21.0039 7.23223C21.0767 7.09793 21.1606 6.98042 21.2669 6.88528C21.4236 7.31617 21.5803 7.74706 21.737 8.17236L21.7706 8.14997C21.7706 8.26749 21.7874 8.3906 21.8265 8.51371C21.8657 8.63682 21.9217 8.78232 21.9944 8.9446H21.9496C21.9664 8.98937 21.9776 9.03414 21.9944 9.0789V9.13486H22ZM18.2955 11.1158C18.3123 11.183 18.3067 11.2613 18.2843 11.3565C18.2619 11.4516 18.2003 11.5355 18.1052 11.6195C18.0325 11.6195 17.9653 11.5915 17.9149 11.5355C17.8646 11.4796 17.8198 11.4068 17.7806 11.3173C17.7583 11.1214 17.7862 10.92 17.8702 10.7129C17.9149 10.5842 17.9989 10.4163 18.1276 10.2093C18.1276 10.2932 18.0996 10.4163 18.0381 10.5898C17.9765 10.7633 17.9485 10.8864 17.9485 10.9703C17.9485 11.1046 17.9989 11.211 18.1052 11.2949C18.1668 11.3117 18.2003 11.2837 18.2171 11.2222C18.2339 11.1606 18.2563 11.1214 18.2955 11.1158ZM17.4001 9.97426C17.3386 10.019 17.2658 10.1086 17.1819 10.2485C17.0979 10.3884 17.014 10.4723 16.9412 10.5115C16.8741 10.4835 16.7622 10.4107 16.6055 10.3044C16.4488 10.1981 16.3201 10.1365 16.2138 10.1198C16.1746 10.1869 16.1242 10.2708 16.0571 10.366C15.9899 10.4611 15.9284 10.5339 15.8668 10.5786C15.7605 10.5562 15.6486 10.5115 15.5199 10.4499C15.3912 10.3884 15.268 10.3268 15.1505 10.2652C15.1673 10.1533 15.2177 10.0358 15.3072 9.90711C15.3744 9.81198 15.4695 9.70006 15.5982 9.58254C15.6933 9.59933 15.7997 9.6385 15.9116 9.70006C16.0235 9.76161 16.1298 9.82317 16.2362 9.88472L16.6726 9.38109C16.9133 9.48741 17.0867 9.58814 17.1987 9.68327C17.3106 9.7784 17.3777 9.87913 17.4001 9.97426ZM17.8142 7.10912C17.7694 7.26021 17.6911 7.34415 17.5792 7.36654C17.4841 7.39452 16.7286 7.59597 15.3184 7.9709C14.3279 8.23951 13.5725 8.44656 13.0576 8.59765C12.2742 8.82709 11.5355 9.07331 10.8416 9.33632C10.9368 9.0901 11.1662 8.92222 11.5243 8.83268C12.0392 8.70397 12.3358 8.62003 12.4085 8.57527C12.8282 8.45775 13.4214 8.28987 14.1992 8.07163C14.826 7.89815 15.4247 7.73587 16.0011 7.58478C16.5775 7.43369 17.1819 7.27141 17.8142 7.10912ZM14.4342 9.47062C14.4342 9.47062 14.3895 9.52099 14.3503 9.58254C14.3111 9.6441 14.272 9.67767 14.2328 9.68327C14.1489 9.59933 14.1097 9.4986 14.1097 9.36989C14.1097 9.31953 14.1153 9.25238 14.1321 9.17963C14.1489 9.10688 14.1656 9.01735 14.188 8.92222C14.1656 8.96698 14.1265 9.05652 14.0649 9.19642C14.0034 9.33632 13.9754 9.46503 13.9754 9.59373C13.9754 9.72804 14.009 9.83996 14.0761 9.92949C14.0817 9.92949 14.0985 9.92949 14.1265 9.94628C14.1544 9.95747 14.1768 9.96307 14.1992 9.96307C14.244 9.96307 14.2832 9.93509 14.3111 9.88472C14.3391 9.83436 14.3783 9.76721 14.4175 9.68327C14.4566 9.59933 14.4622 9.53218 14.4342 9.47062ZM11.8265 7.90375C11.8265 7.90375 11.7706 7.93173 11.7314 7.99329C11.6922 8.05484 11.6475 8.08282 11.6027 8.08282C11.4908 8.04365 11.4348 7.96531 11.4348 7.84779C11.4348 7.80302 11.446 7.73028 11.474 7.62395C11.502 7.51763 11.5132 7.45048 11.5132 7.4225C11.3565 7.64074 11.2781 7.87577 11.2781 8.13878C11.3173 8.20593 11.3565 8.26189 11.3956 8.30106C11.4348 8.34024 11.4908 8.36262 11.5579 8.36262C11.737 8.27868 11.8265 8.12759 11.8265 7.90375ZM13.8187 11.3733L13.7515 11.5635C13.69 11.5859 13.6228 11.5635 13.5389 11.502C13.455 11.4404 13.399 11.4068 13.3598 11.4068C13.2535 11.8041 13.1528 12.1959 13.0464 12.5932C12.9849 12.5428 12.9121 12.3917 12.8226 12.1511C12.7331 11.9105 12.6267 11.7874 12.498 11.7874C12.4477 11.7874 12.4029 11.793 12.3637 11.8097C12.3358 11.8041 12.291 11.7482 12.2406 11.6419C12.2462 11.6363 12.2742 11.5691 12.3134 11.4516C12.3525 11.3341 12.4029 11.2501 12.4533 11.2054C12.61 11.2725 12.7387 11.4124 12.8338 11.6195C12.9065 11.8041 12.9849 11.9888 13.0688 12.1679C13.0968 12.1063 13.136 11.944 13.1807 11.681C13.2255 11.418 13.3095 11.2278 13.427 11.1158C13.5893 11.1158 13.7236 11.1998 13.8187 11.3733ZM9.52098 7.46726C9.54337 7.49524 9.54337 7.54001 9.52658 7.59597C9.50979 7.65193 9.4986 7.6911 9.4986 7.71349C9.45943 7.73028 9.40347 7.71349 9.33072 7.66872C9.25797 7.62395 9.20761 7.60157 9.18523 7.60157C9.13486 7.60157 9.09569 7.64074 9.07331 7.71349V8.04925C9.07331 8.27308 9.06211 8.45775 9.03413 8.60884C9.00615 8.75993 8.9446 8.89424 8.84947 9.01175C8.82149 8.96139 8.75434 8.82709 8.65921 8.62003C8.59205 8.46335 8.51931 8.33464 8.43537 8.23951C8.37381 8.27868 8.30666 8.27308 8.22832 8.23391C8.14997 8.19474 8.07163 8.14997 7.99888 8.10521C7.98209 8.07723 7.9765 8.04365 7.9765 8.01567V7.94852C7.9765 7.81981 8.02126 7.7023 8.1108 7.59038C8.28987 7.64074 8.44656 7.77504 8.58086 7.99329C8.68718 8.17795 8.78791 8.36822 8.89424 8.55288C8.91102 8.26189 8.92222 8.01567 8.939 7.80862C8.95579 7.60157 9.03413 7.43369 9.17403 7.29939C9.29155 7.29939 9.40907 7.35535 9.52098 7.46726ZM16.3928 15.9172C16.3928 16.0123 16.3705 16.113 16.3201 16.2082C16.2697 16.3033 16.197 16.376 16.1018 16.4208C16.0515 16.4376 15.9899 16.432 15.9284 16.4096C15.8668 16.3872 15.8276 16.3313 15.822 16.2417C15.822 16.0123 15.878 15.7549 15.9899 15.4695C16.0515 15.3184 16.1074 15.1729 16.169 15.033C16.1858 15.1281 16.169 15.2289 16.1354 15.3352C16.0291 15.6542 15.9787 15.8276 15.9787 15.85C15.9787 15.9675 16.0291 16.0739 16.1242 16.1634C16.1914 16.1634 16.2473 16.1242 16.2921 16.0459C16.3369 15.9675 16.3705 15.9228 16.3928 15.9172ZM12.0839 10.2093L11.8825 10.3884L7.49524 11.6419L7.37213 11.7314C7.4113 11.6363 7.45047 11.5467 7.50084 11.474C7.5512 11.4012 7.61276 11.3565 7.6967 11.3397C8.42977 11.1438 9.16284 10.9536 9.90151 10.7577C10.5059 10.5954 11.2334 10.3884 12.0839 10.1421V10.2093ZM19.5602 8.82149C19.5602 8.5305 19.4818 8.21153 19.3307 7.86458C19.1796 7.51763 19.0285 7.18187 18.8774 6.8629C18.7823 6.95803 18.6984 7.06435 18.6368 7.17627C18.5753 7.28819 18.5417 7.39452 18.5417 7.50084C18.5417 7.5512 18.5529 7.60716 18.5753 7.66872C18.5921 7.78623 18.6928 8.48014 18.8774 9.73923C18.9726 10.4275 19.0733 11.1102 19.1796 11.7985C19.2468 12.2966 19.3363 12.9849 19.4482 13.8579C18.9782 14.2384 18.4074 14.4287 17.7359 14.4287H17.5232C17.4561 14.4287 17.3833 14.4231 17.3106 14.4063C17.3106 14.4007 17.3609 14.1824 17.4561 13.7571C17.5176 13.4885 17.5456 13.2647 17.5456 13.0856C17.5456 12.9681 17.5288 12.845 17.5008 12.7275C17.4729 12.61 17.4281 12.498 17.3665 12.4029C17.305 12.3078 17.2322 12.2238 17.1427 12.1567C17.0532 12.0895 16.958 12.0616 16.8629 12.0783C16.4992 12.3302 16.2194 12.6659 16.0347 13.0856C15.9508 13.2647 15.906 13.3822 15.8892 13.4326C15.822 13.6396 15.7885 13.8467 15.7885 14.0481C15.7885 14.1544 15.7997 14.2552 15.822 14.3615C15.2121 14.5014 14.6021 14.6133 14.0034 14.6861C13.4046 14.7588 12.7946 14.798 12.1847 14.798C11.5187 14.798 10.9088 14.7029 10.3492 14.5182C9.78959 14.3335 9.29715 14.0425 8.87185 13.6452L8.82708 13.4438C8.78232 13.4605 8.74874 13.4885 8.72636 13.5333C8.70397 13.5781 8.67599 13.6284 8.64801 13.69C8.60884 13.69 8.54729 13.6844 8.45775 13.6676H8.28987C7.8366 13.6676 7.38892 13.7795 6.94684 14.0034C6.61108 14.1768 6.23615 14.4398 5.81645 14.798C5.50867 15.0666 5.20649 15.3352 4.9099 15.6038C4.29994 16.141 3.75713 16.4992 3.28707 16.6782C3.2479 16.6838 3.19194 16.6894 3.108 16.6894C2.93453 16.6894 2.78344 16.6558 2.64354 16.5943C2.50364 16.5327 2.39172 16.4376 2.30218 16.3089C2.22943 16.1578 2.19026 16.0011 2.19026 15.8276C2.19026 15.6262 2.25182 15.38 2.36933 15.089C2.54841 14.6413 2.64354 14.4119 2.64913 14.3951C2.40851 14.8148 2.26301 15.0778 2.21265 15.1897C2.07275 15.5087 2 15.8109 2 16.0851C2 16.2194 2.01679 16.3593 2.04477 16.5048C2.07275 16.6503 2.17348 16.7846 2.34695 16.9133C2.48685 17.0196 2.64913 17.0923 2.8282 17.1371C3.31505 17.1371 3.8075 16.9692 4.30554 16.6335C4.46223 16.5271 4.88193 16.1802 5.57023 15.5814C5.97874 15.2177 6.32568 14.9547 6.61108 14.798C7.00839 14.5741 7.40011 14.4622 7.78623 14.4622C7.89256 14.4622 8.00448 14.4678 8.12199 14.4846C8.23951 14.5014 8.34583 14.5238 8.43537 14.5518C8.42977 14.5965 8.42417 14.6637 8.42417 14.7532C8.42417 15.0834 8.51371 15.3912 8.69278 15.6766C8.87185 15.9619 9.10129 16.2026 9.38668 16.3984C9.52658 16.0907 9.62731 15.8388 9.67767 15.643C9.72804 15.4471 9.75602 15.268 9.75602 15.1114C10.1421 15.296 10.545 15.4191 10.9591 15.4807C11.3733 15.5423 11.8713 15.5702 12.4533 15.5702C12.8954 15.5702 13.3766 15.5311 13.897 15.4583C14.0145 15.4415 14.4678 15.3688 15.2513 15.2345C15.3464 15.2345 15.5814 15.1673 15.9564 15.033C16.1186 14.9715 16.2585 14.9435 16.3705 14.9435C16.5439 14.9435 16.6894 15.005 16.8181 15.1337C17.0476 15.2065 17.305 15.2457 17.5792 15.2457C18.2955 15.2457 18.9166 15.0274 19.4482 14.5853C19.5434 14.4007 19.6161 14.2048 19.6553 14.009C19.6945 13.8131 19.7168 13.6004 19.7168 13.3766C19.7168 13.1808 19.6553 12.6659 19.5266 11.8209C19.4762 11.4796 19.4482 11.1774 19.4482 10.9256C19.3867 10.5618 19.3251 10.1813 19.2636 9.784C19.202 9.38668 19.1684 9.03973 19.1684 8.74315C19.1684 8.65361 19.1684 8.58086 19.1684 8.51931C19.1684 8.45775 19.1796 8.3962 19.1852 8.32904C19.2244 8.36822 19.2804 8.44656 19.3531 8.57527C19.4259 8.70397 19.493 8.78232 19.5546 8.82149H19.5602ZM11.0879 12.5932C11.0599 12.6883 11.0263 12.7946 10.9871 12.901C10.948 13.0073 10.8808 13.0744 10.7857 13.0968C10.6905 13.0968 10.6346 13.0576 10.6178 12.9793C10.601 12.901 10.5954 12.8338 10.5954 12.7722C10.5954 12.6379 10.6178 12.5092 10.6626 12.3861C10.7073 12.263 10.7689 12.1287 10.8528 11.9888C10.8248 12.0783 10.7969 12.1679 10.7801 12.2518C10.7633 12.3358 10.7521 12.4197 10.7521 12.5036C10.7521 12.6323 10.7801 12.7275 10.8416 12.7946C10.9032 12.8002 10.948 12.7834 10.9759 12.7387C11.0039 12.6659 11.0263 12.6156 11.0431 12.5932H11.0879ZM5.87241 7.44488L5.82764 7.7023L5.57023 7.60157C5.52546 7.90935 5.49748 8.13319 5.48069 8.28428C5.44152 8.56967 5.37437 8.75993 5.27924 8.85507C5.09457 8.45775 4.99384 8.2507 4.97706 8.22832C4.85954 8.02127 4.70285 7.84779 4.51819 7.71349L4.60772 7.33296C4.80358 7.4169 4.97146 7.61836 5.11136 7.94852C5.17292 8.10521 5.23447 8.2563 5.30162 8.40739C5.34079 8.13878 5.36877 7.89256 5.39675 7.67432C5.42473 7.45607 5.50308 7.34415 5.63738 7.34415C5.68774 7.34415 5.76609 7.37773 5.87241 7.44488ZM5.80526 9.40347C5.78288 9.55456 5.615 9.6385 5.30722 9.66089C4.99944 9.68327 4.81477 9.76721 4.75322 9.9183C4.84835 10.4275 4.9211 10.8304 4.96027 11.127C4.99944 11.4236 5.02182 11.6698 5.02182 11.8545C5.02182 12.2966 5.00504 12.6547 4.96586 12.9345C4.92669 13.2143 4.83716 13.4941 4.69726 13.7683C4.7812 13.5501 4.83716 13.3318 4.86514 13.1136C4.89312 12.8954 4.9099 12.6547 4.9099 12.3917C4.9099 12.0616 4.88192 11.737 4.83156 11.418C4.7812 11.0991 4.70285 10.7241 4.60772 10.2988C4.60772 10.0918 4.6357 9.9127 4.68607 9.76721C4.73643 9.62171 4.83716 9.50979 4.98825 9.42585L5.40235 9.3587C5.36318 9.27476 5.29603 9.23559 5.1897 9.23559C5.12815 9.23559 5.07219 9.25238 5.02182 9.29155L4.98825 9.33632C4.96027 9.29715 4.95467 9.24678 4.98825 9.18523C5.01623 9.12367 5.02742 9.0789 5.02742 9.05652C5.08898 8.97258 5.17851 8.93341 5.29603 8.93341C5.3352 8.93341 5.38556 8.9502 5.45271 8.98937C5.51987 9.02854 5.58702 9.0789 5.64857 9.15165C5.71013 9.2244 5.76609 9.30834 5.81086 9.40347H5.80526ZM6.73419 12.873C6.68942 12.9905 6.65585 13.08 6.63346 13.1304C6.5887 13.2255 6.52714 13.3039 6.45439 13.3542C6.33688 13.3542 6.24175 13.2927 6.17459 13.164C6.169 13.136 6.1634 13.0912 6.1634 13.0297C6.1634 12.8674 6.20817 12.6939 6.29771 12.5148C6.36486 12.3861 6.45999 12.235 6.5887 12.056C6.49356 12.263 6.43201 12.4085 6.40963 12.4813C6.36486 12.61 6.34247 12.7107 6.34247 12.7834C6.34247 12.8226 6.35366 12.8954 6.38164 13.0017C6.40962 13.108 6.47118 13.1248 6.56631 13.052C6.61668 12.9793 6.65025 12.9177 6.65585 12.873H6.73419ZM3.5333 13.0073C3.5333 13.4941 3.37101 13.8914 3.04085 14.2048C3.01287 14.2216 2.9681 14.2272 2.90655 14.2272C2.8394 14.2272 2.78344 14.216 2.74426 14.1936C2.70509 14.1712 2.63794 14.1265 2.5484 14.0593C2.40851 13.7739 2.33576 13.4829 2.33576 13.1752C2.33576 12.8674 2.40291 12.5316 2.53721 12.1791C2.5596 12.1175 2.82261 11.6139 3.33184 10.657C3.30386 10.7969 3.17515 11.1102 2.95131 11.5971C2.75546 12.0224 2.66032 12.3581 2.66032 12.6044C2.66032 12.7666 2.6883 12.9177 2.74426 13.0464C2.80022 13.1752 2.90095 13.3095 3.04085 13.4438C3.12479 13.4494 3.19754 13.427 3.25909 13.3766C3.32065 13.3262 3.37661 13.2535 3.41578 13.164C3.45495 13.0744 3.49412 13.0241 3.5333 13.0073ZM17.2546 13.8131C17.0252 13.9194 16.7902 14.0201 16.5607 14.1153C16.4488 14.0257 16.3537 13.9362 16.2809 13.8467C16.2082 13.7571 16.1466 13.662 16.1018 13.5557C16.2138 13.3151 16.3984 13.1136 16.6614 12.9401C16.7734 12.9121 16.8797 12.9401 16.9748 13.0297C17.042 13.0912 17.1035 13.1808 17.1651 13.2983C17.2043 13.371 17.2266 13.4494 17.2378 13.5221C17.249 13.5949 17.2546 13.6956 17.2546 13.8131Z" fill="white"/>
</svg>
