<svg width="24" height="24" viewBox="0 0 24 24" fill="none" xmlns="http://www.w3.org/2000/svg">
<path fill-rule="evenodd" clip-rule="evenodd" d="M21.9579 9.23494C21.9031 9.19279 21.8272 9.11692 21.7302 8.9989C21.6333 8.88088 21.549 8.79658 21.4816 8.74179C21.4816 9.08741 21.5827 9.93462 21.785 11.2918C21.8778 11.9241 21.9283 12.451 21.9283 12.8682C21.9494 13.0368 21.9663 13.2054 21.9789 13.3782C21.9916 13.5511 22 13.7239 22 13.9009C22 14.2634 21.9747 14.5922 21.9241 14.883C21.8736 15.1738 21.785 15.4478 21.6544 15.7007C21.6965 15.3846 21.7134 15.0684 21.7134 14.7481C21.7134 14.1412 21.6249 13.3066 21.4521 12.2402C21.3172 11.4309 21.2413 10.9294 21.2202 10.7313C21.1739 10.5205 21.1233 10.1959 21.0685 9.74916C20.9463 8.76286 20.8746 8.20649 20.8577 8.08004C20.8156 8.00417 20.7987 7.93251 20.7987 7.85664C20.7987 7.74284 20.8409 7.61639 20.921 7.48151C20.9294 7.47308 21.0053 7.36771 21.1528 7.15696C21.2455 7.35085 21.3635 7.61639 21.5068 7.94516C21.6754 8.33715 21.785 8.59427 21.8398 8.71229L21.8609 8.68278C21.8693 8.7165 21.8862 8.8008 21.9115 8.93989C21.9368 9.07899 21.9536 9.17593 21.9621 9.22651L21.9579 9.23494ZM18.1728 7.10217C18.1138 7.2244 18.0253 7.32978 17.9157 7.41408C17.8061 7.50259 17.6754 7.57846 17.5279 7.64589C17.313 7.73862 17.1823 7.79763 17.1317 7.81871C16.9842 7.89458 16.8577 7.97466 16.7566 8.06318C16.8114 7.91565 16.8957 7.78921 17.0095 7.68805C17.098 7.61218 17.216 7.54474 17.3635 7.48573C17.5111 7.42672 17.6207 7.38036 17.6881 7.35507C17.9115 7.26655 18.0717 7.18225 18.1728 7.10217ZM18.274 8.81344C18.2318 8.94832 18.1349 9.06213 17.9789 9.15907C17.7218 9.30238 17.4689 9.43726 17.2202 9.57214C17.2202 9.52577 17.2413 9.47519 17.2877 9.4204C17.3298 9.3656 17.3678 9.32767 17.393 9.29817C17.3846 9.28552 17.3003 9.23072 17.1401 9.138C17.0643 9.09163 17.0137 9.04527 16.98 8.99469C17.0938 8.80501 17.1739 8.68278 17.2118 8.6322C17.313 8.49732 17.4226 8.40459 17.5364 8.35822C17.6797 8.37087 17.7682 8.42567 17.8103 8.51839C17.8019 8.59426 17.7935 8.64485 17.7766 8.67857C17.7597 8.71229 17.7218 8.75022 17.6586 8.78815C17.5827 8.746 17.5153 8.70807 17.4478 8.66592C17.4226 8.66592 17.393 8.68278 17.3678 8.7165L17.2961 8.78815C17.3383 8.84716 17.3973 8.89774 17.4773 8.93146C17.5911 8.96518 17.6712 8.99047 17.7218 9.00311C17.8019 9.00311 17.8946 8.97782 17.9958 8.93146C18.1433 8.85559 18.2403 8.81766 18.2782 8.80923L18.274 8.81344ZM20.0443 12.7502C20.0443 12.1981 19.9473 11.4394 19.7492 10.4741C19.6017 9.74073 19.5174 9.31924 19.4963 9.20965C19.4752 9.1675 19.4668 9.12957 19.4668 9.08742C19.4668 9.0537 19.4752 9.00733 19.4963 8.95254C19.5174 8.89353 19.5427 8.82608 19.5764 8.746C19.6228 8.76708 19.6691 8.82609 19.7113 8.92303C19.7534 9.01998 19.7956 9.07055 19.8293 9.07055C19.8546 9.07055 19.8967 9.04948 19.9515 9.01154C19.9515 8.86402 19.8757 8.64906 19.7281 8.37509C19.5806 8.0969 19.5047 7.90722 19.5047 7.79763L19.4963 7.82714C19.4415 7.76813 19.3867 7.65854 19.3277 7.49837C19.2687 7.33821 19.2013 7.22862 19.1212 7.16961L18.7756 7.9283C18.8851 8.35823 19.0032 8.92303 19.138 9.6185C19.2181 10.0147 19.3319 10.609 19.4752 11.3972C19.6185 12.1854 19.7239 12.7334 19.7829 13.0368C19.8293 13.197 19.8546 13.3572 19.8546 13.5131C19.8546 14.0737 19.53 14.6006 18.8851 15.0895C18.3372 15.4394 17.7935 15.7934 17.2455 16.1517C17.3551 16.1264 17.5911 16.0969 17.9579 16.0674C18.3246 16.0379 18.5985 15.9789 18.7713 15.8904C19.2434 15.5195 19.5806 15.0474 19.7829 14.4741C19.9515 13.9936 20.0358 13.4204 20.0358 12.7544L20.0443 12.7502ZM19.294 14.0864C19.3024 14.04 19.3024 13.9683 19.3024 13.8756C19.3024 13.4963 19.2139 13.1296 19.0411 12.7713C18.9062 12.4931 18.6955 12.1896 18.4046 11.8524C18.1096 11.549 17.8103 11.2413 17.5153 10.9336C17.1654 10.5711 16.8999 10.2507 16.7144 9.97256C16.5922 9.81239 16.3983 9.56792 16.1286 9.24337C15.9178 8.96518 15.7956 8.71228 15.7534 8.47624C15.8419 8.53525 15.9305 8.59426 16.0148 8.64906C16.0695 8.68278 16.1286 8.69964 16.196 8.69964C16.1075 8.48889 15.9642 8.28236 15.7619 8.07161C15.6481 7.94938 15.4668 7.77235 15.2266 7.53631L15.2561 7.50681L15.0116 7.32556C14.9315 7.53631 14.8851 7.66697 14.8683 7.72177C14.8346 7.84822 14.8177 7.98731 14.8177 8.13483C15.0074 8.48046 15.2223 8.84294 15.4668 9.22651C15.6565 9.52155 15.8925 9.87561 16.1749 10.2887C16.3014 10.4699 16.4362 10.6427 16.5796 10.8113C16.7229 10.9757 16.8788 11.1527 17.0558 11.3424L18.0084 12.3624C18.1897 12.5648 18.3372 12.7418 18.4552 12.8977C18.5985 13.0874 18.725 13.2771 18.8346 13.4752C18.9442 13.6733 19.0327 13.8672 19.0917 14.0653C19.1507 14.2634 19.1844 14.4699 19.1844 14.6891C19.2181 14.6554 19.2392 14.6217 19.2518 14.5879C19.2603 14.5542 19.2687 14.5079 19.2687 14.4446V14.2845C19.2687 14.217 19.2771 14.1538 19.2982 14.0906L19.294 14.0864ZM13.8398 8.10954C13.785 8.29079 13.667 8.44674 13.4858 8.57319C13.3298 8.68278 13.1528 8.75443 12.9505 8.79658C12.9505 8.687 13.0263 8.60269 13.1823 8.54368C13.3762 8.4636 13.4984 8.39195 13.5448 8.33294C13.4436 8.27393 13.3298 8.24021 13.1992 8.24021C13.1233 8.24021 13.0769 8.24021 13.0558 8.24864C13.0348 8.25707 13.0053 8.27393 12.9631 8.29922C12.921 8.3245 12.8873 8.32872 12.862 8.30765C12.9505 8.0969 13.0938 7.97888 13.2961 7.94516C13.4394 7.9578 13.549 7.97466 13.6291 7.99574C13.7092 8.01681 13.7766 8.05475 13.8314 8.10533L13.8398 8.10954ZM14.5058 9.24337C14.4847 9.26866 14.4215 9.41618 14.3119 9.67751C14.2318 9.8714 14.156 9.97256 14.0885 9.97256C14.0464 9.97256 14.0126 9.9557 13.9874 9.92198L13.5406 9.47519L13.7724 8.83873C13.8651 8.81766 13.9874 8.86402 14.1349 8.98204C14.3372 9.138 14.4594 9.22651 14.4974 9.24337H14.5058ZM13.4015 6.96729C12.7819 7.12745 12.1623 7.29184 11.5385 7.45201C10.843 7.64168 10.236 7.81871 9.7176 7.98731C9.07692 8.19806 8.48261 8.41724 7.93888 8.64485C7.93888 8.65328 7.89252 8.7165 7.79557 8.83873C7.73657 8.9146 7.71971 8.98204 7.75342 9.04948C8.34773 8.746 8.93361 8.49311 9.51528 8.29079C10.0084 8.11376 10.6238 7.9283 11.3656 7.72598C11.6607 7.6459 12.2929 7.48151 13.2582 7.24126C13.4015 7.16539 13.4478 7.07687 13.4015 6.96729ZM13.4015 11.6206C13.4015 11.7766 13.3846 11.8946 13.3551 11.9747C13.3256 12.0547 13.275 12.1264 13.2076 12.1854C13.1612 12.1938 13.1191 12.177 13.0854 12.1348C13.0516 12.0758 13.0263 12.0337 13.0137 12.0126C13.0053 11.9704 13.0053 11.9114 13.0053 11.8314C13.0053 11.6543 13.0432 11.4647 13.1233 11.2539C13.1992 11.0432 13.275 10.8408 13.3509 10.647C13.3509 10.7355 13.3172 10.883 13.2455 11.098C13.1739 11.3087 13.1401 11.4562 13.1401 11.5363C13.1401 11.6628 13.1865 11.7597 13.2835 11.8187L13.4057 11.6164L13.4015 11.6206ZM12.7439 10.335C12.7313 10.4278 12.7187 10.4994 12.7102 10.5416C12.7018 10.5837 12.6765 10.609 12.6428 10.609C12.6175 10.609 12.5838 10.5964 12.5501 10.5669C12.5374 10.5669 12.5079 10.5584 12.4573 10.5374C12.411 10.5163 12.3772 10.5205 12.3562 10.5458C12.3224 10.6259 12.2803 10.7987 12.2255 11.06C12.1707 11.3213 12.0991 11.5068 12.0021 11.6164C11.9684 11.5827 11.8967 11.4225 11.7914 11.1317C11.7113 10.9083 11.5975 10.7987 11.4584 10.7987C11.4247 10.7987 11.3825 10.8071 11.3277 10.8282C11.2603 10.7945 11.2266 10.7228 11.2266 10.6174C11.2266 10.5374 11.2476 10.4573 11.2856 10.373C11.2856 10.3393 11.3066 10.3013 11.3446 10.2634C11.3825 10.2255 11.4247 10.2044 11.4668 10.2044C11.509 10.2044 11.5427 10.2212 11.568 10.255C11.6565 10.3772 11.7408 10.5247 11.8209 10.706C11.9009 10.8872 11.981 11.0558 12.0527 11.216C12.0948 11.0389 12.1328 10.8619 12.1749 10.6807C12.2339 10.4699 12.3182 10.314 12.4278 10.2044C12.4826 10.196 12.5248 10.2044 12.5585 10.2128C12.6175 10.255 12.6807 10.2929 12.7397 10.335H12.7439ZM15.3825 13.4288C15.3825 13.8082 15.3656 14.0737 15.3319 14.2297C15.2729 14.5205 15.138 14.7565 14.9357 14.9378C14.6322 15.2075 14.2866 15.4225 13.9031 15.5869C13.5195 15.7471 13.1317 15.8314 12.7397 15.8314C12.5838 15.8314 12.4278 15.8187 12.2677 15.7892C12.1075 15.7639 11.9557 15.7176 11.8082 15.6585C11.5385 15.5026 11.3783 15.4099 11.3319 15.3761C11.1718 15.2623 11.02 15.1317 10.8851 14.9799C10.7165 15.0474 10.4215 15.1907 10.0042 15.4141C9.33825 15.7723 8.8156 15.9494 8.43625 15.9494C8.26765 15.9494 8.11591 15.9283 7.97682 15.8904C7.83772 15.8482 7.6902 15.7723 7.52582 15.6585C7.1549 15.3761 6.92729 14.9294 6.84721 14.3224C6.80506 13.7913 6.76712 13.2518 6.72497 12.7123C6.44679 12.8893 6.16017 13.1254 5.86512 13.4204C5.70495 13.5806 5.44363 13.8588 5.08535 14.2507C4.78188 14.5879 4.52055 14.8493 4.30559 15.0389C3.99368 15.3171 3.69442 15.5194 3.40358 15.6543C3.29399 15.667 3.20969 15.6754 3.15068 15.6754C2.96101 15.6754 2.79241 15.6417 2.64067 15.5785C2.48894 15.5152 2.35406 15.4099 2.24025 15.2708C2.16017 15.1443 2.09694 15.0094 2.05901 14.8661C2.01686 14.7228 2 14.5879 2 14.4615C2 14.1327 2.11802 13.7618 2.35406 13.3487C2.49737 13.1001 2.7334 12.7671 3.06217 12.3582C2.90622 12.236 2.79663 12.0843 2.72919 11.8988C2.66175 11.7133 2.62803 11.4984 2.62803 11.2581C2.62803 11.1696 2.63646 11.0684 2.6491 10.9546C2.66175 10.8408 2.67439 10.7397 2.69125 10.6512C2.76712 10.3224 2.8725 10.0021 3.01581 9.69015C3.13804 9.42883 3.29399 9.138 3.4921 8.82187C3.31507 9.43726 3.14647 10.0484 2.97787 10.6638C2.97787 10.8324 3.01159 10.9884 3.07482 11.1275C3.13804 11.2708 3.25184 11.4014 3.41201 11.5237C3.53425 11.549 3.62276 11.4984 3.68599 11.3635C3.74921 11.2286 3.79979 11.157 3.84615 11.1527C3.84615 11.4141 3.82086 11.6501 3.76607 11.8609C3.71128 12.0716 3.60169 12.2444 3.43309 12.3877H3.18862C3.12961 12.4889 2.96523 12.7123 2.7039 13.0537C2.33298 13.5384 2.14752 13.9388 2.14752 14.2592C2.14752 14.4151 2.18124 14.5711 2.24868 14.7228C2.30769 14.8366 2.37513 14.9378 2.44257 15.0263C2.5353 15.1401 2.63646 15.2202 2.73762 15.2581C2.8177 15.2792 2.89779 15.2876 2.98209 15.2876C3.17597 15.2876 3.36565 15.237 3.54268 15.1317C3.71971 15.0263 3.89673 14.8788 4.07376 14.6933C4.95047 13.7913 5.82719 12.8809 6.7039 11.9705C6.7039 11.5237 6.67018 11.0263 6.60274 10.4741C6.44257 9.14642 6.35827 8.32451 6.35827 8.00417C6.43414 7.82714 6.48472 7.71755 6.51001 7.67119C6.57745 7.54474 6.65332 7.45622 6.7334 7.40986C6.83456 8.2107 6.91465 8.9694 6.97787 9.68594C7.03688 10.4025 7.0706 11.0937 7.0706 11.7597C7.18019 11.6375 7.42044 11.4984 7.79979 11.334C8.17914 11.1738 8.40674 11.0558 8.48683 10.9799L8.36459 10.5331C8.38988 10.4657 8.44468 10.276 8.52476 9.96834C8.63435 9.55106 8.81981 9.30238 9.08957 9.21808C9.41412 9.21808 9.72603 9.35717 10.0295 9.63115C10.2782 9.85875 10.4763 10.1369 10.628 10.4615C10.6027 10.4952 10.5437 10.6427 10.4552 10.9083C10.3962 11.0895 10.295 11.2075 10.1602 11.2623C10.0717 11.3298 9.86091 11.3888 9.52371 11.4351C9.36354 11.4604 9.24552 11.4942 9.17808 11.5279C9.14436 11.5616 9.1275 11.6206 9.1275 11.7007C9.1275 11.7555 9.13593 11.8187 9.15701 11.8946L9.13593 11.9241C9.10221 11.8904 9.07271 11.8524 9.0432 11.8145C8.95469 11.6712 8.91254 11.5995 8.91254 11.5911C8.60063 11.6796 8.28873 11.8061 7.9726 11.9747C7.71128 12.118 7.41623 12.3034 7.09168 12.531C7.09168 13.1844 7.1254 13.648 7.19283 13.9178C7.31507 14.4109 7.58904 14.7692 8.01054 14.9884C8.09062 15.0221 8.17914 15.0474 8.2803 15.0684C8.37724 15.0895 8.49947 15.098 8.63857 15.098C8.9294 15.098 9.23709 15.0347 9.55743 14.9041C9.81454 14.8029 10.0885 14.6512 10.3751 14.4488C10.1939 14.2718 10.0126 14.099 9.82719 13.922C9.59958 13.7323 9.3804 13.6396 9.17808 13.6396C9.098 13.6396 9.00527 13.6606 8.90411 13.6986C8.89568 13.6986 8.87039 13.7154 8.82824 13.7449C8.78609 13.7745 8.75237 13.7787 8.7313 13.7492C8.77766 13.5005 8.8156 13.3192 8.84089 13.2012C8.89568 12.9905 9.00527 12.8556 9.17387 12.7966C9.57007 12.7081 9.99579 12.6659 10.4468 12.6659C11.0285 12.6659 11.589 12.7334 12.137 12.8725C12.6849 13.0115 13.1781 13.2054 13.6249 13.4541C13.6038 13.5806 13.5743 13.707 13.5406 13.8335C13.5026 13.9599 13.4436 14.0737 13.3635 14.1833C13.2877 14.158 13.2202 14.1412 13.1528 14.1327C13.0854 14.1243 13.0095 14.1243 12.9294 14.1243C12.6807 14.1243 12.3941 14.1917 12.0695 14.3266C11.9094 14.4025 11.745 14.4699 11.5848 14.5374C11.7324 14.6849 11.9052 14.7945 12.0991 14.8661C12.2929 14.9378 12.5037 14.9715 12.7271 14.9715C12.9842 14.9715 13.2497 14.9294 13.5321 14.8451C13.8103 14.7608 14.0969 14.6554 14.3878 14.5247C14.51 14.4446 14.6322 14.3561 14.7629 14.2634C14.8894 14.1707 15.0074 14.0737 15.117 13.981C14.9062 13.4963 14.7545 13.1338 14.6533 12.8977C14.4594 12.4341 14.3119 12.0632 14.2192 11.7934C14.2192 11.6501 14.2445 11.5152 14.2908 11.3888C14.3372 11.2623 14.4089 11.1275 14.5016 10.9842C14.6449 11.1317 14.7882 11.2792 14.9357 11.4183C15.1043 11.608 15.1886 11.7723 15.1886 11.9157C15.1886 11.9704 15.1802 12.0084 15.1675 12.0379L14.8556 11.9157C15.0158 12.2781 15.1212 12.5184 15.1675 12.6322C15.2813 12.9272 15.3488 13.197 15.3699 13.433L15.3825 13.4288ZM8.29294 13.1844C8.25922 13.1928 8.2255 13.2265 8.196 13.2897C8.16649 13.353 8.12434 13.3825 8.06955 13.374C8.00211 13.2813 7.96839 13.1801 7.96839 13.0706C7.96839 12.9947 8.00632 12.8472 8.07798 12.6238C8.10327 12.5353 8.12434 12.451 8.13699 12.3709C8.02318 12.6069 7.95153 12.7629 7.92624 12.8345C7.8588 13.0158 7.82508 13.1844 7.82508 13.3403C7.82508 13.3825 7.83351 13.4499 7.84615 13.5426C7.86723 13.5848 7.89673 13.6143 7.9431 13.6354C7.98525 13.6564 8.0274 13.6733 8.06955 13.6859C8.14542 13.6522 8.196 13.5932 8.22972 13.5131C8.24236 13.4878 8.26344 13.374 8.28873 13.1801L8.29294 13.1844ZM5.73446 10.6975C5.70074 10.7186 5.66702 10.7692 5.63751 10.8493C5.60801 10.9294 5.55743 10.9715 5.48999 10.9715C5.42255 10.8619 5.38883 10.7481 5.38883 10.6259C5.38883 10.5163 5.41833 10.3645 5.48156 10.1622C5.54057 9.95991 5.57429 9.82082 5.58272 9.74916L5.40148 10.1833C5.39305 10.2086 5.36354 10.3182 5.30875 10.5079C5.25395 10.6975 5.22866 10.8366 5.22866 10.9209C5.22866 11.0811 5.30032 11.1991 5.43941 11.275C5.54057 11.2286 5.61644 11.1485 5.6628 11.0432C5.70917 10.9336 5.73446 10.8198 5.73446 10.6975ZM11.8967 16.6238C11.627 16.6659 11.3614 16.7039 11.0959 16.746C11.0495 16.7544 10.9737 16.7544 10.8725 16.7544C10.7587 16.7544 10.6575 16.746 10.569 16.7249C10.4805 16.7039 10.3962 16.6659 10.3161 16.6153C10.392 16.4931 10.5479 16.3793 10.7924 16.2781C11.0369 16.177 11.2013 16.0632 11.2898 15.9494C11.2476 15.9157 11.1928 15.9157 11.117 15.9494C11.0832 15.962 11.0285 15.9873 10.9568 16.021C10.9146 16.0337 10.8894 16.0421 10.8767 16.0421C10.8177 16.0421 10.7629 16.0252 10.7208 15.9957C10.6786 15.9662 10.6365 15.9199 10.5943 15.8609C10.6154 15.8356 10.6449 15.8398 10.6786 15.8777C10.7165 15.9157 10.7418 15.9325 10.7545 15.9325L10.8767 15.8103C10.9231 15.7639 10.9399 15.7133 10.9273 15.6585C10.8809 15.5911 10.8219 15.5574 10.7545 15.5574C10.6786 15.5574 10.5985 15.5995 10.51 15.6796C10.451 15.7344 10.3878 15.8061 10.3288 15.8904C10.3161 15.9114 10.3077 15.9367 10.3077 15.9704C10.3077 16.0168 10.3246 16.0632 10.3625 16.1011C10.4004 16.1433 10.4384 16.1812 10.4805 16.2233C10.2866 16.4257 10.177 16.5479 10.156 16.5858C10.1096 16.6659 10.0843 16.7586 10.0843 16.8598C10.1939 16.9188 10.3035 16.9652 10.4173 16.9905C10.5311 17.0158 10.6449 17.0326 10.7629 17.0326C10.8177 17.0326 10.9062 17.0242 11.0242 17.0115C11.3614 16.9525 11.6523 16.8219 11.8925 16.628L11.8967 16.6238ZM5.11064 7.49837C5.0432 7.43094 4.93783 7.39721 4.79874 7.39721C4.68915 7.5068 4.62171 7.63747 4.5922 7.79342C4.5627 7.94937 4.52476 8.13905 4.48683 8.37087C4.44046 8.31186 4.36038 8.14326 4.24236 7.86507C4.16228 7.65433 4.04847 7.52788 3.90938 7.48151C3.8883 7.52366 3.85458 7.58689 3.80822 7.6754C3.76185 7.76392 3.73656 7.83557 3.73656 7.89879C3.73656 7.94094 3.74499 7.98731 3.76607 8.0421C3.9431 8.00838 4.07798 8.0969 4.17914 8.30343C4.33509 8.6322 4.41939 8.80502 4.43203 8.81766L4.22129 8.89774C4.22129 8.89774 4.20021 8.95254 4.16228 9.04527C4.12013 9.13799 4.12013 9.20122 4.15385 9.24337L4.2255 9.16328C4.25922 9.14221 4.29716 9.13378 4.33509 9.13378C4.44468 9.13378 4.52055 9.17593 4.56691 9.26445C4.46575 9.28974 4.36459 9.31502 4.25922 9.34031C4.15385 9.3656 4.07376 9.40354 4.01054 9.45833C3.9431 9.63536 3.90938 9.8166 3.90938 10.0063C3.90938 10.1664 3.93467 10.3519 3.98946 10.5542C4.01475 10.6638 4.07376 10.8408 4.16228 11.0895C4.21707 11.2497 4.25922 11.3846 4.29294 11.4942C4.36881 11.7428 4.40253 11.962 4.40253 12.1517C4.40253 12.3414 4.36881 12.5353 4.30137 12.7165C4.4236 12.4678 4.48261 12.1896 4.48261 11.8862C4.48261 11.8314 4.47418 11.7344 4.45732 11.5995C4.44046 11.4604 4.4236 11.3551 4.41096 11.2876C4.39831 11.216 4.3098 10.8872 4.14963 10.3013C4.10748 10.158 4.06955 9.97677 4.0274 9.75338C4.12013 9.65222 4.28451 9.59321 4.51633 9.57635C4.74816 9.55949 4.88725 9.54263 4.92518 9.52998C4.97155 9.47519 4.99684 9.41618 4.99684 9.34874C4.99684 9.24758 4.94204 9.15064 4.83667 9.0537C4.74394 9.00733 4.6765 8.95253 4.64278 8.88509C4.60906 8.82187 4.5922 8.73757 4.5922 8.63641C4.5922 8.55633 4.63435 8.35823 4.71444 8.05053C4.74816 7.92408 4.76502 7.81449 4.76502 7.72598C4.79031 7.73441 4.84089 7.74284 4.90832 7.75549C4.94204 7.77656 4.96733 7.78499 4.98841 7.78499C5.03056 7.78499 5.05585 7.75127 5.06849 7.68805C5.08114 7.62482 5.09378 7.5616 5.11064 7.50259V7.49837ZM6.16438 15.3171C6.10959 15.3846 6.05479 15.452 6.00422 15.5194L5.85248 15.3888C5.83983 15.334 5.8314 15.2918 5.8314 15.2581C5.8314 15.237 5.83983 15.1823 5.85669 15.0853C5.87355 14.9926 5.88198 14.9125 5.88198 14.8535C5.76818 15.0305 5.70917 15.2244 5.70917 15.4394C5.70917 15.5194 5.7176 15.5869 5.73446 15.6417C5.75132 15.6965 5.78082 15.7428 5.82719 15.7766C5.86934 15.8145 5.92413 15.8271 5.98314 15.8229C6.03793 15.7471 6.07587 15.6712 6.10537 15.5953C6.13066 15.5194 6.15174 15.4267 6.16438 15.3171ZM9.80611 10.5416C9.6628 10.3983 9.51949 10.2845 9.37619 10.1959C9.23288 10.1074 9.07271 10.0526 8.90411 10.0358C8.85775 10.0611 8.83246 10.099 8.83246 10.1454C8.83246 10.1875 8.89147 10.2971 9.0137 10.4784C9.08114 10.5795 9.11486 10.6554 9.11486 10.7102C9.19073 10.7102 9.27503 10.6933 9.36776 10.6596C9.59536 10.5795 9.74289 10.5374 9.8019 10.5374L9.80611 10.5416ZM11.7703 13.6859C11.3909 13.5932 11.0074 13.5426 10.6154 13.5426C10.6955 13.6986 10.7798 13.8208 10.8683 13.9051C10.9568 13.9936 11.0453 14.0358 11.1423 14.0358C11.3024 13.9262 11.4078 13.8588 11.4542 13.8335C11.5553 13.7745 11.6607 13.7239 11.7661 13.6817L11.7703 13.6859Z" fill="white"/>
</svg>
