<svg width="24" height="24" viewBox="0 0 24 24" fill="none" xmlns="http://www.w3.org/2000/svg">
<path fill-rule="evenodd" clip-rule="evenodd" d="M22 9.27144C21.9469 9.24731 21.8938 9.20872 21.8504 9.15564C21.7636 9.06397 21.6864 8.9723 21.6092 8.87579L21.5175 9.09774C21.5175 9.44515 21.5416 9.82151 21.585 10.2316C21.6622 10.8782 21.7443 11.5248 21.8263 12.1665V12.9289C21.8263 13.4065 21.807 13.8167 21.7684 14.1544C21.7298 14.4922 21.6429 14.83 21.5127 15.1629C21.5368 15.0374 21.5513 14.8734 21.5609 14.6707C21.5706 14.4681 21.5706 14.3523 21.5706 14.3281C21.5706 14.111 21.5706 13.8939 21.5609 13.6816C21.5513 13.4644 21.5464 13.2473 21.5368 13.035L21.0398 8.19545C20.9771 8.11825 20.9481 8.05069 20.9481 7.98796C20.9481 7.90111 21.006 7.77085 21.1218 7.59232C21.1894 7.49099 21.2328 7.41378 21.2473 7.36071C21.3872 7.66951 21.5271 7.97349 21.6767 8.27747C21.8408 8.649 21.9469 8.98193 22 9.27144ZM18.608 7.18701C18.2895 7.42827 17.8649 7.66469 17.3245 7.90595C16.5235 8.263 16.0603 8.47048 15.9445 8.5332C15.9976 8.43187 16.0458 8.3595 16.0844 8.31125C16.152 8.2244 16.2292 8.16651 16.3064 8.13756C17.0688 7.8191 17.8408 7.50547 18.6128 7.18701H18.608ZM17.5754 9.53683C17.4837 9.61403 17.4017 9.63333 17.3341 9.59473L17.2425 9.50305C17.1749 9.63333 17.0784 9.725 16.9626 9.76842C16.8372 9.73947 16.7696 9.68158 16.76 9.59473C16.7503 9.50788 16.7407 9.42102 16.7407 9.32934C16.7407 9.12186 16.7841 8.94816 16.8661 8.80823C16.8902 8.84684 16.8999 8.89509 16.8999 8.94817C16.8999 8.98677 16.8902 9.0495 16.8758 9.13152C16.8613 9.21837 16.8516 9.27627 16.8516 9.30522C16.8516 9.43067 16.9192 9.47892 17.0591 9.4548C17.1363 9.39207 17.1749 9.28593 17.1749 9.13152C17.1749 9.06397 17.1749 8.98677 17.1797 8.90474C17.1797 8.82272 17.2087 8.7648 17.2569 8.7262C17.2811 8.77445 17.2907 8.82754 17.2907 8.89027C17.2811 9.00607 17.2811 9.0881 17.2811 9.13152C17.2811 9.27145 17.3486 9.33416 17.4789 9.31486C17.503 9.27626 17.503 9.20872 17.4789 9.11705C17.4548 9.02537 17.4451 8.95782 17.4451 8.91922C17.4451 8.85167 17.4644 8.79377 17.503 8.75517C17.5802 8.88062 17.6188 9.03501 17.6188 9.22802C17.6188 9.35829 17.6043 9.45962 17.5706 9.52717L17.5754 9.53683ZM18.4101 10.3233L18.3426 10.5549C18.2654 10.5163 18.2075 10.497 18.1689 10.497C18.1013 10.497 18.0579 10.5597 18.0483 10.69C18.0386 10.8155 18.0289 10.9409 18.0241 11.0567C18.0241 11.1725 17.9952 11.2835 17.9469 11.3945C17.8697 11.3655 17.807 11.3076 17.7636 11.2208C17.696 11.076 17.6236 10.9264 17.5561 10.7817C17.4403 10.8106 17.3679 10.8106 17.3341 10.7817C17.2859 10.7334 17.2666 10.6756 17.2666 10.608C17.2666 10.5694 17.2762 10.5211 17.2955 10.4584C17.3148 10.3957 17.3293 10.3523 17.3341 10.333C17.3969 10.2702 17.4451 10.2606 17.4837 10.2992C17.5127 10.3378 17.5706 10.4343 17.6526 10.5887C17.7346 10.7431 17.8166 10.8975 17.9035 11.0519C17.9276 10.8685 17.9566 10.7045 17.9952 10.5694C18.0338 10.4343 18.1013 10.3185 18.193 10.2172C18.2413 10.2075 18.3136 10.2461 18.415 10.333L18.4101 10.3233ZM13.2811 9.23285L13.2569 9.25696C13.3583 9.03501 13.4065 8.79376 13.4065 8.53803C13.4065 8.2051 13.3197 7.93972 13.1411 7.73706L13.2811 7.48134C13.4644 7.67434 13.5609 7.92042 13.5609 8.2244C13.5609 8.38846 13.5368 8.5525 13.4837 8.71656C13.4355 8.88061 13.3679 9.05432 13.2811 9.23285ZM20.0555 13.6092C20.0555 12.8613 19.9397 11.848 19.7081 10.5742C19.5392 9.65745 19.4331 9.05914 19.3945 8.78893L19.4765 8.60557L19.848 9.04466C19.848 8.77445 19.7708 8.48496 19.6164 8.17615C19.491 7.93007 19.3172 7.66951 19.0953 7.3993C19.0181 7.52958 18.9409 7.65986 18.8637 7.78049C18.8251 7.85769 18.8058 7.9349 18.8058 8.0121C18.8058 8.07482 18.8299 8.13755 18.8733 8.20993C19.0133 8.91922 19.1242 9.53199 19.2111 10.0531C19.2642 10.3716 19.3559 10.9892 19.491 11.9059C19.5537 12.3161 19.6405 12.9337 19.7563 13.7588C19.4958 13.8649 19.2642 13.947 19.0712 14C19.0036 14.0145 18.6128 14.0917 17.9035 14.2316C18.1062 14.1014 18.275 13.9035 18.415 13.643C18.5066 13.4741 18.6031 13.2377 18.7045 12.9385C18.7045 12.7552 18.6031 12.5863 18.4053 12.4415C18.3136 12.3788 18.1399 12.2919 17.889 12.181C17.6381 12.07 17.3776 12.0121 17.1074 12.0121C16.7117 12.0121 16.3064 12.1375 15.8914 12.3836C15.5971 12.5622 15.2593 12.8324 14.8733 13.1942C14.9361 12.9723 14.9795 12.7503 14.9988 12.538C15.0229 12.3257 15.0326 12.1038 15.0326 11.8722C15.0326 11.5778 15.0133 11.2594 14.9747 10.912C14.8589 10.1544 14.7431 9.3969 14.6273 8.62971L14.7189 8.48013C14.8203 8.64419 14.9361 8.77928 15.0663 8.89508C15.0663 8.6876 15.0181 8.46083 14.9168 8.20993C14.7479 7.87217 14.579 7.52958 14.4198 7.19183C14.3329 7.3221 14.2557 7.45239 14.1785 7.58749C14.1303 7.67434 14.111 7.75155 14.111 7.8191C14.111 7.88665 14.1303 7.94454 14.1689 7.99279C14.1689 8.46565 14.2992 9.57061 14.5645 11.3173C14.6803 12.0893 14.7382 12.7648 14.7382 13.3438C14.6755 13.3921 14.497 13.6044 14.193 13.9904C13.9759 14.2702 13.7732 14.4053 13.5802 14.4053C13.5513 14.4053 13.4934 14.3957 13.4162 14.3812C13.2232 14.2751 13.0784 14.1207 12.9867 13.9277C12.9385 13.836 12.8565 13.5175 12.731 12.9771L12.3739 8.6683C12.3739 8.42222 12.3546 8.19062 12.316 7.97349C12.2774 7.75636 12.2195 7.50546 12.1423 7.22078C12.0555 7.32693 12.0072 7.40414 11.9928 7.44274C11.9783 7.48134 11.93 7.65986 11.8528 7.97349C11.9686 8.5525 12.0748 9.31005 12.1665 10.2413C12.234 11.0133 12.3112 11.7805 12.3884 12.5477C12.4946 13.4114 12.6393 14.1544 12.8179 14.7721C12.8661 14.8879 12.9385 14.9795 13.0446 15.0423C13.1508 15.1098 13.3148 15.187 13.5368 15.2787C13.8456 15.2787 14.2992 15.2208 14.9023 15.105C15.5054 14.9892 15.9542 14.9313 16.2581 14.9313C16.3595 14.9313 16.4608 14.9313 16.5573 14.9409C16.6586 14.9506 16.7648 14.9602 16.8806 14.9795C16.9964 14.9988 17.1218 15.0085 17.2618 15.0085C18.0338 14.8541 18.8106 14.6997 19.5875 14.5453C19.7274 14.4584 19.8287 14.3185 19.9011 14.1158C19.9397 14.0097 19.9928 13.836 20.0651 13.5947L20.0555 13.6092ZM13.9662 11.7564C13.9373 11.8722 13.9083 11.988 13.8842 12.1038C13.8359 12.234 13.7587 12.2871 13.6526 12.2678C13.5513 12.1617 13.503 12.0266 13.503 11.8722C13.503 11.7419 13.5416 11.5923 13.614 11.4331C13.6864 11.269 13.7587 11.1146 13.8263 10.9699C13.8263 11.0471 13.7877 11.1725 13.7153 11.3462C13.6429 11.5199 13.6043 11.6406 13.6043 11.7129C13.6043 11.7757 13.614 11.8287 13.6333 11.8673C13.6526 11.9108 13.696 11.959 13.7684 12.0121C13.8166 12.0025 13.8456 11.959 13.8601 11.877C13.8745 11.795 13.9083 11.7564 13.9662 11.7564ZM11.1049 7.84322C11.1194 7.87217 11.1242 7.91559 11.1098 7.96384C11.1001 8.0121 11.0905 8.06034 11.0808 8.10859C11.0422 8.09894 10.9843 8.07965 10.9119 8.04588C10.8396 8.0121 10.7817 7.99279 10.7431 7.99279C10.6803 8.1086 10.6369 8.30642 10.6176 8.58146C10.5983 8.85649 10.5549 9.06396 10.5018 9.19424C10.4391 9.14599 10.3619 8.99642 10.2654 8.74069C10.1689 8.48496 10.029 8.35951 9.84077 8.35951C9.7877 8.3209 9.75875 8.26783 9.75875 8.19545C9.75875 8.14238 9.7684 8.0893 9.79252 8.0314C9.81665 7.97833 9.84077 7.92524 9.86007 7.86734C10.0145 7.93006 10.1399 8.06034 10.2413 8.263C10.3426 8.50425 10.4198 8.67796 10.4729 8.78412C10.5211 8.52839 10.5549 8.31126 10.5838 8.13756C10.6128 7.95903 10.6803 7.81427 10.7865 7.69847C10.8396 7.68882 10.8975 7.70811 10.9602 7.74671C11.0229 7.78531 11.0663 7.81426 11.1001 7.83839L11.1049 7.84322ZM10.0869 10.5308C10.1351 10.7479 10.0676 10.9265 9.88902 11.0616C9.83595 11.0616 9.79735 11.0471 9.77322 11.0133C9.73462 10.912 9.70567 10.8444 9.69119 10.8058C9.69119 10.6418 9.70567 10.4825 9.73945 10.3233C9.7684 10.1641 9.82147 10.0145 9.88902 9.86493C9.88902 9.92766 9.87455 10.029 9.84077 10.1641C9.81182 10.304 9.79252 10.4053 9.79252 10.4777C9.79252 10.6176 9.84077 10.719 9.93245 10.7914L10.082 10.526L10.0869 10.5308ZM8.18577 8.52839C8.11822 8.67314 8.06031 8.78893 8.01206 8.86613C7.93486 8.99159 7.85283 9.08809 7.77081 9.15564L7.15802 8.85649C7.10977 8.90474 7.05187 8.98194 6.98432 9.09774C6.86852 9.3004 6.74789 9.38242 6.62726 9.35347C6.52111 9.30522 6.44873 9.27627 6.41978 9.26179C6.30398 9.20872 6.20748 9.15081 6.13028 9.08808C6.193 8.95781 6.25573 8.82754 6.31363 8.69244C6.40531 8.53803 6.51146 8.46083 6.62726 8.46083L7.20627 8.7262L7.67913 8.21474L8.19059 8.52839H8.18577ZM5.20868 7.77567C5.19903 7.85287 5.18938 7.9156 5.17491 7.96867C5.16043 8.01692 5.12183 8.02656 5.05911 7.98796C4.99638 7.93971 4.94813 7.92041 4.90953 7.93006C4.82268 8.03622 4.77443 8.23406 4.76478 8.51391C4.75513 8.79377 4.72135 8.99159 4.66827 9.09774C4.60072 9.04949 4.50422 8.89509 4.38842 8.63454C4.30157 8.43189 4.16647 8.3402 3.98311 8.35468C3.92039 8.3016 3.89144 8.23405 3.89144 8.15684C3.89144 8.10859 3.91074 8.04105 3.94934 7.94937C3.98794 7.85769 4.00724 7.80462 4.00724 7.79979C4.16164 7.86734 4.28709 8.00726 4.38842 8.21474C4.52835 8.50907 4.61037 8.66831 4.64415 8.70208C4.66828 8.51873 4.6924 8.32572 4.72618 8.12307C4.75513 7.92041 4.8275 7.77085 4.93366 7.66952C5.06393 7.65505 5.15561 7.68882 5.21351 7.77567H5.20868ZM12.0651 15.3366C11.9397 15.4765 11.7853 15.6068 11.5923 15.7322C11.4524 15.8191 11.269 15.9156 11.0374 16.0314C10.8347 16.1182 10.6321 16.2051 10.4246 16.2968C10.2171 16.3884 10.0386 16.4801 9.89385 16.5766L10.0193 16.2775C10.3281 16.1472 10.661 15.9976 11.0229 15.8336C11.38 15.6695 11.7322 15.5055 12.07 15.3414L12.0651 15.3366ZM11.5537 12.4415C11.5392 12.2726 11.4668 12.099 11.3317 11.9204C11.2304 11.7805 11.0905 11.6357 10.9023 11.4813C10.8396 11.5489 10.7768 11.6599 10.7189 11.8046C10.6321 12.0073 10.5887 12.1182 10.579 12.1424L11.158 14.029C10.7817 14.3281 10.3715 14.6176 9.93245 14.8879C9.53197 15.1339 9.10736 15.3704 8.66345 15.602C8.21954 15.8287 7.77081 16.0459 7.31242 16.2437C7.01809 16.374 6.58384 16.5622 6.00483 16.8131C6.24608 16.7214 6.57901 16.6442 7.01327 16.5815C7.85283 16.4657 8.40772 16.3402 8.66828 16.2099C9.00603 16.041 9.35344 15.8673 9.70084 15.6888C9.9228 15.573 10.1255 15.4572 10.304 15.3414C10.5887 15.1629 10.8299 14.9747 11.0229 14.7721C11.2449 14.5404 11.4138 14.2799 11.5199 13.9952C11.5585 13.9084 11.5778 13.807 11.5778 13.6816C11.5778 13.5513 11.5296 13.3535 11.4331 13.0977C11.3365 12.8372 11.2883 12.649 11.2883 12.5236C11.2883 12.4946 11.2979 12.4367 11.3124 12.3595C11.4138 12.4608 11.4958 12.485 11.5537 12.4415ZM5.13631 9.53683C5.15078 9.70571 5.02051 9.80703 4.74065 9.83115C4.4608 9.8601 4.29674 9.93731 4.24367 10.0676C4.27262 10.2509 4.31122 10.4439 4.35947 10.6369C4.51387 11.269 4.5959 11.602 4.60072 11.6309C4.64897 11.8625 4.66827 12.0893 4.66827 12.3161C4.66827 12.6394 4.61037 12.9337 4.49457 13.1942C4.52352 13.117 4.54765 13.0302 4.56212 12.9289C4.5766 12.8275 4.58625 12.731 4.58625 12.6394C4.58625 12.4946 4.57177 12.3547 4.54765 12.2244C4.5187 12.0941 4.44632 11.8336 4.32087 11.4476C4.22919 11.1532 4.16647 10.9313 4.13752 10.7817C4.10856 10.6321 4.08926 10.497 4.08926 10.3812C4.08926 10.1641 4.13269 9.97108 4.21472 9.8022C4.27744 9.73948 4.35947 9.69123 4.46562 9.65263C4.57177 9.61403 4.6731 9.57543 4.77443 9.53683C4.7117 9.46928 4.6345 9.43068 4.54282 9.43068C4.50422 9.43068 4.45597 9.44515 4.39324 9.47893L4.30157 9.56095C4.30157 9.4355 4.32087 9.34383 4.36429 9.2811C4.40772 9.21837 4.4608 9.17494 4.53317 9.15564C4.64897 9.15564 4.75995 9.19424 4.86128 9.27144C4.96743 9.34864 5.05428 9.4355 5.13148 9.53683H5.13631ZM5.71532 12.6297C5.71532 12.7214 5.71532 12.8034 5.71049 12.871C5.71049 12.9385 5.67189 12.9964 5.61399 13.035C5.48372 13.035 5.40169 12.9578 5.37274 12.8034C5.34861 12.7359 5.33896 12.6635 5.33896 12.5959C5.33896 12.4946 5.36309 12.3836 5.40651 12.2534C5.45477 12.1279 5.48854 12.0314 5.51267 11.9687C5.49819 12.0555 5.48372 12.1424 5.46442 12.2292C5.44994 12.3161 5.44029 12.3692 5.44029 12.3836C5.44029 12.4753 5.44994 12.5477 5.46924 12.5959C5.48854 12.6442 5.52714 12.7021 5.58987 12.7648C5.61882 12.7503 5.64777 12.7359 5.67189 12.7262C5.69602 12.7166 5.70567 12.6924 5.70567 12.6635L5.71532 12.6297ZM8.71653 11.462C8.54765 11.2015 8.35947 10.9892 8.16164 10.8348C7.92039 10.6514 7.67431 10.5549 7.41858 10.5549C7.08565 10.6611 6.83957 10.8734 6.67069 11.1822C6.50663 11.491 6.41978 11.8384 6.41978 12.2244C6.51146 12.4174 6.64656 12.5477 6.82027 12.6201C6.99397 12.6924 7.20145 12.7262 7.43788 12.7262C7.56815 12.7166 7.70326 12.7117 7.83836 12.7021C7.97346 12.6924 8.10374 12.6924 8.22437 12.6924C8.32569 12.6924 8.41255 12.7021 8.48492 12.7166C8.5573 12.731 8.60555 12.7938 8.62967 12.8999C8.63932 13.0012 8.64897 13.1026 8.66345 13.1991C8.07479 13.6768 7.57298 14.0579 7.14837 14.3474C6.57901 14.7238 6.03378 15.0133 5.51749 15.2063C5.23281 15.3076 4.97708 15.38 4.75513 15.4283C4.53317 15.4765 4.29192 15.4958 4.03619 15.4958C3.73703 15.4958 3.46683 15.4524 3.2304 15.3607C2.99397 15.2738 2.78649 15.1195 2.61279 14.9023C2.40531 14.6466 2.29916 14.3474 2.29916 14C2.29916 13.7395 2.35223 13.45 2.46321 13.1412C2.55006 12.9096 2.66586 12.649 2.81062 12.3643C2.84922 12.3788 2.89264 12.3933 2.94572 12.4029C2.99397 12.4126 3.04222 12.4078 3.08082 12.3836C3.24487 12.2678 3.36068 12.1279 3.43305 11.959C3.50543 11.795 3.54403 11.6116 3.54403 11.409C3.54403 11.3318 3.54403 11.2739 3.53438 11.2353C3.49578 11.2353 3.44753 11.3028 3.38963 11.4331C3.33173 11.5634 3.24005 11.6213 3.11942 11.6068C2.91677 11.4041 2.82027 11.1725 2.82027 10.912C2.98914 10.3619 3.16285 9.81668 3.34137 9.26662C3.08565 9.62851 2.89264 9.95178 2.76236 10.2413C2.57901 10.6418 2.48251 11.0133 2.48251 11.3511C2.48251 11.5199 2.50181 11.6792 2.54041 11.8336C2.57901 11.9831 2.64656 12.1279 2.73824 12.2678C2.46803 12.8324 2.30398 13.1894 2.24125 13.3438C2.0772 13.7588 2 14.14 2 14.4777C2 14.8396 2.09168 15.1774 2.27986 15.4862C2.60314 15.988 3.02292 16.2389 3.54403 16.2389C4.06514 16.2389 4.52835 16.1761 4.99638 16.0459C5.46442 15.9204 5.89867 15.7419 6.30398 15.5151C6.70929 15.2883 7.12425 15.0085 7.54885 14.6755C7.89626 14.415 8.27262 14.0965 8.68275 13.725C8.89988 13.3293 9.00603 12.9144 9.00603 12.4753C9.00603 12.2968 8.98191 12.1183 8.93848 11.9349C8.89023 11.7515 8.82268 11.5923 8.731 11.4524L8.71653 11.462ZM18.1882 13.4307C17.585 13.7395 16.9626 13.9807 16.3257 14.1496C15.93 14.2509 15.5682 14.333 15.2304 14.3909C14.8926 14.4536 14.5742 14.4825 14.2654 14.4825C14.6273 14.1207 14.9891 13.754 15.3559 13.3824C15.8046 12.9723 16.2437 12.7696 16.6779 12.7696C16.7648 12.7696 16.842 12.7696 16.9095 12.7793C16.9771 12.7889 17.0495 12.8034 17.117 12.8275C17.3631 12.8806 17.5754 12.953 17.7539 13.0398C17.9324 13.1267 18.0772 13.257 18.193 13.4258L18.1882 13.4307ZM8.10374 11.8673C7.93486 11.9059 7.76598 11.9252 7.59228 11.9252C7.41858 11.9252 7.2883 11.9059 7.16285 11.8625C7.03739 11.8191 6.94089 11.7467 6.86369 11.6357C6.89264 11.5441 6.92642 11.4765 6.96019 11.4331C6.99397 11.3897 7.03739 11.3655 7.08082 11.3559C7.10495 11.3559 7.14355 11.3559 7.19662 11.3462C7.3655 11.3462 7.53438 11.3993 7.69361 11.5103C7.80941 11.5875 7.94451 11.7081 8.09891 11.8673H8.10374Z" fill="white"/>
</svg>
