<svg width="24" height="24" viewBox="0 0 24 24" fill="none" xmlns="http://www.w3.org/2000/svg">
<path fill-rule="evenodd" clip-rule="evenodd" d="M21.5791 4.40201C21.5356 4.67052 21.4485 4.92451 21.3179 5.15673C21.1872 5.39621 21.0203 5.64294 20.8099 5.89693C20.7954 5.78082 20.8534 5.60665 20.984 5.38169C21.1147 5.15673 21.1727 5.00433 21.1727 4.91725C21.1727 4.84468 21.1582 4.78663 21.1219 4.72857C19.9826 5.1277 19.1118 5.38895 18.5094 5.51957C17.9071 5.6502 17.3411 5.70825 16.8186 5.70825H16.1219C16.2235 5.8679 16.3033 6.0203 16.3541 6.15818C16.4049 6.29606 16.434 6.45571 16.434 6.62988C16.434 6.68793 16.4194 6.77502 16.3977 6.89113C16.3033 7.05078 16.209 7.21043 16.1219 7.36283C16.1582 7.26123 16.1727 7.13786 16.1727 6.99998C16.1727 6.7097 16.0784 6.4412 15.897 6.20172C15.8389 6.0711 15.6792 5.9187 15.418 5.73728C15.1567 5.55586 15.0261 5.39621 15.0261 5.25832C15.0261 5.18576 15.0697 5.08416 15.164 4.96805C15.8171 5.14221 16.4775 5.2293 17.1524 5.2293C17.5588 5.2293 17.9216 5.20753 18.2482 5.15673C19.2932 5.01885 20.2656 4.72857 21.1727 4.30042C21.3687 4.30042 21.5065 4.3367 21.5718 4.40201H21.5791ZM12.8345 5.94047C12.8708 5.99853 12.8781 6.06384 12.8636 6.14367C12.8491 6.21624 12.7837 6.38314 12.6821 6.63714C12.6386 6.71696 12.5515 6.7605 12.4354 6.7605C12.3411 6.7605 12.2612 6.73873 12.1887 6.68793C12.1089 6.492 12.0653 6.26703 12.0653 6.02756C12.0653 5.46152 12.283 4.93902 12.7112 4.47458C12.7112 4.57618 12.6531 4.77937 12.5298 5.06965C12.4064 5.35992 12.3483 5.57763 12.3483 5.71551C12.3483 5.94773 12.4354 6.12189 12.6096 6.238L12.8345 5.94047ZM14.939 10.0696C14.9826 10.222 14.9681 10.3817 14.8955 10.5486C14.8229 10.7155 14.7141 10.8679 14.5762 10.9913C14.3295 10.9913 14.1916 10.9042 14.1553 10.73C14.0972 10.5776 14.0682 10.4035 14.0682 10.2075C14.0682 9.87371 14.1916 9.46007 14.4311 8.97385C14.5472 8.74163 14.6705 8.50941 14.7939 8.27719C14.6415 8.82146 14.4891 9.36573 14.344 9.91725V10.1422C14.3657 10.2438 14.4238 10.3672 14.5181 10.5051C14.6488 10.5268 14.7358 10.4688 14.7939 10.3236C14.852 10.1785 14.8955 10.0914 14.9318 10.0696H14.939ZM21.9927 17.1088C21.9202 17.2757 21.8041 17.4427 21.6299 17.6023C21.3832 17.849 21.238 18.0087 21.18 18.0813L20.0987 17.508L19.3875 18.1901C19.3295 18.1466 19.1771 18.074 18.9231 17.9797C18.6763 17.8853 18.5167 17.7982 18.4586 17.7184C18.5747 17.4862 18.6909 17.2975 18.8142 17.1451C18.9376 16.9927 19.09 16.8694 19.2787 16.7605C19.6052 16.8331 19.9536 16.9782 20.3237 17.1959L21.0566 16.4847C21.3106 16.6371 21.5138 16.7605 21.6662 16.8548C21.8186 16.9492 21.9274 17.0363 22 17.1161L21.9927 17.1088ZM18.0015 15.9695C18.045 16.013 18.074 16.0638 18.074 16.1074C18.074 16.1654 18.0595 16.209 18.0377 16.2453C18.016 16.2815 17.9652 16.3469 17.8999 16.4339C17.6894 16.5936 17.537 16.7024 17.4282 16.746C17.254 16.8403 17.0726 16.8839 16.8911 16.8839C16.7968 16.8839 16.7242 16.8766 16.6662 16.8548C16.6081 16.8403 16.5501 16.8258 16.492 16.8113C16.434 16.7968 16.3759 16.7968 16.3179 16.7968C16.0276 16.7968 15.701 16.9492 15.3454 17.2467C14.8229 17.6749 14.5181 17.9143 14.4383 17.9579L12.7112 18.7053C13.016 18.5675 13.3062 18.4078 13.5965 18.2264C13.8868 18.045 14.1916 17.8345 14.5181 17.6023C14.8447 17.3628 15.164 17.1379 15.4833 16.9129C15.8026 16.6952 16.1147 16.492 16.4122 16.3178C16.5065 16.3033 16.6372 16.3396 16.8113 16.4122C16.9855 16.4847 17.1306 16.4993 17.2467 16.4557C17.2903 16.3541 17.3411 16.2598 17.3919 16.18C17.4427 16.1001 17.5007 16.0493 17.5588 16.0203L17.5951 16.267C17.6894 16.3033 17.762 16.2815 17.82 16.1945C17.8781 16.1146 17.9361 16.0348 17.9942 15.9477L18.0015 15.9695ZM8.89405 5.51957L8.7344 5.89693C8.58926 5.80259 8.45864 5.70825 8.32075 5.62117C8.27721 5.62117 8.24093 5.6502 8.20464 5.70825C8.1611 5.88242 8.13933 6.08561 8.13933 6.31783V6.61536C8.13933 6.8621 8.13208 7.02901 8.1103 7.1306C8.09579 7.2322 8.03774 7.3338 7.9434 7.44991C7.9434 7.46442 8.09579 7.58053 8.39332 7.81275C8.61103 7.98692 8.72714 8.14657 8.72714 8.29896C8.72714 8.3933 8.6836 8.48039 8.60377 8.56021C8.23367 8.61827 7.86357 8.66907 7.50798 8.71986C7.29028 8.79243 7.11611 8.92306 7 9.11899C7.05805 9.43104 7.15965 9.81566 7.31205 10.2656C7.52975 10.9187 7.66038 11.3106 7.69666 11.4557C7.791 11.8258 7.83454 12.1814 7.83454 12.5152C7.83454 12.762 7.81277 12.9869 7.76197 13.1974C7.71843 13.4078 7.62409 13.6255 7.48621 13.8577C7.54427 13.7199 7.58781 13.5675 7.60958 13.4006C7.63135 13.2337 7.64586 13.0813 7.64586 12.9361C7.64586 12.7184 7.62409 12.508 7.58781 12.3048C7.54427 12.1016 7.43541 11.7242 7.24673 11.1727C7.11611 10.8098 7.02177 10.5051 6.9492 10.2438C6.87663 9.98256 6.84761 9.71406 6.84761 9.43829C6.84761 9.16253 6.8984 8.88677 7.00726 8.58924C7.1016 8.48764 7.26851 8.40056 7.50073 8.33525C7.7402 8.26994 7.89985 8.21188 7.97968 8.15383C7.88534 8.05223 7.72569 8.00143 7.49347 8.00143C7.47895 8.01594 7.44267 8.05223 7.3701 8.1248C7.29753 8.19011 7.23948 8.22639 7.19594 8.22639C7.21771 8.05223 7.26125 7.91435 7.3193 7.80549C7.37736 7.69664 7.47895 7.6023 7.61684 7.51522C7.63135 7.53699 7.6894 7.5515 7.791 7.5515C7.65312 7.17414 7.54427 6.88387 7.45718 6.70245C7.29753 6.34686 7.08708 6.17995 6.83309 6.21623C6.73149 6.17995 6.64441 6.14367 6.5791 6.09287C6.51379 6.04933 6.4775 5.98401 6.46299 5.90419C6.49927 5.67197 6.5283 5.52683 6.54282 5.45426C6.55733 5.38895 6.62264 5.30912 6.7315 5.2293C7.01451 5.31638 7.26125 5.54134 7.46444 5.89693C7.61684 6.20172 7.78374 6.50651 7.9434 6.79679C8.00145 6.2888 8.03774 5.98401 8.05951 5.88967C8.13208 5.56311 8.2627 5.30912 8.43686 5.12044C8.51669 5.12044 8.58926 5.14947 8.65457 5.20027C8.71988 5.25107 8.79971 5.35992 8.88679 5.51957H8.89405ZM21.5718 11.9855C21.4993 11.7678 21.2598 11.2453 20.8389 10.418C20.5123 9.77937 20.3527 9.24236 20.3527 8.79969L20.7518 9.09722C20.7736 9.05368 20.7881 8.98837 20.7881 8.90854C20.7881 8.71261 20.643 8.45862 20.3527 8.13931C20.0044 7.76921 19.8084 7.54425 19.7576 7.45716C19.4891 7.80549 19.3295 8.22639 19.2714 8.72712C19.4673 9.42378 19.7649 10.193 20.1567 11.0276C20.3672 11.4702 20.7373 12.2032 21.2743 13.2191C21.18 13.3135 21.0203 13.4078 20.7881 13.4949C20.672 13.5384 20.5776 13.582 20.5123 13.6183C20.418 13.6183 20.2801 13.6183 20.0842 13.6328C19.8955 13.6473 19.7504 13.6473 19.656 13.6473C19.3875 13.6473 19.1771 13.611 19.0174 13.5457C18.8578 13.4731 18.7271 13.386 18.6183 13.2699C18.5094 13.1538 18.4369 13.074 18.4006 13.0232C18.328 12.9289 18.299 12.8345 18.299 12.7257C18.299 12.6676 18.3135 12.6023 18.3498 12.537C18.27 12.6096 18.0813 12.8926 17.791 13.3933C17.5733 13.7634 17.312 13.9811 17.0218 14.0392C16.9274 14.0754 16.8331 14.09 16.746 14.09C16.4702 14.09 16.2235 13.9593 16.0131 13.6908C15.955 13.6328 15.926 13.5602 15.926 13.4804C15.926 13.4368 15.955 13.3425 16.0058 13.2119C16.0566 13.0813 16.0856 12.9797 16.0856 12.9071C16.0856 12.8636 16.0711 12.8055 16.0493 12.7329C15.7155 13.0813 15.4325 13.328 15.2148 13.4804C14.881 13.7126 14.5399 13.8287 14.2061 13.8287C14.1335 13.8287 14.0537 13.8287 13.9521 13.8142C13.8505 13.7997 13.7707 13.7852 13.6981 13.7634C13.4441 13.6908 13.2264 13.5457 13.0522 13.328C12.8781 13.1103 12.762 12.8563 12.7039 12.5805L12.1451 13.4514C12.3048 14.1843 12.4717 14.9172 12.6313 15.6429C11.8403 16.2815 10.9913 16.8258 10.0914 17.2685C9.18432 17.7184 8.25544 18.0522 7.30479 18.2699C6.76052 18.4223 6.209 18.4949 5.65022 18.4949C5.09144 18.4949 4.53266 18.3933 4.04644 18.1974C3.56023 18.0014 3.1611 17.6894 2.86357 17.2757C2.65312 16.9419 2.55152 16.5355 2.55152 16.0566C2.55152 15.7881 2.58781 15.4905 2.66763 15.1567C2.7402 14.8229 2.83454 14.5399 2.93614 14.2932C3.01597 14.3077 3.12482 14.3222 3.24819 14.344C3.26996 14.344 3.32801 14.3294 3.42235 14.3077C3.71263 14.119 3.92308 13.8215 4.04644 13.4006C4.11901 13.0522 4.18432 12.6966 4.25689 12.3411C4.22061 12.3846 4.1553 12.5007 4.06821 12.6821C3.97387 12.8635 3.89405 12.9724 3.83599 13.0014C3.77068 13.0377 3.69811 13.0522 3.61829 13.0522C3.44412 13.0522 3.29173 12.9797 3.16836 12.8273C3.01596 12.4789 2.9434 12.1016 2.9434 11.6952C2.9434 11.2888 3.03774 10.8098 3.21916 10.2874C3.35704 9.89548 3.55297 9.46732 3.79245 9.0174C3.32801 9.63423 2.98694 10.222 2.76197 10.7736C2.49347 11.4485 2.36284 12.1233 2.36284 12.8128C2.36284 13.0595 2.37736 13.299 2.41364 13.5457C2.56604 13.7634 2.63861 13.9956 2.63861 14.2278C2.63861 14.402 2.49347 14.881 2.20319 15.672C2.07257 16.0203 2.01451 16.3178 2.01451 16.5573C2 16.6516 2 16.7823 2 16.9564C2 17.4354 2.08708 17.8563 2.26125 18.2264C2.43541 18.5965 2.70392 18.894 3.05951 19.1117C3.46589 19.3077 3.88679 19.4601 4.32221 19.5544C4.75762 19.656 5.19303 19.6995 5.62119 19.6995C6.76052 19.6995 7.97968 19.3875 9.27866 18.7561C10.2874 18.2699 11.3687 17.5805 12.5152 16.6807C12.6313 16.5791 12.7837 16.2453 12.9652 15.6865C13.1176 15.2583 13.328 15.0406 13.611 15.0406C13.6836 15.0406 13.7417 15.0406 13.7852 15.0551C14.5762 15.0551 15.164 14.7358 15.5631 14.0972C15.6212 14.4673 15.6647 14.6923 15.6865 14.7649C15.7083 14.8374 15.7591 14.9245 15.8244 15.0188C16.1001 15.2075 16.3977 15.2946 16.7097 15.2946C17.0726 15.2583 17.3628 15.0769 17.5806 14.7576C17.7112 14.5834 17.8491 14.2786 18.0015 13.836L18.299 14.344C18.4732 14.5544 18.6691 14.6923 18.8941 14.7721C19.1118 14.8447 19.373 14.8882 19.6633 14.8882C19.91 14.8882 20.1713 14.8519 20.4543 14.7866C20.7373 14.7141 20.9768 14.6487 21.18 14.5762C21.3759 14.3875 21.5065 14.177 21.5718 13.9376C21.6372 13.6981 21.6662 13.4078 21.6662 13.0595C21.6662 12.9289 21.6589 12.762 21.6372 12.5442C21.6226 12.3265 21.6009 12.1379 21.5791 11.9637L21.5718 11.9855ZM10.2874 12.4717C10.2874 12.5878 10.2583 12.7112 10.2003 12.8345C10.1422 12.9651 10.0987 13.0595 10.0624 13.1321C9.98984 13.1683 9.93179 13.1829 9.87373 13.1829C9.83019 13.1829 9.75762 13.1683 9.66328 13.1321C9.56168 12.8998 9.50363 12.6821 9.50363 12.4717C9.50363 12.1959 9.56894 11.8984 9.70682 11.5863C9.83744 11.2743 9.97533 10.9622 10.1132 10.6647C9.98258 11.1509 9.85922 11.6371 9.72859 12.1306C9.72859 12.4064 9.83744 12.6096 10.0624 12.7402C10.1059 12.7184 10.1422 12.6676 10.164 12.5805C10.1858 12.5007 10.2293 12.4644 10.2874 12.4789V12.4717Z" fill="white"/>
</svg>
