<svg width="24" height="24" viewBox="0 0 24 24" fill="none" xmlns="http://www.w3.org/2000/svg">
<path fill-rule="evenodd" clip-rule="evenodd" d="M17.8194 9.45531L17.6638 9.77948C17.5925 9.72113 17.5406 9.67575 17.5082 9.64981C17.4369 9.59795 17.3786 9.57201 17.3267 9.57201C17.1905 10.0064 17.0479 10.4343 16.9118 10.8557C16.8275 10.7844 16.7237 10.6094 16.6006 10.3241C16.5422 10.175 16.4709 10.0647 16.3931 9.98695C16.3347 10.0647 16.2764 10.1036 16.2245 10.1036C16.1986 10.1036 16.1662 10.0842 16.1338 10.0518C16.1143 10.0194 16.1078 9.9675 16.1078 9.90914C16.1078 9.85728 16.1273 9.78596 16.1662 9.70168C16.2051 9.61739 16.231 9.55256 16.2505 9.52014C16.4514 9.49421 16.5941 9.59795 16.6913 9.83135C16.8275 10.162 16.9247 10.35 16.9766 10.4019C17.009 10.0972 17.0544 9.86376 17.1127 9.6952C17.1711 9.52663 17.2748 9.37103 17.4304 9.22191C17.5925 9.22191 17.7222 9.29971 17.8194 9.45531ZM17.7805 7.25745C16.7691 7.90578 15.667 8.34017 14.474 8.54764C14.1045 8.60599 13.8322 8.64489 13.6636 8.65786C13.495 8.67082 13.294 8.67731 13.0606 8.67731C12.6522 8.67731 12.2761 8.65137 11.9196 8.59302C11.563 8.53467 11.2129 8.45039 10.8563 8.34017C10.6294 8.57357 10.4089 8.80049 10.195 9.02741C9.94214 9.29323 9.78653 9.52663 9.71522 9.72761L10.7915 8.70324C11.0832 8.80698 11.3944 8.87829 11.7186 8.92367C12.0427 8.96906 12.3799 8.98851 12.7365 8.98851C13.1773 8.98851 13.6312 8.95609 14.0915 8.89125C14.5518 8.82642 14.9992 8.74214 15.4336 8.6384C16.3931 8.2494 16.9312 8.016 17.0414 7.95117C17.3721 7.75018 17.6185 7.52327 17.7805 7.26393V7.25745ZM12.5031 12.1913C12.529 12.4182 12.4318 12.6257 12.2178 12.8137C12.1465 12.8331 12.0881 12.8072 12.0427 12.7424C11.9974 12.6775 11.952 12.6127 11.9196 12.5414C11.9131 12.496 11.9066 12.4312 11.9066 12.3469C11.9066 11.9384 12.0427 11.5883 12.3215 11.2836C12.2373 11.4587 12.1789 11.6013 12.1465 11.705C12.1141 11.8088 12.1011 11.919 12.1011 12.0357C12.1011 12.1913 12.153 12.3339 12.2567 12.4701C12.3021 12.4506 12.341 12.4052 12.3734 12.321C12.4058 12.2367 12.4512 12.1978 12.5031 12.1978V12.1913ZM21.9947 11.6078C21.7808 11.316 21.502 11.0632 21.1649 10.8557C20.899 10.6936 20.5619 10.538 20.1535 10.4019C20.0043 10.3759 19.8617 10.363 19.7255 10.363C19.0578 10.363 18.2538 10.7974 17.3137 11.6597C16.6913 12.2302 16.2569 12.5933 16.0171 12.7489C15.7642 12.6775 15.5632 12.5544 15.4011 12.3663C15.2391 12.1783 15.1353 11.9579 15.0835 11.6986C14.9538 11.7699 14.8371 11.8866 14.7333 12.0616C14.6555 12.2172 14.5777 12.3663 14.4999 12.5155C14.6491 12.898 14.7463 13.1703 14.7982 13.3324C14.8954 13.6436 14.9408 13.9288 14.9408 14.1882C14.7398 14.3373 14.5194 14.467 14.2795 14.5772C14.0461 14.6615 13.8192 14.7522 13.5923 14.8495C12.6652 15.1347 11.764 15.3617 10.8822 15.5238C9.81247 15.7247 8.81403 15.822 7.89987 15.822C6.62913 15.822 5.52696 15.6469 4.59335 15.2903C3.51063 14.8819 2.64834 14.2336 2 13.3453C2.0778 13.5787 2.21395 13.9094 2.41494 14.3438C2.57054 14.6874 2.6613 14.8884 2.68724 14.9402C3.05679 15.5562 3.55601 15.997 4.17841 16.2758C4.87214 16.587 5.98728 16.7426 7.5368 16.7426H8.32777C9.00205 16.7426 9.6828 16.6843 10.37 16.5676C11.0573 16.4509 11.7575 16.2888 12.4707 16.0813C13.1838 15.8739 13.7868 15.6016 14.2795 15.2644C14.85 14.8754 15.3169 14.3762 15.6799 13.7732C15.9976 13.9029 16.3153 13.9937 16.6265 14.0455C16.9377 14.0974 17.2683 14.1233 17.6249 14.1233C18.2473 14.1233 18.8568 14.0455 19.4597 13.8899C20.0627 13.7343 20.6527 13.5204 21.2297 13.2416C21.3594 13.0536 21.4955 12.8591 21.6317 12.6581C21.9104 12.2626 22.0271 11.9125 21.9947 11.6078ZM10.6229 11.9709C10.5386 12.1978 10.3895 12.3663 10.1755 12.483C9.96158 12.5997 9.72818 12.6711 9.46885 12.697C9.50127 12.6127 9.63093 12.5219 9.85785 12.4247C10.0848 12.3274 10.2274 12.2496 10.2858 12.1913C10.1366 12.1589 10.007 12.1329 9.89675 12.1135C9.78653 12.094 9.6828 12.0876 9.58555 12.0876C9.4494 12.0876 9.31973 12.12 9.19655 12.1913C9.216 12.107 9.2549 12.0227 9.31325 11.9449C9.3716 11.8671 9.44292 11.8217 9.51423 11.8023C9.58555 11.7828 9.65038 11.7764 9.70873 11.7764H9.83192C9.98752 11.7764 10.1366 11.7893 10.2793 11.8217C10.4219 11.8542 10.5386 11.8995 10.6229 11.9709ZM6.97923 8.88478L6.88846 9.22191C6.78473 9.17004 6.70693 9.13763 6.65506 9.11818C6.55781 9.07279 6.48001 9.06631 6.4087 9.09224C6.33738 9.22839 6.29848 9.47476 6.27903 9.81838C6.25958 10.162 6.22068 10.4084 6.14936 10.5575C6.04563 10.4862 5.92893 10.2787 5.79277 9.92211C5.65662 9.56553 5.48157 9.39048 5.26762 9.39048C5.18334 9.33861 5.1185 9.29323 5.0796 9.25433C5.0407 9.21543 5.02125 9.17004 5.02125 9.11818C5.05367 8.98203 5.08609 8.87181 5.11202 8.78752C5.13795 8.70324 5.18982 8.63192 5.26762 8.57357C5.47509 8.70972 5.64366 8.90422 5.77332 9.15708C5.77332 9.16356 5.87057 9.40344 6.07156 9.87025C6.07156 9.60443 6.11046 9.36455 6.18178 9.16356C6.25309 8.96258 6.38276 8.80049 6.5643 8.67731C6.70045 8.68379 6.84308 8.75511 6.97923 8.88478ZM7.88691 12.4506C7.86097 12.5803 7.84152 12.7035 7.82207 12.8267C7.77669 12.9628 7.68592 13.0471 7.5368 13.073C7.45252 13.073 7.3812 13.0277 7.33582 12.9304C7.29043 12.8331 7.25802 12.7683 7.23857 12.7229C7.23857 12.5219 7.27098 12.3145 7.32933 12.1005C7.35527 12.0033 7.42659 11.8088 7.5368 11.517C7.5368 11.5689 7.52384 11.6532 7.4979 11.7634C7.43955 12.0227 7.40714 12.1978 7.40714 12.295C7.40714 12.496 7.49142 12.6257 7.6535 12.697C7.69889 12.6775 7.7313 12.6322 7.75724 12.5608C7.78317 12.4895 7.82856 12.4506 7.88691 12.4506ZM21.3205 12.4117C20.8018 12.6257 20.2637 12.8007 19.6996 12.9239C19.1356 13.0471 18.578 13.1119 18.0139 13.1119C17.787 13.1119 17.5407 13.099 17.2683 13.073C16.996 13.0471 16.7562 13.0082 16.5487 12.9563C16.9571 12.6127 17.3591 12.2626 17.7676 11.906C18.2538 11.5235 18.7077 11.3355 19.142 11.3355C19.2523 11.3355 19.369 11.3485 19.4921 11.3744C19.9071 11.5041 20.2377 11.6337 20.4906 11.7634C20.8277 11.9449 21.1065 12.1589 21.3205 12.4117Z" fill="white"/>
</svg>
