<svg width="24" height="24" viewBox="0 0 24 24" fill="none" xmlns="http://www.w3.org/2000/svg">
<path fill-rule="evenodd" clip-rule="evenodd" d="M14.0226 6.11097L13.8282 5.9918C13.6651 6.3242 13.3892 6.6754 12.9878 7.04542C12.7369 7.27747 12.3732 7.57223 11.9028 7.93598C12.4735 7.27747 13.0505 6.61269 13.6337 5.94163C13.5961 5.904 13.4895 5.82874 13.3264 5.72212C13.1634 5.61551 13.0568 5.51517 13.0191 5.41482C13.0881 5.25803 13.1696 5.0887 13.2574 4.9131C13.3452 4.73749 13.4707 4.62461 13.6337 4.56189C13.8658 4.5807 13.9975 4.67478 14.0226 4.84411C13.9724 4.93191 13.9473 5.01971 13.9473 5.11378C13.9473 5.20785 13.9975 5.33956 14.0978 5.52771C14.1606 5.64059 14.1856 5.72212 14.1856 5.77856C14.1856 5.87891 14.1292 5.98553 14.0226 6.10469V6.11097ZM14.5807 6.66913C14.518 6.85101 14.4616 7.03288 14.3989 7.20849C14.2484 7.2712 14.1731 7.2273 14.1731 7.08305C14.1731 6.9388 14.1543 6.85728 14.1104 6.83219C14.0978 6.84473 14.0727 6.93253 14.0226 7.10186C13.9724 7.2712 13.916 7.37781 13.847 7.42799C13.778 7.47816 13.7215 7.49697 13.6714 7.49697C13.6087 7.49697 13.5648 7.43426 13.5334 7.30256C13.502 7.17085 13.4707 7.0956 13.4456 7.07678C13.408 7.18967 13.3766 7.29001 13.3641 7.39036C13.3515 7.4907 13.339 7.62867 13.339 7.79801C13.4268 7.88581 13.5271 7.93598 13.6275 7.93598C13.6776 7.93598 13.8658 7.82937 14.1982 7.6224C14.3173 7.54087 14.4302 7.51579 14.5306 7.54715C14.5306 7.47816 14.5557 7.37154 14.6058 7.23357C14.656 7.0956 14.6811 6.98898 14.6811 6.91999C14.6811 6.83219 14.6435 6.75066 14.5745 6.68167L14.5807 6.66913ZM15.3772 8.98961C15.3271 9.15267 15.2393 9.32827 15.1201 9.52896C15.0699 9.61676 14.957 9.79236 14.7877 10.0432L13.7654 9.65439C13.8846 9.18403 14.1041 8.80773 14.4302 8.52551C14.4929 8.56314 14.6372 8.62585 14.8755 8.70111C15.1138 8.77637 15.2769 8.87672 15.3772 8.99588V8.98961ZM22 12.2884C22 13.2104 21.9122 14.0758 21.7366 14.8786C21.561 15.6814 21.2725 16.4214 20.8711 17.105C20.4384 18.0207 19.7172 18.6227 18.7012 18.9238C18.0803 19.1056 17.1019 19.1934 15.7661 19.1934L14.424 19.1621C15.1389 19.1621 15.8413 19.0617 16.5312 18.8548C17.2211 18.6478 17.8984 18.3593 18.5506 17.9893C19.2029 17.6193 19.7673 17.174 20.244 16.6472C20.7206 16.1266 21.1094 15.5058 21.4105 14.7971C21.6237 14.3079 21.7241 13.7685 21.7241 13.1853C21.7241 12.6961 21.6488 12.1818 21.4983 11.6487C21.3101 10.9777 20.9715 10.1875 20.4886 9.28437C20.4196 9.94916 20.3819 10.6829 20.3819 11.4982C20.3819 11.7115 20.407 12.1693 20.4572 12.8842C20.476 13.1665 20.4886 13.4236 20.4886 13.6494C20.4886 13.6995 20.4886 13.7623 20.4823 13.8438C20.4823 13.9253 20.4321 13.9504 20.3569 13.9191C20.2753 13.5051 20.2189 13.0473 20.175 12.533C20.1373 12.0188 20.1123 11.5045 20.1123 10.984C20.1123 10.3819 20.1436 9.79236 20.2001 9.20911C20.2628 8.62585 20.3569 8.08023 20.4886 7.56596C20.9715 8.20566 21.3415 8.93944 21.6049 9.75474C21.8683 10.57 21.9937 11.4104 21.9937 12.2759L22 12.2884ZM18.4315 9.71711C18.2935 8.50043 17.9172 7.43426 17.3151 6.51234C17.127 6.97644 16.9953 7.47816 16.9263 8.01751C16.8573 8.55687 16.8197 9.16521 16.8197 9.83626C16.8197 9.90525 16.8322 10.3254 16.8511 11.1031C16.8699 11.8745 16.8824 12.4201 16.8824 12.7275H16.989C17.0517 12.2445 17.0956 11.4731 17.127 10.407C17.1584 9.34081 17.196 8.61959 17.2462 8.23702C17.4657 8.56942 17.6413 8.95198 17.773 9.37844C17.7855 9.39726 17.8859 9.81118 18.0865 10.6139C18.1367 10.8334 18.1618 11.0216 18.1618 11.1721C18.1618 11.5108 18.0803 11.8244 17.9235 12.1066C17.8106 12.2947 17.6538 12.5017 17.4406 12.7212C17.3026 12.8717 17.1145 13.0536 16.8824 13.2605C16.7632 13.3483 16.619 13.4236 16.4559 13.48C16.2929 13.5365 16.1298 13.5616 15.9668 13.5616C15.7535 13.5616 15.5905 13.5177 15.465 13.4361C15.3396 13.3483 15.2769 13.2605 15.2769 13.1602C15.2769 13.1226 15.302 13.0348 15.3459 12.9031C15.3898 12.7714 15.4023 12.6647 15.3835 12.5895C15.302 12.5581 15.2204 12.5456 15.1452 12.5456C14.8943 12.5456 14.4929 12.8592 13.941 13.48C13.6588 13.7999 13.4142 13.9943 13.201 14.0696C13.0818 13.8501 13.0066 13.7121 12.9752 13.6619C12.8623 13.4989 12.7495 13.3985 12.6303 13.3483C12.6115 13.3358 12.555 13.3233 12.4735 13.2982C12.3857 13.2731 12.3167 13.2605 12.254 13.2605C12.1223 13.2605 12.0157 13.3044 11.9404 13.3985C11.7899 13.6682 11.6707 13.9128 11.5767 14.1197C11.4575 14.4082 11.3948 14.6716 11.3948 14.9037C11.3948 15.0228 11.4136 15.1483 11.4575 15.2737C11.4951 15.3991 11.5579 15.5058 11.6394 15.5998C11.7899 15.6814 11.978 15.719 12.1976 15.719C12.2979 15.719 12.3857 15.719 12.4672 15.7127C12.5488 15.7127 12.6428 15.6939 12.7557 15.6751C12.3167 16.6472 11.5641 17.4688 10.498 18.1335C9.72656 18.6165 8.72311 19.0555 7.48761 19.438H7.74475C9.46943 19.275 10.7237 18.9363 11.5077 18.4158C12.1913 17.9642 12.6491 17.3433 12.8749 16.5468C12.9564 16.2458 13.0379 15.9699 13.1132 15.7127C13.1947 15.4556 13.2763 15.2486 13.3515 15.0856C13.7404 14.6967 14.1417 14.2953 14.5431 13.894C14.6936 13.7748 14.8065 13.7121 14.8755 13.7121C14.957 13.7121 15.0009 13.8563 15.0135 14.1511C15.026 14.4396 15.1013 14.6089 15.2393 14.6466C15.3271 14.7344 15.4149 14.7908 15.4901 14.8033C15.5654 14.8159 15.6908 14.8284 15.8727 14.8284H16.0985C16.5124 14.7594 16.8949 14.565 17.2587 14.2389C17.5723 13.9567 17.8357 13.5992 18.0552 13.1539C18.3562 12.4013 18.5067 11.586 18.5067 10.7017C18.5067 10.5512 18.5067 10.3819 18.4942 10.2C18.4817 10.0119 18.4691 9.85508 18.4503 9.72338L18.4315 9.71711ZM6.58451 8.45025L6.46535 8.81401C6.40263 8.79519 6.3211 8.74501 6.20822 8.66348C6.09533 8.58195 6.00125 8.5506 5.91972 8.55687C5.86955 8.69484 5.83192 9.04605 5.80056 9.60422C5.76921 10.1624 5.6375 10.5387 5.41173 10.7394L4.87237 9.54778C4.83474 9.61676 4.77203 9.65439 4.6905 9.65439C4.62151 9.65439 4.53998 9.63557 4.45845 9.59167C4.37065 9.55404 4.30793 9.51642 4.25776 9.48506C4.25776 9.24674 4.2703 9.06487 4.29539 8.95198C4.32048 8.83909 4.40828 8.74502 4.5588 8.67603C4.77203 8.76383 4.93509 8.91435 5.05425 9.12758C5.20477 9.49761 5.36155 9.86763 5.51834 10.2251C5.56852 10.1059 5.60615 9.72965 5.6375 9.09622C5.66886 8.4628 5.80056 8.14922 6.02634 8.14922C6.16431 8.14922 6.35246 8.24956 6.58451 8.45025ZM10.0151 12.8278C10.0276 12.878 10.0276 12.9407 10.0276 13.0222C10.0276 13.1727 9.99624 13.3483 9.93979 13.549C9.85199 13.8626 9.80182 14.0382 9.78928 14.0884C9.30009 14.3267 8.87363 14.8033 8.52242 15.5183C8.00188 16.5845 7.6883 17.1803 7.58796 17.312C7.07369 18.4158 6.0138 19.0492 4.39574 19.206C3.59298 19.275 2.79649 19.3439 2 19.4192C2.91565 19.137 3.61806 18.8987 4.10724 18.698C4.89119 18.3781 5.5497 18.0207 6.07651 17.6318C6.71621 17.1614 7.23048 16.5907 7.61304 15.9134C8.03324 15.1106 8.35309 14.5148 8.57886 14.1197C8.98024 13.4173 9.45688 12.9846 10.0088 12.8278H10.0151ZM13.7027 5.37718V5.23294C13.7027 5.12005 13.6275 5.05734 13.477 5.05734C13.3954 5.05734 13.3578 5.0887 13.3578 5.15769C13.3766 5.19532 13.4205 5.23295 13.477 5.25803C13.6149 5.32702 13.6902 5.36464 13.7027 5.37092V5.37718Z" fill="white"/>
</svg>
