<svg width="24" height="24" viewBox="0 0 24 24" fill="none" xmlns="http://www.w3.org/2000/svg">
<path fill-rule="evenodd" clip-rule="evenodd" d="M21.4905 6.37305C21.4608 6.54619 21.2926 6.66986 20.9908 6.73417C20.6891 6.80343 20.511 6.8529 20.4566 6.88258C19.0022 7.40694 17.5429 7.92635 16.0885 8.45072C16.1578 8.18854 16.3557 8.01539 16.6822 7.92635C17.1472 7.79278 17.4143 7.70374 17.4786 7.66417C19.0121 7.1398 19.8432 6.86278 19.9718 6.82321C20.4863 6.65502 20.9908 6.50661 21.4905 6.37305ZM19.1655 8.80689C19.1358 8.81678 19.1012 8.85635 19.0715 8.92561C19.0418 8.99486 19.0022 9.03939 18.9528 9.05423C18.8192 8.98498 18.7499 8.86625 18.7499 8.69806C18.7499 8.68322 18.7598 8.62386 18.7747 8.51997C18.7895 8.41609 18.8044 8.31715 18.8241 8.22316C18.6757 8.4705 18.5966 8.74753 18.5966 9.05423C18.6065 9.12349 18.6362 9.18779 18.6856 9.2422C18.7351 9.29662 18.7994 9.3362 18.8687 9.36093C18.9775 9.33125 19.0566 9.2521 19.1061 9.12349C19.1209 9.07402 19.1407 8.97013 19.1655 8.80194V8.80689ZM16.5634 6.40768C14.8766 6.95183 13.1848 7.58502 11.4831 8.29736C11.4534 8.35178 11.4187 8.4062 11.3891 8.46556C11.3594 8.51997 11.3495 8.56944 11.3643 8.60901C12.1855 8.25284 12.8484 7.97582 13.348 7.77795C13.9515 7.5405 14.6193 7.29316 15.3564 7.04087C15.4356 6.9914 15.6631 6.91225 16.044 6.79353C16.3309 6.70449 16.5041 6.58081 16.5684 6.41262L16.5634 6.40768ZM22 16.0243C21.8021 16.2321 21.5845 16.3953 21.3421 16.519C21.0997 16.6427 20.8474 16.702 20.5902 16.702C20.422 16.702 20.2835 16.6822 20.1647 16.6427C20.1004 16.5882 20.051 16.5289 20.0114 16.4695C19.9718 16.4101 19.952 16.3458 19.952 16.2716C19.952 16.2321 19.9619 16.1875 19.9866 16.143L20.3428 15.678C20.2785 15.678 20.2142 15.6483 20.1548 15.584C20.0856 15.49 20.0312 15.4257 20.0015 15.3961C20.0806 15.2625 20.1697 15.1487 20.2637 15.0646C20.3923 14.9558 20.511 14.8964 20.6297 14.8964C20.699 14.8964 20.7732 14.9212 20.8424 14.9657C20.8721 15.0151 20.8721 15.0696 20.8326 15.1339C20.793 15.1982 20.7435 15.2427 20.6891 15.2625C20.6594 15.1833 20.6 15.1438 20.511 15.1438C20.4566 15.1438 20.3873 15.1685 20.3082 15.213L20.2835 15.2378C20.323 15.307 20.3873 15.3565 20.4714 15.3862C20.5605 15.4158 20.6446 15.4406 20.7336 15.4653C20.8029 15.4356 20.887 15.401 20.981 15.3713C21.0749 15.3416 21.1491 15.3169 21.1937 15.3021C21.164 15.4109 20.9908 15.5494 20.6841 15.7077C20.3774 15.866 20.2191 15.9946 20.2191 16.0886C20.2191 16.1381 20.2389 16.1826 20.2736 16.2321C20.3082 16.2815 20.3725 16.3359 20.4566 16.4003C20.5654 16.425 20.6693 16.4349 20.7633 16.4349C20.9612 16.4349 21.1739 16.3904 21.4064 16.3063C21.5004 16.2766 21.6982 16.1826 22 16.0342V16.0243ZM10.1524 7.95108C10.0831 7.95108 10.0188 7.9214 9.96438 7.85709C9.95449 7.84225 9.91491 7.77795 9.84566 7.66912C9.83576 7.63944 9.83577 7.58502 9.83577 7.51577C9.83577 7.26348 9.91986 7.02108 10.0831 6.79353C10.0683 6.843 10.0485 6.91225 10.0237 7.01119C9.99901 7.11013 9.98912 7.18928 9.98912 7.24369C9.98912 7.41188 10.0435 7.53556 10.1573 7.6246C10.2266 7.63944 10.2859 7.59987 10.3255 7.50093C10.3651 7.40199 10.3898 7.34757 10.3948 7.34263C10.4195 7.47619 10.4096 7.59986 10.37 7.70374C10.3304 7.81257 10.2612 7.89667 10.1573 7.96098L10.1524 7.95108ZM12.8138 9.7913C12.7841 9.87045 12.7593 9.93476 12.7445 9.98918C12.7297 10.0386 12.695 10.0485 12.6357 10.009C12.606 9.96939 12.5615 9.93971 12.512 9.92487C12.4625 9.91003 12.423 9.89518 12.3982 9.89024C12.2647 10.3503 12.1311 10.8054 12.0074 11.2556C11.9283 11.1665 11.8392 11.0181 11.7403 10.8054C11.6414 10.5927 11.5573 10.4393 11.4831 10.3404C11.4534 10.3899 11.4089 10.4047 11.3594 10.3899C11.3099 10.375 11.2604 10.3602 11.211 10.3404C11.1862 10.2909 11.1764 10.2464 11.1764 10.1969C11.1764 10.1178 11.2011 10.0288 11.2456 9.93476C11.2555 9.91992 11.2852 9.87045 11.3396 9.7913C11.4979 9.86056 11.6265 10.0189 11.7304 10.2563C11.8788 10.5828 11.9777 10.7708 12.0173 10.8252C12.0965 10.4542 12.1608 10.1821 12.2053 10.004C12.2548 9.83088 12.329 9.68248 12.4328 9.56375C12.512 9.55386 12.5813 9.57364 12.6456 9.62311C12.6851 9.64785 12.7395 9.70226 12.8138 9.7913ZM21.8466 12.794C21.2135 13.0414 20.5803 13.2838 19.9471 13.5311C19.1952 13.818 18.5273 13.9565 17.9387 13.9565C17.5578 13.823 17.2609 13.5806 17.0482 13.2392C16.8355 12.893 16.7267 12.5219 16.7267 12.1163C17.0532 11.7898 17.4489 11.5474 17.9189 11.3842C18.3888 11.2209 18.8884 11.1418 19.4079 11.1418C19.7739 11.1418 20.1301 11.1764 20.4764 11.2506C20.3032 10.9983 20.0856 10.8202 19.8283 10.7164C19.5711 10.6125 19.2743 10.563 18.933 10.563C18.8786 10.563 18.7994 10.563 18.7005 10.568C18.6015 10.568 18.4482 10.5877 18.2454 10.6224C17.81 10.7263 17.4044 10.934 17.0235 11.2457C16.6426 11.5573 16.3903 11.9184 16.2617 12.334C16.2617 12.3735 16.2518 12.4329 16.237 12.5121V12.6901C16.237 13.0166 16.2963 13.3332 16.42 13.6449C16.5437 13.9565 16.7267 14.2187 16.974 14.4364C16.8701 14.4759 16.7613 14.4957 16.6426 14.4957H16.5041C16.4596 14.4957 16.415 14.4957 16.3656 14.4858C15.6829 14.3028 15.2426 13.8032 15.0349 12.9919C14.9162 12.2796 14.8024 11.5672 14.6886 10.8549C14.5402 10.9835 14.4314 11.1171 14.372 11.2605C14.3126 11.404 14.283 11.5623 14.283 11.7354C14.283 11.864 14.2929 11.9926 14.3176 12.1262C14.3671 12.3092 14.4116 12.4923 14.461 12.6704C14.555 13.0364 14.6045 13.3184 14.6045 13.5262C14.5006 13.6845 14.3671 13.8081 14.2088 13.8922C14.0455 13.9813 13.8724 14.0307 13.6794 14.0456C13.4321 14.0456 13.2293 14.0109 13.0611 13.9367C12.8929 13.8675 12.7643 13.7389 12.6703 13.5558C12.6802 13.5311 12.695 13.4965 12.7198 13.4421C12.7445 13.3926 12.7445 13.353 12.7198 13.3283C12.6901 13.353 12.5516 13.5064 12.3141 13.7933C12.1459 14.001 11.9777 14.1099 11.8046 14.1247C11.7353 14.1495 11.6661 14.1593 11.6018 14.1593C11.3891 14.1593 11.2159 14.0753 11.0774 13.912C11.023 13.8477 10.9933 13.7834 10.9933 13.724C10.9933 13.6746 11.023 13.6004 11.0824 13.4915C11.1417 13.3827 11.1615 13.2937 11.1467 13.2244C11.1071 13.2145 11.0675 13.2293 11.0329 13.264L10.8944 13.4025C10.6668 13.729 10.3304 13.8873 9.88523 13.8873C9.7022 13.8873 9.53401 13.8576 9.37571 13.8032C9.20257 13.7735 9.06901 13.6597 8.97007 13.4717C8.9206 13.3679 8.86124 13.2096 8.78209 12.9968C8.60895 13.2343 8.48034 13.4717 8.40119 13.7092C8.44076 13.8675 8.51002 14.1148 8.60401 14.4463C8.66832 14.7233 8.698 14.9805 8.698 15.218C8.12911 15.5989 7.57507 15.9105 7.03586 16.1579C6.42741 16.4349 5.82884 16.6278 5.24511 16.7416C5.1907 16.7416 5.1066 16.7515 4.99777 16.7663H4.73559C4.2607 16.7663 3.85506 16.702 3.52362 16.5783C3.11303 16.42 2.79149 16.1628 2.56394 15.8066C2.44521 15.6236 2.38585 15.4208 2.38585 15.1883C2.38585 14.9756 2.44521 14.7233 2.56394 14.4413C2.58867 14.3919 2.6975 14.1692 2.89537 13.7636C3.1724 13.7389 3.37027 13.5756 3.48899 13.264C3.5533 13.0018 3.61761 12.7396 3.69181 12.4675C3.66708 12.4824 3.60277 12.5912 3.48899 12.7891C3.41974 12.9226 3.31091 12.9721 3.16745 12.9325C3.03389 12.7643 2.9399 12.606 2.89043 12.4478C2.84096 12.2895 2.81128 12.1064 2.81128 11.9036C2.81128 11.5969 2.90032 11.216 3.07346 10.7658C3.22186 10.4195 3.37522 10.0683 3.52362 9.72205C3.17734 10.2514 2.92011 10.6966 2.75192 11.0527C2.48974 11.6068 2.36112 12.1015 2.36112 12.5368C2.36112 12.7495 2.3908 12.9672 2.45511 13.1848C2.51942 13.4025 2.6233 13.6004 2.76181 13.7834L2.71234 13.818C2.71234 13.818 2.69255 13.7933 2.67771 13.7686C2.41059 14.2533 2.25229 14.5304 2.21271 14.6095C2.06926 14.9261 2 15.2328 2 15.5247C2 15.9056 2.0742 16.2469 2.21766 16.5586C2.36606 16.8653 2.59362 17.0978 2.91021 17.2462C3.14766 17.3896 3.38511 17.4886 3.62256 17.543C3.86 17.5974 4.11724 17.6271 4.39426 17.6271C4.84442 17.6271 5.33416 17.5479 5.85357 17.3896C6.26416 17.261 6.71432 17.0829 7.19911 16.8504C7.6839 16.6179 8.09943 16.3261 8.44076 15.9798C8.83651 15.5741 9.06901 15.1339 9.14321 14.6491C9.28667 14.7035 9.44002 14.7332 9.60821 14.7332C9.99406 14.7332 10.3304 14.5897 10.6174 14.3078C10.6421 14.4364 10.6668 14.5353 10.7015 14.6145C10.7311 14.6936 10.7905 14.7629 10.8697 14.8272C10.9785 14.9459 11.1368 15.0053 11.3445 15.0053C11.399 15.0053 11.493 14.9954 11.6216 14.9706C11.7502 14.9459 11.8788 14.8766 12.0025 14.7629C12.1261 14.6491 12.2201 14.5106 12.2943 14.3523C12.3883 14.5353 12.5268 14.6689 12.7049 14.748C12.883 14.8321 13.1848 14.8717 13.6151 14.8717C13.8526 14.8717 14.0752 14.7876 14.2879 14.6145C14.4957 14.4463 14.6441 14.2434 14.7331 14.0159C14.7727 14.0703 14.8222 14.1742 14.8766 14.3226C14.931 14.471 14.9805 14.5798 15.02 14.6441C15.2031 14.8964 15.4009 15.0745 15.6137 15.1784C15.8264 15.2823 16.0787 15.3317 16.3606 15.3317C17.2016 15.119 18.0376 14.9014 18.8786 14.6788C18.9824 14.6145 19.5216 14.4017 20.4912 14.0357C20.8721 13.8922 21.164 13.7339 21.3718 13.5608L21.8368 12.799L21.8466 12.794ZM14.7232 16.4646C14.6738 16.5437 14.6144 16.6278 14.5451 16.7119C14.4264 16.8405 14.3126 16.9691 14.1989 17.1027C13.8922 16.9988 13.6003 16.8455 13.3332 16.6377L13.9515 16.0787L14.7232 16.4596V16.4646ZM7.45634 6.70449C7.46624 6.75891 7.42666 6.86279 7.34751 7.01119C7.2931 6.98151 7.23868 6.94688 7.18922 6.91226C7.13975 6.87763 7.08039 6.85784 7.01608 6.85784C6.92703 7.03098 6.85778 7.32284 6.80336 7.72353C6.74895 8.12917 6.69453 8.40124 6.63517 8.5447C6.72916 8.60901 6.82315 8.67827 6.91219 8.75247C7.00124 8.82668 7.08039 8.91077 7.14469 9.0097C7.08039 9.1779 6.89241 9.26199 6.58076 9.27188C6.26911 9.28178 6.06134 9.3362 5.95746 9.44008C5.8882 9.58354 5.84863 9.74678 5.84863 9.93971C5.84863 10.1079 5.87831 10.3008 5.93272 10.5234C6.06629 11.0626 6.13554 11.3941 6.13554 11.5227V11.7255C6.13554 12.0668 6.12565 12.3092 6.10091 12.4626C6.05145 12.7396 5.9624 12.9573 5.82884 13.1156C5.8981 12.9721 5.95251 12.8286 5.98219 12.6802C6.01187 12.5318 6.03166 12.3834 6.03166 12.235C6.03166 12.0668 6.02177 11.9184 5.99703 11.7898C5.9723 11.6612 5.92778 11.4683 5.86841 11.216C5.77442 10.8103 5.71506 10.5531 5.69528 10.4344C5.67549 10.3157 5.66559 10.1722 5.66559 10.009C5.66559 9.78141 5.70517 9.56375 5.78432 9.35599C5.87336 9.22737 6.00198 9.13833 6.17512 9.08391C6.32352 9.05423 6.48182 9.01465 6.64012 8.97508C6.5857 8.92561 6.53129 8.89099 6.48677 8.8613C6.4373 8.83162 6.38288 8.82173 6.31857 8.82173C6.25427 8.82173 6.19985 8.84151 6.16028 8.88109C6.11576 8.92066 6.07618 8.96024 6.03661 8.99982C6.02177 8.9454 6.03661 8.87614 6.07123 8.79699C6.08113 8.78215 6.10092 8.74258 6.1306 8.68322C6.16028 8.62386 6.21469 8.58428 6.28889 8.55955C6.3631 8.53481 6.4274 8.51997 6.47193 8.51008C6.38288 8.20832 6.279 7.97582 6.15533 7.80268C6.03166 7.63449 5.82884 7.42177 5.54192 7.16949C5.55676 7.0755 5.57655 7.0013 5.59634 6.94194C5.61613 6.88752 5.65075 6.82321 5.69528 6.75395C5.90304 6.85784 6.08113 7.06066 6.22953 7.37231C6.44225 7.80763 6.57086 8.05497 6.61044 8.10939C6.65001 7.84226 6.68959 7.57018 6.72916 7.30305C6.79347 7.0013 6.90725 6.75891 7.07544 6.58082C7.2189 6.58082 7.34257 6.63028 7.45634 6.72427V6.70449ZM4.08261 7.36736C4.11229 7.46135 4.11229 7.55534 4.07767 7.65428C4.04304 7.74827 3.97873 7.8472 3.89463 7.95108C3.82538 7.93624 3.76602 7.90657 3.72149 7.86204C3.67697 7.81752 3.6275 7.75321 3.57309 7.66417C3.5632 7.63449 3.5632 7.58007 3.5632 7.51082C3.5632 7.37725 3.59288 7.23379 3.64729 7.08539C3.67697 6.9914 3.74128 6.85784 3.83527 6.69459C3.81054 6.80342 3.79075 6.89247 3.77591 6.95678C3.73633 7.10023 3.71655 7.20411 3.71655 7.27832C3.71655 7.35252 3.72644 7.41188 3.75117 7.4663C3.77591 7.52071 3.82043 7.57513 3.89463 7.61965C3.94905 7.62954 3.99357 7.58997 4.02325 7.50587C4.05293 7.42178 4.07272 7.37726 4.08261 7.36736ZM7.79767 12.4379C7.79767 12.5813 7.77294 12.705 7.72842 12.8039C7.71358 12.8435 7.66906 12.9127 7.5998 13.0166C7.4514 13.0315 7.35741 12.9573 7.32773 12.7891C7.32773 12.5615 7.34751 12.3439 7.39204 12.146C7.43656 11.9481 7.50581 11.7404 7.5998 11.5276C7.54539 11.7898 7.49097 12.052 7.44645 12.3092C7.44645 12.4824 7.50581 12.6159 7.62454 12.7149C7.64927 12.6901 7.674 12.6407 7.69379 12.5615C7.71853 12.4824 7.75315 12.4378 7.80262 12.4329L7.79767 12.4379Z" fill="white"/>
</svg>
