<svg width="24" height="24" viewBox="0 0 24 24" fill="none" xmlns="http://www.w3.org/2000/svg">
<path fill-rule="evenodd" clip-rule="evenodd" d="M21.9399 8.83121L21.494 8.38532C21.494 8.91638 21.5441 9.55766 21.6493 10.3092C21.8798 11.9825 22 13.0446 22 13.4855C22 13.8963 21.9749 14.2721 21.9198 14.6178C21.8697 14.9635 21.7796 15.3092 21.6493 15.6649C21.6493 15.5697 21.6493 15.3893 21.6593 15.1238C21.6693 14.8583 21.6693 14.6579 21.6693 14.5226L21.0681 9.19694C21.0681 8.72599 21.0431 8.36527 20.988 8.12479C20.9379 7.88431 20.8577 7.66387 20.7525 7.46347C20.8327 7.21297 20.8828 7.06768 20.9078 7.01758C20.988 6.84223 21.0832 6.72199 21.1984 6.65686C21.2635 6.8272 21.3838 7.10275 21.5591 7.48853C21.8096 8.0246 21.9299 8.4755 21.9299 8.83622L21.9399 8.83121ZM13.0772 8.03962C13.0471 8.18992 13.017 8.34524 12.992 8.49554C12.9369 8.67089 12.8317 8.78612 12.6814 8.83121C12.6162 8.85626 12.5611 8.86628 12.511 8.86628C12.3758 8.86628 12.2555 8.81618 12.1503 8.71097C12.0952 8.60576 12.0651 8.50055 12.0651 8.38532C12.0651 8.25005 12.1002 8.10977 12.1753 7.96448C12.2254 7.8743 12.3006 7.75907 12.4058 7.61378C12.4208 7.70396 12.4008 7.81417 12.3407 7.94443C12.2806 8.07469 12.2505 8.16488 12.2505 8.21498C12.2505 8.27009 12.2755 8.33521 12.3307 8.41537C12.3808 8.49052 12.4509 8.53061 12.5411 8.53061C12.6112 8.53061 12.6964 8.50556 12.7916 8.46047C12.8868 8.38031 12.9118 8.31017 12.8617 8.24504C12.8317 8.18993 12.7615 8.11979 12.6563 8.03462C12.5511 7.94945 12.501 7.88432 12.501 7.83422C12.501 7.78412 12.5411 7.724 12.6212 7.64383C12.7114 7.67389 12.7966 7.729 12.8868 7.80415C12.977 7.8793 13.0371 7.95946 13.0772 8.03962ZM14.9509 10.3943C14.9359 10.4995 14.9208 10.6048 14.9158 10.705C14.8908 10.8152 14.8407 10.9054 14.7605 10.9705C14.6653 11.0106 14.5852 10.9855 14.525 10.9003C14.4649 10.8102 14.4299 10.75 14.4148 10.71C14.4048 10.6699 14.3948 10.5797 14.3948 10.4444C14.3948 10.3242 14.4098 10.1939 14.4349 10.0537C14.4649 9.91337 14.5 9.77309 14.5501 9.63782C14.5601 9.70295 14.5501 9.80315 14.5301 9.94343C14.51 10.0837 14.5 10.1789 14.5 10.224C14.5 10.3693 14.515 10.4645 14.5501 10.5196C14.5802 10.5697 14.6403 10.6198 14.7204 10.6599C14.7605 10.6498 14.7956 10.6048 14.8307 10.5196C14.8607 10.4344 14.9008 10.3943 14.9509 10.3943ZM18.0772 15.9855C18.0772 16.236 18.022 16.4665 17.9068 16.6769C17.7966 16.8873 17.6413 17.0677 17.4509 17.213C17.5711 17.0276 17.6613 16.8923 17.7164 16.8021C17.8267 16.6268 17.8868 16.4765 17.8868 16.3563C17.8868 16.246 17.8517 16.1458 17.7766 16.0657C17.6814 16.0406 17.6263 16.0657 17.6062 16.1508C17.5661 16.1258 17.5561 16.0907 17.5812 16.0356C17.6062 15.9855 17.6313 15.9354 17.6513 15.8853C17.7164 15.7951 17.7816 15.7551 17.8417 15.7551C17.9719 15.7551 18.0471 15.8302 18.0721 15.9855H18.0772ZM10.9479 9.56267C10.9629 9.67289 10.9379 9.76809 10.8778 9.83823C10.8477 9.82821 10.7876 9.80816 10.7074 9.77309C10.6273 9.73802 10.5571 9.72299 10.502 9.73301C10.4068 9.86327 10.3517 10.0937 10.3467 10.4294C10.3367 10.7651 10.2916 11.0005 10.2014 11.1408C10.1212 11.0857 10.011 10.9304 9.87074 10.6699C9.73046 10.4144 9.58016 10.2791 9.41984 10.2591C9.30962 10.209 9.23447 10.1488 9.20441 10.0687C9.21944 9.96347 9.23447 9.8783 9.24449 9.80315C9.25451 9.728 9.28457 9.67289 9.32465 9.63281C9.5 9.66287 9.66032 9.79814 9.80561 10.0286C9.92585 10.229 10.0511 10.4294 10.1764 10.6298C10.1914 10.5747 10.2164 10.3943 10.2565 10.0887C10.2916 9.78312 10.3818 9.56768 10.5271 9.43742C10.5972 9.41237 10.6673 9.41237 10.7275 9.43742C10.7876 9.46247 10.8627 9.50255 10.9479 9.55766V9.56267ZM12.3206 12.3633C12.3307 12.4585 12.3206 12.5537 12.2956 12.6438C12.2705 12.734 12.2305 12.8543 12.1753 12.9995C12.1102 13.0296 12.0501 13.0296 11.99 12.9895C11.9299 12.9494 11.8848 12.8893 11.8497 12.8092C11.8347 12.6789 11.8246 12.5787 11.8246 12.5086C11.8246 12.3482 11.8447 12.1979 11.8798 12.0627C11.9148 11.9274 11.9749 11.7721 12.0551 11.6068C12.0551 11.6619 12.0451 11.742 12.02 11.8472C11.9649 12.0977 11.9349 12.2581 11.9349 12.3382C11.9349 12.5236 12.015 12.6488 12.1753 12.709C12.1854 12.6989 12.1954 12.6438 12.2104 12.5386C12.2254 12.4334 12.2605 12.3733 12.3206 12.3583V12.3633ZM19.6202 11.9675C19.6052 11.8973 19.52 11.4965 19.3697 10.7651C19.1944 9.92339 19.0792 9.26207 19.0341 8.78111C19.024 8.74103 19.024 8.68091 19.024 8.60075C19.024 8.48051 19.0541 8.39033 19.1092 8.33522L19.52 8.70596C19.5301 8.66588 19.5301 8.60576 19.5301 8.5256C19.5301 8.35024 19.3597 7.94945 19.024 7.32319C18.8888 7.06768 18.8287 6.85225 18.8437 6.67189C18.6984 6.7771 18.6032 6.89734 18.5481 7.03261C18.498 7.16788 18.4679 7.32319 18.4679 7.50355C18.4679 7.54364 18.478 7.66888 18.498 7.87429C18.518 8.08471 18.5281 8.24504 18.5281 8.35526C18.5782 8.82119 18.6884 9.48251 18.8637 10.3392C19.0741 11.3513 19.1994 12.0076 19.2495 12.3132C19.3697 13.0346 19.4299 13.701 19.4299 14.3072C19.2695 14.4024 19.0842 14.4524 18.8788 14.4524C18.6884 14.4524 18.498 14.4124 18.3126 14.3322C18.0471 14.1819 17.8517 13.9514 17.7214 13.6458C17.6563 13.4855 17.5862 13.1999 17.506 12.7941L16.7946 6.98752L16.6743 6.83221C16.5691 7.0727 16.4689 7.30817 16.3737 7.54364C16.484 8.15987 16.5842 8.83121 16.6743 9.55766C16.7645 10.2841 16.8547 11.0356 16.9549 11.8172C17.0551 12.5987 17.1503 13.24 17.2355 13.736C17.1703 13.9214 17.0551 14.0717 16.8848 14.1869C16.7144 14.3021 16.5341 14.3623 16.3437 14.3623C16.2084 14.3773 16.0782 14.3573 15.9579 14.2971C15.8377 14.237 15.7275 14.1518 15.6222 14.0366C15.5822 13.9815 15.5621 13.9314 15.5621 13.8913C15.5621 13.8813 15.5772 13.8262 15.6122 13.721C15.6423 13.6158 15.6473 13.5406 15.6222 13.4905C15.2114 13.716 14.7856 13.9164 14.3347 14.0967C13.8838 14.2771 13.4429 14.4174 13.012 14.5226C12.4208 14.6579 11.8347 14.728 11.2585 14.728C10.8677 14.728 10.487 14.6979 10.1263 14.6428C9.71543 14.5376 9.3497 14.3573 9.01904 14.1017C8.6483 13.8112 8.42786 13.4855 8.34769 13.1148C8.24248 12.5787 8.14228 11.9174 8.04208 11.1308C7.94188 10.3442 7.8517 9.59774 7.77154 8.88131C7.66633 8.0246 7.56613 7.3282 7.47094 6.80215C7.36072 6.9775 7.27555 7.14283 7.22044 7.30315C7.16533 7.45846 7.13527 7.62379 7.13527 7.80415C7.13527 7.85425 7.13527 7.90436 7.14529 7.96448C7.15531 8.0246 7.16533 8.08471 7.18036 8.14984C7.22044 8.49554 7.34569 9.2771 7.5511 10.4945C7.83166 12.1478 7.97194 13.4605 7.97194 14.4374C7.79659 14.6278 7.56112 14.8332 7.26052 15.0486C7.1002 15.1689 6.8497 15.3442 6.51403 15.5797C6.16333 15.7901 5.78256 15.9605 5.37174 16.0907C4.96092 16.221 4.57014 16.2911 4.19439 16.2911C3.91383 16.2911 3.65331 16.251 3.40782 16.1759C3.16232 16.1007 2.94689 15.9855 2.7515 15.8352C2.60621 15.745 2.50601 15.6448 2.4509 15.5246C2.39579 15.4044 2.36573 15.2591 2.36573 15.0937C2.36573 14.9985 2.37575 14.8482 2.4008 14.6478C2.42585 14.4474 2.43587 14.2971 2.43587 14.2019C2.501 13.9915 2.56613 13.7811 2.62625 13.5657C2.71643 13.3152 2.86172 13.1999 3.07214 13.215C3.24749 13.0697 3.37776 12.8593 3.45792 12.5787C3.498 12.4284 3.54309 12.1779 3.58818 11.8322C3.5481 11.8623 3.50802 11.9174 3.46794 11.9875C3.42786 12.0577 3.40782 12.1228 3.40782 12.1779C3.31764 12.3482 3.19739 12.3983 3.03707 12.3332C2.90681 12.1729 2.81663 12.0076 2.76653 11.8422C2.71643 11.6719 2.68637 11.4915 2.68637 11.2911C2.68637 10.9555 2.77655 10.5146 2.96192 9.96848C3.04208 9.728 3.12725 9.49253 3.21242 9.25706C2.94689 9.72299 2.74649 10.1388 2.61122 10.5096C2.42585 11.0156 2.33567 11.4815 2.33567 11.9024C2.33567 12.3232 2.42585 12.714 2.61122 13.0797C2.42585 13.5206 2.31563 13.8011 2.27555 13.9214C2.09018 14.4675 2 14.9685 2 15.4244C2 15.715 2.04008 15.9905 2.12024 16.2561C2.32064 16.5667 2.58116 16.7971 2.90681 16.9424C3.23246 17.0877 3.59319 17.1579 3.99399 17.1579C4.10421 17.1579 4.20441 17.1529 4.28958 17.1378C4.37475 17.1278 4.46493 17.1178 4.56012 17.1078C5.33667 16.9875 6.05812 16.6919 6.72445 16.216C7.42084 15.72 7.92184 15.1238 8.22745 14.4374C8.40281 14.6278 8.57816 14.8232 8.75852 15.0136C9.05411 15.224 9.37976 15.3693 9.72545 15.4595C10.0762 15.5496 10.4569 15.5897 10.8727 15.5897C11.2234 15.5897 11.5992 15.5597 11.995 15.4995C12.3908 15.4394 12.7715 15.3643 13.1373 15.2791C13.503 15.1889 13.979 15.0136 14.5751 14.748C15.0862 14.5226 15.3617 14.4023 15.3918 14.3873C15.3617 14.6128 15.4419 14.8182 15.6423 15.0136C15.7776 15.1488 15.9729 15.219 16.2335 15.219C16.3036 15.219 16.3888 15.209 16.484 15.1839C16.5792 15.1589 16.6593 15.1338 16.7244 15.1138C16.9098 15.0236 17.0551 14.8883 17.1553 14.703C17.2254 14.5677 17.2856 14.3823 17.3357 14.1519C17.4258 14.3673 17.511 14.5476 17.6012 14.6929C17.7214 14.8933 17.8567 15.0436 18.012 15.1388C18.1222 15.1939 18.2425 15.239 18.3627 15.2691C18.483 15.2991 18.6082 15.3192 18.7335 15.3192C18.9639 15.3192 19.1743 15.2591 19.3597 15.1388C19.495 14.8282 19.5902 14.5276 19.6403 14.247C19.6904 13.9665 19.7204 13.6508 19.7204 13.2951C19.7204 13.0847 19.7104 12.8643 19.6854 12.6238C19.6603 12.3833 19.6353 12.1629 19.6002 11.9625L19.6202 11.9675ZM15.1463 16.3913L14.6303 17.0877L13.9188 16.8122L13.3527 17.233C13.1673 17.233 13.002 17.213 12.8517 17.1779C12.7014 17.1428 12.5611 17.0777 12.4259 16.9775C12.506 16.8322 12.5862 16.6919 12.6663 16.5567C12.7766 16.3863 12.9068 16.3062 13.0521 16.3062C13.1623 16.3563 13.2826 16.4014 13.4028 16.4515C13.523 16.5016 13.6383 16.5366 13.7535 16.5617C13.9238 16.3613 14.0942 16.1659 14.2695 15.9705L15.1463 16.3913ZM5.52705 7.36327L5.47695 7.63883C5.42184 7.59875 5.37675 7.5787 5.34669 7.5787C5.2014 7.5787 5.13126 7.66387 5.13126 7.8292C5.14629 7.89433 5.15631 7.94443 5.15631 7.98451C5.15631 8.04964 5.14629 8.13481 5.12124 8.23501C5.06613 8.47549 5.03607 8.62079 5.03607 8.66588C5.03607 8.8262 5.12625 8.93141 5.31162 8.9765C5.32164 9.00656 5.36172 9.06167 5.43186 9.13181C5.502 9.20195 5.54208 9.26207 5.54208 9.31217C5.54208 9.33722 5.52204 9.3773 5.48196 9.43241C5.44188 9.45746 5.27655 9.49253 4.98096 9.54263C4.69038 9.59273 4.5 9.68792 4.40982 9.83321C4.43988 10.1539 4.53507 10.5697 4.68537 11.0857C4.75551 11.3412 4.83567 11.5967 4.91583 11.8422C4.96593 12.0577 4.99599 12.238 5.01603 12.3783C5.03607 12.5186 5.04609 12.6739 5.04609 12.8392C5.04609 13.0246 5.03106 13.205 4.99599 13.3803C4.96593 13.5557 4.90581 13.731 4.82565 13.9114C4.91583 13.6809 4.95591 13.4254 4.95591 13.1549C4.95591 12.8993 4.91082 12.6038 4.82565 12.2631C4.8006 12.1579 4.7505 11.9825 4.67034 11.732C4.52004 11.2611 4.41984 10.9204 4.37475 10.71C4.32966 10.4995 4.30962 10.2841 4.30962 10.0587C4.30962 9.99353 4.30962 9.93341 4.31463 9.8783C4.31463 9.82319 4.33467 9.70796 4.36974 9.5276C4.42485 9.46247 4.5 9.41237 4.6002 9.37229C4.76052 9.32219 4.92084 9.2771 5.08116 9.227C5.0511 9.16187 4.99098 9.13181 4.91082 9.13181C4.87074 9.13181 4.82565 9.14183 4.77054 9.15686C4.72044 9.17189 4.66032 9.18692 4.59519 9.20696L4.57014 9.23201C4.54008 9.20195 4.54008 9.14684 4.57515 9.0767C4.61022 9.00656 4.63527 8.95646 4.64028 8.93141L4.87074 8.81117C4.84569 8.76107 4.78557 8.64083 4.69038 8.44043C4.62525 8.29514 4.56012 8.17489 4.5 8.0797L4.4499 8.1749C4.38477 8.1749 4.32966 8.14984 4.27455 8.09473C4.22445 8.04463 4.17936 7.97951 4.1493 7.90937C4.13427 7.81417 4.13928 7.729 4.15932 7.65886L4.26954 7.44343C4.42986 7.50856 4.56012 7.64383 4.66533 7.85425C4.8006 8.14484 4.89579 8.31016 4.94088 8.36026C4.96593 8.0797 5.001 7.85926 5.04108 7.70395C5.08617 7.54864 5.17134 7.40336 5.3016 7.26308C5.43186 7.30316 5.502 7.33321 5.51703 7.35826L5.52705 7.36327ZM9.31463 16.0907C9.31463 16.3312 9.26954 16.5516 9.17435 16.747C9.08417 16.9424 8.94389 17.1428 8.75852 17.3432C8.87876 17.0627 8.999 16.7821 9.11924 16.5015C9.11924 16.3963 9.07916 16.3011 8.999 16.211C8.89379 16.241 8.83868 16.2861 8.82866 16.3412L8.75852 16.3513C8.75852 16.246 8.78858 16.1508 8.84369 16.0707C8.8988 15.9855 8.97896 15.9304 9.08417 15.9104C9.13427 15.8853 9.17435 15.9003 9.20942 15.9454C9.24449 15.9955 9.27956 16.0406 9.30962 16.0907H9.31463Z" fill="white"/>
</svg>
