<svg width="24" height="24" viewBox="0 0 24 24" fill="none" xmlns="http://www.w3.org/2000/svg">
<path fill-rule="evenodd" clip-rule="evenodd" d="M20.4576 6.94914C20.3559 7.00847 20.2627 7.11864 20.1695 7.2966C20.0763 7.47457 19.9915 7.58474 19.9153 7.64407L18.661 7.08474C18.4661 7.34745 18.2797 7.6017 18.0847 7.86441C17.6864 7.77119 17.3475 7.63559 17.0508 7.45762C17.0508 7.28813 17.1186 7.11018 17.2458 6.91526C17.3729 6.72035 17.5254 6.58475 17.6949 6.50848C18.0424 6.61017 18.3983 6.75423 18.7627 6.94914L19.5593 6.15256C19.7542 6.22035 19.9576 6.3305 20.1695 6.47457C20.4661 6.67796 20.5593 6.83897 20.4576 6.94914ZM15.3051 12.3051C15.2797 12.5 15.2542 12.6356 15.2203 12.7288C15.1525 12.8983 15.0508 13.0085 14.9153 13.0508C14.8475 13.0593 14.7797 13.0339 14.7203 12.9746C14.661 12.9153 14.6186 12.8475 14.6017 12.7881C14.5847 12.7288 14.5763 12.6356 14.5763 12.5085C14.5763 12.2712 14.6102 12.0424 14.678 11.8136C14.7034 11.7373 14.7881 11.5169 14.9322 11.1695C14.9407 11.2712 14.9153 11.4407 14.8559 11.678C14.7966 11.9153 14.7627 12.0763 14.7627 12.1695C14.7627 12.3475 14.8136 12.5 14.9153 12.6102C15.0085 12.6187 15.0847 12.5932 15.1271 12.5254C15.178 12.4153 15.2119 12.339 15.2373 12.3051H15.3051ZM10.2881 7.55931C10.2881 7.8305 10.1864 8.06781 9.98305 8.2712C9.87288 8.29663 9.76271 8.26271 9.65254 8.17797C9.54237 8.09322 9.48305 7.99153 9.47458 7.86441C9.44915 7.61865 9.48305 7.36441 9.57627 7.11865C9.72034 6.81356 9.82203 6.58476 9.88135 6.44069C9.90678 6.53391 9.88135 6.68645 9.81356 6.91526C9.74576 7.14408 9.71186 7.29662 9.71186 7.38984C9.71186 7.5678 9.77119 7.72034 9.88135 7.83051C9.98305 7.86441 10.0678 7.8305 10.1356 7.74576C10.2034 7.65254 10.2542 7.59321 10.2881 7.55931ZM15.2034 8.20339C15.1441 8.12712 15.0593 8.08475 14.9492 8.07628C14.839 8.07628 14.7119 8.07628 14.5763 8.07628C13.3814 8.44068 12.4237 8.69491 11.7203 8.85592C10.6017 9.10169 9.60169 9.22881 8.71186 9.22881C7.67797 9.22881 6.72881 9.06779 5.87288 8.75423C5.77119 8.85593 5.72034 8.94914 5.72034 9.04237C5.72034 9.16948 5.87288 9.33899 6.18644 9.55933C6.5 9.77967 6.66102 9.96609 6.68644 10.1271C6.75424 10.2373 6.78814 10.3898 6.78814 10.5847C6.78814 10.6864 6.77119 10.822 6.74576 10.983C6.72034 11.1441 6.68644 11.2797 6.65254 11.3814C6.82203 11.2034 6.9322 11.017 6.99152 10.839C7.0339 10.6102 7.05932 10.4322 7.05932 10.2966C7.05932 9.9661 6.9661 9.71185 6.78814 9.51694C7.0678 9.57626 7.28814 9.61016 7.44068 9.62711C7.59322 9.64406 7.86441 9.65254 8.24576 9.65254C8.73729 9.65254 9.16949 9.62711 9.54237 9.57627C9.91525 9.52542 10.3559 9.44069 10.8729 9.33052C11.0763 9.28815 11.7288 9.12711 12.8305 8.85592C13.5763 8.66101 14.2288 8.52543 14.7712 8.44916C14.8305 8.50848 14.8559 8.55086 14.8559 8.58476C14.8559 8.62713 14.8136 8.70339 14.7203 8.81356C14.6271 8.92373 14.5847 9.00001 14.5847 9.05933C14.7627 8.96611 14.9068 8.84747 15.0254 8.69493C15.1441 8.54239 15.2119 8.38136 15.2119 8.21187L15.2034 8.20339ZM11.7966 11.4407C11.7627 11.5509 11.7373 11.6526 11.7119 11.7373C11.6864 11.822 11.6271 11.8305 11.5254 11.7627C11.3814 11.6271 11.2288 11.5508 11.0678 11.5424C11 11.8814 10.9407 12.2119 10.8814 12.5424C10.7881 12.9153 10.6525 13.2119 10.4576 13.4237C10.2881 12.9746 10.1186 12.517 9.94915 12.0509C9.94068 12.1441 9.8983 12.1865 9.83051 12.1865C9.80508 12.1865 9.76271 12.178 9.69491 12.1525C9.62712 12.1271 9.57627 12.1186 9.54237 12.1186C9.4322 12.0508 9.37288 11.9746 9.37288 11.8814C9.37288 11.8051 9.40678 11.7034 9.48305 11.5847C9.55932 11.4661 9.59322 11.3983 9.61017 11.3729C9.72881 11.2373 9.85593 11.2119 9.98305 11.3051C10.1356 11.5 10.2627 11.7373 10.3475 12.0339C10.4322 12.3305 10.5254 12.6102 10.6102 12.8813C10.6864 12.7458 10.7542 12.4576 10.8136 12.0254C10.8729 11.5932 11 11.2797 11.1864 11.1017C11.3305 11.1441 11.4492 11.1949 11.5339 11.2373C11.6186 11.2797 11.7034 11.3475 11.7797 11.4407H11.7966ZM21.661 11.4407C21.4492 10.9576 21.1441 10.5424 20.7458 10.2034C20.2966 9.82205 19.822 9.62711 19.322 9.62711C18.8814 9.77118 18.5339 10.0932 18.2712 10.5932C18.161 10.8051 17.9915 11.2627 17.7797 11.9492C17.9153 12.661 18.4153 13.0254 19.2712 13.0339C20.1271 13.0424 20.6525 13.0763 20.8305 13.1186C20.9915 13.1949 21.1186 13.3136 21.2119 13.4576C21.3051 13.6017 21.3305 13.7542 21.2712 13.8983C19.9068 14.7712 18.3983 15.4491 16.7458 15.9322C15.0932 16.4152 13.4237 16.661 11.7288 16.661C9.83051 16.661 8.11864 16.5169 6.59322 16.2203C4.83898 15.8813 3.31356 15.3475 2 14.6271C2.00847 14.7034 2.05085 14.8051 2.11864 14.9322C2.15254 14.9915 2.20339 15.0763 2.27119 15.2034C3.01695 15.8814 3.87288 16.4322 4.83051 16.8475C5.72034 17.2288 6.68644 17.5085 7.72881 17.678C8.47458 17.7881 9.27119 17.8475 10.1186 17.8475C10.7712 17.8475 11.4237 17.822 12.0593 17.7627C12.6949 17.7034 13.339 17.6271 13.983 17.5254C14.6271 17.4237 15.2966 17.2881 15.9831 17.1102C16.6695 16.9322 17.3475 16.7373 18.0169 16.5254C18.6864 16.3136 19.2966 16.0508 19.8475 15.7458C20.4915 15.3983 21.0424 14.9915 21.5085 14.5254C21.6864 14.3136 21.8136 14.0932 21.8898 13.8814C21.9661 13.6695 22 13.4153 22 13.1356C22 12.8559 21.9746 12.5847 21.9153 12.3305C21.8559 12.0763 21.7712 11.7797 21.661 11.4407ZM4.9322 12.1017C4.95763 12.2458 4.94068 12.3898 4.88983 12.5339C4.83898 12.678 4.75424 12.7797 4.62712 12.8475C4.52542 12.8559 4.44915 12.839 4.38983 12.7797C4.33051 12.7203 4.28814 12.6356 4.25424 12.5085C4.25424 12.2712 4.28814 12.0254 4.35593 11.7627C4.38983 11.6356 4.4661 11.4068 4.59322 11.0678C4.6017 11.161 4.59322 11.2627 4.57627 11.3729C4.5 11.7373 4.45763 11.9407 4.45763 11.983C4.45763 12.1949 4.55085 12.339 4.72881 12.4068C4.79661 12.3051 4.86441 12.2034 4.9322 12.1017ZM20.5593 11.7458C20.4661 11.7542 20.339 11.7712 20.1695 11.7881C20 11.8051 19.839 11.8136 19.678 11.8136C19.4153 11.8136 19.1949 11.7797 19 11.7034C18.8051 11.6271 18.661 11.5 18.5593 11.3051C18.4915 11.2034 18.5 11.1102 18.5763 11.017C18.6525 10.9237 18.7542 10.8559 18.8644 10.7966C18.9068 10.7881 18.9746 10.7797 19.0678 10.7797C19.3475 10.7797 19.6271 10.8814 19.8983 11.0847C20.1017 11.2458 20.322 11.4661 20.5593 11.7458Z" fill="white"/>
</svg>
