<svg width="24" height="24" viewBox="0 0 24 24" fill="none" xmlns="http://www.w3.org/2000/svg">
<path fill-rule="evenodd" clip-rule="evenodd" d="M15.6204 6.14026C15.6204 6.43555 15.5835 6.65087 15.5035 6.78006C15.4236 6.91541 15.3067 7.00769 15.1467 7.06921C15.0298 7.05075 14.9376 6.98308 14.8822 6.86004C14.8699 6.77391 14.8699 6.70009 14.8699 6.65087C14.8699 6.26945 14.9806 5.92494 15.1959 5.61734C15.1652 5.74653 15.1406 5.86957 15.1221 5.99261C15.1037 6.11565 15.0914 6.20178 15.0914 6.251C15.0914 6.4171 15.1344 6.54629 15.2267 6.63242C15.3436 6.63242 15.4297 6.55859 15.4789 6.40479C15.5281 6.251 15.5774 6.15872 15.6266 6.13411L15.6204 6.14026ZM22 6.00492H21.9385L15.116 7.55521L11.1603 8.55798C11.0803 8.59489 10.6681 8.69947 9.91756 8.86558C9.4131 8.97631 9.0932 9.19778 8.94556 9.54229C10.7788 9.00092 12.6736 8.49031 14.63 8.01661C16.5863 7.53675 18.5672 7.08766 20.5666 6.66318C20.6835 6.57705 20.9542 6.50938 21.3725 6.47247C21.7908 6.43555 22 6.2756 22 5.99877V6.00492ZM18.6349 10.7604C18.6656 10.8957 18.6472 11.0434 18.5734 11.2033C18.5057 11.3633 18.4134 11.4925 18.2904 11.6032C18.1243 11.5417 18.0135 11.4309 17.9643 11.2648C17.952 11.2033 17.952 11.1233 17.952 11.0126C17.952 10.5881 18.0751 10.2436 18.3211 9.97908C18.2596 10.139 18.2165 10.2805 18.1796 10.4097C18.1427 10.5389 18.1304 10.6373 18.1304 10.705C18.1304 10.7911 18.155 10.8957 18.2042 11.0126L18.3642 11.1726C18.4257 11.1418 18.4749 11.0864 18.5118 11.0003C18.5488 10.9142 18.5918 10.8342 18.6287 10.7542L18.6349 10.7604ZM13.4672 5.50661C13.3504 5.70347 13.0981 5.84497 12.7167 5.93725C12.3353 6.02337 12.1015 6.0972 12.0215 6.14641C11.7755 6.22639 11.0987 6.44171 9.98524 6.79852C9.01938 7.10612 8.34266 7.32759 7.94894 7.46293C7.25992 7.70901 6.60166 7.97354 5.96801 8.26268C5.9311 8.19501 5.9434 8.11504 6.01107 8.03506C6.07874 7.94893 6.15257 7.86281 6.23254 7.77668C7.01999 7.49984 7.8136 7.223 8.6072 6.95232C9.65303 6.58935 10.4528 6.32482 11.0126 6.15256C11.8985 5.88803 12.7167 5.67271 13.4611 5.51891L13.4672 5.50661ZM21.3787 13.7625L21.0957 14.5315L21.1695 15.3436C21.0526 15.3805 20.905 15.4051 20.7265 15.4051C20.5789 15.4051 20.4436 15.3805 20.3144 15.3374C20.1852 15.2944 20.0806 15.2267 19.9883 15.1467C19.9022 15.0606 19.853 14.9745 19.853 14.8883C19.853 14.8514 19.8714 14.7653 19.9022 14.6423C19.9391 14.5192 19.9391 14.4208 19.9083 14.3531C19.3485 15.1037 19.0348 15.4974 18.9794 15.5466C18.7333 15.7558 18.4503 15.8542 18.1366 15.8542C17.9213 15.805 17.7552 15.7496 17.6321 15.6942C17.466 15.6081 17.343 15.4851 17.263 15.3374C17.2138 15.2759 17.1892 15.2021 17.1892 15.116C17.2568 14.956 17.3307 14.7961 17.4106 14.63C17.4599 14.5192 17.466 14.4146 17.4229 14.3039C16.8139 14.6361 16.2295 14.9191 15.6635 15.1467C15.1037 15.3743 14.5008 15.5589 13.861 15.7065C13.0551 15.9034 12.2369 16.0018 11.4125 16.0018C10.9019 16.0018 10.4097 15.9649 9.93602 15.8973C9.60381 15.7681 9.06244 15.5774 8.3119 15.319C7.70286 15.0421 7.29683 14.673 7.09997 14.2116C7.06306 14.2424 6.81083 14.5254 6.34943 15.0667C6.05414 15.4113 5.75269 15.5835 5.45125 15.5835C5.40203 15.5835 5.34666 15.5835 5.27899 15.5712C5.21747 15.5589 5.15595 15.5466 5.10674 15.5281C4.89757 15.4174 4.73762 15.2698 4.62688 15.0729C4.51615 14.876 4.42387 14.6423 4.3562 14.3654C4.3562 13.1227 4.35005 12.0646 4.33159 11.191C4.31929 10.3174 4.27622 9.36388 4.20855 8.34266C4.14088 7.32144 4.0363 6.42325 3.90095 5.65426C3.79022 5.76499 3.70409 5.88188 3.64257 6.01722C3.58105 6.15256 3.50108 6.32482 3.41495 6.54014C3.54414 7.50599 3.63642 8.38572 3.70409 9.18548C3.76561 9.98523 3.80252 10.8096 3.80252 11.6647C3.85174 11.8739 3.8825 12.0338 3.90095 12.1569C3.91326 12.2799 3.92556 12.5014 3.92556 12.8274C3.92556 12.9628 3.92556 13.1719 3.91326 13.4549C3.90095 13.7379 3.90095 13.9471 3.90095 14.0824C3.90095 14.753 3.96247 15.2759 4.09166 15.645C4.27007 16.1495 4.59612 16.5186 5.06367 16.7524C5.18056 16.7708 5.26054 16.7831 5.29745 16.7831C5.66041 16.7831 6.04799 16.5248 6.46632 16.0018C6.74931 15.6389 6.93387 15.4174 7.01384 15.3374C7.13073 15.5712 7.22301 15.7373 7.27838 15.8234C7.37681 15.9834 7.49985 16.1064 7.64749 16.1926C8.15195 16.5371 8.68102 16.7831 9.2347 16.9246C9.78837 17.0661 10.4036 17.14 11.0741 17.14C11.4986 17.14 11.9169 17.1092 12.3291 17.0538C13.1289 16.9431 13.9163 16.7462 14.6976 16.4632C15.4789 16.1802 16.1987 15.8419 16.8447 15.4605C16.8447 15.5281 16.8324 15.6204 16.8139 15.7435C16.7954 15.8603 16.7831 15.9526 16.7831 16.008C16.7831 16.1064 16.8016 16.1926 16.8447 16.2725C16.9554 16.5063 17.1153 16.6909 17.3368 16.8139C17.5583 16.9369 17.7921 16.9985 18.0381 16.9985C18.3457 16.9985 18.6226 16.8877 18.881 16.6724C19.0655 16.5125 19.2624 16.2787 19.4715 15.9649C19.6007 16.2233 19.8038 16.3894 20.0744 16.4694C20.1237 16.4817 20.1975 16.494 20.3021 16.5125C20.4066 16.5309 20.5174 16.5432 20.6343 16.5432C20.7819 16.5432 20.9173 16.5248 21.0403 16.4817C21.1633 16.4448 21.2618 16.371 21.3417 16.2725C21.4525 16.0388 21.5325 15.7988 21.594 15.5651C21.6555 15.3313 21.6801 15.079 21.6801 14.8145C21.6801 14.6053 21.6555 14.4146 21.6063 14.2301C21.5571 14.0455 21.4771 13.8917 21.3725 13.7625H21.3787ZM13.701 11.1479L13.5964 11.474C13.5288 11.474 13.4426 11.4248 13.338 11.3202C13.2335 11.2156 13.1412 11.1726 13.0674 11.1787C13.0181 11.3141 12.9628 11.5724 12.8951 11.9477C12.8336 12.323 12.7475 12.5998 12.6367 12.7721C12.5568 12.6736 12.4768 12.5321 12.3845 12.3414C12.2553 12.083 12.1323 11.8247 12.0154 11.5601C12.0154 11.6463 11.9785 11.6955 11.9108 11.6955C11.7755 11.6463 11.6832 11.6155 11.6463 11.6093C11.5601 11.5601 11.5109 11.4925 11.5109 11.4002C11.5294 11.271 11.5478 11.1418 11.5724 11.0188C11.6217 10.9695 11.6709 10.9203 11.7262 10.8711C11.7816 10.8219 11.8431 10.8096 11.9108 10.8404C12.0769 10.988 12.2184 11.2095 12.3414 11.5048C12.5075 11.8985 12.6183 12.1384 12.6675 12.2307C12.7659 11.7508 12.852 11.3756 12.9259 11.111C12.9997 10.8465 13.0981 10.7112 13.2273 10.7112C13.3442 10.7112 13.5042 10.8588 13.701 11.1541V11.1479ZM6.39249 6.38019C6.32482 6.38019 6.2633 6.4294 6.20794 6.52783C6.15257 6.62626 6.11566 6.68778 6.0972 6.70624C5.93725 6.62626 5.86343 6.50938 5.86343 6.34943C5.86343 6.28175 5.89419 6.15256 5.94955 5.97416C6.01107 5.7896 6.03568 5.65426 6.02338 5.56813C5.96186 5.72808 5.90649 5.88188 5.84497 6.04183C5.73424 6.33712 5.68502 6.60166 5.68502 6.84158C5.72193 6.92156 5.7773 6.98923 5.84497 7.0569C5.91264 7.11842 5.98647 7.14918 6.06644 7.13688C6.21409 7.05075 6.30637 6.9031 6.34943 6.70624C6.36173 6.64472 6.37404 6.54014 6.39249 6.38019ZM20.4313 17.3799C20.4436 17.4599 20.4313 17.5275 20.4066 17.589C20.382 17.6506 20.2898 17.7736 20.136 17.9582C20.0252 17.9582 19.8899 18.0012 19.7238 18.0935C19.3485 18.2904 19.1209 18.3888 19.0471 18.3888C18.9732 18.3888 18.8994 18.3703 18.8379 18.3396C18.7764 18.3027 18.721 18.2412 18.6595 18.1427C18.3765 18.2104 18.0504 18.3273 17.6875 18.4811C17.5767 18.5303 17.263 18.6779 16.7401 18.924C16.3833 19.084 16.0572 19.1947 15.7496 19.2685C15.442 19.3424 15.0975 19.3793 14.7161 19.3793C15.0606 19.3793 15.442 19.2808 15.8542 19.084C16.0018 19.0163 16.3525 18.8194 16.9 18.4934C17.3061 18.2658 17.6506 18.1058 17.9336 18.0074C18.2904 17.8782 18.6349 17.8167 18.9794 17.8167C19.0286 17.952 19.1209 18.0258 19.2624 18.0258C19.3116 18.0258 19.3608 18.0135 19.41 17.9828C19.4592 17.952 19.5208 17.8659 19.6007 17.7182C19.6807 17.5706 19.7607 17.4845 19.8345 17.4537V17.7613C19.9514 17.8105 20.056 17.7859 20.1544 17.6875C20.2467 17.589 20.339 17.4906 20.4251 17.3922L20.4313 17.3799ZM3.67948 5.28514C3.53184 5.51891 3.27345 5.74038 2.89819 5.94955C2.40603 6.23254 2.10458 6.42325 2 6.50938C2.01846 6.38019 2.06152 6.2633 2.12304 6.16487C2.18456 6.06028 2.27684 5.99261 2.39373 5.94955C2.26453 5.83881 2.14149 5.73423 2.02461 5.6235C2.06152 5.43894 2.14149 5.24823 2.25838 5.06367C2.37527 4.87911 2.51676 4.73146 2.68902 4.62073C2.81821 4.66994 2.92279 4.74377 3.01507 4.8422C3.03353 4.92217 3.01507 4.98984 2.97201 5.05752C2.92279 5.11904 2.87973 5.18056 2.83667 5.24207C2.80591 5.22977 2.75669 5.19286 2.68287 5.12519C2.60904 5.05752 2.55983 5.0206 2.52907 5.0206C2.49216 5.0206 2.45524 5.03906 2.42448 5.08212C2.34451 5.1621 2.31375 5.24207 2.33836 5.33435C2.37527 5.41433 2.43679 5.4697 2.51061 5.50661C2.58444 5.54352 2.67671 5.55582 2.7813 5.55582C2.84282 5.55582 2.90434 5.55582 2.96586 5.54352C3.02738 5.53122 3.09505 5.52506 3.16272 5.51276C3.31037 5.40203 3.4211 5.33435 3.49492 5.29744C3.56875 5.26053 3.63027 5.26053 3.67948 5.29129V5.28514ZM6.88465 11.474C6.88465 11.6524 6.86004 11.8185 6.80468 11.9785C6.74931 12.1384 6.65703 12.2738 6.51553 12.3906C6.44786 12.4029 6.38019 12.3906 6.31867 12.3476C6.25715 12.3107 6.20178 12.2122 6.16487 12.0646C6.16487 11.6217 6.2633 11.2279 6.46017 10.8834C6.42941 11.0003 6.4048 11.1172 6.38634 11.2218C6.36789 11.3325 6.35558 11.4432 6.35558 11.5601C6.35558 11.7201 6.39865 11.8493 6.49093 11.96C6.62012 11.96 6.70624 11.9046 6.74931 11.8001C6.79237 11.6893 6.84159 11.5847 6.8908 11.474H6.88465ZM7.69671 18.2658L7.06306 19.0471C6.81698 18.9179 6.5709 18.7887 6.32482 18.6656C6.17718 18.5549 6.10335 18.4319 6.10335 18.2965L6.94617 17.5275L7.69671 18.2658Z" fill="white"/>
</svg>
