<svg width="24" height="24" viewBox="0 0 24 24" fill="none" xmlns="http://www.w3.org/2000/svg">
<path fill-rule="evenodd" clip-rule="evenodd" d="M22 8.21962C21.9723 8.13093 21.9058 8.01452 21.7949 7.87594C21.684 7.73182 21.5787 7.59878 21.4845 7.47683C21.429 7.59324 21.3958 7.70964 21.3792 7.83714C21.3625 7.95909 21.3514 8.09213 21.3514 8.22517C21.3514 8.35821 21.3625 8.56329 21.3902 8.83491C21.418 9.11207 21.429 9.32827 21.429 9.48903C21.429 9.84379 21.4568 10.2762 21.5067 10.7806C21.6286 11.9668 21.6951 12.7207 21.6951 13.0422C21.6951 13.6797 21.6619 14.2285 21.5898 14.6775C21.5177 15.132 21.3681 15.5755 21.1353 16.0079C21.1962 15.4203 21.2295 14.7994 21.2295 14.1453C21.2295 13.4192 21.1851 12.5932 21.102 11.662C21.0188 10.7362 20.9302 9.78281 20.8415 8.80165C20.7528 7.8205 20.7084 7.00565 20.7084 6.346C20.6752 6.28503 20.653 6.21296 20.653 6.13536C20.653 6.03004 20.6973 5.90808 20.786 5.7695C20.8747 5.63092 20.9634 5.50343 21.0521 5.37594C21.418 6.24623 21.6508 6.85044 21.7616 7.19412C21.8725 7.5378 21.9501 7.88149 21.9945 8.22517L22 8.21962ZM17.7816 5.42582C17.8259 5.39811 17.8537 5.38702 17.8592 5.38702H17.8869C17.5044 5.65309 17.1275 5.91363 16.7561 6.17416C15.9246 6.69523 15.4368 6.96131 15.2927 6.96131C15.265 6.96131 15.2539 6.95022 15.2539 6.93359C15.2539 6.91696 15.2761 6.87815 15.3204 6.82826C15.5976 6.49013 16.0854 6.16862 16.7949 5.8582C17.4268 5.58103 17.7539 5.44246 17.7816 5.43137V5.42582ZM17.2217 8.1143C17.1608 8.17527 17.0776 8.20854 16.9667 8.20854C16.9113 8.20854 16.867 8.19745 16.8226 8.16973L16.7672 8.1143C16.7228 8.1919 16.6729 8.27505 16.6231 8.35265C16.5676 8.43026 16.5011 8.4746 16.4124 8.4746C16.2794 8.45798 16.1907 8.41363 16.1408 8.34157C16.0909 8.26951 16.0687 8.17528 16.0687 8.06441C16.0687 7.98681 16.0687 7.90366 16.0798 7.82051C16.0909 7.73736 16.0965 7.64867 16.1075 7.55997C16.1075 7.499 16.1075 7.4491 16.0965 7.41584L16.1907 7.2163C16.2517 7.27727 16.2849 7.36042 16.2849 7.47128C16.2849 7.54334 16.2849 7.61541 16.2738 7.68193C16.2627 7.75399 16.2572 7.82605 16.2461 7.89257C16.2461 8.08104 16.3459 8.15311 16.551 8.11985C16.6231 8.04778 16.6563 7.95355 16.6563 7.82606C16.6563 7.77062 16.6452 7.69301 16.6286 7.58768C16.612 7.48236 16.6009 7.40477 16.6009 7.36043C16.6009 7.2551 16.6286 7.17194 16.6785 7.10542C16.7062 7.13868 16.7395 7.27172 16.7783 7.50454C16.8171 7.73735 16.9058 7.84822 17.0388 7.84822C17.0942 7.84822 17.1386 7.84822 17.1718 7.83714C17.1885 7.76507 17.1718 7.66529 17.1109 7.5378C17.0554 7.4103 17.0222 7.31607 17.0222 7.26618C17.0222 7.18858 17.0554 7.11097 17.1275 7.03891C17.1885 7.20521 17.2328 7.33824 17.2605 7.43802C17.2882 7.5378 17.2993 7.64313 17.2993 7.75954C17.2993 7.90366 17.2716 8.02007 17.2217 8.11985V8.1143ZM13.3248 5.48126C13.2971 5.63093 13.2251 5.76396 13.1031 5.87483C12.9812 5.98569 12.8426 6.05777 12.6818 6.09657L12.6541 6.05776C12.7761 5.95798 12.9035 5.86375 13.0255 5.76397C12.9257 5.73071 12.8315 5.70299 12.7372 5.69191C12.643 5.68082 12.5321 5.66973 12.3991 5.66973C12.4712 5.53669 12.51 5.46463 12.5211 5.45908C12.582 5.38702 12.6596 5.35376 12.7483 5.35376C12.7927 5.37039 12.8869 5.38702 13.0255 5.39257C13.1696 5.40365 13.2639 5.43138 13.3193 5.48681L13.3248 5.48126ZM17.061 9.89922C16.9834 10.1099 16.9169 10.2651 16.8725 10.3649C16.7949 10.5256 16.7007 10.6697 16.5953 10.8028L15.9024 10.3482C15.9302 10.2041 15.9856 10.06 16.0687 9.91585C16.1519 9.77173 16.2406 9.6276 16.3293 9.48348C16.4457 9.51674 16.5621 9.57771 16.6896 9.65532C16.8115 9.73292 16.939 9.81607 17.061 9.89367V9.89922ZM11.4845 5.77505L11.429 6.11873C11.3958 6.10764 11.3404 6.07994 11.2683 6.0245C11.1962 5.96907 11.1408 5.94689 11.0965 5.94689C11.0521 6.07993 11.0188 6.29058 11.0022 6.57883C10.9856 6.86708 10.9579 7.0888 10.9246 7.24955C10.847 7.18858 10.7583 7.08326 10.6696 6.92805C10.4368 6.52894 10.3038 6.3072 10.2705 6.26286C10.2594 6.34046 10.2206 6.38481 10.1486 6.38481C10.0765 6.36818 10.0266 6.35155 9.9878 6.346C9.94346 6.25731 9.92129 6.17971 9.92129 6.10765C9.92129 6.01896 9.92683 5.95243 9.94346 5.90808C9.95455 5.86374 9.9878 5.79723 10.0432 5.70854C10.2095 5.70854 10.3647 5.83048 10.4978 6.07992C10.6031 6.29057 10.714 6.50677 10.8304 6.71741C10.9302 6.32938 11.0244 5.93026 11.1242 5.53115C11.1962 5.53115 11.2572 5.55887 11.3182 5.60876C11.3736 5.66419 11.429 5.71407 11.4845 5.7695V5.77505ZM12.8426 7.09434C12.7428 7.14978 12.4157 7.27728 11.8559 7.48238C11.4235 7.64313 11.0854 7.80388 10.847 7.97572C10.7583 8.03669 10.6696 8.11431 10.5754 8.20854C10.4812 8.30278 10.4091 8.38593 10.3537 8.45244C10.7361 8.2418 11.0798 8.06442 11.3847 7.93138C11.6896 7.79834 12.0499 7.65421 12.4545 7.50454C12.643 7.44356 12.7705 7.30499 12.8426 7.09434ZM16.5122 12.4824C16.5288 12.5544 16.5122 12.6431 16.4734 12.7485C16.429 12.8538 16.3736 12.9536 16.3126 13.0422C16.2406 13.07 16.1796 13.0644 16.1242 13.0311C16.0687 12.9979 16.0078 12.9147 15.9357 12.7928C15.9246 12.7152 15.9246 12.6487 15.9246 12.6043C15.9246 12.2939 16.0078 11.9946 16.1796 11.7008C16.1463 11.9059 16.1075 12.1054 16.0743 12.2994C16.0743 12.4768 16.1353 12.6154 16.2627 12.7096C16.3237 12.7207 16.3736 12.6986 16.4069 12.6431C16.4401 12.5877 16.4789 12.5378 16.5122 12.4824ZM12.7483 10.4203C12.5987 10.6697 12.4823 10.8471 12.3936 10.9524C12.3104 11.0578 12.2106 11.1021 12.0942 11.0855L11.3514 10.7529C11.4124 10.5921 11.49 10.448 11.5787 10.315C11.6231 10.2429 11.7284 10.1043 11.9002 9.90477C12.122 10.0045 12.2882 10.0711 12.3936 10.1154C12.5987 10.2041 12.7151 10.3039 12.7539 10.4203H12.7483ZM11.5787 12.4824C11.551 12.6598 11.5233 12.8039 11.5011 12.9203C11.4734 13.0367 11.4069 13.1309 11.3016 13.1975C11.2018 13.1975 11.1242 13.1586 11.0632 13.0755C11.0022 12.9591 10.9579 12.8815 10.9302 12.8371C10.9191 12.7928 10.9191 12.7318 10.9191 12.6487C10.9191 12.3826 10.98 12.1387 11.1075 11.917C11.0798 12.1276 11.0687 12.2606 11.0687 12.3161C11.0687 12.4491 11.0854 12.56 11.1242 12.6487C11.1574 12.7374 11.2239 12.8094 11.3237 12.8593C11.3958 12.8427 11.4401 12.7762 11.4568 12.6598C11.4734 12.5434 11.5177 12.4824 11.5898 12.4713L11.5787 12.4824ZM19.2561 8.19744C19.1397 7.72072 19.0067 7.25509 18.857 6.81163C18.7406 6.48458 18.5743 6.04113 18.3525 5.48126C18.0698 5.71962 17.9257 6.0245 17.9257 6.40144L18.6685 12.9757L18.7239 13.8294C17.765 14.2174 16.806 14.611 15.8525 14.999C15.4257 15.1598 14.9545 15.4813 14.4446 15.9691C14.0122 16.3793 13.5798 16.7895 13.153 17.2052C12.6541 17.632 12.1663 17.8981 11.6785 18.0034C11.4124 17.9702 11.1907 17.815 11.0133 17.5378C11.0133 17.2828 11.0687 17.0057 11.1741 16.7119C11.3625 16.2961 11.5455 15.8804 11.7339 15.4757C12.2384 15.254 12.7483 15.0267 13.2639 14.7994C13.6353 14.6221 13.929 14.4558 14.1397 14.3061C14.3725 14.0511 14.5388 13.7573 14.6386 13.4303C14.7384 13.1032 14.7938 12.754 14.7938 12.377C14.7938 12.2163 14.7827 12.0666 14.7661 11.917C14.7494 11.7728 14.7273 11.6232 14.7051 11.4735C14.6829 11.3238 14.5942 10.7751 14.4446 9.83825C14.2561 8.68526 14.1674 7.79279 14.1674 7.16641C14.1951 7.19413 14.2949 7.34933 14.4723 7.63204C14.5333 7.73736 14.5942 7.80943 14.6441 7.84268C14.5998 7.499 14.4834 7.09433 14.3004 6.63425C14.2007 6.3848 14.0455 6.00232 13.8348 5.49234C13.735 5.55332 13.6463 5.66418 13.5687 5.82494C13.5355 5.91363 13.4745 6.05222 13.3969 6.23515L14.2339 11.6232L14.4058 13.2972C14.1231 13.5356 13.7627 13.7518 13.3193 13.9402C12.8814 14.1287 12.2328 14.4114 11.3847 14.7828C10.9523 14.9713 10.4922 15.3039 10.0155 15.7917C9.61641 16.2185 9.22284 16.6453 8.82927 17.0666C8.36918 17.5101 7.90909 17.8039 7.46009 17.9425C7.34368 17.9425 7.23836 17.9203 7.13304 17.8704C7.03326 17.8205 6.95011 17.7485 6.88914 17.6487C6.77273 17.5045 6.71729 17.3272 6.71729 17.1165C6.71729 16.9724 6.74501 16.8172 6.7949 16.6453C6.85033 16.4735 6.91685 16.3072 6.99446 16.1464C7.13858 15.8249 7.33814 15.6088 7.59313 15.4923L8.32483 15.4147C8.6796 15.3261 8.97894 15.1986 9.22838 15.0267C9.5388 14.8161 9.72173 14.55 9.77162 14.2396C9.79933 13.9569 9.81042 13.6742 9.81042 13.4026C9.81042 12.8427 9.73836 12.1664 9.59978 11.3682C9.52772 10.9524 9.38913 10.2928 9.17295 9.3837C8.99556 8.62982 8.86253 7.97017 8.77384 7.39922L8.87916 7.17194C8.95676 7.22737 9.05654 7.31606 9.17295 7.4491C9.22838 7.51008 9.31153 7.61541 9.42794 7.75399C9.43902 7.73736 9.47228 7.72073 9.53326 7.71518C9.38359 7.29944 9.20621 6.90033 9.00111 6.51784C8.90133 6.34046 8.68514 5.96351 8.34701 5.38702C8.33592 5.41473 8.25831 5.56996 8.10865 5.85266C8.00887 6.04113 7.96452 6.19634 7.96452 6.32937C7.96452 6.4347 7.9867 6.52893 8.03104 6.60654L9.38913 12.8482L9.52217 13.8072C9.3337 14.04 9.10643 14.2008 8.83481 14.295C8.56319 14.3892 8.2694 14.4336 7.94789 14.4336C7.54878 14.4336 7.13858 14.1453 6.72284 13.5688C6.45676 13.203 6.26829 12.9702 6.15188 12.8649C5.85255 12.9425 5.59202 13.0977 5.38137 13.3305C5.21508 13.519 5.05987 13.7684 4.92683 14.0899C4.81042 14.4003 4.69401 14.7107 4.58315 15.0212C4.43902 15.387 4.28936 15.6753 4.1286 15.8859C4.00665 15.9912 3.89024 16.0633 3.78492 16.1077C3.6796 16.1465 3.55765 16.1575 3.42461 16.1409C2.99778 15.8305 2.68736 15.4147 2.49335 14.8881C2.33259 14.4558 2.25499 13.9292 2.25499 13.3194C2.25499 13.0866 2.26608 12.8316 2.29379 12.5544C2.32151 12.2773 2.34922 12.0334 2.38803 11.8283C2.29933 11.9724 2.23282 12.1387 2.19401 12.3272C2.15521 12.5156 2.10532 12.7485 2.05543 13.0256C2.02217 13.3028 2 13.6132 2 13.9569C2 14.6387 2.09978 15.2318 2.29379 15.7418C2.52661 16.3294 2.88137 16.795 3.36918 17.1387C3.90133 17.1387 4.2949 16.9059 4.55543 16.4347C4.72173 15.9635 4.89357 15.4923 5.05987 15.0101C5.27051 14.4336 5.58093 14.0511 5.99113 13.8682C6.03548 13.9014 6.31264 14.2507 6.81707 14.9048C7.00554 15.1431 7.2051 15.315 7.41574 15.4092C7.22173 15.6032 7.05543 15.8194 6.92239 16.0633C6.85033 16.1852 6.73947 16.4292 6.5898 16.7839C6.55654 16.9003 6.52882 16.9946 6.51774 17.0777C6.50665 17.1553 6.49556 17.2274 6.49556 17.2883C6.49556 17.6597 6.61197 17.9702 6.83925 18.2196C7.04435 18.4081 7.27162 18.4968 7.53215 18.4968C7.62084 18.4968 7.71508 18.4857 7.80931 18.458C8.18071 18.2917 8.59645 17.9868 9.06208 17.5544C9.44457 17.183 9.82705 16.8116 10.2206 16.4513C10.6641 16.0633 11.0854 15.7972 11.4845 15.6531C11.4512 15.7307 11.3016 16.0633 11.0466 16.6509C10.8581 17.0611 10.7417 17.3992 10.6863 17.6764C10.7195 17.8815 10.8082 18.0755 10.9468 18.2529C11.0854 18.4358 11.2461 18.5522 11.4346 18.6076C11.5344 18.6354 11.6231 18.6464 11.7007 18.6464C11.8448 18.6464 11.9889 18.6187 12.133 18.5578C12.2772 18.5023 12.4157 18.4247 12.5377 18.3249C12.7483 18.1642 13.1253 17.8593 13.6574 17.4048C14.4446 16.7396 15.0654 16.2739 15.52 16.0134C15.9745 15.7529 16.3902 15.5422 16.7783 15.387C17.1663 15.2318 17.5876 15.1043 18.0477 15.0101C18.4024 14.8937 18.6685 14.6442 18.8459 14.2507C18.918 14.1065 19.0288 13.7462 19.1785 13.1586C19.1785 12.6708 19.051 11.5289 18.7905 9.73846C18.6741 8.94024 18.6186 8.25843 18.6186 7.68747L18.7627 7.51564C18.8404 7.57661 18.9457 7.72627 19.0676 7.95354C19.1286 8.06995 19.184 8.15311 19.2284 8.20854L19.2561 8.18081V8.19744ZM6.78936 6.54557C6.80599 6.61763 6.81707 6.6786 6.81707 6.73404C6.81707 6.78947 6.81153 6.84489 6.7949 6.91141C6.78381 6.97793 6.7561 7.06108 6.72284 7.15531C6.64523 7.23292 6.53991 7.27726 6.41796 7.27726C6.31818 7.27726 6.24612 7.25509 6.19069 7.21075C6.02439 7.23846 5.80266 7.42693 5.5255 7.7817C5.34811 8.01452 5.20953 8.16972 5.1153 8.24733C4.48337 8.8072 3.89024 9.24512 3.33038 9.56662C3.4745 9.43359 3.79601 9.15088 4.30044 8.71296C4.99335 8.11983 5.49224 7.59323 5.80266 7.1276C5.64191 7.07217 5.54767 6.98348 5.50887 6.85044C5.50887 6.6398 5.53658 6.44578 5.59756 6.27394C5.65299 6.1021 5.75277 5.95244 5.88581 5.83049C6.15188 5.93027 6.36253 6.04113 6.52328 6.17416C6.6286 6.26286 6.71729 6.38482 6.78936 6.54557ZM8.11973 11.9225C8.0643 12.1609 8.04213 12.2884 8.04213 12.2939C7.99778 12.438 7.92018 12.5433 7.81486 12.6154C7.74279 12.6154 7.68182 12.5877 7.63747 12.5267C7.58758 12.4713 7.54878 12.4048 7.50998 12.3327C7.50998 12.0999 7.53769 11.8892 7.58758 11.6952C7.64302 11.5012 7.72616 11.285 7.84257 11.0578C7.84257 11.1187 7.82594 11.213 7.78714 11.3349C7.70953 11.6176 7.66519 11.8006 7.66519 11.8782C7.66519 12.0445 7.74279 12.1664 7.89246 12.2385C7.93681 12.2108 7.97007 12.1553 7.99778 12.0666C8.0255 11.9779 8.0643 11.928 8.11973 11.9225ZM7.22727 9.73846C7.09423 10.06 6.92794 10.3316 6.72284 10.5644C6.67849 10.5312 6.55654 10.4535 6.35144 10.3427C6.14634 10.2318 6.01885 10.1265 5.96341 10.0323L5.45898 10.8028C5.26497 10.7418 5.09867 10.6753 4.96563 10.6032C4.77716 10.4979 4.67184 10.3926 4.64412 10.2817L5.20399 9.56109L6.0133 9.98791L6.51774 9.28393C6.51774 9.28393 6.66186 9.36153 6.88914 9.48348C7.0388 9.56108 7.14967 9.64977 7.22173 9.73846H7.22727ZM3.4745 10.4147C3.41353 10.8028 3.36364 11.091 3.33038 11.2795C3.25832 11.6176 3.13082 11.8449 2.94235 11.9724C2.83703 11.9724 2.72616 11.9502 2.6153 11.9003C2.50443 11.8504 2.39911 11.7839 2.30488 11.6952C2.21619 11.5289 2.14967 11.3294 2.09978 11.1021C2.04989 10.8748 2.02772 10.6587 2.02772 10.4425C2.02772 10.0877 2.08869 9.67195 2.21619 9.18969C2.28825 8.90698 2.4102 8.50233 2.58758 7.98127L2.94789 7.32715C2.84257 7.693 2.73725 8.05332 2.62639 8.41917C2.50443 8.89589 2.43792 9.3061 2.43792 9.64424C2.43792 9.9214 2.48226 10.1708 2.56541 10.3981C2.64856 10.6254 2.79268 10.8194 2.99778 10.9912C3.13082 10.9912 3.21951 10.9026 3.26386 10.7196C3.3082 10.5367 3.38027 10.4369 3.4745 10.4203V10.4147ZM4.4612 12.7152C4.45011 12.8815 4.43348 13.0311 4.40576 13.1531C4.37805 13.275 4.2949 13.3637 4.15078 13.4081C4.09534 13.4081 4.03991 13.3915 3.97894 13.3527C3.91796 13.3194 3.87916 13.2529 3.85698 13.1642C3.8459 13.0921 3.8459 13.0422 3.8459 13.0034C3.8459 12.8371 3.86807 12.6764 3.91242 12.5267C3.92905 12.4657 4.03437 12.2163 4.23392 11.7839C4.25055 11.8726 4.21729 12.0278 4.13415 12.244C4.051 12.4602 4.00665 12.6154 4.00665 12.7041C4.00665 12.8538 4.08426 12.9646 4.23392 13.0367L4.4612 12.7152ZM6.61752 6.87262C6.61752 6.87262 6.54545 6.90033 6.48448 6.90033C6.39579 6.90033 6.29601 6.86707 6.19069 6.795L6.26829 6.46241C6.3459 6.49567 6.41796 6.5511 6.47339 6.62317C6.52882 6.69523 6.57871 6.77837 6.61197 6.87815L6.61752 6.87262ZM6.01885 6.73957C5.84146 6.77283 5.74168 6.72849 5.71397 6.59546C5.72505 6.50676 5.76386 6.46241 5.83592 6.46241C5.89135 6.46241 5.9357 6.48459 5.9745 6.52339C6.0133 6.56219 6.02993 6.60655 6.01885 6.65089V6.74512V6.73957Z" fill="white"/>
</svg>
