<svg width="24" height="24" viewBox="0 0 24 24" fill="none" xmlns="http://www.w3.org/2000/svg">
<path fill-rule="evenodd" clip-rule="evenodd" d="M21.9788 8.85578C21.9311 8.82927 21.8727 8.76034 21.8144 8.65429C21.7561 8.54825 21.6978 8.46872 21.6394 8.421C21.6394 8.76564 21.6713 9.21103 21.7349 9.74655C21.878 10.9396 21.947 11.7031 21.947 12.0371C21.9735 12.2545 21.9894 12.403 21.9947 12.4825C21.9947 12.562 22 12.6416 22 12.7264C22 13.0817 21.9629 13.4369 21.8834 13.8028C21.8038 14.1686 21.6978 14.5345 21.5652 14.9003C21.5917 14.7306 21.6129 14.5292 21.6288 14.2959C21.6447 14.0626 21.6501 13.8399 21.6501 13.6278C21.6501 13.0604 21.6023 12.4189 21.5069 11.7031C21.4115 10.9873 21.316 10.2503 21.2153 9.50265C21.1145 8.75504 21.0668 8.12407 21.0668 7.61506C21.0244 7.55143 21.0032 7.4878 21.0032 7.42418C21.0032 7.33404 21.0403 7.22799 21.1092 7.11665C21.1782 7.0053 21.2471 6.89396 21.3107 6.78791C21.5281 7.21209 21.6819 7.54613 21.7667 7.78473C21.9099 8.17179 21.9788 8.53234 21.9788 8.85578ZM18.7975 7.05302C18.8134 7.14316 18.7656 7.22799 18.6596 7.29692C18.6437 7.30223 18.5482 7.34995 18.3733 7.43478C18.0392 7.57794 17.7052 7.7211 17.3659 7.87487C17.0265 8.02863 16.7137 8.1983 16.4221 8.38918C16.544 8.20361 16.6978 8.04454 16.8887 7.91198C17.0371 7.80594 17.2439 7.69989 17.5037 7.59385C17.9332 7.41888 18.368 7.2386 18.7975 7.05302ZM18.7975 9.05726C18.7975 9.09968 18.7868 9.1474 18.7603 9.19512C18.7338 9.24284 18.7179 9.28526 18.702 9.31177C18.6119 9.25345 18.5483 9.22693 18.5217 9.22693C18.4793 9.29586 18.4422 9.44963 18.4104 9.68823C18.3786 9.92683 18.315 10.07 18.2142 10.1177C18.0817 9.88971 17.9491 9.66702 17.8218 9.43902L17.7582 9.55567C17.6946 9.55567 17.631 9.50265 17.5673 9.39661C17.5461 9.33298 17.5567 9.25875 17.6045 9.17391C17.6522 9.08908 17.6734 9.04136 17.6734 9.03605C17.8059 9.03605 17.9226 9.12089 18.0233 9.29056C18.1029 9.43902 18.1824 9.58218 18.2672 9.72534C18.315 9.46554 18.3998 9.20042 18.5217 8.94061C18.6278 8.9194 18.7179 8.95652 18.7975 9.05726ZM19.0095 11.1251C19.0308 11.1729 19.0201 11.2418 18.983 11.3213C18.9459 11.4008 18.9194 11.4592 18.9035 11.4963C18.7975 11.5652 18.7391 11.6023 18.7338 11.6023C18.7073 11.6023 18.6808 11.5864 18.6596 11.5599C18.6172 11.4751 18.596 11.3849 18.596 11.2948C18.596 11.1888 18.6225 11.0615 18.6808 10.9183C18.7391 10.7752 18.7922 10.6373 18.8505 10.5101C18.8558 10.5578 18.8399 10.6532 18.7922 10.7964C18.7444 10.9396 18.7232 11.035 18.7232 11.0827C18.7232 11.1941 18.7762 11.2683 18.8823 11.2948L19.0095 11.1251ZM16.8038 10.3722C16.7561 10.5154 16.7031 10.6532 16.6554 10.7964C16.5917 10.9449 16.5122 11.0668 16.4115 11.1675C16.4963 11.0191 16.5705 10.8441 16.6288 10.6373C16.6872 10.4305 16.719 10.2291 16.719 10.0329C16.719 9.88441 16.7031 9.74655 16.666 9.6246C16.6288 9.50265 16.5705 9.3913 16.4857 9.29056L16.6023 9.07847C16.6925 9.16331 16.7614 9.27466 16.8038 9.41251C16.8462 9.55037 16.8674 9.68823 16.8674 9.83139C16.8674 10.0276 16.8462 10.2078 16.8038 10.3722ZM20.2503 12.4719L19.667 8.27253L19.72 8.20891C19.72 8.20891 19.8102 8.31495 19.9321 8.50583C19.9745 8.56946 20.0329 8.60127 20.1018 8.60127C20.0382 8.28314 19.9533 7.99152 19.842 7.7211C19.7306 7.45069 19.5875 7.15376 19.4125 6.83033C19.3754 6.88865 19.3224 6.97879 19.2481 7.11135C19.1739 7.2439 19.1368 7.35525 19.1368 7.45599C19.1368 7.51962 19.1527 7.57794 19.1792 7.63627L19.9427 12.7794C19.8208 12.8696 19.7041 12.9438 19.5822 13.0021C19.4973 13.0392 19.3701 13.0817 19.2004 13.1294C19.0573 12.8537 18.8929 12.6257 18.702 12.4507C18.4687 12.2386 18.2195 12.1326 17.9597 12.1326C17.7211 12.2174 17.5355 12.3606 17.4083 12.5567C17.2439 12.7953 17.1379 13.1612 17.0901 13.649C17.1379 13.7975 17.228 13.9141 17.3605 13.9936C17.4931 14.0732 17.6999 14.1156 17.9809 14.1156C18.2407 14.0679 18.5058 14.0148 18.7656 13.9565C18.8876 13.9565 18.9459 14.0361 18.9459 14.2004C18.6649 14.4973 18.4104 14.7413 18.193 14.9321C17.9332 15.1601 17.6628 15.3669 17.3818 15.5578C17.1007 15.7487 16.8197 15.913 16.5281 16.0562C16.2365 16.1994 15.9396 16.316 15.6267 16.4061C15.5896 16.4061 15.5366 16.4115 15.4624 16.4274C15.3881 16.4433 15.2927 16.4486 15.1707 16.4486C14.9639 16.4486 14.7731 16.4168 14.5981 16.3478C14.4231 16.2789 14.2747 16.1676 14.1633 16.0032C14.0944 15.913 14.0467 15.8229 14.0254 15.7381C14.0042 15.6532 13.9936 15.5525 13.9936 15.4411C13.9936 15.2768 14.0254 15.0912 14.0944 14.8844C14.1633 14.6776 14.2269 14.4761 14.2906 14.2853C14.0626 14.6617 13.9141 14.9745 13.8399 15.2291C13.7656 15.4836 13.7285 15.7222 13.7285 15.9396C13.7285 16.2365 13.8028 16.5069 13.9512 16.7455C14.0732 16.9099 14.2269 17.0265 14.4178 17.0954C14.5239 17.1379 14.7094 17.175 14.9692 17.2121C15.4305 17.1644 15.8812 17.0371 16.3213 16.8409C16.7614 16.6448 17.1803 16.3849 17.5779 16.0721C17.9756 15.7593 18.315 15.4093 18.6013 15.0223C18.8876 14.6352 19.1103 14.2269 19.264 13.7869C19.5557 13.7285 19.789 13.5695 19.9639 13.299C20.1071 13.087 20.2025 12.8112 20.2503 12.4719ZM13.6013 8.49523C13.4793 8.68611 13.3945 8.81336 13.3468 8.87699C13.2778 8.96713 13.2036 9.04136 13.1347 9.09968L12.5514 8.56946L12.9014 8.01803L13.6013 8.49523ZM15.5207 8.79215C15.473 8.76564 15.4146 8.71262 15.3563 8.64369C15.298 8.57476 15.2397 8.50583 15.1919 8.4422L15.0859 8.61188C15.0859 8.99364 15.1336 9.48674 15.2344 10.0859C15.3775 10.9183 15.4571 11.4592 15.4783 11.7031C15.4995 11.947 15.5101 12.122 15.5154 12.2227C15.5154 12.3234 15.5154 12.4348 15.5154 12.5461C15.5154 12.9226 15.4836 13.2672 15.4252 13.5907C15.3669 13.9141 15.2662 14.2322 15.123 14.5504C15.1495 14.4231 15.1707 14.2641 15.1866 14.0679C15.2025 13.8717 15.2078 13.6808 15.2078 13.4899C15.2078 13.3786 15.2078 13.2619 15.2025 13.1453C15.2025 13.0286 15.2025 12.912 15.2025 12.79V12.6946L14.5769 7.57264C14.561 7.51432 14.5557 7.4719 14.5557 7.43478C14.5557 7.32874 14.5875 7.21739 14.6511 7.09544C14.7413 6.95228 14.8049 6.85154 14.842 6.78791C15.017 7.16437 15.1548 7.49311 15.2556 7.77413C15.3828 8.11877 15.473 8.45811 15.5207 8.79215ZM12.3818 8.64369C12.3022 8.88229 12.1644 9.08377 11.9576 9.24814C11.7826 9.20573 11.6394 9.15801 11.5334 9.09968C11.3849 9.02015 11.2842 8.93001 11.2365 8.82397C11.2842 8.72322 11.3478 8.62248 11.4274 8.51644C11.4645 8.46872 11.5387 8.37328 11.6607 8.24072L12.3818 8.64369ZM12.4136 7.02121C10.5207 7.60975 9.49205 7.92789 9.33828 7.98621C8.63309 8.22481 8.02863 8.45281 7.53552 8.6649C7.44539 8.79215 7.40827 8.87699 7.42948 8.91941C7.92259 8.69141 8.46341 8.47932 9.04136 8.28314C9.1527 8.24072 9.70413 8.06575 10.6957 7.75292C11.3902 7.53552 11.9364 7.34995 12.3393 7.20148L12.4136 7.02121ZM16.3054 14.1792C16.3054 14.2906 16.2895 14.3913 16.2577 14.4814C16.2259 14.5716 16.1675 14.6352 16.0827 14.6776C16.0244 14.6829 15.982 14.6723 15.9502 14.6352C15.9183 14.5981 15.8918 14.5504 15.8706 14.4867C15.8706 14.3595 15.8918 14.2322 15.9343 14.105C15.9767 13.9777 16.0191 13.8505 16.0615 13.7232C16.0774 13.7709 16.0615 13.8558 16.035 13.9671C16.0032 14.0785 15.9873 14.1527 15.9873 14.1898C15.9873 14.2959 16.0403 14.3648 16.1463 14.4019C16.1729 14.3436 16.1994 14.2959 16.2153 14.2534C16.2312 14.211 16.263 14.1845 16.3054 14.1792ZM11.2895 10.6691C11.263 10.7593 11.2312 10.86 11.2047 10.9608C11.1782 11.0615 11.1145 11.1198 11.0244 11.1251C10.9767 11.1304 10.9343 11.1092 10.8971 11.0615C10.86 11.0138 10.8388 10.9767 10.8229 10.9555C10.8176 10.9183 10.8123 10.8706 10.8123 10.807C10.8123 10.6585 10.8494 10.4942 10.9289 10.3192C10.9714 10.2291 11.0191 10.1336 11.0668 10.0329C11.0668 10.0753 11.0456 10.1654 11.0032 10.298C10.9608 10.4305 10.9396 10.5313 10.9396 10.5949C10.9396 10.7222 11.0032 10.8017 11.1304 10.8388C11.1676 10.8335 11.1888 10.8017 11.2047 10.7487C11.2206 10.6957 11.2471 10.6691 11.2895 10.6691ZM7.4719 7.63627C7.4878 7.73701 7.4825 7.83245 7.45599 7.93319C7.42948 8.03393 7.37646 8.10816 7.29162 8.15588C7.25451 8.16119 7.228 8.15588 7.20679 8.14528C7.18558 8.12937 7.12725 8.07105 7.03712 7.965C7.03712 7.64687 7.11665 7.36585 7.27041 7.11665C7.28632 7.16437 7.27041 7.25451 7.228 7.37646C7.18558 7.49841 7.16437 7.58855 7.16437 7.64687C7.16437 7.74761 7.22269 7.81124 7.34464 7.84836L7.4719 7.63627ZM9.8685 9.31177L9.80488 9.53446C9.76776 9.53446 9.72004 9.51856 9.66172 9.49205C9.60339 9.46553 9.54507 9.45493 9.49735 9.47084C9.47084 9.55567 9.43902 9.70944 9.41251 9.92683C9.386 10.1442 9.35419 10.3139 9.31707 10.4358C9.25875 10.3934 9.18982 10.2874 9.09968 10.1124C9.00954 9.93743 8.93531 9.84729 8.87169 9.83139C8.77094 9.82609 8.70732 9.81548 8.6702 9.79958C8.63309 9.78367 8.60657 9.74655 8.58537 9.68293C8.58006 9.59809 8.59597 9.51856 8.63839 9.43902C8.68081 9.35949 8.73913 9.29586 8.80806 9.24814C8.89289 9.31707 8.96713 9.40191 9.03075 9.50265C9.12089 9.67762 9.21633 9.8579 9.30647 10.0329C9.30647 9.82609 9.32238 9.66172 9.34889 9.53977C9.3754 9.41781 9.43902 9.30647 9.53977 9.20572C9.6087 9.18982 9.68293 9.20573 9.75186 9.23754C9.77306 9.25345 9.81018 9.27465 9.8685 9.31177ZM13.6013 14.6988C13.5536 14.8738 13.4475 14.9745 13.2831 14.9958L11.0032 16.0032C10.9979 15.9608 11.0032 15.913 11.035 15.8653C11.0615 15.8176 11.0933 15.7699 11.1304 15.7275C11.9364 15.3616 12.7582 15.017 13.6013 14.6988ZM5.65854 7.45599C5.65854 7.58855 5.64793 7.69989 5.63203 7.79003C5.61612 7.88017 5.5737 7.9491 5.51007 7.99682L5.0965 7.88017C4.8632 8.15058 4.58218 8.39448 4.24814 8.61188C3.99894 8.77624 3.68081 8.94592 3.28314 9.12089C3.83457 8.69671 4.3913 8.27253 4.94804 7.84836C4.88971 7.82184 4.84199 7.77412 4.79427 7.7158C4.74655 7.65748 4.72534 7.59385 4.72534 7.53022C4.72534 7.4825 4.74125 7.44008 4.76776 7.40297C4.83139 7.35525 4.8685 7.26511 4.88441 7.13255C4.90032 7 4.94274 6.91516 5.01166 6.87275C5.15482 6.89926 5.28738 6.96819 5.41994 7.07953C5.55249 7.19088 5.63203 7.31283 5.65854 7.45599ZM6.2842 9.18452C6.20467 9.10498 6.11983 9.04136 6.01909 8.98303C5.91835 8.92471 5.76458 8.85048 5.55249 8.74973L5.0965 9.1421L4.52386 8.91941C4.43372 8.9035 4.34889 8.94592 4.26935 9.03605C4.24284 9.06256 4.15801 9.22163 4.02545 9.51325C4.08378 9.52916 4.20042 9.58218 4.3754 9.68293C4.51856 9.76246 4.63521 9.80488 4.73595 9.82078C4.78367 9.77306 4.84199 9.68823 4.91092 9.57688C4.97985 9.46553 5.03818 9.3807 5.0965 9.33298C5.27147 9.43902 5.40933 9.51856 5.51007 9.57688C5.61082 9.63521 5.73807 9.68823 5.89183 9.74655C6.0456 9.57688 6.17815 9.3913 6.2842 9.18452ZM13.5695 11.4539C13.7603 11.7243 13.8558 12.0424 13.8558 12.4189C13.8558 12.6257 13.824 12.8271 13.7603 13.0286C13.6967 13.2301 13.6066 13.4157 13.4952 13.5854C13.193 13.8452 12.8855 14.0679 12.5779 14.2534C12.2704 14.439 11.9311 14.5822 11.5652 14.6935C11.1994 14.8049 10.8388 14.8579 10.4942 14.8579C10.2662 14.8579 10.0753 14.842 9.91622 14.8155C9.75716 14.789 9.58218 14.7306 9.3913 14.6511C9.20042 14.5716 9.00954 14.439 8.81866 14.2534C8.6649 14.105 8.51113 13.93 8.36267 13.7232C8.10816 13.93 7.83775 14.0944 7.54613 14.2269C7.25451 14.3595 6.97349 14.4231 6.69777 14.4231C6.46978 14.4231 6.26299 14.3754 6.07211 14.2853C5.84411 14.2216 5.65323 14.0679 5.49947 13.8187C5.37752 13.6013 5.26087 13.3786 5.13892 13.1506C4.84199 13.315 4.614 13.6119 4.46023 14.0414C4.10498 15.0117 3.80806 15.5737 3.56946 15.7275C3.53234 15.7328 3.47932 15.7381 3.41039 15.7381C3.30435 15.7381 3.20361 15.7222 3.11347 15.6957C3.02333 15.6691 2.90138 15.6002 2.75292 15.4942C2.51432 15.2344 2.33404 14.9268 2.21739 14.5769C2.10074 14.2269 2.04242 13.8558 2.04242 13.4687C2.04242 13.0392 2.10604 12.6363 2.2333 12.2598C2.07953 11.9417 2 11.6076 2 11.2524C2 10.8123 2.11665 10.3563 2.34995 9.87381C2.54083 9.48674 2.80594 9.08378 3.14528 8.6649C3.11877 8.74443 2.9544 9.08377 2.65748 9.68293C2.44009 10.1283 2.32874 10.4889 2.32874 10.7646C2.32874 11.088 2.45069 11.3743 2.69989 11.6235C2.82185 11.6235 2.92789 11.5652 3.02863 11.4539C3.04454 11.3425 3.08165 11.2577 3.14528 11.21C3.08165 11.6288 3.04454 11.8462 3.03924 11.8674C2.97031 12.1166 2.83775 12.2863 2.64687 12.3871C2.58855 12.3924 2.53553 12.3871 2.4825 12.3765C2.42948 12.3606 2.37646 12.3393 2.31813 12.3022C2.30223 12.3924 2.29162 12.509 2.28632 12.6416C2.28102 12.7741 2.27572 12.9014 2.27572 13.0233C2.27572 13.4475 2.33934 13.8187 2.46129 14.1368C2.58325 14.4549 2.80064 14.7147 3.11347 14.9109C3.21421 14.948 3.27784 14.9639 3.30435 14.9639H3.41039C3.50053 14.9639 3.59067 14.9427 3.6755 14.9003C3.85048 14.7306 4.00954 14.4443 4.1527 14.0414C4.21633 13.8452 4.28526 13.6437 4.35419 13.4475C4.45493 13.1506 4.56098 12.9279 4.67232 12.7794C4.82609 12.5832 5.02757 12.4613 5.26617 12.4189C5.41463 12.737 5.55779 12.9809 5.69035 13.1506C5.89714 13.4104 6.13043 13.5695 6.40085 13.6278C6.45917 13.6437 6.5122 13.6543 6.57052 13.6596C6.62884 13.6649 6.69247 13.6702 6.772 13.6702C6.9894 13.6702 7.20679 13.6278 7.42418 13.5483C7.64157 13.4687 7.84836 13.3574 8.04454 13.2142C7.89077 13.0392 7.73701 12.859 7.58855 12.684C7.39236 12.4772 7.19618 12.3765 7.0053 12.3765C6.96288 12.3765 6.92577 12.3765 6.89926 12.3871C6.85684 12.4136 6.79321 12.4454 6.71368 12.4772C6.63415 12.509 6.56522 12.5302 6.50689 12.5461C6.50159 12.5196 6.49629 12.4772 6.49629 12.4295C6.49629 12.3393 6.5228 12.2068 6.58112 12.0371C6.61824 11.9311 6.63945 11.8515 6.64475 11.8038C6.86214 11.6925 7.10604 11.6023 7.36585 11.544C7.62566 11.4857 7.89077 11.4539 8.15058 11.4539C8.59597 11.4539 9.09968 11.5281 9.65642 11.6766C9.97985 11.7614 10.4464 11.9152 11.0456 12.1326C11.0085 12.2227 10.9873 12.2916 10.9714 12.334C10.913 12.4825 10.8812 12.5938 10.8759 12.6734C10.8706 12.6734 10.8388 12.7105 10.7911 12.7794C10.245 12.8006 9.83139 12.8643 9.53977 12.9703C9.24814 13.0764 9.04666 13.2195 8.92471 13.3945C9.12089 13.649 9.3701 13.8293 9.66172 13.9353C9.95334 14.0414 10.2874 14.0944 10.6532 14.0944C10.807 14.0944 10.9714 14.0838 11.1357 14.0679C11.3001 14.052 11.5122 14.0095 11.7667 13.9459C12.3659 13.7391 12.9491 13.4263 13.5058 13.0021C13.3839 12.79 13.0339 12.6681 12.4454 12.6363C11.8568 12.6045 11.5652 12.3977 11.5652 12.0159C11.5652 11.947 11.5652 11.8887 11.5758 11.8462C11.6819 11.6182 11.7879 11.3955 11.894 11.1675C12.0424 10.9077 12.2333 10.7487 12.4666 10.6904C12.6787 10.6904 12.8855 10.7752 13.0923 10.9449C13.1771 11.0138 13.3362 11.1835 13.5695 11.4539ZM6.31601 11.1039H6.27359C6.24708 11.1941 6.21527 11.2577 6.17815 11.2948C6.09862 11.2683 6.0509 11.2312 6.02439 11.1888C5.99788 11.1463 5.98727 11.088 5.98727 11.0191C5.98727 10.9502 6.01909 10.8176 6.08802 10.6214C6.15695 10.4252 6.18346 10.2927 6.17815 10.2131C6.11453 10.3775 6.0509 10.5472 5.98197 10.7222C5.91304 10.8971 5.88123 11.0562 5.88123 11.1994C5.88123 11.3531 5.91835 11.4804 5.98727 11.5811C6.00848 11.597 6.06681 11.5864 6.16755 11.5599C6.22587 11.4963 6.26299 11.4221 6.2842 11.3372C6.2895 11.2577 6.30011 11.1835 6.31601 11.1039ZM9.75186 15.3563C9.55567 15.4571 9.40191 15.526 9.29586 15.5684C9.01485 15.6744 8.73913 15.7275 8.46872 15.7275C8.1983 15.7275 7.97561 15.6691 7.76882 15.5578C7.79003 15.3881 7.93319 15.2556 8.193 15.1548C8.45281 15.0541 8.60657 14.9427 8.64899 14.8155L8.29905 14.9109C8.21421 14.9109 8.12937 14.9003 8.04984 14.8738C7.97031 14.8473 7.91198 14.8049 7.88547 14.7413C7.90138 14.7147 7.9438 14.6988 8.01272 14.6988C8.03393 14.7253 8.06044 14.7678 8.09756 14.8155C8.1877 14.7359 8.24602 14.6564 8.26723 14.5716C8.25133 14.492 8.20361 14.4549 8.11877 14.4549C8.07105 14.4549 8.02863 14.4708 7.99152 14.508C7.90138 14.5557 7.82185 14.6246 7.75822 14.7041C7.69459 14.7837 7.66278 14.8738 7.66278 14.9639C7.73171 15.0435 7.81654 15.0965 7.90668 15.1336C7.81654 15.2344 7.75292 15.298 7.72641 15.3351C7.65748 15.4199 7.60445 15.4942 7.57794 15.5578C7.51962 15.6691 7.55673 15.7699 7.68399 15.8547C7.86957 15.9343 8.07635 15.9714 8.30965 15.9714C8.47932 15.9714 8.64899 15.9502 8.81866 15.9077C9.17921 15.8017 9.49205 15.6161 9.75186 15.3563ZM5.37222 15.176C5.37222 15.176 5.31919 15.2344 5.28208 15.3086C5.24496 15.3828 5.19724 15.4146 5.13892 15.3987C5.0912 15.3563 5.05939 15.3139 5.04348 15.2662C5.02757 15.2185 5.02227 15.1707 5.02227 15.123C5.02227 15.0647 5.03287 14.9745 5.05939 14.8526C5.0859 14.7306 5.0965 14.6511 5.0965 14.614C5.04878 14.7359 5.00106 14.8579 4.95334 14.9905C4.90562 15.123 4.88441 15.2397 4.88441 15.3457C4.88441 15.4146 4.88971 15.4889 4.90562 15.5684C4.92153 15.6479 4.99576 15.685 5.13892 15.685C5.20785 15.6585 5.26617 15.6055 5.30859 15.526C5.35101 15.4464 5.37222 15.3298 5.37222 15.176ZM18.5217 13.2778C18.3945 13.3203 18.246 13.3415 18.0764 13.3415C17.9491 13.3415 17.8324 13.3203 17.7264 13.2831C17.6204 13.246 17.5302 13.1771 17.4613 13.087C17.4825 13.0074 17.5355 12.9491 17.6204 12.9067C17.6363 12.9014 17.6734 12.8855 17.737 12.8643C17.912 12.9067 18.0604 12.9597 18.1824 13.018C18.3043 13.0764 18.4157 13.1665 18.5217 13.2778ZM12.9544 11.8887C12.8271 11.7455 12.7476 11.666 12.7211 11.6448C12.631 11.5599 12.5355 11.5016 12.4454 11.4751C12.3765 11.438 12.3075 11.4221 12.2439 11.4221C12.1379 11.4221 12.053 11.4539 11.9894 11.5175C11.9735 11.5546 11.9788 11.5917 12 11.6288C12.0212 11.666 12.0477 11.7031 12.0742 11.7402C12.2386 11.8674 12.4348 11.9311 12.6681 11.9311C12.7794 11.9311 12.8749 11.9152 12.9544 11.8887ZM5.51007 7.67868C5.47296 7.59915 5.44645 7.54083 5.42524 7.49841C5.40403 7.45599 5.37752 7.42418 5.3404 7.40297L5.28738 7.4878C5.24496 7.55673 5.25557 7.60445 5.31919 7.62566C5.38282 7.64687 5.44645 7.66278 5.51007 7.67868ZM5.11771 7.51962V7.45599C5.11241 7.40827 5.0859 7.38176 5.04348 7.38176C5.00106 7.39767 4.96925 7.40827 4.94804 7.41357C4.94274 7.46129 4.95864 7.49311 4.99576 7.49841C5.03287 7.50371 5.07529 7.51432 5.11771 7.51962ZM9.23224 12.4189C9.09968 12.3818 8.93531 12.3552 8.74443 12.3287C8.55355 12.3022 8.36797 12.281 8.193 12.2598C8.20891 12.3234 8.24072 12.3871 8.28844 12.4507C8.37858 12.562 8.47402 12.6734 8.56416 12.7794C8.65429 12.7741 8.77094 12.7211 8.9035 12.631C9.09438 12.5037 9.20573 12.4348 9.23224 12.4189Z" fill="white"/>
</svg>
