<svg width="24" height="24" viewBox="0 0 24 24" fill="none" xmlns="http://www.w3.org/2000/svg">
<path fill-rule="evenodd" clip-rule="evenodd" d="M22 12.4366C22 12.8871 21.9763 13.2823 21.9328 13.6221C21.8894 13.962 21.7945 14.294 21.6483 14.618C21.6878 14.3019 21.7115 14.0727 21.7194 13.9264C21.7273 13.7802 21.7352 13.5905 21.7352 13.3574C21.7352 13.2112 21.7352 13.0966 21.7273 13.0175C21.7194 12.9345 21.7076 12.8081 21.6878 12.6382L21.0516 7.98295C21.0397 7.93158 21.0318 7.89206 21.0318 7.86045C21.0318 7.74584 21.0595 7.63519 21.1108 7.52454C21.1662 7.41389 21.2373 7.32695 21.3321 7.26372C21.3717 7.37832 21.4665 7.61938 21.6167 7.9948C21.8301 8.52434 21.9565 8.94324 21.9881 9.24753C21.9486 9.22777 21.8894 9.15663 21.8024 9.03017C21.7155 8.90371 21.6443 8.86025 21.5811 8.89581C21.5811 9.28309 21.6522 9.86795 21.7906 10.6583C21.9289 11.4487 22 12.0414 22 12.4406V12.4366ZM18.5185 8.92742C18.5501 8.97089 18.5659 9.00646 18.5659 9.03017C18.5659 9.06179 18.5422 9.1092 18.4948 9.17639C18.4473 9.24357 18.4197 9.2989 18.4157 9.34237C18.3644 9.36212 18.3169 9.35027 18.2695 9.30285C18.2221 9.25938 18.1826 9.20405 18.151 9.14082C18.1431 9.10921 18.1431 9.06574 18.1431 9.00646C18.1431 8.91162 18.1589 8.82073 18.1865 8.73774C18.2142 8.65475 18.2577 8.56387 18.313 8.46902C18.3011 8.54016 18.2893 8.60338 18.2814 8.66266C18.2735 8.72193 18.2656 8.76145 18.2656 8.78121C18.2656 8.83258 18.2695 8.88395 18.2814 8.93138C18.2893 8.98275 18.3248 9.03018 18.3802 9.07365C18.4118 9.07365 18.4355 9.06574 18.4552 9.04598C18.4869 8.98275 18.5106 8.94324 18.5224 8.92348L18.5185 8.92742ZM18.4711 7.4297C17.5424 7.71423 16.6651 7.9948 15.8431 8.27538C14.8552 8.61128 13.9976 8.93138 13.2626 9.24357C13.2191 9.2989 13.1757 9.35817 13.1401 9.41745C13.1006 9.47673 13.0848 9.5281 13.0927 9.56366C13.1164 9.55181 13.1519 9.52415 13.1954 9.47672C13.2389 9.43326 13.2824 9.40164 13.3298 9.38189L17.6175 7.8723C17.7676 7.82093 17.9297 7.7656 18.0956 7.70238C18.2616 7.63915 18.3881 7.54825 18.4711 7.42575V7.4297ZM18.147 10.5793C18.1352 10.686 18.0798 10.8045 17.985 10.931C17.8585 11.1009 17.7874 11.2116 17.7676 11.2629C17.736 11.2076 17.6254 11.1167 17.4357 10.9982C17.2776 10.9033 17.2144 10.8006 17.246 10.686L17.57 10.1643C17.7202 10.2394 17.8269 10.2987 17.8822 10.3343C17.9771 10.3975 18.064 10.4805 18.147 10.5793ZM14.1438 8.0936C14.1359 8.16868 14.1201 8.24377 14.0885 8.3149C14.0569 8.38603 14.0174 8.46506 13.966 8.54805C13.9028 8.56781 13.8475 8.55991 13.8 8.52434C13.7526 8.48878 13.7131 8.4453 13.6815 8.38603C13.6617 8.31094 13.6538 8.23981 13.6538 8.17658C13.6538 8.08174 13.6657 7.9948 13.6854 7.91972C13.7091 7.84464 13.7724 7.70238 13.8791 7.49293C13.8475 7.65891 13.8158 7.82093 13.7842 7.98691C13.7842 8.10546 13.8277 8.2082 13.9186 8.29119C13.9739 8.30304 14.0174 8.27538 14.0411 8.20029C14.0648 8.12916 14.1004 8.08964 14.1438 8.08964V8.0936ZM16.345 10.2473C16.3213 10.3185 16.262 10.3501 16.1751 10.3501C16.1197 10.3501 16.0723 10.3422 16.0328 10.3224L16.013 10.3026C16.013 10.3026 15.9419 10.358 15.8234 10.4528C15.7364 10.5239 15.6613 10.5556 15.606 10.5556C15.5862 10.5556 15.5586 10.5477 15.5151 10.5279C15.4756 10.5081 15.4361 10.4686 15.3966 10.4054C15.357 10.3422 15.3412 10.2631 15.3412 10.1683C15.3412 10.1051 15.3491 10.0339 15.361 9.95094C15.3729 9.86796 15.3847 9.78892 15.4005 9.71383L15.4677 9.59133C15.4914 9.62294 15.5072 9.68222 15.5072 9.77311C15.5072 9.80472 15.5072 9.85214 15.4993 9.91932C15.4914 9.9865 15.4914 10.03 15.4914 10.0576C15.4914 10.196 15.5467 10.2671 15.6534 10.2671C15.6653 10.2671 15.7048 10.2592 15.768 10.2473C15.8392 10.192 15.8708 10.113 15.8708 10.0181C15.8708 9.9786 15.8629 9.92723 15.851 9.85609C15.8392 9.78496 15.8313 9.73359 15.8313 9.69407C15.8313 9.6506 15.8392 9.61109 15.851 9.57948C15.8629 9.54786 15.8905 9.5202 15.938 9.49254C15.9617 9.53601 15.9775 9.64665 15.9814 9.82053C15.9814 9.99441 16.0447 10.0813 16.1672 10.0813C16.2067 10.0813 16.2343 10.0814 16.2541 10.0734C16.266 10.0221 16.2541 9.94699 16.2225 9.85215C16.1869 9.75336 16.1711 9.69012 16.1711 9.6585C16.1711 9.60318 16.1948 9.54785 16.2383 9.49648C16.2936 9.61108 16.3371 9.70592 16.3648 9.78101C16.3924 9.85609 16.4082 9.93908 16.4082 10.026C16.4082 10.113 16.3924 10.188 16.3608 10.2434L16.345 10.2473ZM20.2336 12.571C20.2336 12.3497 20.1466 11.8043 19.9767 10.9389C19.8068 10.0734 19.7198 9.48858 19.7198 9.1843C19.7198 9.0776 19.7277 8.9867 19.7475 8.90767L20.0123 9.35422C20.0123 8.99856 19.9016 8.55595 19.6803 8.02641C19.5657 7.7814 19.455 7.52849 19.3484 7.27558C19.2851 7.38227 19.2219 7.49293 19.1547 7.60358C19.0875 7.71423 19.0559 7.81698 19.0559 7.91182C19.0559 7.97505 19.0757 8.03432 19.1112 8.0936C19.1824 8.6508 19.2654 9.24752 19.3681 9.8798C19.4709 10.516 19.5697 11.1128 19.6684 11.6739C19.7672 12.2351 19.87 12.8081 19.9767 13.3969C19.8897 13.4799 19.787 13.5471 19.6763 13.6063C19.5657 13.6617 19.455 13.717 19.3484 13.7684C19.2535 13.7921 19.1666 13.8118 19.0875 13.8197C19.0085 13.8276 18.9295 13.8355 18.8465 13.8355C18.7121 13.8355 18.5936 13.8158 18.4829 13.7723C18.3723 13.7328 18.2853 13.6617 18.2221 13.5668C18.1668 13.5036 18.1352 13.4206 18.1352 13.3218C18.1352 13.2783 18.151 13.1954 18.1786 13.0808C18.2063 12.9622 18.2142 12.8753 18.2023 12.8199C18.151 12.8199 18.0601 12.8436 17.9257 12.8911C17.7913 12.9385 17.7123 12.9701 17.6807 12.982C17.1235 13.3376 16.6335 13.5984 16.2106 13.7684C15.6495 13.9976 15.1041 14.1082 14.5785 14.1082C14.1873 14.1082 13.8 14.0371 13.4207 13.8988C13.1875 13.7644 13.0018 13.5629 12.8714 13.2902C12.8002 13.1519 12.7212 12.899 12.6264 12.5315C12.575 11.9822 12.5315 11.4012 12.4999 10.7927C12.4643 10.1841 12.4327 9.57948 12.4011 8.98671C12.3497 8.33466 12.2865 7.76164 12.2114 7.25977L11.8992 7.87626C12.0336 8.73775 12.1284 9.53205 12.1917 10.2631C12.2549 10.9942 12.2865 11.7332 12.2865 12.488C12.2865 12.8555 12.3379 13.2033 12.4367 13.5352C12.5394 13.8672 12.6935 14.1596 12.903 14.4125C13.1361 14.5508 13.3772 14.6536 13.6183 14.7207C13.8633 14.7879 14.1162 14.8195 14.381 14.8195C14.8868 14.8195 15.444 14.697 16.0486 14.4481C16.5149 14.2584 17.0207 13.9936 17.5582 13.6498C17.6846 13.5668 17.7795 13.5273 17.8427 13.5273C17.898 13.5273 17.9376 13.551 17.9534 13.5984C17.9692 13.6459 17.9771 13.7249 17.9771 13.8316V13.9462C17.9771 14.0845 17.9929 14.1991 18.0245 14.294C18.0561 14.3848 18.1233 14.4402 18.2221 14.4599C18.3723 14.5232 18.5461 14.5548 18.7358 14.5548C19.0757 14.5548 19.3879 14.4718 19.6645 14.3098C19.8621 14.1319 20.0043 13.9264 20.0952 13.6933C20.1861 13.4601 20.2336 13.0847 20.2336 12.5749V12.571ZM16.2778 11.6028C16.2541 11.666 16.2343 11.7213 16.2225 11.7688C16.2106 11.8162 16.1751 11.8201 16.1197 11.7846C16.0684 11.7727 16.0328 11.7648 16.0051 11.7648C15.9854 11.7648 15.9459 11.7727 15.8826 11.7846C15.8194 11.8676 15.7799 11.9822 15.7601 12.1363C15.6969 12.5591 15.6613 12.7804 15.6574 12.8002C15.5942 12.7567 15.527 12.6263 15.4598 12.4129C15.3887 12.1995 15.2978 12.0889 15.1832 12.0889C15.1713 12.0889 15.1397 12.0968 15.0883 12.1086C15.0449 12.0651 15.0211 12.0177 15.0211 11.9663C15.0211 11.9347 15.0409 11.8715 15.0765 11.7767C15.0962 11.7253 15.1081 11.6897 15.1199 11.6621C15.1278 11.6384 15.1753 11.6225 15.2583 11.6225C15.3294 11.7174 15.3966 11.8359 15.4677 11.9743C15.4914 12.0177 15.5507 12.1481 15.6376 12.3615C15.6376 12.1718 15.6653 11.998 15.7167 11.8399C15.772 11.6818 15.8589 11.5593 15.9854 11.4684C16.0407 11.4487 16.096 11.4526 16.1514 11.4842C16.2067 11.5119 16.2462 11.5514 16.2778 11.6028ZM14.0016 11.0733C13.9621 11.5079 13.8158 11.911 13.555 12.2785C13.6933 12.0138 13.7842 11.7925 13.8317 11.6146C13.8751 11.4368 13.8988 11.259 13.8988 11.0733C13.8988 10.9033 13.8712 10.7334 13.8119 10.5595C13.7368 10.4212 13.6617 10.2829 13.5945 10.1406C13.5945 10.0972 13.6222 10.0458 13.6815 9.99045C13.8 10.0853 13.887 10.1999 13.9423 10.3303C13.9976 10.4647 14.0213 10.6227 14.0213 10.8045C14.0213 10.9231 14.0134 11.014 14.0016 11.0693V11.0733ZM10.4647 7.80907C10.4884 7.89206 10.4647 7.96318 10.3975 8.02641C10.3738 8.02641 10.3343 8.01457 10.2829 7.98691C10.2316 7.96319 10.196 7.94738 10.1683 7.94738C10.1407 7.94738 10.113 7.95529 10.0814 7.97505C10.03 8.06989 9.99052 8.21215 9.9589 8.40184C9.88777 8.82073 9.84035 9.06574 9.80873 9.14082C9.75736 9.09735 9.67437 8.90766 9.55187 8.57176C9.46493 8.32675 9.31871 8.21216 9.11717 8.23191C9.06185 8.2082 9.03023 8.16868 9.03023 8.11731C9.03023 8.08569 9.04604 8.03432 9.0737 7.96714C9.10136 7.89601 9.11717 7.85254 9.11717 7.83278C9.14879 7.78141 9.1883 7.75769 9.23968 7.75769C9.29105 7.75769 9.32662 7.78141 9.34242 7.83278C9.45702 7.93948 9.55582 8.1015 9.63485 8.31094C9.71784 8.52434 9.76922 8.6429 9.78502 8.67451C9.81664 8.49273 9.8522 8.30699 9.88777 8.12521C9.94309 7.91576 10.0419 7.7735 10.1802 7.69842C10.2316 7.68656 10.2829 7.69051 10.3304 7.71817C10.3501 7.72608 10.3896 7.75374 10.4529 7.80511L10.4647 7.80907ZM7.86445 8.38603C7.88421 8.46111 7.87631 8.5441 7.84469 8.63104C7.81308 8.71798 7.76566 8.79307 7.70243 8.84839C7.61944 8.86025 7.56017 8.82864 7.52065 8.75355C7.48113 8.67847 7.44952 8.60338 7.4179 8.52434C7.4179 8.25167 7.48508 8.00271 7.61549 7.77351C7.59573 7.83673 7.57597 7.90787 7.56017 7.98295C7.54041 8.05803 7.5325 8.12917 7.5325 8.19239C7.5325 8.36232 7.58783 8.49273 7.70243 8.57967C7.7459 8.57177 7.77751 8.5441 7.79332 8.48878C7.80913 8.43345 7.83284 8.39789 7.86445 8.37813V8.38603ZM10.0458 11.0219C10.0221 11.1049 9.99447 11.1918 9.97076 11.2827C9.94705 11.3736 9.89962 11.4408 9.82849 11.4882C9.75736 11.4487 9.70994 11.3933 9.68228 11.3183C9.65461 11.2432 9.63881 11.1523 9.63881 11.0535C9.63881 10.9665 9.64671 10.8836 9.65857 10.8124C9.67042 10.7413 9.68228 10.686 9.68623 10.6465L9.82849 10.3066C9.79688 10.4884 9.76922 10.6702 9.74155 10.848C9.74155 10.9863 9.78502 11.1088 9.87591 11.2195C9.90753 11.2076 9.93519 11.172 9.96285 11.1167C9.98656 11.0614 10.0182 11.0298 10.0498 11.0298L10.0458 11.0219ZM6.1968 8.08964C6.14543 8.05013 6.10986 8.02246 6.0822 8.0027C6.03082 7.96319 5.98735 7.96319 5.94784 8.0027C5.87275 8.1094 5.82138 8.30304 5.78976 8.58757C5.75815 8.8721 5.71863 9.06179 5.66331 9.16059C5.75815 9.24357 5.85695 9.3226 5.95574 9.39768C6.07034 9.51229 6.12172 9.62293 6.10591 9.72963C6.05058 9.76915 5.89251 9.80077 5.63169 9.82843C5.37088 9.85609 5.2049 9.93908 5.12982 10.0695C5.16933 10.2394 5.24837 10.5516 5.36692 10.9982C5.55661 11.7016 5.65145 12.239 5.65145 12.6184C5.65145 12.8278 5.62774 13.0215 5.58427 13.2033C5.5408 13.385 5.46177 13.5668 5.34716 13.7486C5.47362 13.4562 5.53685 13.1716 5.53685 12.895C5.53685 12.4761 5.44991 11.9505 5.27208 11.3103C5.18514 11.0061 5.09425 10.7018 5.00731 10.4014C5.01917 10.2434 5.03497 10.1209 5.05473 10.03C5.07449 9.94303 5.11006 9.8561 5.15748 9.77311C5.22071 9.70198 5.30765 9.65456 5.41435 9.62689C5.52104 9.59923 5.62774 9.57156 5.72654 9.54785C5.68702 9.49253 5.64355 9.45696 5.59218 9.44906C5.5408 9.44116 5.46967 9.43325 5.37483 9.43325L5.27208 9.55577C5.22861 9.4214 5.27208 9.29494 5.41435 9.16849H5.60403C5.50128 8.92348 5.42225 8.73378 5.36692 8.60733C5.26023 8.37417 5.11401 8.25562 4.93223 8.25562C4.8769 8.20425 4.84529 8.14102 4.84529 8.06593C4.84529 8.01456 4.86109 7.94343 4.89271 7.84859C4.92432 7.75375 4.94013 7.70237 4.94013 7.69842C5.11006 7.78536 5.26813 7.9869 5.41435 8.29514C5.51709 8.50854 5.58822 8.6508 5.63169 8.71403C5.67121 8.51249 5.71073 8.31095 5.7542 8.10545C5.82533 7.8723 5.95574 7.74584 6.15333 7.72609C6.21656 7.7498 6.24817 7.80512 6.24817 7.88811C6.24817 7.94344 6.22841 8.01062 6.19285 8.0857L6.1968 8.08964ZM10.9943 12.2904C10.931 12.3339 10.8836 12.4208 10.856 12.5512C10.8283 12.6816 10.8006 12.7607 10.7769 12.7923C10.7572 12.8634 10.769 12.9582 10.8085 13.0808C10.8481 13.2033 10.8718 13.2863 10.8718 13.3218C10.8718 13.393 10.8362 13.4483 10.769 13.4917C10.7453 13.4996 10.7058 13.5076 10.6584 13.5194C10.6109 13.5313 10.5359 13.5392 10.4371 13.5392C10.1842 13.5392 9.9589 13.468 9.76526 13.3218C9.76526 13.3021 9.79688 13.1914 9.86011 12.9899C9.87987 12.9266 9.88382 12.8594 9.87987 12.7923C9.82849 12.8318 9.77317 12.895 9.70994 12.9899C9.58348 13.1716 9.48469 13.2902 9.41751 13.3416C9.1883 13.5194 8.92353 13.6063 8.61925 13.6063C8.51255 13.6063 8.38214 13.5866 8.23592 13.551C8.08575 13.5115 7.98301 13.385 7.92768 13.1637C7.8447 12.8397 7.79332 12.6658 7.77751 12.6342L7.48508 13.1637L7.78937 14.4915C7.56017 14.7524 7.27564 14.9776 6.93578 15.1752C6.76981 15.2701 6.44971 15.4242 5.9676 15.6415C5.70283 15.7561 5.41435 15.847 5.10611 15.9221C4.79787 15.9932 4.49753 16.0327 4.213 16.0327C3.89686 16.0327 3.59652 15.9853 3.31199 15.8865C3.02746 15.7877 2.78641 15.6336 2.59277 15.4281C2.48607 15.2819 2.40703 15.1357 2.35961 14.9816C2.31219 14.8314 2.28848 14.6694 2.28848 14.4994C2.28848 14.3493 2.30824 14.1793 2.35171 13.9936C2.39123 13.8079 2.44655 13.634 2.50978 13.4759C2.30824 13.8751 2.16993 14.1991 2.10275 14.4481C2.03161 14.697 2 14.9262 2 15.1357C2 15.4123 2.06323 15.6771 2.18969 15.9221C2.41889 16.2698 2.75084 16.503 3.19344 16.6255C3.47797 16.7006 3.89686 16.7401 4.45406 16.7401C5.20095 16.6137 5.84509 16.4121 6.39044 16.1315C7.04643 15.7917 7.54436 15.3451 7.88026 14.7958C7.88026 14.4599 8.12527 14.2821 8.61134 14.2584C9.09741 14.2347 9.39775 14.1161 9.51235 13.9027C9.55582 13.9581 9.6151 14.0134 9.68623 14.0647C9.75736 14.1161 9.83244 14.1635 9.90753 14.207C10.034 14.2465 10.1604 14.2623 10.2869 14.2623C10.4134 14.2623 10.5398 14.2386 10.6702 14.1952C10.8006 14.1517 10.9073 14.0885 10.9864 14.0055C11.1207 13.7407 11.184 13.4443 11.184 13.1124C11.184 12.8081 11.1247 12.5354 11.0022 12.2983L10.9943 12.2904ZM3.3199 12.3299C3.29619 12.5947 3.25667 12.7962 3.2053 12.9266C3.12231 13.1558 2.9919 13.3139 2.80616 13.4088C2.71923 13.4167 2.63624 13.385 2.56115 13.3179C2.48607 13.2507 2.42284 13.1756 2.37147 13.0847C2.34776 12.9899 2.328 12.8792 2.31614 12.7567C2.30429 12.6342 2.29638 12.5156 2.29638 12.401C2.29638 11.9822 2.37937 11.5554 2.5414 11.1128C2.67576 10.7531 2.8773 10.3619 3.14997 9.93513C2.98004 10.3382 2.86149 10.6306 2.79826 10.8085C2.6639 11.1958 2.60067 11.5198 2.60067 11.7846C2.60067 11.9664 2.62438 12.1323 2.66785 12.2746C2.71132 12.4169 2.79431 12.5591 2.91286 12.6974C3.01561 12.6895 3.11045 12.6263 3.19739 12.5078C3.25272 12.4208 3.29619 12.3576 3.3199 12.326V12.3299Z" fill="white"/>
</svg>
