<svg width="24" height="24" viewBox="0 0 24 24" fill="none" xmlns="http://www.w3.org/2000/svg">
<path fill-rule="evenodd" clip-rule="evenodd" d="M22 9.43987C21.938 9.41661 21.8721 9.35848 21.7984 9.2732C21.7287 9.18793 21.6744 9.12204 21.6434 9.07941L21.531 9.19956L21.8178 13.0058C21.8178 13.2461 21.7946 13.4825 21.7442 13.7112C21.7326 13.7732 21.624 14.1375 21.4186 14.8003H21.3721C21.4264 14.653 21.469 14.4825 21.4961 14.2887C21.5233 14.0949 21.5388 13.8972 21.5388 13.6918C21.5388 13.5135 21.531 13.3546 21.5194 13.2189C21.5078 13.0833 21.4961 12.9709 21.4922 12.8856L21.1008 8.40111C21.0775 8.35072 21.062 8.30033 21.062 8.2422C21.062 8.14917 21.0969 8.05227 21.1628 7.95537C21.2326 7.8546 21.2985 7.76157 21.3682 7.6763C21.438 7.90111 21.5116 8.12204 21.593 8.34685C21.8411 9.01739 21.9729 9.38173 21.9922 9.44374L22 9.43987ZM17.1357 7.83134L17.0698 7.9515C16.8915 8.06778 16.6744 8.18406 16.4186 8.29646C16.0349 8.46313 15.6512 8.62979 15.2752 8.78871C15.3178 8.73832 15.3605 8.69181 15.407 8.64917C15.4767 8.58716 15.5233 8.54452 15.5543 8.51739C15.7403 8.3856 15.9961 8.26157 16.3256 8.13754C16.8101 7.95925 17.0775 7.8546 17.1357 7.83134ZM18.4922 11.6182C18.4922 11.7344 18.4729 11.8275 18.438 11.8895C18.3992 11.9515 18.3488 11.9903 18.2791 12.0019C18.2248 12.0213 18.1744 12.0174 18.1318 11.9941C18.0891 11.9709 18.062 11.9282 18.0465 11.874C18.0465 11.5406 18.124 11.2616 18.2791 11.0368C18.2287 11.2112 18.1822 11.3817 18.1395 11.5484C18.1395 11.6337 18.1744 11.7112 18.2403 11.7732C18.2907 11.7965 18.3411 11.7887 18.3876 11.7461C18.438 11.6841 18.4729 11.6453 18.4884 11.6259L18.4922 11.6182ZM19.8411 11.405C19.8217 11.2383 19.7442 10.8081 19.6085 10.1104C19.5078 9.60653 19.4612 9.18793 19.4612 8.84685L19.8411 9.3391C19.8178 9.09103 19.7364 8.81196 19.6008 8.50188C19.4651 8.19181 19.3333 7.89723 19.2093 7.61816C19.124 7.69181 19.0581 7.78095 19.0194 7.88173C18.9806 7.9825 18.9419 8.11816 18.9031 8.28483C19.0039 8.76933 19.1047 9.26933 19.2093 9.78096C19.314 10.2965 19.407 10.7887 19.4845 11.2655C19.562 11.7383 19.624 12.1996 19.6667 12.6453C19.4806 12.812 19.2791 12.9399 19.062 13.0329C18.845 13.122 18.6202 13.1685 18.3915 13.1685C18.2558 13.1685 18.1357 13.1569 18.0271 13.1298C17.9147 13.0561 17.1938 12.5019 15.8605 11.4748C15.3837 11.1104 14.9457 10.8081 14.5504 10.5717C15.1705 10.1802 15.7519 9.85847 16.2907 9.60266C16.9419 9.30033 17.5698 9.07553 18.1783 8.93212C18.2636 8.93987 18.314 8.99801 18.3256 9.11041C18.2403 9.33522 18.0388 9.65693 17.7248 10.0794C17.4109 10.5019 17.2132 10.8391 17.1357 11.0949C17.4574 10.7034 17.6667 10.4515 17.7597 10.3313C17.9225 10.1259 18.0349 9.97088 18.1047 9.86623C18.2054 9.66855 18.3062 9.46312 18.407 9.24607C18.5078 9.03289 18.562 8.83522 18.562 8.65692C18.562 8.54064 18.5388 8.43212 18.4961 8.33909C18.4651 8.33134 18.4186 8.33134 18.3566 8.33134C18.1512 8.33134 17.8798 8.39723 17.5388 8.52514C17.3217 8.60653 17.1667 8.6608 17.0736 8.69181C16.5969 8.90111 16.1202 9.11429 15.6512 9.32359C15.0853 9.58328 14.6667 9.87785 14.3876 10.2073C14.345 9.79646 14.3023 9.3701 14.2558 8.92824C14.2132 8.48638 14.1705 8.09878 14.124 7.76933C14.0736 7.80033 14.031 7.8546 13.9884 7.93599C13.9496 8.01739 13.8992 8.13754 13.845 8.30033C13.9496 9.18018 14.0581 10.0872 14.1705 11.0213C14.2829 11.9554 14.3372 12.8158 14.3372 13.6027C14.3566 13.8507 14.4147 14.0755 14.5155 14.2771C14.6163 14.4786 14.7674 14.622 14.9729 14.7112C15.0581 14.7228 15.1202 14.7306 15.1589 14.7306C15.345 14.7306 15.5388 14.6802 15.7442 14.5833C15.876 14.5213 16.0465 14.4166 16.2558 14.2654C16.4419 14.1608 16.5969 13.9941 16.7209 13.7732C16.814 13.5794 16.907 13.3856 17 13.1879C17.2093 13.3507 17.376 13.4709 17.4922 13.5523C17.6783 13.6763 17.8527 13.7693 18.0116 13.8313C18.0969 13.8507 18.1822 13.8585 18.2636 13.8585C18.438 13.8585 18.6202 13.8236 18.814 13.7577C18.9457 13.7151 19.1047 13.6414 19.2985 13.5445C19.5233 13.4127 19.6822 13.2151 19.7829 12.9476C19.8643 12.7306 19.9031 12.4631 19.9031 12.1492C19.9031 12.0368 19.9031 11.9321 19.8953 11.8391C19.8876 11.7422 19.8721 11.5988 19.8488 11.405H19.8411ZM13.3023 8.59491C13.3333 8.73057 13.2868 8.86623 13.1628 9.00576C13.1318 9.01351 13.1047 9.00576 13.0775 8.98638C13.0233 8.91661 12.9845 8.8701 12.9651 8.84685C12.9457 8.77708 12.938 8.71506 12.938 8.65305C12.938 8.53677 12.9612 8.41661 13.0116 8.30033C13.0426 8.22669 13.1008 8.12204 13.1899 7.99413C13.1473 8.11816 13.1124 8.22281 13.0891 8.31196C13.0659 8.39723 13.0504 8.46312 13.0504 8.50576C13.0504 8.59878 13.0891 8.68018 13.1628 8.74607C13.2016 8.75382 13.2326 8.73057 13.2558 8.68018C13.2791 8.62979 13.2946 8.60266 13.3023 8.59491ZM18.0271 15.1259C18.0039 15.2306 17.9729 15.3197 17.9419 15.3856C17.9109 15.4554 17.8566 15.5096 17.7829 15.5523C17.6667 15.5717 17.5969 15.5406 17.5814 15.4631C17.5659 15.3856 17.5581 15.3197 17.5581 15.2616C17.5581 15.1298 17.593 14.9864 17.6589 14.8236C17.7209 14.7073 17.7597 14.622 17.7791 14.5717C17.7713 14.6143 17.7558 14.6996 17.7287 14.8275C17.7015 14.9554 17.686 15.0329 17.686 15.0639C17.686 15.1647 17.7171 15.2461 17.7791 15.3158C17.8488 15.3352 17.8953 15.3081 17.9225 15.2383C17.9496 15.1686 17.9845 15.1298 18.0194 15.122L18.0271 15.1259ZM12.2132 9.47863L11.907 10.0174C11.8837 9.98638 11.7752 9.91661 11.5814 9.80421C11.4496 9.72282 11.3876 9.63367 11.3876 9.53289L11.686 9.06002C11.8217 9.11041 11.9302 9.1608 12.0116 9.21894C12.1279 9.30034 12.1977 9.38561 12.2171 9.47863H12.2132ZM11.6085 7.8701C11.5853 7.7887 11.531 7.73832 11.4496 7.71119C11.3256 7.7422 11.2209 7.80421 11.1395 7.90111C11.0543 7.99801 11 8.11041 10.969 8.2422C10.9922 8.29646 11.0543 8.35072 11.1512 8.40111C11.2481 8.4515 11.3062 8.48638 11.3333 8.51351C11.1395 8.78095 10.8953 9.06002 10.5969 9.35072C10.5349 9.41274 10.2674 9.65692 9.79845 10.0872C10.1008 9.90111 10.3992 9.67243 10.6899 9.39723C10.9806 9.12591 11.2248 8.8391 11.4264 8.54065C11.4496 8.54065 11.4806 8.55227 11.5116 8.57165C11.5426 8.5949 11.5659 8.59491 11.5853 8.57553C11.6279 8.50576 11.6512 8.45537 11.6512 8.41661C11.6512 8.3546 11.6124 8.31196 11.531 8.28483C11.5698 8.23444 11.593 8.19181 11.6008 8.14917C11.6085 8.11041 11.6163 8.05227 11.6163 7.97863V7.86623L11.6085 7.8701ZM9.30233 8.57553C9.34109 8.69181 9.31395 8.81196 9.22868 8.92824C9.18992 8.97088 9.15116 8.99413 9.10853 8.99413C9.08527 8.99413 9.03876 8.97475 8.97674 8.93987C8.89535 8.86623 8.85659 8.7577 8.85659 8.61429V8.50188C8.86822 8.4515 8.87597 8.41662 8.87597 8.40111L9.15504 7.8701C9.08527 8.07553 9.02326 8.28095 8.96124 8.4825C8.96124 8.58715 9.00775 8.6763 9.10078 8.74219C9.15116 8.74994 9.18992 8.73444 9.22093 8.69956C9.25194 8.66467 9.27907 8.62204 9.3062 8.57553H9.30233ZM10.8101 11.06C10.7984 11.1724 10.7829 11.2616 10.7636 11.3236C10.7442 11.3895 10.7093 11.4476 10.6512 11.5058C10.5194 11.5058 10.438 11.4476 10.3992 11.3275C10.3915 11.3042 10.3915 11.2655 10.3915 11.2151C10.3915 11.0678 10.438 10.8934 10.531 10.6957C10.5814 10.5949 10.6318 10.4941 10.6783 10.3895C10.6163 10.5949 10.5581 10.7965 10.5 10.9941C10.5 11.0561 10.5078 11.1027 10.5194 11.1375C10.531 11.1724 10.5698 11.2151 10.6318 11.2616C10.6705 11.2538 10.7016 11.2228 10.7287 11.1647C10.7558 11.1065 10.7829 11.0717 10.8062 11.0561L10.8101 11.06ZM14.0659 15.3468C14.0736 15.3972 14.0581 15.4592 14.0271 15.5329C13.9961 15.6065 13.9574 15.6763 13.907 15.7383C13.8527 15.7383 13.8062 15.7151 13.7752 15.6724C13.7442 15.6298 13.7171 15.5717 13.6899 15.5058C13.7093 15.3197 13.7442 15.153 13.7984 15.0019C13.8527 14.8546 13.9264 14.7112 14.0271 14.5755C13.9457 14.7538 13.9031 14.8546 13.8953 14.874C13.845 15.0058 13.8217 15.1182 13.8217 15.2189C13.8217 15.3197 13.8488 15.4127 13.907 15.5058C13.9496 15.5135 13.9845 15.4903 14.0039 15.4399C14.0271 15.3895 14.0465 15.3585 14.0659 15.3468ZM13.4419 14.6414C13.4535 14.6918 13.4419 14.7422 13.3992 14.8003C13.3605 14.8546 13.3062 14.8934 13.2442 14.9127C12.9264 15.0484 12.6047 15.1918 12.2752 15.3352C11.9457 15.4825 11.6473 15.6453 11.3721 15.8313C11.3721 15.7499 11.4031 15.6685 11.4612 15.591C11.5194 15.5096 11.593 15.4554 11.6783 15.4244L13.438 14.6414H13.4419ZM6.1938 8.02902L6.15504 8.2422C6.13178 8.2422 6.07364 8.21119 5.98837 8.14917C5.94574 8.11816 5.9031 8.10266 5.86822 8.10266C5.82558 8.42049 5.78295 8.73057 5.73643 9.04064C5.70543 9.00964 5.60853 8.86235 5.44961 8.59491C5.33333 8.39724 5.19767 8.28483 5.05039 8.26158C5.05814 8.17631 5.06589 8.10266 5.07364 8.04452C5.0814 7.98638 5.12015 7.93987 5.18992 7.90886C5.29457 7.97863 5.39147 8.09103 5.47674 8.25382C5.54651 8.38948 5.61628 8.52514 5.68992 8.65305C5.7093 8.51739 5.73256 8.37786 5.75969 8.23832C5.78682 8.09879 5.82946 7.97476 5.88372 7.86235C5.93798 7.85072 5.9845 7.85072 6.01938 7.86623C6.05426 7.88173 6.1124 7.93599 6.18992 8.02902H6.1938ZM13.124 12.0678C13.0078 11.7577 12.8527 11.5019 12.6667 11.3042C12.4302 11.0561 12.1667 10.9321 11.876 10.9321C11.6473 11.0949 11.4729 11.2965 11.3488 11.5445C11.2287 11.7926 11.1667 12.0484 11.1667 12.3158C11.2287 12.4903 11.3372 12.6027 11.4922 12.6608C11.5969 12.6996 11.7636 12.7151 11.9845 12.7151H12.1318C12.3566 12.7151 12.5271 12.7383 12.6473 12.7848C12.7674 12.8313 12.8488 12.9399 12.8837 13.1143C12.6899 13.2151 12.3372 13.374 11.8217 13.5988C11.0543 13.9321 10.4884 14.2422 10.1279 14.5213C9.99225 14.6143 9.76744 14.8275 9.45736 15.1647C8.98062 15.6841 8.56589 15.9476 8.22093 15.9476H8.1124C8.07752 15.9476 8.04264 15.9399 8.00388 15.9282C7.93023 15.8779 7.87985 15.8236 7.84884 15.7616C7.82171 15.6996 7.8062 15.6298 7.8062 15.5561C7.86822 15.3003 7.93411 15.0523 8 14.8042C8.27132 14.6414 8.55039 14.4786 8.82946 14.312C9.40698 13.9631 9.74031 13.5755 9.83333 13.1414C9.91473 12.998 9.95349 12.8391 9.95349 12.6569C9.95349 12.5096 9.93023 12.3546 9.87985 12.1957C9.82946 12.0368 9.76744 11.8779 9.6938 11.7151C9.59302 11.5716 9.5 11.4631 9.40698 11.3895C9.27519 11.2887 9.14341 11.2422 9.00775 11.2422C8.94574 11.2422 8.89535 11.2499 8.86046 11.2616C8.69767 11.405 8.56977 11.5755 8.47287 11.7771C8.37597 11.9786 8.29845 12.2073 8.23643 12.4593C8.28682 12.7616 8.5 12.9282 8.88372 12.9515C9.26357 12.9748 9.5 13.0058 9.58527 13.0445C9.60465 13.0639 9.6124 13.0872 9.6124 13.1182C9.6124 13.1802 9.58527 13.2461 9.52713 13.312C8.81395 13.7965 7.96899 14.281 6.98837 14.7732C6.1124 15.1841 5.24419 15.5949 4.37597 16.0096C4.91085 15.8972 5.32171 15.8042 5.6124 15.7306C6.07752 15.6143 6.48062 15.4941 6.82171 15.3779C7.24419 15.2306 7.62016 15.06 7.94574 14.874C7.84109 15.1453 7.78295 15.3042 7.76744 15.3468C7.71318 15.5251 7.68217 15.6957 7.68217 15.8585C7.68217 15.8817 7.68217 15.9282 7.68992 15.9903C7.71318 16.0717 7.76357 16.1375 7.83333 16.1957C7.9031 16.2499 7.97674 16.3042 8.05039 16.3546C8.12403 16.374 8.19767 16.3817 8.27519 16.3817C8.61628 16.3817 9.03101 16.1375 9.52326 15.6453C9.84109 15.3275 10.0659 15.1259 10.2016 15.0329C11.0775 14.5872 11.9496 14.1375 12.8256 13.6841C12.8643 13.5988 12.9264 13.4592 13.0194 13.2654C13.1434 12.9748 13.2054 12.7306 13.2054 12.529C13.2054 12.3623 13.1705 12.2073 13.1047 12.0639L13.124 12.0678ZM5.2093 9.71506C5.15892 9.92437 5.12791 10.0484 5.11628 10.0794C5.06589 10.2151 5 10.3081 4.91085 10.3585C4.8876 10.2887 4.79457 10.2228 4.63178 10.153C4.46899 10.0833 4.40698 9.99025 4.44574 9.87398L4.69767 9.38948C4.78295 9.43211 4.87209 9.47863 4.96124 9.52514C5.05039 9.57165 5.13178 9.63367 5.2093 9.71506ZM3.04264 10.7771C3.0814 10.8507 3.0969 10.9437 3.0969 11.0561C3.0969 11.1879 3.06977 11.3275 3.01163 11.4825C2.96124 11.5949 2.92636 11.6724 2.91085 11.7151C2.82558 11.7693 2.74031 11.8003 2.65891 11.8003C2.58915 11.8003 2.53876 11.7848 2.5 11.7538C2.39535 11.6182 2.31395 11.467 2.26357 11.2965C2.2093 11.1298 2.18605 10.9631 2.18605 10.7926C2.18605 10.4903 2.26744 10.1337 2.42636 9.73057C2.48062 9.58328 2.63566 9.25382 2.89147 8.74607C2.91473 8.72282 2.94186 8.70731 2.96512 8.70731C2.78682 9.2732 2.60853 9.83522 2.43411 10.4011C2.43411 10.6724 2.53488 10.9127 2.74031 11.1182C2.83333 11.0988 2.89535 11.0794 2.92636 11.0561C2.95736 11.0329 2.97674 11.0019 2.98062 10.9592C2.98062 10.8895 3 10.8275 3.03488 10.7732L3.04264 10.7771ZM5.11628 11.8391L5.06977 12.0523C5.03101 12.0445 4.98062 12.0213 4.91473 11.9786C4.84884 11.936 4.79845 11.9127 4.75969 11.9127C4.73643 11.967 4.68605 12.1841 4.6124 12.5639C4.5814 12.7189 4.53876 12.8391 4.48062 12.9282C4.45736 12.905 4.40698 12.7926 4.33721 12.5988C4.26744 12.405 4.17442 12.3042 4.06202 12.3042C4.04264 12.3042 4.00775 12.312 3.96124 12.3236C3.91085 12.2926 3.8876 12.2422 3.8876 12.1763C3.8876 12.153 3.89535 12.1065 3.90698 12.0445C3.9186 11.9825 3.92636 11.9399 3.92636 11.9127C3.98837 11.8507 4.03488 11.8275 4.06589 11.8391C4.18217 11.9244 4.27519 12.0445 4.33721 12.1957C4.39922 12.3468 4.46124 12.4941 4.52326 12.6375C4.56202 12.3779 4.58915 12.1841 4.60853 12.06C4.65116 11.8313 4.75581 11.7034 4.91473 11.6802C4.9845 11.7344 5.05039 11.7887 5.12015 11.8391H5.11628ZM7.72868 11.2732C7.68605 11.2732 7.64341 11.2461 7.5969 11.1879C7.55426 11.1337 7.51163 11.1027 7.47674 11.1027C7.44574 11.1647 7.43023 11.2383 7.43023 11.3275C7.43023 11.4089 7.47674 11.5794 7.56977 11.8391C7.62016 11.9825 7.64341 12.091 7.64341 12.1647C7.64341 12.6182 7.55426 13.0096 7.37209 13.3468C7.17442 13.7112 6.88372 13.9748 6.50775 14.1375C5.86822 14.5213 5.32171 14.7887 4.87209 14.936C4.48062 15.0678 4.12016 15.1298 3.78295 15.1298C3.55426 15.1298 3.34496 15.1065 3.15504 15.06C2.96512 15.0135 2.76744 14.9321 2.56589 14.812C2.18605 14.5213 2 14.1375 2 13.6569C2 13.5755 2 13.5135 2.00775 13.4709C2.09302 13.091 2.16279 12.812 2.21318 12.6259C2.29845 12.3042 2.40698 12.0406 2.53876 11.8352C2.53101 11.8662 2.4845 12.0251 2.39922 12.3081C2.29457 12.6608 2.24031 12.9476 2.24031 13.1647C2.24031 13.2965 2.25581 13.4166 2.28682 13.5329C2.31783 13.6492 2.37209 13.7577 2.45349 13.8624C2.62016 14.0678 2.81783 14.2189 3.03876 14.3236C3.25969 14.4282 3.51163 14.4786 3.78295 14.4786H3.94186C3.9845 14.4709 4.0155 14.4709 4.03488 14.4709C4.63178 14.4011 5.22093 14.2189 5.81008 13.9205C6.27519 13.6802 6.80233 13.3275 7.39147 12.8701C7.23643 12.2306 7.08527 11.591 6.93411 10.9437C6.93411 10.8003 6.94961 10.6724 6.9845 10.5523C7.01938 10.436 7.07752 10.3158 7.15504 10.1996C7.31008 10.405 7.42636 10.5561 7.50775 10.6569C7.65504 10.8507 7.73256 11.0251 7.73256 11.1879C7.72481 11.2267 7.72481 11.2538 7.72481 11.2732H7.72868ZM11.4225 8.24995L11.2829 8.18018C11.2287 8.15305 11.1822 8.12592 11.1512 8.10266C11.2054 8.02126 11.2674 7.98251 11.3372 7.98251C11.3798 7.98251 11.407 8.00964 11.4225 8.06778V8.25382V8.24995ZM16.6589 13.2267C16.4535 13.467 16.2442 13.653 16.0271 13.7848C15.7674 13.9399 15.5 14.0174 15.2287 14.0174C15.1473 14.0174 15.0853 14.0174 15.0426 14.0096C14.7015 13.7383 14.5271 13.2616 14.5155 12.5872C14.5078 11.9127 14.4922 11.5135 14.4729 11.3972C15.2674 11.9127 15.6667 12.1724 15.6744 12.1802C16.1202 12.5096 16.4496 12.8585 16.6589 13.2306V13.2267ZM12.4264 12.0368C12.4031 12.0368 12.3605 12.0445 12.3062 12.0561H12.1744C12.031 12.0561 11.907 12.0368 11.7984 11.9941C11.6899 11.9554 11.6047 11.8817 11.5426 11.7771C11.5543 11.7577 11.5775 11.7228 11.6085 11.6647C11.6395 11.6259 11.6744 11.6104 11.7093 11.6104C11.9767 11.6492 12.2132 11.7887 12.4264 12.0368ZM9.30233 12.2693H9.14341C9.03876 12.2693 8.94186 12.2538 8.86046 12.2267C8.77907 12.1996 8.71705 12.1492 8.67829 12.0717C8.67829 11.9864 8.71318 11.9321 8.77907 11.9127C8.89535 11.9127 9.00388 11.9515 9.0969 12.0251C9.16667 12.0794 9.23256 12.1608 9.30233 12.2655V12.2693Z" fill="white"/>
</svg>
