<svg width="24" height="24" viewBox="0 0 24 24" fill="none" xmlns="http://www.w3.org/2000/svg">
<path fill-rule="evenodd" clip-rule="evenodd" d="M22 9.67485C21.9766 9.65537 21.8987 9.5619 21.7741 9.39442C21.6806 9.26978 21.6066 9.21916 21.5482 9.24642L21.7157 13.3516C21.7157 13.7021 21.6728 14.0371 21.591 14.3564C21.5054 14.6758 21.3885 14.9796 21.2327 15.2678C21.2872 15.0419 21.3262 14.7888 21.3496 14.5045C21.3729 14.2201 21.3807 13.9124 21.3807 13.5736V12.9855L21.1548 8.87251C21.112 8.74788 21.0886 8.62325 21.0886 8.49861C21.0886 8.22597 21.1938 7.9767 21.408 7.75859C21.7196 8.3506 21.9143 8.98936 21.9961 9.67485H22ZM17.4742 7.98449C17.4742 8.02344 17.4625 8.06239 17.4352 8.10523C17.3924 8.17534 17.369 8.21039 17.369 8.21818C17.3379 8.18702 17.2989 8.17144 17.2561 8.17144C17.2327 8.17144 17.2016 8.17923 17.1704 8.19871C17.0691 8.29997 17.0068 8.48303 16.9796 8.75567C16.9523 9.0283 16.9056 9.21137 16.8432 9.31263C16.7887 9.25031 16.7069 9.08673 16.6018 8.81798C16.5511 8.68556 16.5005 8.58819 16.4421 8.51808C16.4343 8.56871 16.3992 8.59208 16.3291 8.59208C16.2785 8.59208 16.2356 8.5804 16.1967 8.55314C16.1577 8.51419 16.1422 8.46745 16.1422 8.40513C16.1422 8.37397 16.15 8.33113 16.1655 8.2805C16.1811 8.22597 16.1928 8.18702 16.1967 8.15586C16.2201 8.10523 16.2629 8.08186 16.3174 8.08186C16.3564 8.08186 16.3875 8.09355 16.4109 8.12081C16.4927 8.18313 16.5667 8.2805 16.629 8.41682C16.6952 8.54924 16.7653 8.69725 16.8393 8.86083C16.9133 8.54145 16.964 8.3545 16.9873 8.29997C17.073 8.08186 17.1977 7.97281 17.3535 7.97281C17.3768 7.97281 17.4158 7.9806 17.4664 7.99228L17.4742 7.98449ZM16.9873 10.2279C16.964 10.298 16.925 10.3681 16.8783 10.4382C16.8315 10.5083 16.7381 10.6408 16.594 10.8355C16.3875 10.668 16.1811 10.5006 15.9786 10.3292C15.9163 10.3837 15.8539 10.4772 15.7916 10.6057C15.7293 10.7342 15.6631 10.8238 15.5969 10.8706C15.3671 10.7771 15.223 10.7148 15.1685 10.6836C15.075 10.6291 15.0166 10.5668 14.9893 10.4967C15.0127 10.4772 15.0828 10.3798 15.1957 10.2084C15.2814 10.076 15.3671 10.0137 15.4489 10.0137C15.4917 10.0137 15.5424 10.0293 15.6047 10.0643C15.6631 10.0994 15.7332 10.1383 15.815 10.1851C15.8968 10.2318 15.9591 10.2863 16.0019 10.3487L16.5161 9.80728L16.9912 10.2279H16.9873ZM14.2687 9.94749C14.2181 9.99812 14.1558 10.0215 14.0818 10.0215C14.0273 10.0215 13.9766 10.0059 13.9377 9.97086C13.8987 9.93581 13.8676 9.92412 13.8481 9.92802C13.8169 9.98254 13.7702 10.0449 13.7079 10.1072C13.6689 10.1461 13.6339 10.1695 13.5949 10.1812C13.5093 10.2045 13.4275 10.189 13.3535 10.1344C13.3145 10.1033 13.2833 10.0643 13.26 10.0137C13.2522 9.97476 13.2522 9.92022 13.2522 9.84622C13.2522 9.58916 13.3106 9.36326 13.4314 9.16463C13.443 9.18799 13.4508 9.22695 13.4508 9.27758C13.4508 9.33211 13.4391 9.41 13.4197 9.51127C13.3963 9.61253 13.3885 9.67485 13.3885 9.69822C13.3885 9.81506 13.443 9.89296 13.556 9.93191C13.5988 9.92412 13.6378 9.90854 13.6728 9.88517C13.7079 9.8618 13.7507 9.81896 13.8092 9.76443C13.8169 9.74106 13.8169 9.70211 13.8169 9.65148C13.8169 9.60085 13.8169 9.55411 13.8092 9.50737C13.8014 9.46063 13.7975 9.41389 13.7897 9.36326C13.7897 9.32042 13.7975 9.28147 13.8092 9.25031C13.8208 9.21915 13.8481 9.19189 13.8948 9.16463C13.9143 9.21526 13.9221 9.26589 13.9221 9.32432C13.9143 9.41779 13.9143 9.4879 13.9143 9.53074C13.9143 9.58137 13.9221 9.62811 13.9338 9.67096C13.9455 9.7138 13.9883 9.74496 14.0662 9.76443H14.187C14.2181 9.75275 14.2337 9.72938 14.2337 9.69822C14.2337 9.65537 14.2181 9.58527 14.1908 9.49179C14.1636 9.39831 14.148 9.336 14.148 9.30484C14.148 9.23473 14.1753 9.17631 14.2337 9.12568C14.2649 9.19968 14.2921 9.27758 14.3116 9.35547C14.335 9.43337 14.3427 9.52685 14.3427 9.6398C14.3427 9.75275 14.3194 9.85401 14.2765 9.94749H14.2687ZM15.6436 12.6116C15.6436 12.7128 15.628 12.7985 15.593 12.8764C15.5579 12.9543 15.4995 13.0127 15.4099 13.0478C15.3554 13.0478 15.3087 13.0244 15.2775 12.9816C15.2463 12.9387 15.2191 12.8842 15.1918 12.8219C15.1918 12.6232 15.2191 12.4324 15.2775 12.2532C15.3165 12.1403 15.3866 11.9689 15.4917 11.7391C15.4372 11.9806 15.3788 12.226 15.3242 12.4674C15.3242 12.5414 15.3281 12.596 15.3398 12.631C15.3476 12.6661 15.371 12.7128 15.4099 12.7751C15.4606 12.8063 15.5034 12.7946 15.5424 12.7362C15.6047 12.6544 15.6397 12.6116 15.6436 12.6038V12.6116ZM11.184 8.53756C11.1957 8.58819 11.1918 8.63882 11.1685 8.69725C11.1451 8.75177 11.1178 8.81799 11.0789 8.89199C11.0049 8.94262 10.9309 8.96209 10.8647 8.9582C10.779 8.83356 10.7322 8.69725 10.7322 8.54535C10.7322 8.44408 10.7439 8.3584 10.7634 8.28439C10.7868 8.21039 10.8257 8.12081 10.8802 8.01176L11.0477 7.75859C11.0399 7.79754 11.0127 7.89101 10.9581 8.04291C10.9036 8.19481 10.8802 8.31945 10.8802 8.41292C10.8802 8.45577 10.8841 8.50251 10.8958 8.55314C10.9036 8.60377 10.9348 8.6583 10.9854 8.72061C11.036 8.72061 11.075 8.70114 11.1022 8.65829C11.1295 8.61935 11.1568 8.57651 11.1801 8.53366L11.184 8.53756ZM14.5492 10.7537C14.4674 10.8082 14.3817 10.8667 14.2921 10.9212C14.2025 10.9757 14.1091 11.0264 14.0156 11.0692C13.8481 11.151 13.6339 11.2328 13.369 11.3224C12.7264 11.5327 12.3564 11.6612 12.2551 11.7041C12.4031 11.5872 12.555 11.4859 12.703 11.4042C12.9406 11.2795 13.2444 11.1588 13.6183 11.038C13.9221 10.9446 14.2337 10.8472 14.5453 10.7498L14.5492 10.7537ZM16.8004 15.4003C16.8004 15.5989 16.7381 15.7859 16.6173 15.9572C16.4966 16.1286 16.3369 16.2727 16.1461 16.3935C16.1694 16.3428 16.2629 16.2338 16.4265 16.0663C16.5628 15.9222 16.6329 15.8014 16.6329 15.7002C16.6329 15.6184 16.6056 15.5483 16.5472 15.4859C16.4732 15.4937 16.4031 15.5327 16.3408 15.6067C16.3174 15.5561 16.3291 15.4976 16.3797 15.4353C16.4304 15.3691 16.4576 15.3302 16.4654 15.3185C16.5278 15.2795 16.5862 15.2639 16.6446 15.2639C16.7303 15.2639 16.7848 15.3107 16.8043 15.4042L16.8004 15.4003ZM13.0886 12.7829C13.0497 12.9076 13.0263 12.9816 13.0146 13.0088C12.9757 13.1023 12.9289 13.1685 12.8666 13.2036C12.8277 13.1958 12.7965 13.1763 12.7653 13.1374C12.7342 13.0984 12.7069 13.0517 12.6797 12.9894C12.6797 12.8219 12.7108 12.6622 12.7731 12.5142C12.8121 12.4285 12.89 12.2844 13.0068 12.0858C12.999 12.1247 12.9523 12.2493 12.8666 12.4597C12.8238 12.5648 12.8004 12.6427 12.8004 12.6933C12.8004 12.7985 12.851 12.8803 12.9484 12.9348C12.9718 12.9231 12.9951 12.8959 13.0107 12.8608C13.0263 12.8219 13.038 12.7985 13.0419 12.7868H13.0886V12.7829ZM19.519 9.484C19.4645 9.16073 19.3437 8.77514 19.1607 8.33113C18.9776 7.88712 18.8802 7.64564 18.8647 7.60669C18.8023 7.70796 18.7361 7.81312 18.6699 7.92607C18.5998 8.03902 18.5686 8.1325 18.5686 8.2065C18.5686 8.23766 18.5764 8.2805 18.5959 8.33892C18.5959 8.81799 18.6465 9.44895 18.7439 10.2279C18.8257 10.8511 18.9114 11.4976 19.001 12.1675C19.0906 12.8375 19.1373 13.4295 19.1373 13.9475C18.888 14.2162 18.5959 14.3487 18.2571 14.3487C18.1246 14.3487 18 14.3292 17.8832 14.2863C17.7663 14.2474 17.6845 14.189 17.6417 14.1189C17.5988 14.0488 17.5755 13.9631 17.5755 13.8618C17.5755 13.8384 17.5833 13.7683 17.5988 13.6515C17.6144 13.5346 17.6222 13.4489 17.6222 13.3866C17.6222 13.3048 17.6144 13.2464 17.5949 13.2075C17.2833 13.3243 16.7965 13.5113 16.1383 13.7605C15.554 13.9709 15.0399 14.1305 14.6037 14.2357C13.926 14.411 13.295 14.4967 12.7147 14.4967C12.4148 14.4967 12.1149 14.4733 11.8189 14.4227C11.519 14.372 11.223 14.2902 10.9309 14.1812C10.6816 14.0254 10.4985 13.8306 10.3778 13.5931C10.2337 13.3048 10.1636 12.8764 10.1636 12.3039C10.1636 12.1909 10.1636 12.078 10.1675 11.9689C10.1675 11.856 10.1714 11.743 10.1714 11.634C10.1714 11.4976 10.1714 11.3535 10.1636 11.2094C10.1558 11.0614 10.1441 10.9446 10.1246 10.8511C10.0818 10.8939 10.0389 10.9563 10 11.038C9.96105 11.1198 9.90652 11.2406 9.83642 11.4042C9.71178 11.5677 9.55209 11.6846 9.36125 11.7547C9.1665 11.8248 8.95618 11.8638 8.72639 11.8638H8.5628C8.50828 11.8638 8.44596 11.856 8.36806 11.8443C8.29017 11.8326 8.22785 11.7547 8.18501 11.6106C8.16553 11.5366 8.13827 11.4236 8.09932 11.2756L7.76436 11.856C7.75268 11.9884 7.78384 12.1675 7.85784 12.3973C8.02532 12.9076 8.111 13.223 8.111 13.3399C8.111 13.3633 8.111 13.4022 8.10321 13.4528C7.79942 13.7138 7.47225 13.9397 7.1295 14.1267C6.82571 14.2941 6.47128 14.4499 6.074 14.594C5.83642 14.6992 5.58325 14.781 5.30672 14.8316C5.03408 14.8861 4.75365 14.9095 4.46543 14.9095C4.06816 14.9095 3.69815 14.855 3.36319 14.742C3.02824 14.6291 2.74391 14.4538 2.51412 14.2084C2.44012 14.115 2.38948 14.0215 2.35833 13.9241C2.33106 13.8267 2.31548 13.7138 2.31548 13.5814C2.31548 13.4256 2.33496 13.2698 2.3778 13.1101C2.41675 12.9504 2.47128 12.8024 2.53359 12.6661C2.62707 12.4597 2.72444 12.2532 2.82181 12.0507C2.94645 11.8131 3.08277 11.669 3.23466 11.6223C3.39825 11.5405 3.51899 11.3964 3.60078 11.1822C3.63194 11.1082 3.67868 10.9251 3.74099 10.6408C3.69036 10.6525 3.65141 10.6914 3.62415 10.7537C3.59688 10.816 3.56962 10.855 3.54625 10.8745C3.52288 10.8939 3.49172 10.9017 3.46056 10.9017C3.36709 10.9017 3.29309 10.8589 3.23466 10.7693C3.16066 10.5512 3.12171 10.3409 3.12171 10.1422C3.12171 9.76053 3.26972 9.27758 3.56962 8.69335C3.78773 8.26492 3.92016 7.99228 3.97079 7.87933C3.76047 8.1286 3.56962 8.43239 3.40214 8.78683C3.25803 9.09841 3.11782 9.41 2.9815 9.72159C2.81792 10.1072 2.74002 10.4421 2.74002 10.7226C2.74002 11.003 2.81792 11.2639 2.97371 11.5093C2.66991 11.9845 2.44401 12.3779 2.2999 12.6972C2.18695 12.9543 2.10516 13.2036 2.04674 13.4528C2.03895 13.5152 2.03116 13.597 2.01947 13.6943C2.00779 13.7956 2 13.9046 2 14.0293C2 14.2708 2.03505 14.4889 2.10127 14.6797C2.17137 14.8706 2.29211 15.0303 2.46738 15.1627C2.73612 15.3185 3.01266 15.4314 3.30477 15.5054C3.59299 15.5755 3.89679 15.6145 4.21616 15.6145C4.74586 15.6145 5.28724 15.521 5.84421 15.3302C6.39727 15.1393 6.89971 14.8939 7.34761 14.5979C7.74099 14.4304 8.037 14.1539 8.23564 13.7644C8.4148 13.4139 8.50828 13.0166 8.50828 12.5687C8.76534 12.5687 9.00292 12.5064 9.22882 12.3818C9.40798 12.2805 9.59883 12.1325 9.79747 11.9339C9.80915 12.3467 9.82863 12.8647 9.85979 13.4918C9.88705 14.1189 10.1402 14.5785 10.6232 14.8706C10.9542 14.9952 11.2697 15.0848 11.5657 15.1354C11.8656 15.1899 12.1928 15.2133 12.5472 15.2133C13.0263 15.2133 13.5248 15.1588 14.0389 15.0497C14.5531 14.9407 15.0672 14.7927 15.5852 14.6057C15.9903 14.4616 16.4537 14.2747 16.9796 14.0449C17.0107 14.0332 17.0458 14.0215 17.0808 14.0059C17.1198 13.9942 17.1509 13.9864 17.1821 13.9864C17.2639 13.9864 17.3301 14.0098 17.3768 14.0604C17.3963 14.0799 17.4002 14.1033 17.3924 14.1344C17.3846 14.1656 17.369 14.2007 17.3496 14.2357C17.3379 14.337 17.3301 14.4149 17.3301 14.4694C17.3301 14.5629 17.3379 14.6408 17.3574 14.7031C17.3768 14.7654 17.4197 14.8238 17.4898 14.8745C17.5599 14.929 17.6378 14.9679 17.7235 14.9991C17.8092 15.0303 17.9455 15.0458 18.1246 15.0458C18.1636 15.0458 18.2064 15.0458 18.261 15.0419C18.3155 15.0419 18.3778 15.0341 18.4518 15.0264C18.7829 14.9446 19.0321 14.7342 19.1996 14.3915C19.2931 14.1968 19.3788 13.8774 19.4606 13.4295L19.0594 9.28926L19.1723 9.09452C19.1723 9.09452 19.2463 9.188 19.3398 9.32042C19.3944 9.40221 19.4567 9.46063 19.5268 9.49958L19.519 9.484ZM7.87342 8.0546C7.85005 8.12471 7.82668 8.17923 7.80721 8.21818C7.78773 8.25713 7.75268 8.26102 7.69426 8.22207C7.63194 8.16755 7.54625 8.14418 7.44109 8.15586C7.37098 8.25713 7.30867 8.4285 7.25414 8.67777C7.19961 8.92704 7.12561 9.1062 7.03992 9.21136C6.98539 9.16852 6.91529 9.02441 6.83739 8.78683C6.75949 8.54535 6.64265 8.4285 6.48686 8.4285C6.44401 8.4285 6.40896 8.4285 6.38559 8.43629C6.3739 8.41682 6.36612 8.38176 6.36612 8.33502C6.36612 8.27271 6.38169 8.21429 6.40896 8.15586C6.43622 8.09744 6.47907 8.04291 6.53359 7.98838C6.65823 8.01954 6.7517 8.09354 6.81402 8.21428C6.89581 8.41292 6.9776 8.61156 7.06719 8.81409C7.15287 8.55314 7.22298 8.35839 7.27361 8.23376C7.36709 7.99617 7.51509 7.89491 7.71373 7.92607L7.87342 8.05849V8.0546ZM6.13632 10.1189C6.05063 10.3253 5.92989 10.5317 5.78189 10.7342C5.65725 10.6719 5.53262 10.6096 5.40798 10.5473C5.26388 10.4616 5.17819 10.3681 5.14703 10.2669L5.52872 9.76054C5.61441 9.79169 5.71568 9.84233 5.82473 9.91633C5.93379 9.98644 6.03895 10.0565 6.13632 10.1189ZM6.77118 12.5298C6.72055 12.6972 6.69328 12.7868 6.68549 12.7907C6.64654 12.8842 6.59202 12.9582 6.51801 13.0166C6.46349 13.0166 6.41675 12.9971 6.38169 12.9543C6.34664 12.9154 6.32327 12.8725 6.31159 12.8297C6.2999 12.7868 6.29211 12.7518 6.29211 12.7284V12.6739C6.29211 12.5609 6.30769 12.4558 6.33885 12.3545C6.37001 12.2532 6.4518 12.0507 6.58033 11.7469C6.5258 11.9728 6.47128 12.1948 6.42064 12.4207C6.42064 12.5648 6.47517 12.67 6.58812 12.7401C6.61149 12.7206 6.63875 12.6856 6.66602 12.6271C6.69328 12.5687 6.72834 12.5415 6.76339 12.5337L6.77118 12.5298ZM9.83642 15.3808L9.40799 15.9339L8.7147 15.5054L8.30185 15.9728L7.65531 15.6067L8.07595 15.038L8.74976 15.4197L9.22493 14.9718L9.83252 15.3847L9.83642 15.3808ZM5.06134 12.483C5.06134 12.5259 5.04966 12.5687 5.0224 12.6155C4.99903 12.6583 4.97566 12.7011 4.95618 12.7362C4.85492 12.7167 4.78092 12.7089 4.73028 12.7089C4.68744 12.7089 4.65239 12.7167 4.62902 12.7284C4.55891 12.8219 4.51217 12.9465 4.48101 13.1023C4.39922 13.5074 4.34859 13.7333 4.32132 13.7839C4.25901 13.7411 4.16164 13.5736 4.03311 13.2893C3.93184 13.0634 3.78384 12.9543 3.5852 12.9543C3.54236 12.9115 3.51899 12.8608 3.51899 12.8063C3.51899 12.7557 3.52678 12.7089 3.54236 12.6661C3.55794 12.6232 3.57352 12.5843 3.5852 12.5531C3.60857 12.5298 3.63973 12.5142 3.67868 12.5142C3.70983 12.5142 3.75657 12.5337 3.81889 12.5687C3.90458 12.6505 3.98247 12.7518 4.04479 12.8764C4.12658 13.0634 4.20837 13.2503 4.29796 13.4373C4.37196 13.1685 4.43038 12.9621 4.46543 12.8219C4.53944 12.5531 4.66018 12.4207 4.81986 12.4207C4.89387 12.4207 4.97566 12.4441 5.06134 12.4869V12.483Z" fill="white"/>
</svg>
