<svg width="24" height="24" viewBox="0 0 24 24" fill="none" xmlns="http://www.w3.org/2000/svg">
<path fill-rule="evenodd" clip-rule="evenodd" d="M22 9.30215C21.9158 9.32432 21.8404 9.27111 21.7783 9.14254C21.6941 8.97849 21.6231 8.88096 21.5655 8.84549L21.4502 8.98293C21.4857 9.43516 21.5611 10.0514 21.6808 10.8273C21.7961 11.6032 21.8714 12.1618 21.898 12.5032V13.0574C21.898 13.8599 21.8626 14.4496 21.7916 14.8353C21.7207 15.2166 21.601 15.5801 21.4281 15.9215C21.499 15.753 21.5522 15.558 21.5832 15.3407C21.6143 15.1235 21.632 14.8974 21.632 14.6535C21.632 14.4673 21.632 14.2811 21.6231 14.0949C21.6143 13.9087 21.6098 13.7225 21.601 13.5362L21.0468 9.12038C21.0246 8.9519 21.0113 8.82332 21.0024 8.73908C20.967 8.4642 20.9271 8.25582 20.8872 8.12281C20.967 7.8967 21.0113 7.76369 21.0246 7.72822C21.0867 7.58635 21.1709 7.47551 21.2685 7.40013C21.4015 7.66172 21.5389 7.9765 21.6719 8.33562C21.7562 8.56174 21.867 8.88539 22 9.30215ZM17.828 8.77899C17.6728 8.77899 17.5309 8.81445 17.4023 8.88539C17.2959 8.95633 17.2161 9.00953 17.1674 9.045C17.0831 9.0716 17.0166 9.06274 16.9634 9.01397C16.9147 8.9652 16.8792 8.89426 16.857 8.80115C16.8703 8.61051 16.8792 8.4509 16.8836 8.32232C16.8836 8.19375 16.9191 8.08291 16.9856 7.99424C17.0122 8.05187 17.0299 8.11838 17.0299 8.19818C17.0299 8.25582 17.0299 8.31345 17.0211 8.36666C17.0122 8.42429 17.0078 8.48193 16.9989 8.53514C16.9989 8.68588 17.0876 8.75239 17.2649 8.73908C17.3491 8.69032 17.3935 8.60608 17.3935 8.48193C17.3802 8.34893 17.3713 8.24695 17.3713 8.18488C17.3713 8.08734 17.3979 8.0031 17.4556 7.94103C17.4777 7.96764 17.491 8.0164 17.4999 8.08291C17.5088 8.14941 17.5088 8.18931 17.5088 8.20705C17.5088 8.33562 17.5176 8.4243 17.5309 8.47307C17.5442 8.52184 17.5841 8.54844 17.6462 8.54844C17.6595 8.54844 17.695 8.53957 17.7526 8.52627C17.7748 8.48193 17.7703 8.41986 17.7482 8.33562C17.7216 8.25139 17.7127 8.19818 17.7127 8.17601C17.7127 8.11838 17.7393 8.07404 17.7969 8.03857C17.8679 8.13168 17.9033 8.25582 17.9033 8.411C17.9033 8.544 17.8767 8.66814 17.828 8.78342V8.77899ZM18.2093 6.88583C17.061 7.24052 15.9127 7.59078 14.7732 7.94103C14.4052 8.07404 14.0372 8.20705 13.6781 8.33562C13.2436 8.5041 12.9421 8.70805 12.7648 8.94303C13.288 8.68588 13.8599 8.45533 14.4762 8.24252C14.8752 8.10951 15.4649 7.9233 16.254 7.68832C17.1984 7.41343 17.7881 7.23609 18.0186 7.15628C18.0674 7.12968 18.1162 7.08535 18.1561 7.03214C18.2004 6.97894 18.2181 6.93017 18.2093 6.89026V6.88583ZM18.0497 9.88739L17.6019 10.4726C17.6861 10.5436 17.7748 10.6145 17.8679 10.6854C17.9876 10.783 18.0497 10.8717 18.0497 10.9426C18.0497 10.9692 18.0408 11.0047 18.0186 11.0401C17.992 11.0623 17.9166 11.1554 17.7969 11.315C17.7127 11.4303 17.6285 11.4791 17.5398 11.4658C17.3846 11.3239 17.2294 11.1776 17.0831 11.0313C17.0831 10.9736 17.1319 10.9115 17.2339 10.8406C17.2826 10.814 17.3314 10.7564 17.3846 10.6721C17.4334 10.5879 17.4822 10.5303 17.5354 10.5037C17.5132 10.4239 17.429 10.3352 17.2738 10.2376C17.123 10.1401 17.061 10.047 17.0876 9.96276L17.6418 9.38639L18.0585 9.89626L18.0497 9.88739ZM16.2186 11.2086C16.2274 11.2795 16.2186 11.3593 16.2008 11.4524C16.1831 11.5456 16.1565 11.6475 16.121 11.7628C16.0767 11.785 16.0412 11.7938 16.0146 11.7938C15.957 11.7938 15.9082 11.7672 15.8639 11.7185C15.8196 11.6697 15.7929 11.6076 15.7796 11.5367C15.7796 11.3017 15.7885 11.1111 15.8063 10.9692C15.824 10.8229 15.8639 10.6588 15.9304 10.4726C15.9393 10.5524 15.9304 10.6677 15.9082 10.8229C15.8861 10.9781 15.8772 11.0712 15.8772 11.0978C15.8772 11.2042 15.8905 11.2884 15.9215 11.3549C15.9481 11.417 16.0013 11.4702 16.0811 11.5145L16.2186 11.2042V11.2086ZM15.9969 8.57947L15.9348 8.71692C14.7067 9.24008 13.4786 9.76768 12.2549 10.2908C12.4101 9.99823 12.7692 9.75881 13.3279 9.56817C13.7269 9.43516 13.9796 9.33319 14.0949 9.27112C14.7245 9.045 15.3629 8.81446 16.0013 8.57947H15.9969ZM15.0304 10.4105C14.9151 10.3307 14.7998 10.2509 14.6845 10.1667C14.5693 10.0825 14.454 10.0337 14.3476 10.016C14.2279 10.149 14.1436 10.2554 14.0904 10.3263C14.0062 10.446 13.9486 10.5657 13.922 10.6766L14.3919 10.9426C14.4496 10.9781 14.5072 10.9958 14.5604 10.9958C14.6535 10.9958 14.7422 10.9071 14.8264 10.7298C14.9107 10.5524 14.9772 10.446 15.0304 10.4105ZM19.7743 9.31545C19.7256 9.08047 19.6458 8.81889 19.5349 8.52184C19.4241 8.22922 19.2379 7.81689 18.9763 7.29372C18.8832 7.37796 18.8255 7.44447 18.7945 7.49767C18.7679 7.54644 18.7058 7.71492 18.6127 7.99867C18.6704 8.5041 18.7856 9.18244 18.963 10.0426C19.1758 11.0845 19.3088 11.7628 19.3576 12.0732C19.4773 12.818 19.5393 13.5141 19.5393 14.157C19.3709 14.2767 19.2556 14.352 19.2024 14.3786C19.1492 14.4052 19.0783 14.4318 18.9851 14.454C18.7103 14.454 18.5063 14.4407 18.3777 14.4097C18.1561 14.3609 17.9832 14.2589 17.8546 14.0993C17.7925 14.055 17.757 14.0018 17.757 13.9308C17.757 13.9087 17.7703 13.851 17.7925 13.7535C17.8191 13.656 17.828 13.585 17.8191 13.5362C17.7127 13.6072 17.4955 13.8111 17.1718 14.1436C16.9102 14.4052 16.6797 14.587 16.4846 14.6934C16.2895 14.7954 16.0767 14.8486 15.8506 14.8486C15.425 14.8486 15.0747 14.72 14.7954 14.4673C15.1235 14.2412 15.3496 14.0949 15.4782 14.0328C15.7353 13.8998 15.9792 13.8156 16.2141 13.789C16.2407 13.7269 16.2895 13.6249 16.3516 13.4919C16.3959 13.3766 16.4137 13.2702 16.4137 13.1727C16.4137 13.1461 16.4048 13.0929 16.3915 13.0219C16.2008 12.9776 15.8861 12.9067 15.456 12.8003C14.8309 12.6673 14.2944 12.5963 13.851 12.5963C13.5939 12.5963 13.3456 12.6229 13.0973 12.6717C12.849 12.7205 12.6229 12.8003 12.4145 12.9067C12.2727 12.9643 12.1884 13.0663 12.1574 13.217C12.1308 13.3678 12.1042 13.5451 12.082 13.7579C12.1042 13.7491 12.1973 13.7136 12.3569 13.6427C12.4544 13.5983 12.552 13.5673 12.6451 13.5451C12.8579 13.6161 13.0574 13.7491 13.2392 13.9397C13.3545 14.0594 13.5008 14.2456 13.687 14.4939C13.4963 14.6092 13.3057 14.6934 13.1195 14.7511C12.9333 14.8087 12.7293 14.8353 12.5076 14.8353C12.2727 14.8353 12.0599 14.751 11.8692 14.587C11.6786 14.4185 11.5323 14.2235 11.4347 13.9973C11.3638 13.656 11.315 13.3234 11.2928 12.9953C11.2662 12.6673 11.2574 12.2904 11.2574 11.8559C11.2574 11.8116 11.2662 11.4924 11.2795 10.8938C11.2928 10.2953 11.3017 9.86522 11.3017 9.5992C11.3017 9.23121 11.2928 8.87652 11.2707 8.53957C11.2485 8.20261 11.2086 7.8834 11.1554 7.58634C11.0978 7.64398 11.0401 7.73266 10.9736 7.85236C10.8805 8.02971 10.8273 8.13168 10.814 8.16271C10.8761 8.59721 10.9204 9.0317 10.947 9.47063C10.9736 9.90955 10.9825 10.3972 10.9825 10.9293C10.9825 11.1687 10.9825 11.5367 10.9736 12.0244C10.9648 12.5121 10.9648 12.8845 10.9648 13.1328C10.9869 13.3456 11.0135 13.6737 11.049 14.1126C11.1288 14.7511 11.3593 15.2033 11.7495 15.4649C11.9623 15.558 12.184 15.6023 12.419 15.6023C12.716 15.6023 13.0086 15.5402 13.2924 15.4161C13.5761 15.292 13.8599 15.1279 14.1436 14.9195C14.4407 15.1589 14.6712 15.3274 14.8353 15.4205C15.0924 15.5713 15.3496 15.6555 15.6112 15.6777C15.9171 15.6777 16.2053 15.5934 16.4846 15.4205C16.8127 15.2166 17.1585 14.853 17.5265 14.3343L17.6019 14.7378C17.7216 14.9594 17.9078 15.1013 18.1561 15.1722C18.3068 15.2166 18.5462 15.2343 18.8787 15.2343C19.2556 15.1013 19.5216 14.8752 19.6768 14.5648C19.8054 14.3166 19.8674 13.984 19.8674 13.5628C19.8674 13.3367 19.8098 12.8224 19.699 12.02C19.6502 11.6741 19.6236 11.3904 19.6236 11.1776C19.6147 11.1199 19.5526 10.7963 19.4329 10.211C19.3531 9.82975 19.3177 9.51053 19.3177 9.25338C19.3177 9.15584 19.3177 9.08047 19.3265 9.0317C19.3886 9.0583 19.4595 9.1115 19.5393 9.19131C19.6458 9.30658 19.7078 9.36866 19.73 9.38196L19.7743 9.31989V9.31545ZM12.3569 8.75239C12.3126 8.75239 12.286 8.77899 12.2727 8.82776C12.2594 8.87653 12.2461 8.90756 12.2283 8.912C12.1219 8.85436 12.0687 8.75682 12.0687 8.61494C12.0687 8.55287 12.0776 8.4642 12.0998 8.34893C12.1219 8.23365 12.1308 8.16271 12.1308 8.12724C12.051 8.31346 12.0066 8.43316 11.9934 8.4908C11.9579 8.6105 11.9401 8.73908 11.9401 8.87209C11.9401 8.89869 11.9401 8.94746 11.949 9.00954C12.0111 9.13811 12.0732 9.20461 12.1308 9.21348C12.2106 9.17801 12.2594 9.12481 12.2815 9.04944C12.3037 8.97406 12.3259 8.87652 12.3569 8.75682V8.75239ZM18.1561 16.3161C18.1782 16.3738 18.1782 16.4314 18.1561 16.4846C18.1339 16.5422 18.0674 16.6353 17.9521 16.7728C17.8945 16.7639 17.8546 16.7373 17.8235 16.6841C17.7969 16.6309 17.7792 16.5777 17.7792 16.5201C17.7659 16.4004 17.7792 16.2718 17.8324 16.1388C17.8457 16.1033 17.9033 15.988 18.0009 15.7974C17.9654 15.8949 17.9388 15.9747 17.9255 16.0368C17.9122 16.0989 17.9033 16.1609 17.9033 16.2319C17.9033 16.3294 17.9344 16.4181 18.0009 16.4979C18.0364 16.489 18.063 16.4669 18.0851 16.427C18.1073 16.3871 18.1295 16.3516 18.1472 16.3161H18.1561ZM12.2948 11.9224C12.2372 12.0421 12.1973 12.1264 12.1663 12.1796C12.1086 12.2727 12.0554 12.3436 12.0066 12.3924C12.1352 12.2062 12.1973 11.9978 12.1973 11.7628C12.1973 11.4879 12.1219 11.2263 11.9756 10.9869C11.9623 10.9426 11.9756 10.8938 12.0199 10.8362C12.0643 10.7785 12.0865 10.7475 12.0953 10.7386C12.2638 10.9426 12.3525 11.2086 12.3525 11.5278C12.3525 11.6475 12.3347 11.7805 12.2993 11.9224H12.2948ZM9.71004 8.912C9.71004 8.912 9.65241 8.88096 9.60364 8.83662C9.55487 8.77899 9.51496 8.74795 9.48836 8.73908C9.23121 9.10264 8.92529 9.42185 8.56174 9.69674C8.23365 9.95389 7.86566 10.1667 7.45334 10.3352C7.79472 10.1357 8.11838 9.90956 8.43316 9.65241C8.80115 9.34649 9.11594 9.03614 9.36865 8.71692C9.34205 8.65928 9.25781 8.58391 9.12037 8.48193C8.98293 8.3844 8.91199 8.29572 8.91199 8.21592C8.91199 8.16715 8.94303 8.10065 9.00953 8.01197C9.11594 7.8701 9.24451 7.76812 9.39082 7.70162C9.47506 7.67945 9.546 7.70162 9.60364 7.75482C9.66127 7.81246 9.69674 7.88783 9.71004 7.9898C9.6524 8.07404 9.6258 8.15828 9.6258 8.23365C9.6258 8.29572 9.6524 8.37553 9.71004 8.46863C9.76768 8.56174 9.79428 8.63711 9.79428 8.69031C9.79428 8.75239 9.76768 8.82332 9.71004 8.90313V8.912ZM9.31545 10.6987C9.31545 10.6987 9.27555 10.7652 9.24008 10.8539C9.20461 10.9426 9.15584 10.9869 9.08934 10.9869C9.00953 10.9027 8.97406 10.7918 8.97406 10.6588C9.00067 10.4948 9.0317 10.3307 9.0583 10.1711C8.9785 10.3352 8.92973 10.446 8.90756 10.5125C8.86322 10.6411 8.84549 10.7608 8.84549 10.8761C8.84549 10.8894 8.85436 10.9426 8.86766 11.0313C8.88096 11.1199 8.91199 11.1909 8.95189 11.2485C9.00066 11.2751 9.05387 11.2751 9.10707 11.2441C9.16027 11.213 9.19574 11.1731 9.21791 11.1332C9.24008 11.0889 9.26668 11.0357 9.29772 10.9736C9.32875 10.9115 9.34649 10.8583 9.34649 10.814C9.34649 10.7785 9.33762 10.7431 9.31545 10.7076V10.6987ZM15.6998 16.3915C15.558 16.5201 15.4294 16.622 15.3186 16.7063C15.2033 16.7861 15.0791 16.8614 14.9373 16.9235C14.7954 16.9856 14.6624 17.0344 14.5427 17.0654C14.423 17.0964 14.29 17.1142 14.1481 17.1142C14.0771 17.1142 14.0106 17.1097 13.9441 17.0964C13.8821 17.0876 13.8111 17.0565 13.7358 17.0078C13.6604 16.959 13.6249 16.8925 13.6249 16.8038C13.6249 16.7595 13.6382 16.7151 13.6604 16.6708C13.687 16.6265 13.7313 16.5555 13.7934 16.4624C13.8555 16.3693 13.922 16.2939 13.984 16.2407C13.9264 16.2053 13.8865 16.1787 13.8555 16.1565C13.8289 16.1343 13.7934 16.1077 13.7579 16.0723C13.7579 15.9792 13.8023 15.8861 13.8865 15.7841L14.1215 15.5491C14.2146 15.5491 14.2722 15.5713 14.29 15.6112C14.2988 15.6555 14.2855 15.6954 14.2545 15.7397C14.2235 15.7841 14.1924 15.824 14.1658 15.8683C14.1436 15.8683 14.1215 15.8462 14.1037 15.8062C14.0816 15.7619 14.055 15.753 14.0195 15.7752L13.9441 15.8373C13.9796 15.8994 14.0328 15.9481 14.1082 15.9747C14.1835 16.0013 14.2368 16.0235 14.2722 16.0368C14.3786 15.9792 14.485 15.9215 14.5914 15.8683C14.5781 15.9747 14.4451 16.0989 14.1969 16.2452C13.9486 16.3915 13.8244 16.5068 13.8244 16.591C13.8244 16.6752 13.8909 16.7595 14.0284 16.8348C14.1126 16.857 14.1969 16.8659 14.2855 16.8659C14.5072 16.8659 14.7511 16.8038 15.0215 16.6841C15.4383 16.4935 15.6688 16.3915 15.7043 16.3871L15.6998 16.3915ZM7.01884 7.77256C6.92574 8.06517 6.78386 8.31789 6.59322 8.53957C6.3671 8.80115 6.11882 8.95633 5.84837 9.00954C5.66216 9.0317 5.48481 9.05387 5.30747 9.07161L5.88384 8.78342C6.11882 8.66371 6.30947 8.54401 6.46021 8.41986C6.18532 8.39326 5.91044 8.35779 5.63999 8.32232C5.40058 8.32232 5.2055 8.37996 5.06362 8.4908C5.11239 8.19375 5.2454 7.98537 5.45821 7.87009C5.67103 7.75482 5.93704 7.69275 6.25626 7.69275C6.37597 7.69275 6.49568 7.70162 6.61095 7.71492C6.72622 7.72822 6.86367 7.74596 7.01884 7.76812V7.77256ZM4.03059 8.44203C4.05276 8.56173 4.03946 8.68145 3.98626 8.79229C3.93749 8.90756 3.85768 8.99623 3.75127 9.06717C3.69364 9.0583 3.6493 9.0317 3.61383 8.9785C3.57836 8.92529 3.55176 8.86765 3.53846 8.81002C3.52516 8.74795 3.51629 8.68588 3.51629 8.61494C3.51629 8.47307 3.53403 8.34892 3.5695 8.24252C3.60497 8.13611 3.66704 8.01197 3.75127 7.87009C3.72911 7.9499 3.70694 8.04744 3.6892 8.17158C3.66704 8.29572 3.65817 8.37553 3.65817 8.411C3.65817 8.5041 3.66704 8.57061 3.68477 8.61938C3.7025 8.66371 3.73797 8.72135 3.79561 8.78342C3.85768 8.77455 3.90202 8.72578 3.92862 8.62824C3.95522 8.53071 3.98626 8.46863 4.03059 8.44203ZM5.92374 11.0401C5.88827 11.0845 5.8395 11.182 5.773 11.3372C5.71093 11.4924 5.63556 11.6032 5.55132 11.6653C5.45821 11.6387 5.35181 11.581 5.2321 11.4968C5.05475 11.3771 4.95278 11.3106 4.92175 11.2928C4.92175 11.1776 4.96608 11.0534 5.05032 10.9204C5.08579 10.8628 5.17003 10.7519 5.30747 10.579C5.40501 10.6056 5.51142 10.6677 5.61782 10.7652C5.72423 10.8628 5.8262 10.9515 5.92818 11.0357L5.92374 11.0401ZM10.0647 16.1388C10.0027 16.1742 9.92286 16.2718 9.83418 16.4314C9.74551 16.591 9.66571 16.6708 9.59477 16.6708C9.546 16.6708 9.4928 16.6442 9.43516 16.5954C9.42629 16.5866 9.33762 16.5245 9.16914 16.4048C9.06274 16.325 9.00953 16.254 9.00953 16.1831L9.46619 15.62C9.5992 15.7131 9.74108 15.8063 9.88295 15.8949C9.97606 15.9747 10.0337 16.0545 10.0647 16.1388ZM7.06318 13.6604C7.06318 13.8156 7.01884 13.9574 6.9346 14.086C6.87697 14.0993 6.83707 14.0949 6.80603 14.0771C6.77943 14.055 6.73066 13.984 6.66859 13.8643C6.64642 13.7801 6.63755 13.6959 6.63755 13.6205C6.63755 13.5229 6.65085 13.421 6.67302 13.319C6.69962 13.217 6.73066 13.1151 6.77499 13.0175C6.76169 13.1328 6.75283 13.2436 6.75283 13.3589C6.75283 13.4653 6.76613 13.554 6.7883 13.6294C6.8149 13.7047 6.85923 13.7579 6.93017 13.7934C6.95677 13.7845 6.97451 13.7579 6.98337 13.7136C6.99224 13.6693 7.01441 13.6515 7.05875 13.6648L7.06318 13.6604ZM9.86078 11.0446C9.70561 11.2219 9.6258 11.4436 9.6258 11.7052C9.68344 12.0687 9.74108 12.4234 9.80758 12.7781C9.60364 12.8934 9.46176 12.9643 9.39082 12.9909C9.24008 13.0485 9.08934 13.0752 8.93416 13.0752C8.89869 13.0752 8.84992 13.0751 8.79229 13.0663C8.73022 13.0574 8.67258 13.0441 8.61494 13.0219C8.4376 13.0219 8.30902 12.9288 8.23365 12.7471C8.18931 12.6495 8.13611 12.4943 8.06517 12.2904C7.95877 12.3968 7.88783 12.5032 7.84793 12.6141C7.80802 12.7249 7.79029 12.8446 7.79029 12.9687C7.79029 13.0884 7.87896 13.421 8.05631 13.9707C8.13611 14.2101 8.17158 14.4141 8.17158 14.5781C7.86566 14.9594 7.45334 15.2831 6.92574 15.5447C6.62868 15.6954 6.13656 15.8772 5.44491 16.0989C5.15229 16.1476 4.92618 16.1831 4.76214 16.2053C4.59809 16.2274 4.42518 16.2363 4.23897 16.2363C3.88428 16.2363 3.57393 16.1831 3.30348 16.0767C3.03303 15.9703 2.80692 15.7841 2.6207 15.5136C2.5143 15.3851 2.43893 15.2476 2.39016 15.0924C2.34582 14.9417 2.31922 14.7688 2.31922 14.5781C2.31922 14.4451 2.32365 14.3387 2.33695 14.2589C2.35026 14.1791 2.37242 14.055 2.41676 13.8865C2.4611 13.8422 2.49656 13.7313 2.53203 13.5495C2.5675 13.3678 2.66947 13.3013 2.84239 13.3412C3.00643 13.2481 3.13057 13.1106 3.21924 12.9333C3.30791 12.7515 3.35225 12.481 3.35225 12.1175C3.32565 12.1663 3.29461 12.215 3.26801 12.2549C3.18377 12.3835 3.13057 12.4589 3.1084 12.4766C3.0286 12.5564 2.95323 12.5786 2.87342 12.552C2.76701 12.4323 2.69164 12.3081 2.64287 12.184C2.59854 12.0599 2.57194 11.9268 2.57194 11.785C2.76258 11.1953 2.95766 10.6056 3.15717 10.0204C2.82908 10.4593 2.59854 10.814 2.45666 11.0845C2.22168 11.5234 2.10641 11.9224 2.10641 12.2771C2.10641 12.4677 2.14188 12.654 2.21725 12.8313C2.29262 13.0086 2.40346 13.1727 2.5542 13.319C2.41233 13.6116 2.31035 13.8466 2.24385 14.0328C2.15961 14.2722 2.08867 14.5294 2.03104 14.7998C2.00887 14.9417 2 15.0791 2 15.2166C2 15.4737 2.04877 15.7131 2.14188 15.9348C2.23498 16.1565 2.38129 16.3472 2.57194 16.5023C2.81135 16.6885 3.06407 16.8215 3.32565 16.9013C3.58723 16.9812 3.87098 17.0255 4.1769 17.0255C4.62913 17.0255 5.11683 16.9413 5.63556 16.7683C6.03902 16.6353 6.47351 16.4447 6.9346 16.2053C7.4223 16.0279 7.80802 15.6998 8.08291 15.2254C8.30902 14.8442 8.4642 14.3653 8.53957 13.789C8.62381 13.8156 8.71248 13.8333 8.80559 13.8333C8.95633 13.8333 9.10707 13.8023 9.25781 13.7358C9.40856 13.6737 9.5593 13.6072 9.70117 13.5451C9.85635 13.4032 9.96719 13.2436 10.0381 13.0619C10.1046 12.8801 10.1401 12.6761 10.1401 12.45C10.1401 12.2372 10.1135 12.0066 10.0559 11.7539C9.99823 11.5012 9.93172 11.2662 9.85192 11.0446H9.86078ZM5.84837 13.3633C5.85724 13.4431 5.83507 13.5185 5.7863 13.5983L5.47595 13.4165C5.33407 13.8422 5.19663 14.2678 5.05919 14.6934C5.00155 14.5382 4.94835 14.3919 4.89958 14.2634C4.85081 14.1303 4.77544 13.9663 4.6779 13.7668L4.61583 13.8821C4.55819 13.8599 4.50055 13.8377 4.43405 13.8067C4.37198 13.7801 4.34538 13.7269 4.35868 13.656C4.37198 13.5717 4.38528 13.5008 4.39415 13.4476C4.40301 13.3944 4.42962 13.35 4.47395 13.3146C4.66016 13.3633 4.78874 13.4963 4.86854 13.7092C4.94835 13.922 5.02372 14.1259 5.10352 14.3254C5.13899 14.2545 5.1789 14.086 5.2188 13.8156C5.28974 13.3988 5.43161 13.1771 5.64442 13.155C5.66659 13.1816 5.70206 13.217 5.75083 13.2525C5.7996 13.288 5.83064 13.3234 5.84837 13.3589V13.3633ZM9.51053 8.35336V8.22478C9.5194 8.16271 9.50166 8.10951 9.45733 8.06517C9.41299 8.02084 9.36422 8.0031 9.30658 8.0031C9.25781 8.0031 9.20018 8.02971 9.13811 8.07847C9.15141 8.14055 9.20904 8.19818 9.31545 8.24252C9.41742 8.28685 9.48393 8.32675 9.51053 8.35336ZM15.119 13.5673C14.986 13.6604 14.8486 13.7535 14.7156 13.8422C14.5826 13.9353 14.454 14.0106 14.3343 14.0638L13.7712 13.4343C14.0683 13.4343 14.3166 13.4431 14.5161 13.4609C14.7156 13.4786 14.9151 13.5141 15.1235 13.5628L15.119 13.5673Z" fill="white"/>
</svg>
