<svg width="24" height="24" viewBox="0 0 24 24" fill="none" xmlns="http://www.w3.org/2000/svg">
<path fill-rule="evenodd" clip-rule="evenodd" d="M22 9.73127L21.7079 9.33837L21.6314 9.4392C21.6314 9.71041 21.6627 10.0581 21.7218 10.4754C21.8609 11.4211 21.9305 12.0192 21.9305 12.2695C21.9305 12.871 21.9096 13.3335 21.8644 13.6534C21.7983 14.1471 21.6627 14.5783 21.4541 14.9468C21.5376 14.7973 21.5932 14.627 21.6245 14.4322C21.6558 14.241 21.6697 14.0254 21.6697 13.7855C21.6697 13.6186 21.6697 13.4517 21.6627 13.2883C21.6558 13.1249 21.6523 12.958 21.6453 12.7911L21.235 8.99414C21.235 8.99414 21.2559 8.96632 21.2594 8.94893C21.2663 8.92807 21.2663 8.91417 21.2663 8.90373C21.2663 8.86896 21.2524 8.82724 21.2211 8.7716C21.1898 8.71597 21.1759 8.67425 21.1759 8.64643C21.1759 8.62557 21.1898 8.59428 21.2177 8.55603C21.3115 8.4239 21.4054 8.28482 21.5028 8.14573C21.6523 8.48996 21.7601 8.75074 21.8192 8.92112C21.9374 9.2271 21.993 9.49831 21.993 9.73127H22ZM18.669 8.00317C18.6759 8.04838 18.6586 8.0901 18.6238 8.12835C18.589 8.1666 18.5438 8.19789 18.4951 8.21875C17.532 8.56994 16.5723 8.91764 15.6161 9.26187C15.6161 9.20624 15.6509 9.14713 15.7239 9.08802C15.7587 9.0602 15.8213 9.02195 15.9152 8.96979C16.8331 8.64643 17.751 8.32306 18.669 8.00317ZM17.8171 10.232C17.7893 10.2528 17.758 10.2667 17.7267 10.2667C17.6885 10.2667 17.6398 10.2528 17.5807 10.2285C17.5216 10.2042 17.4868 10.1902 17.4764 10.1902C17.4207 10.1902 17.386 10.2424 17.3686 10.3502C17.3338 10.4058 17.2712 10.4336 17.1773 10.4336C17.1217 10.4336 17.0835 10.4336 17.0591 10.4267C17.0035 10.3815 16.9618 10.3224 16.9339 10.2459C16.9061 10.1694 16.8922 10.0964 16.8922 10.0233C16.8922 9.90513 16.9235 9.76257 16.9826 9.58871C17.0104 9.5157 17.0382 9.44267 17.0661 9.37313C17.073 9.394 17.073 9.42877 17.073 9.47397C17.073 9.53656 17.0626 9.62001 17.0452 9.72779C17.0243 9.83558 17.0174 9.90512 17.0174 9.93294C17.0174 10.0512 17.0661 10.1416 17.1599 10.2076C17.2921 10.2076 17.3755 10.1589 17.4103 10.0581C17.4103 10.0025 17.4103 9.93989 17.4033 9.87383C17.3964 9.80777 17.3964 9.76952 17.3964 9.76604C17.3964 9.67216 17.4242 9.58871 17.4798 9.51569C17.4903 9.53656 17.4972 9.56437 17.4972 9.59219V9.67564C17.4972 9.80429 17.5077 9.89469 17.525 9.95032C17.5459 10.006 17.6085 10.0338 17.7128 10.0338C17.7302 10.0164 17.7371 9.99205 17.7371 9.95728C17.7371 9.92251 17.7302 9.87383 17.7163 9.81124C17.7024 9.74866 17.6954 9.71041 17.6954 9.69998C17.6954 9.63739 17.7232 9.59566 17.7789 9.56785C17.7962 9.63391 17.8136 9.71041 17.8275 9.79386C17.8449 9.87731 17.8519 9.94685 17.8519 10.0025V10.1346C17.8345 10.1833 17.8241 10.2181 17.8171 10.2354V10.232ZM18.7768 11.0004C18.7768 11.0004 18.7177 11.1082 18.6342 11.2751C18.5716 11.3933 18.5125 11.4802 18.4499 11.5428C18.4221 11.4663 18.3282 11.3863 18.1648 11.3099C18.0049 11.2334 17.9214 11.1638 17.9214 11.1012C17.9214 11.0456 17.9562 10.983 18.0223 10.9169C18.0396 10.9065 18.0675 10.8648 18.1057 10.7918C18.1718 10.6701 18.2309 10.6075 18.2796 10.6075C18.3143 10.6075 18.3561 10.6353 18.4047 10.6909C18.4951 10.7535 18.5577 10.7952 18.596 10.8231C18.6725 10.8787 18.7316 10.9378 18.7698 10.9969L18.7768 11.0004ZM20.2302 11.7688C20.2128 11.6749 20.1433 11.369 20.0216 10.8509C19.872 10.1937 19.7782 9.68955 19.7364 9.34184L19.7851 9.19928C19.8234 9.20971 19.9033 9.27578 20.0181 9.39052C20.0668 9.4392 20.112 9.47049 20.1502 9.48092C20.1154 9.27577 20.0181 9.03238 19.8512 8.75422C19.6217 8.37174 19.4965 8.14921 19.4687 8.09358C19.4618 8.10401 19.4235 8.17355 19.3505 8.3022C19.2601 8.45867 19.2184 8.57689 19.2184 8.66034C19.2184 8.75074 19.2601 8.83419 19.3435 8.91068C19.3887 9.27925 19.4583 9.71388 19.5522 10.2215C19.6078 10.5206 19.6912 10.9587 19.806 11.5324C19.9207 12.1061 20.0007 12.5268 20.0529 12.7911C20.0876 13.0206 20.1189 13.2466 20.1537 13.4761C20.1537 13.5665 20.1328 13.643 20.0911 13.7055C20.0494 13.7681 19.9798 13.8168 19.879 13.8446C19.7051 13.8933 19.5974 13.9246 19.5522 13.935C19.4131 13.9698 19.2983 13.9837 19.2114 13.9837C19.1175 13.9837 19.0341 13.9733 18.9645 13.9489C18.895 13.9281 18.8324 13.8863 18.7768 13.8307C18.7559 13.7855 18.742 13.7368 18.742 13.6812C18.742 13.643 18.7559 13.5699 18.7803 13.4656C18.8046 13.3613 18.8115 13.2779 18.8011 13.2222L18.6168 13.2048C18.3282 13.3648 18.0883 13.4934 17.9006 13.5873C17.6224 13.7264 17.3651 13.8307 17.1321 13.9037C16.8088 13.9976 16.5167 14.0463 16.2559 14.0463C15.9951 14.0463 15.7483 14.0046 15.4875 13.9211C15.1815 13.7751 14.9694 13.5213 14.8547 13.1527C14.7886 12.8119 14.7225 12.4747 14.653 12.1339L14.3018 8.3022C14.2357 8.3926 14.1697 8.47953 14.1106 8.56993C14.0341 8.69163 13.9924 8.8029 13.9924 8.90373C13.9924 8.98023 14.0063 9.04977 14.0341 9.1054L14.4026 12.7424C14.5035 13.3196 14.5904 13.6951 14.6599 13.869C14.8268 14.2758 15.1015 14.5261 15.4875 14.62C15.6822 14.6652 15.8561 14.6861 16.0125 14.6861C16.1898 14.6861 16.3602 14.6687 16.5202 14.6374C16.6801 14.6026 16.8713 14.5505 17.0869 14.474C17.3025 14.3975 17.5946 14.2688 17.9631 14.0845C18.1579 13.9837 18.3317 13.8968 18.4882 13.8272C18.516 13.8655 18.5299 13.9037 18.5299 13.9455C18.5229 13.9837 18.5195 14.022 18.5125 14.0567C18.5056 14.0915 18.5056 14.1332 18.5056 14.1784C18.5056 14.2271 18.5125 14.2723 18.5264 14.3105C18.5403 14.3488 18.5716 14.3905 18.6238 14.4357C18.6412 14.4531 18.7177 14.4983 18.8567 14.5678C18.9332 14.5783 18.9889 14.5852 19.0236 14.5852H19.1245C19.3296 14.5852 19.5139 14.5539 19.6739 14.4879C19.8338 14.4253 19.9833 14.321 20.1154 14.1819C20.1989 13.9802 20.258 13.7751 20.2893 13.5595C20.3241 13.3439 20.338 13.1283 20.338 12.9058C20.338 12.7285 20.3275 12.5442 20.3102 12.3564C20.2893 12.1687 20.2615 11.967 20.2232 11.7549L20.2302 11.7688ZM15.9152 11.0769C15.8491 11.3064 15.783 11.4768 15.7204 11.5915C15.6579 11.7062 15.5848 11.8001 15.5083 11.8801C15.6022 11.7306 15.6822 11.5637 15.7448 11.3829C15.8074 11.2021 15.8421 11.0247 15.8421 10.8544C15.8421 10.6596 15.8004 10.4858 15.717 10.3363C15.6718 10.232 15.6266 10.1242 15.5848 10.0199C15.5848 9.96423 15.6127 9.91903 15.6683 9.88774C15.863 10.1033 15.9604 10.3815 15.9604 10.7222C15.9604 10.8335 15.9465 10.9517 15.9186 11.0804L15.9152 11.0769ZM17.6015 11.9705C17.5841 12.0157 17.5668 12.0609 17.5529 12.1026C17.5355 12.1478 17.5077 12.1687 17.4694 12.1687C17.452 12.1687 17.4277 12.1617 17.3929 12.1443C17.2816 12.1895 17.2086 12.3286 17.1773 12.5651C17.1426 12.8015 17.1078 12.9545 17.0695 13.0206C16.9305 12.7876 16.7949 12.5546 16.6592 12.3182L16.6001 12.426C16.5515 12.4051 16.5097 12.3877 16.475 12.3773C16.4402 12.3669 16.4228 12.3425 16.4159 12.3112C16.4159 12.2104 16.4193 12.1374 16.4298 12.0887C16.4367 12.04 16.468 12.0018 16.5167 11.967C16.6558 12.0122 16.7705 12.1165 16.8574 12.2834C16.9235 12.4295 16.993 12.5685 17.0661 12.7076C17.0661 12.7007 17.1008 12.5616 17.1669 12.2904C17.2051 12.1165 17.2677 11.9914 17.3512 11.9079C17.4555 11.9079 17.5389 11.9288 17.6015 11.967V11.9705ZM13.2865 10.4093C13.2413 10.5032 13.21 10.5727 13.1857 10.6179C13.1474 10.7014 13.0953 10.764 13.0362 10.8092C13.0153 10.7744 12.9388 10.7361 12.8102 10.6875C12.6815 10.6388 12.6293 10.5692 12.6502 10.4754L12.9006 10.0338C13.0049 10.079 13.0883 10.1103 13.1439 10.1346C13.2483 10.1833 13.3039 10.2459 13.3039 10.3189C13.3039 10.3571 13.2969 10.3884 13.2865 10.4093ZM12.9353 8.44824C12.8345 8.59427 12.6398 8.70554 12.3512 8.78899C11.9513 8.90721 11.7114 8.98371 11.6349 9.02195C10.8908 9.32793 10.1433 9.63391 9.39917 9.93989C9.39917 9.84601 9.43394 9.76604 9.50695 9.70693C9.52434 9.6965 9.67385 9.61653 9.95897 9.46354C10.1641 9.39052 10.5327 9.25839 11.0612 9.06368C11.8679 8.76465 12.4937 8.55603 12.9388 8.44476L12.9353 8.44824ZM11.475 10.1103C11.4854 10.0651 11.4645 10.0233 11.4089 9.9851C11.3533 9.94685 11.2907 9.91208 11.2177 9.88426C11.1412 9.94685 11.0821 10.0268 11.0438 10.1277C10.9986 10.2841 10.9534 10.4371 10.9117 10.5866C10.8769 10.4927 10.8456 10.3954 10.8108 10.2946C10.7378 10.0894 10.637 9.96771 10.5118 9.93642C10.4631 9.97467 10.4284 10.0233 10.4075 10.079C10.3866 10.1346 10.3727 10.1798 10.3623 10.2111C10.5188 10.2111 10.63 10.3015 10.6961 10.4788C10.8004 10.757 10.8561 10.8996 10.863 10.903C10.9465 10.8126 11.016 10.6492 11.0716 10.4093C11.1064 10.2633 11.1342 10.1659 11.162 10.1103L11.3046 10.1937C11.3428 10.2215 11.3741 10.225 11.395 10.2076C11.4159 10.1868 11.4437 10.1555 11.4784 10.1103H11.475ZM9.11405 9.71041L9.01321 9.91208C9.05146 9.80081 9.08275 9.68954 9.11057 9.57828C9.13839 9.46701 9.14882 9.35923 9.14882 9.25144C9.14882 9.03586 9.09666 8.85505 8.98887 8.70901L9.09666 8.5595C9.20097 8.70554 9.25661 8.88982 9.25661 9.11931C9.25661 9.3488 9.20793 9.54003 9.11405 9.71041ZM12.5111 12.732C12.1704 12.9267 11.8366 13.1179 11.5028 13.3092C11.1064 13.5317 10.7448 13.643 10.4179 13.643C10.2962 13.643 10.1815 13.6325 10.0772 13.6082C9.86161 13.5039 9.69124 13.3439 9.57302 13.1283C9.4548 12.9128 9.39221 12.6833 9.39221 12.4329C9.56606 12.2278 9.80598 12.0713 10.1189 11.967C10.4319 11.8627 10.7517 11.8071 11.0786 11.8071C11.1168 11.8071 11.1759 11.8071 11.249 11.8105C11.322 11.814 11.4298 11.8245 11.5688 11.8488C11.5063 11.7271 11.3985 11.6332 11.242 11.5741C11.1655 11.5463 11.0229 11.5115 10.8178 11.4733C10.7691 11.4628 10.6926 11.4559 10.5918 11.4559C10.3067 11.4559 10.0389 11.5428 9.78164 11.7132C9.55216 11.8697 9.34701 12.0818 9.16273 12.3564C9.08623 12.4886 9.04451 12.645 9.04451 12.8224C9.04451 12.9997 9.07928 13.184 9.1523 13.3683C9.22531 13.556 9.31572 13.7299 9.42698 13.8968C9.21141 13.935 9.02364 13.8446 8.86718 13.6221C8.70723 13.2779 8.59597 12.8641 8.54033 12.3877C8.51252 12.1374 8.49166 11.7028 8.47427 11.0873C8.45688 10.4684 8.42907 10.0199 8.39082 9.73475C8.39082 9.28273 8.33171 8.85158 8.21697 8.44129C8.15438 8.47606 8.09875 8.54559 8.05007 8.64991C7.97705 8.79942 7.93533 8.88287 7.9249 8.90025C8.02921 9.56089 8.1057 10.0964 8.1509 10.5032C8.21697 11.1047 8.25174 11.6471 8.25174 12.1304C8.25174 12.6763 8.27608 13.0831 8.32823 13.3474C8.41168 13.782 8.58206 14.1332 8.83588 14.3975C9.02017 14.4983 9.21836 14.547 9.43741 14.547C9.65647 14.547 9.90334 14.4914 10.2058 14.3801C10.2684 14.3592 10.5049 14.2584 10.9221 14.0811C10.9777 14.0359 11.2629 13.8898 11.774 13.6395C11.9861 13.5352 12.1426 13.4343 12.2399 13.3404L12.5077 12.732H12.5111ZM13.9124 14.8669C13.8567 14.9573 13.7768 15.0407 13.669 15.1172C13.5855 15.1798 13.4812 15.2389 13.3595 15.3015C13.13 15.3954 12.9075 15.4893 12.685 15.5866C12.7476 15.5032 12.831 15.4267 12.9353 15.3537C13.0118 15.305 13.1231 15.2459 13.2656 15.1833C13.4082 15.1207 13.516 15.072 13.5855 15.0373C13.7177 14.9747 13.8289 14.919 13.9124 14.8703V14.8669ZM13.6551 13.3578C13.6551 13.7542 13.516 14.095 13.2378 14.3836C13.0535 14.5783 12.7441 14.7939 12.3129 15.0268C11.8053 15.305 11.4889 15.4927 11.3602 15.5866C10.6648 15.7188 9.97288 15.8578 9.28095 15.9969C10.0424 15.7014 10.7517 15.378 11.4089 15.0199C12.1391 14.6235 12.7997 14.1888 13.3943 13.709C13.3004 13.4309 13.2065 13.1527 13.1196 12.8745C13.064 12.6972 13.0292 12.5581 13.0188 12.4573C13.0083 12.3564 13.0014 12.273 13.0014 12.2069C13.0014 12.0887 13.0153 11.9809 13.0431 11.8801C13.0709 11.7793 13.1196 11.6784 13.1857 11.5811C13.3317 11.6854 13.4499 11.8175 13.5438 11.9705C13.6377 12.1235 13.6759 12.266 13.6516 12.4016C13.6307 12.4121 13.6029 12.4016 13.5751 12.3669C13.5473 12.3321 13.5229 12.3182 13.4986 12.3182C13.4777 12.3808 13.4638 12.4434 13.4638 12.5094C13.4638 12.5998 13.4951 12.7389 13.5542 12.9267C13.6168 13.1144 13.6446 13.2605 13.6446 13.3613L13.6551 13.3578ZM6.9548 9.1506C6.9548 9.21667 6.94437 9.27578 6.92698 9.32445C6.90612 9.37313 6.88526 9.42181 6.85744 9.46701C6.82267 9.4844 6.79485 9.49135 6.76704 9.49135C6.72184 9.49135 6.68359 9.47745 6.64882 9.44615C6.61405 9.41486 6.58623 9.37661 6.56537 9.32445C6.55841 9.28968 6.55841 9.24101 6.55841 9.17494C6.55841 8.94198 6.61405 8.75422 6.72531 8.61514C6.70793 8.68816 6.69402 8.75422 6.68359 8.81681C6.67316 8.87939 6.6662 8.93503 6.6662 8.9837C6.6662 9.0602 6.67663 9.12279 6.69402 9.16451C6.71488 9.20624 6.7427 9.241 6.78095 9.26882C6.81919 9.28621 6.84701 9.27926 6.8644 9.25144C6.88178 9.22362 6.89917 9.1958 6.92351 9.16799L6.95828 9.1506H6.9548ZM5.34492 8.5908L5.31015 8.77508C5.27191 8.78551 5.21975 8.76813 5.16064 8.7264C5.09805 8.6812 5.0459 8.66381 5.0007 8.67772C4.95202 8.77856 4.91377 8.95936 4.89291 9.22014C4.87204 9.48092 4.82337 9.65825 4.75035 9.75561C4.67385 9.57133 4.61474 9.43572 4.5765 9.34532C4.50348 9.18537 4.43046 9.05325 4.35049 8.95241C4.3331 8.99761 4.29833 9.01847 4.2427 9.01847C4.18707 9.01847 4.14534 9.00457 4.11752 8.97675C4.10709 8.92112 4.10014 8.87244 4.10014 8.82724C4.10014 8.7264 4.12448 8.64643 4.17663 8.58384C4.35396 8.63252 4.5 8.79595 4.61127 9.06716C4.68776 9.25492 4.75035 9.38009 4.79555 9.44267C4.81294 9.26534 4.83032 9.08106 4.85466 8.88635C4.87552 8.69511 4.93115 8.53864 5.02156 8.41347C5.07719 8.41347 5.1363 8.43781 5.20236 8.48301C5.26495 8.53169 5.31363 8.56646 5.3484 8.58732L5.34492 8.5908ZM6.76356 10.5519C6.72531 10.6249 6.67316 10.7048 6.60362 10.7952C6.56537 10.8439 6.4993 10.9239 6.40195 11.0282C6.1968 10.9169 5.99166 10.8057 5.78303 10.6944C5.69263 10.8057 5.62309 10.8857 5.57441 10.9378C5.48401 11.0317 5.40056 11.0804 5.32406 11.0804C5.258 11.0804 5.18846 11.0456 5.11544 10.9726C5.10501 10.9552 5.06328 10.9309 4.99026 10.8961C4.91725 10.8613 4.88248 10.8335 4.88248 10.8057C4.88248 10.7709 4.89638 10.7431 4.9242 10.7188C4.95202 10.6944 4.99374 10.6423 5.04937 10.5658C5.13978 10.4475 5.21627 10.3745 5.28234 10.3398L5.83171 10.6075L6.25591 10.3085L6.75661 10.5588L6.76356 10.5519ZM4.84423 12.3947C4.84423 12.4886 4.82684 12.5755 4.79555 12.6485C4.76078 12.725 4.70862 12.7806 4.63561 12.8189C4.58693 12.8189 4.54172 12.798 4.50695 12.7598C4.47218 12.7215 4.43741 12.6729 4.4096 12.6172C4.40264 12.5894 4.40264 12.5477 4.40264 12.492C4.40264 12.3634 4.44089 12.2208 4.52086 12.0574C4.58693 11.9392 4.63213 11.8557 4.65299 11.8071C4.60431 11.9809 4.55216 12.1513 4.50348 12.3252C4.50348 12.4295 4.54868 12.5164 4.63561 12.5824C4.69124 12.5929 4.73296 12.5755 4.76078 12.5268C4.7886 12.4781 4.81641 12.4329 4.84423 12.3877V12.3947ZM7.60501 13.6882C7.53199 13.6777 7.4694 13.6708 7.41725 13.6708H7.25383C6.92003 13.6708 6.4541 13.7264 5.85257 13.8377C5.41446 13.9211 5.10501 13.9767 4.93115 14.0011C4.7573 14.0254 4.62517 14.0428 4.54172 14.0498C4.45828 14.0567 4.3331 14.0637 4.1662 14.0637C3.86718 14.0637 3.5751 14.022 3.29694 13.9385C3.01878 13.8551 2.76147 13.7229 2.52851 13.5456C2.39638 13.4274 2.32684 13.2813 2.32684 13.104C2.32684 12.9754 2.37552 12.8119 2.4694 12.6103C2.51808 12.506 2.5911 12.353 2.68498 12.1583C2.71975 12.1965 2.80668 12.2174 2.95271 12.2174C3.07441 12.1443 3.17177 12.0157 3.24478 11.8349C3.28303 11.7341 3.33866 11.5776 3.41168 11.369C3.36648 11.369 3.32823 11.4037 3.28999 11.4698C3.25522 11.5359 3.22045 11.5811 3.19263 11.5984C3.16481 11.6193 3.13004 11.6263 3.08484 11.6263C2.99096 11.6263 2.91446 11.5741 2.85883 11.4663C2.82406 11.3377 2.81015 11.216 2.81015 11.0978C2.81015 10.8648 2.87274 10.6005 2.99444 10.305C3.0605 10.1381 3.17177 9.89122 3.32823 9.5609C3.04312 10.0546 2.85883 10.4093 2.76843 10.6214C2.5911 11.0456 2.5007 11.4489 2.5007 11.8384C2.51113 11.894 2.51808 11.9322 2.51808 11.9566C2.51808 12.0679 2.47288 12.2 2.38595 12.3564C2.16342 12.7528 2.0452 12.9754 2.03477 13.024C2.03477 13.0519 2.02782 13.0936 2.01739 13.1457C2.00695 13.1979 2 13.2779 2 13.3822C2 13.5769 2.03477 13.7577 2.10083 13.9211C2.1669 14.0845 2.27816 14.2132 2.43463 14.3105C2.66412 14.4288 2.87969 14.5053 3.08832 14.547C3.29694 14.5887 3.53686 14.6096 3.81154 14.6096C4.7573 14.4705 5.70654 14.3279 6.65577 14.1854C6.6662 14.1854 6.71488 14.1819 6.79833 14.1715C6.88178 14.1645 6.94437 14.1576 6.98957 14.1576C7.10083 14.1576 7.18776 14.1958 7.24687 14.2758C7.17038 14.3766 7.01391 14.5331 6.78095 14.7521C6.41238 15.0929 6.20723 15.3815 6.16203 15.6214C6.54103 15.2528 6.92003 14.8877 7.30598 14.5192C7.36161 14.4462 7.42072 14.3731 7.47983 14.2932C7.59805 14.1332 7.65369 13.9941 7.65369 13.8829C7.65369 13.8099 7.63282 13.7438 7.59458 13.6812L7.60501 13.6882Z" fill="white"/>
</svg>
