<svg width="24" height="24" viewBox="0 0 24 24" fill="none" xmlns="http://www.w3.org/2000/svg">
<path fill-rule="evenodd" clip-rule="evenodd" d="M19.9619 8.34009C19.9383 8.4147 19.9148 8.47361 19.8951 8.52074C19.8441 8.63462 19.7852 8.72887 19.7145 8.80348C19.6517 8.81133 19.5888 8.79169 19.5299 8.74849C19.471 8.7053 19.4278 8.65032 19.4043 8.58749C19.3925 8.51288 19.3846 8.4579 19.3846 8.42648C19.3846 8.30082 19.42 8.17516 19.4867 8.0495C19.5888 7.90027 19.6635 7.78638 19.7145 7.71177C19.7145 7.76282 19.6949 7.82174 19.6595 7.89242C19.5731 8.05735 19.526 8.1673 19.526 8.23013C19.526 8.28511 19.5378 8.34009 19.5653 8.39114C19.6203 8.48539 19.6792 8.53252 19.7341 8.53252C19.7577 8.53252 19.7813 8.5168 19.8048 8.48538C19.8284 8.45397 19.848 8.42256 19.8677 8.39114C19.8873 8.35972 19.9187 8.34402 19.9619 8.34402V8.34009ZM19.7263 9.92265C19.6831 10.0287 19.6203 10.1347 19.5378 10.2329C19.4553 10.3311 19.3729 10.4332 19.2943 10.5353L18.6621 10.1033C18.5993 10.1544 18.5286 10.2329 18.4461 10.3389C18.344 10.4842 18.2812 10.5706 18.2498 10.602C18.0691 10.5274 17.9356 10.4685 17.8531 10.4214C17.6961 10.335 17.6293 10.2407 17.6568 10.1386C17.8217 9.93051 17.916 9.81663 17.9395 9.78914C18.0141 9.71845 18.0887 9.68704 18.1673 9.68704C18.2537 9.68704 18.3361 9.73416 18.4108 9.82841C18.4422 9.87161 18.4775 9.90695 18.5129 9.92658C18.5521 9.95014 18.5835 9.95799 18.615 9.95799C18.6896 9.95799 18.7877 9.87946 18.9134 9.7263C19.0351 9.57315 19.1333 9.49461 19.2119 9.49461C19.2943 9.49461 19.3807 9.5653 19.475 9.70274C19.5182 9.73416 19.5653 9.76557 19.6163 9.80092C19.6674 9.83626 19.7027 9.87554 19.7302 9.91873L19.7263 9.92265ZM18.3401 7.42511C17.3976 7.6568 16.4591 7.9042 15.5284 8.15945C14.5938 8.41863 13.6984 8.68173 12.8384 8.95269C12.5439 9.03909 12.2494 9.12549 11.9627 9.20795C11.6171 9.31398 11.3894 9.48676 11.2833 9.7263C11.3265 9.68703 11.3697 9.6517 11.4168 9.61243C13.5531 8.92129 15.7601 8.28512 18.0338 7.70785C18.0966 7.68429 18.1516 7.64502 18.2026 7.59397C18.2537 7.54292 18.3008 7.48794 18.344 7.42511H18.3401ZM16.5769 10.818C16.5219 10.9122 16.4551 10.9947 16.3844 11.0693C16.3138 11.1439 16.2313 11.1871 16.1449 11.2068C16.1056 11.2264 16.0664 11.2343 16.0232 11.2343C15.9054 11.2343 15.8111 11.1754 15.7483 11.0536C15.7169 10.9712 15.7012 10.9005 15.7012 10.8376C15.7012 10.7238 15.7365 10.6099 15.8033 10.4881C15.8739 10.3703 15.9407 10.2525 16.0114 10.1386C15.9603 10.2525 15.925 10.3389 15.9093 10.4017C15.8897 10.4646 15.8818 10.5431 15.8818 10.6374C15.8818 10.7002 15.8897 10.7591 15.9093 10.818C15.9525 10.9201 16.0271 10.9672 16.1371 10.9672C16.1763 10.9672 16.2156 10.9594 16.2627 10.9437C16.3098 10.928 16.3609 10.9083 16.4119 10.8808C16.463 10.8533 16.4905 10.8259 16.4905 10.7866C16.4905 10.763 16.4826 10.7316 16.463 10.6963C16.4434 10.6609 16.4276 10.6334 16.4119 10.606C16.3962 10.5824 16.3491 10.5392 16.2706 10.4842C16.192 10.4292 16.1528 10.3782 16.1528 10.335C16.1528 10.3114 16.1763 10.2722 16.2274 10.2211C16.247 10.1975 16.2706 10.1818 16.302 10.1818C16.3255 10.1818 16.3609 10.1975 16.4002 10.229C16.4394 10.2604 16.4787 10.2879 16.518 10.3153C16.6122 10.3782 16.6593 10.4606 16.6593 10.5588C16.6593 10.6413 16.6318 10.7238 16.5729 10.8141L16.5769 10.818ZM21.9961 9.59279C21.9961 9.34146 21.9529 9.05088 21.8626 8.71708C21.7762 8.38329 21.6112 7.93954 21.3717 7.38977C21.301 7.50758 21.2303 7.63323 21.1596 7.76282C21.0889 7.89241 21.0654 8.01416 21.0889 8.12411L21.4856 12.9032L21.5052 13.9124C21.3599 13.9871 21.2107 14.042 21.0536 14.0735C20.8965 14.1049 20.7277 14.1206 20.5431 14.1206C20.2407 14.1206 19.9776 14.0813 19.7499 13.9988C19.8362 13.7475 19.9069 13.5315 19.9541 13.3548C20.0012 13.1742 20.0247 12.9935 20.0247 12.8129C20.0247 12.6323 19.9973 12.4634 19.9383 12.2945C19.8245 12.0982 19.6792 12.0039 19.4946 12.0039C19.1412 12.2003 18.8741 12.4673 18.6856 12.8129C18.4972 13.1585 18.4029 13.5158 18.4029 13.8889C18.0024 14.046 17.5704 14.1677 17.1109 14.2502C16.6515 14.3366 16.192 14.3758 15.7365 14.3758C15.281 14.3758 14.7862 14.3444 14.3149 14.2776C13.8437 14.2109 13.4235 14.1127 13.0505 13.9792C12.8227 13.8771 12.6381 13.7436 12.4928 13.5747C12.324 13.3784 12.2376 13.1781 12.2376 12.97C11.9156 13.3077 11.6014 13.6493 11.2873 13.9871C11.0595 14.2148 10.8317 14.3248 10.6 14.3248C10.5254 14.3248 10.4665 14.3248 10.4312 14.3169C10.2623 14.2423 10.1327 14.1284 10.0463 13.9831C9.95994 13.8339 9.90497 13.665 9.88533 13.4687V12.3574C9.88533 11.0929 9.85392 10.0954 9.79501 9.3611C9.73611 8.62676 9.65757 8.01808 9.56332 7.54292C9.55154 7.53113 9.52405 7.54292 9.48871 7.58219C9.38268 7.66858 9.30414 7.77069 9.25702 7.88064C9.2099 7.9906 9.18633 8.1084 9.18633 8.23406C9.18633 8.35973 9.2099 8.50895 9.25309 8.69744C9.33949 9.08228 9.38661 9.33361 9.38661 9.45927C9.38661 9.5221 9.38661 9.56923 9.37876 9.60065C9.44944 10.0719 9.48871 10.606 9.50442 11.2068C9.52013 11.8076 9.53583 12.4084 9.55547 13.0053C9.5751 13.6061 9.62615 14.1323 9.71647 14.584C9.77145 14.7096 9.86177 14.8235 9.97958 14.9217C10.0974 15.0238 10.2191 15.0866 10.3369 15.118C10.3683 15.1259 10.4115 15.1259 10.4704 15.1259C10.6982 15.1259 10.926 15.012 11.1577 14.7882C11.3265 14.5918 11.4993 14.3994 11.676 14.203C11.676 14.8392 11.9627 15.3301 12.5321 15.6835C12.6146 15.5775 12.6892 15.4204 12.7599 15.2123C12.8541 14.9295 12.9091 14.7646 12.9287 14.7214C13.2625 14.8588 13.612 14.957 13.9733 15.0198C14.3385 15.0788 14.7351 15.1102 15.1592 15.1102C15.5559 15.1102 15.9446 15.0866 16.3334 15.0395C16.7182 14.9924 17.107 14.9256 17.4958 14.8353C17.6214 14.8235 17.8217 14.7607 18.1005 14.6507C18.3754 14.5408 18.5796 14.4858 18.7131 14.4858C18.7877 14.4858 18.8545 14.4936 18.9173 14.5133C18.9762 14.5329 19.0391 14.5682 19.1019 14.6154C19.3218 14.6978 19.5339 14.7607 19.742 14.8078C19.9501 14.8549 20.17 14.8785 20.4017 14.8785C20.602 14.8785 20.8023 14.8471 20.9947 14.7882C21.191 14.7293 21.3521 14.6429 21.4856 14.529C21.6112 14.2345 21.6976 13.9478 21.7447 13.6729C21.7919 13.398 21.8154 13.0839 21.8154 12.7304C21.8154 12.5655 21.8154 12.4516 21.8115 12.3849C21.8115 12.3181 21.7958 12.1571 21.7801 11.8979C21.7801 11.6584 21.7251 11.089 21.6112 10.1936C21.5602 9.79699 21.5366 9.46713 21.5366 9.20402C21.5798 9.16475 21.623 9.12549 21.6701 9.08229C21.6937 9.12156 21.7487 9.20794 21.8311 9.34539C21.8861 9.44749 21.945 9.52604 22 9.58887L21.9961 9.59279ZM18.5561 15.8131C18.5639 15.8877 18.5443 15.9702 18.5011 16.0566C18.4814 16.088 18.4304 16.1705 18.3401 16.3C18.2537 16.3079 18.1791 16.2765 18.1202 16.2136C18.0613 16.1508 18.0141 16.0723 17.9827 15.978C17.9827 15.8406 18.0063 15.7188 18.0495 15.6167C18.0927 15.5146 18.1673 15.4008 18.2772 15.283C18.2772 15.3222 18.2537 15.3851 18.2026 15.4714C18.1516 15.5578 18.128 15.6364 18.128 15.6992C18.128 15.7424 18.1398 15.7856 18.1673 15.8327C18.2066 15.9388 18.2655 16.0055 18.3479 16.0291C18.4029 16.0369 18.45 16.0016 18.4893 15.9309C18.5286 15.8602 18.5521 15.8209 18.5639 15.8131H18.5561ZM10.8003 9.20795C10.8082 9.12156 10.8121 9.04302 10.816 8.97233C10.816 8.90165 10.8199 8.84274 10.8199 8.79169C10.8199 8.59141 10.8042 8.4147 10.7689 8.26547C10.7336 8.11625 10.6747 7.97488 10.5843 7.84137C10.5961 7.79032 10.6079 7.75497 10.6118 7.73926C10.6432 7.66465 10.6825 7.62146 10.7336 7.60575C10.8906 7.86493 10.9692 8.15159 10.9692 8.4736C10.9692 8.73671 10.9142 8.98412 10.8003 9.20795ZM13.7769 10.7355C13.7691 10.7905 13.7298 10.8219 13.6552 10.8219C13.561 10.8101 13.4903 10.8023 13.4471 10.8023C13.3332 10.8023 13.2782 10.873 13.2782 11.0183C13.2586 11.1675 13.2232 11.3324 13.1643 11.5091C13.0819 11.7212 13.023 11.8822 12.9837 11.9882C12.913 11.9254 12.8266 11.7251 12.7206 11.3835C12.6381 11.1125 12.5046 10.979 12.3161 10.979C12.2651 10.9476 12.2415 10.8965 12.2415 10.8298C12.2415 10.7866 12.2572 10.7159 12.2886 10.6216C12.3279 10.547 12.3554 10.4999 12.375 10.4803C12.4261 10.4292 12.4771 10.4253 12.536 10.4724C12.6224 10.5981 12.7127 10.7827 12.7991 11.0301C12.913 11.3442 12.9837 11.5366 13.0151 11.6034C13.0976 11.3089 13.1643 11.089 13.2232 10.9437C13.3253 10.6845 13.4706 10.5431 13.667 10.5196C13.7063 10.551 13.7377 10.5785 13.7652 10.5981C13.7927 10.6217 13.8084 10.6452 13.8084 10.6688C13.8084 10.6806 13.8005 10.7041 13.7809 10.7355H13.7769ZM14.6919 12.8561C14.6919 12.9503 14.6723 13.0367 14.637 13.1192C14.6016 13.2017 14.5388 13.2684 14.4563 13.3155C14.4131 13.3155 14.3699 13.292 14.3228 13.2488C14.2757 13.2056 14.2521 13.1624 14.2364 13.1153C14.2285 13.0446 14.2285 12.9975 14.2285 12.966C14.2285 12.6833 14.2953 12.4202 14.4249 12.1728C14.4249 12.1964 14.4131 12.2749 14.3935 12.4084C14.3699 12.5419 14.3621 12.6401 14.3621 12.7108C14.3621 12.8443 14.4013 12.9503 14.4759 13.0328C14.527 13.0407 14.5663 13.021 14.5977 12.9778C14.6291 12.9346 14.6605 12.8914 14.6919 12.8561ZM7.66267 9.20795C7.63126 9.31006 7.60377 9.39252 7.57628 9.4632C7.55272 9.53389 7.5056 9.59279 7.44276 9.64384C7.37993 9.63599 7.32496 9.61242 7.27783 9.5653C7.23071 9.51817 7.18359 9.45534 7.14039 9.38073C7.14039 9.14904 7.20322 8.89772 7.32888 8.62676C7.43491 8.39507 7.54487 8.16338 7.65875 7.92776C7.53308 8.28119 7.41135 8.62676 7.28961 8.97233C7.28961 9.0548 7.30532 9.12548 7.34066 9.18831C7.37601 9.25114 7.43491 9.30612 7.52523 9.35717L7.59984 9.20795H7.65482H7.66267ZM6.20185 8.05735L6.11545 8.30082C6.0644 8.25762 6.01335 8.20657 5.95445 8.15552C5.89554 8.10447 5.84057 8.07699 5.78559 8.07699C5.73454 8.17124 5.70312 8.37936 5.69134 8.69744C5.67956 9.01553 5.60495 9.22366 5.47536 9.31791C5.42038 9.25508 5.34577 9.10978 5.25545 8.88594C5.16513 8.65818 5.07088 8.53644 4.97663 8.51681C4.81956 8.54037 4.71746 8.50502 4.67426 8.40292C4.67426 8.30867 4.68997 8.21836 4.71746 8.13589C4.74494 8.05342 4.79599 7.97881 4.86275 7.92383C5.01983 8.0063 5.15335 8.1673 5.25938 8.40292C5.4086 8.72886 5.50285 8.91735 5.54212 8.9684C5.56175 8.76813 5.58531 8.56 5.61673 8.34009C5.64814 8.12018 5.71098 7.94346 5.80522 7.79817C5.89162 7.78638 5.97016 7.80209 6.04084 7.84922C6.11153 7.89634 6.16258 7.96311 6.20185 8.05343V8.05735ZM6.02121 10.7355C5.94659 10.9005 5.89162 11.0222 5.8602 11.1047C5.78951 11.2539 5.70705 11.3364 5.60495 11.3481C5.58139 11.2971 5.48714 11.2343 5.33006 11.1597C5.17298 11.085 5.09444 11.0143 5.09444 10.9515C5.09444 10.8965 5.13371 10.8298 5.20833 10.7552C5.2633 10.6609 5.31828 10.5706 5.36933 10.4881C5.42038 10.4017 5.46358 10.3468 5.50285 10.3232C5.58924 10.3625 5.68349 10.4175 5.77773 10.4921C5.82093 10.5313 5.9034 10.6099 6.02121 10.7355ZM11.46 15.4675C11.4365 15.55 11.409 15.6325 11.3854 15.7228C11.3422 15.8249 11.2794 15.8838 11.1969 15.9034C11.0477 15.9034 10.9299 15.8484 10.8474 15.7346C10.6825 15.9741 10.4351 16.1665 10.1013 16.3079C9.96387 16.3707 9.65364 16.4728 9.1667 16.6103C9.68898 16.3197 10.2113 16.0369 10.7296 15.7542C10.7846 15.6521 10.8317 15.5735 10.871 15.5186C10.9417 15.4047 11.0359 15.2947 11.1616 15.1887C11.2441 15.1691 11.3069 15.1966 11.3501 15.2633C11.3815 15.334 11.4168 15.4008 11.4522 15.4714L11.46 15.4675ZM7.09719 13.5826C7.09719 13.6886 7.07756 13.7868 7.03436 13.881C6.99509 13.9714 6.93226 14.042 6.84979 14.0931C6.8066 14.0813 6.75947 14.0617 6.71235 14.0303C6.66523 14.0028 6.63774 13.9713 6.63381 13.936C6.62596 13.9007 6.62596 13.8732 6.62596 13.8496V13.8064C6.62596 13.6808 6.65737 13.5512 6.72413 13.4216C6.79089 13.2881 6.85372 13.1624 6.91655 13.0367C6.8655 13.2135 6.81445 13.3902 6.76733 13.563C6.76733 13.6651 6.8066 13.7436 6.88121 13.7986C6.92441 13.8064 6.95975 13.7711 6.99116 13.7004C7.02258 13.6297 7.054 13.5904 7.10112 13.5826H7.09719ZM8.34989 12C8.38131 11.9607 8.39702 11.9097 8.39702 11.839C8.39702 11.7369 8.33418 11.5838 8.20852 11.3756C8.05144 11.1125 7.96112 10.9554 7.93363 10.9044C7.86295 10.9358 7.80012 11.0104 7.74514 11.1322C7.65875 11.3128 7.61162 11.407 7.60377 11.4149C7.78441 12.3063 7.96898 13.1977 8.14962 14.0931C7.70194 14.4936 7.23464 14.8235 6.73984 15.0748C6.24504 15.3261 5.70705 15.5225 5.12193 15.6678C4.89024 15.711 4.72531 15.7385 4.62714 15.7424C4.52896 15.7503 4.41901 15.7503 4.29334 15.7503C3.93599 15.7503 3.62576 15.6953 3.35873 15.5893C3.05242 15.4636 2.8011 15.2633 2.61261 14.9845C2.50658 14.8471 2.43197 14.7057 2.3927 14.5643C2.35343 14.4229 2.32986 14.2541 2.32986 14.0617C2.32986 13.83 2.36913 13.5669 2.44375 13.2684C2.48694 13.0878 2.56156 12.8443 2.67151 12.5419L2.88749 12.5891C3.03279 12.5066 3.14275 12.2985 3.21736 11.9568C3.26841 11.7369 3.30375 11.5955 3.33124 11.5327C3.28804 11.5641 3.24877 11.6191 3.21736 11.6937C3.18594 11.7683 3.15453 11.8194 3.12311 11.8429C3.07206 11.8547 3.02886 11.8508 2.98959 11.8351C2.95032 11.8154 2.90713 11.784 2.85608 11.7408C2.77361 11.5523 2.73434 11.356 2.73434 11.1557C2.73434 10.8848 2.8011 10.5981 2.93069 10.2879C3.00137 10.1229 3.13882 9.86375 3.34695 9.5064C3.07599 9.8716 2.86786 10.2211 2.71471 10.551C2.52621 10.9672 2.43197 11.3599 2.43197 11.7291C2.43197 12.0118 2.48694 12.2788 2.59297 12.5302C2.43589 12.8443 2.31023 13.1428 2.21991 13.4255C2.12959 13.7082 2.0589 14.0185 2.00785 14.3601C2 14.4151 2 14.4976 2 14.6036C2 14.9256 2.07069 15.2162 2.20813 15.4793C2.34557 15.7424 2.54977 15.9702 2.82073 16.1587C3.05242 16.2647 3.29197 16.3472 3.53151 16.3982C3.77499 16.4532 4.01453 16.4767 4.25407 16.4767C4.49362 16.4767 4.73316 16.4532 4.96093 16.41C5.18869 16.3668 5.42038 16.304 5.65993 16.2215C6.09189 16.0644 6.53171 15.8406 6.97153 15.5539C7.36815 15.2947 7.76085 14.9963 8.14962 14.6507C8.2635 14.4936 8.34204 14.3248 8.38916 14.1481C8.43629 13.9674 8.45985 13.775 8.45985 13.5669C8.45985 13.3038 8.42058 13.0053 8.34596 12.6715C8.30669 12.5223 8.23601 12.2513 8.12998 11.8626C8.20067 11.9058 8.27135 11.949 8.34596 11.9961L8.34989 12ZM5.60887 13.1388L5.52248 13.3823L5.23189 13.2488C5.18869 13.3352 5.14942 13.4608 5.118 13.6179C5.05517 13.9517 5.0002 14.1598 4.957 14.2502C4.85097 14.1873 4.74102 14.0106 4.62714 13.724C4.5643 13.5669 4.49362 13.453 4.41901 13.3862C4.39544 13.4373 4.34832 13.4608 4.27764 13.4608C4.20695 13.4608 4.1559 13.4412 4.11663 13.4059C4.10878 13.3823 4.10878 13.343 4.10878 13.292C4.10878 13.1977 4.12448 13.1192 4.15197 13.0524C4.17946 12.9857 4.23051 12.9268 4.30905 12.8797C4.45435 12.9739 4.57608 13.1231 4.67819 13.3313C4.76065 13.5198 4.84312 13.7043 4.93344 13.8889C4.97271 13.8261 5.01198 13.6925 5.05517 13.4923C5.12586 13.1585 5.25152 12.9935 5.44002 12.9935L5.60887 13.1428V13.1388ZM19.6909 13.4216C19.471 13.5669 19.2472 13.6376 19.0234 13.6376C18.9605 13.5826 18.8977 13.5197 18.8309 13.4569C18.7642 13.3941 18.7328 13.3352 18.7328 13.2763C18.7328 13.2331 18.7563 13.186 18.8074 13.1349C18.8624 13.0485 18.9448 12.97 19.0469 12.8993C19.149 12.8286 19.2472 12.7972 19.3336 12.7972C19.4828 12.7972 19.581 12.8875 19.6242 13.0721L19.6909 13.4216ZM11.2362 15.5971C11.2362 15.5971 11.193 15.6246 11.1616 15.6246C11.1184 15.6246 11.087 15.6089 11.0673 15.5775L11.0202 15.5303C11.032 15.4793 11.0595 15.4557 11.0948 15.4557C11.1263 15.4557 11.1577 15.4715 11.1891 15.5029C11.2205 15.5343 11.2362 15.5657 11.2362 15.5971Z" fill="white"/>
</svg>
