<svg width="24" height="24" viewBox="0 0 24 24" fill="none" xmlns="http://www.w3.org/2000/svg">
<path fill-rule="evenodd" clip-rule="evenodd" d="M22 9.59727C21.9369 9.52892 21.8896 9.47109 21.8633 9.42903C21.7371 9.25552 21.6583 9.15037 21.632 9.12408L21.5373 9.28181C21.5373 9.72345 21.5741 10.244 21.6477 10.8433C21.7213 11.4427 21.795 12.0105 21.8633 12.5521C21.8843 12.7361 21.9054 12.9674 21.9264 13.2461C21.9474 13.5247 21.9579 13.756 21.9579 13.9401C21.9579 14.2713 21.9369 14.5762 21.9001 14.8654C21.8633 15.1546 21.795 15.449 21.7056 15.7487C21.7056 14.9443 21.674 14.1609 21.6109 13.4038C21.5478 12.6467 21.4637 11.8055 21.3586 10.8854C21.2534 9.9653 21.1535 9.08728 21.0641 8.25132C21.1325 8.10411 21.1851 7.9937 21.2219 7.91483C21.2902 7.77288 21.3691 7.67824 21.4532 7.63092C21.511 7.82019 21.5952 8.06204 21.7056 8.35647C21.9001 8.88223 22 9.29758 22 9.59727ZM16.5321 7.66246C16.3796 7.78339 16.1746 7.87802 15.9222 7.95689C15.5436 8.06204 15.1703 8.16719 14.7971 8.27235C14.0452 8.52997 13.2986 8.79285 12.5573 9.05048C12.5363 9.00841 12.5468 8.95584 12.5941 8.89275C12.6414 8.82965 12.673 8.78234 12.694 8.75605C13.346 8.54049 14.0032 8.31966 14.6604 8.1041C15.4332 7.86751 16.0536 7.7203 16.5321 7.66246ZM17.3417 10.9853C17.3049 11.1378 17.2629 11.2639 17.205 11.3638C17.1262 11.49 17.0315 11.5794 16.9106 11.6267C16.8843 11.6425 16.8423 11.6477 16.7844 11.6477C16.653 11.6477 16.5531 11.5899 16.49 11.469C16.4848 11.4111 16.4795 11.3691 16.4795 11.3428C16.4795 11.1378 16.5531 10.9537 16.7003 10.7855C16.7003 10.8118 16.6898 10.8749 16.674 10.9643C16.6583 11.0536 16.6477 11.1167 16.6477 11.1535C16.6477 11.2008 16.653 11.2429 16.6688 11.2797C16.6845 11.3165 16.7161 11.3481 16.7634 11.3743C16.9264 11.3954 17.0526 11.3481 17.1525 11.2376C17.1525 11.1746 17.0946 11.1062 16.9737 11.0273C16.8528 10.9485 16.795 10.8854 16.795 10.8381C16.795 10.796 16.8423 10.7382 16.9316 10.6698C17.0315 10.7066 17.1157 10.7434 17.184 10.7907C17.2524 10.8381 17.3049 10.9012 17.3417 10.9853ZM15.8591 9.57624C15.8223 9.68665 15.7382 9.82335 15.6067 9.97582C15.5068 10.0862 15.4385 10.1704 15.3964 10.2177L14.755 9.80757C14.7077 9.86541 14.6498 9.93901 14.5868 10.0284C14.5237 10.1178 14.4658 10.2019 14.408 10.2808L13.8086 9.98633C13.8559 9.85489 13.9348 9.72345 14.0347 9.59201C14.1346 9.46057 14.245 9.38696 14.3554 9.36593L14.8496 9.55521L15.3018 9.18718C15.4858 9.31862 15.6698 9.45006 15.8591 9.57624ZM19.9916 15.265C19.7971 15.2808 19.6341 15.286 19.5131 15.2913C19.3922 15.2913 19.2818 15.3386 19.1924 15.4227C19.2082 15.5226 19.2292 15.6383 19.266 15.775C19.3028 15.9117 19.3291 16.0168 19.3449 16.0957C19.3607 16.1746 19.3764 16.2324 19.3817 16.2744C19.387 16.3165 19.3922 16.3849 19.3922 16.4742C19.3922 16.5321 19.3764 16.6215 19.3502 16.7476C19.3344 16.6477 19.3134 16.5478 19.2766 16.4427C19.2082 16.2482 19.1346 16.0536 19.0662 15.8644C19.0505 15.817 19.04 15.7697 19.0347 15.7329C19.0294 15.6961 19.0242 15.6488 19.0242 15.591C19.0242 15.3754 19.1241 15.2072 19.3291 15.0862L19.7603 15.0126C19.7129 14.9758 19.6604 14.939 19.6078 14.9022C19.5552 14.8654 19.4921 14.8496 19.4238 14.8549C19.3659 14.9127 19.3291 14.939 19.3081 14.939C19.3081 14.8759 19.3239 14.8128 19.3607 14.7445C19.3975 14.6761 19.4501 14.6288 19.5184 14.6025C19.5815 14.5815 19.6446 14.5868 19.7077 14.613C19.7129 14.613 19.8023 14.6814 19.9706 14.8128C20.0494 14.8759 20.0862 14.9548 20.0862 15.0442C20.0862 15.1283 20.0547 15.2019 19.9916 15.265ZM14.8812 11.5321C14.8601 11.6162 14.8339 11.7056 14.8076 11.8002C14.7813 11.8949 14.7392 11.9632 14.6814 12.0053C14.613 12.0263 14.5499 12.0053 14.5026 11.9422C14.4816 11.9211 14.4553 11.8633 14.4185 11.7634C14.4185 11.4637 14.4921 11.1956 14.6393 10.9643C14.6446 11.0273 14.6393 11.122 14.6078 11.2429C14.5762 11.3638 14.5657 11.4427 14.5657 11.4795C14.5657 11.6004 14.6078 11.6845 14.6919 11.7424C14.7392 11.7371 14.776 11.7003 14.7971 11.632C14.8181 11.5636 14.8444 11.5321 14.8812 11.5321ZM13.1356 7.6204C12.673 7.74133 12.1735 7.88854 11.6425 8.07256C11.3901 8.15668 10.9169 8.33018 10.2177 8.58781C9.5184 8.84543 9.02944 9.02419 8.74027 9.12408C8.53523 9.20295 8.32492 9.28181 8.1041 9.37119C7.88328 9.46057 7.7571 9.59201 7.73081 9.77603C8.80336 9.35542 9.87592 8.92955 10.9485 8.50368C11.0589 8.46162 11.3428 8.37224 11.8002 8.23029C12.4101 8.04627 12.857 7.84648 13.1356 7.6204ZM11.2219 10.102C11.1851 10.1493 11.1693 10.1966 11.1693 10.2387C11.1272 10.2545 11.0694 10.2387 11.0011 10.1861C10.9327 10.1388 10.8801 10.1125 10.8538 10.1125C10.8275 10.1125 10.8013 10.1283 10.7802 10.1651C10.7802 10.5489 10.7119 10.8959 10.5804 11.2061C10.5173 11.1588 10.4332 10.9958 10.3228 10.7277C10.2124 10.4595 10.0599 10.3228 9.85489 10.3228C9.80757 10.307 9.78128 10.265 9.78128 10.1966C9.78128 10.1388 9.79706 10.0862 9.82334 10.0284C9.87066 9.97056 9.92324 9.91272 9.97056 9.84963C10.123 9.90747 10.2492 10.0442 10.3491 10.2597C10.4911 10.591 10.5752 10.7697 10.6015 10.8065C10.6278 10.5699 10.654 10.3649 10.6751 10.1966C10.6961 10.0284 10.7645 9.89695 10.8749 9.80757C11.0221 9.86541 11.122 9.91273 11.1693 9.95479C11.2166 9.99685 11.2376 10.0442 11.2219 10.102ZM20.4753 12.0053C20.4595 11.9159 20.4385 11.8318 20.4069 11.7529C20.3754 11.674 20.3281 11.6109 20.265 11.5531C20.1441 11.4742 20.0074 11.4374 19.8549 11.4374C19.7287 11.4374 19.5762 11.4637 19.3922 11.5216C19.2923 11.5478 19.1556 11.5899 18.9716 11.6477L18.7823 10.5121C19.04 10.3807 19.2555 10.2492 19.4238 10.123C19.6393 9.96005 19.8286 9.78654 19.9916 9.59727L20.1283 9.73397C20.1283 9.73397 20.1651 9.68139 20.2019 9.63933C20.2387 9.59727 20.2597 9.55521 20.265 9.51315C20.1756 9.46583 20.1283 9.41325 20.1283 9.35542C20.1283 9.33439 20.1493 9.28181 20.1914 9.19769C20.2597 9.06625 20.2808 8.96109 20.244 8.89275C20.244 8.82965 20.2124 8.77708 20.1546 8.74028C20.0967 8.70347 20.0336 8.68244 19.9706 8.68244C19.8812 8.7245 19.7971 8.77708 19.7287 8.83492C19.6604 8.89275 19.613 8.95058 19.592 8.9979C19.571 9.04522 19.5605 9.09254 19.5605 9.1346C19.5605 9.20295 19.6078 9.28181 19.7024 9.36068C19.7971 9.43954 19.8549 9.49737 19.8759 9.53418C19.7077 9.71819 19.5289 9.87592 19.3396 10.0074C19.1872 10.1178 18.9979 10.2229 18.7718 10.3228C18.7718 10.2229 18.7508 10.0547 18.7087 9.81809C18.6404 9.41851 18.6036 9.15037 18.6036 9.01893V8.87172C18.6088 8.84543 18.6299 8.77182 18.6561 8.66141C18.7035 8.74028 18.7613 8.81388 18.8244 8.89275C18.8875 8.97161 18.9453 9.02419 18.9926 9.05048C18.9506 8.73502 18.8612 8.4143 18.7298 8.09359C18.6299 7.857 18.4932 7.56783 18.3091 7.23134L17.9727 7.93586C18.0778 8.28812 18.1619 8.7245 18.225 9.25026C18.2618 9.54995 18.3091 10.0021 18.3722 10.5962L18.0358 10.8276C18.0831 10.8276 18.1514 10.8118 18.2303 10.775C18.3091 10.7382 18.367 10.7277 18.4038 10.7329L18.5615 11.8791C18.3354 11.979 18.1251 12.0894 17.9201 12.2208C17.715 12.3523 17.5363 12.4995 17.3733 12.6677C17.0158 13.0252 16.7897 13.4721 16.7003 14.0137C16.5163 14.0925 16.3375 14.1504 16.1535 14.1924C15.9695 14.2345 15.796 14.2555 15.6278 14.2555C15.4595 14.2555 15.307 14.2292 15.1546 14.1767C15.0021 14.1241 14.8654 14.0452 14.755 13.9401C14.6551 13.8086 14.6078 13.7035 14.6078 13.6246C14.6078 13.5826 14.6183 13.53 14.6393 13.4669C14.3607 13.7245 14.082 13.9821 13.8086 14.2345C13.6772 14.3659 13.5247 14.4606 13.3512 14.5184C13.1777 14.5762 12.9937 14.6025 12.7886 14.6025C12.5363 14.6025 12.3102 14.5552 12.1052 14.4658C11.9527 14.3817 11.837 14.2608 11.7634 14.103C11.6898 13.9453 11.653 13.7771 11.653 13.6036C12.2629 13.4827 12.878 13.4248 13.4932 13.4248C13.4932 13.367 13.5142 13.2829 13.5615 13.1619C13.6088 13.041 13.6772 12.878 13.7666 12.6677C13.3302 12.6677 12.9096 12.6309 12.5047 12.5626C12.0999 12.4942 11.6477 12.3943 11.1588 12.2681C10.775 12.1682 10.4805 12.1052 10.286 12.0684C9.97056 12.0105 9.67087 11.9842 9.39222 11.9842C9.11356 11.9842 8.82965 12.0158 8.54048 12.0789C8.51945 12.0789 8.48791 12.0789 8.44585 12.0684C8.25657 12.0684 8.13039 12.1788 8.0673 12.3943C8.03049 12.5152 7.98318 12.694 7.92008 12.9306C7.98843 12.9464 8.04101 12.9516 8.07781 12.9516C8.09359 12.9516 8.22503 12.9253 8.47739 12.878C8.54574 12.8623 8.62461 12.857 8.70873 12.857C8.81914 12.7992 8.91903 12.7676 9.00315 12.7518C9.08728 12.7361 9.19243 12.7308 9.31861 12.7308C9.5552 12.7308 9.84437 12.7834 10.1809 12.8885C10.3649 12.9464 10.633 13.0305 10.9905 13.1514C10.5962 13.3407 10.1861 13.5352 9.75499 13.735C9.32387 13.9348 8.92429 14.0347 8.56151 14.0347C8.46162 14.0347 8.36172 14.0294 8.25131 14.0137C8.1409 13.9979 8.04101 13.9769 7.94111 13.9401C7.8307 13.9138 7.73081 13.8559 7.65195 13.7771C7.57308 13.6982 7.53102 13.6036 7.53102 13.4984C7.53102 13.4564 7.54153 13.409 7.56257 13.3512C7.46267 13.4196 7.35752 13.53 7.24711 13.6772C7.03155 13.9716 6.8633 14.1504 6.75289 14.2135C6.68454 14.2503 6.60042 14.266 6.51104 14.266C6.38486 14.266 6.26393 14.2345 6.15352 14.1767C6.04311 14.1188 5.9327 14.04 5.82755 13.9401C5.68034 13.8612 5.56467 13.6614 5.48055 13.3407C5.39642 13.02 5.24395 12.857 5.02839 12.857C4.71819 13.062 4.44479 13.4459 4.19769 14.0189C3.95058 14.592 3.71399 14.9758 3.48265 15.1704C3.4143 15.2072 3.34595 15.2229 3.28286 15.2229C3.19874 15.2229 3.11462 15.2019 3.03049 15.1546C2.94637 15.1073 2.86225 15.0494 2.77813 14.9706C2.5836 14.7603 2.4469 14.5289 2.37329 14.2713C2.29968 14.0137 2.26288 13.7245 2.26288 13.3933C2.26288 13.225 2.26814 13.0726 2.28391 12.9359C2.29968 12.7992 2.32071 12.6572 2.347 12.51L2.56782 12.5626C2.74132 12.4416 2.87277 12.2576 2.95689 12.0053C3.01998 11.816 3.05152 11.6004 3.05152 11.3533C3.00946 11.3743 2.96214 11.4532 2.91483 11.5899C2.86751 11.7266 2.78339 11.7844 2.66246 11.7634C2.53628 11.6162 2.45216 11.4795 2.40484 11.3533C2.35752 11.2271 2.33649 11.0747 2.33649 10.9012C2.33649 10.6067 2.44164 10.2019 2.65195 9.69191C2.79916 9.33439 2.88854 9.11357 2.91483 9.02944C2.6204 9.51315 2.41535 9.89695 2.29443 10.1756C2.0999 10.633 2 11.0536 2 11.4374C2 11.6267 2.02103 11.8002 2.05783 11.9579C2.09464 12.1157 2.16299 12.2734 2.25237 12.4364C2.1735 12.7571 2.12093 13.041 2.08412 13.2776C2.04732 13.5142 2.03155 13.7613 2.03155 14.0137C2.03155 14.266 2.05783 14.4974 2.11041 14.7287C2.16299 14.96 2.24185 15.1651 2.347 15.3491C2.57834 15.8065 2.92534 16.0326 3.38801 16.0326C3.61409 15.9117 3.79285 15.7382 3.93481 15.5068C4.01367 15.3807 4.10831 15.1598 4.22397 14.8391C4.33964 14.5184 4.43954 14.2976 4.52366 14.1714C4.66562 13.9558 4.84437 13.7929 5.07045 13.6877C5.1388 13.735 5.19138 13.8086 5.22818 13.898C5.24395 13.9401 5.26498 14.0242 5.30179 14.1504C5.36488 14.387 5.50683 14.6025 5.73291 14.7918C5.95899 14.9811 6.19033 15.0862 6.43743 15.1073C6.64248 15.1073 6.82124 15.0074 6.98423 14.8023C7.09464 14.6341 7.2103 14.4606 7.33123 14.2871C7.39958 14.2503 7.49422 14.3186 7.60463 14.4869C7.71504 14.6551 7.8307 14.7497 7.95163 14.7708C8.07255 14.7918 8.19348 14.8023 8.31966 14.8023C8.74027 14.8023 9.26078 14.6498 9.88643 14.3502C10.6278 13.9926 11.1272 13.7823 11.3796 13.7192C11.3428 13.8454 11.327 13.9664 11.327 14.0768C11.327 14.1977 11.3375 14.3186 11.3638 14.4395C11.3901 14.5605 11.4322 14.6919 11.49 14.8339C11.5478 14.9758 11.653 15.0915 11.795 15.1861C11.9369 15.2808 12.1735 15.3439 12.4942 15.3807C12.5363 15.3859 12.5941 15.3912 12.673 15.3912C12.9201 15.3912 13.1619 15.3123 13.409 15.1546C13.6562 14.9968 13.9506 14.6972 14.3028 14.2555C14.3712 14.2818 14.4448 14.3922 14.5131 14.5815C14.5499 14.6709 14.592 14.7392 14.6498 14.7813C14.7603 14.8654 14.8759 14.9232 14.9916 14.9495C15.1073 14.9758 15.2334 14.9916 15.3754 14.9916C15.591 14.9916 15.8433 14.9443 16.1325 14.8444C16.3165 14.7813 16.5478 14.6814 16.837 14.5499C16.9579 14.8076 17.0631 15.0126 17.1525 15.1598C17.2944 15.3859 17.4469 15.5489 17.6151 15.6541C17.673 15.6698 17.7098 15.6751 17.7308 15.6751C17.8307 15.6751 17.9253 15.6435 18.0147 15.5804C18.1041 15.5174 18.1882 15.4385 18.2671 15.3386C18.2881 15.2808 18.3933 15.0862 18.5825 14.7497C18.714 14.5131 18.7823 14.3134 18.7823 14.1504C18.7823 14.0189 18.7455 13.8875 18.6667 13.7613C18.5825 13.6772 18.4932 13.6194 18.4038 13.5931C18.3144 13.5668 18.2093 13.551 18.0883 13.551C17.9621 13.551 17.8097 13.572 17.6257 13.6141C17.5258 13.6351 17.3891 13.6719 17.205 13.7192C17.1998 13.693 17.1945 13.6509 17.1945 13.5931C17.1945 13.4406 17.2366 13.3039 17.3207 13.1882C17.4048 13.0726 17.5258 12.9674 17.6782 12.878C17.9937 12.715 18.3144 12.5573 18.6351 12.3943C18.7666 12.8202 18.8875 13.1094 18.9979 13.2513C19.1083 13.3933 19.2555 13.4984 19.4448 13.5615C19.8233 13.5615 20.0915 13.2881 20.244 12.7413C20.3649 12.3207 20.4385 12.0736 20.4753 12.0053ZM7.64669 8.64038C7.67298 8.7876 7.62566 8.95058 7.49947 9.12408C7.47844 9.13986 7.44164 9.14511 7.39432 9.14511C7.2734 9.14511 7.21031 9.10831 7.19453 9.0347C7.17876 8.9611 7.1735 8.88749 7.1735 8.81914C7.1735 8.56677 7.24711 8.30915 7.39432 8.05153C7.37855 8.13565 7.36803 8.22503 7.35226 8.31441C7.33649 8.40379 7.33123 8.47739 7.33123 8.53523C7.33123 8.64038 7.34175 8.71399 7.35752 8.75605C7.37329 8.79811 7.40484 8.83492 7.4469 8.87172C7.50473 8.87172 7.54153 8.84543 7.56782 8.79285C7.59411 8.74028 7.6204 8.6877 7.64669 8.64038ZM7.18402 11.0799C7.17876 11.1693 7.1367 11.2692 7.06309 11.3743C6.98948 11.4795 6.89485 11.5952 6.78444 11.7213C6.53207 11.6215 6.30599 11.5058 6.10095 11.3743C6.14827 11.2534 6.21136 11.143 6.27971 11.0326C6.34805 10.9222 6.43218 10.8223 6.53207 10.7329C6.76866 10.817 6.98948 10.9327 7.18402 11.0799ZM6.02734 9.35542C6.02734 9.35542 5.92744 9.50789 5.78549 9.755C5.69611 9.92324 5.59096 9.98108 5.48055 9.93376L4.93375 9.69191C4.91798 9.73397 4.86015 9.81283 4.76025 9.93376C4.66036 10.0547 4.58149 10.1283 4.53417 10.1651C4.45005 10.1651 4.36593 10.1493 4.28181 10.1125C4.15037 10.0494 4.01367 9.98633 3.88223 9.92324C3.88223 9.80232 3.92955 9.67613 4.02944 9.54469C4.08728 9.46583 4.18191 9.36068 4.32387 9.22924C4.53943 9.32913 4.76025 9.42377 4.97581 9.51315L5.41746 9.03996C5.54364 9.08728 5.64353 9.12934 5.7224 9.16614C5.86435 9.22924 5.96425 9.29233 6.02734 9.35542ZM4.92324 8.30389C4.94427 8.48791 4.88644 8.65089 4.75499 8.79811C4.6551 8.73502 4.58149 8.70347 4.52366 8.70347C4.43428 8.70347 4.33438 8.77708 4.22923 8.92429C4.10305 9.0978 4.00841 9.20295 3.94532 9.22924C3.86646 9.27656 3.66667 9.41851 3.34595 9.64984C3.09359 9.83386 2.88854 9.94953 2.73607 10.0074C3.05678 9.755 3.30915 9.56047 3.48265 9.42903C3.81388 9.1714 4.06099 8.93481 4.22923 8.7245C4.07676 8.67718 3.9979 8.58255 3.9979 8.44059C4.00315 8.42482 4.06099 8.28286 4.16614 8.00946C4.22923 7.83596 4.31861 7.74658 4.43954 7.74658L4.92324 8.30389ZM11.2639 16.2219C11.143 16.3901 10.98 16.5216 10.7697 16.6215C10.5594 16.7213 10.3333 16.7687 10.0967 16.7687C9.9653 16.7687 9.84963 16.7529 9.76025 16.7266C9.69716 16.6793 9.64984 16.6425 9.62355 16.6215C9.56572 16.5794 9.54469 16.5268 9.56046 16.4637C9.58149 16.3113 9.67087 16.1693 9.82334 16.0431C9.9285 15.959 10.0757 15.8749 10.265 15.7907C10.1861 15.7119 10.0757 15.6751 9.9285 15.6751C9.8286 15.6751 9.74974 15.6909 9.68665 15.7171C9.68665 15.6593 9.71819 15.6067 9.78128 15.5542C9.84437 15.5016 9.89169 15.4648 9.91798 15.4437C9.98633 15.4437 10.081 15.4437 10.2019 15.4543C10.3228 15.4595 10.4175 15.5121 10.4858 15.6015C10.4858 15.7329 10.3701 15.8696 10.1441 16.0063C9.91798 16.143 9.80231 16.2376 9.80231 16.285C9.80231 16.306 9.81283 16.3323 9.83912 16.3691C9.8654 16.4059 9.92324 16.448 10.0126 16.4953C10.1125 16.511 10.1861 16.5163 10.2334 16.5163C10.3964 16.5163 10.5752 16.4848 10.7697 16.4217C10.8538 16.3954 11.0168 16.327 11.2639 16.2219ZM20.0336 9.22924C19.9916 9.22398 19.9495 9.19243 19.9022 9.14511C19.8549 9.09779 19.8181 9.05047 19.7813 9.00841C19.8023 8.98213 19.8286 8.96636 19.8654 8.96636C19.9495 8.96636 20.0074 9.00842 20.0336 9.09254V9.22924ZM20.0336 12.7098C19.9863 12.7361 19.9232 12.7518 19.8444 12.7518C19.734 12.7518 19.6288 12.7256 19.5394 12.6677C19.3764 12.5626 19.2555 12.4206 19.1714 12.2366C19.2292 12.2208 19.2923 12.2103 19.3607 12.1945C19.429 12.1788 19.4974 12.1735 19.5605 12.1735C19.7129 12.1735 19.8286 12.2156 19.9075 12.2997C19.9548 12.3575 19.9863 12.4048 20.0021 12.4469C20.0074 12.5363 20.0179 12.6257 20.0336 12.7098ZM18.3407 14.7392C18.2986 14.776 18.2461 14.8076 18.1882 14.8339C18.1304 14.8602 18.0778 14.8759 18.0358 14.8759C17.9727 14.8759 17.9148 14.8549 17.857 14.8128C17.7992 14.7708 17.7466 14.7129 17.6887 14.6446C17.6309 14.5762 17.5626 14.4711 17.4784 14.3291C17.5573 14.3028 17.6519 14.2871 17.7729 14.2871C17.9621 14.2871 18.1041 14.3344 18.1935 14.4238C18.2408 14.4606 18.2776 14.5026 18.2934 14.5499C18.3091 14.5973 18.3249 14.6604 18.3407 14.7392ZM4.70242 8.46162H4.53417L4.54469 8.30389L4.70242 8.46162ZM4.37645 8.38801C4.36067 8.43533 4.32913 8.44585 4.28181 8.40905C4.22397 8.36698 4.20294 8.31441 4.21872 8.25132C4.26078 8.20926 4.29758 8.21451 4.33438 8.27235C4.35016 8.31441 4.36067 8.35121 4.37645 8.38801Z" fill="white"/>
</svg>
