<svg width="24" height="24" viewBox="0 0 24 24" fill="none" xmlns="http://www.w3.org/2000/svg">
<path fill-rule="evenodd" clip-rule="evenodd" d="M22 13.5868C22 13.8753 21.9704 14.1417 21.9149 14.3821C21.8594 14.6225 21.767 14.8555 21.6449 15.0886C21.6634 14.911 21.6782 14.7409 21.6893 14.5818C21.7004 14.4228 21.7078 14.2785 21.7078 14.1565C21.7078 14.0492 21.7078 13.9678 21.7004 13.9086C21.693 13.8494 21.6819 13.7607 21.6634 13.6423L21.0235 8.67838C21.0161 8.6118 21.0124 8.55631 21.0087 8.50822C21.0087 8.46013 21.005 8.42315 21.005 8.39355C21.005 8.2345 21.0272 8.09395 21.0716 7.97188C21.116 7.84982 21.1936 7.73515 21.3083 7.62048C21.4674 7.8942 21.6042 8.18272 21.7226 8.49343C21.8372 8.80414 21.9186 9.10745 21.9667 9.40336C21.9186 9.37377 21.8705 9.32568 21.8151 9.2628C21.7374 9.16293 21.6634 9.05936 21.5931 8.95209L21.5043 9.05936L21.4859 9.04086V9.35157L22 13.5868ZM18.0126 7.70186C18.0126 7.82762 17.9608 7.9127 17.8535 7.96079C17.3098 8.18642 16.9029 8.35287 16.6366 8.46754C16.1631 8.66728 15.7636 8.85222 15.4381 9.01867C15.5047 8.81153 15.6786 8.65248 15.9634 8.54521C16.2482 8.43424 16.5182 8.33067 16.7808 8.2308C16.9806 8.14203 17.1877 8.05325 17.3949 7.96448C17.6797 7.83872 17.8868 7.75365 18.0163 7.70556L18.0126 7.70186ZM17.9941 11.0568C17.9941 11.2417 17.9201 11.3749 17.7721 11.4562C17.7241 11.4636 17.6834 11.4489 17.6464 11.4119C17.6094 11.3749 17.5872 11.3342 17.5761 11.2861C17.5761 11.1086 17.6131 10.9125 17.6908 10.7017C17.7315 10.5907 17.7758 10.4723 17.8239 10.354C17.8461 10.4206 17.8313 10.5241 17.7758 10.6721C17.7204 10.82 17.6908 10.9236 17.6908 10.9828C17.6908 11.0901 17.7426 11.1603 17.8498 11.1973C17.8609 11.1862 17.8794 11.1566 17.909 11.1123C17.9386 11.0679 17.9645 11.0494 17.9941 11.0531V11.0568ZM17.2913 9.5994C17.3024 9.63639 17.2987 9.68077 17.2728 9.73256C17.2506 9.78434 17.2358 9.81394 17.2358 9.82134C17.1655 9.78435 17.0952 9.75106 17.0213 9.71407C17.0028 9.71407 16.9806 9.72147 16.951 9.73996C16.8844 9.82134 16.84 9.99518 16.8178 10.2578C16.7956 10.5204 16.7365 10.6869 16.6477 10.7498C16.5404 10.513 16.4516 10.3429 16.3814 10.243C16.3111 10.1431 16.2186 10.0914 16.1076 10.0914C16.0485 10.0507 15.9967 9.99518 15.9486 9.9323C15.9671 9.85093 15.9819 9.77695 15.993 9.71777C16.0041 9.65859 16.0411 9.62159 16.1002 9.6105C16.226 9.64749 16.3333 9.74366 16.4294 9.90271C16.5293 10.0988 16.6033 10.2356 16.6514 10.3207C16.6625 10.2985 16.7032 10.1468 16.766 9.86943C16.8141 9.67338 16.8918 9.54022 17.0065 9.46994C17.1359 9.44035 17.2321 9.48103 17.2913 9.5957V9.5994ZM15.6564 11.2491C15.6564 11.349 15.6416 11.4415 15.612 11.5191C15.5824 11.6005 15.5306 11.656 15.4529 11.693C15.342 11.6634 15.268 11.5894 15.2384 11.471C15.2384 11.1936 15.3087 10.9458 15.4529 10.735C15.4529 10.7646 15.4418 10.8163 15.4159 10.8866C15.3642 11.042 15.3346 11.1455 15.3346 11.1973C15.3346 11.2972 15.3716 11.3749 15.4492 11.4267C15.5084 11.4452 15.5528 11.4193 15.5824 11.3564C15.612 11.2898 15.6342 11.2565 15.6527 11.2491H15.6564ZM13.1004 8.81524C13.0782 8.89661 13.0117 8.941 12.9044 8.941C12.8563 8.941 12.8082 8.9336 12.7638 8.9151L12.7453 8.87811C12.6972 8.94469 12.6603 8.99277 12.6344 9.02606C12.6085 9.05935 12.5789 9.07415 12.5493 9.07415C12.4605 9.07415 12.3865 9.06306 12.3311 9.03717C12.2756 9.01498 12.2386 8.96689 12.2201 8.89661C12.2312 8.72646 12.246 8.5785 12.2645 8.46013C12.283 8.34177 12.3311 8.2493 12.405 8.18642C12.4124 8.2345 12.405 8.30478 12.3791 8.40465C12.3569 8.50082 12.3421 8.56741 12.3421 8.60439C12.3421 8.66358 12.3532 8.71536 12.3791 8.75605C12.4198 8.80414 12.4642 8.82633 12.5123 8.82633C12.553 8.82633 12.5974 8.81154 12.6455 8.78195C12.6861 8.74126 12.7083 8.67838 12.7083 8.597C12.7083 8.56001 12.7083 8.52302 12.7009 8.48234C12.6935 8.44165 12.6898 8.40095 12.6824 8.35656C12.6824 8.29738 12.7046 8.2456 12.7453 8.19751C12.7823 8.2345 12.7971 8.28628 12.7971 8.35656C12.786 8.46383 12.7786 8.53781 12.7786 8.5785C12.7786 8.67467 12.8304 8.71906 12.9377 8.71906C13.0043 8.68947 13.0338 8.64878 13.0338 8.5933C13.0338 8.5711 13.0264 8.52672 13.008 8.46754C12.9895 8.40835 12.9821 8.36396 12.9821 8.33437C12.9821 8.27519 13.008 8.2271 13.0634 8.19381C13.0856 8.2308 13.1078 8.27889 13.1263 8.34547C13.1448 8.41205 13.1522 8.47123 13.1522 8.52302C13.1522 8.6007 13.1337 8.69687 13.1004 8.81524ZM13.2077 10.1542C13.1559 10.2911 13.1115 10.391 13.0819 10.4576C13.0301 10.5685 12.9562 10.6536 12.8674 10.7054C12.7897 10.7054 12.7009 10.6684 12.6011 10.5981C12.4642 10.4982 12.3791 10.4427 12.3421 10.428C12.3421 10.3318 12.3865 10.2356 12.4753 10.132C12.5641 10.0285 12.6529 9.9286 12.7416 9.83613C12.8193 9.87681 12.897 9.9175 12.9821 9.95079C13.0634 9.99888 13.1374 10.0655 13.204 10.1542H13.2077ZM10.907 9.00757C10.8552 9.02977 10.8108 9.04456 10.7812 9.05196C10.7516 9.05936 10.7257 9.05196 10.6998 9.03347C10.6222 8.95579 10.5852 8.86332 10.5852 8.75975C10.5852 8.69317 10.6 8.62289 10.6296 8.54521C10.6813 8.42685 10.7368 8.30478 10.7886 8.18271C10.7886 8.2123 10.7738 8.28259 10.7442 8.38986C10.7146 8.50083 10.6998 8.56741 10.6998 8.597C10.6998 8.69687 10.7516 8.76715 10.8515 8.81153C10.9107 8.80413 10.9625 8.74495 11.0031 8.63398C11.0142 8.67097 11.0179 8.70796 11.0068 8.75235C10.9994 8.79674 10.9625 8.88181 10.9033 9.00387L10.907 9.00757ZM12.32 11.7078C12.32 11.8039 12.3052 11.8853 12.2793 11.9593C12.2534 12.0333 12.2053 12.1036 12.1424 12.1664C12.0832 12.1775 12.0351 12.1553 11.9945 12.0962C11.9575 12.037 11.9279 11.9926 11.9094 11.963C11.8983 11.9223 11.8909 11.8631 11.8909 11.7855C11.8909 11.6301 11.9316 11.4747 12.0166 11.3157C12.0832 11.1899 12.1831 11.0568 12.32 10.9088C12.2127 11.1529 12.1054 11.3934 12.0019 11.6375C12.0019 11.7374 12.0499 11.8335 12.1424 11.9223C12.1905 11.9112 12.2275 11.8742 12.2534 11.815C12.2793 11.7559 12.3015 11.7189 12.32 11.7078ZM9.73812 8.07545C9.75661 8.10504 9.75661 8.14573 9.73812 8.20121C9.71962 8.253 9.70853 8.29369 9.70113 8.31588L9.41631 8.19012C9.36453 8.29739 9.32014 8.42315 9.28315 8.57111C9.18698 8.96319 9.1315 9.18143 9.113 9.22951C9.04642 9.18143 8.97244 9.05196 8.89107 8.84482C8.80969 8.63398 8.70982 8.53041 8.59885 8.53041C8.56186 8.53041 8.53597 8.53042 8.51748 8.53782C8.47679 8.50083 8.4546 8.45274 8.4546 8.38616C8.47309 8.27519 8.48419 8.19752 8.49158 8.15683C8.51008 8.13464 8.52857 8.10504 8.55447 8.07545C8.69133 8.13464 8.80969 8.25669 8.90956 8.43794C8.98724 8.59699 9.06492 8.75605 9.13889 8.90771C9.16849 8.74126 9.20178 8.56741 9.23507 8.38986C9.27206 8.20862 9.33494 8.06436 9.43111 7.94969C9.48289 7.94229 9.53468 7.95708 9.58646 7.98667C9.63825 8.01626 9.68633 8.04586 9.73442 8.07545H9.73812ZM11.0882 10.2874C11.029 10.4058 10.9883 10.4908 10.9625 10.5463C10.9107 10.6462 10.8441 10.7202 10.7664 10.7683C10.6776 10.7609 10.5815 10.7313 10.4816 10.6721C10.3262 10.5907 10.2375 10.5426 10.2079 10.5315C10.2264 10.4427 10.2745 10.3429 10.3484 10.2282C10.3706 10.1912 10.4446 10.0951 10.5704 9.936C10.6776 9.97669 10.7849 10.0174 10.8996 10.0618C11.0253 10.1209 11.0845 10.1986 11.0845 10.2911L11.0882 10.2874ZM21.164 13.8827C21.1419 13.7755 21.1123 13.6904 21.0827 13.6201C21.0531 13.5535 21.005 13.4907 20.9421 13.4389C20.8127 13.3316 20.6573 13.2798 20.4797 13.2798C20.3688 13.2798 20.2319 13.302 20.0729 13.3464C19.9138 13.3908 19.7659 13.4315 19.629 13.4648C19.4921 12.7953 19.359 12.1258 19.2295 11.4489C19.3997 11.3416 19.5624 11.2195 19.7178 11.0864C19.8287 10.9865 19.973 10.8422 20.1431 10.661C20.1653 10.6906 20.1912 10.7165 20.2134 10.7424C20.2356 10.7646 20.2652 10.7757 20.2948 10.7683C20.2948 10.7572 20.3096 10.7239 20.3392 10.6647C20.3688 10.6092 20.3725 10.5611 20.3466 10.5278C20.3096 10.4908 20.2948 10.4538 20.2948 10.4132C20.2948 10.3836 20.3096 10.3318 20.3392 10.2541C20.3688 10.1764 20.3836 10.1173 20.3836 10.0766C20.3836 10.0359 20.3725 9.99519 20.354 9.9619C20.3318 9.92491 20.3133 9.89162 20.2948 9.85463C20.2578 9.79544 20.2171 9.76585 20.169 9.76585C20.1468 9.76585 20.0988 9.78065 20.0285 9.80654C19.9582 9.83243 19.8842 9.88791 19.8102 9.96559C19.7363 10.047 19.6919 10.1357 19.6734 10.2356C19.7326 10.3651 19.8361 10.4723 19.9841 10.5537C19.9434 10.6536 19.8657 10.7609 19.7474 10.8681C19.6327 10.9791 19.4515 11.1086 19.211 11.2639L18.8559 9.22951L18.9521 8.98908L19.3701 9.46994C19.3035 9.15553 19.174 8.77454 18.978 8.32327C18.9706 8.30478 18.8707 8.07915 18.6747 7.65008C18.5933 7.70187 18.5193 7.79803 18.4527 7.93489C18.4232 8.00517 18.3751 8.11244 18.3122 8.25299C18.401 8.79673 18.4934 9.36267 18.5933 9.9471C18.6932 10.5315 18.7857 11.0457 18.8744 11.4821C18.8374 11.5191 18.7191 11.6005 18.5119 11.73C18.3714 11.8188 18.2752 11.9075 18.2271 11.9963C18.2456 11.9889 18.3566 11.9297 18.5637 11.8114C18.6895 11.7411 18.7967 11.7041 18.8929 11.7041C18.9003 11.7411 18.9669 12.1369 19.0964 12.8951C19.1333 13.0912 19.1629 13.3242 19.1925 13.5979C18.6007 13.8642 17.9941 14.0492 17.3727 14.1565C17.5909 13.9271 17.7574 13.7052 17.8683 13.4906C18.0052 13.2317 18.0718 12.9691 18.0718 12.7102C17.9719 12.5622 17.8239 12.4328 17.6279 12.3181C17.4799 12.2293 17.3024 12.1479 17.0952 12.0777C16.8881 11.9778 16.6847 11.926 16.4812 11.926C16.0854 11.926 15.6305 12.1849 15.1126 12.6991C14.6688 13.143 14.4246 13.3834 14.3839 13.4167L14.4024 13.2021C14.4616 12.9839 14.506 12.7694 14.5319 12.5585C14.5578 12.3477 14.5726 12.1295 14.5726 11.8964C14.4616 10.9125 14.347 9.92861 14.236 8.941L14.2989 8.82633L14.617 9.30718C14.6244 9.28499 14.6244 9.2443 14.6244 9.19252C14.4542 8.68207 14.2804 8.17162 14.1102 7.65747C14.0215 7.73885 13.9623 7.80173 13.9364 7.84242C13.9105 7.88311 13.8439 8.01257 13.7366 8.2345C13.7884 8.50822 13.8772 8.9225 13.9956 9.48474C14.0769 9.9471 14.1213 10.3651 14.1213 10.7461C14.1213 10.9236 14.1398 11.164 14.1731 11.4637C14.2508 12.1258 14.2878 12.5437 14.2878 12.7139C14.2878 12.884 14.2804 13.032 14.2619 13.1725C14.2434 13.3131 14.2101 13.45 14.1583 13.5868C14.1065 13.7237 14.0289 13.8568 13.9216 13.99C13.8143 14.1232 13.6775 14.2378 13.5147 14.3303C13.2558 14.3303 13.1078 14.2785 13.0782 14.1787C13.1448 13.9641 13.2114 13.7496 13.2817 13.5313C13.3335 13.3612 13.363 13.2058 13.363 13.069C13.363 12.9321 13.3372 12.8248 13.2817 12.7287C13.2262 12.6325 13.1781 12.5585 13.1263 12.5104C13.0745 12.4624 13.0117 12.4402 12.934 12.4402C12.6159 12.6251 12.3643 12.8655 12.1868 13.1688C12.0092 13.4722 11.9205 13.7903 11.9205 14.1269C11.8243 14.1639 11.7244 14.1935 11.6135 14.2156C11.5025 14.2378 11.4026 14.2526 11.3065 14.2526C11.2251 14.2526 11.14 14.2452 11.0586 14.2267C11.1067 14.0492 11.1585 13.8605 11.214 13.6645C11.2695 13.4648 11.2991 13.2909 11.2991 13.1356C11.2991 13.0653 11.2917 12.9913 11.2806 12.9173C11.2695 12.8433 11.2473 12.7731 11.2177 12.7102C11.1696 12.6214 11.1141 12.5548 11.0438 12.5067C10.9773 12.4587 10.8922 12.4476 10.7923 12.4698C10.4964 12.6547 10.2671 12.9062 10.108 13.2317C9.94895 13.5572 9.86758 13.8975 9.86758 14.2526C9.8084 14.3044 9.73442 14.3266 9.64564 14.3155C9.36823 14.2378 9.17218 14.0936 9.06122 13.879C8.97984 13.72 8.93545 13.4869 8.93545 13.1762C8.93545 13.0468 8.94655 12.8433 8.97244 12.5733C8.99464 12.2996 9.00943 12.0999 9.00943 11.9704C9.00943 11.7818 8.99464 11.6264 8.96505 11.508C8.89847 11.5376 8.84668 11.6116 8.80599 11.7263C8.76531 11.8409 8.73201 11.9149 8.70982 11.9445C8.62844 12.0814 8.51748 12.1812 8.38062 12.2404C8.24376 12.3033 8.0921 12.3329 7.92935 12.3329C7.88126 12.3329 7.81099 12.3255 7.71481 12.3144C7.61494 12.2774 7.51877 12.2404 7.4263 12.2034C7.33383 12.1664 7.29684 12.0777 7.31533 11.9408C7.19697 12.0222 7.11559 12.111 7.0712 12.2071C7.02682 12.3033 7.00462 12.4069 7.00462 12.5252C7.00462 12.6029 7.00462 12.6584 7.01202 12.688C7.01942 12.7213 7.03421 12.7842 7.05641 12.884C7.0786 12.9802 7.12669 13.1504 7.19697 13.3871C7.24505 13.5757 7.26725 13.7496 7.26725 13.9123C6.85297 14.2785 6.44979 14.5707 6.0614 14.7927C5.62493 15.0405 5.16997 15.2217 4.7039 15.3327C4.47827 15.3919 4.27113 15.4215 4.08249 15.4215C3.44997 15.4215 2.93582 15.1921 2.54744 14.7372C2.38099 14.4709 2.29961 14.1713 2.29961 13.8421C2.29961 13.6423 2.3292 13.4278 2.39208 13.2058C2.45497 12.9839 2.53264 12.7694 2.62881 12.5622C2.44017 12.847 2.29221 13.1208 2.18495 13.3871C2.05918 13.7052 2 14.0233 2 14.3377C2 14.3562 2 14.3895 2.0037 14.4413C2.0037 14.4931 2.0074 14.5374 2.0074 14.5781C2.0074 14.826 2.07398 15.0553 2.20344 15.2661C2.3329 15.477 2.51415 15.6508 2.74348 15.7951C3.11707 15.9911 3.51655 16.0873 3.94193 16.0873C4.43758 16.0873 4.97022 15.9541 5.53246 15.6878C5.98373 15.4733 6.44979 15.181 6.93434 14.8075C7.15998 14.6003 7.31903 14.3747 7.4189 14.1269C7.51507 13.8827 7.56686 13.6053 7.56686 13.2983V13.1688C7.56686 13.1245 7.56686 13.0801 7.55946 13.0394C7.80729 12.9913 8.01073 12.9284 8.17348 12.8544C8.38802 12.7546 8.54707 12.614 8.65434 12.4365C8.69133 12.5955 8.70612 12.7694 8.70612 12.9506C8.69872 13.0875 8.69503 13.2243 8.68763 13.3575C8.68023 13.4944 8.68023 13.6275 8.68023 13.757C8.68023 13.9937 8.70242 14.1971 8.74311 14.371C8.7838 14.5411 8.86517 14.6928 8.98724 14.8186C9.1093 14.9443 9.25726 15.0109 9.43481 15.0109C9.56057 15.0109 9.71222 14.9776 9.89717 14.9147C9.99704 14.8777 10.1413 14.826 10.3336 14.7557C10.4335 14.8223 10.5445 14.8703 10.6628 14.9036C10.7812 14.9369 10.9033 14.9517 11.0253 14.9517C11.2251 14.9517 11.4507 14.9147 11.6985 14.8445C11.8354 14.8038 12.0425 14.7335 12.32 14.6299C12.5271 14.7483 12.7453 14.8334 12.9784 14.8814C13.2077 14.9332 13.4592 14.9554 13.7255 14.9554C13.9401 14.9554 14.4431 14.9073 15.2421 14.8149C15.5898 14.7742 15.882 14.752 16.1113 14.752C16.3259 14.8038 16.533 14.8334 16.7328 14.8334C17.1285 14.8334 17.6575 14.7076 18.3122 14.4524C18.7783 14.2674 19.0779 14.1565 19.2073 14.1158C19.2961 14.1676 19.3849 14.3229 19.4736 14.5744C19.5624 14.826 19.6623 14.9961 19.7696 15.0886C19.8805 15.1811 19.9693 15.2365 20.0396 15.2624C20.1099 15.2846 20.1801 15.2994 20.2541 15.2994C20.3133 15.2994 20.3688 15.292 20.4243 15.2735C20.624 15.133 20.7868 14.9184 20.9051 14.6336C20.9865 14.3858 21.0753 14.1343 21.164 13.879V13.8827ZM8.02552 7.73145C7.98484 7.86831 7.85907 7.96448 7.64823 8.02366C7.4374 8.08285 7.30424 8.13463 7.24505 8.18271C6.62364 8.40095 6.15757 8.56741 5.85056 8.67838C5.28833 8.88552 4.83706 9.09635 4.49306 9.30718C4.48197 9.27759 4.48197 9.2443 4.49306 9.21101C4.54485 9.12963 4.58184 9.07046 4.60033 9.03347C4.94803 8.85592 5.36601 8.67098 5.85056 8.48234C6.4054 8.2641 7.13039 8.01257 8.02552 7.72775V7.73145ZM7.18217 10.4317C7.19327 10.4538 7.20067 10.4834 7.20067 10.5204C7.20067 10.5574 7.18587 10.6018 7.15998 10.661C7.13409 10.7202 7.11559 10.7609 7.1008 10.7867C7.0712 10.8089 7.04161 10.8311 7.01202 10.8533C6.98243 10.8755 6.96024 10.8829 6.94914 10.8829C6.92695 10.8829 6.90105 10.8718 6.87886 10.8459C6.81228 10.7461 6.78269 10.6314 6.78269 10.4982C6.78269 10.3873 6.80858 10.2578 6.86407 10.1172C6.90105 10.0174 6.95654 9.90271 7.03421 9.76955C6.99353 9.88791 6.96763 9.97669 6.95284 10.0359C6.92325 10.1468 6.90845 10.243 6.90845 10.3207C6.90845 10.439 6.94174 10.5389 7.00462 10.624C7.04531 10.6166 7.0823 10.5944 7.11189 10.5537C7.11929 10.5463 7.14148 10.5056 7.18217 10.428V10.4317ZM6.47198 9.23321C6.46088 9.2924 6.4091 9.32198 6.32033 9.32198C6.19456 9.32198 6.12058 9.33308 6.09839 9.35898C6.0762 9.38117 6.0688 9.43295 6.0799 9.51063C6.0799 9.75476 6.02441 9.9471 5.90975 10.0951C5.80988 9.88792 5.71001 9.68078 5.60644 9.47364C5.58424 9.51433 5.56205 9.53652 5.54355 9.53652C5.52506 9.53652 5.49917 9.52542 5.45848 9.50693C5.42149 9.48474 5.3993 9.44774 5.3993 9.39596C5.3993 9.35897 5.4067 9.32568 5.41779 9.28869C5.42889 9.25171 5.44368 9.21472 5.46218 9.17403C5.52136 9.12594 5.55835 9.10744 5.57684 9.12224C5.64343 9.17402 5.69891 9.2517 5.74699 9.35157C5.87646 9.61049 5.95043 9.75476 5.96893 9.77695C5.99852 9.59201 6.02811 9.43665 6.054 9.31089C6.0799 9.18512 6.15018 9.09265 6.26114 9.04086C6.33142 9.06306 6.3943 9.08525 6.44609 9.10744C6.49787 9.12963 6.50527 9.17032 6.46458 9.2369L6.47198 9.23321ZM12.8267 15.3512C12.8378 15.3993 12.8267 15.4474 12.786 15.4992C12.749 15.5509 12.7009 15.5879 12.6492 15.6175L11.0697 16.2759C11.1585 16.165 11.2732 16.0651 11.41 15.98C11.5506 15.8949 11.7022 15.8173 11.8724 15.7544C12.0425 15.6915 12.1646 15.6434 12.2423 15.6138C12.4901 15.5177 12.6861 15.4326 12.8267 15.3549V15.3512ZM5.42149 11.2158C5.403 11.238 5.3734 11.2898 5.32902 11.3675C5.28463 11.4452 5.24394 11.5006 5.21065 11.5376C5.11078 11.508 5.00721 11.4599 4.89994 11.3971C4.79268 11.3342 4.69281 11.2676 4.59663 11.201C4.61883 11.1012 4.67061 10.9939 4.74829 10.8829C4.84816 10.7572 4.92214 10.6647 4.97022 10.5981C4.99981 10.6351 5.07379 10.6795 5.19216 10.7387C5.4067 10.8459 5.51026 10.9384 5.51026 11.0235C5.51026 11.0901 5.48067 11.1529 5.42149 11.2195V11.2158ZM3.7089 8.95209C3.6867 9.11854 3.46477 9.5809 3.04309 10.3355C2.85815 10.6684 2.76937 10.9421 2.76937 11.1603C2.76937 11.2972 2.79157 11.4193 2.83965 11.5339C2.88774 11.6449 2.96542 11.7633 3.08008 11.889C3.13926 11.889 3.19845 11.8557 3.25393 11.7855C3.30941 11.7189 3.3723 11.6375 3.43518 11.5487C3.3686 11.8076 3.31311 11.9926 3.26503 12.0999C3.17625 12.2996 3.05789 12.4587 2.90993 12.5696C2.81006 12.5696 2.72499 12.54 2.65841 12.4772C2.59183 12.4143 2.52894 12.3292 2.47716 12.2256C2.44017 12.0555 2.42537 11.8927 2.42537 11.7374C2.42537 11.3823 2.51415 11.0087 2.6917 10.6203C2.73238 10.5315 3.07268 9.97669 3.71259 8.95209H3.7089ZM8.90956 15.7063C8.90956 15.7063 8.82449 15.8284 8.70612 16.017C8.62475 16.1539 8.52488 16.2204 8.41391 16.2204C8.24376 16.1132 8.14389 16.054 8.12169 16.0429C8.01073 15.9837 7.90346 15.9541 7.80359 15.9541C7.74441 16.0429 7.69262 16.1169 7.64454 16.1761C7.57795 16.2648 7.51877 16.3314 7.45959 16.3795C7.37821 16.3684 7.29314 16.3425 7.21176 16.2981C6.96394 16.1724 6.82708 16.1095 6.80488 16.1021C6.84557 15.9911 6.91955 15.8654 7.02682 15.7285C7.0934 15.6471 7.15258 15.5731 7.20436 15.514L7.83318 15.8173L8.32883 15.4178L8.91326 15.7026L8.90956 15.7063ZM4.86296 13.069C4.85186 13.1097 4.79268 13.1356 4.68541 13.1393C4.57814 13.1467 4.52635 13.191 4.52635 13.2798C4.49676 13.498 4.47827 13.6275 4.47457 13.6608C4.45238 13.8088 4.42279 13.9345 4.39319 14.0344C4.34511 13.9937 4.26743 13.8568 4.16386 13.6275C4.11578 13.5202 4.06029 13.4315 3.99371 13.3612C3.98262 13.3982 3.95672 13.413 3.92343 13.413C3.86425 13.3945 3.81986 13.3871 3.79027 13.3871C3.73109 13.339 3.7015 13.2761 3.7015 13.2021C3.7015 13.1725 3.71629 13.0986 3.74589 12.9802C3.75328 12.958 3.77548 12.9432 3.81616 12.9432C3.85315 12.9432 3.88274 12.9506 3.90494 12.9617C4.01221 13.0505 4.10468 13.1615 4.17866 13.2983C4.26003 13.4685 4.32292 13.5942 4.3636 13.6719C4.40059 13.4759 4.43388 13.3094 4.46717 13.1762C4.50046 13.0394 4.57074 12.9395 4.68541 12.8729C4.82597 12.8729 4.89994 12.9099 4.89994 12.9876C4.89994 13.0098 4.88885 13.0394 4.86296 13.069ZM20.1764 10.3096C20.1357 10.317 20.0877 10.2985 20.0396 10.2578C19.9878 10.2171 19.9434 10.1764 19.9027 10.132C19.9101 10.1136 19.9545 10.0803 20.0433 10.0359C20.1099 10.0433 20.1431 10.0729 20.1505 10.1246C20.1579 10.1764 20.1653 10.2393 20.1764 10.3096ZM20.7905 14.4635C20.6721 14.5522 20.5537 14.5966 20.4354 14.5966C20.3688 14.5966 20.3133 14.5855 20.2652 14.5596C20.0285 14.4413 19.8694 14.2526 19.7844 13.99C19.8842 13.9493 19.9989 13.9271 20.1321 13.9271C20.2652 13.9271 20.391 13.9567 20.4945 14.0122C20.6018 14.0677 20.6832 14.1602 20.7424 14.2822C20.7535 14.3118 20.7646 14.3414 20.7794 14.3673C20.7905 14.3932 20.7942 14.4265 20.7868 14.4598L20.7905 14.4635ZM17.6575 13.4241C17.3727 13.6534 16.9917 13.8346 16.5108 13.9641C16.0854 14.0529 15.6601 14.1417 15.2421 14.2304L13.9031 14.3895C13.9105 14.3525 14.1731 14.0862 14.6947 13.5905C15.1903 13.1171 15.4825 12.847 15.5639 12.7842C15.7599 12.688 15.9671 12.6436 16.1853 12.6436C16.4442 12.6436 16.7032 12.7028 16.9547 12.8211C17.2062 12.9395 17.4318 13.0949 17.6353 13.2835L17.6612 13.4241H17.6575ZM12.9895 13.6719C12.9229 13.7126 12.8563 13.757 12.786 13.8014C12.7157 13.8457 12.6529 13.8679 12.6011 13.8679C12.5493 13.8679 12.5049 13.8457 12.4679 13.8051C12.4309 13.7644 12.3939 13.7089 12.3532 13.646C12.3126 13.5794 12.2904 13.5239 12.2904 13.4759C12.2904 13.4056 12.3311 13.3464 12.4161 13.2983C12.4679 13.1873 12.5641 13.1282 12.7009 13.1282C12.8674 13.1282 12.9599 13.2058 12.9747 13.3575C12.9858 13.3797 12.9932 13.4241 12.9932 13.4833V13.6682L12.9895 13.6719ZM10.9736 13.4685C11.0142 13.5276 11.0364 13.5794 11.0364 13.6201C11.0364 13.6904 10.9846 13.7607 10.8774 13.8235C10.8256 13.8531 10.7405 13.9012 10.6296 13.9641C10.5408 14.0122 10.4742 14.0196 10.4335 13.99C10.3817 13.9382 10.3262 13.879 10.2745 13.8125C10.2227 13.7459 10.1931 13.6867 10.1931 13.6275C10.1931 13.5757 10.219 13.5239 10.2745 13.4759C10.3632 13.2909 10.5001 13.2021 10.6813 13.2021C10.7516 13.2021 10.8145 13.2243 10.8663 13.2687C10.9181 13.3131 10.9551 13.3797 10.9736 13.4685Z" fill="white"/>
</svg>
