<svg width="24" height="24" viewBox="0 0 24 24" fill="none" xmlns="http://www.w3.org/2000/svg">
<path fill-rule="evenodd" clip-rule="evenodd" d="M22 9.62224L21.981 9.64887L21.6614 9.23799L21.5511 9.43962C21.5511 9.75159 21.5815 10.1092 21.6424 10.5163C21.787 11.4978 21.863 12.118 21.863 12.3805V12.9359C21.863 13.4609 21.8478 13.887 21.8174 14.2218C21.787 14.5566 21.7071 14.899 21.5815 15.2452C21.5815 14.6479 21.5473 13.9517 21.475 13.1528C21.4065 12.3538 21.3342 11.5549 21.2657 10.7522C21.1973 9.94942 21.1592 9.23418 21.1592 8.60645C21.1288 8.5684 21.106 8.53416 21.0945 8.49612C21.0831 8.45807 21.0755 8.42383 21.0755 8.38579C21.0755 8.28687 21.1136 8.18035 21.1858 8.06622C21.2581 7.95208 21.3304 7.84175 21.3951 7.73903C21.5397 8.07382 21.6614 8.37818 21.7527 8.6521C21.8668 8.98689 21.9505 9.31027 22 9.61843V9.62224ZM18.4771 7.86838L18.4048 8.07002C18.1499 8.18415 17.7542 8.35155 17.2178 8.57221C16.4683 8.87656 16.0727 9.03635 16.0308 9.05537C15.6237 9.22657 15.2319 9.40919 14.8628 9.60321C14.8628 9.53473 14.8971 9.46245 14.9618 9.38256C15.0302 9.30266 15.0987 9.2456 15.171 9.20755C15.5362 9.05537 15.9015 8.89939 16.2667 8.74341C16.5292 8.63308 16.8906 8.4847 17.3548 8.30209C17.8189 8.11567 18.1917 7.9711 18.4771 7.86838ZM18.3135 9.36734C18.2945 9.3369 18.2716 9.32168 18.2412 9.31788C18.2108 9.31788 18.1727 9.31027 18.1309 9.30266C17.9673 9.49669 17.8646 9.75159 17.8189 10.0597C17.758 9.91898 17.6972 9.77061 17.6363 9.61082C17.5754 9.45103 17.4879 9.34831 17.37 9.29886C17.3319 9.36734 17.3053 9.43201 17.2825 9.49669C17.2597 9.56136 17.252 9.62224 17.252 9.68311C17.4118 9.68311 17.526 9.78202 17.5983 9.97605C17.6363 10.0788 17.6896 10.2424 17.7618 10.4706C17.8417 10.3869 17.9026 10.2271 17.9445 9.99507C17.9863 9.763 18.0167 9.62604 18.0358 9.58419C18.1157 9.60702 18.1803 9.59941 18.2336 9.55756C18.2869 9.51571 18.3097 9.45103 18.3097 9.36734H18.3135ZM17.0276 10.5087L16.689 11.0033C16.6471 10.95 16.5482 10.8739 16.396 10.7788C16.2439 10.6837 16.1602 10.5962 16.1488 10.5087L16.5406 10.0065C16.6433 10.075 16.7499 10.1358 16.8602 10.1967C16.9819 10.288 17.0352 10.3907 17.0238 10.5087H17.0276ZM14.452 9.40538L14.3873 9.45104C14.4406 9.28744 14.471 9.09722 14.471 8.88417C14.471 8.73199 14.452 8.57982 14.4177 8.43144C14.3797 8.28307 14.3226 8.14991 14.2427 8.03578C14.2427 7.96349 14.2922 7.91404 14.3873 7.89121C14.5281 8.08524 14.5965 8.32872 14.5965 8.62166C14.5965 8.87656 14.5471 9.13907 14.452 9.40538ZM19.9228 9.51571C19.7211 8.89939 19.5195 8.28307 19.3217 7.66294C19.2494 7.73142 19.1885 7.80371 19.1429 7.88741C19.0972 7.9711 19.0515 8.07763 19.0021 8.21078C19.1048 8.97928 19.2075 9.83528 19.3026 10.7826C19.4016 11.7299 19.4929 12.6506 19.5842 13.5446C19.3293 13.7691 19.1314 13.9289 18.9907 14.0202C18.7548 14.18 18.5227 14.2751 18.2983 14.3131C18.1955 14.336 18.0738 14.3512 17.933 14.3512C17.4651 14.3512 17.0656 14.1762 16.7384 13.8223C16.9325 13.6626 17.1569 13.5446 17.4042 13.4647C17.4727 13.4419 17.6173 13.4039 17.8417 13.3544C17.9254 13.3772 17.9787 13.3924 17.9977 13.3924C18.1385 13.3924 18.226 13.2327 18.264 12.9169C18.2831 12.7533 18.3097 12.6544 18.3477 12.6239C17.5069 12.3919 17.0466 12.2663 16.9591 12.2511C16.6624 12.1902 16.377 12.1598 16.1107 12.1598C15.8596 12.1598 15.6161 12.194 15.3803 12.2663C15.1444 12.3348 14.9237 12.4451 14.7221 12.5897C14.684 12.6734 14.6536 12.7609 14.6308 12.8484C14.608 12.9359 14.5927 13.0196 14.5927 13.0995C14.5927 13.1528 14.6003 13.206 14.6194 13.2555C14.6422 13.2251 14.6688 13.2022 14.6955 13.1832C14.7221 13.1642 14.7563 13.1414 14.802 13.1109C14.8552 13.0881 14.9161 13.0729 14.9846 13.0729C15.1368 13.0729 15.2966 13.1528 15.4678 13.3087C15.6009 13.4533 15.7341 13.5979 15.871 13.7387C15.6085 13.9022 15.3917 14.0202 15.2129 14.0849C14.9618 14.1838 14.7183 14.2294 14.4748 14.2294C14.2922 14.2104 14.1248 14.1153 13.9726 13.9479C13.8433 13.8071 13.7481 13.6397 13.6797 13.4457C13.6112 12.9397 13.5655 12.3424 13.5389 11.6462C13.5123 10.9538 13.4894 10.2842 13.4704 9.64506C13.4324 8.89558 13.3753 8.27166 13.2954 7.77327C13.2231 7.82273 13.1547 7.91404 13.0938 8.04719C13.0633 8.11948 13.0139 8.22981 12.9492 8.37437C13.0329 8.84232 13.0938 9.30266 13.1318 9.74778C13.1699 10.1967 13.1851 10.6685 13.1851 11.1668C13.2155 11.7946 13.246 12.4185 13.2764 13.0386C13.3297 13.7691 13.5085 14.3321 13.8052 14.7278C14.0183 14.8724 14.2427 14.9485 14.4824 14.9485C14.7373 14.9485 15.0379 14.8534 15.3879 14.6669C15.6618 14.5033 15.9357 14.336 16.2096 14.1648C16.3428 14.3778 16.5102 14.5566 16.7118 14.705C16.8716 14.8191 17.0808 14.9332 17.3434 15.0436C17.4955 15.074 17.6325 15.0892 17.7542 15.0892C18.0776 15.0892 18.401 15.0055 18.732 14.8343C19.0059 14.6936 19.2874 14.4919 19.5728 14.2332C19.6831 13.9669 19.7592 13.6854 19.8048 13.3963C19.8505 13.1071 19.8733 12.8066 19.8733 12.4984C19.8733 12.1636 19.8429 11.7299 19.782 11.1935C19.6527 10.0674 19.5918 9.36353 19.5918 9.08581C19.6146 9.12385 19.6603 9.18853 19.7287 9.28364C19.7972 9.37875 19.8619 9.45864 19.9304 9.52712L19.9228 9.51571ZM14.9085 11.106C14.8857 11.1897 14.859 11.2772 14.8362 11.3647C14.8134 11.4522 14.7677 11.5169 14.6993 11.5625C14.5965 11.5321 14.5357 11.4712 14.5166 11.3799C14.5166 11.1859 14.5319 11.0223 14.5585 10.8929C14.5851 10.7636 14.6384 10.6342 14.7183 10.5125C14.7259 10.5619 14.7183 10.619 14.6993 10.6875C14.6574 10.8777 14.6346 10.9956 14.6346 11.0451C14.6346 11.1592 14.6764 11.2467 14.7639 11.3C14.783 11.2886 14.802 11.2543 14.8172 11.1935C14.8362 11.1364 14.8667 11.106 14.9085 11.106ZM12.2416 8.83091C12.2416 8.83091 12.2606 8.88037 12.2606 8.92222C12.2606 8.96026 12.2454 9.00591 12.2188 9.06678C12.1921 9.12766 12.1655 9.18092 12.1427 9.23038C12.0932 9.2532 12.0476 9.2532 12.0057 9.22277C11.9639 9.19233 11.922 9.14287 11.8878 9.0782C11.8802 9.04776 11.8802 8.99831 11.8802 8.93363C11.8802 8.70156 11.9639 8.50373 12.1274 8.34013C12.078 8.4809 12.0323 8.62167 11.9905 8.75863C11.9905 8.81189 11.9981 8.85374 12.0095 8.87656L12.1465 9.00591C12.1769 8.95265 12.2111 8.89178 12.2454 8.83091H12.2416ZM11.5644 9.94561C11.4807 10.1092 11.416 10.2271 11.3742 10.3032C11.2905 10.444 11.1877 10.5011 11.0736 10.4782L10.6627 10.2119C10.7122 10.1206 10.7731 10.0217 10.8492 9.91518C10.9252 9.80865 11.0051 9.71354 11.0926 9.62604C11.1725 9.65648 11.2524 9.70213 11.3285 9.763C11.4084 9.82387 11.4883 9.88474 11.5644 9.94561ZM12.3215 10.6038C12.1579 10.5011 12.0552 10.4364 12.0095 10.4136C11.9068 10.3603 11.8003 10.3146 11.6899 10.2766L11.2791 10.7978C11.3095 10.8891 11.397 10.969 11.5454 11.0337C11.6253 11.0717 11.7508 11.125 11.9296 11.1973L12.3215 10.6038ZM17.2977 15.755C17.1455 15.9376 16.9477 16.0822 16.708 16.1925C16.4683 16.3029 16.221 16.3561 15.9623 16.3561C15.8406 16.3561 15.7303 16.3447 15.6352 16.3181C15.5667 16.2762 15.5362 16.2039 15.5362 16.1088C15.5362 16.0784 15.5438 16.0403 15.5553 15.9909L15.8216 15.5876C15.7379 15.5344 15.677 15.4735 15.639 15.4126C15.658 15.3023 15.7074 15.1996 15.7911 15.1083C15.8748 15.0169 15.9699 14.9561 16.0803 14.9409C16.1297 14.9218 16.1792 14.9523 16.2363 15.0322C16.2553 15.074 16.2477 15.1159 16.2172 15.1501C16.1678 15.192 16.1335 15.2262 16.1183 15.249C16.0651 15.1958 16.0042 15.1653 15.9433 15.1653C15.9243 15.1653 15.9015 15.1729 15.871 15.192C15.852 15.1996 15.8444 15.211 15.8444 15.23C15.8444 15.249 15.852 15.2604 15.871 15.268C15.9129 15.3099 15.9661 15.3403 16.027 15.3555C16.0879 15.3708 16.1564 15.3784 16.2363 15.3784C16.3161 15.3403 16.3694 15.3175 16.3998 15.3061C16.4683 15.2757 16.5216 15.2718 16.5634 15.2985C16.514 15.4012 16.3542 15.5115 16.0803 15.6257C15.8444 15.7246 15.7227 15.8577 15.7227 16.0289C15.7759 16.0594 15.8482 16.0822 15.9319 16.1012C16.0156 16.1202 16.0917 16.1278 16.1602 16.1278C16.3009 16.1278 16.4379 16.105 16.571 16.0632C16.7042 16.0213 16.9477 15.9186 17.3015 15.7512L17.2977 15.755ZM11.5073 7.77327C10.9975 7.90643 10.5296 8.03958 10.1111 8.16513C9.82956 8.24883 9.36542 8.40101 8.71105 8.62166C8.05669 8.84232 7.61537 8.9907 7.39091 9.07059C7.26156 9.12005 7.13601 9.16951 7.00666 9.21516C6.73274 9.32549 6.59578 9.47386 6.59578 9.66408C7.24253 9.34831 8.01864 9.04396 8.93171 8.75102C9.73445 8.51514 10.5372 8.27165 11.3437 8.02817C11.397 8.00915 11.4426 7.97491 11.4807 7.92925C11.5187 7.8798 11.5263 7.83034 11.5073 7.77327ZM11.1954 10.813C11.1155 10.988 11.0622 11.1022 11.0318 11.1516C10.9595 11.2734 10.872 11.3571 10.7769 11.4065C10.5334 11.3457 10.3127 11.2467 10.1111 11.106C10.1415 11.0147 10.1986 10.9157 10.2861 10.8054C10.3241 10.7636 10.404 10.6685 10.5334 10.5239L11.1992 10.8168L11.1954 10.813ZM7.24253 8.37437C7.24253 8.47329 7.22351 8.5684 7.18166 8.66732C7.14362 8.76623 7.08275 8.83471 7.00285 8.87656C6.94198 8.89558 6.89633 8.86895 6.86589 8.80047C6.83546 8.73199 6.81263 8.67873 6.80122 8.6483C6.80122 8.50373 6.82024 8.36296 6.86209 8.23361C6.90013 8.10426 6.961 7.9711 7.0409 7.83795C7.0409 7.87599 7.02948 7.93306 7.00285 8.01295C6.94959 8.18796 6.91916 8.3097 6.91916 8.37057C6.91916 8.47329 6.9572 8.56079 7.03709 8.63688C7.08655 8.62927 7.1246 8.59123 7.15503 8.51894C7.18547 8.44666 7.2121 8.40101 7.23873 8.38198L7.24253 8.37437ZM9.8638 12.2739C9.87521 12.3652 9.8638 12.4527 9.83336 12.5402C9.79913 12.6239 9.74586 12.7 9.67358 12.7609C9.62412 12.7685 9.57847 12.7419 9.53662 12.6886C9.49477 12.6354 9.46814 12.5897 9.46053 12.5517C9.45292 12.5136 9.44531 12.4794 9.44531 12.4413C9.44531 12.331 9.46814 12.2245 9.5176 12.118C9.56705 12.0114 9.63173 11.9049 9.71923 11.8022C9.71923 11.8402 9.70782 11.8897 9.68119 11.9582C9.6089 12.1332 9.57086 12.2435 9.57086 12.2854C9.57086 12.3767 9.62412 12.4413 9.73445 12.4756C9.75347 12.4642 9.77249 12.4299 9.78771 12.3767C9.80673 12.3234 9.82956 12.2892 9.86 12.2777L9.8638 12.2739ZM8.48659 10.6228L8.42191 10.8701L8.21267 10.7788C8.14419 10.8815 8.09854 11.0603 8.07571 11.319C8.05288 11.5739 8.00723 11.7527 7.94636 11.8593C7.8969 11.8212 7.8132 11.6576 7.69146 11.3647C7.60015 11.144 7.46319 11.0489 7.28058 11.0717C7.22732 11.0337 7.19688 10.988 7.19688 10.9272C7.19688 10.9043 7.21971 10.8397 7.26156 10.7369C7.28438 10.6761 7.2996 10.6342 7.2996 10.6076C7.45178 10.6304 7.58113 10.7369 7.69146 10.9196C7.80179 11.1554 7.88168 11.3228 7.92733 11.4217C7.96918 11.2087 7.99962 11.0489 8.01864 10.9462C8.06049 10.7522 8.12517 10.6076 8.20886 10.5163C8.28876 10.5239 8.34582 10.5315 8.38387 10.5429C8.42191 10.5543 8.45235 10.581 8.48278 10.6266L8.48659 10.6228ZM5.93 9.5081C5.86913 9.60702 5.80826 9.70593 5.74358 9.80485C5.6789 9.90376 5.60662 9.99127 5.53053 10.0636L5.04737 9.75159C5.0778 9.66789 5.13867 9.56517 5.22998 9.45104C5.25281 9.4206 5.3327 9.32549 5.46586 9.16951C5.65608 9.21896 5.80826 9.32929 5.93 9.5081ZM12.2568 15.4164C12.2264 15.4583 12.1959 15.5077 12.1655 15.5572C12.1351 15.6104 12.097 15.6371 12.0476 15.6447C11.4084 15.8463 10.7693 16.048 10.1301 16.2572C10.1605 16.1887 10.1986 16.1202 10.2404 16.0518C10.2823 15.9833 10.3356 15.9452 10.3964 15.9376C10.7084 15.8387 11.028 15.7398 11.3551 15.6409C11.6823 15.542 11.9867 15.4659 12.2606 15.4164H12.2568ZM5.28324 8.03578L4.91041 7.64392C4.77725 7.64392 4.67833 7.72001 4.61746 7.87219C4.53757 8.07763 4.47289 8.20317 4.42724 8.24502C4.41583 8.28307 4.40822 8.3059 4.40822 8.31731C4.40822 8.37057 4.44246 8.42764 4.50713 8.4809C4.54518 8.50373 4.59464 8.53416 4.66312 8.5646C4.43865 8.8195 4.15332 9.07439 3.81472 9.3331C3.6207 9.47767 3.32014 9.69452 2.90926 9.97985C3.3658 9.74398 3.70059 9.55375 3.91364 9.41299C4.26745 9.17711 4.55659 8.907 4.78105 8.61025C4.83051 8.63308 4.88377 8.65971 4.94465 8.68634C5.00552 8.71297 5.05878 8.72819 5.10063 8.72819C5.1615 8.72819 5.21096 8.69775 5.2452 8.63688C5.28324 8.57601 5.30607 8.51894 5.32129 8.46949C5.3365 8.41622 5.34411 8.35916 5.34411 8.29068C5.34411 8.18796 5.32129 8.10045 5.27944 8.03578H5.28324ZM5.01693 9.66028C4.97508 9.763 4.91801 9.86572 4.85334 9.96083C4.8229 10.0027 4.75062 10.0978 4.63268 10.2424L4.07723 10.0065C4.11908 9.89616 4.17615 9.78583 4.25224 9.6793C4.3055 9.59941 4.38539 9.5081 4.48811 9.40538C4.60985 9.45484 4.70116 9.48908 4.76203 9.5043C4.87617 9.54615 4.96367 9.59941 5.01693 9.66028ZM12.2948 13.0386C12.1313 13.2136 12.0476 13.4267 12.0476 13.6702C12.0476 13.8033 12.078 13.9479 12.1389 14.1001C12.0399 14.1495 11.9334 14.1724 11.8193 14.1724C11.6557 14.1724 11.5187 14.1267 11.4084 14.0354C11.3095 13.9859 11.2638 13.9213 11.2638 13.8452C11.2638 13.8147 11.2829 13.7501 11.3171 13.655C11.3551 13.556 11.3666 13.4876 11.3551 13.4457C11.3171 13.4876 11.2258 13.6283 11.0812 13.8642C10.9709 14.0468 10.853 14.1686 10.7236 14.2294C10.6399 14.2599 10.5638 14.2827 10.5029 14.2941C10.4421 14.3055 10.366 14.3131 10.2747 14.3131C10.1644 14.3131 10.0654 14.2903 9.97793 14.2484C9.89043 14.2066 9.82956 14.1571 9.79532 14.0963C9.76108 14.0392 9.74586 13.9669 9.74586 13.8832C9.75347 13.7995 9.76108 13.7234 9.76869 13.655C9.7763 13.5865 9.7801 13.5256 9.77249 13.4647C9.61271 13.6245 9.51379 13.7196 9.47194 13.7577C9.36161 13.8566 9.25128 13.9365 9.13335 14.005C8.86703 14.1191 8.57029 14.18 8.24691 14.18C7.99201 14.18 7.74472 14.1419 7.50885 14.0696C7.36428 14.0088 7.25395 13.8946 7.18166 13.7234C7.1322 13.5789 7.08655 13.4267 7.0447 13.2745C6.99144 13.324 6.85448 13.4799 6.64143 13.7501C6.48164 13.9517 6.32947 14.0849 6.17729 14.1533C6.105 14.1648 6.05174 14.1724 6.02131 14.1724C5.7588 14.1724 5.51912 14.0164 5.29846 13.7082C5.15389 13.4457 5.00552 13.1832 4.86095 12.9245C4.61746 12.9663 4.41963 13.0843 4.26745 13.2707C4.16854 13.3848 4.06582 13.5827 3.95549 13.8642C3.81092 14.2218 3.71961 14.4387 3.68157 14.511C3.55983 14.7468 3.41526 14.9294 3.25166 15.0512C3.17938 15.0626 3.12231 15.0702 3.07666 15.0702C2.91307 15.0702 2.78372 15.0169 2.69241 14.9066C2.55165 14.7354 2.44893 14.5376 2.37664 14.3131C2.30816 14.0887 2.27012 13.849 2.27012 13.5903C2.27012 13.2327 2.32718 12.9093 2.44512 12.6239L2.62773 12.6316C2.76089 12.5022 2.86361 12.331 2.92829 12.1103C2.95872 12 2.99677 11.7946 3.04622 11.4902C2.99296 11.5092 2.94731 11.5701 2.91687 11.6766C2.88644 11.7832 2.85981 11.8516 2.83317 11.8821C2.81035 11.9125 2.77991 11.9277 2.74948 11.9277C2.70763 11.9277 2.65056 11.9011 2.58589 11.844C2.50219 11.7337 2.43751 11.6196 2.39947 11.4978C2.36142 11.3761 2.3386 11.2505 2.3386 11.125C2.3386 10.9043 2.40327 10.6418 2.52882 10.3299C2.63915 10.0864 2.74948 9.84289 2.856 9.59941C2.65437 9.85431 2.49077 10.1092 2.36142 10.3679C2.23207 10.6228 2.12555 10.9081 2.03424 11.2277C2.03424 11.2658 2.02663 11.3228 2.00761 11.4027C2 11.4636 2 11.5625 2 11.6957C2 11.8973 2.03044 12.0761 2.09131 12.2283C2.15218 12.3843 2.2587 12.5136 2.41088 12.6163C2.35001 12.6658 2.29675 12.7495 2.2549 12.8712C2.23588 12.9321 2.20544 13.0424 2.15979 13.1984C2.11413 13.3582 2.0837 13.499 2.06848 13.6283C2.05326 13.7577 2.04565 13.906 2.04565 14.0772C2.04565 14.412 2.09892 14.7202 2.20164 15.0055C2.30436 15.2871 2.46795 15.5267 2.6848 15.7208C2.76469 15.7816 2.85981 15.8121 2.96633 15.8121C3.01959 15.8121 3.06525 15.8121 3.09568 15.8083C3.12612 15.8083 3.18318 15.7931 3.27069 15.7778C3.43047 15.6485 3.55982 15.4773 3.66255 15.2566C3.69298 15.1881 3.76907 14.9903 3.88701 14.6631C4.00495 14.336 4.13049 14.0963 4.26745 13.9517C4.38159 13.83 4.52235 13.7387 4.68594 13.6778C4.8191 13.9137 4.95606 14.1495 5.09682 14.3816C5.27183 14.6669 5.47727 14.8419 5.70934 14.9028C5.77782 14.9218 5.83869 14.9294 5.89956 14.9294C6.08979 14.9294 6.2724 14.8305 6.4474 14.6289C6.57676 14.4577 6.7023 14.2865 6.83165 14.1191C6.88492 14.3512 6.961 14.5224 7.05992 14.6289C7.10177 14.6669 7.16264 14.7012 7.24253 14.7392C7.32243 14.7773 7.40613 14.8115 7.49743 14.8496C7.69146 14.8724 7.82462 14.8876 7.8931 14.8914C7.96158 14.8914 8.03766 14.8952 8.11756 14.8952C8.38006 14.8952 8.62355 14.8572 8.84801 14.7773C9.07247 14.6974 9.2627 14.5718 9.41488 14.393L9.47955 14.6669C9.55184 14.8305 9.68499 14.9371 9.87141 14.9865C9.96272 15.0093 10.1339 15.0246 10.3812 15.0246C10.5106 15.0055 10.6323 14.9409 10.754 14.8229C10.8073 14.7697 10.8986 14.6631 11.0204 14.5033C11.0622 14.6061 11.1345 14.7012 11.2334 14.7811C11.3323 14.8648 11.435 14.9028 11.5378 14.9028C11.6975 14.9028 11.8307 14.8876 11.941 14.8534C12.0514 14.8191 12.1389 14.7468 12.2073 14.6403C12.2378 14.5414 12.291 14.374 12.3709 14.1381C12.4242 13.9441 12.4546 13.7653 12.4546 13.6093C12.4546 13.5066 12.4394 13.4077 12.4128 13.3164C12.3862 13.2251 12.3405 13.1414 12.2796 13.0615L12.2948 13.0386ZM6.26099 12.0989C6.24196 12.2587 6.23055 12.3462 6.22294 12.3652C6.19251 12.468 6.13544 12.5364 6.04794 12.5669C6.00609 12.5669 5.96424 12.5441 5.91858 12.4946C5.87674 12.4451 5.8501 12.3995 5.83489 12.3576C5.83489 12.1978 5.85391 12.0533 5.89576 11.9239C5.9338 11.7946 5.99467 11.6538 6.07457 11.5092C6.07457 11.5511 6.04794 11.6614 5.99087 11.8364C5.96043 11.9353 5.94522 12.0076 5.94522 12.0571C5.94522 12.156 5.97946 12.2359 6.04413 12.3044C6.09739 12.3044 6.14305 12.2739 6.18109 12.2093C6.21914 12.1446 6.24196 12.1103 6.25338 12.1027L6.26099 12.0989ZM4.19897 11.7984C4.19897 11.9315 4.18375 12.0457 4.15332 12.1408C4.12288 12.2359 4.06582 12.3082 3.97831 12.3538C3.85657 12.3424 3.78809 12.3006 3.77668 12.2321C3.76527 12.1636 3.75766 12.1103 3.75766 12.0761V12.0076C3.75766 11.6919 3.84135 11.4446 4.01255 11.2696C3.98212 11.3495 3.95168 11.4408 3.91744 11.5435C3.8832 11.6462 3.86799 11.7375 3.86799 11.8174C3.86799 11.9163 3.89462 12.0076 3.95168 12.0913C4.02397 12.1027 4.07343 12.0609 4.09625 11.962C4.11908 11.8631 4.15332 11.8098 4.19517 11.7984H4.19897ZM7.642 15.6865C7.50124 15.8882 7.34906 16.0594 7.18547 16.2077C7.1246 16.1697 7.00666 16.0936 6.82785 15.9719C6.74796 15.9186 6.67567 15.8691 6.60719 15.8273C6.55393 15.8577 6.49306 15.9262 6.42458 16.0365C6.3561 16.1469 6.28762 16.2192 6.21533 16.2572C6.08218 16.1773 5.98326 16.1164 5.92239 16.0746C5.80065 15.9947 5.72836 15.9224 5.70173 15.8539L6.15827 15.3517C6.16968 15.3746 6.28762 15.4507 6.50447 15.58C6.60719 15.6409 6.67187 15.6903 6.69469 15.7246L7.10557 15.2947L7.63439 15.6865H7.642ZM16.902 13.0386C16.7384 13.1528 16.5749 13.2669 16.4075 13.3772C16.3276 13.2859 16.2515 13.1908 16.1792 13.0957C16.1373 13.0462 16.1069 12.993 16.0879 12.9321L16.902 13.0424V13.0386ZM5.18813 8.44666C5.14628 8.45807 5.09682 8.44666 5.04737 8.40861C4.9941 8.37057 4.96747 8.35535 4.95986 8.35535L5.04356 8.14611C5.06258 8.17654 5.08921 8.21839 5.13106 8.27546C5.16911 8.32872 5.19193 8.38959 5.19193 8.45046L5.18813 8.44666ZM4.83051 8.27165L4.62127 8.20698C4.62127 8.13469 4.65931 8.09665 4.7392 8.09665C4.79247 8.09665 4.8229 8.12709 4.83051 8.18796V8.27165Z" fill="white"/>
</svg>
