<svg width="24" height="24" viewBox="0 0 24 24" fill="none" xmlns="http://www.w3.org/2000/svg">
<path fill-rule="evenodd" clip-rule="evenodd" d="M21.995 8.68152C21.9055 8.72132 21.806 8.67157 21.6965 8.53724C21.5871 8.40292 21.5124 8.33326 21.4826 8.33326C21.4428 8.33326 21.398 8.37804 21.3532 8.46262C21.3532 8.99496 21.4129 9.61684 21.5323 10.3233C21.8109 11.98 21.9502 13.0099 21.9502 13.4178C21.9502 13.8457 21.9303 14.2437 21.8955 14.6069C21.8607 14.9701 21.7861 15.3233 21.6766 15.6766C21.6766 14.7611 21.6219 13.8159 21.5075 12.8358C21.4378 12.2089 21.2985 11.2736 21.0896 10.0298C20.9303 9.09943 20.7761 8.16909 20.6219 7.23376C20.6766 7.06461 20.7313 6.9253 20.791 6.81585C20.8458 6.7064 20.9204 6.59197 21.0199 6.48252C21.3284 7.14918 21.5025 7.51734 21.5323 7.58202C21.6915 7.93028 21.8458 8.29844 22 8.68152H21.995ZM18.0547 6.02979C18.0448 6.08451 18.0199 6.13924 17.9701 6.19894C17.9204 6.25366 17.8408 6.30839 17.7313 6.36809C16.5672 6.82083 15.4129 7.27357 14.2587 7.71635C14.2886 7.61187 14.3383 7.52232 14.403 7.44769C14.4677 7.37306 14.5473 7.31834 14.6418 7.28849C15.7811 6.87556 16.9204 6.45764 18.0547 6.03476V6.02979ZM17.3383 8.15416C17.3781 8.03475 17.398 7.91535 17.398 7.79595C17.398 7.67655 17.3881 7.57705 17.3632 7.49745C17.3383 7.41784 17.2935 7.34819 17.2338 7.28351C17.204 7.34819 17.1841 7.41784 17.1841 7.49745C17.1841 7.5472 17.194 7.61684 17.209 7.71137C17.2239 7.8059 17.2338 7.87058 17.2338 7.90043H17.0199C16.9552 7.83078 16.9154 7.73127 16.9005 7.60192C16.8856 7.47257 16.8706 7.35317 16.8657 7.23376C16.796 7.28352 16.7562 7.37804 16.7562 7.52232C16.7562 7.61187 16.7761 7.73127 16.8159 7.89048C16.7861 7.97008 16.7363 8.02978 16.6766 8.06958C16.6169 8.10938 16.5473 8.11933 16.4677 8.09446C16.4279 8.00491 16.408 7.8656 16.408 7.67157C16.408 7.47754 16.408 7.35814 16.398 7.31834C16.3483 7.37307 16.3184 7.42779 16.3085 7.47257C16.2985 7.52232 16.2886 7.59695 16.2886 7.70143C16.2886 7.7661 16.2886 7.86062 16.2985 7.98998C16.2985 8.09446 16.2886 8.16909 16.2736 8.21884C16.2836 8.28351 16.3035 8.33326 16.3433 8.37306C16.4129 8.45267 16.5075 8.47256 16.6169 8.43276C16.7264 8.37804 16.806 8.28352 16.8557 8.15914L16.9652 8.24371C17.0149 8.25864 17.0547 8.26859 17.0846 8.26859C17.1891 8.26859 17.2736 8.23376 17.3333 8.15914L17.3383 8.15416ZM17.3881 9.59695C17.3383 9.6467 17.2886 9.7462 17.2289 9.89545C17.1692 10.0447 17.0995 10.1492 17.0199 10.2039C16.7413 10.0696 16.4975 9.9054 16.2935 9.71635C16.3582 9.57207 16.4229 9.42779 16.4975 9.28849C16.592 9.12928 16.7065 9.04968 16.8458 9.04968C16.8706 9.07953 16.9901 9.15913 17.204 9.28849C17.3483 9.37804 17.4129 9.47755 17.393 9.59695H17.3881ZM16.5423 11.2935C16.5672 11.3432 16.5771 11.388 16.5771 11.4377C16.5771 11.4875 16.5572 11.5422 16.5224 11.6119C16.4876 11.6815 16.4627 11.7313 16.4428 11.7611C16.393 11.8258 16.3333 11.8557 16.2637 11.8557C16.2239 11.8557 16.1841 11.8457 16.1443 11.8208C16.0796 11.7014 16.0498 11.5721 16.0498 11.4278C16.0498 11.2686 16.0796 11.0994 16.1443 10.9253C16.2388 10.7114 16.3085 10.5571 16.3483 10.4576C16.3582 10.5223 16.3234 10.6815 16.2537 10.9353C16.2139 11.0696 16.194 11.1741 16.194 11.2437C16.194 11.393 16.2687 11.4875 16.4229 11.5173C16.4328 11.4875 16.4478 11.4477 16.4776 11.3979C16.5075 11.3482 16.5274 11.3134 16.5423 11.2885V11.2935ZM12.8657 7.34322C12.7214 7.71138 12.5224 8.02978 12.2687 8.29844C11.9502 8.63177 11.6219 8.80093 11.2886 8.80093C11.2338 8.77107 11.1592 8.77107 11.0697 8.80093C10.9801 8.83078 10.9104 8.85068 10.8607 8.85068C11.1891 8.68153 11.4279 8.56212 11.5871 8.48252C11.8806 8.33326 12.0945 8.17406 12.2338 8.01485C12.1393 7.98998 12.0348 7.97008 11.9154 7.95516C11.801 7.94023 11.6816 7.93028 11.5622 7.93028C11.2189 7.93028 10.9453 8.00491 10.7363 8.15914C10.9104 7.86561 11.0547 7.66162 11.1642 7.55217C11.3632 7.34322 11.5871 7.24371 11.8308 7.24371C12.204 7.24371 12.5473 7.27854 12.8557 7.35316L12.8657 7.34322ZM14.0498 9.74122L14 9.98998C13.9701 10.0049 13.9154 9.99993 13.8408 9.9651C13.7662 9.93525 13.7065 9.93525 13.6667 9.9651C13.5572 10.0696 13.4876 10.2586 13.4577 10.5323C13.4279 10.8059 13.393 10.99 13.3433 11.0746C13.2736 11.0248 13.1692 10.8407 13.0348 10.5124C12.9303 10.2636 12.7761 10.1542 12.5672 10.179C12.5572 10.1542 12.5572 10.1094 12.5572 10.0497C12.5572 9.90043 12.6119 9.78103 12.7264 9.69148C12.8756 9.7462 13 9.87555 13.0945 10.0746C13.1642 10.2586 13.2438 10.4427 13.3234 10.6218C13.3781 10.393 13.4229 10.2188 13.4527 10.1094C13.5174 9.91038 13.602 9.75615 13.7164 9.64172C13.8607 9.61187 13.9701 9.64172 14.0498 9.73625V9.74122ZM9.74129 7.5074C9.75124 7.57207 9.74129 7.64669 9.72139 7.7263C9.70149 7.81087 9.67164 7.89545 9.63184 7.98501C9.52239 8.03973 9.44279 8.06958 9.39303 8.06958C9.36318 8.06958 9.32338 8.05964 9.28358 8.03476C9.21393 7.91536 9.17413 7.786 9.17413 7.65167C9.17413 7.53227 9.199 7.40292 9.24378 7.25864C9.24378 7.24869 9.29353 7.12929 9.39801 6.89048C9.39801 6.95516 9.37811 7.05465 9.34328 7.18898C9.30846 7.32331 9.28856 7.41784 9.28856 7.46262C9.28856 7.59197 9.33831 7.69147 9.43284 7.76113C9.50249 7.786 9.56219 7.76113 9.60697 7.70143C9.65174 7.63675 9.69154 7.57207 9.73134 7.51237L9.74129 7.5074ZM10.194 10.9701C10.209 11.0198 10.209 11.0746 10.194 11.1392C10.1791 11.2039 10.1343 11.3233 10.0647 11.4974C10 11.5472 9.93035 11.5671 9.85075 11.5671C9.81095 11.5671 9.77612 11.5522 9.74129 11.5173C9.63682 11.4129 9.58706 11.2885 9.58706 11.1492C9.58706 11.0397 9.61692 10.9104 9.67164 10.7661C9.72637 10.6218 9.78109 10.4875 9.8408 10.3581C9.8408 10.4079 9.82587 10.4925 9.79104 10.6218C9.76119 10.7512 9.74129 10.8507 9.74129 10.9203C9.74129 11.0646 9.79105 11.1691 9.89552 11.2437C9.97512 11.2586 10.0348 11.2338 10.0746 11.1641C10.1144 11.0945 10.1542 11.0298 10.194 10.9651V10.9701ZM19.6766 13.6069C19.408 11.8557 19.1393 10.1044 18.8756 8.35317L18.9701 8.18401C19.0398 8.23376 19.1294 8.34322 19.2338 8.51735C19.3134 8.66163 19.393 8.73625 19.4726 8.7462C19.2985 8.16411 19.1791 7.786 19.1144 7.61187C18.9652 7.18401 18.806 6.81586 18.6468 6.51237C18.5572 6.6467 18.4776 6.78103 18.398 6.92033C18.2935 7.09446 18.2438 7.24869 18.2438 7.37307C18.2438 7.46759 18.2637 7.55715 18.3035 7.63675L19.3781 13.8557C19.209 14.0149 19.0398 14.1392 18.8706 14.2238C18.7015 14.3134 18.5025 14.383 18.2786 14.4377C18.1841 14.4527 18.1095 14.4626 18.0647 14.4626C17.9453 14.4626 17.8458 14.4477 17.7612 14.4129C17.6766 14.383 17.602 14.3233 17.5274 14.2338C17.4975 14.179 17.4776 14.1193 17.4776 14.0547C17.4776 14.0049 17.4975 13.9154 17.5423 13.776C17.5871 13.6367 17.607 13.5323 17.607 13.4576C17.3433 13.4825 17.005 13.5721 16.592 13.7313C15.5572 14.1193 15 14.3233 14.9204 14.3382C15.0796 14.2039 15.2388 13.9651 15.398 13.6218C15.5025 13.393 15.5721 13.2437 15.6119 13.179C15.6119 13.1542 15.6119 13.1193 15.6219 13.0696C15.6219 12.8457 15.4925 12.6517 15.2289 12.4825C15 12.3731 14.7711 12.2586 14.5473 12.1492C14.3881 12.0795 14.2289 12.0248 14.0746 11.995C13.9204 11.9651 13.7711 11.9452 13.6269 11.9452C13.0448 11.9452 12.4229 12.2338 11.7662 12.8159C11.2388 13.3432 10.7214 13.8606 10.204 14.378C10.0299 14.393 9.84577 14.2984 9.65672 14.0895C9.2189 13.6119 8.95025 13.3681 8.84577 13.3532C8.74129 13.3432 8.63184 13.3333 8.51244 13.3333C8.07463 13.3333 7.64677 13.4427 7.23383 13.6566C6.90547 13.8258 6.54726 14.0945 6.14925 14.4676C5.72637 14.8905 5.30348 15.3134 4.88557 15.7313C4.38308 16.2238 3.93532 16.5721 3.53731 16.7711C3.44279 16.8208 3.34328 16.8407 3.23881 16.8407C2.99005 16.8407 2.76119 16.7462 2.54726 16.5522C2.37811 16.3382 2.29851 16.0746 2.29851 15.7661C2.29851 15.5372 2.34328 15.3084 2.42786 15.0845C2.45771 15.0447 2.63184 14.7014 2.9403 14.0596C3.0597 13.8109 3.18905 13.6218 3.33333 13.4875C3.46766 13.5173 3.61692 13.4626 3.77612 13.3183C3.89552 13.1741 3.98507 13.0198 4.0398 12.8606C4.09453 12.6964 4.12438 12.5273 4.12438 12.3532C4.12438 12.2586 4.12438 12.184 4.11443 12.1392C4.07463 12.1293 4.04975 12.1542 4.04478 12.2039C4.03483 12.2537 4.02985 12.2835 4.0199 12.2935C3.95025 12.4228 3.87065 12.5074 3.79104 12.5522C3.71144 12.5969 3.63682 12.6119 3.56219 12.592C3.41791 12.4328 3.32338 12.2835 3.26866 12.1392C3.21891 11.995 3.18905 11.8258 3.18905 11.6268C3.18905 11.3333 3.26866 10.9751 3.42786 10.5522C3.51741 10.3233 3.64179 9.99496 3.81095 9.57207C3.53234 9.98501 3.30846 10.393 3.14428 10.791C2.93532 11.2935 2.83582 11.7561 2.83582 12.1741C2.83582 12.3731 2.86567 12.582 2.9204 12.8009C2.97512 13.0198 3.0597 13.2188 3.16915 13.393C3.07463 13.6467 2.88557 14.0198 2.60697 14.5074C2.32836 14.995 2.14428 15.378 2.0597 15.6467C2.0199 15.781 2 15.9054 2 16.0149C2 16.2039 2.0398 16.393 2.11443 16.577C2.18905 16.7611 2.29353 16.9253 2.41791 17.0646C2.53731 17.1343 2.66667 17.2089 2.80099 17.2835C2.93532 17.3581 3.06468 17.3979 3.18408 17.3979C3.25373 17.3979 3.33831 17.378 3.43284 17.3382C3.8607 17.1542 4.37313 16.791 4.9602 16.2387C5.73134 15.5124 6.20896 15.0845 6.39303 14.9502C7.04478 14.4576 7.72139 14.2089 8.42289 14.2089C8.59701 14.2387 8.78607 14.3631 8.98507 14.577C9.08955 14.6964 9.24378 14.8706 9.45274 15.1044C9.38806 15.2089 9.35323 15.2736 9.34328 15.2935C9.31343 15.3631 9.31343 15.4278 9.34328 15.4825C9.41294 15.4726 9.48259 15.4477 9.55224 15.3979C9.62189 15.3482 9.68657 15.3034 9.75124 15.2537C9.9204 15.3233 10.0945 15.378 10.2836 15.4079C10.4726 15.4377 10.6517 15.4576 10.8259 15.4576C11.5174 15.3681 12.209 15.2785 12.9055 15.184C13.5721 15.184 14.2687 15.0895 14.9851 14.8955C15.5323 14.7512 16.1592 14.5273 16.8607 14.2288C16.8856 14.2288 16.9303 14.2288 16.9901 14.2188C17.1343 14.2188 17.2189 14.2686 17.2537 14.3631L17.2438 14.3979C17.2338 14.4377 17.2338 14.4974 17.2338 14.577C17.2338 14.7114 17.2537 14.8308 17.2935 14.9303C17.3333 15.0298 17.408 15.1094 17.5224 15.1691C17.6318 15.2288 17.7662 15.2586 17.9154 15.2586C18.0448 15.2586 18.1542 15.2487 18.2438 15.2288C18.3333 15.2089 18.4776 15.1691 18.6667 15.1044C18.995 14.995 19.2438 14.796 19.4229 14.5173C19.602 14.2387 19.6915 13.9253 19.6915 13.5721L19.6766 13.6069ZM7.32836 6.93028L7.25871 7.17904C7.1791 7.11436 7.08955 7.07456 6.98507 7.05963C6.8806 7.18899 6.82587 7.41287 6.81592 7.73625C6.80597 8.05963 6.77114 8.27854 6.70647 8.39794C6.78607 8.46262 6.87065 8.5273 6.96517 8.60192C7.05473 8.67158 7.12438 8.75118 7.17413 8.84073L7.10448 9.13924C7.01493 9.10939 6.91542 9.08948 6.80597 9.08948C6.59701 9.08948 6.40796 9.14421 6.23383 9.25864C6.1791 9.34819 6.1393 9.43774 6.11443 9.53724C6.08955 9.63674 6.0796 9.73625 6.0796 9.83078C6.0796 9.97506 6.10448 10.1492 6.14925 10.3581C6.25871 10.8358 6.31841 11.1392 6.31841 11.2636V11.4676C6.31841 11.6367 6.31841 11.8308 6.31343 12.0596C6.31343 12.2885 6.27363 12.5372 6.199 12.8159C6.24876 12.587 6.26866 12.3631 6.26866 12.1492C6.26866 12.0298 6.25871 11.9004 6.24378 11.7611C6.22886 11.6218 6.21393 11.4875 6.19403 11.3631C6.12438 11.0149 6.06965 10.7561 6.0398 10.587C5.98507 10.2935 5.95522 10.0397 5.95522 9.83575C5.95522 9.63177 5.99005 9.39794 6.06468 9.16909C6.13433 9.08949 6.22388 9.01983 6.33333 8.96013C6.44279 8.90043 6.55721 8.8457 6.68657 8.80093C6.66169 8.73127 6.59702 8.69147 6.49751 8.69147C6.46766 8.69147 6.41791 8.70142 6.35323 8.71635C6.34328 8.73127 6.32338 8.7462 6.29353 8.7661C6.26368 8.78103 6.23881 8.79595 6.22388 8.80093C6.19403 8.71137 6.21393 8.61684 6.29353 8.51237L6.56716 8.35814C6.53731 8.14918 6.43781 7.97506 6.27861 7.83078C6.1592 7.7263 5.98507 7.62183 5.75124 7.5074C5.76617 7.38799 5.78109 7.28849 5.79104 7.20889C5.80099 7.12929 5.85075 7.06461 5.93035 7.01983C6.11443 7.08451 6.26368 7.22878 6.38308 7.46262C6.47761 7.65167 6.57711 7.8457 6.68159 8.03476C6.71144 7.74123 6.74129 7.48749 6.77114 7.26859C6.80099 7.05466 6.88557 6.87555 7.02985 6.73127C7.10945 6.72132 7.1791 6.75117 7.24378 6.81585C7.26866 6.84072 7.29353 6.88053 7.32836 6.93525V6.93028ZM4.69154 7.93525C4.66169 8.0845 4.63184 8.21386 4.60697 8.31337C4.58209 8.41287 4.51741 8.47256 4.40299 8.48749C4.33831 8.47754 4.28358 8.45764 4.22886 8.42282C4.1791 8.38799 4.14925 8.33326 4.14925 8.26361C4.14925 8.05466 4.16915 7.88053 4.20896 7.73128C4.24876 7.58202 4.32338 7.40291 4.43781 7.18898C4.43781 7.25366 4.41294 7.35814 4.36816 7.51237C4.31841 7.66162 4.29851 7.78103 4.29851 7.87058C4.29851 8.01983 4.34826 8.12928 4.44279 8.19396C4.51244 8.19396 4.55721 8.14919 4.57214 8.06461C4.58706 7.97506 4.62687 7.93525 4.69154 7.9452V7.93525ZM13.4677 15.9701C13.4279 16.1144 13.3433 16.2487 13.2189 16.383C13.0896 16.5124 12.9502 16.6119 12.801 16.6765C12.7363 16.7064 12.6716 16.7263 12.6119 16.7263C12.5423 16.7263 12.403 16.6765 12.204 16.582C12.1095 16.5323 12.0348 16.5124 11.9751 16.5124C11.8955 16.5124 11.8109 16.5522 11.7264 16.6318L11.0697 17.0149L10.4478 17.3731C10.1841 17.5173 9.94527 17.6367 9.72637 17.7313C9.50746 17.8258 9.26866 17.9054 9.01493 17.9701C9.23881 17.8905 9.47761 17.781 9.73134 17.6417C9.98507 17.5024 10.2289 17.3532 10.4577 17.194L11.0896 16.776C11.3284 16.6069 11.5323 16.4925 11.6965 16.4278C11.9204 16.3382 12.1642 16.2984 12.4229 16.2984L12.5423 16.393C12.5721 16.3681 12.6517 16.2835 12.7711 16.1442C12.9453 15.9353 13.0945 15.8358 13.2139 15.8358C13.3085 15.8358 13.393 15.8855 13.4627 15.98L13.4677 15.9701ZM5.27861 13.393C5.30348 13.4477 5.29851 13.5074 5.26866 13.5671C5.23881 13.6268 5.19901 13.6566 5.1592 13.6566L4.99005 13.5124C4.9403 13.6168 4.90547 13.8507 4.87562 14.2188C4.84577 14.587 4.75622 14.8358 4.60697 14.9701C4.52736 14.8756 4.46269 14.7512 4.40796 14.6019C4.35821 14.4527 4.30846 14.2984 4.25871 14.1492C4.20896 14.2835 4.12935 14.3183 4.0199 14.2437C3.99005 14.2139 3.97015 14.1691 3.97015 14.1144C3.97015 14.0746 3.98507 14.0149 4.0199 13.9353C4.04975 13.8557 4.06965 13.791 4.06965 13.7462C4.10945 13.7213 4.14925 13.6964 4.18408 13.6765C4.21891 13.6517 4.24876 13.6467 4.27363 13.6517C4.40298 13.98 4.52736 14.2984 4.65672 14.6168C4.68657 14.5522 4.72637 14.3183 4.77612 13.9054C4.82587 13.4974 4.94527 13.2736 5.13433 13.2437L5.27861 13.3979V13.393ZM15.0796 13.5969C14.6567 13.786 14.3035 13.9353 14.0149 14.0397C13.6468 14.1741 13.2786 14.2885 12.9055 14.3731C12.6368 14.4377 12.3582 14.4875 12.0697 14.5273C11.7811 14.5671 11.5025 14.587 11.2338 14.587C11.0199 14.587 10.796 14.577 10.5672 14.5522C10.99 14.0895 11.2786 13.786 11.4378 13.6467C12.0597 13.0746 12.6517 12.786 13.2189 12.786C13.4577 12.786 13.6915 12.8308 13.9254 12.9154C14.0199 12.9552 14.1741 13.0198 14.393 13.1044C14.7114 13.2387 14.9403 13.4029 15.0846 13.592L15.0796 13.5969ZM13.2289 16.189C13.0547 16.3233 12.8856 16.393 12.7264 16.393C12.7562 16.2984 12.8209 16.2238 12.9154 16.179C13.01 16.1293 13.1045 16.1193 13.1891 16.1442C13.1891 16.1591 13.199 16.1741 13.2239 16.194L13.2289 16.189Z" fill="white"/>
</svg>
