<svg width="24" height="24" viewBox="0 0 24 24" fill="none" xmlns="http://www.w3.org/2000/svg">
<path fill-rule="evenodd" clip-rule="evenodd" d="M21.9947 8.04018C21.9091 7.96532 21.8235 7.87976 21.738 7.7942C21.6524 7.70864 21.5829 7.61238 21.5348 7.51078C21.4492 7.58564 21.4064 7.69259 21.4064 7.83163C21.4064 7.90115 21.4064 7.97067 21.4171 8.05088C21.4278 8.12575 21.4332 8.20597 21.4439 8.28083C21.4439 8.35035 21.4439 8.39848 21.4332 8.43591C21.4332 8.76211 21.4652 9.17923 21.5348 9.6926C21.6898 10.837 21.7647 11.5696 21.7647 11.8851C21.7647 12.6872 21.7487 13.2594 21.7112 13.591C21.6524 14.2006 21.508 14.73 21.2727 15.1846C21.3316 15.0241 21.3743 14.8637 21.3957 14.7086C21.4171 14.5536 21.4278 14.3557 21.4278 14.1204C21.4278 14.0188 21.4278 13.8584 21.4171 13.6445C21.4064 13.4306 21.4064 13.2701 21.4064 13.1578L20.8556 6.7942L20.6898 6.31827C20.7647 6.15784 20.8449 5.99206 20.9198 5.83163C20.9733 5.73538 21.0428 5.64982 21.139 5.57495C21.3369 5.97602 21.508 6.38778 21.6578 6.81559C21.8075 7.23805 21.9198 7.64981 22 8.04018H21.9947ZM15.7594 6.39848C14.8289 6.71399 14.1283 6.94928 13.6685 7.10436C12.8396 7.38778 12.1551 7.66586 11.615 7.93859C11.615 7.86372 11.6524 7.77816 11.7326 7.69259C11.7487 7.66586 11.893 7.5589 12.1551 7.37173L17.1711 5.66586C17.1016 5.84768 16.9037 5.99741 16.5829 6.11506C16.3102 6.21131 16.0374 6.30222 15.7594 6.39848ZM16.7487 8.01345C16.7487 7.85302 16.6471 7.71933 16.4385 7.61773C16.2567 7.54821 16.0856 7.47869 15.9144 7.41452L15.4652 7.99206C15.3529 7.9065 15.2299 7.83698 15.1016 7.78885C14.9679 7.73538 14.8182 7.69259 14.6471 7.64981C14.5455 7.74607 14.4545 7.85837 14.369 7.99741C14.2888 8.13645 14.2193 8.27548 14.1551 8.41987C14.2727 8.45195 14.4171 8.50543 14.5775 8.5803C14.738 8.65516 14.893 8.72468 15.0374 8.7942C15.1123 8.74072 15.1818 8.64446 15.2406 8.50008C15.2995 8.35569 15.3636 8.2541 15.4332 8.18992C15.7326 8.33431 16.0321 8.47869 16.3316 8.62842L16.7433 8.02414L16.7487 8.01345ZM17.7754 10.976C17.7914 11.0883 17.7861 11.1899 17.7487 11.2862C17.7166 11.3824 17.6524 11.468 17.5668 11.5429C17.4813 11.5429 17.4064 11.5108 17.3476 11.4413C17.2888 11.3397 17.246 11.2648 17.2193 11.222C17.2193 11.0669 17.2353 10.9439 17.262 10.8423C17.2941 10.7461 17.3476 10.6124 17.4225 10.452C17.4225 10.4947 17.4118 10.5696 17.3957 10.6766C17.3797 10.7835 17.369 10.8477 17.369 10.8637C17.369 11.0188 17.4332 11.1311 17.5615 11.1953C17.615 11.206 17.6524 11.1739 17.6845 11.099C17.7166 11.0241 17.7433 10.9867 17.7701 10.976H17.7754ZM16.262 10.6177C16.2299 10.607 16.1979 10.607 16.1658 10.607H16.107C16.0107 10.607 15.9305 10.6284 15.861 10.6712C15.7914 10.714 15.6952 10.7889 15.5668 10.9012C15.4973 10.9172 15.4492 10.9279 15.4118 10.9279C15.3262 10.9279 15.2406 10.8958 15.1551 10.8263C15.0963 10.714 15.0642 10.575 15.0642 10.4038C15.0642 10.1204 15.139 9.88511 15.2834 9.69794C15.2941 9.72468 15.2941 9.76746 15.2941 9.82629C15.2941 9.86907 15.2834 9.94928 15.2674 10.0723C15.2513 10.1899 15.2406 10.2541 15.2406 10.2648C15.2406 10.3931 15.2888 10.4894 15.3797 10.5589C15.5241 10.5856 15.6471 10.5322 15.754 10.4038C15.7647 10.3717 15.7647 10.3129 15.7647 10.238C15.7647 10.1685 15.7647 10.099 15.754 10.0188C15.7433 9.94393 15.738 9.86372 15.7273 9.78885C15.7273 9.64981 15.7701 9.54287 15.8556 9.468C15.8877 9.52682 15.9091 9.6819 15.9091 9.92254C15.9091 10.1632 16.0053 10.3022 16.2032 10.329C16.2193 10.2701 16.2139 10.1685 16.1765 10.0348C16.1444 9.89581 16.123 9.79955 16.123 9.74072C16.123 9.62842 16.1658 9.53751 16.2513 9.47334C16.3048 9.59099 16.3369 9.70864 16.3583 9.81559C16.3797 9.92254 16.3904 10.0348 16.3904 10.1578C16.3904 10.345 16.3422 10.5054 16.2513 10.6338L16.262 10.6177ZM12.615 5.85837C11.9305 6.04554 11.1925 6.27014 10.3957 6.52682C9.8984 6.68725 9.16578 6.93859 8.20321 7.27014C8.10695 7.32896 8.02674 7.41987 7.95722 7.53752C7.92513 7.59634 7.8984 7.66051 7.88235 7.73003C8.53476 7.43057 9.26203 7.1418 10.0642 6.86907C10.8021 6.62843 11.5401 6.38778 12.2834 6.15248C12.3583 6.14179 12.4225 6.11505 12.4759 6.06158C12.5294 6.0081 12.5722 5.94393 12.615 5.85837ZM13.7701 9.84767C13.7861 9.94928 13.7701 10.0509 13.7326 10.1578C13.6631 10.2755 13.615 10.3664 13.5775 10.4252C13.4171 10.5536 13.3102 10.6284 13.2674 10.6552C13.139 10.7247 13.016 10.7461 12.893 10.7193C12.7914 10.6498 12.738 10.5322 12.738 10.361C12.738 10.2862 12.754 10.1953 12.7914 10.0937C12.8663 9.93324 12.9305 9.81559 12.9733 9.74607C13.0481 9.62842 13.139 9.52147 13.2406 9.43591C13.3369 9.49473 13.4385 9.55356 13.5508 9.61773C13.6631 9.67655 13.7326 9.75676 13.7701 9.84767ZM11.3048 9.53751C11.3476 9.80489 11.2727 10.0081 11.0749 10.1525C11 10.1632 10.9198 10.1364 10.8449 10.083C10.7701 10.0295 10.7273 9.95998 10.7273 9.88511C10.7273 9.52682 10.8289 9.20061 11.0374 8.91184C11.0374 8.98136 11.0107 9.08832 10.9626 9.2327C10.9091 9.37709 10.8877 9.48404 10.8877 9.55355C10.8877 9.6712 10.9412 9.76211 11.0428 9.82093C11.0963 9.82093 11.139 9.7942 11.1765 9.73538C11.2139 9.67656 11.262 9.61238 11.3102 9.53751H11.3048ZM7.62032 6.66051C7.60428 6.77816 7.56684 6.89046 7.51337 6.99206C7.45989 7.09366 7.38503 7.17387 7.29947 7.23805C7.19786 7.26478 7.09626 7.18992 7.00535 7.0188C6.99465 6.97602 6.99465 6.91185 6.99465 6.82629C6.99465 6.65516 7.02674 6.49474 7.08556 6.35035C7.14439 6.20597 7.23529 6.04019 7.35294 5.84768C7.34225 5.91719 7.31016 6.03484 7.25668 6.20062C7.20321 6.36639 7.17112 6.49473 7.17112 6.58029C7.17112 6.71933 7.2139 6.82629 7.29947 6.91185C7.36898 6.92254 7.42781 6.87976 7.47059 6.7942C7.51872 6.70864 7.56685 6.66051 7.62032 6.65516V6.66051ZM19.2353 7.86907C19.2353 7.52682 19.0909 7.05088 18.7968 6.4466C18.6257 6.08831 18.508 5.81559 18.4385 5.62308C18.3102 5.6819 18.2032 5.79954 18.1176 5.97067C18.0749 6.06692 18.0107 6.20597 17.9251 6.39313C18.0963 7.19527 18.2353 7.96532 18.3369 8.70329C18.4118 9.24874 18.508 10.0348 18.6203 11.0509C18.6898 11.6766 18.7647 12.4626 18.8503 13.4145C18.738 13.5268 18.615 13.6177 18.4759 13.6926C18.3369 13.7675 18.1925 13.8209 18.0374 13.8637C17.9786 13.8744 17.8984 13.8851 17.8021 13.9012C17.7059 13.9172 17.5882 13.9279 17.4599 13.9279C17.2888 13.9279 17.139 13.9012 17.0107 13.8423C16.8824 13.7835 16.7807 13.6926 16.7005 13.5536C16.631 13.4573 16.5989 13.361 16.5989 13.2594C16.5989 13.2006 16.6364 13.0509 16.7166 12.8102C16.7487 12.7086 16.7701 12.6177 16.7701 12.5429C16.738 12.5536 16.3583 12.73 15.6417 13.083C15.4011 13.1953 15.1818 13.2701 14.9733 13.3129C14.8182 13.0028 14.5989 12.7568 14.3048 12.5696C14.016 12.3824 13.7005 12.2862 13.369 12.2862C13.1283 12.3985 12.9358 12.591 12.7914 12.8637C12.6791 13.1097 12.5722 13.361 12.4706 13.607C12.4545 13.6926 12.4439 13.7621 12.4439 13.8102C12.4439 14.0348 12.5348 14.2113 12.7112 14.345C12.893 14.4787 13.107 14.5429 13.3636 14.5429C13.508 14.5429 13.7273 14.5054 14.0267 14.4359C14.3262 14.3664 14.5187 14.3183 14.6096 14.3022C14.6791 14.4038 14.7273 14.5268 14.7487 14.6765C14.3476 15.0937 14.0481 15.3985 13.8503 15.5856C13.5187 15.9011 13.2032 16.1739 12.9144 16.3931C12.631 16.575 12.3529 16.7514 12.0802 16.9332C11.4973 17.2915 11 17.4733 10.5936 17.4733C10.4545 17.4733 10.3262 17.4626 10.2086 17.4359C10.0909 17.4092 9.96257 17.361 9.83423 17.2969C9.63102 17.1953 9.48128 17.0509 9.39037 16.8691C9.29947 16.6872 9.25668 16.4787 9.25668 16.2487C9.25668 16.0348 9.28877 15.8316 9.35829 15.6445L9.61497 14.9386C9.87166 14.853 10.1283 14.7621 10.385 14.6712C10.7005 14.5536 10.9305 14.4038 11.0802 14.2327C11.2941 13.8049 11.4011 13.345 11.4011 12.8584C11.4011 12.5749 11.3636 12.3129 11.2941 12.0776C11.2193 11.837 11.107 11.6231 10.9519 11.4359L10.7059 12.2594C10.7059 12.2594 10.8021 12.5268 10.9626 12.976C11.016 13.1204 11.0535 13.2648 11.0802 13.3985C10.5241 13.6819 10.1497 13.8584 9.96257 13.9332C9.7754 14.0081 9.56684 14.0669 9.33155 14.1204C8.93583 14.2327 8.55615 14.2862 8.18717 14.2862C7.77005 14.2862 7.37968 14.2113 7.02674 14.0669C6.6738 13.9225 6.37968 13.6926 6.14973 13.3878C6.07487 13.329 5.98396 13.1525 5.8877 12.8637C5.79144 12.5749 5.63102 12.4252 5.40642 12.4252C5.08021 12.6659 4.71658 13.2862 4.31551 14.2862C4.11765 14.7728 3.8877 15.1311 3.62032 15.3664C3.5508 15.3985 3.47059 15.4199 3.37433 15.4199C3.19251 15.4199 3.05882 15.361 2.96257 15.238C2.70588 15.0135 2.52941 14.7461 2.42781 14.4359C2.33155 14.1257 2.27807 13.7568 2.27807 13.3397C2.27807 13.099 2.28877 12.8744 2.31551 12.6659C2.34225 12.4573 2.36898 12.2434 2.40642 12.0295C2.27808 12.3985 2.18182 12.7354 2.11765 13.0348C2.05348 13.3397 2.02139 13.6659 2.02139 14.0188C2.02139 14.3717 2.06952 14.7247 2.16043 15.083C2.27807 15.3076 2.40642 15.5215 2.53476 15.7354C2.81818 16.206 3.14439 16.4199 3.50802 16.3771C3.78075 16.2381 3.99465 16.0455 4.14973 15.7889C4.26203 15.607 4.36898 15.3343 4.47594 14.9653C4.58289 14.5963 4.6738 14.3236 4.75401 14.1418C4.88235 13.8263 5.04278 13.5749 5.24064 13.3985C5.44385 13.4252 5.62567 13.6124 5.78075 13.9653C5.93583 14.3183 6.1016 14.5322 6.28342 14.6177C6.51337 14.8209 6.78075 14.9707 7.08021 15.0562C7.37968 15.1418 7.71123 15.1846 8.06952 15.1846C8.31016 15.1846 8.52406 15.1739 8.71658 15.1525C8.90909 15.1311 9.13904 15.099 9.40107 15.0562C9.26203 15.3129 9.16043 15.5803 9.08556 15.8584C9.0107 16.1364 8.97861 16.4199 8.97861 16.714C8.97861 16.9867 9.01604 17.2381 9.08556 17.4733C9.16043 17.7033 9.27273 17.9118 9.42781 18.1044C9.71658 18.3183 10.0588 18.4252 10.4545 18.4252C10.754 18.4252 11.0321 18.361 11.2888 18.2327C11.7166 18.0188 12.1337 17.7782 12.5348 17.5161C12.9733 17.2274 13.3583 16.9172 13.7005 16.591C14.1016 16.206 14.4278 15.8102 14.6684 15.4092C14.9091 15.0081 15.0695 14.5696 15.139 14.099L16.3583 13.4306C16.3743 13.5001 16.385 13.5482 16.385 13.5696C16.3743 13.6552 16.369 13.7407 16.3583 13.8316C16.3476 13.9225 16.3476 13.9974 16.3583 14.0562C16.3743 14.2113 16.4118 14.3397 16.4652 14.4466C16.5187 14.5536 16.6096 14.6391 16.7273 14.7086C16.9091 14.7942 17.1176 14.837 17.3583 14.837C17.5722 14.837 17.7808 14.8049 17.9786 14.7461C18.1818 14.6872 18.3583 14.6124 18.5187 14.5215C18.6791 14.4306 18.7914 14.329 18.861 14.206C18.9305 14.0883 19.0214 13.8263 19.1283 13.4252C19.1283 12.8263 19.0749 12.0669 18.9733 11.1525C18.7594 9.23805 18.6524 7.9974 18.6524 7.43056L18.7701 7.24874C18.8128 7.30222 18.8877 7.40917 18.9947 7.5696C19.1016 7.73003 19.1765 7.83698 19.2193 7.87976L19.2353 7.86907ZM9.39037 9.7942L9.31551 10.0509C9.24599 10.0241 9.18717 10.0028 9.12834 9.98672C9.07487 9.97067 9.02139 9.95998 8.97861 9.95998C8.87701 9.95998 8.81283 10.0241 8.7861 10.1525C8.73262 10.6338 8.70054 10.9172 8.68449 11.0135C8.66845 11.1097 8.62032 11.2648 8.54545 11.4894C8.34759 11.1311 8.14973 10.7675 7.95722 10.3985C7.95722 10.4733 7.90909 10.5161 7.81818 10.5161C7.7754 10.5161 7.72727 10.5108 7.66845 10.4947C7.61497 10.484 7.5615 10.4733 7.51872 10.468C7.47594 10.468 7.45455 10.4252 7.45455 10.345C7.47059 10.2434 7.48128 10.1739 7.48128 10.1418C7.54011 10.0135 7.57754 9.93858 7.59893 9.92254C7.65241 9.85302 7.71658 9.82093 7.80214 9.82093C7.94652 9.9065 8.06952 10.0348 8.17647 10.206C8.31551 10.4787 8.4492 10.7514 8.58824 11.0135C8.58824 10.6819 8.62032 10.3985 8.68449 10.1739C8.74866 9.94928 8.87701 9.76212 9.06417 9.61773C9.21925 9.61773 9.33155 9.67655 9.39572 9.79955L9.39037 9.7942ZM6.85027 8.38244C6.79144 8.42522 6.71123 8.54286 6.62032 8.73003C6.52406 8.91719 6.41711 9.00275 6.29947 8.98671C6.11765 8.91184 5.98931 8.84768 5.90374 8.80489C5.76471 8.73538 5.63636 8.66051 5.51872 8.57494C5.49198 8.60168 5.44385 8.6819 5.37968 8.81024C5.31016 8.94393 5.24064 9.03484 5.16043 9.08832C5.03209 9.07227 4.8984 9.03484 4.76471 8.98137C4.62567 8.92789 4.49733 8.86906 4.36898 8.81024C4.41176 8.69794 4.48128 8.57495 4.57219 8.43591C4.66845 8.29687 4.75401 8.16853 4.83957 8.04018C5.12834 8.1097 5.40642 8.21666 5.6631 8.36104L6.1123 7.84768L6.85562 8.38778L6.85027 8.38244ZM5.65775 6.36639C5.71658 6.48404 5.74866 6.59634 5.74866 6.69794C5.74866 6.87976 5.68449 7.04019 5.55615 7.18457C5.45989 7.20062 5.39037 7.20062 5.34225 7.18457C5.29412 7.16853 5.2139 7.12575 5.10695 7.05623C4.85027 7.43056 4.50267 7.77281 4.06952 8.08297C3.80214 8.27013 3.39037 8.50008 2.82353 8.77815C2.59358 9.13644 2.47594 9.56426 2.47594 10.0616C2.47594 10.1578 2.48128 10.2541 2.49733 10.3503C2.50802 10.4466 2.53476 10.5803 2.56684 10.7407C2.6631 10.9225 2.81283 11.0081 3.02674 11.0081C3.08021 10.9118 3.12299 10.8316 3.16043 10.7621C3.19786 10.6926 3.24599 10.6498 3.29412 10.6338C3.29412 10.9012 3.26203 11.1471 3.19251 11.3824C3.12299 11.6177 3.0107 11.8049 2.84492 11.9386C2.72727 11.9386 2.60963 11.9065 2.50267 11.8477C2.39572 11.7889 2.29412 11.7086 2.20321 11.6177C2.06417 11.3183 2 11.0081 2 10.6926C2 10.3931 2.05882 10.0669 2.18182 9.71934C2.27807 9.44661 2.51337 8.93859 2.8984 8.18992C2.91444 8.20597 2.93583 8.222 2.96257 8.2434C2.98931 8.30222 2.98396 8.3557 2.95187 8.39848C2.90909 8.51078 2.86631 8.61773 2.82353 8.71933C3.29412 8.43591 3.6631 8.19527 3.92513 7.98671C4.29947 7.69794 4.63102 7.37174 4.91444 7.01345C4.8877 6.98671 4.82888 6.96532 4.74332 6.94928C4.65241 6.93324 4.59893 6.8958 4.58289 6.83163C4.64171 6.60168 4.69519 6.40383 4.74332 6.24875C4.79144 6.08832 4.86631 5.95463 4.96791 5.84233C5.10695 5.84233 5.23529 5.89581 5.36364 6.0081C5.4385 6.07762 5.54011 6.18992 5.65775 6.3557V6.36639ZM4.94118 10.8958C4.95722 11.0348 4.94652 11.1578 4.90909 11.2755C4.87166 11.3931 4.80214 11.484 4.71123 11.5536C4.52406 11.5536 4.41177 11.452 4.37968 11.2434C4.37968 11.0295 4.40642 10.8316 4.46524 10.6445C4.51872 10.4626 4.60428 10.2755 4.71658 10.0883C4.6738 10.2755 4.63636 10.4413 4.59893 10.5749C4.56685 10.714 4.54545 10.7995 4.54545 10.8423C4.54545 11.0241 4.62032 11.1471 4.76471 11.2167C4.82353 11.1151 4.88235 11.0081 4.94652 10.8958H4.94118ZM7.40642 16.468C7.40642 16.607 7.36364 16.7407 7.27808 16.8798C7.14973 17.0509 7.05882 17.1739 7.0107 17.2541C6.89305 17.2381 6.77005 17.1953 6.65241 17.1257C6.53476 17.0562 6.41711 16.9867 6.30481 16.9225C6.33155 16.7835 6.38503 16.6498 6.47059 16.5108C6.48128 16.5001 6.57219 16.3717 6.75401 16.1151C6.85027 16.1311 6.95187 16.1792 7.06952 16.2541C7.18717 16.329 7.29947 16.4038 7.41177 16.4733L7.40642 16.468ZM13.5401 10.1792C13.5401 10.0776 13.4866 9.99206 13.385 9.92254C13.3529 9.8958 13.2513 9.85303 13.0909 9.7942C13.0321 9.89581 12.9947 9.96532 12.9893 9.99206C12.9786 10.0241 12.9786 10.0776 12.9786 10.1525C12.9786 10.222 13.0053 10.2915 13.0535 10.3717C13.139 10.3985 13.2353 10.3771 13.3369 10.3129C13.4385 10.2487 13.508 10.206 13.5401 10.1792ZM14.0909 13.5696C13.9465 13.5856 13.8021 13.6017 13.6685 13.607C13.5134 13.607 13.3743 13.5856 13.246 13.5482C13.1176 13.5108 13.0107 13.452 12.9251 13.3771C12.9144 13.3504 12.9091 13.3236 12.8984 13.3022C12.9144 13.2915 12.9572 13.2915 13.0267 13.2915C13.2995 13.2915 13.6257 13.3503 14 13.4733C14.0267 13.5054 14.0535 13.5429 14.0909 13.5749V13.5696ZM5.55615 6.82093C5.4385 6.83698 5.3369 6.81024 5.26203 6.73003L5.31551 6.4466C5.39037 6.50543 5.44385 6.56425 5.47594 6.61238C5.50802 6.66585 5.53476 6.73003 5.5615 6.81559L5.55615 6.82093ZM5.08021 6.66586L4.7861 6.61238C4.77005 6.47334 4.83957 6.40917 4.9893 6.40917C5.04813 6.40917 5.08021 6.44126 5.08021 6.50008V6.66586Z" fill="white"/>
</svg>
