<svg width="24" height="24" viewBox="0 0 24 24" fill="none" xmlns="http://www.w3.org/2000/svg">
<path fill-rule="evenodd" clip-rule="evenodd" d="M22 9.6094C21.9398 9.65864 21.8906 9.686 21.8468 9.686C21.8031 9.686 21.7429 9.63128 21.6718 9.52187C21.6007 9.41247 21.5241 9.34135 21.453 9.31399C21.453 9.64769 21.4912 10.1783 21.5733 10.9004C21.6554 11.6225 21.6937 12.1751 21.6937 12.5525V12.9573C21.6937 13.5755 21.6772 14.0459 21.639 14.3578C21.5788 14.8556 21.4639 15.2932 21.2888 15.6707C21.3381 15.2111 21.3654 14.7079 21.3654 14.1608C21.3654 13.6411 21.3381 13.0394 21.2834 12.3556C21.2287 11.6718 21.174 10.9606 21.1138 10.2276C21.0536 9.49453 21.0263 8.91466 21.0263 8.48249C20.9825 8.41685 20.9606 8.35119 20.9606 8.28555C20.9606 8.19802 20.988 8.1105 21.0372 8.02297C21.1247 7.89168 21.2177 7.75493 21.3107 7.61817C21.535 8.28009 21.7648 8.94748 22 9.6094ZM17.0219 7.49781C17.0656 7.54158 17.0875 7.60722 17.0875 7.69474C17.0875 7.74398 17.0821 7.79868 17.0656 7.84792C17.0492 7.89715 17.0274 7.97373 16.9891 8.06673C16.9508 8.08861 16.9179 8.09955 16.8796 8.09955C16.8523 8.09955 16.7976 8.08315 16.7265 8.0558C16.6444 8.19256 16.5241 8.24726 16.3654 8.20897C16.2998 8.17067 16.267 8.10502 16.267 8.01202C16.267 7.97373 16.2724 7.92997 16.2888 7.88074C16.3053 7.8315 16.3162 7.79321 16.3326 7.76586C16.349 7.73851 16.3654 7.71663 16.3873 7.69474C16.3928 7.70021 16.3982 7.73304 16.3873 7.78227C16.3873 7.83151 16.3928 7.86433 16.4147 7.88074C16.4365 7.9245 16.4694 7.94638 16.5131 7.94638C16.535 7.94638 16.5678 7.93544 16.6116 7.91356L16.7538 7.54157H16.7976C16.7921 7.60722 16.7867 7.65646 16.7867 7.68381C16.7867 7.73304 16.8031 7.77681 16.8414 7.80416C16.8906 7.80416 16.9344 7.76586 16.9617 7.69474C16.9781 7.6291 16.9945 7.56346 17.0164 7.49781H17.0219ZM17.2735 8.97483C17.2243 9.07877 17.1586 9.18271 17.0766 9.28665C16.9945 9.39059 16.9179 9.49452 16.8468 9.58752C16.8031 9.54922 16.7155 9.50547 16.5842 9.45623C16.3654 9.3687 16.2615 9.26477 16.2779 9.14989C16.3271 9.12254 16.4037 9.02954 16.5077 8.87636C16.6116 8.72319 16.6991 8.6466 16.7702 8.6466C16.8304 8.6466 16.8797 8.66301 16.9234 8.70131C17.0383 8.7943 17.1586 8.8873 17.2735 8.97483ZM17.5689 6.67725C17.093 6.80854 16.2287 7.04375 14.9759 7.38292C13.7232 7.72209 12.8753 7.95186 12.4376 8.07768C11.4912 8.34573 10.6433 8.59736 9.89934 8.83259C9.82823 8.87088 9.76258 8.92013 9.70788 8.9803C9.65317 9.04048 9.62582 9.10613 9.62582 9.17177C10.3206 8.9256 11.0646 8.67943 11.8687 8.43873C12.4869 8.25821 13.2527 8.03938 14.1554 7.79321C15.6214 7.39386 16.3818 7.186 16.442 7.16958C16.6554 7.12035 16.8742 7.06564 17.1039 7.00546C17.3337 6.94529 17.4869 6.83589 17.5689 6.67725ZM14.9322 10.1455C14.8939 10.2987 14.861 10.4026 14.8337 10.4628C14.7845 10.5722 14.7133 10.6543 14.6258 10.7144C14.5602 10.7418 14.5055 10.7199 14.4617 10.6488C14.4179 10.5777 14.3906 10.5284 14.3851 10.5066C14.3851 10.337 14.407 10.1838 14.4508 10.047C14.4945 9.91027 14.5656 9.74617 14.6586 9.56565C14.6586 9.61488 14.6368 9.71334 14.593 9.85011C14.5492 9.98687 14.5274 10.0963 14.5274 10.1674C14.5274 10.2823 14.5602 10.3753 14.6258 10.4409C14.7079 10.4409 14.7626 10.3917 14.7954 10.2987C14.8282 10.2057 14.872 10.151 14.9322 10.1455ZM12.6893 10.419C12.7166 10.512 12.7057 10.6105 12.651 10.709C12.5963 10.8074 12.5416 10.9004 12.4923 10.988C12.4431 11.0536 12.361 11.1028 12.2516 11.1302C12.1422 11.1575 12.0656 11.1794 12.0219 11.1958C11.9781 11.1794 11.9344 11.1521 11.8961 11.1083C11.8578 11.0645 11.8195 10.9989 11.7921 10.9114C11.814 10.6269 11.907 10.4136 12.0656 10.2659C12.0602 10.3096 12.0383 10.3753 12.0055 10.4683C11.9726 10.5613 11.9562 10.6269 11.9562 10.6707C11.9562 10.7637 12 10.8403 12.0875 10.9004C12.1915 10.9004 12.279 10.884 12.3556 10.8512C12.4322 10.8184 12.4869 10.7637 12.5142 10.6816C12.5142 10.616 12.4322 10.5339 12.2626 10.4409C12.1751 10.3917 12.1313 10.3425 12.1313 10.2987C12.1313 10.2604 12.1751 10.2057 12.2626 10.1236C12.3228 10.1455 12.3775 10.1674 12.4376 10.1893C12.5525 10.2385 12.64 10.3151 12.6893 10.419ZM17.4595 16.2177C17.4212 16.2451 17.3282 16.3709 17.1751 16.5897C17.1094 16.6827 17.0383 16.7593 16.9672 16.8085C16.7757 16.6991 16.6389 16.6171 16.5514 16.5569C16.3764 16.4475 16.2724 16.349 16.2341 16.2615L16.7155 15.7254C16.8851 15.8074 17.0109 15.8731 17.0985 15.9223C17.2298 16.0044 17.3501 16.1028 17.4595 16.2177ZM8.47702 8.8873C8.49891 8.95294 8.48249 9.03501 8.43326 9.13895C8.38403 9.24289 8.34573 9.31947 8.32385 9.3687C8.19256 9.39058 8.09956 9.33041 8.05033 9.19364C8.02845 9.0897 8.01751 8.99671 8.01751 8.90919C8.01751 8.75054 8.05033 8.58643 8.1105 8.41685C8.17068 8.24726 8.25274 8.08314 8.34573 7.91356C8.30197 8.03938 8.25821 8.17068 8.20897 8.31291C8.15974 8.45514 8.13786 8.57548 8.13786 8.67942C8.13786 8.83806 8.18709 8.97484 8.29103 9.08424L8.47702 8.8873ZM19.779 13.4168C18.9912 13.4168 18.2199 13.3567 17.4595 13.2363C16.6991 13.116 15.9442 12.9847 15.1947 12.8479C15.4847 12.7112 15.8184 12.4869 16.1904 12.1805C16.3928 12.0109 16.7046 11.7593 17.1204 11.4146C17.1805 11.4858 17.2462 11.6499 17.3173 11.9015C17.3884 12.1532 17.4978 12.3227 17.6346 12.4103C17.7221 12.4486 17.8096 12.465 17.8972 12.465C18.0011 12.465 18.0886 12.4486 18.1597 12.4103C18.4934 12.2626 18.7341 12.0438 18.8818 11.7538C19.0077 11.5077 19.0678 11.1904 19.0678 10.8129C19.0678 10.7856 19.0624 10.5886 19.0459 10.2276C19.0295 9.86652 19.0241 9.61487 19.0241 9.46717C19.0241 9.35229 19.0241 9.22648 19.035 9.10066C19.0405 8.97483 19.0514 8.87089 19.0678 8.78884C19.1171 8.84901 19.1718 8.93654 19.221 9.05142C19.3031 9.22648 19.3797 9.30854 19.4617 9.29212C19.4891 9.2046 19.4015 8.8709 19.1991 8.2965C19.1335 8.10503 19.0295 7.8315 18.8818 7.46498C18.8162 7.48139 18.756 7.53064 18.6958 7.61817C18.6685 7.66193 18.6193 7.73851 18.5536 7.84792C18.5372 7.95185 18.5317 8.03938 18.5317 8.11596V8.36214C18.5317 8.65207 18.5591 9.02407 18.6083 9.47812C18.7177 10.4573 18.7724 11.0919 18.7724 11.3928C18.6028 11.5186 18.4387 11.6061 18.2691 11.6554C18.1871 11.6772 18.1269 11.6882 18.0832 11.6882C17.8917 11.6882 17.7659 11.5514 17.7002 11.2834C17.6127 10.9278 17.547 10.7199 17.5033 10.6597C17.4103 10.6597 17.3337 10.6871 17.2735 10.7363C17.0492 11.0645 16.7155 11.3654 16.2779 11.6444C15.8676 11.9015 15.2659 12.2845 14.4726 12.7932C14.2538 12.9902 14.0733 13.2309 13.9365 13.5153C14.3468 13.5153 14.7626 13.5427 15.1838 13.6028C15.605 13.663 16.07 13.7396 16.5733 13.8435C15.8348 14.1116 15.1893 14.3304 14.6368 14.4891C13.9147 14.6915 13.2199 14.8392 12.547 14.9267C12.3228 14.954 12.1149 14.9759 11.9234 14.9869C11.7319 14.9978 11.5569 15.0033 11.3873 15.0033C10.8457 15.0033 10.3315 14.9486 9.84464 14.8446C9.35777 14.7407 8.89278 14.5656 8.45514 14.3249C8.42779 14.3085 8.25273 14.1608 7.94092 13.8764C7.83151 13.7834 7.73851 13.7396 7.6674 13.756V13.8271C7.6674 13.8599 7.67287 13.8818 7.68928 13.8982C7.22976 13.8982 6.79212 14.0077 6.37637 14.2265C6.05361 14.3961 5.69256 14.6641 5.29322 15.0361C5.0361 15.2823 4.78446 15.5339 4.52735 15.7801C4.00766 16.2834 3.55908 16.6335 3.17068 16.8304C3.08315 16.8468 3.01751 16.8523 2.97374 16.8523C2.80416 16.8523 2.66193 16.8085 2.53611 16.721C2.40481 16.6116 2.31182 16.4912 2.25711 16.3599C2.20241 16.2287 2.17505 16.0919 2.17505 15.9551C2.17505 15.7527 2.24617 15.4847 2.38293 15.1565C2.45405 14.9814 2.56346 14.7352 2.70022 14.4125C2.56346 14.6039 2.43217 14.8337 2.31729 15.1017C2.27352 15.2057 2.18053 15.4464 2.03282 15.8348C2.01094 15.9387 2 16.0372 2 16.1411C2 16.3435 2.03282 16.535 2.10394 16.7101C2.17505 16.8851 2.27899 17.0328 2.4267 17.1477C2.55799 17.2298 2.66193 17.279 2.73851 17.2954C2.8151 17.3118 2.89716 17.3228 2.98468 17.3228C3.02845 17.3228 3.08862 17.3173 3.15974 17.3009C3.46061 17.1696 3.79978 16.9343 4.17724 16.6006C4.5 16.2998 4.81729 16.0044 5.14004 15.7035C5.50656 15.3753 5.84573 15.1291 6.15755 14.9704C6.54595 14.7735 6.93983 14.6751 7.35011 14.6751C7.35011 15.0088 7.44311 15.3315 7.63457 15.6433C7.82604 15.9551 8.06127 16.1904 8.34573 16.349C8.41685 16.1357 8.49344 15.9169 8.57002 15.6871C8.64661 15.4573 8.6849 15.244 8.6849 15.047C9.12801 15.2932 9.56565 15.4683 9.98687 15.5667C10.4081 15.6652 10.8567 15.7144 11.3326 15.7144C11.7538 15.7144 12.1696 15.6761 12.5689 15.605C12.9683 15.5339 13.4278 15.4245 13.9365 15.2877C14.0022 15.2659 14.3304 15.1619 14.9212 14.9814C15.605 14.7681 16.1521 14.6094 16.5624 14.5C17.454 14.2648 18.3457 14.1499 19.2429 14.1499C19.3742 14.1499 19.4891 14.0624 19.5821 13.8873C19.6477 13.7341 19.7133 13.5755 19.779 13.4168ZM15.6105 16.5569C15.5503 16.6882 15.4464 16.7921 15.2932 16.8632C15.0908 16.9344 14.9431 16.9891 14.8556 17.0273C14.6532 17.0273 14.4945 17.0164 14.3906 16.9945C14.2867 16.9726 14.1991 16.9015 14.1335 16.7866C14.1335 16.6827 14.1663 16.5842 14.2319 16.4912C14.2976 16.3982 14.4398 16.267 14.6586 16.0974C14.5985 16.0591 14.5328 16.0372 14.4508 16.0263C14.3687 16.0153 14.2757 16.0098 14.1663 16.0098C14.1937 15.895 14.2484 15.8238 14.3195 15.8074C14.3906 15.791 14.4562 15.7801 14.5164 15.7801C14.6751 15.7801 14.8173 15.8293 14.9322 15.9223C14.9158 15.9497 14.779 16.0974 14.5164 16.3599C14.4125 16.4639 14.3632 16.5514 14.3632 16.6335C14.4289 16.6936 14.5 16.7319 14.5766 16.7538C14.6532 16.7757 14.7407 16.7866 14.8446 16.7866C14.9759 16.7866 15.1072 16.7648 15.233 16.7265C15.3589 16.6882 15.4847 16.628 15.6105 16.5569ZM10.3917 11.6882C10.3479 11.7976 10.3206 11.8796 10.3042 11.9289C10.2659 11.9289 10.2221 11.9015 10.1619 11.8523C10.1018 11.8031 10.0635 11.7757 10.0416 11.7757C10.0142 11.7757 9.98687 11.7976 9.96499 11.8413C9.9267 12.1039 9.90481 12.2735 9.8884 12.3446C9.84464 12.5197 9.77899 12.6783 9.69147 12.8151C9.63129 12.7495 9.56565 12.6127 9.48906 12.4048C9.41247 12.1969 9.31947 12.0547 9.21007 11.9836C9.19365 12.0438 9.1663 12.0711 9.12254 12.0711C9.10066 12.0711 9.06783 12.0547 9.0186 12.0274C8.96937 12 8.94748 11.9562 8.94748 11.8961C8.94748 11.8523 8.96389 11.7976 9.00219 11.7265C9.04048 11.6554 9.06236 11.6061 9.06783 11.5733C9.0733 11.5405 9.10066 11.5241 9.14442 11.5241C9.16083 11.5241 9.18271 11.535 9.21007 11.5514C9.23742 11.5678 9.2593 11.5842 9.26477 11.5897C9.37418 11.6827 9.46718 11.8195 9.54923 11.9945C9.66411 12.2571 9.72976 12.3993 9.74617 12.4212C9.76805 12.372 9.80088 12.2243 9.84464 11.9836C9.8884 11.7429 9.95952 11.5733 10.0635 11.4694C10.2112 11.4694 10.3206 11.5405 10.3917 11.6882ZM5.84026 8.2965L5.78556 8.4059C5.78556 8.4059 5.71991 8.38949 5.65974 8.36214C5.59956 8.33479 5.54486 8.32384 5.50109 8.34025C5.42998 8.44419 5.37527 8.58642 5.33698 8.76695C5.24398 9.24288 5.17834 9.50547 5.15098 9.56565C5.07987 9.48359 5.01422 9.37964 4.95405 9.24835C4.80635 8.89824 4.71882 8.70131 4.68053 8.65755L4.58206 8.82166C4.5 8.76148 4.4453 8.71772 4.407 8.69037C4.33589 8.6302 4.29759 8.57549 4.29759 8.51531C4.31947 8.4442 4.34136 8.3676 4.36871 8.28555C4.39606 8.20349 4.43435 8.14332 4.48359 8.09955C4.65317 8.17067 4.78446 8.3129 4.8884 8.52625C4.97046 8.71771 5.05252 8.90372 5.14004 9.08424C5.2221 8.76149 5.28775 8.52625 5.34792 8.37308C5.4081 8.2199 5.48468 8.10503 5.58862 8.03391C5.67068 8.05579 5.73632 8.07768 5.79103 8.10503C5.84573 8.13238 5.87309 8.1652 5.87309 8.20897C5.87309 8.23085 5.86214 8.2582 5.84026 8.2965ZM5.67615 10.0361C5.6488 10.2166 5.48468 10.3206 5.18381 10.337C4.88293 10.3534 4.686 10.43 4.593 10.5613C4.593 10.7582 4.62035 11.0263 4.68053 11.3709C4.76805 11.8796 4.81729 12.2024 4.82823 12.3337C4.83917 12.465 4.85011 12.5799 4.85558 12.6729C4.86105 12.7659 4.86652 12.8534 4.86652 12.9354C4.86652 13.1269 4.85558 13.291 4.8337 13.4387C4.81182 13.5864 4.76805 13.7396 4.70241 13.8982C4.74617 13.7068 4.76805 13.5208 4.76805 13.3293C4.76805 13.1378 4.75164 12.9518 4.71882 12.7823C4.686 12.6127 4.63129 12.3665 4.56017 12.0383C4.52188 11.8796 4.48906 11.7101 4.46171 11.5405C4.43435 11.3709 4.41794 11.2122 4.41794 11.0755C4.41794 10.7965 4.47265 10.5503 4.58206 10.3315C4.65317 10.244 4.76805 10.1729 4.92123 10.1236C5.0744 10.0744 5.18928 10.0361 5.27133 10.0142C5.24398 9.93216 5.17287 9.89386 5.06346 9.89386C5.00328 9.89386 4.94858 9.9048 4.8884 9.92668C4.82823 9.98686 4.80088 10.0197 4.80088 10.0361C4.77899 9.99234 4.76805 9.94858 4.76805 9.90481C4.76805 9.81729 4.80635 9.75163 4.8884 9.70787C4.95405 9.64222 5.03611 9.6094 5.14004 9.6094C5.1674 9.6094 5.21663 9.62034 5.28228 9.64223C5.34792 9.66411 5.42998 9.73522 5.52298 9.86104C5.58862 9.9431 5.63786 9.99781 5.67615 10.0361ZM3.59737 13.0777C3.55908 13.3238 3.52626 13.5755 3.48796 13.8217C3.41685 14.1007 3.26368 14.2866 3.03939 14.3906C2.93545 14.4125 2.83151 14.3742 2.7221 14.2812C2.65646 14.221 2.57987 14.1335 2.49234 14.0077C2.39934 13.7505 2.35011 13.4989 2.35011 13.2527C2.35011 13.116 2.36105 12.9847 2.37746 12.8643C2.39387 12.744 2.44858 12.5689 2.53611 12.3337C2.62363 12.0985 2.74945 11.8468 2.9081 11.5788C2.97374 11.4694 3.13239 11.2232 3.37856 10.8457C3.34026 10.9934 3.20897 11.2998 2.97374 11.7757C2.77133 12.1915 2.6674 12.5252 2.6674 12.7713C2.6674 12.9245 2.69475 13.0667 2.74945 13.1925C2.80416 13.3184 2.90263 13.4497 3.03939 13.581C3.08862 13.6083 3.13786 13.6138 3.18709 13.5919C3.23632 13.57 3.28556 13.5372 3.34573 13.4934C3.37309 13.4551 3.41138 13.384 3.46061 13.2746C3.50985 13.1652 3.55361 13.0996 3.59737 13.0777ZM8.18162 15.058V15.2111C8.18162 15.3041 8.15974 15.3534 8.11597 15.3534C8.06674 15.3534 8.01203 15.3206 7.9628 15.2549C7.91357 15.1893 7.88621 15.1236 7.88621 15.058C7.88621 15.0306 7.87527 14.9705 7.85886 14.8775C7.84245 14.7845 7.84792 14.7407 7.88621 14.7407C7.93545 14.7407 8.00109 14.779 8.07221 14.8501C8.14333 14.9212 8.18162 14.9923 8.18162 15.058Z" fill="white"/>
</svg>
