<svg width="24" height="24" viewBox="0 0 24 24" fill="none" xmlns="http://www.w3.org/2000/svg">
<path fill-rule="evenodd" clip-rule="evenodd" d="M21.9048 12.0426C21.9699 12.5386 22 13.0145 22 13.4604C22 13.8712 21.9749 14.242 21.9198 14.5726C21.8697 14.9033 21.7745 15.254 21.6393 15.6248C21.6393 14.8332 21.5892 13.9965 21.489 13.1197C21.3888 12.243 21.2635 11.2961 21.1082 10.274C20.8928 8.88627 20.7625 8.00952 20.7224 7.63878C20.7725 7.45341 20.7976 7.3482 20.8076 7.31313C20.8627 7.13777 20.9479 6.96743 21.0581 6.80711C21.4739 7.65882 21.6944 8.11473 21.7194 8.17986C21.8297 8.49048 21.8898 8.79108 21.8898 9.08166L21.479 8.45541C21.479 8.91132 21.5291 9.47244 21.6242 10.1388C21.7194 10.8051 21.8146 11.4364 21.8998 12.0376L21.9048 12.0426ZM17.9269 6.99248C17.9419 7.05761 17.9269 7.11774 17.8768 7.17786C17.8267 7.23798 17.7665 7.27806 17.6964 7.30311L12.4058 8.9013C12.0952 9.00651 11.8647 9.08167 11.7194 9.13177C11.4389 9.22696 11.2285 9.33216 11.0832 9.44238C11.0832 9.36222 11.1082 9.27706 11.1633 9.18186C11.2134 9.09168 11.2836 9.02655 11.3637 8.99649C12.5361 8.60571 13.6182 8.25501 14.6102 7.94439C15.6022 7.63377 16.7094 7.31813 17.9269 6.98747V6.99248ZM17.2305 11.5115C17.2154 11.6167 17.1954 11.7219 17.1753 11.8322C17.1553 11.9424 17.1102 12.0326 17.0351 12.1027C16.9649 12.1177 16.8948 12.1027 16.8297 12.0526C16.7645 12.0025 16.7345 11.9424 16.7345 11.8722C16.7345 11.6819 16.7495 11.5065 16.7846 11.3512C16.8146 11.1959 16.8948 10.9704 17.025 10.6849C17.025 10.75 17.01 10.8352 16.9749 10.9504C16.9048 11.2059 16.8647 11.3662 16.8647 11.4314C16.8647 11.5767 16.9148 11.6969 17.02 11.7921C17.0501 11.7821 17.0852 11.742 17.1152 11.6618C17.1453 11.5817 17.1854 11.5316 17.2254 11.5165L17.2305 11.5115ZM15.4018 10.0937L15.3517 10.3692C15.3016 10.3542 15.2415 10.3292 15.1713 10.2991C15.1012 10.269 15.0461 10.249 15.016 10.249C15.001 10.249 14.9609 10.259 14.8958 10.274C14.8407 10.3843 14.7755 10.6147 14.7104 10.9654C14.6403 11.3161 14.5601 11.5566 14.4649 11.6919C14.4248 11.6268 14.3447 11.4815 14.2194 11.251C14.0942 11.0205 13.994 10.8502 13.9138 10.74C13.8737 10.7901 13.8186 10.8101 13.7435 10.8101C13.6232 10.8101 13.513 10.7751 13.4078 10.6999C13.3778 10.6598 13.3577 10.6097 13.3577 10.5446C13.3577 10.4945 13.3677 10.4394 13.3878 10.3742C13.4078 10.3091 13.4228 10.264 13.4279 10.244C13.518 10.1538 13.6082 10.1137 13.7034 10.1137C13.7535 10.1137 13.7936 10.1288 13.8236 10.1638C13.9439 10.2941 14.0641 10.4644 14.1844 10.6799C14.3597 10.9905 14.4649 11.1708 14.495 11.2209C14.525 11.1558 14.5751 10.9253 14.6453 10.5296C14.7154 10.1338 14.9008 9.93337 15.2064 9.93337C15.2715 9.98848 15.3367 10.0436 15.3968 10.0887L15.4018 10.0937ZM11.2635 7.7991C11.2635 7.7991 11.2285 7.8492 11.2084 7.92435C11.1884 7.9995 11.1483 8.02956 11.0832 8.01453C10.978 7.93437 10.9279 7.81914 10.9279 7.66383C10.9279 7.62375 10.9379 7.5486 10.9629 7.43336C10.988 7.32314 11.018 7.18788 11.0581 7.03758C10.988 7.16784 10.9279 7.31313 10.8778 7.47846C10.8277 7.64379 10.8076 7.78908 10.8076 7.91934C10.8076 7.96944 10.8126 8.01954 10.8277 8.07465C10.8377 8.12976 10.8727 8.18487 10.9279 8.23497C10.983 8.28507 11.0431 8.31513 11.1082 8.32515C11.2184 8.26002 11.2786 8.13477 11.2786 7.93938C11.2786 7.87425 11.2786 7.82916 11.2685 7.79409L11.2635 7.7991ZM9.24449 6.22595C9.24449 6.29609 9.22445 6.36623 9.18938 6.43637C9.15431 6.50651 9.09419 6.54158 9.01403 6.5516C8.06713 6.97746 7.12024 7.40331 6.17836 7.82415C6.25852 7.48848 6.58918 7.22295 7.17535 7.03257C7.57615 6.8973 7.84168 6.78707 7.96693 6.70691C8.39279 6.54659 8.81864 6.38627 9.23948 6.22595H9.24449ZM12.1403 11.9023C12.1653 11.9674 12.1653 12.0326 12.1453 12.1077C12.1252 12.1779 12.0852 12.2831 12.0301 12.4183C11.98 12.5085 11.8998 12.5486 11.7896 12.5486C11.7595 12.5486 11.7094 12.5386 11.6443 12.5235C11.5541 12.4284 11.514 12.3031 11.514 12.1528C11.514 12.0426 11.5391 11.9223 11.5842 11.7921C11.6343 11.6618 11.6794 11.5366 11.7295 11.4063C11.7044 11.5015 11.6844 11.5917 11.6693 11.6718C11.6543 11.752 11.6443 11.8322 11.6443 11.9123C11.6443 12.0476 11.6894 12.1578 11.7745 12.238C11.8798 12.268 11.9549 12.243 12.005 12.1578C12.0551 12.0726 12.0952 11.9875 12.1353 11.8973L12.1403 11.9023ZM19.7655 14.1518C19.7655 13.6308 19.7004 13.0296 19.5651 12.3532C19.4349 11.6769 19.3046 11.0105 19.1794 10.3592C19.0541 9.70792 18.994 9.11173 18.994 8.57565C19.0992 8.60571 19.1994 8.70591 19.2946 8.86623C19.3447 8.95641 19.4148 9.08166 19.51 9.252C19.4399 8.96142 19.3347 8.58567 19.2044 8.11473C19.0741 7.64379 18.8988 7.24299 18.6834 6.90732C18.5782 6.9975 18.498 7.11272 18.4379 7.25802C18.3778 7.40331 18.3226 7.5486 18.2776 7.68888L19.515 14.3121C19.2996 14.5125 19.0842 14.6678 18.8788 14.773C18.6683 14.8833 18.4379 14.9334 18.1824 14.9334C18.022 14.9484 17.8768 14.9233 17.7415 14.8482C17.6112 14.7781 17.486 14.6779 17.3758 14.5576C17.3607 14.5175 17.3507 14.4574 17.3507 14.3773C17.3507 14.3221 17.3607 14.237 17.3858 14.1268C17.4108 14.0165 17.4208 13.9314 17.4208 13.8763C17.4208 13.8061 17.4108 13.746 17.3958 13.7059C15.8477 14.3622 15.021 14.7079 14.9208 14.738C14.3697 14.9284 13.8487 15.0586 13.3577 15.1237C13.0471 15.1538 12.8267 15.1738 12.7064 15.1789C12.5862 15.1789 12.4659 15.1839 12.3457 15.1839C11.7946 15.1839 11.3387 15.1137 10.988 14.9684C10.5471 14.7931 10.2265 14.4975 10.0261 14.0767C9.83567 13.4254 9.67535 12.6438 9.55511 11.732C9.51503 11.4414 9.43487 10.7099 9.30962 9.53758C9.18437 8.36523 9.06914 7.4985 8.96894 6.9474C8.86373 6.98748 8.78858 7.07765 8.7485 7.21793C8.70341 7.35821 8.65832 7.53858 8.60822 7.75401C8.6984 8.00952 8.75852 8.22996 8.79359 8.41533C8.82866 8.6007 8.86874 8.90631 8.90882 9.34219C9.01403 10.1538 9.11924 10.9604 9.23447 11.772C9.26453 12.0125 9.32465 12.4935 9.40481 13.2149C9.40481 13.265 9.41483 13.3352 9.42986 13.4304V13.6207C9.42986 13.9414 9.37976 14.232 9.27455 14.4975C9.16934 14.763 8.999 14.9885 8.75852 15.1839C8.63828 15.234 8.50802 15.254 8.37275 15.254C8.07715 15.254 7.83667 15.1488 7.6513 14.9434C7.47595 14.6227 7.33066 14.3171 7.22545 14.0215C7.11523 13.731 6.94489 13.1398 6.70441 12.258C6.55411 11.7219 6.3988 11.266 6.2485 10.9003C6.0481 10.4093 5.81764 9.99349 5.5521 9.6478C5.47194 9.63778 5.42184 9.67785 5.39679 9.76303C5.37174 9.8482 5.34669 9.95842 5.31162 10.0937C5.27154 10.1638 5.2515 10.239 5.2515 10.3091C5.2515 10.3993 5.28156 10.4895 5.33667 10.5847C5.42685 10.7149 5.51202 10.8352 5.6022 10.9554C6.01303 11.7821 6.23347 12.258 6.27355 12.3883C6.37876 12.6989 6.42886 13.0095 6.42886 13.3151C6.42886 13.4203 6.42886 13.5005 6.41884 13.5556C5.93788 14.1568 5.38176 14.6528 4.74549 15.0486C4.41483 15.249 4.07916 15.4093 3.73347 15.5245C3.38778 15.6398 3.04208 15.6999 2.7014 15.6999C2.53106 15.6197 2.41583 15.5095 2.3507 15.3642C2.28557 15.2189 2.25551 15.0436 2.25551 14.8332C2.25551 14.738 2.27555 14.5676 2.31062 14.3272C2.34569 14.0867 2.37074 13.9063 2.37575 13.7861C2.27054 14.0566 2.18537 14.3322 2.11022 14.6077C2.04008 14.8833 2 15.1488 2 15.3943C2 15.6047 2.02505 15.7951 2.07014 15.9755C2.11523 16.1558 2.2004 16.3161 2.31062 16.4614C2.40581 16.5115 2.50601 16.5516 2.60621 16.5817C2.70641 16.6117 2.80661 16.6318 2.9018 16.6318C2.99198 16.6318 3.07715 16.6217 3.16733 16.5967C3.55311 16.4865 3.91884 16.3462 4.26954 16.1759C4.62024 16.0055 4.9509 15.8051 5.27154 15.5746C5.62224 15.3191 5.90781 15.0436 6.12325 14.758C6.37375 14.4274 6.53407 14.0767 6.61423 13.7009C6.71944 14.0316 6.82465 14.3722 6.93988 14.728C7.0501 15.0837 7.18036 15.3843 7.32565 15.6248C7.56613 15.9955 7.93687 16.1759 8.44288 16.1759C8.66834 16.1759 8.88377 16.0857 9.09419 15.9003C9.33467 15.6849 9.5501 15.3592 9.74549 14.9284L10.0962 15.4193C10.4569 15.6598 10.8226 15.8302 11.1884 15.9304C11.5591 16.0306 11.9549 16.0807 12.3808 16.0807C12.8066 16.0807 13.2224 16.0356 13.6383 15.9404C14.0491 15.8502 14.52 15.7049 15.0411 15.5145C15.5621 15.3241 16.2535 15.0235 17.1102 14.6127C17.1403 14.6227 17.1603 14.6478 17.1603 14.6979C17.1603 14.7079 17.1503 14.743 17.1303 14.8081C17.1102 14.8732 17.1052 14.9284 17.1102 14.9785C17.1102 15.1388 17.1603 15.2841 17.2605 15.4093C17.3607 15.5396 17.481 15.6398 17.6263 15.7199C17.7866 15.77 17.9419 15.7901 18.0972 15.7901C18.2826 15.7901 18.4679 15.76 18.6583 15.6999C18.8487 15.6398 19.009 15.5596 19.1443 15.4644C19.3747 15.3542 19.5351 15.1538 19.6252 14.8732C19.6753 14.6328 19.7255 14.3873 19.7806 14.1418L19.7655 14.1518ZM16.6293 16.8823C16.479 17.1328 16.3036 17.3582 16.1132 17.5686C16.0581 17.4885 15.9078 17.4083 15.6623 17.3231C15.4168 17.238 15.2966 17.1478 15.2966 17.0526C15.2966 17.0025 15.3166 16.9474 15.3567 16.8823C15.3868 16.8572 15.4669 16.767 15.5972 16.6067C15.7024 16.4765 15.7926 16.4163 15.8727 16.4163C15.9429 16.4163 16.018 16.4514 16.0882 16.5266C16.1784 16.5566 16.2735 16.6117 16.3788 16.6819C16.4289 16.7119 16.509 16.7821 16.6293 16.8873V16.8823ZM7.9018 10.4845C7.91683 10.5496 7.92685 10.5947 7.92685 10.6298C7.92685 10.6949 7.90681 10.77 7.86673 10.8602C7.82665 10.9504 7.79659 11.0155 7.78156 11.0656C7.73146 11.0907 7.69138 11.1007 7.66132 11.1007C7.58116 11.1007 7.51102 11.0506 7.44589 10.9454C7.41583 10.8903 7.39078 10.8302 7.37575 10.765C7.37575 10.4444 7.38577 10.2139 7.4008 10.0787C7.41583 9.94339 7.47595 9.80311 7.58116 9.65782C7.52605 9.84319 7.49599 10.0286 7.49599 10.2089C7.49599 10.3392 7.50601 10.4394 7.52605 10.5145C7.54609 10.5897 7.58617 10.6698 7.64128 10.75C7.68136 10.7901 7.72144 10.7901 7.76653 10.75C7.81162 10.7099 7.83667 10.6648 7.84669 10.6197C7.83166 10.5797 7.83166 10.5496 7.8517 10.5296C7.87174 10.5095 7.89178 10.4945 7.90681 10.4895L7.9018 10.4845ZM14.3096 16.4364C14.3096 16.7169 14.2495 16.9674 14.1242 17.1829C13.999 17.3983 13.8236 17.5937 13.5882 17.774C13.6132 17.7239 13.7184 17.5887 13.8988 17.3632C14.0491 17.1779 14.1293 17.0175 14.1293 16.8823C14.1293 16.8021 14.1042 16.7169 14.0591 16.6318C14.0291 16.6318 13.984 16.6468 13.9339 16.6819C13.8838 16.7119 13.8537 16.732 13.8437 16.732C13.8437 16.6668 13.8737 16.5917 13.9289 16.5115C13.984 16.4264 14.0491 16.3662 14.1192 16.3262C14.1994 16.2961 14.2645 16.3362 14.3096 16.4464V16.4364ZM4.81062 7.35822C4.71543 7.70892 4.51002 8.01954 4.20441 8.29008C3.89379 8.56062 3.55812 8.72094 3.18737 8.77605C3.14729 8.751 3.10721 8.72595 3.06713 8.70591C3.11723 8.63577 3.29258 8.51553 3.5982 8.35521C3.8487 8.22495 3.96894 8.10471 3.96894 7.98447C3.65832 7.9995 3.39279 8.01453 3.17735 8.01954C2.96192 8.02956 2.77655 8.08467 2.62625 8.18988C2.73647 7.93437 2.8517 7.73898 2.96192 7.5987C3.14729 7.37325 3.34269 7.26303 3.55311 7.26303C3.63327 7.26303 3.7485 7.26303 3.90381 7.25301C4.05411 7.24299 4.16433 7.24299 4.22946 7.24299C4.33968 7.24299 4.44489 7.25301 4.54008 7.26804C4.63527 7.28307 4.73046 7.31813 4.81563 7.36322L4.81062 7.35822ZM3.78858 10.8702C3.81864 11.0155 3.77355 11.1007 3.6483 11.1358C3.52305 11.1658 3.4479 11.226 3.41283 11.3161C3.41283 11.3712 3.41283 11.4765 3.42285 11.6217C3.43287 11.772 3.43287 11.8823 3.43287 11.9624C3.43287 12.1628 3.40281 12.3432 3.34769 12.5035C3.24248 12.4233 3.12725 12.263 3.00701 12.0276C2.88176 11.7921 2.77154 11.6268 2.67635 11.5416C2.66633 11.5416 2.66132 11.5516 2.6513 11.5716C2.64128 11.5917 2.64128 11.6067 2.64128 11.6117C2.58617 11.6268 2.52605 11.6217 2.46593 11.5867C2.40581 11.5566 2.3507 11.5165 2.30561 11.4664C2.30561 11.3462 2.31563 11.246 2.33567 11.1658C2.35571 11.0857 2.39579 11.0105 2.46092 10.9354C2.64629 11.0556 2.82665 11.266 3.002 11.5616C3.1523 11.8272 3.24248 11.9724 3.26753 12.0075C3.27755 11.6869 3.29259 11.4163 3.32265 11.1909C3.35271 10.9654 3.46293 10.8552 3.65331 10.8552C3.70842 10.8552 3.75351 10.8552 3.78357 10.8652L3.78858 10.8702ZM6.6493 16.1708C6.6493 16.4364 6.60421 16.6769 6.50902 16.8923C6.41884 17.1077 6.27355 17.3231 6.08317 17.5436C6.0982 17.4634 6.16834 17.3131 6.29359 17.0977C6.41884 16.8823 6.47896 16.7069 6.47896 16.5817C6.47896 16.4765 6.43888 16.3712 6.35872 16.271L6.17836 16.4264C6.17836 16.236 6.25351 16.0807 6.40882 15.9704C6.45892 15.9604 6.499 15.9704 6.53908 16.0005C6.57916 16.0306 6.61423 16.0857 6.6493 16.1759V16.1708Z" fill="white"/>
</svg>
