<svg width="24" height="24" viewBox="0 0 24 24" fill="none" xmlns="http://www.w3.org/2000/svg">
<path fill-rule="evenodd" clip-rule="evenodd" d="M21.9944 9.41543L21.5998 8.79536C21.4927 8.96446 21.4363 9.13921 21.4363 9.30832V9.43234C21.4532 9.46616 21.4645 9.4887 21.4645 9.49998C21.4645 9.87766 21.4983 10.3343 21.5716 10.8641C21.7407 12.1155 21.8309 12.9216 21.8309 13.2711C21.8309 14.0998 21.8027 14.7198 21.752 15.1257C21.6618 15.7909 21.4758 16.3658 21.1995 16.845C21.2897 16.5913 21.3574 16.2869 21.4025 15.9318C21.4476 15.5766 21.4701 15.2328 21.4701 14.8946C21.4701 14.7142 21.4645 14.5169 21.4476 14.3083C21.4363 14.0941 21.425 13.9306 21.4138 13.8123L20.9402 8.53606C20.8839 8.37259 20.8613 8.20912 20.8613 8.03437C20.8613 7.6736 20.9853 7.34102 21.239 7.03099C21.4025 7.41994 21.5659 7.82579 21.7407 8.24857C21.9098 8.67134 22 9.0603 22 9.40979L21.9944 9.41543ZM16.3517 6.00505C16.1375 6.15725 15.8331 6.30945 15.4442 6.46729C14.5085 6.82806 13.9786 7.04226 13.8602 7.11554C14.0688 6.89006 14.3563 6.69841 14.7283 6.54621C15.2582 6.332 15.7937 6.11215 16.3236 5.89795C16.3405 5.89795 16.3517 5.93177 16.3517 6.00505ZM16.3123 6.98025C16.2334 7.05917 16.1883 7.16627 16.1883 7.29028C16.1883 7.33538 16.1883 7.40302 16.1995 7.49322C16.1995 7.5665 16.1883 7.61723 16.1714 7.65669C16.0643 7.65669 15.9853 7.62851 15.9402 7.57777C15.8952 7.52141 15.8726 7.45376 15.8726 7.36357C15.8726 7.29029 15.8839 7.18318 15.9008 7.03662C15.9008 6.94643 15.8895 6.89006 15.8726 6.86188C15.7824 6.93516 15.7373 7.0479 15.7373 7.2001C15.7373 7.26211 15.7373 7.34666 15.7486 7.45939C15.7486 7.5665 15.726 7.65105 15.6866 7.70742C15.6471 7.76379 15.5682 7.79762 15.4498 7.79762C15.2976 7.75252 15.2187 7.65669 15.2187 7.51577C15.2187 7.4594 15.2413 7.36357 15.2864 7.21701C15.3315 7.07045 15.3484 6.96898 15.3427 6.90697C15.2244 7.00844 15.1454 7.155 15.1003 7.35229C15.0891 7.38611 15.0665 7.57214 15.0327 7.90472C15.0778 7.98364 15.1342 8.04564 15.2074 8.0851C15.2807 8.12456 15.354 8.14147 15.4216 8.1302C15.5006 8.15838 15.5738 8.1302 15.6359 8.06256C15.664 8.02873 15.7148 7.96108 15.7824 7.87089C15.8162 7.92726 15.8501 7.95545 15.8839 7.96672C15.9177 7.97799 16.0079 7.978 16.1601 7.978C16.239 7.90471 16.2954 7.83143 16.3292 7.74688C16.363 7.66796 16.3743 7.56086 16.3743 7.43685C16.3743 7.26774 16.3461 7.1099 16.2954 6.97461L16.3123 6.98025ZM16.0981 9.35905C16.0248 9.40415 15.9402 9.51689 15.8388 9.69728C15.7373 9.87766 15.6471 9.96785 15.5682 9.96785L15.4611 9.93966L14.7565 9.46616C14.8749 9.19558 15.0552 8.93628 15.2976 8.69389C15.4667 8.78409 15.6302 8.88555 15.7768 9.00393C15.9233 9.12231 16.0304 9.24068 16.0924 9.35342L16.0981 9.35905ZM17.5862 11.5518C17.6201 11.6139 17.6032 11.704 17.5299 11.8224C17.4566 11.9408 17.4171 12.0141 17.4059 12.0535C17.2424 12.1437 17.1297 12.0874 17.0676 11.8901C17.0676 11.721 17.1015 11.5575 17.1691 11.4109C17.2368 11.2644 17.3326 11.1065 17.4622 10.943C17.3889 11.1403 17.3213 11.3376 17.2593 11.5237C17.2593 11.6026 17.2931 11.6815 17.3664 11.7548C17.4115 11.7548 17.4566 11.721 17.5017 11.659C17.5468 11.5969 17.575 11.5575 17.5806 11.5518H17.5862ZM12.7272 8.4515C12.7272 8.56988 12.7046 8.67134 12.6652 8.76154C12.6257 8.85173 12.5524 8.97575 12.4397 9.12794C12.3326 9.18995 12.2368 9.24068 12.1578 9.28578C12.0789 9.33087 12 9.34779 11.9267 9.34779C11.8985 9.34779 11.8478 9.33651 11.7802 9.3196C11.6561 9.19559 11.5885 9.04338 11.5885 8.87427C11.5885 8.72207 11.6449 8.53042 11.7632 8.30494C11.8534 8.13583 11.9493 7.96108 12.0451 7.79197C12.0451 7.88217 11.9944 8.02873 11.8985 8.22602C11.7971 8.42332 11.752 8.56988 11.752 8.66007C11.752 8.79536 11.8253 8.91373 11.9662 9.00956C12.0676 9.02084 12.1522 8.99829 12.2311 8.95319C12.31 8.90809 12.4059 8.84046 12.5242 8.75027C12.5242 8.66008 12.4453 8.56424 12.2875 8.45714C12.1297 8.35568 12.0507 8.27675 12.0507 8.23166C12.0507 8.16965 12.1184 8.10201 12.2537 8.02873C12.2706 8.04564 12.3664 8.10765 12.5355 8.20348C12.6539 8.26549 12.7159 8.35004 12.7272 8.44587V8.4515ZM10.7091 8.30494C10.7091 8.42895 10.6697 8.5586 10.5964 8.68262C10.5175 8.80663 10.416 8.89119 10.2807 8.92501C10.2018 8.92501 10.1342 8.90246 10.0834 8.85173C10.0327 8.801 9.99323 8.73336 9.97069 8.64316C9.97069 8.42896 10.0158 8.21475 10.1003 8.00055C10.1849 7.78634 10.3033 7.58341 10.4611 7.38611C10.4611 7.46503 10.3991 7.64541 10.2694 7.91599C10.2074 8.05128 10.1736 8.16402 10.1736 8.25421C10.1736 8.37822 10.2244 8.49096 10.3202 8.59242C10.4104 8.62061 10.4837 8.58116 10.5457 8.46842C10.602 8.36132 10.6584 8.30494 10.7148 8.30494H10.7091ZM18.4092 17.0592C18.3923 17.1775 18.3585 17.2846 18.3134 17.3748C18.2683 17.4707 18.2007 17.5496 18.1105 17.6116C18.0203 17.6285 17.9414 17.6116 17.8681 17.5721C17.7948 17.527 17.7497 17.4707 17.7328 17.4087C17.7159 17.3467 17.7046 17.2677 17.7046 17.1775C17.7046 16.8901 17.8061 16.6082 18.0147 16.3376C17.9808 16.3996 17.9526 16.4842 17.9357 16.5969C17.9188 16.7097 17.9076 16.8111 17.9076 16.907C17.9076 17.0028 17.9076 17.0817 17.9188 17.1381C17.9639 17.1945 18.009 17.2339 18.0485 17.2677C18.0879 17.3016 18.1387 17.3128 18.2063 17.3016L18.4092 17.0592ZM12.9977 11.0953C12.9977 11.0953 13.0259 11.1629 12.9977 11.2249C12.9696 11.2813 12.9414 11.3376 12.9188 11.394C12.8005 11.3658 12.7159 11.3545 12.6595 11.3545C12.5806 11.3545 12.5355 11.4053 12.5242 11.5011C12.451 11.8957 12.3439 12.2677 12.1973 12.6116C12.1071 12.5552 12.0113 12.3861 11.9042 12.0986C11.7971 11.8111 11.6674 11.6646 11.5039 11.6646C11.4701 11.6646 11.4138 11.6759 11.3405 11.6928C11.2672 11.6646 11.2334 11.6138 11.2334 11.5293C11.2334 11.4673 11.2446 11.4222 11.2728 11.394C11.301 11.332 11.3292 11.2644 11.363 11.1967C11.3968 11.1291 11.4419 11.0727 11.5039 11.0276C11.6956 11.084 11.8365 11.2305 11.938 11.4729C12.0846 11.845 12.1691 12.0479 12.1973 12.0817C12.2988 11.7773 12.3777 11.5462 12.4397 11.394C12.5017 11.2418 12.5862 11.1065 12.6821 10.9881C12.7723 10.9769 12.8737 11.0163 12.9921 11.0953H12.9977ZM19.2097 9.24068C19.2097 8.86864 19.1364 8.46278 18.9955 8.02309C18.9617 7.92163 18.8095 7.53831 18.5502 6.86188C18.4487 6.90697 18.3585 7.00844 18.2796 7.16064C18.2345 7.23392 18.1725 7.35229 18.0879 7.51013C18.0879 8.00618 18.2176 9.17867 18.4825 11.0276C18.6009 11.8562 18.6573 12.5665 18.6573 13.1527C18.4882 13.367 18.274 13.5248 18.0259 13.6206C17.7779 13.7164 17.5073 13.7615 17.2086 13.7615C16.8196 13.7277 16.5434 13.4233 16.3856 12.854C16.2841 12.4932 16.1939 12.2565 16.1037 12.1381C15.9853 12.0479 15.8444 12.0028 15.6697 12.0028C15.6246 12.0028 15.5457 12.0141 15.4386 12.031C15.0327 12.1494 14.7057 12.3748 14.4521 12.7074C14.1477 13.102 13.9166 13.7108 13.7644 14.5338C13.3923 14.7424 12.9752 14.8833 12.5073 14.9679C12.0395 15.0524 11.5209 15.0919 10.9515 15.0919C10.3822 15.0919 9.93123 14.9904 9.51973 14.7931C9.03495 14.5564 8.73055 14.235 8.61781 13.8179C8.50507 13.4008 8.42616 12.9667 8.38106 12.5101C8.33596 12.0535 8.31342 11.3376 8.31342 10.3681C8.31342 9.79311 8.30214 9.17867 8.28523 8.53606C8.26832 7.89344 8.2345 7.36356 8.1894 6.94643C7.99211 7.16063 7.83991 7.43685 7.72717 7.76943C7.72717 8.3895 7.75536 9.20686 7.80609 10.2159C7.92446 12.4143 7.98083 13.7841 7.98083 14.314L7.94138 14.2858V15.137C7.56933 15.6161 7.12401 16.0276 6.59977 16.3771C6.07554 16.7266 5.52875 16.9633 4.96505 17.0873C4.80158 17.1155 4.6832 17.1324 4.61556 17.1437C4.54228 17.155 4.44645 17.155 4.3168 17.155C3.97294 17.155 3.65163 17.093 3.34724 16.9746C3.04284 16.8506 2.78354 16.6702 2.56933 16.4278C2.49042 16.3095 2.43405 16.2024 2.40023 16.0952C2.3664 15.9938 2.35513 15.8698 2.35513 15.7232C2.35513 15.4977 2.42277 15.2159 2.55806 14.872C2.63134 14.6916 2.74408 14.4154 2.89628 14.049C2.58061 14.6071 2.38331 14.9791 2.29876 15.1595C2.10147 15.6105 2 16.0276 2 16.4053C2 16.6589 2.0451 16.907 2.13529 17.1494C2.2593 17.3579 2.43405 17.5327 2.64825 17.6792C2.81736 17.7976 3.02593 17.8934 3.26832 17.978C3.4938 18.0344 3.66291 18.0626 3.78129 18.0682C3.89966 18.0682 4.00676 18.0738 4.10823 18.0738C4.66065 18.0738 5.19053 17.9498 5.70913 17.7018C6.22773 17.4538 6.72379 17.1268 7.19166 16.7209C7.49605 16.5744 7.73281 16.3095 7.89628 15.9205C7.98647 15.7119 8.11612 15.385 8.29087 14.934C8.32469 14.9453 8.36979 14.9791 8.41488 15.0411C8.43179 15.0693 8.46561 15.12 8.51071 15.1877C8.80947 15.4752 9.14205 15.6837 9.51973 15.8078C9.89177 15.9318 10.3089 15.9994 10.7711 15.9994C11.1657 15.9994 11.5829 15.9543 12.0169 15.8641C12.451 15.7739 12.8794 15.6612 13.3021 15.5259C13.3811 15.4977 13.4487 15.4864 13.5051 15.4864C13.6967 15.4864 13.8602 15.6894 14.0011 16.0896C14.1421 16.4898 14.3224 16.7266 14.5479 16.7999C14.6494 16.8562 14.7396 16.8788 14.8185 16.8788C14.9256 16.8788 15.0327 16.845 15.1454 16.783C15.2525 16.721 15.3653 16.642 15.4837 16.5518C15.6302 16.3376 15.743 16.1122 15.8331 15.8754C15.9233 15.6386 15.9684 15.4132 15.9684 15.1877C15.9684 14.9622 15.9233 14.7593 15.8331 14.5789C15.743 14.4887 15.6471 14.4267 15.54 14.3872C15.4386 14.3534 15.3202 14.3309 15.1962 14.3309C15.0609 14.3309 14.8805 14.359 14.655 14.4098C14.5366 14.438 14.3732 14.4774 14.1533 14.5338C14.097 14.4436 14.0744 14.3196 14.0744 14.1561C14.0744 14.0998 14.0744 14.0434 14.08 13.9757C14.08 13.9081 14.0913 13.8292 14.1026 13.739C14.2942 13.5022 14.4464 13.3331 14.5648 13.226C14.7452 13.0626 14.9312 12.9554 15.1172 12.8991C15.1905 12.8822 15.2807 12.8709 15.3878 12.8709C15.6753 12.8709 15.8726 13.0344 15.9853 13.3557C16.239 14.1336 16.4927 14.5507 16.7407 14.6127C16.876 14.6691 17.0169 14.6916 17.1578 14.6916C17.3551 14.6916 17.5637 14.6465 17.7779 14.5563C17.8794 14.5225 18.0597 14.4211 18.3303 14.2576C18.6291 13.9137 18.8151 13.5079 18.8997 13.04C18.9448 12.7976 18.9673 12.3467 18.9673 11.6871C18.9504 11.518 18.894 11.1573 18.8038 10.6161C18.6798 9.86639 18.6122 9.29705 18.6122 8.91374C18.6742 8.78972 18.7362 8.66007 18.8038 8.53606C18.8377 8.63753 18.9109 8.76717 19.0124 8.93065C19.1139 9.09412 19.1815 9.19559 19.2097 9.24068ZM10.8219 13.0964C10.7768 13.1978 10.7317 13.2937 10.6866 13.3951C10.6415 13.4966 10.5682 13.5699 10.4724 13.6263C10.3709 13.6263 10.2976 13.5699 10.2413 13.4515C10.2244 13.226 10.2469 13.0175 10.3145 12.8202C10.3822 12.6285 10.4893 12.4425 10.6302 12.2734C10.6302 12.3636 10.6133 12.4538 10.5738 12.5439C10.4724 12.8032 10.4273 12.9667 10.4273 13.0287C10.4273 13.1302 10.4611 13.2204 10.5344 13.2993C10.5908 13.3106 10.6358 13.2768 10.6809 13.2035C10.726 13.1302 10.7711 13.0964 10.8162 13.0964H10.8219ZM5.91206 7.51013C5.95716 7.54395 5.9628 7.59468 5.93461 7.65105C5.90079 7.70742 5.8726 7.76379 5.84442 7.82016C5.81623 7.80325 5.7655 7.79197 5.69786 7.79197H5.5513C5.43292 7.93854 5.35964 8.18093 5.32582 8.52478C5.292 8.86864 5.25817 9.09412 5.21308 9.20122C5.12289 9.13921 5.03833 9.02648 4.95378 8.86301C4.74521 8.46842 4.60992 8.2373 4.54791 8.17529L4.4239 8.40641C4.4239 8.40641 4.34498 8.36695 4.27734 8.31058C4.20406 8.25421 4.15333 8.21475 4.11387 8.18657C4.11387 7.99491 4.17587 7.81453 4.30552 7.64542C4.51973 7.64542 4.72266 7.82016 4.90304 8.17529C5.03833 8.43459 5.12289 8.59243 5.16235 8.6488C5.19617 8.43459 5.24126 8.21475 5.28636 8.00055C5.35964 7.7638 5.47802 7.58341 5.63585 7.45939C5.70913 7.44812 5.75986 7.44812 5.79932 7.44812C5.85569 7.44812 5.89515 7.47067 5.92334 7.51577L5.91206 7.51013ZM6.79143 11.4335C6.79143 11.5406 6.76888 11.6477 6.71815 11.7604C6.66742 11.8675 6.5885 11.9521 6.4814 12.0028C6.31793 12.0028 6.21646 11.9239 6.17136 11.7604C6.17136 11.5067 6.2221 11.2643 6.31792 11.0276C6.36302 10.9261 6.4814 10.7119 6.66742 10.3794C6.66742 10.4583 6.61105 10.6161 6.50395 10.8416C6.39684 11.0671 6.34047 11.2362 6.34047 11.3433C6.34047 11.4898 6.41939 11.6026 6.57159 11.6928C6.61669 11.6646 6.65614 11.6195 6.68433 11.5575C6.71815 11.4955 6.75197 11.456 6.78579 11.4335H6.79143ZM13.4318 17.0592C13.398 17.1155 13.3641 17.155 13.336 17.1888C13.3078 17.2226 13.2796 17.2339 13.2401 17.2339C13.133 17.1888 13.0372 17.1663 12.9583 17.1663C12.7779 17.1663 12.513 17.2903 12.1578 17.5383C11.8083 17.7863 11.5321 17.9104 11.3348 17.9104L10.2413 18.102C10.3935 18.0231 10.602 17.9329 10.8613 17.8427C11.1206 17.7525 11.3799 17.668 11.628 17.5834C11.876 17.5045 12.0789 17.403 12.2311 17.2846C12.4284 17.1381 12.5806 16.9633 12.6933 16.7548C12.7215 16.6477 12.7779 16.5575 12.8681 16.4842C12.9583 16.4109 13.0485 16.3771 13.1387 16.3771C13.2852 16.3771 13.3754 16.4447 13.4205 16.58C13.4656 16.7153 13.4882 16.8168 13.4882 16.8788C13.4882 16.9577 13.4713 17.0197 13.4318 17.0535V17.0592ZM5.75986 9.71419C5.77678 9.87766 5.73168 9.9904 5.62458 10.0524C5.292 10.0524 5.04961 10.0693 4.89177 10.0975C4.73957 10.1313 4.60428 10.2215 4.48591 10.3737C4.50282 10.4639 4.54228 10.6725 4.60992 11.0051C4.67193 11.332 4.71139 11.58 4.73393 11.7379C4.75085 11.8957 4.76212 12.0084 4.76776 12.0817C4.76776 12.155 4.77339 12.2114 4.77339 12.2565C4.77339 12.4538 4.75648 12.6285 4.71702 12.7863C4.6832 12.9385 4.60992 13.0907 4.50282 13.2486C4.55919 13.1584 4.59301 13.0625 4.60992 12.9667C4.62683 12.8653 4.63811 12.7525 4.63811 12.6285C4.63811 12.3748 4.59301 12.0761 4.50282 11.7379C4.44645 11.5575 4.40699 11.3996 4.37317 11.2644C4.33935 11.1291 4.3168 11.0107 4.29989 10.9036C4.28298 10.8021 4.2717 10.7176 4.2717 10.6556C4.2717 10.4188 4.33935 10.2272 4.48027 10.0693C4.62119 9.91148 4.86358 9.79874 5.2018 9.72546C5.17362 9.66909 5.12289 9.62963 5.05524 9.60145C4.98196 9.57326 4.91995 9.5789 4.86358 9.61272C4.80158 9.65782 4.73957 9.70291 4.68884 9.74801C4.67756 9.70291 4.68884 9.64654 4.71702 9.58454C4.74521 9.52253 4.77339 9.46053 4.79594 9.39288C4.89741 9.31396 4.99887 9.26887 5.10598 9.26887C5.17926 9.26887 5.23563 9.28577 5.28072 9.32523C5.37091 9.37033 5.44983 9.42107 5.51184 9.4718C5.57384 9.52817 5.6584 9.60708 5.75423 9.71419H5.75986ZM9.13078 17.0986C9.13078 17.1888 9.10823 17.2847 9.06313 17.3805C8.98985 17.4989 8.94476 17.5721 8.92221 17.6116C8.89966 17.6454 8.82074 17.668 8.68546 17.668C8.62909 17.544 8.60654 17.4143 8.60654 17.2903C8.60654 17.1212 8.65727 16.9295 8.7531 16.7153C8.85457 16.5011 8.94476 16.2982 9.03495 16.1009C8.94476 16.4053 8.85457 16.7153 8.76437 17.0197C8.76437 17.1663 8.82074 17.2734 8.92785 17.3467L9.13078 17.1043V17.0986ZM5.81623 14.2012C5.81623 14.2012 5.77678 14.2632 5.72604 14.3647C5.67531 14.4662 5.63021 14.5113 5.58512 14.5113C5.56821 14.5113 5.52875 14.4887 5.4611 14.4436H5.354C5.29763 14.5507 5.2469 14.7593 5.19617 15.0637C5.14543 15.3681 5.06652 15.5879 4.95941 15.7119C4.88613 15.6387 4.81285 15.4921 4.7283 15.2723C4.64374 15.0524 4.57046 14.9002 4.49718 14.8213C4.48027 14.8777 4.44645 14.9115 4.40135 14.934C4.35626 14.9566 4.31116 14.9509 4.26607 14.9115C4.2097 14.8664 4.18715 14.8044 4.18715 14.7198C4.18715 14.6578 4.19842 14.5902 4.22661 14.5225C4.25479 14.4549 4.28298 14.3872 4.30552 14.3252C4.41263 14.2801 4.47463 14.2689 4.49718 14.2971C4.59865 14.376 4.67756 14.4831 4.73957 14.6071C4.81849 14.8044 4.90304 15.0017 4.98196 15.2046C5.03833 14.8607 5.0947 14.6184 5.16235 14.4662C5.22999 14.3196 5.32018 14.1956 5.43856 14.0941C5.49493 14.0772 5.5513 14.0828 5.6133 14.1054C5.67531 14.1336 5.73732 14.1618 5.80496 14.1843L5.81623 14.2012ZM15.3822 15.8641C15.3258 15.9205 15.2582 15.943 15.168 15.943C15.0609 15.943 14.9594 15.9205 14.8692 15.8754C14.6325 15.7514 14.4746 15.5597 14.3844 15.3061C14.4915 15.261 14.6043 15.2384 14.7227 15.2384C14.9312 15.2384 15.0834 15.2835 15.1736 15.3793C15.2638 15.4752 15.3315 15.5541 15.3709 15.6161C15.4047 15.6781 15.4104 15.7627 15.3822 15.8585V15.8641ZM13.1781 16.8393C13.133 16.8732 13.0598 16.8562 12.9639 16.783C12.9526 16.7661 12.9301 16.7379 12.885 16.704C12.8963 16.6928 12.9076 16.6871 12.9245 16.6759C12.9583 16.6759 12.9865 16.6815 13.0034 16.6984C13.0203 16.7097 13.0372 16.721 13.0598 16.7322L13.1838 16.8393H13.1781Z" fill="white"/>
</svg>
