<svg width="24" height="24" viewBox="0 0 24 24" fill="none" xmlns="http://www.w3.org/2000/svg">
<path fill-rule="evenodd" clip-rule="evenodd" d="M22 9.73648C21.9299 9.70145 21.8555 9.62702 21.7811 9.51756C21.7023 9.40373 21.6366 9.33367 21.5797 9.3074L21.4965 9.45626C21.4965 9.79777 21.5359 10.2312 21.6103 10.7479C21.7855 11.9256 21.873 12.6612 21.873 12.9545C21.873 13.4099 21.8424 13.8214 21.7767 14.1848C21.7154 14.5482 21.5928 14.8941 21.4089 15.2268C21.4527 15.0736 21.4834 14.8853 21.5053 14.6708C21.5271 14.4519 21.5359 14.2461 21.5359 14.0491C21.5359 13.8039 21.5359 13.62 21.5271 13.5018C21.5053 13.3486 21.4965 13.2347 21.4965 13.1647L21.0849 9.07535C21.0937 9.04033 21.0937 8.98341 21.0937 8.90898C21.0937 8.82579 21.0806 8.70758 21.0499 8.54996C21.0236 8.39672 21.0061 8.28288 21.0061 8.21283C21.0061 8.099 21.0236 8.00705 21.0543 7.92825C21.0849 7.84944 21.155 7.76625 21.2601 7.6743C21.5053 8.36169 21.7504 9.04908 21.9956 9.7321L22 9.73648ZM20.7697 9.51756C20.6865 9.6708 20.5595 9.79777 20.3932 9.89409C20.2881 9.96414 20.1086 10.0517 19.8503 10.1612C19.5963 10.2706 19.4081 10.3626 19.2898 10.4414C19.3249 10.3626 19.373 10.2925 19.4387 10.2312C19.5044 10.1699 19.5701 10.113 19.6489 10.0649C19.662 10.0561 19.9028 9.95101 20.3625 9.74961C20.5289 9.6708 20.669 9.59637 20.7741 9.51756H20.7697ZM17.5736 10.043C17.5604 10.1962 17.521 10.3407 17.4641 10.4677C17.4028 10.599 17.324 10.7216 17.2277 10.8398C17.3897 10.6384 17.4685 10.3757 17.4685 10.0517C17.4685 9.89847 17.4553 9.76275 17.4334 9.65329C17.4072 9.53945 17.3634 9.4081 17.3021 9.25486C17.2452 9.17168 17.2102 9.11914 17.197 9.09725C17.162 9.03595 17.1445 8.97027 17.1445 8.90898C17.1445 8.85206 17.1751 8.79515 17.2408 8.72947C17.3546 8.86082 17.4378 9.02282 17.4991 9.2067C17.5604 9.39059 17.5867 9.58762 17.5867 9.78902C17.5867 9.90285 17.5867 9.98604 17.5779 10.043H17.5736ZM20.8091 13.4274C20.669 13.3442 20.5026 13.3004 20.3144 13.3004C20.1743 13.3004 20.0254 13.3223 19.8678 13.3617C19.7102 13.4011 19.5525 13.458 19.3905 13.5193C19.1366 12.0219 18.8914 10.5158 18.6462 9.00968L18.7207 8.91336L19.1716 9.38621C18.9177 8.74699 18.6681 8.11213 18.4142 7.4729C18.3179 7.5342 18.2391 7.6349 18.1821 7.76625C18.1559 7.8363 18.1121 7.95889 18.0552 8.13403C18.169 8.61126 18.2785 9.21984 18.3923 9.96414C18.4842 10.5859 18.5806 11.247 18.6813 11.9431C18.782 12.6393 18.8827 13.2216 18.979 13.6813C18.7557 13.8345 18.5455 13.9484 18.3529 14.0228C18.1602 14.0972 17.9501 14.1323 17.7268 14.1323C17.6305 14.1323 17.556 14.1323 17.5079 14.1235C17.2758 14.0447 17.0919 13.8958 16.9518 13.6726L16.7504 13.0946C16.6935 12.6174 16.6278 11.9519 16.5578 11.0937C16.4834 10.2356 16.4221 9.59637 16.3739 9.17605C16.282 8.41423 16.1725 7.77938 16.0499 7.27588C15.9886 7.3328 15.9273 7.42474 15.8704 7.56047C15.8441 7.63052 15.796 7.73998 15.7347 7.88446C15.9098 8.63315 16.0499 9.5088 16.155 10.5114C16.2338 11.409 16.3126 12.3065 16.3958 13.1997C16.479 13.712 16.5315 14.0009 16.5534 14.071C16.6454 14.3862 16.8074 14.6139 17.0482 14.754C17.1401 14.789 17.2102 14.8109 17.2583 14.824C17.3065 14.8328 17.394 14.8416 17.521 14.8416C17.718 14.8416 17.9238 14.8022 18.1427 14.7277C18.2828 14.6796 18.5937 14.5263 19.0797 14.2636C19.1497 14.4037 19.1935 14.4913 19.2067 14.5307C19.2198 14.5701 19.2373 14.6226 19.2592 14.6927C19.3511 14.8766 19.4694 15.0298 19.6095 15.1568C19.7539 15.2838 19.9116 15.3451 20.0867 15.3451C20.2968 15.3451 20.4588 15.2487 20.5683 15.0517C20.6165 14.9554 20.7128 14.7803 20.8529 14.5263C20.958 14.3074 21.0105 14.1148 21.0105 13.9396C21.0105 13.8433 20.9974 13.7514 20.9667 13.6726C20.9405 13.5937 20.8879 13.5106 20.8091 13.4274ZM14.789 8.35294C14.7671 8.49304 14.7539 8.57185 14.7452 8.58499C14.7102 8.69007 14.6532 8.76888 14.5788 8.81704C14.5088 8.8039 14.4475 8.78201 14.3993 8.74698C14.3511 8.71633 14.3249 8.6638 14.3249 8.59375C14.3249 8.44051 14.3643 8.26975 14.4387 8.07711C14.5088 7.94576 14.5525 7.84506 14.5744 7.78376C14.5744 7.83192 14.5525 7.91511 14.5131 8.0377C14.4694 8.15592 14.4518 8.24786 14.4518 8.30915C14.4518 8.41423 14.4956 8.49304 14.5788 8.54996C14.6357 8.55872 14.6795 8.52807 14.7145 8.4624C14.7496 8.39672 14.7758 8.35732 14.789 8.35294ZM17.9501 12.3153C17.9282 12.4072 17.9063 12.4992 17.8757 12.5867C17.8494 12.6787 17.7968 12.7444 17.7268 12.7881C17.6699 12.8144 17.6217 12.8144 17.5867 12.7794C17.5473 12.7444 17.5166 12.6918 17.486 12.6218C17.4729 12.5517 17.4641 12.4948 17.4641 12.4554C17.4641 12.3503 17.486 12.2409 17.5254 12.1314C17.5867 12 17.6305 11.8993 17.6524 11.838C17.6261 11.9913 17.5954 12.1445 17.5692 12.3021C17.5692 12.3591 17.5779 12.4072 17.5911 12.4423C17.6042 12.4817 17.6349 12.5167 17.6874 12.5517C17.7837 12.5517 17.8581 12.4729 17.9063 12.3197H17.9501V12.3153ZM12.718 8.69882C12.6918 8.76012 12.6567 8.79514 12.6217 8.79514C12.5998 8.79514 12.5648 8.77763 12.5166 8.73822C12.4685 8.69882 12.4291 8.68568 12.4028 8.69006C12.289 8.97903 12.0876 9.25487 11.7942 9.52194C10.9536 10.2706 10.5114 10.6778 10.472 10.7391C11.0806 10.0254 11.6891 9.31178 12.3021 8.59375C12.1883 8.53683 12.1095 8.49742 12.0613 8.46677C11.965 8.40985 11.8993 8.34418 11.873 8.26538C11.9431 8.01143 12.0876 7.85381 12.3021 7.78376C12.3503 7.775 12.394 7.79252 12.4291 7.82755C12.4641 7.86257 12.4947 7.91073 12.5166 7.96765C12.5429 8.02894 12.5517 8.099 12.5517 8.18219C12.5517 8.261 12.5385 8.31353 12.5079 8.34856C12.5166 8.36169 12.5692 8.41423 12.6655 8.50618C12.7356 8.56747 12.7531 8.63315 12.718 8.69445V8.69882ZM19.0665 15.3932C19.0665 15.3932 19.0884 15.4501 19.0884 15.4983C19.0884 15.5465 19.0753 15.599 19.0447 15.6515C19.0184 15.7041 18.9877 15.7566 18.9615 15.8048C18.8214 15.7829 18.6813 15.7654 18.5412 15.7522C18.3573 15.9974 18.0858 16.1901 17.7224 16.3302C17.2802 16.4615 16.9606 16.5666 16.7548 16.6454C16.8336 16.5885 17.1313 16.4484 17.648 16.2251C18.0245 16.0587 18.2828 15.8661 18.4142 15.6559C18.4623 15.5727 18.5061 15.472 18.5412 15.3494C18.5762 15.2312 18.6594 15.148 18.7951 15.0955C18.8564 15.1086 18.9046 15.1305 18.9308 15.1568C18.9571 15.1831 19.0053 15.2619 19.0665 15.3888V15.3932ZM10.4282 8.5018C10.4545 8.55872 10.4457 8.62877 10.3932 8.71196C10.3406 8.79514 10.31 8.86082 10.3056 8.90023C10.2574 8.94839 10.2093 8.97466 10.1567 8.97466C10.1436 8.97466 10.113 8.96152 10.0736 8.93087C10.0166 8.85206 9.99037 8.76887 9.99037 8.67693C9.99037 8.58498 10.0166 8.48866 10.0648 8.38358C10.1436 8.25661 10.1961 8.16467 10.2224 8.11213C10.2224 8.15592 10.2049 8.22597 10.1699 8.33105C10.1349 8.43613 10.1173 8.5018 10.1173 8.53245C10.1173 8.61126 10.1524 8.67693 10.2224 8.73385C10.2662 8.72509 10.31 8.68131 10.3581 8.59812C10.3844 8.54996 10.4107 8.51931 10.4326 8.5018H10.4282ZM15.9229 14.6577C15.634 14.8941 15.4457 15.043 15.3538 15.0999C15.1305 15.24 14.9072 15.31 14.6795 15.31C14.6226 15.31 14.5306 15.2969 14.4081 15.2662C14.338 15.2225 14.303 15.1524 14.303 15.0473C14.303 14.986 14.3161 14.9335 14.3468 14.8985L14.6007 14.5307C14.5657 14.5176 14.5394 14.5044 14.5175 14.4869C14.4956 14.4738 14.4562 14.4344 14.3905 14.3731C14.4037 14.2811 14.4343 14.2023 14.4869 14.1323C14.5657 14.0272 14.6795 13.944 14.8328 13.8783C14.9028 13.9002 14.9378 13.9528 14.9378 14.0359C14.9378 14.0841 14.9203 14.1279 14.8853 14.1629C14.8634 14.2111 14.8415 14.2374 14.8109 14.2374C14.732 14.1761 14.6883 14.141 14.6751 14.1323C14.662 14.1585 14.6489 14.1892 14.6445 14.2155C14.6708 14.3074 14.732 14.3512 14.824 14.3512C14.8809 14.3512 14.9553 14.3293 15.0429 14.2899C15.1349 14.2461 15.183 14.2286 15.1918 14.2286V14.2724C15.1699 14.3162 15.1436 14.3687 15.1086 14.43C14.9247 14.5132 14.7933 14.5789 14.7102 14.6314C14.5569 14.7233 14.4869 14.8372 14.5 14.9773C14.5963 15.0386 14.7189 15.0736 14.859 15.0736C15.0123 15.0736 15.183 15.0254 15.3669 14.9247C15.5508 14.8284 15.7303 14.7321 15.8967 14.6402L15.9273 14.662L15.9229 14.6577ZM7.98074 8.64628C7.93257 8.81266 7.90193 8.9046 7.89755 8.91774C7.87128 8.9659 7.8275 9.00531 7.77058 9.03157C7.67426 9.04471 7.6042 8.98779 7.56042 8.85206C7.59545 8.59812 7.61734 8.4624 7.62172 8.4405C7.65674 8.30916 7.71366 8.17781 7.78809 8.05084C7.79685 8.099 7.77933 8.18656 7.73993 8.30915C7.70053 8.43175 7.68301 8.51931 7.68301 8.56747C7.68301 8.67255 7.7268 8.75136 7.80998 8.80828L7.97636 8.64191L7.98074 8.64628ZM15.6296 15.5202C15.0123 15.7654 14.6751 15.8967 14.6226 15.9186C14.3905 15.9887 14.1804 16.0237 13.9921 16.0237C13.725 16.0237 13.4886 15.958 13.2785 15.8223C13.2785 15.6034 13.4142 15.4239 13.69 15.275C14.0053 15.0999 14.1935 14.9554 14.2592 14.8459C14.2154 14.8547 14.176 14.8634 14.1366 14.881C14.0972 14.8985 14.049 14.9204 13.9965 14.951C13.9615 14.9773 13.9177 14.9948 13.8608 14.9948C13.8257 14.9948 13.7732 14.986 13.7032 14.9641C13.6331 14.9423 13.5718 14.9204 13.5236 14.9028C13.5105 14.881 13.5236 14.8503 13.5543 14.8153C13.5893 14.7759 13.62 14.7584 13.6506 14.7584C13.7119 14.7934 13.782 14.824 13.852 14.8547C13.8608 14.8328 13.8827 14.8021 13.9221 14.7671C13.9615 14.7321 13.979 14.6971 13.979 14.6664C13.9308 14.5832 13.8739 14.5394 13.8126 14.5394C13.7557 14.5394 13.6813 14.5832 13.5806 14.6752C13.5193 14.7452 13.4536 14.8109 13.3923 14.8766C13.3354 14.9116 13.3091 14.951 13.3091 14.9904C13.3091 15.0298 13.3398 15.0824 13.4054 15.1393C13.4492 15.1743 13.493 15.205 13.5412 15.2356C13.4492 15.3188 13.3923 15.3801 13.3616 15.4151C13.2697 15.5202 13.1996 15.634 13.1515 15.761C13.1427 15.7873 13.1384 15.8179 13.1296 15.8486C13.1208 15.8792 13.1208 15.9099 13.1208 15.9361C13.1208 15.9799 13.1296 16.0193 13.1427 16.0587C13.1559 16.0981 13.1821 16.1288 13.2172 16.1594C13.4054 16.2295 13.6068 16.2645 13.817 16.2645C14.1322 16.2645 14.4475 16.1944 14.7583 16.0587C15.0692 15.923 15.3669 15.7435 15.6471 15.5289L15.6296 15.5202ZM5.57268 7.96327C5.58144 8.02019 5.57706 8.07273 5.5683 8.12089C5.55954 8.16905 5.53765 8.21721 5.51138 8.26975C5.43257 8.15592 5.33625 8.11651 5.21804 8.14278C5.12172 8.51493 5.02539 8.88709 4.93345 9.25486C4.88967 9.21984 4.81086 9.05346 4.69264 8.76012C4.6007 8.5412 4.45184 8.44926 4.24168 8.47553C4.21979 8.44926 4.21103 8.4011 4.21103 8.33981C4.21103 8.28289 4.21979 8.23472 4.23292 8.19094C4.24606 8.14716 4.26357 8.11213 4.28109 8.08148C4.2986 8.05083 4.32925 8.03332 4.36865 8.03332C4.39054 8.03332 4.42995 8.04208 4.48249 8.05521C4.5613 8.13402 4.63573 8.24786 4.71016 8.39672C4.78459 8.54558 4.86778 8.71195 4.95534 8.89584C4.96848 8.85206 5.00788 8.67693 5.06918 8.36169C5.11296 8.1384 5.17863 7.96765 5.27058 7.85819C5.34939 7.85819 5.41068 7.86257 5.46322 7.87571C5.51576 7.88446 5.55079 7.91511 5.57268 7.96327ZM6.38266 9.95101C6.3345 10.0561 6.28634 10.1612 6.24694 10.2662C6.19002 10.3713 6.12434 10.472 6.04553 10.5727C6.00175 10.5377 5.91856 10.4939 5.79159 10.437C5.58144 10.3407 5.47636 10.2312 5.47636 10.113L5.82224 9.6095C5.82224 9.6095 5.91856 9.6708 6.0937 9.76712C6.21191 9.83718 6.30823 9.89848 6.37828 9.95539L6.38266 9.95101ZM15.7347 11.6629L15.5026 12.2496C15.3144 12.381 14.9291 12.5867 14.3468 12.8582C13.9002 13.0683 13.655 13.1822 13.6112 13.2041C13.4142 13.2873 13.1077 13.4099 12.6874 13.5719C12.3284 13.7032 12.0175 13.8214 11.7504 13.9177C11.444 14.557 10.9886 15.1261 10.3932 15.6253C9.79772 16.1244 9.16287 16.4747 8.49299 16.6717C8.331 16.7067 8.169 16.7242 8.01138 16.7242C7.85377 16.7242 7.68739 16.7023 7.53853 16.6629C7.38967 16.6191 7.26708 16.5491 7.162 16.444C7.07005 16.3389 7.00438 16.212 6.95622 16.0587C6.91243 15.9099 6.88616 15.7479 6.88616 15.5815C6.88616 15.3494 6.92119 15.1218 6.99124 14.8985C6.61471 15.0648 6.20315 15.205 5.76532 15.3188C5.3275 15.4326 4.90718 15.4852 4.5 15.4852C4.16287 15.4852 3.86077 15.4501 3.59807 15.3845C3.331 15.3188 3.0683 15.2006 2.80998 15.0342C2.55166 14.8021 2.35902 14.5789 2.23205 14.3599C2.07881 14.0929 2 13.8083 2 13.4974C2.03503 13.1384 2.1007 12.8013 2.2014 12.4773C2.29772 12.1533 2.43783 11.8249 2.61296 11.4878C2.52977 11.7943 2.4641 12.0351 2.42469 12.2014C2.34151 12.5386 2.29772 12.8013 2.29772 12.9895C2.29772 13.3179 2.38967 13.5937 2.56918 13.8083C2.80123 14.1454 3.09457 14.3906 3.45359 14.5438C3.81261 14.6971 4.20666 14.7759 4.64011 14.7759C4.87215 14.7759 5.10858 14.754 5.35377 14.7146C6.0324 14.5876 6.66287 14.3731 7.24518 14.0754C7.72679 13.8302 8.29159 13.458 8.9352 12.9633C8.9352 12.7093 8.8345 12.2015 8.62872 11.4396C8.5324 11.0675 8.47986 10.7566 8.47986 10.5027C8.44483 10.4458 8.42732 10.3932 8.42732 10.3451C8.42732 10.2663 8.46235 10.1699 8.5324 10.0517C8.64623 9.86782 8.69877 9.77588 8.69877 9.76712C8.7338 9.82404 8.82137 9.9335 8.96147 10.0911C9.17163 10.3451 9.29422 10.5508 9.32925 10.7128C9.30298 10.7347 9.25919 10.7391 9.1979 10.7347C9.1366 10.726 9.07969 10.7216 9.02277 10.7128C8.97461 10.7128 8.9352 10.726 8.90893 10.7566C9.11909 11.2207 9.22417 11.7067 9.22417 12.219C9.22417 12.6831 9.12785 13.0946 8.93082 13.458C8.6944 13.6944 8.41419 13.9265 8.09895 14.1498C7.94571 14.2549 7.64361 14.4431 7.19702 14.719C7.18827 14.7759 7.18389 14.8284 7.17951 14.881C7.17951 14.9335 7.17513 14.9948 7.17513 15.0648C7.17513 15.2531 7.20578 15.4195 7.27145 15.564C7.33275 15.7085 7.44221 15.8179 7.59545 15.8967C7.81436 15.9755 8.02014 16.0106 8.21716 16.0106C8.5324 16.0106 8.87391 15.923 9.24606 15.7479C9.40806 15.6691 9.72329 15.4895 10.1918 15.2006C10.4019 15.0342 10.6165 14.8591 10.831 14.6839C11.0762 14.465 11.2426 14.2592 11.3257 14.0622C11.0455 14.0885 10.7653 14.1191 10.4851 14.1454C10.3187 14.1454 10.1786 14.1279 10.0692 14.0972C9.95972 14.0666 9.85464 13.9965 9.74956 13.8915C9.7014 13.7864 9.67513 13.6726 9.67513 13.5456C9.67513 13.3705 9.73205 13.1734 9.84151 12.9589C9.9028 12.8407 10.021 12.6612 10.1874 12.4247C10.2574 12.3416 10.3669 12.2978 10.5114 12.2978C10.5595 12.2978 10.6077 12.2978 10.6602 12.3065C10.7084 12.3153 10.7566 12.3197 10.8091 12.3284C10.9974 12.4116 11.1681 12.543 11.3257 12.7181C11.479 12.8932 11.5928 13.0859 11.6629 13.296C11.873 13.2741 12.0832 13.2085 12.2933 13.0946C12.0219 12.9282 11.8161 12.7006 11.6848 12.416C11.5534 12.1314 11.4834 11.8249 11.4834 11.4965C11.4834 11.4002 11.4834 11.3302 11.4921 11.2864C11.6891 10.9142 11.9781 10.6296 12.359 10.4239C12.7399 10.2225 13.1515 10.1174 13.5937 10.1174H13.7601C13.8433 10.1305 13.9046 10.1393 13.9396 10.1393C14.1585 10.1831 14.3424 10.2356 14.5 10.3057C14.6576 10.3757 14.8065 10.4808 14.9466 10.6209C14.8284 10.5946 14.6883 10.5727 14.5306 10.5596C14.373 10.5465 14.2154 10.5377 14.0622 10.5377C13.6506 10.5377 13.2653 10.5859 12.9107 10.6778C12.556 10.7741 12.2233 10.923 11.9081 11.1244C11.9081 11.6148 12.1051 12.0132 12.4947 12.324C12.5998 12.381 12.7137 12.4204 12.8363 12.451C12.9588 12.4773 13.0771 12.4948 13.1865 12.4948C13.4799 12.4948 13.9046 12.3547 14.4562 12.0745C15.0079 11.7943 15.4282 11.6542 15.7172 11.6542L15.7347 11.6629ZM7.42469 11.8512C7.38967 11.8599 7.35464 11.9037 7.32399 11.9825C7.29334 12.0613 7.24518 12.1007 7.18389 12.092C7.1007 12.0307 7.05692 11.9475 7.05692 11.8512C7.05692 11.803 7.09194 11.6717 7.162 11.4615C7.18827 11.3783 7.20578 11.3127 7.20578 11.2601C7.1007 11.4834 7.0394 11.6191 7.01751 11.6717C6.9606 11.8205 6.93433 11.9606 6.93433 12.092C6.95622 12.1708 6.98249 12.2321 7.01751 12.2803C7.05254 12.3284 7.1007 12.3547 7.16638 12.3547C7.25832 12.3109 7.32399 12.2409 7.36778 12.1358C7.38091 12.1007 7.4028 12.0044 7.42907 11.8512H7.42469ZM4.77583 10.6121C4.74956 10.6209 4.71891 10.6559 4.69264 10.7216C4.66637 10.7873 4.63573 10.8267 4.60946 10.8442C4.52627 10.7873 4.48249 10.6997 4.48249 10.5815C4.48249 10.5377 4.5 10.4589 4.53065 10.3451C4.5613 10.2312 4.58319 10.1437 4.58757 10.0867C4.50438 10.2137 4.44308 10.3363 4.40368 10.4545C4.36427 10.5727 4.34676 10.7041 4.34676 10.8442C4.36865 10.923 4.40368 10.9887 4.45184 11.0456C4.5 11.1025 4.55692 11.1156 4.61821 11.0894C4.67513 11.0062 4.71016 10.9361 4.72767 10.8792C4.74518 10.8223 4.7627 10.7347 4.77583 10.6165V10.6121ZM3.44046 10.5071C3.37916 10.599 3.31786 10.6866 3.26095 10.7697C3.21278 10.8179 3.14711 10.8354 3.07268 10.8223C2.98074 10.7172 2.92382 10.6165 2.89317 10.5246C2.8669 10.4282 2.84939 10.3232 2.84939 10.205C3.00263 9.68831 3.16025 9.1673 3.32224 8.65066C3.06392 9.04908 2.88003 9.36432 2.77496 9.59637C2.59982 9.98166 2.51226 10.3407 2.51226 10.6778C2.51226 10.8092 2.52539 10.9405 2.55604 11.0675C2.58231 11.1944 2.63485 11.3214 2.7049 11.4571C2.80123 11.5491 2.91068 11.5754 3.0289 11.5403C3.16025 11.4265 3.2697 11.3039 3.34851 11.1638C3.42732 11.0237 3.4711 10.8748 3.4711 10.7216C3.4711 10.6603 3.46235 10.5902 3.44046 10.5114V10.5071ZM5.35377 12.3678C5.31874 12.3328 5.28371 12.3065 5.24431 12.2934C5.2049 12.2803 5.15674 12.2584 5.09107 12.2321C4.98599 12.324 4.90718 12.4773 4.85026 12.6962C4.76708 13.0246 4.71891 13.1953 4.71454 13.2128C4.57443 12.9239 4.43433 12.6349 4.29422 12.3416C4.28546 12.3328 4.25919 12.324 4.21541 12.3109C4.17163 12.2978 4.14098 12.3109 4.12785 12.3416C4.11471 12.3678 4.09282 12.416 4.05779 12.4817C4.02715 12.5473 4.00963 12.6043 4.00963 12.6437C4.00963 12.7006 4.0359 12.7487 4.08406 12.7925C4.24606 12.7794 4.36427 12.8713 4.44308 13.064C4.5613 13.3573 4.63135 13.5193 4.65324 13.5456C4.74956 13.4536 4.81961 13.3048 4.85464 13.0946C4.86778 12.9808 4.89842 12.81 4.93783 12.578C4.95972 12.5211 4.99037 12.4948 5.03415 12.4948C5.09107 12.4948 5.16988 12.5211 5.27496 12.578L5.35814 12.3678H5.35377ZM20.5902 14.5219C20.5289 14.5789 20.4413 14.6051 20.3275 14.6051C20.2443 14.6051 20.1611 14.5876 20.0736 14.5526C19.9597 14.4913 19.859 14.4169 19.7627 14.3337C19.6664 14.2505 19.6051 14.1585 19.5701 14.0622C19.6751 14.0009 19.8021 13.9659 19.9466 13.9659C20.1567 13.9659 20.3275 14.0141 20.4632 14.1148C20.5245 14.1936 20.5683 14.2592 20.5902 14.3205C20.6121 14.3818 20.6121 14.4475 20.5902 14.5263V14.5219ZM12.3503 8.29164V8.23035C12.3503 8.12527 12.2977 8.07273 12.1926 8.07273C12.1576 8.07273 12.1313 8.08586 12.1095 8.11651C12.1445 8.16467 12.1839 8.20407 12.2233 8.22597C12.2671 8.25224 12.3065 8.27413 12.3503 8.29602V8.29164ZM18.8958 15.4458C18.852 15.3888 18.7995 15.3626 18.7294 15.3626C18.6681 15.3626 18.6243 15.3932 18.6025 15.4589C18.6462 15.4501 18.69 15.4589 18.7382 15.4677C18.7951 15.4939 18.8345 15.5114 18.852 15.5202L18.8958 15.4458ZM10.9711 13.4274C10.8748 13.3004 10.7566 13.1997 10.6208 13.1165C10.4851 13.0377 10.3363 12.9939 10.1743 12.9939C10.1305 13.0202 10.0954 13.0465 10.0648 13.0683C10.0342 13.0902 10.021 13.1209 10.0298 13.1647C10.0998 13.2697 10.1918 13.3398 10.31 13.3792C10.4238 13.4186 10.5595 13.4361 10.7128 13.4361C10.831 13.4361 10.9186 13.4361 10.9755 13.4274H10.9711Z" fill="white"/>
</svg>
