<svg width="24" height="24" viewBox="0 0 24 24" fill="none" xmlns="http://www.w3.org/2000/svg">
<path fill-rule="evenodd" clip-rule="evenodd" d="M20.0137 7.8192C20.0412 7.99311 19.9908 8.15787 19.8581 8.30432C19.8124 8.31348 19.7712 8.29517 19.7254 8.24941C19.7117 8.23568 19.6796 8.18991 19.6247 8.11668C19.6247 7.94734 19.643 7.79174 19.6796 7.64528C19.7162 7.49883 19.7757 7.33865 19.8535 7.16016C19.8673 7.2105 19.8535 7.30204 19.8169 7.43476C19.7757 7.56748 19.7574 7.66359 19.7574 7.71851C19.7574 7.82835 19.8078 7.91073 19.913 7.97022L20.0137 7.81462V7.8192ZM21.968 8.81691C21.881 8.83979 21.8215 8.84436 21.7941 8.82606C21.7117 8.70706 21.6522 8.61554 21.6064 8.55147C21.5606 8.48739 21.524 8.43246 21.4966 8.39585L21.3638 8.64757C21.3913 8.99998 21.4508 9.44391 21.5378 9.9748C21.7803 11.4668 21.9039 12.2357 21.913 12.2723C21.9725 12.7254 22 13.1556 22 13.5583C22 13.9977 21.968 14.3913 21.9085 14.7437C21.8444 15.0961 21.73 15.4576 21.5606 15.8329C21.611 15.6956 21.6476 15.5263 21.6705 15.3341C21.6934 15.1418 21.7025 14.9451 21.7025 14.7483C21.7025 14.5789 21.6934 14.3913 21.6796 14.1808C21.6659 13.9702 21.6522 13.778 21.6339 13.5949L20.778 7.74139C20.7277 7.66816 20.7002 7.59495 20.7002 7.52172C20.7002 7.43476 20.7597 7.30204 20.8741 7.1327C20.9931 6.95879 21.0618 6.83979 21.0847 6.76656C21.2174 6.97251 21.3364 7.21965 21.4462 7.51256C21.762 8.31805 21.9313 8.75284 21.9634 8.82149L21.968 8.81691ZM19.2769 7.10524C19.2769 7.16932 19.254 7.23797 19.2128 7.30662C19.167 7.37527 19.1167 7.41646 19.0572 7.43476C18.7277 7.58122 17.9497 7.89242 16.7185 8.36839C16.1465 8.58807 15.6796 8.78029 15.3135 8.94047C15.3227 8.85352 15.3638 8.76199 15.4462 8.66588C15.5286 8.56977 15.611 8.51028 15.6979 8.47824C16.1098 8.35467 16.5584 8.19449 17.0481 7.99311C18.476 7.42103 19.2174 7.12355 19.2769 7.10524ZM19.4325 9.57663C19.373 9.82377 19.2906 10.0114 19.1808 10.135C19.0984 10.2311 19.0114 10.2906 18.9153 10.3226C18.8192 10.3501 18.7414 10.3684 18.6865 10.3684C18.4943 10.3684 18.3616 10.2814 18.2792 10.1029C18.2792 9.94734 18.2975 9.81919 18.3341 9.71393C18.3707 9.60867 18.4394 9.5263 18.5446 9.4668C18.4943 9.58579 18.4668 9.69105 18.4668 9.78716C18.4668 9.81004 18.476 9.85123 18.4897 9.90615C18.5629 10.0068 18.6636 10.0618 18.7963 10.0618C18.8833 10.0618 18.9703 10.0343 19.0526 9.98395C19.135 9.93361 19.1991 9.88327 19.2357 9.82835C19.1991 9.74597 19.1304 9.68189 19.0252 9.62697C18.9245 9.57205 18.8238 9.51714 18.7277 9.4668L18.8924 9.1922C19.0252 9.23796 19.135 9.28372 19.2265 9.33864C19.3181 9.39356 19.3867 9.47137 19.4279 9.57663H19.4325ZM16.1831 7.53545C16.1831 7.53545 16.1465 7.58579 16.1236 7.64528C16.0961 7.70478 16.0686 7.73682 16.032 7.74597C15.9588 7.6819 15.9222 7.60867 15.9222 7.52629C15.9222 7.51713 15.9588 7.41188 16.032 7.20593C16.0549 7.14186 16.0595 7.0732 16.0549 7.00912C15.9542 7.12812 15.8856 7.24712 15.8535 7.37526C15.8215 7.50341 15.8032 7.66817 15.8032 7.86497C15.8124 7.8787 15.8261 7.91988 15.849 7.98395C15.8947 8.05718 15.9497 8.08464 16.0137 8.07091C16.0961 8.02057 16.1465 7.94276 16.1739 7.84208C16.2014 7.74139 16.2059 7.63614 16.1922 7.53545H16.1831ZM17.1076 9.96107L17.0206 10.2357C16.9474 10.1899 16.8696 10.1716 16.7918 10.1716C16.6957 10.1716 16.6453 10.2174 16.6362 10.3135C16.6362 10.4828 16.6178 10.6521 16.5812 10.8306C16.5217 11.0595 16.4805 11.2242 16.4622 11.3341C16.4027 11.2837 16.3066 11.1007 16.1785 10.7849C16.119 10.6384 16.0458 10.5194 15.9588 10.4325C15.9588 10.492 15.9268 10.5194 15.8581 10.5194C15.8215 10.5194 15.7849 10.5148 15.7529 10.5011C15.7208 10.492 15.6979 10.4828 15.6796 10.4828C15.6522 10.4462 15.6339 10.3958 15.6339 10.3272C15.6339 10.2677 15.6568 10.1945 15.6979 10.1075C15.7437 10.0206 15.7757 9.9565 15.7986 9.91988C15.9359 9.96565 16.0458 10.0526 16.1281 10.1853C16.238 10.405 16.3478 10.6247 16.4577 10.8444C16.4943 10.5377 16.5355 10.3135 16.5858 10.1808C16.6316 10.0435 16.7002 9.92446 16.7872 9.82378C16.8238 9.81463 16.865 9.82377 16.9153 9.83293C16.9611 9.84666 17.0252 9.88785 17.1076 9.95192V9.96107ZM21.3364 16.0663C21.3089 16.0572 21.2632 16.0709 21.1991 16.103C21.135 16.135 21.0801 16.1579 21.0252 16.1762C20.9703 16.1899 20.9062 16.1991 20.833 16.1991C20.7368 16.1991 20.6545 16.1807 20.5812 16.1487C20.508 16.1167 20.4485 16.0618 20.4073 15.9885C20.4714 15.8924 20.5584 15.8421 20.659 15.8329C20.6957 15.8421 20.7277 15.8695 20.7597 15.9153C20.7872 15.9611 20.8146 15.9885 20.8375 15.9885C20.8741 15.9382 20.9108 15.8878 20.9474 15.8421C20.984 15.7963 21.0023 15.7505 21.0023 15.7048C20.9657 15.6453 20.9291 15.6041 20.8879 15.5766C20.8467 15.5492 20.7963 15.5446 20.7277 15.5583C20.595 15.6407 20.476 15.7368 20.3707 15.8558C20.2654 15.9748 20.1922 16.0938 20.1556 16.2174C20.1693 16.2677 20.2151 16.3135 20.2929 16.3501C20.3707 16.3867 20.4165 16.4142 20.4302 16.437C20.357 16.5103 20.3112 16.5606 20.2883 16.5926C20.238 16.6659 20.2151 16.7299 20.2243 16.7803C20.2975 16.7208 20.5034 16.6201 20.8375 16.4737C21.0938 16.3638 21.2632 16.2265 21.341 16.0663H21.3364ZM12.8238 7.21508L12.746 7.46679C12.7185 7.47594 12.6728 7.46679 12.6133 7.44391C12.5538 7.42103 12.5172 7.41187 12.5034 7.41187C12.4531 7.41187 12.4211 7.44391 12.4165 7.51256C12.3341 7.87869 12.2563 8.24482 12.1739 8.61095C12.1007 8.56061 12.0092 8.40958 11.8993 8.15329C11.7895 7.90157 11.6567 7.77343 11.5057 7.77343C11.46 7.77343 11.4233 7.77343 11.3959 7.78258C11.3089 7.74597 11.2632 7.68647 11.2632 7.60866C11.2632 7.5629 11.2815 7.49425 11.3227 7.39814C11.3638 7.30203 11.3867 7.24253 11.3959 7.22423C11.5881 7.19677 11.7483 7.32491 11.8856 7.60866C12.0229 7.89242 12.1281 8.03887 12.2105 8.03887C12.2471 7.79631 12.2746 7.60866 12.2975 7.48052C12.3478 7.23338 12.4394 7.10524 12.5721 7.10524C12.6362 7.10524 12.7231 7.14185 12.8238 7.21508ZM21.3913 16.6155C21.3272 16.7254 21.2494 16.8123 21.1625 16.881C21.0755 16.9451 20.9565 17.0091 20.8101 17.0732C20.6636 17.1373 20.5538 17.183 20.4805 17.2105C20.3433 17.27 20.2334 17.3249 20.151 17.3753C20.2105 17.2746 20.2883 17.1785 20.3799 17.0915C20.476 17.0045 20.5767 16.9359 20.6819 16.8901C20.7872 16.8444 20.9062 16.794 21.0343 16.7483C21.1625 16.7025 21.2815 16.6567 21.3913 16.6201V16.6155ZM14.8558 8.5652L14.4256 8.10295C14.4256 8.45535 14.4577 8.85809 14.5263 9.31118C14.627 10.0068 14.7323 10.6979 14.833 11.389C14.8696 11.6178 14.897 11.865 14.9199 12.1396C14.9428 12.4142 14.9519 12.6842 14.9519 12.945C14.9519 13.3981 14.9199 13.81 14.8604 14.1808C14.7963 14.5515 14.6865 14.913 14.5263 15.2746C14.6087 14.7986 14.6453 14.286 14.6453 13.7368C14.6453 13.1281 14.595 12.4599 14.4897 11.7277C14.4531 11.4485 14.3387 10.7803 14.151 9.71851C13.9954 8.84895 13.8947 8.18076 13.8444 7.71851C13.7574 7.6224 13.7117 7.51256 13.7117 7.38899C13.7117 7.29288 13.7391 7.19219 13.7895 7.08235C13.8764 6.91301 13.9634 6.74368 14.0549 6.56519C14.2288 6.88098 14.4073 7.19219 14.5812 7.49883C14.7643 7.87411 14.8558 8.22652 14.8558 8.5652ZM19.0618 16.2997C19.0343 16.4004 18.9611 16.5194 18.8513 16.6521C18.7185 16.8123 18.6362 16.9267 18.5995 16.9908C18.4394 16.9084 18.2792 16.8306 18.1144 16.7483C17.9222 16.6293 17.8307 16.5011 17.8307 16.3638C17.9313 16.2036 18.0137 16.0801 18.0732 15.9885C18.1327 15.9016 18.1968 15.8329 18.27 15.778C18.4531 15.8787 18.5904 15.9519 18.6773 15.9977C18.8467 16.0938 18.9748 16.1899 19.0618 16.2952V16.2997ZM9.84439 8.1716C9.86728 8.20821 9.87643 8.24482 9.87643 8.28143C9.87643 8.33178 9.85355 8.40044 9.81236 8.47824C9.76659 8.56062 9.73913 8.61553 9.7254 8.65214C9.69794 8.68875 9.65217 8.70707 9.59268 8.70707C9.54233 8.70707 9.49199 8.68875 9.43707 8.65214C9.33638 8.49196 9.28146 8.30433 9.28146 8.0938C9.28146 7.93362 9.30892 7.76885 9.36384 7.59951C9.41876 7.43018 9.49199 7.27457 9.5881 7.12812C9.55149 7.28373 9.52403 7.40272 9.50114 7.48968C9.45538 7.67275 9.43707 7.81462 9.43707 7.91989C9.43707 8.10295 9.48741 8.25855 9.59268 8.38212C9.65675 8.405 9.70709 8.3867 9.73913 8.33178C9.77117 8.27686 9.80778 8.22194 9.84439 8.1716ZM19.9405 12.4462C19.8535 12.4187 19.7574 12.4004 19.6567 12.4004C19.4462 12.4004 19.1213 12.5149 18.6911 12.7391C18.2609 12.9679 17.9176 13.0778 17.6705 13.0778C17.5744 13.0778 17.4783 13.0686 17.3867 13.0549C17.2906 13.0412 17.1991 12.9542 17.1121 12.8032C17.0526 12.6796 16.9931 12.5515 16.9382 12.4187L16.6407 13.1785C16.6407 13.3753 16.7094 13.6544 16.8513 14.0114C16.9474 14.2586 17.0069 14.4187 17.0252 14.4828C16.4394 14.8993 15.7895 15.2929 15.0801 15.659C14.4668 15.9794 13.7895 16.2952 13.0481 16.6018C12.6682 16.762 11.9725 17.0412 10.9611 17.4348L12.2471 17.1602C12.2746 17.1602 12.3158 17.1602 12.3661 17.1693H12.5767C13.1259 17.1693 13.7208 17.032 14.357 16.7528C14.897 16.4828 15.4416 16.2128 15.9817 15.9382C16.3844 15.778 16.7185 15.4897 16.9794 15.0824C17.1854 14.762 17.3547 14.3592 17.4828 13.8741C18.0961 13.627 18.7185 13.3753 19.341 13.1281C19.3684 13.1647 19.3867 13.2105 19.3867 13.27C19.3867 13.2929 19.341 13.4348 19.2449 13.7002C19.2082 13.8009 19.1945 13.8924 19.1991 13.9656C19.405 13.7734 19.5698 13.5446 19.6934 13.2746C19.7895 13.064 19.8719 12.7849 19.9451 12.4416L19.9405 12.4462ZM12.032 14.4691C12.0183 14.5698 11.8993 14.8215 11.6796 15.2151C11.5789 15.3981 11.524 15.5492 11.524 15.6636C11.524 15.7368 11.5332 15.8009 11.5515 15.8512C11.5698 15.9016 11.6064 15.9611 11.6659 16.0251C11.7117 16.0114 11.7483 15.9702 11.7803 15.9061C11.8124 15.8421 11.8444 15.7963 11.8719 15.7734C11.8993 15.8695 11.8947 15.9611 11.849 16.0526C11.8032 16.1441 11.7346 16.2357 11.6384 16.3226C11.5744 16.3364 11.5149 16.3226 11.4691 16.286C11.4233 16.2448 11.373 16.1579 11.3227 16.0297C11.373 15.7277 11.46 15.4531 11.5744 15.2014C11.6934 14.9496 11.8398 14.7071 12.0229 14.4691H12.032ZM7.27689 11.1418C7.29977 11.2288 7.29519 11.3295 7.26773 11.4439C7.24027 11.5583 7.18535 11.659 7.10297 11.746C7.00687 11.7551 6.92906 11.7231 6.87414 11.659C6.81465 11.5949 6.77803 11.5126 6.7643 11.4164C6.7643 11.2197 6.78261 11.0503 6.81922 10.913C6.85584 10.7757 6.92449 10.6522 7.02975 10.5515C7.01602 10.6155 6.99313 10.7071 6.96567 10.8261C6.93822 10.945 6.91991 11.032 6.91991 11.0915C6.91991 11.2471 6.97025 11.3615 7.07551 11.4439C7.13501 11.4348 7.1762 11.389 7.20366 11.3066C7.23112 11.2242 7.25858 11.1693 7.28604 11.1464L7.27689 11.1418ZM6.50801 7.1327L6.43021 7.39814C6.34325 7.35237 6.26087 7.33407 6.18764 7.33407C6.10526 7.33407 6.05034 7.37984 6.02288 7.47595C6.03204 7.50341 6.03204 7.55375 6.03204 7.61783C6.03204 7.70021 6.01831 7.80088 5.98627 7.92445C5.9222 8.20821 5.88558 8.38212 5.88558 8.44162C5.88558 8.53773 5.90389 8.61096 5.94508 8.66588C5.98627 8.7208 6.06865 8.76199 6.19222 8.79403C6.20137 8.80776 6.25172 8.87641 6.34783 8.99082C6.4119 9.0732 6.44851 9.14185 6.44851 9.20135C6.44851 9.26084 6.42563 9.31118 6.38444 9.35695C6.16476 9.35695 5.97254 9.37984 5.80778 9.43018C5.64302 9.47594 5.49199 9.55832 5.35011 9.66816C5.35011 9.93361 5.38673 10.2357 5.45538 10.5835C5.52403 10.9313 5.59268 11.2608 5.65675 11.5766C5.68421 11.7322 5.70709 11.8787 5.72082 12.0252C5.73455 12.1716 5.74371 12.3318 5.74371 12.5103C5.74371 12.6888 5.73455 12.8535 5.71167 13.0091C5.68879 13.1647 5.6476 13.3341 5.59268 13.508C5.63844 13.3112 5.65675 13.1144 5.65675 12.913C5.65675 12.7117 5.6476 12.5377 5.62471 12.4096C5.60183 12.2769 5.52403 11.9245 5.39588 11.3569C5.33181 11.0869 5.28146 10.8627 5.254 10.6888C5.22654 10.5148 5.20824 10.3272 5.20824 10.1304C5.20824 9.95649 5.21739 9.81462 5.2357 9.71393C5.254 9.61324 5.29062 9.48509 5.35011 9.33864C5.41419 9.26541 5.51945 9.2105 5.66133 9.17847C5.8032 9.14643 5.89931 9.11439 5.9405 9.08693C5.89474 8.99997 5.81693 8.9542 5.69794 8.9542C5.63844 8.9542 5.5881 8.97252 5.53776 9.00913C5.49199 9.04575 5.44622 9.07777 5.40961 9.10981C5.38673 9.05946 5.3913 8.99997 5.41876 8.94047C5.44622 8.8764 5.47826 8.81691 5.50572 8.75741C5.51487 8.74826 5.56064 8.7208 5.64302 8.67503C5.7254 8.62927 5.75744 8.57434 5.73455 8.51485C5.68879 8.45535 5.63387 8.33178 5.56064 8.13956C5.44165 7.84665 5.30892 7.69105 5.15332 7.67732C4.95652 7.63156 4.85584 7.54002 4.85584 7.40272C4.85584 7.38899 4.86957 7.34322 4.9016 7.26999L5.03432 7.01828C5.22654 7.10066 5.38215 7.26542 5.50572 7.51256C5.60183 7.71851 5.69794 7.92445 5.8032 8.12583C5.83982 7.93361 5.88558 7.73224 5.93593 7.51714C5.98627 7.30204 6.07323 7.1327 6.18764 7.01828C6.31121 6.9954 6.41648 7.03658 6.49428 7.13727L6.50801 7.1327ZM13.6934 12.6796C13.6567 12.9634 13.6201 13.2471 13.5835 13.5263C13.5011 13.8329 13.3272 14.0435 13.0572 14.1533C12.9565 14.167 12.8741 14.1762 12.8146 14.1762C12.595 14.1762 12.2883 14.103 11.8902 13.9565C11.4966 13.81 11.2037 13.7277 11.0206 13.7048C10.7551 13.8283 10.5263 13.929 10.3295 14.0023C10.0275 14.1121 9.77117 14.167 9.56064 14.167C9.24485 14.167 8.98398 14.0663 8.76888 13.8604C8.64531 13.7963 8.52174 13.6132 8.39359 13.3158C8.27002 13.0183 8.12815 12.8718 7.97712 12.8718C7.91762 12.8718 7.83982 12.8901 7.74828 12.9268C7.65217 12.9908 7.57895 13.0503 7.5286 13.1007C7.40503 13.2242 7.34096 13.3615 7.34096 13.508C7.34096 13.5904 7.35927 13.6636 7.39588 13.7277C7.49657 14.0114 7.83066 14.2631 8.38902 14.4782C8.94737 14.6933 9.26773 14.8856 9.34096 15.0549L9.13043 15.8695C8.89703 15.7139 8.64989 15.5949 8.39359 15.5034C8.1373 15.4119 7.87185 15.3661 7.60183 15.3661C7.46453 15.3661 7.30892 15.3844 7.13959 15.421C6.80092 15.4943 6.4714 15.6133 6.14188 15.7734C5.9222 15.8833 5.61098 16.0618 5.20824 16.3135C4.71854 16.6338 4.41648 16.8306 4.30664 16.8947C3.97712 17.1007 3.65675 17.2654 3.35011 17.389C3.10297 17.4119 2.87872 17.3615 2.68192 17.2425C2.48513 17.1235 2.31579 16.9588 2.17849 16.7528C2.12815 16.6064 2.08696 16.4645 2.05034 16.3318C2.01831 16.1945 2 16.0618 2 15.929C2 15.8192 2.00458 15.7414 2.01831 15.691C2.02746 15.6453 2.05492 15.5812 2.10069 15.4988C2.23799 15.1464 2.4897 14.794 2.84668 14.4325C3.06636 14.2128 3.40503 13.929 3.85812 13.5858C3.73455 13.7826 3.49657 14.0526 3.14416 14.3867C2.88787 14.6338 2.73227 14.794 2.67277 14.8581C2.5492 15.0046 2.45309 15.1464 2.38902 15.2883C2.32494 15.4256 2.28833 15.5721 2.28833 15.7185C2.28833 15.8192 2.30664 15.929 2.34783 16.0389C2.38902 16.1487 2.44851 16.2586 2.53547 16.3684C2.61785 16.4782 2.72311 16.5606 2.84668 16.6201C2.97025 16.6796 3.11213 16.7071 3.26316 16.7071C3.35011 16.7071 3.43707 16.6979 3.5286 16.675C3.83066 16.5286 4.20137 16.3135 4.64989 16.0251C4.95195 15.8283 5.17162 15.6819 5.30892 15.5858C5.66133 15.3524 5.95881 15.1693 6.1968 15.0366C6.51716 14.8535 6.83295 14.7162 7.13959 14.6201C7.06636 14.4279 7.02975 14.2265 7.02975 14.016C7.02975 13.7322 7.09382 13.4348 7.21739 13.1281C7.30435 12.9084 7.4508 12.6338 7.65675 12.3043C7.79405 12.167 7.90389 12.0755 7.98627 12.0343C8.06865 11.9931 8.15561 11.9748 8.25172 11.9748C8.30206 11.9748 8.35698 11.984 8.41648 12.0068C8.66362 12.492 8.81465 12.7666 8.86499 12.8398C9.09382 13.1464 9.35011 13.302 9.64302 13.302C9.67048 13.2883 9.72082 13.2792 9.7849 13.2792C9.9405 13.2792 10.032 13.2608 10.0686 13.2242C9.94508 13.032 9.88101 12.8306 9.88101 12.6201C9.88101 12.4279 9.93135 12.1945 10.0366 11.9153C10.119 11.6956 10.2014 11.4714 10.2883 11.2471C10.3478 11.1464 10.4302 11.0457 10.5355 10.9542C10.6407 10.8627 10.746 10.7711 10.8467 10.6842C10.8467 10.6567 10.8284 10.6155 10.7963 10.5698C10.7643 10.524 10.7277 10.4782 10.6911 10.4416C10.6911 10.3318 10.7048 10.2265 10.7368 10.1213C10.746 10.0938 10.8146 9.91988 10.9474 9.60409C11.1304 9.66817 11.2723 9.73224 11.3776 9.79174C11.4783 9.85123 11.5881 9.94277 11.6979 10.0663C11.6476 10.1487 11.6201 10.2219 11.6201 10.2952C11.6201 10.3181 11.6293 10.3501 11.643 10.3959C11.7803 10.5423 12.0961 10.7711 12.5858 11.0778C13.3272 11.54 13.6934 12.0251 13.6934 12.5377C13.6842 12.5972 13.6842 12.643 13.6842 12.6796H13.6934ZM4.59954 12.2723C4.53547 12.2723 4.48055 12.3272 4.43936 12.4325C4.39817 12.5377 4.35698 12.6018 4.32037 12.6247C4.27918 12.6476 4.24256 12.6567 4.20595 12.6567C4.12357 12.6567 4.06407 12.6201 4.01831 12.5469C3.9222 12.3913 3.85355 12.2357 3.81693 12.0801C3.77574 11.9245 3.75744 11.7597 3.75744 11.5904C3.75744 11.3341 3.82151 11.032 3.94508 10.6796C4.02746 10.4599 4.24714 9.98396 4.60412 9.2517C4.22883 9.64071 3.93593 10.0984 3.71625 10.6293C3.49657 11.1602 3.38673 11.6911 3.38673 12.2265C3.38673 12.5469 3.42334 12.8444 3.49657 13.1144C3.53318 13.1647 3.59725 13.2563 3.69336 13.389C3.78032 13.4897 3.87643 13.5446 3.97712 13.5446C4.02746 13.5446 4.08238 13.5309 4.14188 13.4988C4.27918 13.3387 4.38444 13.1556 4.45309 12.9542C4.52174 12.7528 4.57208 12.524 4.59954 12.2677V12.2723ZM10.2792 16.4782C10.1556 16.3684 10.0412 16.286 9.9405 16.2311C9.83982 16.1762 9.69794 16.1167 9.52403 16.048L9.02975 16.6613C8.80091 16.524 8.57666 16.3821 8.34783 16.2448L7.88558 16.8581C7.8627 16.9588 7.91762 17.0457 8.05034 17.1098C8.24256 17.2059 8.3524 17.2654 8.37986 17.2975C8.49886 17.3112 8.60412 17.238 8.70023 17.0778C8.8238 16.8672 8.91533 16.7391 8.97483 16.6933C9.22197 16.8398 9.47826 16.9862 9.73455 17.1327L10.2838 16.4737L10.2792 16.4782ZM13.3547 13.0732C13.2174 13.2059 13.0526 13.27 12.8604 13.27C12.714 13.27 12.5217 13.2196 12.2792 13.1144C12.1556 13.064 11.9771 12.9862 11.7529 12.8856C11.7757 12.8352 11.8535 12.6064 11.9817 12.2036C12.032 12.0434 12.0824 11.9153 12.1373 11.8192C12.5034 12.0251 12.7551 12.1899 12.897 12.3135C13.1533 12.5423 13.3089 12.794 13.3593 13.0732H13.3547ZM11.6751 12.3684C11.6384 12.405 11.5744 12.4737 11.4783 12.5789C11.341 12.7162 11.2128 12.7894 11.103 12.7894C11.0526 12.7894 11.0023 12.7757 10.9474 12.7437C10.7872 12.6933 10.6407 12.611 10.508 12.5011C10.3753 12.3913 10.2929 12.2631 10.2563 12.1167C10.2792 11.9565 10.3524 11.8146 10.476 11.6865C10.5995 11.5629 10.7414 11.4759 10.9062 11.4348C10.9336 11.4348 10.9748 11.4348 11.0252 11.4256C11.222 11.4256 11.3684 11.4897 11.4645 11.6132C11.524 11.7093 11.5744 11.81 11.6201 11.9153C11.6659 12.0206 11.6842 12.1213 11.6842 12.2174V12.2814C11.6842 12.3089 11.6842 12.3409 11.6751 12.3684Z" fill="white"/>
</svg>
