<svg width="24" height="24" viewBox="0 0 24 24" fill="none" xmlns="http://www.w3.org/2000/svg">
<path fill-rule="evenodd" clip-rule="evenodd" d="M18.0031 4.92092C17.8279 5.29638 17.661 5.66347 17.5025 6.02224L16.3177 5.66347C16.3845 5.26299 16.568 4.87086 16.8768 4.47872C17.319 4.52043 17.6944 4.66227 17.9948 4.92092H18.0031ZM16.785 3.76116C16.8684 3.6527 16.9018 3.56092 16.9018 3.47749C16.9018 3.32731 16.835 3.20216 16.7015 3.0937C16.7516 3.02695 16.785 2.91848 16.785 2.77664C16.785 2.65983 16.7599 2.54302 16.7182 2.43456C16.6682 2.32609 16.6265 2.21762 16.5847 2.1175C16.518 2.00904 16.4179 1.97567 16.2844 2.01738C16.1342 2.03407 16.0007 2.1175 15.8672 2.27603C15.7838 2.36781 15.7003 2.50131 15.6086 2.67652L15.5668 2.86008C15.5668 2.99358 15.6753 3.12707 15.9006 3.25223C16.1175 3.37738 16.2343 3.45247 16.251 3.46081C16.0674 3.8613 15.6419 4.32853 14.9911 4.86251C14.574 5.19625 14.2903 5.44654 14.1318 5.60506C14.3987 5.42151 14.8243 5.12949 15.4166 4.74569C15.8839 4.38692 16.2176 3.99479 16.4179 3.58596L16.8017 3.76952L16.785 3.76116ZM13.4392 3.67772C13.4893 3.78619 13.4643 3.92803 13.3558 4.0949C13.3058 4.17833 13.2473 4.25343 13.1973 4.33687C13.0471 4.38693 12.9053 4.437 12.7551 4.47872C12.6216 4.3035 12.5548 4.12827 12.5548 3.9614C12.5548 3.76116 12.6132 3.54424 12.7384 3.31896C12.8552 3.09369 12.972 2.86841 13.0805 2.65982C12.9887 2.99356 12.8969 3.32731 12.7968 3.66105C12.7968 3.81957 12.8552 3.96141 12.9804 4.07822C13.0721 4.07822 13.1556 4.0365 13.2307 3.94472C13.3058 3.86129 13.3725 3.7695 13.4392 3.67772ZM10.0518 2.93517C10.0351 3.06867 10.0184 3.17713 9.98505 3.25223C9.95168 3.33566 9.88493 3.35233 9.79315 3.31061C9.75144 3.1938 9.62628 3.14376 9.40935 3.16879C9.38432 3.23553 9.32592 3.54424 9.25083 4.10325C9.16739 4.65392 9.0339 5.03771 8.83365 5.23795C8.79194 5.18789 8.6501 4.8625 8.39145 4.27846C8.28299 4.02815 8.17452 3.82791 8.04937 3.67772C8.00765 3.67772 7.98262 3.7111 7.98262 3.78619C7.98262 3.86129 7.96593 3.91134 7.94925 3.93637C7.86581 3.89465 7.81575 3.86964 7.79072 3.85296C7.68226 3.78621 7.61551 3.71111 7.59048 3.63602C7.59048 3.43577 7.65722 3.21885 7.79072 2.99358C8.10777 3.07701 8.34139 3.29394 8.49157 3.64437C8.64175 3.9948 8.78359 4.33687 8.93378 4.65392C8.97549 4.56214 9.0339 4.26177 9.10065 3.76116C9.17574 3.26056 9.30089 2.89345 9.49279 2.66817C9.62628 2.6932 9.73475 2.71822 9.82653 2.73491C9.90996 2.7516 9.9934 2.81835 10.0601 2.92682L10.0518 2.93517ZM5.30437 3.93637C5.32105 4.05318 5.30437 4.15331 5.27099 4.23675C5.23762 4.32018 5.17087 4.45368 5.06241 4.65392C4.90388 4.73736 4.77038 4.74569 4.66192 4.69563C4.50339 4.5371 4.41996 4.34522 4.41996 4.1116C4.41996 3.92805 4.48671 3.70276 4.6202 3.45246C4.7537 3.20216 4.87885 2.96018 5.004 2.73491C5.04572 2.66816 5.08744 2.64315 5.14584 2.65149C5.12081 2.73493 5.02903 2.90179 4.86216 3.16043C4.70364 3.41908 4.6202 3.62768 4.6202 3.76952C4.6202 3.94473 4.67861 4.08657 4.80376 4.21172C4.85382 4.32018 4.9456 4.32852 5.06241 4.25343C5.14584 4.14496 5.22093 4.03649 5.30437 3.93637ZM19.4799 8.42516C19.4549 8.47522 19.3798 8.52529 19.2463 8.55866C19.1212 8.59203 19.0294 8.64209 18.9793 8.70884C19.2296 9.28453 19.3965 9.73509 19.4716 10.0688C19.5467 10.4026 19.58 10.7363 19.58 11.0701C19.58 11.604 19.4382 12.0796 19.1629 12.4884C18.7791 12.7971 18.5288 12.989 18.4203 13.0725C18.1283 13.2894 17.8529 13.4396 17.6026 13.5314C17.3523 14.7829 16.5847 15.9677 15.3165 17.0773C14.332 17.9451 13.1139 18.696 11.6704 19.3384C11.4952 19.3885 11.295 19.4218 11.0697 19.4218C10.6275 19.4218 10.2437 19.3051 9.90996 19.0798C9.64297 18.8545 9.44273 18.6626 9.30923 18.4957C9.10899 18.2538 8.99218 18.0118 8.96715 17.7782C8.96715 17.0022 9.07562 16.2764 9.2842 15.6089C9.50113 14.9331 9.81818 14.3741 10.2437 13.9152C10.202 14.0737 10.0351 14.4992 9.74309 15.175C9.51782 15.709 9.40101 16.1512 9.40101 16.4933C9.40101 16.6685 9.43438 16.8688 9.50113 17.094C9.68469 17.336 9.88493 17.5446 10.0935 17.7114C10.3021 17.8867 10.5274 17.9951 10.786 18.0535C11.5703 18.0535 12.3463 17.8616 13.1055 17.4695C13.7062 17.1608 14.3737 16.6852 15.1079 16.0511C15.2832 15.9009 15.9006 15.3252 16.9685 14.3073L16.8851 13.8651C16.5013 13.9736 16.1843 14.057 15.9339 14.1154C15.6836 14.1738 15.4333 14.2072 15.183 14.2072C14.9411 14.2072 14.7158 14.1738 14.4989 14.0987C14.2819 14.0236 14.09 13.9068 13.9148 13.7483C13.798 13.5481 13.7313 13.3395 13.7313 13.1309C13.7313 12.8806 13.798 12.5969 13.9315 12.2798C14.065 11.9628 14.1985 11.6624 14.332 11.3704C14.5072 11.1702 14.6324 11.045 14.7158 10.9866C14.891 10.8531 15.0662 10.7947 15.2331 10.8031C15.6753 10.8531 16.0925 11.0367 16.4846 11.3537C16.8768 11.6708 17.1688 12.0295 17.3523 12.4467C17.7361 12.2632 18.0282 12.1297 18.2117 12.0462C18.5455 11.8877 18.8124 11.7041 19.0127 11.5039C18.6789 10.5194 18.3452 9.52651 18.0115 8.54198C18.0115 8.34174 18.0448 8.14982 18.1116 7.97461C18.1783 7.79105 18.2785 7.59082 18.412 7.36555C18.5872 7.48236 18.7707 7.64922 18.971 7.84946C19.1712 8.0497 19.3297 8.24161 19.4549 8.43351L19.4799 8.42516ZM13.5143 14.8163C13.1806 15.125 12.8636 15.3586 12.5548 15.5255C12.2461 15.6923 11.9207 15.7758 11.5703 15.7758C11.5036 15.7758 11.3868 15.7591 11.2282 15.734C10.9362 15.6006 10.786 15.4754 10.786 15.3503C10.786 15.2585 10.9696 15.0916 11.3284 14.8496C11.6871 14.6077 11.8707 14.4074 11.8707 14.2489C11.7622 14.1822 11.6621 14.1154 11.5703 14.0487C11.3534 13.9319 11.1531 13.8985 10.9696 13.9485C10.7527 14.0153 10.6108 14.1655 10.5274 14.3907C10.6859 14.3407 10.8027 14.3073 10.8695 14.3073C11.053 14.3073 11.2199 14.3741 11.3534 14.5076C11.1949 14.591 11.0447 14.6911 10.9028 14.8163C10.761 14.9414 10.6692 15.0749 10.6108 15.2084C10.5274 15.3252 10.494 15.4504 10.494 15.5672C10.494 15.684 10.5441 15.8091 10.6442 15.9343C10.7443 16.0594 10.8528 16.1345 10.9779 16.1679C11.1031 16.2013 11.3033 16.2096 11.5953 16.2096C12.0125 16.1012 12.3963 15.9259 12.7634 15.6673C13.1305 15.417 13.3808 15.125 13.5143 14.8079V14.8163ZM16.0341 20.4064C15.4083 20.4064 14.599 20.4481 13.6145 20.5232C11.4785 20.6984 10.1352 20.7818 9.59291 20.7818C8.57501 20.6317 7.72397 20.373 7.03146 19.9975C6.16374 19.5303 5.58805 18.8795 5.31271 18.0535C5.22928 17.7365 5.1959 17.4111 5.1959 17.094C5.1959 16.5183 5.31271 15.9677 5.53798 15.4337C5.76326 14.8997 6.08031 14.3824 6.4808 13.8734C6.61429 13.6982 6.76447 13.5147 6.923 13.3144C7.08153 13.1142 7.24005 13.0141 7.40692 13.0141C7.47367 13.0141 7.54876 13.0308 7.62385 13.0725L7.68226 12.7721C8.75022 12.0212 9.61794 11.4538 10.2854 11.0533C11.2449 10.4776 12.171 10.0271 13.0471 9.69338C13.2223 9.58492 13.3558 9.44308 13.4476 9.25118C13.4893 9.18443 13.5727 8.88405 13.7062 8.35007L13.5227 8.19154C12.6299 8.08308 11.9291 8.00798 11.4201 7.97461C10.9112 7.93289 10.3355 7.91622 9.70138 7.91622C8.91709 7.91622 8.16618 7.96628 7.46533 8.0664C6.76447 8.16652 6.10534 8.33339 5.49627 8.55866C5.17921 8.77559 4.9456 9.0843 4.79542 9.50147C4.77039 9.59325 4.67861 9.97705 4.53677 10.6445C4.65358 11.0951 4.98732 11.4872 5.5213 11.8043C5.81332 11.9795 6.25552 12.2381 6.83957 12.5886C6.17209 13.4313 5.66314 14.2572 5.32105 15.0749C4.90388 16.0344 4.70364 16.9689 4.70364 17.8783C4.70364 18.2955 4.7537 18.746 4.86216 19.2383C5.10412 20.0393 5.63811 20.6817 6.46411 21.1573C7.08153 21.5161 7.87416 21.7998 8.85034 22C10.202 22 11.4869 21.8748 12.7217 21.6162C13.9565 21.3659 15.0662 20.9654 16.0591 20.4147L16.0341 20.4064ZM16.4179 3.00191L15.9173 2.65982C15.9339 2.54301 15.984 2.47626 16.0758 2.47626C16.1676 2.47626 16.251 2.51799 16.3177 2.59308C16.3845 2.67652 16.4179 2.75162 16.4179 2.83505V2.99358V3.00191ZM16.1759 12.7721C15.9339 12.5719 15.7921 12.4551 15.7337 12.4133C15.4417 12.2131 15.1497 12.113 14.8493 12.113C14.7575 12.113 14.6908 12.113 14.6491 12.1297C14.4989 12.2381 14.4154 12.3049 14.3904 12.3299C14.3654 12.3549 14.3654 12.4133 14.3904 12.4884C14.5072 12.6219 14.6657 12.7221 14.8576 12.7888C15.0495 12.8556 15.2498 12.8889 15.45 12.8889C15.7003 12.8889 15.9423 12.8472 16.1676 12.7721H16.1759ZM11.6871 9.25118C11.4368 9.25118 11.028 9.25116 10.469 9.23448C9.90996 9.21779 9.48444 9.2178 9.18408 9.2178C8.38311 9.2178 7.64888 9.26785 6.98975 9.35962C6.33061 9.4514 5.72154 9.62664 5.17922 9.87694C5.33774 10.1272 5.83001 10.5194 6.63932 11.0367C7.01478 11.2786 7.29846 11.5289 7.4987 11.7959C7.79072 11.5957 8.30802 11.2703 9.04224 10.8114C9.89327 10.2774 10.7777 9.76013 11.6871 9.25118Z" fill="white"/>
</svg>
