<svg width="24" height="24" viewBox="0 0 24 24" fill="none" xmlns="http://www.w3.org/2000/svg">
<path fill-rule="evenodd" clip-rule="evenodd" d="M22 9.51741C21.9467 9.49283 21.8853 9.40681 21.8116 9.26342C21.7665 9.17739 21.7214 9.12003 21.6723 9.08726L21.6149 9.22655C21.6149 9.55429 21.6559 10.0623 21.7378 10.7505C21.8197 11.4388 21.8607 11.9386 21.8607 12.2458C21.8607 12.9095 21.8402 13.4011 21.8034 13.7288C21.746 14.245 21.6149 14.6956 21.4183 15.0766C21.4715 14.9005 21.5084 14.7161 21.533 14.5277C21.5576 14.3392 21.5658 14.1262 21.5658 13.8886C21.5658 13.6264 21.5412 13.2372 21.4961 12.7169C21.451 12.2007 21.4265 11.8116 21.4265 11.5576C21.4265 11.2175 21.3978 10.7874 21.3363 10.2712C21.2052 9.11594 21.1397 8.41131 21.1397 8.14912C21.1643 8.12454 21.2093 8.0508 21.2667 7.9279C21.324 7.805 21.3855 7.73126 21.4429 7.69849C21.5739 7.96887 21.6887 8.25973 21.7829 8.57518C21.8771 8.89062 21.9467 9.20607 21.9959 9.5297L22 9.51741ZM17.4281 8.11226C17.3953 8.26383 17.3216 8.39083 17.2028 8.49734C17.084 8.60386 16.9488 8.6653 16.8013 8.68579C16.8013 8.61205 16.8669 8.5465 16.998 8.48095C17.129 8.41541 17.211 8.36215 17.2438 8.32528C17.17 8.27202 17.0717 8.24745 16.9488 8.24745C16.9078 8.24745 16.8587 8.25563 16.7931 8.26792C16.7521 8.28841 16.7235 8.3007 16.703 8.31299C16.6825 8.32528 16.662 8.34167 16.6456 8.36625C16.6252 8.33347 16.6333 8.29251 16.6661 8.24745C16.6989 8.20238 16.7317 8.15731 16.7644 8.10815C16.8382 8.04261 16.9406 8.00984 17.0799 8.00984C17.2315 8.00984 17.3503 8.04671 17.4322 8.11635L17.4281 8.11226ZM17.8705 9.39042C17.8255 9.48054 17.7517 9.56248 17.6534 9.63622C17.5551 9.70996 17.4445 9.7755 17.3257 9.83695C17.2028 9.8984 17.0799 9.96395 16.9529 10.0295C16.8259 10.095 16.7235 10.1606 16.6415 10.2261C16.6415 10.1278 16.6907 10.0459 16.7849 9.98034C16.8791 9.91479 16.9734 9.85334 17.0635 9.79189C16.9775 9.75092 16.916 9.72225 16.8751 9.70176C16.7972 9.6608 16.744 9.61164 16.7194 9.55428C16.7726 9.415 16.8546 9.288 16.9693 9.1651C17.084 9.0422 17.2151 8.96846 17.3585 8.94388C17.4117 8.93569 17.4568 8.97665 17.4977 9.06268C17.4977 9.1692 17.4609 9.26342 17.3912 9.34945C17.3503 9.29209 17.3216 9.24703 17.3011 9.22245C17.2601 9.17739 17.211 9.1733 17.1536 9.21426C17.1127 9.22655 17.0307 9.2839 16.8996 9.38222C17.0389 9.52561 17.2192 9.59935 17.4486 9.59935C17.4691 9.59115 17.5264 9.56658 17.6206 9.52561C17.7149 9.48464 17.8009 9.43958 17.8705 9.39451V9.39042ZM15.2651 8.14093C15.2651 8.14093 15.2405 8.186 15.2159 8.25974C15.1913 8.33348 15.1626 8.36625 15.1381 8.36625C15.1176 8.36625 15.093 8.34986 15.0602 8.31709C15.052 8.3089 15.0193 8.30889 14.9619 8.30889C14.9209 8.37444 14.88 8.52602 14.839 8.76772C14.798 9.00533 14.7325 9.16101 14.6465 9.22655C14.5809 9.16101 14.5072 9.02581 14.4293 8.82507C14.3843 8.71446 14.3392 8.62844 14.29 8.57108C14.2819 8.61205 14.2696 8.64073 14.2491 8.66121C14.2286 8.68169 14.204 8.67759 14.1712 8.65301C14.0197 8.59976 13.9787 8.51373 14.0442 8.39902C14.0565 8.37854 14.0729 8.33757 14.0934 8.27612C14.1139 8.21467 14.1426 8.1737 14.1835 8.15322C14.3146 8.19419 14.417 8.3048 14.4867 8.48915C14.585 8.74314 14.6547 8.89472 14.6915 8.93978C14.7366 8.73495 14.7694 8.58747 14.7898 8.48915C14.8349 8.31299 14.9045 8.16961 14.9947 8.06719C15.0397 8.06719 15.0889 8.06719 15.1381 8.07129C15.1872 8.07129 15.2282 8.10406 15.261 8.15322L15.2651 8.14093ZM19.669 14.7079C19.669 14.7939 19.6567 14.8554 19.628 14.9005C19.6034 14.9414 19.5379 14.966 19.4396 14.966C19.3945 14.966 19.329 14.9619 19.2429 14.9496C19.1569 14.9414 19.1118 14.9332 19.1036 14.9332C18.9726 14.9332 18.8783 14.9783 18.8169 15.0725C18.8169 15.1381 18.8333 15.2364 18.8619 15.3634C18.8906 15.4904 18.9111 15.5846 18.9275 15.642C18.9398 15.6993 18.948 15.7689 18.948 15.8468C18.948 15.9451 18.9316 16.027 18.8988 16.0926C18.8333 15.8058 18.7718 15.515 18.7104 15.2282C18.7104 15.1381 18.7268 15.052 18.7595 14.9742C18.7923 14.8964 18.8497 14.8226 18.9357 14.7571C18.8947 14.7448 18.8783 14.7202 18.8783 14.6874C18.8783 14.6669 18.8906 14.6342 18.9111 14.5891C18.9357 14.544 18.9439 14.5113 18.9357 14.4908C19.0094 14.3925 19.0873 14.3433 19.1733 14.3433C19.2593 14.3433 19.3494 14.3843 19.4478 14.4703C19.5543 14.5891 19.6239 14.6669 19.6649 14.7079H19.669ZM14.3105 10.558C14.29 10.73 14.2778 10.8243 14.2655 10.8488C14.2573 10.8734 14.2245 10.9144 14.1712 10.9717C14.1262 10.9717 14.0811 10.9472 14.0401 10.9021C13.9992 10.857 13.9664 10.812 13.9459 10.7628C13.9254 10.6071 13.9582 10.4269 14.0442 10.222C14.0893 10.1237 14.1344 10.0213 14.1835 9.91889C14.1917 9.97214 14.1835 10.0336 14.1549 10.1073C14.0811 10.3122 14.0483 10.431 14.0483 10.4719C14.0483 10.5703 14.0934 10.644 14.1876 10.6973C14.2122 10.6891 14.2327 10.6645 14.245 10.6235C14.2573 10.5825 14.2819 10.558 14.3146 10.558H14.3105ZM13.0119 9.97624C12.9791 10.1073 12.9504 10.1975 12.9218 10.2425C12.8767 10.3327 12.8152 10.4064 12.7333 10.4597L12.1434 10.1155L12.3195 9.76322C12.4056 9.62393 12.4998 9.55838 12.6063 9.55838C12.6145 9.57067 12.7005 9.63212 12.8726 9.73454C12.9832 9.80828 13.0283 9.89021 13.0119 9.98034V9.97624ZM12.5694 8.23515C12.5776 8.09586 12.5203 8.03032 12.4015 8.03032C12.2622 8.03032 12.1516 8.07129 12.0655 8.15732C12.041 8.19009 11.9959 8.24744 11.9385 8.32528C11.9058 8.38263 11.8935 8.44818 11.8976 8.52192C11.9181 8.59566 11.9795 8.65302 12.0778 8.69398C12.1803 8.73495 12.2458 8.77592 12.2786 8.80869C12.1147 9.12413 11.8116 9.42319 11.365 9.70176C10.7505 10.095 10.4023 10.3286 10.3245 10.3982C10.8734 10.1483 11.2544 9.95576 11.4633 9.81647C11.8771 9.55428 12.1884 9.25523 12.3974 8.9234C12.5285 8.89882 12.594 8.82917 12.594 8.71856C12.594 8.70627 12.5858 8.65302 12.5694 8.56699C12.5531 8.47686 12.5449 8.40721 12.5449 8.35396C12.5449 8.32938 12.5531 8.28841 12.5653 8.23515H12.5694ZM10.603 8.74724C10.6235 8.7882 10.6317 8.82098 10.6317 8.84556C10.6317 8.89882 10.6153 8.94797 10.5825 8.99713C10.5498 9.04629 10.5252 9.08317 10.5047 9.11185C10.4269 9.17739 10.3531 9.21016 10.2876 9.21016C10.2671 9.21016 10.2384 9.19788 10.1975 9.1692C10.1401 9.09136 10.1073 9.00533 10.1073 8.9152C10.1073 8.80869 10.1606 8.66121 10.263 8.47276C10.3408 8.32938 10.3859 8.24335 10.4023 8.21877C10.4228 8.27202 10.4023 8.36625 10.3367 8.50963C10.2753 8.64892 10.2425 8.74314 10.2425 8.78821C10.2425 8.87833 10.3163 8.92749 10.4596 8.92749C10.5129 8.82917 10.558 8.77182 10.5989 8.75134L10.603 8.74724ZM15.646 13.6714C15.6133 13.7616 15.5641 13.8394 15.4945 13.9009C15.4248 13.9623 15.3347 14.0238 15.2241 14.0811C15.1667 14.1139 15.0725 14.1549 14.9496 14.204C14.8267 14.2532 14.7243 14.2941 14.6465 14.3269C14.6792 14.2286 14.7325 14.1508 14.8021 14.0893C14.8759 14.032 14.9701 13.9746 15.0889 13.9254C15.2077 13.8763 15.2978 13.8394 15.3634 13.8107C15.4822 13.7575 15.5764 13.7083 15.6501 13.6633L15.646 13.6714ZM20.9472 12.5326C20.9472 12.422 20.9308 12.3195 20.9021 12.2212C20.8734 12.127 20.8202 12.0492 20.7382 11.9918C20.5989 11.9263 20.4392 11.8935 20.2548 11.8935C19.9721 11.8935 19.7181 11.9549 19.4887 12.0819C19.3576 11.492 19.2839 11.1643 19.2716 11.0987C19.2388 10.8939 19.2224 10.6973 19.2224 10.5006C19.6362 10.2589 19.9844 9.95166 20.2753 9.57477L20.4719 9.71405L20.5703 9.63622C20.5703 9.63622 20.5907 9.59116 20.5907 9.55838C20.5907 9.51742 20.5662 9.47235 20.5211 9.4191C20.4801 9.38632 20.4474 9.35355 20.4146 9.32077C20.4596 9.23065 20.4842 9.12413 20.4842 9.00533C20.4842 8.95207 20.4801 8.9152 20.4678 8.88653C20.4596 8.86195 20.4351 8.80459 20.4023 8.71856C20.3695 8.66121 20.3204 8.63253 20.2548 8.64072C20.1442 8.66121 20.05 8.72266 19.968 8.82098C19.8902 8.9234 19.837 9.03811 19.8124 9.1692C19.8124 9.23475 19.8574 9.2921 19.9517 9.33716C20.0418 9.38222 20.095 9.4109 20.1073 9.42729C20.0868 9.60344 19.968 9.7837 19.7427 9.96805C19.6239 10.0664 19.4396 10.2057 19.1938 10.3818C19.1405 10.1401 19.1036 9.94347 19.0791 9.79189C19.0545 9.64031 19.0463 9.47235 19.0463 9.2921C19.0463 9.25113 19.0463 9.21016 19.0504 9.161C19.0504 9.11184 19.0586 9.05449 19.0668 8.98894C19.1077 9.00943 19.1651 9.07907 19.2429 9.19378C19.3003 9.27981 19.3658 9.30439 19.4314 9.27162C19.2143 8.75953 19.0012 8.24744 18.7923 7.73946C18.7268 7.79271 18.6653 7.87874 18.612 8.00164C18.5547 8.12454 18.5055 8.23515 18.4605 8.34167C18.5711 8.65711 18.6489 9.01762 18.6981 9.42729C18.7431 9.83695 18.7882 10.2343 18.8251 10.6235L18.5219 10.8693C18.5629 10.8693 18.612 10.857 18.6776 10.8284C18.7431 10.8038 18.7923 10.7874 18.8251 10.7874C18.9316 11.2134 19.0135 11.6805 19.0709 12.1844C18.907 12.295 18.7022 12.3769 18.4605 12.4302C18.3949 12.2909 18.3253 12.168 18.2474 12.0533C18.1737 11.9386 18.0836 11.8279 17.9771 11.7255C17.8542 11.619 17.7272 11.5453 17.6043 11.4961C17.4814 11.447 17.3462 11.4224 17.2028 11.4224C17.1127 11.4224 17.0102 11.4388 16.8996 11.4715C16.6702 11.6149 16.4982 11.8116 16.3875 12.0574C16.2769 12.3032 16.2196 12.5735 16.2196 12.8685C16.3261 13.0242 16.4613 13.1389 16.6293 13.2044C16.7972 13.27 16.9857 13.3027 17.1946 13.3027C17.3503 13.3027 17.5141 13.2905 17.678 13.2618C17.6903 13.2618 17.8378 13.2372 18.1204 13.1839L18.1409 13.3232C17.7476 13.6919 17.5018 13.9213 17.4035 14.0115C17.1086 14.2819 16.8546 14.4949 16.6456 14.6506C16.3712 14.8595 16.0926 15.0356 15.814 15.1708C15.5354 15.3101 15.2446 15.4084 14.9455 15.4658C14.8554 15.4863 14.7612 15.4945 14.671 15.4945C14.499 15.4945 14.3392 15.4617 14.1876 15.3921C14.0361 15.3224 13.9172 15.22 13.8353 15.0889C13.7493 14.9537 13.7083 14.8103 13.7083 14.6506C13.8148 14.2778 13.9213 13.905 14.032 13.5281C14.1098 13.397 14.3023 13.2823 14.6055 13.1798C14.9086 13.0774 15.1135 12.9668 15.22 12.8398C15.3593 12.6678 15.4658 12.4875 15.5477 12.295C15.6297 12.1024 15.6706 11.9058 15.6706 11.7091C15.6706 11.5125 15.6297 11.3363 15.5518 11.1766C15.4207 11.0127 15.3265 10.9144 15.2651 10.8816C15.2077 10.8488 15.1381 10.8406 15.0602 10.8611C14.8103 11.0455 14.6301 11.2954 14.5195 11.6067C14.4457 11.8157 14.3884 12.127 14.3433 12.5408C14.2859 12.594 14.1958 12.6186 14.077 12.6186C14.0238 12.6186 13.9541 12.6104 13.864 12.5899C13.7739 12.5694 13.7083 12.5531 13.6633 12.5408C13.524 12.508 13.4175 12.422 13.3396 12.2868C13.3068 12.2294 13.2536 12.0983 13.1839 11.9017C13.0119 12.0205 12.8439 12.1352 12.6719 12.2458C12.3236 12.4752 12.0369 12.6309 11.8075 12.7087C11.7665 12.4875 11.6436 12.2868 11.4388 12.1106C11.2339 11.9345 11.0127 11.8116 10.7751 11.746C10.7423 11.7337 10.6973 11.7255 10.6358 11.7255C10.5457 11.7255 10.4474 11.7624 10.3408 11.832C10.2753 11.8771 10.1893 11.9508 10.0869 12.0492C10.0008 12.2376 9.91889 12.4302 9.84105 12.6186C9.78779 12.7415 9.76321 12.8562 9.76321 12.9627C9.76321 13.0365 9.7796 13.1061 9.80828 13.1758C9.83695 13.2454 9.88202 13.3068 9.93937 13.3683C10.05 13.4543 10.1729 13.5117 10.3081 13.5445C10.4433 13.5772 10.5866 13.5936 10.7341 13.5936C10.9963 13.5936 11.2462 13.5567 11.4797 13.4871L11.5207 13.6755C11.3568 13.8271 11.1028 14.0688 10.7546 14.4048C10.4392 14.6915 10.1647 14.9168 9.92708 15.0725C9.68947 15.2282 9.46415 15.3511 9.24293 15.433C9.02171 15.515 8.7882 15.5559 8.5383 15.5559C8.35395 15.5559 8.18189 15.5313 8.01803 15.4863C7.86235 15.4003 7.74764 15.2855 7.678 15.1422C7.60836 14.9988 7.57558 14.839 7.57558 14.6588C7.57558 14.5727 7.57558 14.5072 7.58378 14.4621C7.60836 14.3761 7.66981 14.3023 7.75993 14.2368C7.81319 14.204 7.89103 14.1508 7.99754 14.0811C8.28021 13.905 8.48095 13.6878 8.59566 13.4338C8.69398 13.2167 8.74314 12.9504 8.74314 12.6391C8.74314 12.4015 8.70627 12.1065 8.63662 11.746C8.59566 11.5494 8.5383 11.2708 8.46047 10.9103C8.49324 10.9226 8.5424 10.9513 8.60385 10.9922C8.6653 11.0332 8.71446 11.0619 8.74724 11.0742C8.74724 10.898 8.67349 10.6891 8.52192 10.4433C8.48914 10.39 8.41131 10.2712 8.28431 10.091C8.21057 10.1319 8.14912 10.2057 8.09586 10.3163C8.07128 10.3736 8.03032 10.4719 7.97706 10.603C8.13273 11.3978 8.2966 12.1885 8.46047 12.9832C8.12044 13.3028 7.78042 13.5854 7.4363 13.823C7.09627 14.0606 6.73576 14.2696 6.35477 14.4416C5.97378 14.6137 5.5846 14.7448 5.19132 14.8267C4.79394 14.9086 4.35969 14.9496 3.88857 14.9496C3.58132 14.8923 3.29455 14.7776 3.03236 14.6055C2.77018 14.4334 2.56944 14.2163 2.43425 13.9459C2.31544 13.7493 2.25809 13.524 2.25809 13.2659C2.35641 12.7825 2.45883 12.295 2.56125 11.8116C2.38509 12.1311 2.2458 12.4588 2.14748 12.7866C2.04916 13.1143 2 13.4584 2 13.8189C2 14.1385 2.09832 14.4498 2.29086 14.7448C2.48341 15.0397 2.72921 15.261 3.02417 15.4125C3.2331 15.5109 3.43384 15.5805 3.63048 15.6174C3.82302 15.6583 4.03195 15.6747 4.25318 15.6747C4.62597 15.6747 5.00287 15.6174 5.38386 15.5068C5.66653 15.4207 6.02294 15.2773 6.45719 15.0725C6.72757 14.9496 7.05531 14.7776 7.44859 14.5604C7.4363 14.6383 7.41991 14.7038 7.40352 14.7571C7.38714 14.8103 7.36665 14.8759 7.34617 14.9537C7.32159 15.0315 7.3134 15.134 7.3134 15.2569C7.3134 15.4207 7.34207 15.5764 7.40352 15.7198C7.46088 15.8632 7.5551 15.9902 7.678 16.1049C7.85416 16.236 8.08357 16.3015 8.36624 16.3015C8.51782 16.3015 8.6612 16.281 8.80049 16.2442C9.07087 16.1581 9.34535 16.0311 9.63212 15.8591C9.91889 15.687 10.1893 15.4904 10.4433 15.2692C10.6973 15.0479 10.9349 14.8021 11.1479 14.5358C11.3609 14.2696 11.5289 14.0033 11.6559 13.7329C11.6682 13.7001 11.6968 13.6346 11.7337 13.5322C11.7747 13.4297 11.8156 13.356 11.8607 13.3109C12.0123 13.2372 12.1639 13.1635 12.3113 13.0856C12.6309 12.9218 12.8767 12.762 13.0488 12.6022C13.061 12.6268 13.0733 12.676 13.0897 12.7415C13.102 12.807 13.1143 12.8644 13.1307 12.9095C13.2085 13.0528 13.3396 13.1594 13.524 13.2249C13.6878 13.2659 13.8517 13.3027 14.0156 13.3437C13.9172 13.5731 13.8148 13.8107 13.7124 14.0565C13.6059 14.3023 13.5404 14.5031 13.5117 14.6628C13.483 14.8185 13.4666 14.966 13.4666 15.0971C13.4666 15.2732 13.4953 15.4412 13.5485 15.6051C13.6059 15.7649 13.6919 15.9 13.8107 16.0025C14.0647 16.1417 14.3228 16.2073 14.5768 16.2073C14.8513 16.2073 15.1381 16.1418 15.433 16.0107C15.6542 15.9123 16.0803 15.6461 16.7112 15.2159C17.0635 14.9005 17.424 14.585 17.7845 14.2737C18.2024 13.8886 18.4154 13.5035 18.4154 13.1225C18.5137 13.0488 18.612 12.9955 18.7063 12.9545C18.8005 12.9136 18.9603 12.8726 19.1815 12.8275C19.2388 12.9709 19.3044 13.1225 19.3699 13.2782C19.4355 13.4338 19.5133 13.5608 19.6075 13.651C19.7591 13.7575 19.8574 13.8189 19.9066 13.8394C19.9558 13.8599 20.0131 13.8681 20.0787 13.8681C20.1319 13.8681 20.1852 13.8599 20.2343 13.8394C20.4515 13.6878 20.6194 13.4953 20.7341 13.2577C20.812 13.0938 20.8898 12.8562 20.9594 12.549L20.9472 12.5326ZM8.80459 7.73536C8.82507 7.76813 8.81278 7.8091 8.77591 7.85416C8.73495 7.89923 8.71856 7.932 8.71856 7.95248C8.56698 7.99755 8.08767 8.14503 7.28472 8.39493C6.70709 8.57108 6.23187 8.72675 5.85907 8.85785C5.34289 9.0422 4.87587 9.23065 4.46211 9.42729C4.44162 9.39451 4.45391 9.34945 4.50307 9.2962C4.54814 9.23884 4.57681 9.20197 4.58091 9.18149C5.00696 8.99304 5.52315 8.7923 6.13355 8.58337C6.322 8.51782 7.21508 8.23515 8.80869 7.73946L8.80459 7.73536ZM7.50594 9.14052L7.44859 9.26752C7.34207 9.23474 7.28472 9.21836 7.27243 9.21836C7.21508 9.2839 7.16592 9.42319 7.12905 9.64032C7.09218 9.85744 7.02663 9.99263 6.92831 10.0541C6.89553 10.0295 6.84228 9.93118 6.76444 9.76731C6.6907 9.60344 6.60877 9.52151 6.52274 9.52151C6.49816 9.52151 6.45719 9.5297 6.40393 9.55019C6.36297 9.50922 6.34658 9.46416 6.34658 9.4109C6.34658 9.38632 6.36297 9.32077 6.39574 9.22245C6.40803 9.18149 6.41622 9.14871 6.41622 9.11594C6.46129 9.07088 6.50635 9.05039 6.55551 9.05859C6.63335 9.13233 6.70709 9.23065 6.77263 9.35355C6.87095 9.542 6.92831 9.6526 6.94879 9.67718C6.97337 9.63622 7.01434 9.52151 7.0676 9.33306C7.12085 9.14462 7.19459 9.01762 7.29291 8.96026C7.37075 8.96026 7.4322 8.96437 7.48136 8.97666C7.52642 8.98485 7.551 9.01352 7.551 9.05859C7.551 9.08317 7.53871 9.11185 7.51004 9.13643L7.50594 9.14052ZM12.3236 15.3142C12.3441 15.4863 12.2704 15.6338 12.1065 15.7649C11.9959 15.7649 11.9263 15.7034 11.9017 15.5764C11.9017 15.4207 11.9304 15.2487 11.9918 15.0643C12.0328 14.9332 12.0983 14.7776 12.1884 14.5932C12.1884 14.6465 12.1639 14.7489 12.1106 14.8964C12.0574 15.0479 12.0328 15.1626 12.0328 15.2405C12.0328 15.3511 12.0737 15.4453 12.1516 15.515C12.1925 15.5027 12.2253 15.4658 12.2499 15.4125C12.2745 15.3552 12.3032 15.3224 12.3277 15.3101L12.3236 15.3142ZM9.55018 14.2819C9.51741 14.4211 9.49283 14.5195 9.47235 14.585C9.43138 14.7038 9.36174 14.7735 9.25522 14.7898C9.14461 14.6792 9.08726 14.5522 9.08726 14.417C9.08726 14.3064 9.12823 14.1631 9.21426 13.9828C9.2798 13.8435 9.34945 13.7083 9.41909 13.569C9.4109 13.6264 9.36174 13.7698 9.27161 13.991C9.22655 14.1016 9.20197 14.1876 9.20197 14.245C9.20197 14.3515 9.25113 14.4498 9.34945 14.5399C9.37403 14.5154 9.4068 14.4662 9.44367 14.4007C9.48054 14.3351 9.51331 14.2941 9.54609 14.2737L9.55018 14.2819ZM6.17862 10.644C6.0721 10.8488 5.97378 11.0496 5.87546 11.2544C5.8222 11.2134 5.73617 11.1643 5.62147 11.1069C5.41663 11.0004 5.30602 10.9062 5.28554 10.8202C5.3306 10.7014 5.37976 10.5989 5.43302 10.517C5.48628 10.431 5.54363 10.3531 5.60918 10.2794C5.7075 10.3327 5.80991 10.3818 5.91233 10.4269C6.01885 10.4842 6.10488 10.558 6.17862 10.644ZM7.08398 12.5326C7.09218 12.6227 7.07169 12.721 7.03073 12.8275C6.98976 12.934 6.92831 13.016 6.85047 13.0733C6.79721 13.0406 6.75625 12.9955 6.72347 12.934C6.6907 12.8767 6.67431 12.7866 6.67431 12.6678C6.6866 12.5285 6.71938 12.3974 6.77263 12.2663C6.80541 12.1803 6.86276 12.0574 6.94879 11.8935C6.94879 11.9508 6.91192 12.0819 6.84228 12.2786C6.80131 12.3892 6.78492 12.4711 6.78492 12.5244C6.78492 12.635 6.83408 12.7251 6.9324 12.7907C6.97747 12.7046 7.01024 12.6432 7.03073 12.6022C7.05121 12.5612 7.07169 12.5408 7.08808 12.5326H7.08398ZM3.33961 10.7218C3.3519 10.812 3.3601 10.8857 3.3601 10.939C3.3601 11.1028 3.33142 11.2544 3.26997 11.3978C3.21262 11.5371 3.1143 11.66 2.9832 11.7583C2.95862 11.7706 2.91356 11.7788 2.85621 11.7788C2.79066 11.7788 2.72511 11.7624 2.65957 11.7296C2.64728 11.7214 2.6186 11.7009 2.56944 11.66C2.46292 11.4101 2.41376 11.1479 2.41376 10.8734C2.41376 10.5047 2.50389 10.1155 2.68824 9.70176C2.82753 9.38632 3.02827 9.04629 3.29865 8.67759C3.1102 9.24703 2.92175 9.81647 2.7374 10.39C2.7374 10.5129 2.75379 10.6276 2.79066 10.7341C2.82753 10.8406 2.88898 10.9431 2.9832 11.0496C3.08152 11.0701 3.15526 11.0209 3.20852 10.9062C3.26178 10.7915 3.30274 10.73 3.33552 10.7259L3.33961 10.7218ZM5.00287 12.1393L4.94551 12.3359C4.92093 12.3236 4.87997 12.3154 4.82671 12.3154C4.7202 12.3154 4.65465 12.3646 4.62188 12.4629C4.62188 12.6145 4.60959 12.7456 4.5891 12.8603C4.56452 12.975 4.52356 13.1225 4.4662 13.2986C4.41295 13.2536 4.3433 13.1266 4.24908 12.9136C4.20401 12.8152 4.15485 12.7333 4.1016 12.6678C4.06882 12.676 4.01147 12.676 3.93363 12.676C3.81483 12.676 3.73699 12.6473 3.69603 12.5858C3.71651 12.4998 3.73699 12.4138 3.75338 12.3318C3.79435 12.2253 3.8517 12.1598 3.92954 12.1352C4.05244 12.2089 4.16305 12.3359 4.25318 12.5203C4.32692 12.676 4.40066 12.8357 4.47849 12.9914C4.47849 12.762 4.50307 12.5694 4.55223 12.4179C4.60139 12.2622 4.69971 12.1434 4.8431 12.0574C4.88406 12.0451 4.93322 12.0696 4.99877 12.1352L5.00287 12.1393ZM20.2999 9.21016C20.2753 9.18968 20.2261 9.15281 20.1524 9.10365C20.0787 9.05039 20.05 9.00533 20.0623 8.96437C20.095 8.93159 20.1237 8.9152 20.1524 8.9152C20.2507 8.9152 20.2999 8.97256 20.2999 9.08317V9.21016ZM20.5457 12.8685C20.5785 12.9422 20.5662 12.9955 20.5047 13.0365C20.4719 13.0569 20.4146 13.0774 20.3367 13.1061C20.0336 13.1061 19.8124 12.9668 19.669 12.6923C19.7427 12.6186 19.8574 12.5858 20.0213 12.5858C20.1196 12.5858 20.2179 12.6063 20.3204 12.6432C20.4228 12.6842 20.4965 12.7579 20.5416 12.8685H20.5457ZM17.7722 12.5326C17.6534 12.5531 17.5223 12.5613 17.3789 12.5613C17.2151 12.5613 17.0676 12.5408 16.9365 12.4957C16.8054 12.4547 16.6989 12.381 16.6211 12.2827C16.6088 12.2499 16.6211 12.2171 16.6538 12.1844C16.6907 12.1516 16.7235 12.1229 16.7562 12.0942C16.7767 12.0942 16.8095 12.0942 16.8546 12.086C17.2274 12.086 17.5346 12.2335 17.7681 12.5285L17.7722 12.5326ZM19.1979 14.6465L19.0914 14.626L18.9644 14.7325L19.202 14.6424L19.1979 14.6465ZM12.4056 8.5424C12.3482 8.51782 12.2868 8.48915 12.2253 8.46047C12.1639 8.43179 12.1311 8.39082 12.1311 8.33757C12.1884 8.2925 12.2458 8.26792 12.2991 8.26792C12.3728 8.26792 12.4056 8.3089 12.4056 8.39493V8.5424ZM15.306 11.914C15.3183 11.9672 15.3347 12.0205 15.3552 12.0696C15.3552 12.0942 15.3306 12.1188 15.2855 12.1393C15.1667 12.2376 15.0479 12.3155 14.925 12.3687C14.8021 12.4261 14.6587 12.4793 14.4867 12.5326C14.4867 12.3441 14.5195 12.1639 14.5809 11.9959C14.6424 11.8279 14.7448 11.6846 14.88 11.5699C14.9578 11.5576 15.0315 11.578 15.0971 11.6395C15.1381 11.6723 15.2036 11.7624 15.3019 11.914H15.306ZM11.1561 12.8275C11.0701 12.8521 10.9676 12.8685 10.8529 12.8685C10.5825 12.8685 10.3531 12.7907 10.1647 12.6309C10.1565 12.5572 10.2057 12.4957 10.304 12.4424C10.476 12.4424 10.6317 12.4793 10.7751 12.549C10.8816 12.6022 11.0086 12.6923 11.1602 12.8234L11.1561 12.8275Z" fill="white"/>
</svg>
