<svg width="24" height="24" viewBox="0 0 24 24" fill="none" xmlns="http://www.w3.org/2000/svg">
<path fill-rule="evenodd" clip-rule="evenodd" d="M22 8.61939C21.9291 8.55438 21.8759 8.49527 21.8345 8.43026C21.6749 8.19386 21.5922 8.06974 21.5863 8.06383C21.5449 8.12884 21.5213 8.20568 21.5035 8.29433C21.4858 8.38298 21.4799 8.47754 21.4799 8.57211C21.4799 8.69622 21.4917 8.86761 21.5095 9.07447C21.5272 9.28133 21.539 9.39953 21.539 9.42317C21.5567 9.65367 21.5922 10.026 21.6454 10.5461C21.734 11.4208 21.7754 12.0827 21.7754 12.5319C21.7754 13.1288 21.734 13.6667 21.6454 14.1336C21.5567 14.6005 21.4031 15.0437 21.1726 15.4515C21.2435 15.1442 21.2967 14.8132 21.3321 14.4645C21.3676 14.1158 21.3853 13.7494 21.3853 13.3712C21.3853 12.9043 21.3026 11.8168 21.1371 10.0969C21.0603 9.27542 21.0189 8.61348 21.0189 8.11111C21.0189 7.97518 21.0189 7.84516 21.0071 7.72104C21.0012 7.59693 20.9894 7.46691 20.9834 7.34279C20.9834 7.14776 21.0071 6.98227 21.0485 6.85816C21.0898 6.73404 21.1903 6.60402 21.3381 6.47991C21.4799 6.82861 21.6277 7.1714 21.7754 7.5201C21.9232 7.92199 22 8.28842 22 8.61939ZM17.5083 9.36407C17.4846 9.39362 17.4492 9.41135 17.4019 9.41135C17.3783 9.41135 17.3546 9.41135 17.3251 9.39953C17.2955 9.39362 17.2719 9.3818 17.2482 9.37589L17.1773 9.30497C17.1005 9.42908 17.0532 9.5 17.0355 9.51773C16.9823 9.57092 16.9232 9.60048 16.87 9.60048C16.7931 9.59457 16.7222 9.57684 16.669 9.54728C16.6158 9.51773 16.5804 9.47045 16.5745 9.39953C16.5745 9.20449 16.5863 9.05083 16.6099 8.94445C16.6336 8.83806 16.6868 8.72577 16.7754 8.60757C16.7991 8.67258 16.7931 8.76123 16.7636 8.88535C16.734 9.00946 16.7163 9.07447 16.7163 9.08038C16.7163 9.16903 16.7577 9.23405 16.8345 9.28133C16.8877 9.28724 16.935 9.28133 16.9764 9.2636C17.0177 9.24587 17.0591 9.2104 17.1064 9.16312C17.1123 9.13948 17.1182 9.11584 17.1182 9.08629V9.0331C17.1123 8.9149 17.1064 8.82624 17.1064 8.77305C17.1064 8.65485 17.1478 8.57211 17.2246 8.52482C17.2187 8.6844 17.2128 8.79669 17.2128 8.86761C17.2128 8.99173 17.266 9.07447 17.3783 9.11584C17.4492 9.09811 17.4905 9.08038 17.5083 9.05674C17.4669 8.95627 17.4492 8.8558 17.4492 8.76123C17.4492 8.67258 17.4669 8.59575 17.5083 8.52482C17.5378 8.55438 17.5674 8.59575 17.5851 8.64303C17.6028 8.69031 17.6147 8.76123 17.6147 8.85579C17.6147 8.92081 17.6028 8.99764 17.5851 9.08629C17.5674 9.17494 17.5378 9.26951 17.5083 9.36407ZM17.9102 6.58629C17.2541 6.8227 16.74 7.00591 16.3617 7.13003C15.8357 7.30142 15.3097 7.47282 14.7896 7.6383C14.1277 7.85698 13.6135 8.03428 13.2411 8.17022C13.1525 8.2175 13.0697 8.25887 12.9811 8.30024C12.7861 8.40071 12.6856 8.51892 12.6856 8.65485C13.4243 8.32979 14.24 8.02246 15.1206 7.72104C15.9421 7.461 16.7636 7.19504 17.591 6.92908C17.7092 6.87589 17.7861 6.82861 17.8274 6.79906C17.9043 6.72813 17.9338 6.65721 17.9102 6.58629ZM12.8274 7.33097C12.8038 7.49646 12.7506 7.64421 12.6619 7.77423C12.5733 7.90426 12.4551 7.987 12.2955 8.01655C12.1537 8.0461 12.0414 7.987 11.9527 7.83925C11.9527 7.65603 12.0059 7.47873 12.1064 7.30142C12.2069 7.12412 12.3132 6.94681 12.4137 6.77542C12.4314 6.8227 12.4137 6.89362 12.3723 6.98227C12.331 7.07092 12.3132 7.13594 12.3191 7.16549L12.4492 7C12.5142 7.02364 12.5851 7.06501 12.6678 7.13003C12.7506 7.19504 12.8038 7.26005 12.8274 7.33097ZM17.8156 15.9953C17.8629 16.0603 17.857 16.1312 17.8038 16.208C17.7151 16.3262 17.6738 16.3972 17.6738 16.4208C17.6206 16.4267 17.5733 16.4149 17.5319 16.3735C17.4905 16.3322 17.4551 16.2849 17.4137 16.2199C17.4078 16.1903 17.4019 16.143 17.4019 16.078C17.4019 15.8948 17.4669 15.6879 17.6028 15.4515C17.6738 15.3333 17.7447 15.2151 17.8156 15.0969C17.8156 15.1501 17.7624 15.2979 17.6619 15.5343C17.6087 15.6584 17.5792 15.7589 17.5792 15.8298V15.9362C17.5969 16.0012 17.6324 16.0603 17.6974 16.1253L17.8156 15.9953ZM9.3286 10.2979C9.44681 10.0851 9.50591 9.80733 9.50591 9.45863C9.50591 8.98582 9.39953 8.5662 9.18676 8.20568L9.3286 7.92199C9.5591 8.29433 9.67139 8.69622 9.67139 9.13948C9.67139 9.58275 9.5591 9.97282 9.3286 10.2979ZM15.4043 14.0449C15.1383 14.2281 14.9255 14.3522 14.7778 14.4232C14.5177 14.5473 14.2813 14.6123 14.0686 14.6123C13.8853 14.6123 13.7199 14.5709 13.5721 14.4823C13.5012 14.4114 13.4657 14.3227 13.4657 14.2222C13.4657 14.169 13.4835 14.1218 13.513 14.0804C13.5898 13.9917 13.6785 13.9031 13.773 13.8085C13.8676 13.714 13.9681 13.6489 14.0804 13.6076C14.039 13.5603 13.9858 13.5307 13.9208 13.5189C13.8558 13.5071 13.7908 13.4953 13.7258 13.4775C13.6962 13.5071 13.6726 13.5307 13.6667 13.5366C13.6608 13.5426 13.6489 13.5544 13.643 13.5603L13.6076 13.5366C13.6608 13.3475 13.7908 13.253 13.9858 13.253C14.1336 13.253 14.2695 13.3002 14.3877 13.3948C14.4113 13.5366 14.305 13.6726 14.0626 13.8026C13.8203 13.9326 13.7021 14.0213 13.7021 14.0686C13.7021 14.1395 13.7908 14.2222 13.974 14.3168C14.0272 14.3345 14.1099 14.3404 14.2222 14.3404C14.3818 14.3404 14.5946 14.2931 14.8664 14.1986C15.1383 14.104 15.3156 14.0508 15.4043 14.0449ZM19.2931 8.35934C19.2931 8.08156 19.2045 7.75059 19.0331 7.36643C18.8026 6.86407 18.6726 6.5331 18.6312 6.38535C18.5544 6.45036 18.4716 6.54492 18.383 6.68085C18.3416 6.74587 18.2825 6.85816 18.1939 7.02364C18.2825 7.72695 18.3652 8.42435 18.4539 9.11584C18.5721 10.0851 18.6548 10.8712 18.708 11.474C18.7612 12.0768 18.7849 12.7151 18.7849 13.3948C18.4953 13.578 18.1288 13.7376 17.6856 13.8794C17.3073 13.9917 16.935 14.0981 16.5626 14.2045C16.1903 14.3109 15.8357 14.4586 15.4988 14.6478C15.1974 14.8132 14.8901 15.0201 14.565 15.2742C14.3345 15.4634 14.1099 15.6466 13.8794 15.8298C13.4362 16.1844 13.0461 16.4504 12.7092 16.6218C12.6797 16.6277 12.6265 16.6395 12.5556 16.6513C12.4846 16.6631 12.4196 16.669 12.3664 16.669C12.1714 16.669 12.0177 16.6158 11.9173 16.5035C11.7813 16.3144 11.7163 16.0957 11.7163 15.8534C11.7163 15.6702 11.7459 15.4752 11.8109 15.2683C11.8759 15.0615 11.9468 14.8664 12.0355 14.6832C12.2423 14.6596 12.396 14.4882 12.5083 14.1631C12.5792 13.9504 12.6383 13.8144 12.6856 13.7494C12.7092 13.6785 12.721 13.6076 12.721 13.5366C12.721 13.4184 12.6856 13.2943 12.6147 13.1702C12.5733 13.0934 12.5024 12.987 12.3901 12.8629C12.7388 12.7151 13.0993 12.5969 13.4835 12.5142C13.8676 12.4314 14.2577 12.3901 14.6596 12.3901C15.1028 12.3901 15.5284 12.4078 15.9362 12.4433C16.344 12.4787 16.7222 12.5378 17.0709 12.6147C17.1596 12.4905 17.2482 12.3546 17.3487 12.2128C17.4492 12.0709 17.5142 11.9527 17.5556 11.8582C17.13 11.7931 16.6277 11.6513 16.0544 11.4326C15.5756 11.2435 15.0969 11.0544 14.63 10.8593C14.1631 10.6643 13.779 10.5284 13.4775 10.4515C13.0579 10.3392 12.656 10.2861 12.2719 10.2861C12.2187 10.2861 12.1418 10.2861 12.0473 10.292C11.9527 10.292 11.7931 10.3156 11.5626 10.3452C11.3322 10.3452 11.1667 10.4634 11.0544 10.6998C10.9894 10.8889 10.9303 11.078 10.8652 11.2671L12.1064 11.1371C12.2246 11.1135 12.3369 11.1017 12.4492 11.1017C12.7388 11.1017 13.1288 11.2021 13.6194 11.409C13.9267 11.5331 14.1513 11.6277 14.2931 11.6809C13.2234 11.8936 12.1596 12.13 11.1017 12.3901C11.0248 12.5556 10.9007 12.721 10.7411 12.8865C10.5816 13.052 10.422 13.2116 10.2742 13.3593C10.0615 13.5485 9.81324 13.643 9.52955 13.643C9.41135 13.643 9.28132 13.6253 9.13948 13.5839C8.97991 13.5839 8.87943 13.4835 8.82624 13.2884C8.77305 13.0934 8.73168 12.9693 8.70213 12.922C8.6844 12.9161 8.65485 12.9338 8.60756 12.9811C8.50709 13.0816 8.43026 13.182 8.38889 13.2825C8.34752 13.383 8.32388 13.4835 8.32388 13.5957C8.32388 13.7317 8.38298 13.9563 8.49527 14.2754C8.60756 14.5946 8.66667 14.8428 8.66667 15.0142C8.66667 15.0851 8.66667 15.1383 8.65485 15.1679C8.45981 15.3747 8.25295 15.5461 8.03428 15.6939C7.8156 15.8416 7.45508 16.0248 6.95272 16.2553C6.54492 16.4208 6.14303 16.5508 5.74704 16.6513C5.35106 16.7518 4.96099 16.7991 4.57683 16.7991C4.19267 16.7991 3.83215 16.74 3.50709 16.6158C3.18203 16.4917 2.89243 16.2908 2.65012 16.0071C2.4669 15.7707 2.37825 15.4929 2.37825 15.1797C2.37825 14.896 2.47872 14.5059 2.68558 14.0095C2.82151 13.6962 2.90426 13.4894 2.93381 13.3948C2.77423 13.6844 2.62057 13.974 2.47281 14.2577C2.15957 14.8723 2 15.3865 2 15.8061C2 15.9775 2.02364 16.1489 2.07683 16.3144C2.13002 16.4799 2.20686 16.6395 2.30733 16.7872C2.58511 17.0887 2.89835 17.3014 3.25887 17.4255C3.61939 17.5496 4.01537 17.6147 4.45863 17.6147C4.78369 17.6147 5.09102 17.5851 5.38061 17.526C5.67021 17.4669 5.95981 17.3783 6.2435 17.2601C7.04728 16.9527 7.67967 16.6099 8.13475 16.2317C8.77896 15.6939 9.10402 15.091 9.10402 14.4113C9.13357 14.4173 9.18085 14.4232 9.24586 14.4232C9.5 14.4232 9.74823 14.3168 9.99054 14.104C10.1087 13.9917 10.292 13.7849 10.5461 13.4775L10.617 13.7849C10.6702 14.039 10.8357 14.2459 11.1135 14.4113C11.3203 14.5355 11.5745 14.63 11.8818 14.6832C11.8168 14.8428 11.7577 14.9965 11.6927 15.1501C11.6277 15.3038 11.5804 15.4574 11.539 15.6052C11.5154 15.753 11.5035 15.8534 11.4976 15.8948C11.4976 15.9362 11.4976 16.0012 11.4976 16.078C11.4976 16.3144 11.5331 16.5213 11.604 16.6986C11.6749 16.8759 11.7931 17.0177 11.9586 17.13C12.0591 17.1832 12.1714 17.2128 12.2896 17.2128C12.4137 17.195 12.5437 17.1832 12.6678 17.1773C12.9515 17.0532 13.2411 16.8818 13.5426 16.669C13.6194 16.6158 13.8972 16.4031 14.37 16.0426C14.7305 15.7766 15.0142 15.5816 15.221 15.4634C15.5225 15.292 15.8298 15.1679 16.143 15.0969C16.7872 14.8842 17.4374 14.6655 18.0816 14.4468C18.8321 14.1572 19.2045 13.6608 19.2045 12.9574L18.8144 7.93381L18.8853 7.87471C18.9563 7.92199 19.0331 8.00473 19.1217 8.12884C19.2104 8.25296 19.2695 8.32979 19.2991 8.35934H19.2931ZM5.53428 7.461L5.487 7.73286C5.45745 7.73286 5.39835 7.6974 5.30969 7.62057C5.22104 7.54374 5.15012 7.53192 5.09693 7.5792C5.05556 7.66785 5.026 7.86289 4.99645 8.16431C4.9669 8.46572 4.90189 8.67849 4.7896 8.79669C4.74823 8.7435 4.68913 8.60757 4.61229 8.3948C4.49409 8.06974 4.35225 7.91608 4.18676 7.93381C4.0922 7.93381 4.02719 7.90426 3.99764 7.85107C3.96809 7.79787 3.95035 7.73877 3.95035 7.68558C3.95035 7.66194 3.95626 7.62057 3.974 7.55556C3.99173 7.53192 4.01537 7.47873 4.04492 7.40189C4.07447 7.32506 4.12175 7.26596 4.18676 7.23641C4.33452 7.33688 4.46454 7.50828 4.57683 7.74468C4.66548 7.93972 4.75414 8.14066 4.8487 8.3357C4.87234 8.14066 4.90189 7.93972 4.93144 7.73286C4.98463 7.50237 5.08511 7.33097 5.22695 7.21277C5.34515 7.23641 5.44563 7.31915 5.53428 7.461ZM6.52719 11.1726C6.49764 11.2967 6.45035 11.409 6.39125 11.5095C6.33215 11.6099 6.23759 11.734 6.11347 11.8818L5.46336 11.4444C5.52837 11.3026 5.59338 11.1785 5.6643 11.078C5.70567 11.013 5.78842 10.9007 5.92435 10.7352C6.03664 10.7648 6.14303 10.8239 6.25532 10.9125C6.32624 10.9657 6.41489 11.0544 6.52719 11.1726ZM10.6643 15.4752C10.6939 15.5284 10.6939 15.5934 10.6584 15.6702C10.6229 15.747 10.5993 15.7884 10.5934 15.7943C10.552 15.7766 10.5047 15.7707 10.4515 15.7707H10.3215C10.1856 15.7707 10.0733 15.7825 9.97281 15.8121C9.87234 15.8416 9.78369 15.8948 9.70685 15.9716C9.74823 16.2376 9.78369 16.5095 9.82506 16.7872C9.83097 16.8404 9.83688 16.9232 9.83688 17.0236C9.83688 17.2364 9.79551 17.4255 9.70685 17.591C9.72459 17.5496 9.7305 17.5083 9.7305 17.461V17.3546C9.7305 17.2187 9.71277 17.0827 9.68322 16.9409C9.65366 16.7991 9.62411 16.6631 9.59456 16.539C9.56501 16.4149 9.55319 16.2967 9.55319 16.1962C9.55319 16.0721 9.57092 15.9657 9.60638 15.8771C9.64184 15.7884 9.71868 15.6998 9.83688 15.6052L10.2624 15.4752C10.2151 15.4279 10.1501 15.4043 10.0615 15.4043C9.99645 15.4043 9.94326 15.4161 9.90189 15.4456C9.86052 15.4752 9.81915 15.5047 9.7896 15.5343C9.76596 15.4811 9.77778 15.422 9.81915 15.3629C9.86052 15.3038 9.90189 15.2447 9.94326 15.1915C10.0201 15.1501 10.0969 15.1324 10.1678 15.1324C10.2683 15.1324 10.3688 15.1619 10.4634 15.227C10.5579 15.292 10.6229 15.3747 10.6643 15.4752ZM4.18676 9.16312C4.11584 9.31088 3.94444 9.60048 3.66667 10.026C3.2234 10.7057 3.00473 11.2317 3.00473 11.6099C3.00473 11.7754 3.03428 11.9291 3.08747 12.0768C3.14066 12.2246 3.24704 12.3723 3.3948 12.5201C3.48936 12.526 3.5721 12.5024 3.64303 12.4433C3.71395 12.3842 3.76123 12.3014 3.78487 12.2009C3.8026 12.1714 3.81442 12.1418 3.82033 12.1241C3.82624 12.1064 3.84397 12.1005 3.86761 12.1064C3.86761 12.3901 3.83806 12.6206 3.78487 12.792C3.70804 13.0284 3.56619 13.2116 3.37116 13.3475C3.11111 13.3948 2.91608 13.2943 2.79196 13.052C2.6974 12.7506 2.65012 12.4669 2.65012 12.1891C2.65012 11.669 2.80969 11.1253 3.13475 10.5579C3.37707 10.1265 3.73168 9.65958 4.18676 9.16312ZM6.70449 13.9504L6.63357 14.1986C6.5331 14.1572 6.43853 14.1395 6.3617 14.1395C6.24941 14.1395 6.19622 14.1986 6.19622 14.3168C6.16667 14.5473 6.13121 14.7305 6.10166 14.8723C6.0721 15.0142 6.02482 15.1619 5.97163 15.3097C5.90662 15.2565 5.81797 15.0851 5.69976 14.8014C5.63475 14.6596 5.57565 14.5532 5.51064 14.4823C5.50473 14.5296 5.48109 14.5532 5.43972 14.5532C5.41608 14.5532 5.38061 14.5355 5.33924 14.5C5.29787 14.4645 5.26832 14.4468 5.25059 14.4468C5.1974 14.3995 5.16785 14.3463 5.16785 14.2931C5.16785 14.2459 5.17967 14.1927 5.20922 14.1277C5.23877 14.0627 5.26832 14.0035 5.29787 13.9504C5.46336 13.9681 5.59929 14.0745 5.71158 14.2813C5.80024 14.4645 5.88298 14.6418 5.97163 14.8251C6.03664 14.5709 6.08983 14.3641 6.13121 14.1927C6.17258 14.0213 6.26123 13.8913 6.39716 13.7967C6.50946 13.7731 6.60993 13.8262 6.70449 13.9504ZM12.591 7.62648C12.591 7.56147 12.5615 7.50237 12.5083 7.44917C12.3605 7.30142 12.2837 7.21868 12.2837 7.21277C12.26 7.27778 12.2364 7.33688 12.2128 7.40189C12.1891 7.46691 12.1773 7.51419 12.1773 7.54374C12.1773 7.59102 12.195 7.63239 12.2246 7.67376C12.2719 7.69149 12.3132 7.6974 12.3428 7.6974C12.396 7.6974 12.4787 7.67376 12.591 7.62648ZM12.13 13.8203C11.8936 13.8203 11.669 13.7553 11.4563 13.6312C11.2435 13.5071 11.0721 13.3416 10.9362 13.1466C11.2021 13.1466 11.4385 13.1998 11.6336 13.3121C11.8286 13.4244 11.9941 13.5898 12.13 13.8203Z" fill="white"/>
</svg>
