<svg width="24" height="24" viewBox="0 0 24 24" fill="none" xmlns="http://www.w3.org/2000/svg">
<path fill-rule="evenodd" clip-rule="evenodd" d="M22 9.46687C21.947 9.44416 21.8865 9.39119 21.8184 9.31174C21.7503 9.23228 21.6973 9.15283 21.6557 9.07716L21.5725 9.2966C21.5725 9.57659 21.6027 9.91712 21.6633 10.322C21.8033 11.2527 21.8714 11.843 21.8714 12.0927V12.5656C21.8714 13.1029 21.86 13.4926 21.8335 13.7272C21.7919 14.1207 21.7049 14.4915 21.5687 14.8358C21.5687 12.5959 21.3833 10.4014 21.0163 8.25234C21.0352 8.14262 21.0692 8.03289 21.126 7.9156C21.1638 7.84371 21.2244 7.74155 21.3152 7.60534C21.4589 7.90803 21.5952 8.22207 21.72 8.54367C21.8449 8.86906 21.9357 9.17553 21.9962 9.46687H22ZM18.7234 7.68858C18.6326 7.80965 18.4964 7.91559 18.3148 8.0064C18.0613 8.13504 17.8078 8.2599 17.5505 8.38854C17.5127 8.36584 17.5202 8.32044 17.5694 8.25234C17.7283 8.11235 17.9137 7.99884 18.1332 7.90803C18.2316 7.86641 18.3413 7.82101 18.4699 7.77561C18.5986 7.7302 18.6818 7.69993 18.7234 7.68858ZM18.8672 8.95229C18.784 9.1112 18.6326 9.23607 18.4207 9.33444C18.2089 9.43281 18.0045 9.52362 17.8116 9.60686C17.8116 9.55767 17.8381 9.5047 17.8948 9.44417C17.9667 9.37606 18.0197 9.33066 18.0499 9.30039C18.0424 9.29282 18.0008 9.26634 17.9213 9.21715C17.8418 9.16796 17.7927 9.12256 17.7662 9.08095C17.7889 8.96744 17.8456 8.86527 17.9327 8.77825C18.0197 8.69123 18.1294 8.61556 18.2543 8.55502C18.3526 8.55502 18.417 8.58908 18.4548 8.6534C18.4775 8.73664 18.4397 8.80474 18.3375 8.85393C18.2959 8.84258 18.2656 8.83122 18.2467 8.82744C18.1748 8.80474 18.118 8.80474 18.0726 8.82744L17.9818 8.91824C18.0424 8.97878 18.1143 9.0204 18.1937 9.04688C18.277 9.06958 18.3753 9.08851 18.4888 9.09986C18.5305 9.06959 18.5986 9.03932 18.6932 9.01283C18.7877 8.98635 18.8445 8.96743 18.8596 8.95229H18.8672ZM20.1309 9.2966C19.9115 8.7215 19.6958 8.14639 19.4764 7.57129C19.3969 7.62426 19.3212 7.71507 19.2493 7.83614C19.2115 7.89668 19.1623 8.0064 19.0942 8.16153C19.238 8.71771 19.3742 9.36849 19.4953 10.1139C19.5936 10.7798 19.692 11.4419 19.7942 12.104C19.8017 12.2062 19.8055 12.3083 19.8131 12.4067C19.8207 12.5051 19.8207 12.6034 19.8207 12.7018C19.8207 12.8607 19.8055 12.9969 19.7715 13.118C19.7374 13.2391 19.6731 13.3413 19.5747 13.4283C19.5747 13.3602 19.5747 13.258 19.5823 13.118C19.5899 12.978 19.5899 12.8759 19.5899 12.8078C19.5899 12.6943 19.5823 12.5883 19.5709 12.4975C19.5596 12.4067 19.5331 12.3235 19.4991 12.244C19.3704 11.9829 19.2115 11.7294 19.0185 11.4873C18.8256 11.2414 18.4775 10.8781 17.9743 10.3938C17.5392 9.96252 17.2478 9.67118 17.104 9.51227C16.79 9.17175 16.5516 8.86528 16.3852 8.5853C16.4268 8.61557 16.476 8.64583 16.5289 8.67231C16.5819 8.6988 16.6387 8.70258 16.6916 8.68745C16.5819 8.51719 16.4381 8.34693 16.2565 8.18045C16.1657 8.09721 15.9917 7.94966 15.7306 7.74534C15.6322 7.90425 15.5868 8.05938 15.5868 8.21829C15.5868 8.49071 15.776 8.83879 16.1582 9.26255C16.4117 9.54632 16.5743 9.73928 16.6387 9.83387C16.8581 10.1441 17.21 10.5225 17.7019 10.9689C18.084 11.3133 18.311 11.5214 18.3829 11.597C18.7461 11.9527 19.0072 12.2554 19.1623 12.5051C19.3855 12.857 19.4991 13.2202 19.4991 13.5948C19.3401 13.7688 19.1737 13.9315 18.9921 14.0753C18.8407 14.1963 18.6553 14.3212 18.4397 14.4461C18.417 14.465 18.1748 14.605 17.7208 14.8623C17.5921 14.9341 17.4559 15.0212 17.3046 15.1157C17.4484 15.0628 17.7359 14.9833 18.1635 14.885C18.591 14.7866 18.905 14.6806 19.1131 14.5709C19.4385 14.2455 19.6769 13.852 19.8207 13.3904C19.9417 13.0045 20.0023 12.5391 20.0023 12.0019C20.0023 11.6084 19.9644 11.1468 19.8925 10.6209C19.8207 10.0949 19.7488 9.59929 19.6845 9.13012L19.7942 8.94852C19.8434 9.01662 19.8963 9.08472 19.9569 9.15661C20.0174 9.2285 20.0742 9.27391 20.1309 9.29282V9.2966ZM15.0533 8.75176C15.0609 8.835 15.0382 8.91825 14.9928 8.99392C14.9474 9.06959 14.902 9.14526 14.8604 9.21715C14.7696 9.31552 14.6561 9.36093 14.5236 9.36093C14.4631 9.36093 14.4177 9.35336 14.3874 9.34201C14.3193 9.27391 14.2891 9.19444 14.2891 9.09607C14.2891 9.01283 14.3307 8.89554 14.4177 8.75176C14.5463 8.53988 14.6107 8.42639 14.6182 8.40747C14.6296 8.46801 14.6031 8.55881 14.5426 8.67989C14.4782 8.80096 14.448 8.88798 14.448 8.94473C14.448 9.01662 14.4858 9.07716 14.5577 9.12635C14.6258 9.13391 14.6788 9.12634 14.7166 9.11121C14.7544 9.09607 14.8112 9.06581 14.8831 9.01662C14.8755 8.96743 14.8377 8.9069 14.7696 8.83123C14.7015 8.75556 14.6636 8.70258 14.6636 8.67231C14.6636 8.62313 14.7015 8.57394 14.7809 8.52853C14.8188 8.54745 14.8604 8.57772 14.9096 8.62312C14.9588 8.66853 15.0079 8.71393 15.0533 8.75555V8.75176ZM14.4555 7.65453C14.0923 7.7529 13.661 7.8929 13.1653 8.08207C12.8854 8.18423 12.4616 8.34692 11.8941 8.57394C11.8108 8.58529 11.7352 8.63826 11.667 8.72906C11.6254 8.7896 11.5838 8.87285 11.5498 8.97501C12.4767 8.59286 13.4037 8.21072 14.3383 7.82101L14.4555 7.65832V7.65453ZM12.7302 10.2614C12.6319 10.4241 12.5373 10.5868 12.4389 10.7419C12.3481 10.723 12.2459 10.689 12.1286 10.6322C11.9962 10.5603 11.8941 10.5074 11.8297 10.4771C11.8524 10.3749 11.8978 10.2728 11.9584 10.1782C12.0189 10.0798 12.0908 9.97765 12.1778 9.86792C12.2913 9.91711 12.4086 9.96252 12.5221 10.0041C12.6508 10.0722 12.7189 10.1555 12.7302 10.2576V10.2614ZM16.2641 15.0552C16.1506 15.2595 15.9841 15.4298 15.7684 15.5622C15.5528 15.6946 15.3295 15.7627 15.0912 15.7627C14.9588 15.7627 14.8453 15.7476 14.7544 15.7136C14.6636 15.6795 14.5955 15.6152 14.5539 15.5168C14.5842 15.3768 14.6447 15.252 14.7393 15.1347C14.8339 15.0174 14.9512 14.9379 15.0874 14.8887C15.0458 14.8585 14.9815 14.832 14.902 14.8131C14.8188 14.7904 14.7469 14.7714 14.6788 14.7525C14.709 14.6239 14.7809 14.5633 14.8982 14.5633C14.9663 14.5633 15.0344 14.5785 15.1025 14.6125C15.1706 14.6466 15.2387 14.6769 15.3068 14.7071C15.3447 14.8358 15.2539 14.9568 15.0382 15.0779C14.8226 15.199 14.7166 15.2747 14.7166 15.3049C14.7166 15.373 14.8188 15.4411 15.0269 15.513C15.5187 15.513 15.9274 15.3579 16.2603 15.0514L16.2641 15.0552ZM10.8157 9.39876C10.7779 9.37985 10.7439 9.34957 10.706 9.30795C10.653 9.23985 10.6001 9.17175 10.5509 9.09986C10.5509 9.45173 10.5812 9.87549 10.6379 10.3749C10.6947 10.8744 10.7514 11.3549 10.8044 11.8127C10.812 11.9338 10.8195 12.0473 10.8271 12.157C10.8347 12.2667 10.8422 12.3916 10.8422 12.5278C10.8422 12.8986 10.8044 13.2315 10.7325 13.5342C10.6606 13.8369 10.532 14.132 10.3504 14.4234C10.4412 13.992 10.4866 13.5229 10.4866 13.0083C10.4866 12.5353 10.4487 12.0246 10.3768 11.4684C10.305 10.916 10.2293 10.3484 10.1536 9.76955C10.0779 9.19066 10.0401 8.69502 10.0401 8.28639L10.3314 7.74912C10.3504 7.81722 10.4412 8.08586 10.6039 8.55881C10.7174 8.89176 10.7893 9.17175 10.812 9.39498L10.8157 9.39876ZM18.224 11.824C18.1445 11.7711 18.0613 11.7219 17.9705 11.6803C17.8797 11.6386 17.7737 11.5932 17.6527 11.544C17.2781 11.4457 16.9035 11.3473 16.5365 11.2452C15.7722 11.0522 15.1328 10.9538 14.6107 10.9538C14.3383 10.9538 14.0583 10.9803 13.7745 11.037C13.5815 11.1506 13.4302 11.3322 13.3205 11.5819C13.2524 11.7257 13.1843 11.9527 13.1124 12.2554C13.1729 12.4559 13.3205 12.6224 13.5588 12.7548C13.6875 12.8229 13.8804 12.9288 14.1415 13.0726C13.7556 13.2315 13.3659 13.3867 12.9799 13.5456C12.6773 13.6666 12.367 13.8331 12.053 14.045C11.7995 14.219 11.5157 14.4423 11.1979 14.7071C10.653 15.1801 10.3768 15.4184 10.3731 15.426C10.0515 15.6909 9.76012 15.899 9.50284 16.0427C9.43095 16.0541 9.3742 16.0616 9.34014 16.0616C9.25691 16.0616 9.18123 16.0465 9.11313 16.0162C9.04503 15.986 8.99205 15.933 8.95044 15.8611C8.93152 15.7325 8.92395 15.6076 8.92395 15.479C8.92395 15.1347 8.99584 14.8017 9.13583 14.4801C9.27961 14.1585 9.48014 13.8672 9.7412 13.5985C9.7412 13.591 9.74877 13.5569 9.76769 13.4926C9.78661 13.4283 9.79417 13.3753 9.79417 13.3337C9.79417 13.2353 9.75634 13.1634 9.68445 13.1142C9.48014 13.0537 9.26447 13.0234 9.04124 13.0234C8.81801 13.0234 8.30723 13.118 7.48997 13.3034C7.11918 13.3866 6.80893 13.4321 6.55543 13.4321C6.44192 13.4434 6.04843 13.5191 5.37495 13.6591C4.87174 13.7612 4.45933 13.8142 4.14151 13.8142C3.78585 13.8142 3.47181 13.7612 3.20696 13.6515C2.89671 13.5229 2.63942 13.3185 2.42754 13.0348C2.37457 12.8948 2.34431 12.7548 2.34431 12.6072C2.34431 12.4597 2.36701 12.3083 2.40863 12.1608C2.45025 12.017 2.507 11.8808 2.57132 11.7597L2.88157 11.7408C3.05562 11.6311 3.16156 11.4154 3.19939 11.0862C3.20696 10.9879 3.2221 10.8479 3.2448 10.6587C3.2221 10.7003 3.19939 10.7419 3.17669 10.7873C3.15399 10.829 3.14642 10.8706 3.14642 10.916C3.11616 10.9765 3.07832 11.0181 3.03292 11.037C2.98751 11.0598 2.91184 11.0635 2.80212 11.0522C2.62807 10.8592 2.53727 10.6095 2.53727 10.3068C2.53727 10.1025 2.5751 9.86414 2.65456 9.59929C2.68483 9.48957 2.7605 9.2739 2.88157 8.95608C2.68861 9.23607 2.53727 9.51984 2.42754 9.81117C2.29512 10.1555 2.22701 10.4846 2.22701 10.7911C2.22701 10.9425 2.24972 11.1014 2.29134 11.2641C2.33295 11.4268 2.39349 11.5743 2.47295 11.7105C2.28377 12.157 2.17783 12.4143 2.15513 12.4748C2.05297 12.7662 2 13.0348 2 13.2845C2 13.3337 2.00757 13.4131 2.01892 13.5191C2.26863 13.8634 2.5751 14.1131 2.94589 14.2644C3.25993 14.3931 3.63829 14.4536 4.08097 14.4536C4.45176 14.4536 4.90201 14.4006 5.43549 14.2985C5.73061 14.2455 6.16951 14.1547 6.74461 14.0261C7.1154 13.9277 7.48619 13.8331 7.86076 13.7347C8.09535 13.6742 8.32236 13.6439 8.53424 13.6439C8.66288 13.6439 8.76882 13.6553 8.85963 13.6742C8.95044 13.6969 9.03367 13.7196 9.10556 13.7423C9.12826 13.8255 9.08286 13.9201 8.96179 14.0223C8.80288 14.1623 8.71964 14.238 8.70829 14.2493L8.6818 14.2228C8.46235 14.3931 8.25047 14.5633 8.03859 14.7298C7.78509 14.9304 7.63375 15.1347 7.58456 15.3466C7.79644 15.1839 8.04994 15.006 8.34885 14.8093C8.60235 14.6466 8.85585 14.4839 9.11313 14.3174C8.9807 14.6125 8.89368 14.8282 8.84828 14.9606C8.76504 15.2141 8.71964 15.4411 8.71964 15.6417C8.71964 15.9141 8.78774 16.1449 8.92773 16.3303C9.01097 16.3984 9.11691 16.4286 9.24555 16.4286C9.29852 16.4286 9.37041 16.4211 9.45744 16.4022C9.54446 16.3832 9.61256 16.3681 9.66175 16.3568C10.532 15.6833 11.0238 15.3049 11.1336 15.2217C11.4552 14.9871 11.7541 14.779 12.0341 14.605C12.4881 14.3136 12.9118 14.0828 13.3053 13.9164C13.7707 13.712 14.2285 13.5683 14.675 13.4888C14.7128 13.5077 14.7469 13.5494 14.7809 13.6212C14.815 13.6893 14.849 13.7347 14.8869 13.7537L14.9058 13.4283C15.2614 13.3261 15.636 13.2164 16.0219 13.1029C16.4079 12.9894 16.8089 12.8683 17.2213 12.7472C17.5165 12.664 17.7435 12.5543 17.8948 12.4218L18.2505 11.824H18.224ZM6.68407 8.25612L6.6765 8.45665C6.64624 8.47556 6.60462 8.47178 6.55543 8.44908C6.50246 8.42638 6.46841 8.41124 6.44949 8.41124C6.3776 8.52475 6.31328 8.77447 6.26031 9.15661C6.23761 9.34579 6.19599 9.49714 6.14302 9.61064C6.07492 9.53119 6.01059 9.40633 5.94627 9.2285C5.88195 9.05445 5.8252 8.92959 5.7798 8.8577C5.75709 8.89932 5.72683 8.92203 5.68899 8.92203C5.67764 8.92203 5.6398 8.91447 5.57927 8.90312C5.51873 8.83123 5.47711 8.77826 5.45062 8.74799C5.40144 8.68745 5.37874 8.63069 5.37874 8.57394C5.37874 8.54367 5.3863 8.50962 5.40522 8.47557L5.5944 8.29395C5.72683 8.39233 5.83655 8.53988 5.91979 8.74041C6.05978 9.0658 6.13167 9.23228 6.13924 9.23985C6.17707 9.16796 6.21112 8.975 6.24896 8.65717C6.2868 8.33935 6.41165 8.18423 6.6311 8.18423L6.68407 8.25612ZM8.09156 11.3435C8.11048 11.4154 8.10291 11.4911 8.07265 11.5705C8.01968 11.6689 7.97806 11.7408 7.95535 11.79C7.944 11.79 7.91373 11.7976 7.86833 11.8127C7.82293 11.8278 7.78888 11.8278 7.76239 11.8089C7.6905 11.7181 7.65267 11.6235 7.65267 11.5289C7.65267 11.4192 7.69429 11.283 7.78131 11.1203C7.82293 11.0484 7.86455 10.9727 7.90995 10.8933C7.90995 10.9349 7.8986 10.9917 7.87212 11.0673C7.81915 11.2262 7.78888 11.3246 7.78888 11.3662C7.78888 11.4381 7.82293 11.5062 7.88725 11.5667C7.92509 11.5667 7.95535 11.5327 7.98562 11.4684C8.01589 11.4003 8.04994 11.3624 8.084 11.3511L8.09156 11.3435ZM6.76731 9.87171C6.71434 10.0344 6.6084 10.1706 6.44949 10.2765C6.29058 10.3825 6.1241 10.443 5.94249 10.4619C5.96141 10.409 6.02194 10.3598 6.1241 10.3182C6.36625 10.216 6.51003 10.129 6.55165 10.0647C6.51003 10.0571 6.42679 10.0458 6.30193 10.0268C6.17707 10.0079 6.08627 10.0004 6.02573 10.0004C5.91222 10.0004 5.81385 10.0231 5.73439 10.0722C5.81385 9.96252 5.86303 9.8982 5.87817 9.88306C5.93871 9.82252 6.00681 9.78469 6.08627 9.77333C6.32085 9.77333 6.54786 9.80739 6.76731 9.87171ZM4.73174 11.3965C4.69391 11.5857 4.65986 11.7067 4.62202 11.7635C4.58418 11.8203 4.52743 11.8619 4.44798 11.8846C4.40636 11.8656 4.36474 11.8467 4.33069 11.8203C4.29285 11.7976 4.27393 11.7673 4.26636 11.7332C4.2588 11.6992 4.2588 11.6576 4.2588 11.6122C4.2588 11.5289 4.2815 11.4381 4.32312 11.3473C4.36474 11.2565 4.40636 11.1695 4.45176 11.0825C4.45176 11.1052 4.44041 11.1619 4.42149 11.2452C4.39879 11.3284 4.39122 11.3927 4.39122 11.4343C4.39122 11.5138 4.42906 11.5743 4.50095 11.6159C4.56148 11.6235 4.60689 11.5857 4.64094 11.51C4.67499 11.4343 4.70526 11.3927 4.73553 11.3889L4.73174 11.3965ZM6.12032 15.4449C6.02951 15.6492 5.90087 15.8422 5.73061 16.0162C5.5717 15.9179 5.45819 15.8422 5.3863 15.7892C5.25388 15.6909 5.17821 15.5963 5.15929 15.4979L5.53008 15.0363C5.74196 15.1271 5.93871 15.2633 6.12032 15.4449ZM17.1457 12.1683C16.3398 12.4294 15.5452 12.6526 14.7582 12.8418C14.675 12.6375 14.4934 12.4521 14.2134 12.2894C13.8426 12.07 13.6232 11.9262 13.5513 11.8543C13.6194 11.7711 13.7026 11.7105 13.8048 11.6765C13.9069 11.6424 14.028 11.6273 14.168 11.6273C14.2399 11.6273 14.3534 11.6349 14.5047 11.6462C14.6561 11.6576 14.762 11.6651 14.8226 11.6651C15.1177 11.7257 15.4166 11.7824 15.7117 11.8392C16.3095 11.9527 16.79 12.0662 17.1457 12.1759V12.1683Z" fill="white"/>
</svg>
