<svg width="24" height="24" viewBox="0 0 24 24" fill="none" xmlns="http://www.w3.org/2000/svg">
<path fill-rule="evenodd" clip-rule="evenodd" d="M21.9951 8.80858C21.9951 8.80858 21.9462 8.85263 21.9266 8.86731C21.8581 8.82816 21.7993 8.75963 21.7504 8.66663C21.6427 8.43168 21.5644 8.29952 21.5154 8.26526L21.4322 8.39252C21.4322 8.75473 21.5301 9.5379 21.7259 10.7518C21.8287 11.3783 21.8776 11.8629 21.8776 12.2104C21.9266 12.6314 21.9462 13.0572 21.9462 13.4782C21.9462 13.9334 21.9119 14.3592 21.8483 14.7508C21.7797 15.1473 21.6721 15.5389 21.5154 15.9305H21.4909C21.4909 15.0396 21.4518 14.1145 21.3784 13.16C21.3049 12.2055 21.2022 11.1532 21.0651 9.998C20.8448 8.08905 20.7372 7.11988 20.7372 7.09541C20.791 6.95346 20.8448 6.81151 20.9036 6.65978C20.9721 6.50314 21.0602 6.38567 21.163 6.30735C21.3735 6.86536 21.5252 7.27652 21.6231 7.54083C21.7944 8.01073 21.9217 8.43168 22 8.79879L21.9951 8.80858ZM17.5751 6.16541C17.4821 6.27309 17.35 6.37099 17.1884 6.45909C17.0612 6.52272 16.9046 6.58635 16.7186 6.65488C16.5325 6.72341 16.3857 6.77236 16.2829 6.80172C16.1018 6.86536 15.955 6.92899 15.8375 6.98773C15.9158 6.86046 16.0186 6.76257 16.141 6.68425C16.2682 6.60593 16.4249 6.53251 16.6207 6.45909L17.5702 6.16541H17.5751ZM17.6094 7.65831C17.5017 7.82473 17.3059 7.96668 17.022 8.09394C16.7871 8.19673 16.557 8.29952 16.327 8.39742C16.3123 8.34357 16.3319 8.27994 16.3906 8.20163C16.4493 8.12821 16.513 8.07926 16.5864 8.05478C16.4591 7.99115 16.3857 7.9471 16.3612 7.92752C16.2927 7.87368 16.2389 7.80026 16.2095 7.71705C16.2584 7.5702 16.327 7.43315 16.4151 7.31567C16.5032 7.1982 16.6109 7.12967 16.7381 7.1052C16.9094 7.1052 17.0269 7.17373 17.0906 7.31567C17.0906 7.36462 17.071 7.41357 17.0318 7.46252C16.9927 7.51147 16.9486 7.5702 16.9046 7.63383C16.9143 7.58489 16.8997 7.54573 16.8654 7.51146C16.8311 7.4772 16.7822 7.43315 16.7186 7.3891C16.6011 7.37441 16.513 7.40867 16.4591 7.49678C16.606 7.70726 16.8018 7.81494 17.0465 7.81494C17.0857 7.81494 17.1346 7.80515 17.1982 7.79047C17.2912 7.75131 17.3696 7.72194 17.4332 7.69747C17.4968 7.67299 17.5556 7.6632 17.6094 7.6632V7.65831ZM19.6897 12.5922C19.6897 12.044 19.626 11.4126 19.5037 10.7029C19.4156 10.2232 19.2932 9.63579 19.1268 8.94074C19.1268 8.92605 19.0974 8.7841 19.0436 8.51979C19.0289 8.44147 19.0191 8.35826 19.0191 8.27505C19.0191 8.16736 19.0485 8.06947 19.1023 7.98136C19.1659 8.06947 19.2394 8.15757 19.3324 8.24568C19.4205 8.33379 19.5037 8.40231 19.5722 8.44147L19.6407 8.40721C19.5477 8.07926 19.4009 7.72194 19.2051 7.33036C19.0093 6.94367 18.8233 6.56678 18.6422 6.20946C18.5394 6.27798 18.4562 6.41504 18.3975 6.61083C18.3681 6.71362 18.3191 6.86046 18.2555 7.05625C18.2849 7.20309 18.4856 8.20163 18.8527 10.0421C19.0191 10.8644 19.1415 11.4566 19.2296 11.814C19.2687 12.0391 19.3079 12.2839 19.3519 12.5433C19.396 12.8027 19.4156 13.023 19.4156 13.2139C19.4156 13.4243 19.3862 13.6201 19.3275 13.8012C19.2687 13.9823 19.1708 14.1341 19.0387 14.2613C19.0289 14.183 19.024 14.1047 19.0142 14.0264C19.0142 13.997 19.0142 13.953 19.024 13.8991V13.674C19.024 13.3901 18.9897 13.1111 18.9261 12.8321C18.8576 12.5531 18.7695 12.2985 18.652 12.0636C18.5051 11.7748 18.3289 11.4958 18.1233 11.2315C17.952 11.0112 17.7269 10.7616 17.4528 10.4777C16.9535 9.99311 16.4493 9.50853 15.9501 9.01905C15.6466 8.73026 15.4019 8.48063 15.2208 8.27994C14.976 8.00584 14.7704 7.74152 14.5991 7.4821C14.6236 7.45762 14.653 7.44783 14.6921 7.44783C14.7068 7.44783 14.7509 7.46252 14.8292 7.48699C14.9026 7.51636 14.9613 7.51147 15.0005 7.4821C14.8732 7.31078 14.6579 7.12478 14.3544 6.92899C13.9922 6.69404 13.767 6.53251 13.674 6.4493C13.6055 6.56678 13.5565 6.68425 13.5272 6.80662C13.4978 6.92899 13.488 7.07094 13.488 7.23736L14.3446 8.35336C14.5795 8.65684 14.8439 8.96031 15.1424 9.2589C15.2991 9.41553 15.4802 9.58684 15.6809 9.77774L17.1493 11.1532C17.4087 11.4126 17.629 11.6524 17.8052 11.8825C18.0157 12.1419 18.2017 12.3964 18.3583 12.6461C18.5443 12.9691 18.6862 13.2628 18.7744 13.5369C18.8625 13.811 18.9114 14.1096 18.9114 14.4278C18.5443 14.8487 18.0597 15.2354 17.4674 15.578C16.929 15.8521 16.3906 16.1262 15.8571 16.4004C16.327 16.4004 16.7626 16.3563 17.1689 16.2633C17.5702 16.1752 17.9422 16.0186 18.28 15.7983C18.8037 15.4557 19.1806 14.9858 19.4058 14.3886C19.5918 13.904 19.6897 13.3069 19.6897 12.602V12.5922ZM13.0083 8.27015C12.9936 8.45615 12.9153 8.62747 12.7783 8.77921C12.6412 8.93095 12.4748 9.04353 12.279 9.11205C12.186 9.11205 12.1077 9.07779 12.0441 9.00437C12.0196 8.975 11.9951 8.92605 11.9608 8.86242C11.9608 8.70579 11.9951 8.54915 12.0685 8.39252C12.1175 8.28973 12.1958 8.14778 12.3133 7.97157L12.3377 8.03031L12.4063 7.90305C12.514 7.95199 12.6314 7.99115 12.7489 8.03031C12.8762 8.08415 12.9594 8.16247 13.0083 8.26526V8.27015ZM8.86246 7.86878C8.87714 7.9471 8.87225 8.03031 8.83798 8.11352C8.78414 8.22121 8.74498 8.29952 8.72051 8.34847C8.61772 8.48063 8.51982 8.52468 8.42682 8.47573C8.3583 8.35826 8.31914 8.21142 8.31914 8.0401C8.31914 7.86878 8.3534 7.68768 8.42682 7.50168C8.45619 7.42336 8.5394 7.25694 8.67156 7.0073C8.64219 7.07094 8.60303 7.16394 8.56388 7.2912C8.50024 7.4772 8.47088 7.65341 8.47088 7.81005C8.47088 7.96668 8.50024 8.09884 8.55409 8.21142C8.62261 8.19673 8.68625 8.13799 8.74009 8.0401C8.79393 7.9422 8.83309 7.88347 8.85756 7.86878H8.86246ZM6.81645 8.27015C6.78708 8.46594 6.72345 8.65684 6.63045 8.84774C6.49829 9.09247 6.40039 9.26868 6.33676 9.37637H6.28781C6.41997 9.17079 6.52276 8.95542 6.60108 8.73026C6.6745 8.5051 6.71366 8.27015 6.71366 8.02542C6.71366 7.78068 6.6696 7.56531 6.58639 7.36952C6.58639 7.2912 6.53744 7.18352 6.43955 7.04646C6.34165 6.90941 6.29271 6.81151 6.29271 6.75767C6.29271 6.67936 6.33676 6.61083 6.41997 6.5472C6.55213 6.71851 6.66471 6.9192 6.74792 7.13946C6.83603 7.36462 6.87518 7.58978 6.87518 7.81494C6.87518 7.99605 6.8556 8.14778 6.81645 8.27505V8.27015ZM16.9682 13.0377C16.7332 13.1698 16.3612 13.3999 15.8522 13.718C15.069 14.1586 14.3886 14.3739 13.8062 14.3739C13.5859 14.3739 13.3754 14.3446 13.1698 14.2907C12.9643 14.2369 12.7685 14.1439 12.5727 14.0068C12.2888 13.7719 12.1028 13.4978 12.0049 13.1894C11.907 12.881 11.8581 12.5041 11.8581 12.0685C12.2007 11.8189 12.5825 11.6475 13.0034 11.5594C13.4244 11.4713 13.8943 11.4224 14.418 11.4224C14.5208 11.4322 14.7509 11.4762 15.118 11.5594C15.4802 11.6426 15.6858 11.7063 15.7249 11.7552C15.5291 11.4175 15.255 11.163 14.9075 10.9916C14.56 10.8203 14.1831 10.7322 13.7866 10.7322C13.6202 10.7322 13.4635 10.742 13.3069 10.7665C12.8762 10.835 12.4846 11.0308 12.1371 11.349C11.7895 11.6671 11.535 12.0342 11.3784 12.4601C11.3686 12.5139 11.3588 12.5873 11.349 12.6852C11.3392 12.7782 11.3294 12.8663 11.3294 12.9447C11.3294 13.2579 11.3735 13.5614 11.4567 13.8502C11.5448 14.139 11.6672 14.3984 11.8336 14.6236C11.7797 14.6236 11.7112 14.6089 11.6329 14.5746C11.5546 14.5452 11.5007 14.5257 11.4665 14.5159C11.2022 14.3837 10.9868 14.1928 10.8204 13.9481C10.6539 13.7033 10.556 13.439 10.5169 13.1551C10.5169 12.5531 10.4924 11.8238 10.4484 10.9721C10.3994 10.1204 10.3554 9.26379 10.3113 8.40721C10.2673 7.55062 10.2477 6.81641 10.2477 6.20456C10.1449 6.25841 10.0617 6.3612 10.0029 6.50804C9.97357 6.58635 9.91973 6.71362 9.8512 6.88494C9.8512 7.32546 9.87078 7.89326 9.91483 8.5981C9.95888 9.30295 9.99804 9.97843 10.0372 10.6196C10.0764 11.2609 10.0959 11.8776 10.0959 12.465C9.7533 12.8076 9.30788 13.0817 8.76946 13.2873C8.45619 13.4048 7.94714 13.5516 7.24229 13.7229C7.16397 13.8649 7.08566 14.0068 7.01224 14.1537C6.93882 14.3005 6.89966 14.4376 6.89966 14.5697C7.73177 14.5697 8.45619 14.7753 9.08272 15.1913C8.36809 15.6906 7.67792 16.0822 7.00245 16.3661C6.25844 16.6794 5.48997 16.8703 4.70191 16.9437C4.2467 16.9437 3.84043 16.8605 3.47332 16.6989C3.11111 16.5325 2.82232 16.278 2.61185 15.9256C2.50906 15.7151 2.46011 15.485 2.46011 15.2452C2.46011 14.9613 2.54821 14.5991 2.72932 14.1537C2.82232 13.9187 2.95937 13.5908 3.14048 13.1649C3.2188 13.0181 3.3069 12.8614 3.3999 12.695C3.4929 12.5286 3.61038 12.4503 3.75232 12.4503C3.7768 12.4503 3.82085 12.4601 3.87959 12.4748C4.0607 12.3279 4.20264 12.1076 4.31522 11.8189C4.35438 11.7259 4.4278 11.4762 4.54038 11.0797C4.47675 11.1042 4.40822 11.1972 4.32991 11.3539C4.25159 11.5154 4.14391 11.5839 4.01175 11.5594C3.87959 11.393 3.78659 11.2364 3.73764 11.0895C3.68869 10.9427 3.65932 10.7714 3.65932 10.5854C3.65932 10.1791 3.85022 9.63579 4.23691 8.95053C4.54038 8.4121 4.7068 8.11842 4.73128 8.06947C4.47186 8.37294 4.28585 8.60789 4.16838 8.77431C3.81596 9.2589 3.55164 9.70432 3.37543 10.1155C3.19922 10.5217 3.11111 10.9084 3.11111 11.2657C3.11111 11.4517 3.13559 11.628 3.18943 11.7944C3.23838 11.9608 3.31669 12.1125 3.41948 12.2545C2.8419 13.4048 2.52863 14.0313 2.47969 14.1341C2.29858 14.5403 2.16153 14.9417 2.06853 15.3333C2.01958 15.5193 2 15.7004 2 15.8717C2 16.4444 2.21537 16.9094 2.64611 17.2716C2.94469 17.4821 3.23348 17.6289 3.50759 17.7122C3.78659 17.7954 4.09496 17.8345 4.44249 17.8345C5.05433 17.8345 5.75918 17.6681 6.55702 17.3304C6.92413 17.1737 7.57024 16.8507 8.49535 16.3563C8.8233 16.1997 9.09251 15.9402 9.30788 15.5829C9.4743 15.3088 9.61136 14.9662 9.71904 14.5599C9.65541 14.4033 9.51836 14.276 9.30788 14.183C9.0093 14.0509 8.84777 13.9726 8.81351 13.9481C9.07783 13.8208 9.31278 13.6838 9.51836 13.5271C9.76799 13.3411 9.95399 13.1453 10.0715 12.9398C10.1106 13.2677 10.1547 13.5957 10.1987 13.9285C10.3015 14.6089 10.5512 15.0788 10.9525 15.3382C11.1973 15.4801 11.4371 15.578 11.6769 15.6319C11.9168 15.6857 12.1664 15.7151 12.4356 15.7151C12.8566 15.7151 13.3118 15.6466 13.7964 15.5046C14.1488 15.4018 14.5697 15.2452 15.0543 15.0347C15.3431 14.9026 15.6123 14.7557 15.8669 14.5991C16.1557 14.4131 16.3906 14.2173 16.5717 14.0215L16.9829 13.0572L16.9682 13.0377ZM15.2159 17.066C15.0103 17.2325 14.7998 17.3597 14.5795 17.4576C14.3593 17.5555 14.139 17.6045 13.909 17.6045C13.6789 17.6045 13.488 17.5506 13.2971 17.438C13.258 17.3989 13.2384 17.3401 13.2384 17.2618C13.2384 17.1982 13.258 17.1395 13.2971 17.0856C13.4048 16.9681 13.5174 16.8507 13.6251 16.7332C13.537 16.6842 13.4782 16.6353 13.4391 16.5815C13.3999 16.5276 13.3803 16.4738 13.3803 16.4297C13.3803 16.3857 13.4146 16.3367 13.488 16.2878C13.5761 16.1997 13.6397 16.1409 13.6887 16.1116C13.767 16.0577 13.8453 16.0284 13.9236 16.0284C13.9775 16.0284 14.0313 16.0528 14.0754 16.0969C14.0754 16.1458 14.0558 16.185 14.0166 16.2192C13.9775 16.2535 13.9383 16.2927 13.8992 16.3318C13.86 16.3465 13.8209 16.3367 13.7866 16.3025C13.7523 16.2682 13.7132 16.2682 13.674 16.3074C13.7425 16.415 13.8404 16.4738 13.9579 16.4738C14.0264 16.4738 14.1145 16.4542 14.2222 16.415C14.3299 16.3759 14.3984 16.3563 14.4278 16.3563C14.3886 16.4444 14.1782 16.5815 13.7915 16.7773C13.6251 16.8654 13.5467 16.9437 13.5467 17.022C13.5467 17.1003 13.5908 17.1835 13.674 17.2667C13.7915 17.2912 13.9139 17.301 14.0362 17.301C14.2614 17.301 14.511 17.2667 14.7753 17.1933C14.8781 17.1688 15.0201 17.1248 15.211 17.0514L15.2159 17.066ZM6.96818 11.0651C6.98287 11.1434 6.98287 11.2119 6.96329 11.2755C6.94371 11.3392 6.90455 11.3636 6.85071 11.3587C6.79687 11.3098 6.74303 11.2609 6.69897 11.207C6.64513 11.1581 6.58639 11.1287 6.52276 11.114C6.50808 11.1679 6.49339 11.256 6.4885 11.3734C6.47871 11.4909 6.47871 11.5839 6.47871 11.6573V11.7993C6.47871 12.0881 6.45913 12.2888 6.41508 12.3964C6.37102 12.5041 6.2976 12.5971 6.18502 12.6656C6.17523 12.6559 6.10671 12.4748 5.97455 12.1125C5.88644 11.8923 5.75428 11.8042 5.57318 11.8433C5.47039 11.814 5.41165 11.7699 5.39697 11.7161C5.41165 11.6084 5.42633 11.4958 5.44591 11.3881C5.47528 11.2706 5.5536 11.2021 5.67107 11.1776C5.8277 11.2706 5.96965 11.5007 6.09202 11.858C6.16055 12.0538 6.23886 12.2006 6.31718 12.2936C6.31718 11.8629 6.32697 11.5496 6.34655 11.349C6.36613 11.1483 6.43955 10.9574 6.56192 10.7812C6.65002 10.8056 6.72834 10.8399 6.80666 10.8889C6.88497 10.9378 6.93882 10.9965 6.97308 11.0749L6.96818 11.0651ZM5.02007 14.4376C5.02007 14.7117 4.92217 14.927 4.72638 15.0837C4.65786 15.0983 4.59912 15.0739 4.55017 15.0005C4.50122 14.9075 4.47185 14.8438 4.46207 14.8145C4.45228 14.7851 4.44249 14.7312 4.44249 14.6627C4.44249 14.5061 4.46207 14.3641 4.50612 14.2418C4.55017 14.1145 4.62359 13.9774 4.72149 13.8208C4.7068 13.8844 4.68233 13.9774 4.65296 14.1096C4.62359 14.2369 4.60401 14.3397 4.60401 14.4082C4.60401 14.555 4.65296 14.6774 4.74596 14.7704C4.7998 14.7557 4.84386 14.7166 4.86833 14.6578C4.8977 14.5991 4.92707 14.5257 4.96623 14.4424H5.01517L5.02007 14.4376ZM12.7146 8.5981C12.7538 8.51 12.7391 8.44636 12.6657 8.39742C12.5335 8.32889 12.4014 8.25057 12.279 8.17226L12.2301 8.26526C12.1909 8.34357 12.1713 8.43168 12.1713 8.52468C12.1713 8.64216 12.2056 8.72047 12.279 8.75963C12.372 8.7841 12.465 8.75963 12.5482 8.70089C12.6363 8.63726 12.6902 8.603 12.7146 8.59321V8.5981Z" fill="white"/>
</svg>
