<svg width="24" height="24" viewBox="0 0 24 24" fill="none" xmlns="http://www.w3.org/2000/svg">
<path fill-rule="evenodd" clip-rule="evenodd" d="M22 8.76119C21.971 8.65226 21.9056 8.53606 21.8112 8.40534C21.7168 8.27463 21.6224 8.14391 21.5352 8.02045L21.3464 8.35451C21.3464 8.82655 21.3827 9.36395 21.4626 9.95218C21.6587 11.4337 21.7531 12.3487 21.7531 12.6973V13.2492C21.7531 14.0553 21.7313 14.6726 21.6805 15.1083C21.6006 15.7837 21.4481 16.3792 21.2157 16.8948C21.2738 16.3211 21.3028 15.7547 21.3028 15.1955C21.3028 14.4039 21.2447 13.4816 21.1358 12.4431C21.0269 11.4046 20.9107 10.3371 20.7945 9.24775C20.6783 8.15843 20.6202 7.25792 20.6202 6.55349L21.114 5.75465C21.3246 6.19765 21.5134 6.69873 21.6805 7.25792C21.8475 7.81711 21.9492 8.3182 22 8.76119ZM15.4786 6.08871L15.2317 5.91442C14.9121 6.35741 14.5345 6.74957 14.0988 7.07637C13.7139 7.36685 13.2636 7.62103 12.748 7.83163C13.329 7.42495 13.7284 7.13447 13.9535 6.96018C14.4256 6.58254 14.8177 6.21217 15.1155 5.8418C15.0864 5.80549 15.0065 5.74013 14.8831 5.66025C14.7596 5.58036 14.6943 5.48596 14.6943 5.37702C14.716 5.26083 14.7741 5.13737 14.8758 5.00665C14.9775 4.87593 15.0864 4.78879 15.2026 4.75248C15.268 4.72343 15.3333 4.73795 15.3842 4.78878C15.435 4.83962 15.4713 4.90498 15.4786 4.97034C15.4495 5.05748 15.435 5.13737 15.435 5.20273C15.435 5.28987 15.4641 5.39881 15.5221 5.52226C15.5802 5.64572 15.6093 5.74739 15.6093 5.81275C15.6093 5.90716 15.5657 6.00157 15.4786 6.08871ZM15.9434 7.71544C16.0015 7.57745 16.0378 7.48305 16.0523 7.41769C16.0668 7.35233 16.0741 7.26518 16.0741 7.14899C16.0741 6.95291 16.0232 6.77862 15.9288 6.62611C15.8707 6.68421 15.8417 6.75683 15.8417 6.84398C15.8417 6.87303 15.8562 6.93839 15.878 7.0328C15.8998 7.1272 15.9143 7.20709 15.9143 7.26518C15.9143 7.32328 15.8998 7.37412 15.8707 7.42495C15.6747 7.44674 15.5657 7.32328 15.5439 7.06185C15.5222 6.80041 15.5004 6.65516 15.4786 6.62611C15.3914 6.71326 15.3479 6.83672 15.3479 7.00375C15.3479 7.15625 15.3696 7.30876 15.4205 7.454C15.3551 7.59925 15.2534 7.67186 15.1155 7.67186C14.9702 7.62103 14.8976 7.54115 14.8976 7.42495C14.8976 7.41769 14.9194 7.31602 14.9557 7.13447C14.963 7.08363 14.9702 7.02553 14.9702 6.96018C14.9702 6.88029 14.9484 6.80767 14.9121 6.74231C14.7887 6.96744 14.7233 7.21435 14.7233 7.49757C14.7233 7.70818 14.7669 7.88247 14.854 8.02045C14.9121 8.0495 14.9702 8.06402 15.0283 8.06402C15.1227 8.06402 15.2171 8.03498 15.3043 7.96962C15.3914 7.90426 15.4568 7.8389 15.5076 7.75901L15.5802 7.80258C15.5802 7.80258 15.6529 7.83163 15.711 7.83163C15.8272 7.83163 15.907 7.79532 15.9434 7.71544ZM16.2629 9.51645C16.1467 9.74884 16.0595 9.91587 16.0015 10.0248C15.8853 10.2281 15.7618 10.3516 15.6383 10.3879C15.602 10.3371 15.4423 10.2354 15.159 10.0684C14.9557 9.95219 14.854 9.82147 14.854 9.67622C14.9121 9.53824 14.9775 9.40026 15.0574 9.24775C15.1373 9.09525 15.2389 8.97905 15.3624 8.89191C15.5585 8.97179 15.7255 9.05894 15.8707 9.15335C16.016 9.24775 16.1467 9.37121 16.2629 9.51645ZM13.1111 5.63846C12.1162 6.05241 11.1213 6.46635 10.1336 6.87303C10.0102 6.93839 9.9085 7.01827 9.83587 7.10542C9.76325 7.19256 9.72694 7.29423 9.72694 7.41043C10.0683 7.20709 10.4677 7.01101 10.9325 6.81493C11.2012 6.706 11.6224 6.53897 12.1816 6.30658C12.3631 6.2267 12.5592 6.14681 12.7553 6.0524C12.9513 5.958 13.0748 5.82002 13.1111 5.63846ZM16.3791 11.8839C16.4081 12.0074 16.3718 12.1526 16.2629 12.3197C16.1975 12.1962 16.1176 12.1744 16.0305 12.2616C16.0232 12.2833 15.9361 12.5884 15.7691 13.1766C15.711 13.3727 15.6383 13.5324 15.5512 13.6704C15.5294 13.6486 15.4641 13.4961 15.3479 13.2056C15.268 13.0096 15.1663 12.9224 15.0428 12.9297L14.9847 12.9878C14.8976 12.9369 14.825 12.8716 14.7669 12.7844C14.7088 12.661 14.6652 12.5666 14.6362 12.5085C14.6362 12.4213 14.6652 12.3269 14.7233 12.218C14.7814 12.109 14.825 12.0292 14.854 11.9711C15.0356 12.0582 15.1881 12.2252 15.3043 12.4649C15.4205 12.7045 15.5294 12.9369 15.6383 13.1475C15.7182 12.828 15.7981 12.5012 15.8853 12.1744C15.9797 11.9783 16.1467 11.8839 16.3791 11.8839ZM11.1939 9.08073C11.1939 9.26228 11.1794 9.42205 11.1503 9.55277C11.1213 9.68349 11.0414 9.77063 10.9179 9.82146C10.7945 9.82873 10.7073 9.77789 10.6565 9.6617C10.6057 9.5455 10.5766 9.46562 10.5694 9.41478C10.5621 9.36395 10.5548 9.28406 10.5548 9.16787C10.5548 8.96453 10.5911 8.75393 10.6638 8.54333C10.7364 8.33272 10.8308 8.1439 10.947 7.97687C10.8671 8.29641 10.7945 8.61594 10.7146 8.93548C10.7146 9.13882 10.7945 9.30585 10.947 9.42931C10.9833 9.40752 11.0269 9.34942 11.0632 9.25502C11.0995 9.16061 11.1431 9.10251 11.1939 9.08073ZM18.703 13.9754C18.703 13.0749 18.5723 11.804 18.3108 10.1701C18.1583 9.21144 18.0421 8.46344 17.9768 7.9333L18.0349 7.75901L18.6594 8.41261C18.6013 8.06402 18.4561 7.61377 18.2237 7.06185C18.0276 6.62612 17.8388 6.18312 17.6572 5.74013C17.5338 5.82728 17.4248 5.97252 17.3377 6.17586C17.2869 6.28479 17.2215 6.44456 17.1343 6.66969C17.5047 8.7394 17.7226 9.9885 17.7879 10.4024C17.9913 11.6515 18.1728 12.9224 18.3253 14.2078C18.0058 14.4402 17.5556 14.6581 16.9746 14.8614C16.6623 14.9703 16.1903 15.1301 15.5512 15.3552C15.1155 15.5223 14.687 15.7401 14.2585 16.0234C13.9172 16.2485 13.5251 16.539 13.0821 16.8948C12.4139 17.454 12.029 17.7735 11.9346 17.8534C11.4989 18.1802 11.085 18.4416 10.6855 18.6232C10.5694 18.645 10.4749 18.6523 10.4096 18.6523C10.1481 18.6523 9.93755 18.5724 9.78504 18.4053C9.61801 18.173 9.53813 17.926 9.53813 17.6646C9.53813 17.3669 9.64706 17.0037 9.87219 16.5753C9.98838 16.3429 10.1772 16.0016 10.4386 15.5586C10.0828 15.987 9.80683 16.4083 9.61075 16.8295C9.41467 17.2507 9.29847 17.7154 9.24764 18.2165C9.21133 18.4417 9.29121 18.6523 9.49455 18.8556C9.60349 18.9645 9.7923 19.0952 10.061 19.2623C10.5258 19.2623 10.9833 19.1461 11.4408 18.9137C11.7821 18.7394 12.1816 18.4634 12.6463 18.0858C13.3217 17.5266 13.7139 17.2071 13.8228 17.1272C14.2803 16.8004 14.7088 16.5825 15.1155 16.4881C15.8635 16.2194 16.6115 15.9435 17.3667 15.6602C18.26 15.3189 18.703 14.7597 18.703 13.9754ZM12.3268 15.3988C12.3631 15.4642 12.3849 15.5368 12.3849 15.6022C12.3849 15.653 12.3704 15.7111 12.3413 15.7764C12.2614 15.958 12.2179 16.0597 12.2106 16.0814C12.1598 16.1178 12.0871 16.1395 11.9782 16.1395C11.9129 16.1395 11.8184 16.1323 11.7023 16.1105L11.6442 16.0379C11.4916 16.3211 11.2302 16.5535 10.8598 16.7496C10.4241 16.9457 10.1046 17.0836 9.90123 17.1708C9.98838 17.0618 10.3152 16.844 10.8744 16.5172C11.2883 16.263 11.5207 15.958 11.5715 15.6022C11.6514 15.4787 11.724 15.377 11.7894 15.3117C11.9056 15.2027 12.0073 15.1519 12.0944 15.1519C12.1888 15.1519 12.2687 15.2318 12.3268 15.3988ZM6.28468 6.45182L6.18301 6.80041C6.05955 6.7641 5.93609 6.72052 5.8199 6.66969C5.79085 6.66969 5.75454 6.68421 5.7037 6.71326C5.64561 6.85124 5.58751 7.09816 5.52215 7.454C5.45679 7.80985 5.38417 8.07855 5.29702 8.25284C5.47858 8.39808 5.59477 8.49249 5.63108 8.5288C5.74001 8.62321 5.82716 8.74667 5.90704 8.89191C5.92883 8.95727 5.91431 9.02989 5.878 9.10251C5.84168 9.17513 5.80537 9.24049 5.77633 9.29859C5.37691 9.29859 5.08642 9.31311 4.90487 9.34942C4.72331 9.38573 4.56354 9.49467 4.42556 9.67622C4.42556 10.0321 4.46914 10.446 4.54902 10.9181C4.6289 11.3901 4.70879 11.8331 4.78867 12.2616C4.81772 12.4431 4.83951 12.6319 4.86129 12.828C4.88308 13.0241 4.89034 13.2056 4.89034 13.3799C4.89034 13.6414 4.86855 13.8883 4.82498 14.1134C4.78141 14.3385 4.70879 14.5709 4.61438 14.8033C4.66521 14.629 4.69426 14.4475 4.71605 14.2586C4.73784 14.0698 4.7451 13.881 4.7451 13.6849C4.7451 13.2783 4.69426 12.7917 4.59985 12.2325C4.37473 10.9326 4.26579 10.1119 4.26579 9.76337C4.30211 9.59634 4.3602 9.4511 4.43283 9.32038C4.50545 9.18966 4.61438 9.09525 4.75962 9.03715L5.39869 8.86286C5.31881 8.74666 5.21714 8.68857 5.07916 8.68857C4.99927 8.68857 4.93391 8.71035 4.87582 8.76119C4.81772 8.81202 4.78141 8.82655 4.75962 8.81929C4.73784 8.76119 4.7451 8.69583 4.78141 8.62321C4.81772 8.55058 4.85403 8.47797 4.89034 8.41261L5.18083 8.29641C5.06463 7.86794 4.90487 7.49031 4.70153 7.14899C4.67248 7.22887 4.62164 7.26518 4.55628 7.26518C4.51997 7.26518 4.4183 7.22161 4.26579 7.13447C4.17865 7.08363 4.11329 7.05458 4.07698 7.04732C4.07698 6.77862 4.1496 6.56075 4.29484 6.40825C4.57807 6.40825 4.78867 6.56075 4.93391 6.87303C5.05011 7.14173 5.17357 7.41043 5.29702 7.67186C5.37691 7.32328 5.435 7.06911 5.48584 6.90208C5.57298 6.5898 5.71097 6.3792 5.90704 6.263C6.05955 6.263 6.19027 6.32836 6.28468 6.45182ZM7.11256 13.6268C7.13435 13.714 7.11256 13.8084 7.06899 13.9101C7.01816 14.0117 6.96006 14.1352 6.88017 14.2804C6.85113 14.2877 6.81482 14.3095 6.76398 14.3458C6.71314 14.3821 6.66957 14.3894 6.61874 14.3676C6.45171 14.2151 6.37182 14.019 6.37182 13.7866C6.37182 13.6196 6.40813 13.438 6.48802 13.2274C6.5679 13.0168 6.64052 12.8207 6.72041 12.6392C6.74219 12.7263 6.72041 12.8788 6.65505 13.104C6.58969 13.3291 6.56064 13.4816 6.56064 13.5687C6.56064 13.7648 6.65505 13.8955 6.85113 13.9754L7.11256 13.6268ZM13.024 10.9398C13.1983 11.1214 13.2854 11.3465 13.2854 11.608C13.2854 11.7822 13.2418 11.9856 13.1619 12.218C13.0821 12.4504 13.0022 12.6755 12.9223 12.8861C12.5955 13.2855 12.1743 13.576 11.6732 13.7576C11.2375 13.9101 10.7073 13.99 10.0901 13.99C9.8504 15.0575 9.12418 15.9362 7.9114 16.6334C6.84386 17.1563 5.78359 17.6864 4.73057 18.2165C4.28758 18.3037 3.81554 18.3763 3.32171 18.4416C2.82789 18.507 2.38489 18.5361 2 18.5361C3.04575 18.1076 3.90269 17.7445 4.57081 17.4467C5.53667 17.011 6.37909 16.5971 7.08352 16.1976C7.91866 15.7329 8.7175 15.2173 9.49455 14.6581C9.34931 14.0989 9.21133 13.5324 9.07335 12.9732C9.07335 12.8062 9.1024 12.6464 9.16776 12.4867C9.23312 12.3269 9.29121 12.1962 9.34205 12.1018C9.39288 12.0074 9.47277 11.942 9.56718 11.913C9.60349 12.2107 9.66158 12.4286 9.72694 12.552C9.84314 12.7772 10.0174 12.8861 10.2498 12.8861C10.337 12.8861 10.4241 12.8861 10.5113 12.9006C10.5984 12.9079 10.6928 12.9224 10.7872 12.9297C10.8744 12.9297 10.947 12.9224 11.0123 12.9006C11.0777 12.8788 11.1285 12.8353 11.1794 12.7699C11.2956 12.1817 11.3972 11.7677 11.4844 11.5353C11.6514 11.1069 11.8911 10.7728 12.2106 10.5332C12.4139 10.5549 12.5737 10.584 12.6899 10.6348C12.8061 10.6857 12.915 10.7873 13.024 10.9398ZM15.2317 5.37702C15.2099 5.31893 15.1954 5.26809 15.1736 5.21725C15.1518 5.16642 15.1227 5.13737 15.0719 5.13011L14.9847 5.20273C15.0356 5.26082 15.0719 5.3044 15.1082 5.34071C15.1445 5.37702 15.1808 5.38429 15.2317 5.37702ZM12.7044 12.1599C12.5229 12.3269 12.3123 12.4649 12.0799 12.5738C11.8475 12.6828 11.6224 12.7481 11.3972 12.7699C11.4336 12.6174 11.4771 12.4576 11.528 12.3051C11.6151 12.0146 11.7386 11.7968 11.8911 11.6515C12.2614 11.6515 12.5301 11.8186 12.7044 12.1599ZM12.0508 15.7038C11.9927 15.7692 11.9129 15.7547 11.8039 15.6457C11.7967 15.5658 11.8257 15.5368 11.9056 15.5586C11.9927 15.5804 12.0436 15.6239 12.0508 15.7038Z" fill="white"/>
</svg>
