<svg width="24" height="24" viewBox="0 0 24 24" fill="none" xmlns="http://www.w3.org/2000/svg">
<path fill-rule="evenodd" clip-rule="evenodd" d="M21.9586 9.12422C21.8849 9.08738 21.8158 9.02291 21.7467 8.9262C21.6592 8.80186 21.5901 8.71436 21.5349 8.67292L21.3599 8.94923C21.4105 9.43737 21.5165 10.1005 21.6684 10.9478C21.7928 11.6248 21.8618 12.0208 21.8803 12.1314C21.9263 12.4537 21.9539 12.7116 21.9724 12.905C21.9908 13.0984 22 13.3195 22 13.5682C22 13.8905 21.9816 14.1898 21.9401 14.4569C21.8987 14.724 21.8296 15.0234 21.7375 15.3457L21.6178 15.5207C21.6454 15.3734 21.6684 15.1984 21.6822 15.0003C21.6961 14.8023 21.7053 14.6089 21.7053 14.4247C21.7053 13.8813 21.6316 13.1951 21.4842 12.3708C21.2862 11.238 21.1711 10.5518 21.1434 10.3169C20.9731 9.3729 20.8073 8.42885 20.6461 7.47559C20.706 7.27757 20.7566 7.13021 20.8027 7.0335C20.8764 6.87232 20.9639 6.74798 21.0698 6.65588C21.3046 7.23612 21.5441 7.81637 21.7882 8.39201C21.7513 8.41964 21.7559 8.45648 21.7974 8.50253C21.8434 8.54858 21.8434 8.58542 21.8066 8.61305C21.8665 8.67292 21.9079 8.7466 21.9401 8.8341C21.9678 8.9216 21.977 9.0183 21.9632 9.11962L21.9586 9.12422ZM14.0654 6.60522C14.0516 6.69272 14.0147 6.77561 13.9549 6.84929C13.895 6.92298 13.8213 6.95982 13.7338 6.95982C13.4483 7.05652 13.172 7.15784 12.9049 7.26836C12.0484 7.63677 11.5971 7.83018 11.5464 7.844C11.703 7.5769 11.9747 7.36967 12.3661 7.2131C12.7069 7.08876 13.0431 6.96442 13.3838 6.83548C13.4115 6.82627 13.5542 6.77101 13.8029 6.6697C13.9042 6.62364 13.9963 6.60522 14.07 6.60522H14.0654ZM17.7034 10.8834C17.7265 11.0399 17.6574 11.1274 17.5008 11.1505C17.3442 11.1735 17.2475 11.2242 17.2199 11.307C17.2199 11.5143 17.2061 11.6939 17.1831 11.8551C17.1554 12.0116 17.1094 12.1682 17.0449 12.3248C16.9988 12.2603 16.9021 12.0761 16.7456 11.7722C16.6857 11.6524 16.6212 11.5419 16.5475 11.4314C16.5337 11.482 16.5015 11.5097 16.4462 11.5097C16.4232 11.5097 16.3818 11.5005 16.3265 11.4866C16.2897 11.4406 16.2712 11.3899 16.2712 11.3301C16.2712 11.284 16.2897 11.2288 16.3219 11.1551C16.3541 11.0814 16.3726 11.0307 16.3726 10.9985C16.566 10.9478 16.7225 11.0814 16.8469 11.3945C16.9344 11.6248 17.0035 11.7629 17.0449 11.8136C17.0817 11.6156 17.1186 11.413 17.1554 11.2057C17.2199 10.9571 17.335 10.8281 17.4962 10.8281C17.5469 10.8281 17.6159 10.8465 17.708 10.8834H17.7034ZM15.4285 10.0775C15.3917 10.1972 15.364 10.2939 15.341 10.3768C15.318 10.4597 15.2673 10.515 15.1844 10.5426C15.0509 10.4965 14.968 10.3952 14.9312 10.2341C14.9312 9.96235 15.0002 9.70907 15.143 9.4696C15.1338 9.50644 15.1246 9.56171 15.1061 9.63539C15.0877 9.70907 15.0785 9.78275 15.0785 9.85643C15.0785 10.0038 15.1246 10.1235 15.2213 10.211C15.2719 10.2341 15.3134 10.211 15.3364 10.1558C15.364 10.0959 15.3917 10.0729 15.4285 10.0775ZM8.69583 7.73348C8.74649 7.76111 8.77412 7.81176 8.77412 7.87623C8.77412 7.92689 8.73728 8.0282 8.6636 8.17557C8.61755 8.2032 8.57149 8.23083 8.52544 8.25846C8.47939 8.28609 8.43334 8.28609 8.38729 8.26306C8.31361 8.21701 8.26295 8.16636 8.23993 8.10649C8.2123 8.04662 8.20309 7.96834 8.20309 7.87623C8.20309 7.81176 8.2123 7.71966 8.22611 7.59993L8.56689 6.89074C8.5807 6.96442 8.55768 7.08876 8.4886 7.26836C8.42413 7.44335 8.38729 7.5723 8.38729 7.64598C8.38729 7.71045 8.40111 7.77032 8.42413 7.81637C8.45176 7.86242 8.49781 7.90847 8.56228 7.94531L8.69583 7.73348ZM11.6017 11.634C11.5556 11.7952 11.4635 11.9287 11.3254 12.0393C11.1872 12.1452 11.0214 12.2096 10.828 12.2327C10.8372 12.159 10.9201 12.0853 11.0813 12.0116C11.1688 11.9656 11.2286 11.9149 11.2563 11.8551C11.155 11.8412 11.0629 11.8274 10.9846 11.8182C10.9063 11.809 10.8556 11.7998 10.8372 11.7998C10.6622 11.7998 10.5287 11.8458 10.4412 11.9425C10.4642 11.8458 10.501 11.763 10.5517 11.6893C10.6023 11.6156 10.6668 11.5649 10.7405 11.5419C10.8142 11.5143 10.8971 11.5051 10.9846 11.5051C11.0721 11.5051 11.1826 11.5235 11.3115 11.5603C11.4405 11.5972 11.5372 11.6248 11.6063 11.6386L11.6017 11.634ZM9.10569 9.43276C9.05503 9.58934 9.00438 9.7413 8.96293 9.89788C8.88004 10.0913 8.76951 10.1834 8.62215 10.1834C8.5761 10.1189 8.47479 10.0406 8.309 9.95314C8.14322 9.86564 8.06954 9.77354 8.09256 9.67683L8.52544 9.03672C8.62676 9.07356 8.75109 9.14725 8.88925 9.25777C8.98595 9.34066 9.05964 9.39592 9.11029 9.43276H9.10569ZM19.8172 13.1261C19.8172 12.8405 19.808 12.5873 19.7895 12.3708C19.7711 12.1544 19.7389 11.9425 19.6974 11.7353C19.6974 11.6985 19.5593 11.0031 19.2784 9.6446C19.1817 9.17488 19.1356 8.75581 19.1356 8.39661C19.2323 8.49793 19.329 8.59924 19.4211 8.69595C19.4672 8.742 19.504 8.79726 19.5317 8.87094C19.504 8.59003 19.3935 8.23543 19.2093 7.81176C19.0896 7.54006 18.9238 7.19468 18.712 6.78482L18.4264 7.40191C18.4725 7.92689 18.5784 8.57161 18.7488 9.33606C18.8962 9.97617 19.0481 10.6393 19.2001 11.3209C19.3567 12.0024 19.4626 12.6333 19.5224 13.2182C19.5455 13.2826 19.5547 13.3379 19.5547 13.3839C19.5547 13.5543 19.3981 13.7109 19.0804 13.8583C18.8962 13.9458 18.7764 14.0148 18.7166 14.0701C18.5093 14.1714 18.2883 14.2267 18.0534 14.2267C17.9153 14.2267 17.7679 14.2037 17.6205 14.1622C17.4732 14.1162 17.3534 14.0609 17.2567 13.9872C16.6397 13.4438 16.018 12.8912 15.4009 12.3386C14.641 11.6755 14.0101 11.1459 13.499 10.7452C12.799 10.2018 12.1359 9.75051 11.5096 9.39592C12.2326 9.03672 13.1213 8.70055 14.1713 8.39201C15.0923 8.14333 16.0134 7.89005 16.9344 7.64137C16.9574 7.64137 17.0357 7.63216 17.1738 7.61374C17.312 7.59532 17.4133 7.58611 17.487 7.58611C17.5469 7.58611 17.6021 7.59532 17.6574 7.60914C17.7126 7.62295 17.7633 7.65058 17.8047 7.68743C17.7034 7.89466 17.3811 8.41964 16.8423 9.26698C16.437 9.90709 16.1791 10.4413 16.0686 10.8696C16.193 10.538 16.4554 10.1051 16.8515 9.57552C17.3074 8.96304 17.6021 8.54858 17.7357 8.32754C18.0166 7.8486 18.1547 7.37428 18.1547 6.89995C18.1179 6.84009 18.0672 6.79864 17.9982 6.77101C17.9337 6.74338 17.8554 6.73417 17.7679 6.73417C17.7034 6.73417 17.6021 6.73417 17.4686 6.74338C16.7548 6.91837 16.041 7.09337 15.3226 7.26376C14.4614 7.47559 13.7568 7.67822 13.2134 7.86242C12.4536 8.12031 11.7859 8.40582 11.2148 8.72358C11.1181 8.9216 11.0536 9.11041 11.0168 9.29461C10.98 9.47421 10.9431 9.71828 10.9063 10.0176C11.0444 10.1558 11.4865 10.5702 12.2326 11.2564C12.8358 11.8182 13.2733 12.2419 13.5358 12.5274C13.9687 12.9971 14.3187 13.4714 14.5766 13.9412C14.245 14.1346 13.8904 14.2773 13.5082 14.374C13.1306 14.4708 12.7161 14.5398 12.274 14.5859C12.3615 14.2313 12.4168 14.0056 12.4398 13.8997C12.4904 13.6326 12.5181 13.3932 12.5181 13.1813C12.5181 13.0063 12.4997 12.8405 12.4674 12.6886C12.4352 12.5366 12.3799 12.3938 12.3062 12.2511C12.0714 12.555 11.8365 12.9188 11.5971 13.3471C11.3898 13.7385 11.1826 14.1254 10.98 14.5076C10.8556 14.5306 10.6622 14.5721 10.3997 14.6273C10.1372 14.6872 9.9254 14.7148 9.76422 14.7148C9.60304 14.7148 9.46028 14.6964 9.33134 14.655C9.207 14.6135 9.08727 14.549 8.97674 14.4615C9.17476 14.3234 9.31752 14.2083 9.39581 14.1208C9.52936 13.9826 9.61685 13.8353 9.66291 13.6787C9.78264 13.43 9.8379 13.1675 9.8379 12.8958C9.8379 12.4629 9.70896 12.1037 9.45107 11.8228C9.33134 11.6985 9.15634 11.634 8.92148 11.634C8.88464 11.634 8.82938 11.634 8.7557 11.6432C8.58531 11.7906 8.45176 11.9564 8.35045 12.136C8.24914 12.3156 8.17085 12.5228 8.10638 12.753C8.04191 12.9833 8.00967 13.2136 8.00507 13.4392C8.00507 13.6649 8.00046 13.8905 8.00046 14.1208C7.07944 14.48 6.53604 14.6872 6.36565 14.7379C6.02487 14.8484 5.67488 14.9359 5.30647 15.0049C5.03937 15.051 4.78149 15.0694 4.53281 15.0694C4.15519 15.0694 3.80981 15.0188 3.48745 14.9128C3.16509 14.8115 2.87037 14.6457 2.59866 14.4155C2.46051 14.2543 2.38683 14.0563 2.38683 13.8168C2.38683 13.6971 2.41446 13.5497 2.46512 13.3655C2.47893 13.3195 2.55722 13.0938 2.69537 12.6794C2.56182 12.8544 2.44209 13.0662 2.33157 13.3103C2.2717 13.43 2.1796 13.651 2.05526 13.9826C2.02763 14.1208 2.00921 14.2175 2.00461 14.2635C2.00461 14.3096 2 14.3602 2 14.4109C2 14.8668 2.17499 15.2398 2.52038 15.5253C2.8151 15.6819 3.09602 15.7878 3.35851 15.8523C3.6256 15.9168 3.92033 15.9444 4.24269 15.9444C4.41768 15.9444 4.62491 15.9306 4.85517 15.8983C5.08542 15.8707 5.28344 15.8339 5.44462 15.797C5.89592 15.6957 6.49919 15.4977 7.25904 15.2122C7.57679 15.0924 7.91296 14.9681 8.26295 14.8346C8.32282 14.9313 8.40111 15.0372 8.50242 15.1477C8.60373 15.2628 8.69583 15.3503 8.78333 15.4194C9.01819 15.5391 9.28529 15.5944 9.58001 15.5944C9.81487 15.5944 10.0451 15.5668 10.2662 15.5161C10.4872 15.4655 10.7221 15.3964 10.9754 15.3043C10.9385 15.4655 10.9201 15.6128 10.9201 15.7464C10.9201 16.1977 11.0444 16.5845 11.2885 16.9069C11.5372 17.2292 11.8457 17.395 12.2233 17.395C12.2694 17.395 12.3431 17.3858 12.4444 17.372C12.6056 17.2108 12.7299 17.0128 12.8128 16.7733C12.8957 16.5385 12.9417 16.2852 12.9417 16.0227C12.9417 15.8016 12.9049 15.5806 12.8312 15.3595C13.2825 15.2628 13.6095 15.1799 13.8167 15.1063C14.1621 14.9865 14.4568 14.8253 14.7009 14.6181C14.7239 14.5306 14.7654 14.3879 14.8206 14.1852C14.8943 13.8905 14.9312 13.6418 14.9312 13.4438C14.9312 13.2458 14.8943 13.0478 14.8206 12.882C14.9081 12.9419 15.4561 13.4392 16.4693 14.374C16.8377 14.7148 17.1831 14.9497 17.51 15.0832C17.5837 15.1063 17.6528 15.1201 17.7219 15.1293C17.7863 15.1385 17.8508 15.1385 17.9107 15.1385C18.1778 15.1385 18.4541 15.0556 18.7488 14.8944C18.9929 14.7471 19.2369 14.5951 19.4764 14.4431C19.5777 14.2451 19.6606 14.0333 19.7205 13.8076C19.7803 13.582 19.808 13.3517 19.808 13.1169L19.8172 13.1261ZM5.7808 7.49862C5.76698 7.58151 5.75317 7.65058 5.73475 7.71506C5.72093 7.77953 5.68869 7.80716 5.64725 7.80716C5.61962 7.80716 5.58738 7.79334 5.55975 7.77032C5.53212 7.74269 5.49528 7.73348 5.44923 7.73348H5.33871C5.25121 7.85782 5.18213 8.07886 5.13608 8.39661C5.09003 8.71437 5.02095 8.9308 4.93346 9.05054C4.74004 8.70976 4.55123 8.36898 4.35782 8.0236C4.36703 8.08807 4.33019 8.12491 4.2565 8.12491C4.20585 8.12491 4.17361 8.1157 4.15519 8.10189C4.01704 8.00518 3.96178 7.88545 3.99862 7.73808C4.02164 7.67361 4.04467 7.60914 4.06309 7.54467C4.08612 7.4802 4.11375 7.43414 4.15059 7.40651C4.36242 7.50783 4.55123 7.73808 4.71241 8.09268C4.84596 8.37819 4.92425 8.54398 4.94267 8.59003C4.98872 8.30451 5.02556 8.08807 5.05319 7.94992C5.11306 7.70585 5.22358 7.52625 5.38476 7.40651C5.48146 7.40651 5.55975 7.41112 5.61501 7.42493C5.67488 7.43414 5.72554 7.46178 5.77159 7.50783L5.7808 7.49862ZM6.72945 11.3761C6.72945 11.4636 6.71103 11.5557 6.67419 11.6478C6.63735 11.7399 6.58669 11.8458 6.51761 11.961C6.45314 11.961 6.39788 11.9333 6.36104 11.8827C6.3242 11.832 6.29657 11.7722 6.27815 11.7077C6.25973 11.6432 6.25052 11.5649 6.25052 11.4774C6.25052 11.3024 6.27815 11.1459 6.3288 11.0123C6.37946 10.8788 6.46235 10.736 6.57288 10.5794C6.53604 10.6761 6.49919 10.7867 6.45775 10.911C6.4163 11.0353 6.39788 11.1459 6.39788 11.2426C6.39788 11.3991 6.44854 11.5281 6.55446 11.6294L6.72945 11.3761ZM5.49067 9.50644C5.46765 9.71367 5.27884 9.83341 4.91504 9.86564C4.55584 9.89788 4.33479 9.99459 4.2519 10.1466C4.27953 10.3446 4.33479 10.584 4.41768 10.865C4.52821 11.261 4.59728 11.5143 4.62031 11.6202C4.64794 11.7261 4.66636 11.8412 4.68017 11.9702C4.69399 12.0945 4.7032 12.2327 4.7032 12.38C4.7032 12.6241 4.66636 12.8544 4.59268 13.0754C4.6157 12.9925 4.62952 12.9373 4.63873 12.9004C4.64794 12.8636 4.64794 12.7991 4.64794 12.7116C4.64794 12.5274 4.6111 12.3156 4.53742 12.0715L4.1598 10.9985C4.08612 10.7544 4.04927 10.5472 4.04927 10.3676C4.04927 10.2571 4.0677 10.1512 4.10914 10.0452C4.15059 9.94393 4.23808 9.84262 4.36703 9.7413C4.50058 9.63999 4.68478 9.56171 4.91964 9.50184C4.87359 9.43737 4.79991 9.40053 4.68939 9.40053C4.66175 9.40053 4.6157 9.40974 4.55584 9.42355L4.45452 9.53408C4.41768 9.48802 4.42229 9.42355 4.46373 9.34066C4.50979 9.25777 4.52821 9.21172 4.52821 9.20251C4.57426 9.16567 4.6157 9.13803 4.66175 9.12422C4.70781 9.1104 4.74465 9.10119 4.78149 9.10119C4.8828 9.10119 5.00714 9.14725 5.14529 9.24395C5.25581 9.33145 5.36634 9.41895 5.47686 9.49723L5.49067 9.50644ZM3.51048 11.1873C3.51048 11.4728 3.46903 11.7353 3.39074 11.9656C3.30785 12.1958 3.17891 12.3892 2.9947 12.5458C2.93484 12.5688 2.88879 12.5781 2.85195 12.5781C2.77826 12.5781 2.70458 12.555 2.63551 12.5044C2.56643 12.4583 2.49735 12.4077 2.43288 12.357C2.23486 12.0116 2.13355 11.6386 2.13355 11.2426C2.13355 10.8465 2.24868 10.363 2.47433 9.79657C2.67235 9.34527 2.87037 8.89397 3.07299 8.43806C2.87497 9.17488 2.67695 9.91169 2.47433 10.6485C2.47433 10.8557 2.51577 11.0446 2.60327 11.2195C2.68616 11.3945 2.83813 11.5465 3.04997 11.6801C3.1697 11.6801 3.27101 11.588 3.35851 11.4038C3.40916 11.2932 3.45982 11.2242 3.51508 11.1919L3.51048 11.1873ZM12.1543 13.9274C12.0806 13.9918 11.9977 14.0471 11.9056 14.0931C11.8135 14.1392 11.6615 14.1991 11.4451 14.2819C11.5418 14.0609 11.6385 13.8352 11.7444 13.6096C11.8181 13.453 11.8964 13.3241 11.9747 13.2228C12.0391 13.2965 12.0852 13.3793 12.1128 13.4714C12.1405 13.5635 12.1497 13.7155 12.1497 13.932L12.1543 13.9274ZM12.6194 16.4049C12.5457 16.4694 12.4444 16.5062 12.3108 16.5062C12.228 16.5062 12.1359 16.4924 12.0345 16.4602C11.8503 16.3773 11.6938 16.2667 11.5648 16.1194C11.4359 15.972 11.3207 15.797 11.2148 15.599C11.5372 15.6589 11.7997 15.7372 11.9977 15.8431C12.2556 15.9766 12.4628 16.1654 12.6148 16.4049H12.6194ZM9.35897 13.3978C9.25766 13.4853 9.13792 13.5635 9.00898 13.628C8.88004 13.6925 8.73728 13.757 8.58531 13.8168C8.53926 13.6925 8.50242 13.5589 8.47479 13.4208C8.44716 13.2826 8.42874 13.1445 8.42874 13.0109C8.42874 12.928 8.43334 12.8452 8.44716 12.7577C8.45637 12.6702 8.484 12.5827 8.53005 12.4906C8.62676 12.4675 8.72346 12.4813 8.81557 12.5366C8.85241 12.5596 8.93069 12.6103 9.04582 12.6932C9.20239 12.9142 9.30371 13.1491 9.35436 13.4024L9.35897 13.3978Z" fill="white"/>
</svg>
