<svg width="24" height="24" viewBox="0 0 24 24" fill="none" xmlns="http://www.w3.org/2000/svg">
<path fill-rule="evenodd" clip-rule="evenodd" d="M19.7905 11.0722C19.7905 11.2663 19.7105 11.449 19.5564 11.6317C19.4822 11.6317 19.4308 11.6203 19.3908 11.5918C19.3109 11.5347 19.2595 11.449 19.2424 11.3291C19.2309 11.2549 19.2309 11.2035 19.2309 11.1807C19.2309 11.0322 19.2538 10.8952 19.2938 10.7639C19.3337 10.6326 19.3965 10.4956 19.4764 10.3585C19.4764 10.4213 19.4764 10.4842 19.465 10.5355C19.4308 10.7639 19.4079 10.9067 19.4079 10.958C19.4079 11.0208 19.4136 11.0894 19.4308 11.1579C19.4422 11.2264 19.4936 11.2835 19.5735 11.3291C19.6306 11.312 19.6706 11.2663 19.7048 11.1978C19.7391 11.1293 19.7676 11.0836 19.7962 11.0665L19.7905 11.0722ZM16.8159 6.99C16.833 7.05281 16.8159 7.12132 16.7588 7.18983C16.7017 7.25835 16.6389 7.30403 16.5647 7.32116C16.165 7.47531 15.7254 7.66371 15.2515 7.88067C14.6749 8.15472 14.2409 8.36026 13.9498 8.49729C13.9212 8.45162 13.9326 8.39452 13.9783 8.33171C13.9897 8.32029 14.0354 8.2689 14.1153 8.16614C15.0117 7.77219 15.9081 7.37824 16.8159 6.99ZM21.9829 9.29089C21.9372 8.97116 21.823 8.5658 21.6403 8.06909C21.5375 7.80645 21.3891 7.41251 21.1893 6.89295C21.1893 6.90437 21.0979 7.02997 20.9152 7.27547C20.8067 7.42963 20.7496 7.56665 20.7496 7.68655C20.7496 7.76077 20.7668 7.82929 20.8067 7.8921L21.2178 13.9326L21.1778 13.9897C20.5669 13.8984 19.9846 13.7842 19.4308 13.6414C18.877 13.4987 18.3517 13.3331 17.8493 13.139C17.9292 12.9278 17.992 12.7679 18.0263 12.6594C18.1176 12.3682 18.1633 12.0828 18.1633 11.8087V11.6432C18.1633 11.5861 18.1633 11.5347 18.1519 11.4776C18.1519 11.2207 18.1176 10.8838 18.0434 10.4613C17.8949 9.62204 17.8264 9.09107 17.8264 8.87411C17.8264 8.65716 17.8436 8.45733 17.8835 8.28605C17.9749 8.38881 18.0662 8.50871 18.1576 8.65715C18.1918 8.73137 18.2375 8.8056 18.2832 8.87411C18.2832 8.55439 18.1975 8.18898 18.0206 7.7779C17.9292 7.54953 17.7751 7.20697 17.5524 6.75022C17.4325 6.79589 17.3411 6.89865 17.2783 7.06423C17.2155 7.2298 17.1584 7.38396 17.1128 7.5324C17.1413 7.79503 17.2726 8.64001 17.5124 10.0559C17.6837 11.0951 17.7751 11.9572 17.7751 12.6309C17.2726 12.6937 16.6731 12.728 15.9823 12.728H15.4342C15.3771 12.8764 15.3257 13.0248 15.2686 13.1733C15.2115 13.3217 15.1887 13.4587 15.1887 13.5786C15.674 13.5786 16.1821 13.6471 16.7245 13.7842C17.1641 13.8927 17.638 14.0525 18.1519 14.2638C17.6152 14.475 17.2783 14.6006 17.1527 14.6463C16.5133 14.8747 15.9423 15.0174 15.4399 15.0688C15.0288 15.0688 14.6634 15.006 14.3494 14.8747C14.0354 14.7491 13.7785 14.5378 13.5901 14.2467C13.3959 13.5729 13.2589 12.7622 13.179 11.8202C13.1619 11.6375 13.1162 10.9124 13.0477 9.63917C12.9792 8.37168 12.8878 7.43534 12.7793 6.83014C12.5681 7.08706 12.4368 7.36111 12.3797 7.65229C12.5053 8.27462 12.6081 9.22809 12.6766 10.507C12.7451 11.7916 12.7908 12.5167 12.8079 12.6766C12.8992 13.6243 13.0477 14.4236 13.2589 15.0631C13.4416 15.3828 13.67 15.6112 13.944 15.7539C14.2181 15.8967 14.5378 15.9652 14.9032 15.9652C15.0117 15.9652 15.0973 15.9652 15.1487 15.9538C15.5769 15.9081 16.1821 15.7482 16.9586 15.4742C17.3982 15.32 17.7465 15.2001 17.9977 15.1202C18.3745 14.9946 18.7057 14.8975 19.0026 14.8404C19.2995 14.7833 19.6192 14.7491 19.9675 14.7491C20.133 14.7491 20.31 14.7605 20.4927 14.7776C20.6811 14.7947 20.8467 14.8233 20.9951 14.8575C20.9951 14.7376 21.0123 14.6406 21.0522 14.5549C21.0865 14.475 21.1493 14.3837 21.2292 14.2809C21.2292 14.6463 21.2121 15.006 21.1836 15.3543C21.1493 15.7082 21.0922 16.0166 21.0009 16.2906C21.2578 15.9252 21.4291 15.5484 21.5204 15.1544C21.6118 14.7605 21.6574 14.3037 21.6574 13.7842C21.6574 13.5444 21.6232 12.9506 21.5604 12.0028C21.5318 11.6032 21.5204 11.2549 21.5204 10.9638C21.5204 10.7982 21.509 10.6155 21.4919 10.4156C21.4462 9.92463 21.4234 9.61633 21.4234 9.49643C21.4234 9.18813 21.469 8.90835 21.5604 8.66285C21.5889 8.6914 21.6517 8.79989 21.7545 8.994C21.8173 9.1139 21.9029 9.21096 22 9.27947L21.9829 9.29089ZM16.4904 10.9752C16.519 11.0551 16.5076 11.1407 16.4619 11.2264C16.4162 11.312 16.3534 11.3977 16.2678 11.4776C16.1422 11.5061 16.0451 11.4262 15.9823 11.2435C15.9823 10.8153 16.0794 10.3871 16.2678 9.95318C16.2678 10.0331 16.2449 10.1759 16.205 10.37C16.165 10.5641 16.1422 10.7011 16.1422 10.7753C16.1422 10.958 16.1993 11.0951 16.3077 11.1864C16.3648 11.1122 16.4219 11.038 16.4847 10.9694L16.4904 10.9752ZM15.2172 10.4156C15.183 10.6726 15.1202 10.9067 15.0403 11.1236C14.9603 11.3406 14.8404 11.5461 14.6863 11.7459C14.9261 11.3463 15.0403 10.9009 15.0403 10.4156C15.0574 10.2786 14.9946 10.1073 14.8576 9.90751C14.7148 9.70768 14.6463 9.56494 14.6463 9.485C14.6463 9.42791 14.6691 9.36511 14.7148 9.29089C15.0517 9.55352 15.223 9.93034 15.223 10.4156H15.2172ZM20.2187 16.5133C19.8361 17.0956 19.2709 17.3925 18.5173 17.3925C18.3802 17.3925 18.2775 17.3925 18.2033 17.3811C18.0206 17.3468 17.9121 17.2555 17.8721 17.107C17.8892 16.9129 17.9635 16.7531 18.0891 16.616C18.2147 16.479 18.3802 16.3648 18.5801 16.2735C18.5515 16.2278 18.5116 16.1935 18.4545 16.1764C18.3974 16.1593 18.346 16.1479 18.2889 16.1479H18.1233L18.0434 16.1878L18.0148 16.1593C18.0891 15.9652 18.2318 15.8738 18.4545 15.8738C18.483 15.8738 18.5401 15.8852 18.6315 15.9024L18.8941 16.0679C18.8941 16.2221 18.7571 16.3762 18.483 16.519C18.209 16.6674 18.0719 16.7702 18.0719 16.833C18.0719 16.9129 18.1747 17.0043 18.3745 17.107C18.7856 17.107 19.1339 17.0671 19.4136 16.9814C19.6991 16.9015 19.9617 16.7416 20.2073 16.5133H20.2187ZM11.0779 6.60748C11.0894 6.6817 11.0551 6.74449 10.9866 6.8073C10.9181 6.86439 10.8381 6.91007 10.7468 6.93862C10.2729 7.09277 9.75906 7.28119 9.21096 7.49815C8.74279 7.68085 8.24037 7.89781 7.70368 8.14331C7.68655 8.06909 7.70368 7.99486 7.76649 7.92635C7.82358 7.85213 7.90351 7.78933 8.00628 7.73223C9.02826 7.35541 10.0502 6.9843 11.0779 6.60748ZM10.9809 8.46873C10.9466 8.58863 10.8838 8.71424 10.8039 8.84555C10.724 8.97687 10.6326 9.09678 10.5413 9.21096C10.2957 9.07394 10.0502 8.93119 9.79903 8.78846C9.75336 8.817 9.68484 8.91408 9.58778 9.08536C9.49072 9.25664 9.40508 9.33657 9.31944 9.33657C9.26235 9.33657 9.19954 9.31374 9.12532 9.26806C8.97688 9.18813 8.8684 9.12531 8.79418 9.09105C8.65715 9.01112 8.60006 8.91978 8.6286 8.82843C8.73708 8.66285 8.81701 8.54296 8.86269 8.47445C8.96546 8.326 9.06823 8.25749 9.17671 8.25749C9.34228 8.36026 9.46218 8.42878 9.54782 8.46304C9.70197 8.54297 9.83329 8.5715 9.94747 8.54296L10.3985 8.16044L10.9752 8.47445L10.9809 8.46873ZM11.6089 10.5127C11.6089 10.6383 11.5918 10.7582 11.5518 10.861C11.5176 10.9637 11.449 11.0437 11.3463 11.1008C11.312 11.1122 11.2663 11.0894 11.2207 11.0323C11.175 10.9752 11.1407 10.9409 11.1236 10.9238C11.1122 10.8667 11.1122 10.7982 11.1122 10.7068C11.1122 10.5241 11.135 10.3528 11.1807 10.193C11.2264 10.0331 11.3006 9.85041 11.3977 9.65058C11.3805 9.7248 11.3463 9.8447 11.2949 10.0217C11.2435 10.193 11.2207 10.3243 11.2207 10.4042C11.2207 10.5584 11.2721 10.6897 11.3691 10.8039C11.4319 10.8039 11.4833 10.7582 11.5118 10.6726C11.5461 10.5869 11.5747 10.5355 11.6032 10.5127H11.6089ZM6.63603 8.65144L6.15644 9.32514L5.4028 8.83414C5.36854 8.8684 5.30574 8.97688 5.2201 9.15387C5.13446 9.33086 5.0374 9.42221 4.94034 9.42221C4.88324 9.42221 4.83757 9.41079 4.80331 9.38795C4.76906 9.36512 4.69483 9.33657 4.58635 9.2966C4.37511 9.22238 4.27234 9.14816 4.27234 9.06251C4.27234 9.02826 4.28376 8.98829 4.30659 8.95403C4.32943 8.91978 4.40365 8.79418 4.53497 8.58293C4.62632 8.43448 4.72338 8.36597 4.82044 8.36597C4.90037 8.41164 4.99172 8.45731 5.08307 8.50299C5.30003 8.62859 5.44847 8.70282 5.5227 8.71995C5.56837 8.68569 5.63688 8.58292 5.73394 8.41735C5.831 8.25178 5.91664 8.17185 6.00228 8.17185C6.03654 8.17185 6.08222 8.18327 6.13931 8.21182C6.16786 8.24608 6.25921 8.30888 6.41336 8.38881C6.56751 8.46874 6.64745 8.56009 6.64745 8.65144H6.63603ZM5.27719 7.42964C5.24864 7.24694 5.163 7.07564 5.01456 6.91578C4.86611 6.75591 4.70625 6.65316 4.53497 6.60748C4.53497 6.62461 4.4322 6.81872 4.22095 7.18412C4.14673 7.30973 4.11818 7.43535 4.14102 7.55524C4.14102 7.61805 4.1867 7.66943 4.28376 7.71511C4.38082 7.76078 4.4322 7.7836 4.44362 7.78931C4.27805 8.02911 4.04396 8.29175 3.74707 8.58293C3.73565 8.59435 3.48444 8.83413 2.98202 9.30801C3.28461 9.17099 3.5815 8.95403 3.87268 8.66285C4.11818 8.41735 4.35227 8.12618 4.56923 7.78362L5.04882 7.82359C5.15158 7.81217 5.21439 7.7779 5.24294 7.70939C5.27148 7.64088 5.2829 7.54953 5.2829 7.42964H5.27719ZM7.67514 10.5926L7.61804 10.8553C7.58379 10.8667 7.52669 10.8553 7.44676 10.8324C7.36683 10.8096 7.31544 10.7982 7.2869 10.7982C7.167 11.2207 7.0471 11.6317 6.93291 12.0428C6.9215 12.0314 6.83015 11.8201 6.65886 11.3977C6.53897 11.1236 6.38481 10.9866 6.19069 10.9866C6.16215 10.9866 6.11076 10.998 6.04225 11.0151C6.0137 10.9695 6.0137 10.9124 6.04225 10.8381C6.0708 10.7639 6.09934 10.6897 6.12218 10.6212C6.21353 10.4956 6.29346 10.4556 6.36768 10.5127C6.49329 10.6383 6.60748 10.8039 6.69883 10.998C6.79018 11.1921 6.87582 11.3862 6.96146 11.5689C7.04139 11.1864 7.08707 10.9866 7.08707 10.9809C7.14416 10.7811 7.23551 10.6098 7.36112 10.4727C7.39538 10.4613 7.44105 10.4727 7.49814 10.5013C7.55524 10.5298 7.61233 10.5584 7.67514 10.5983V10.5926ZM11.1978 12.551C10.9866 12.2027 10.7639 11.94 10.5241 11.7573C10.2215 11.529 9.9018 11.4262 9.56494 11.4548C9.171 11.5347 8.88553 11.7802 8.70283 12.1798C8.58293 12.4253 8.48587 12.8079 8.41736 13.316C8.52584 13.5901 8.67999 13.7785 8.88553 13.8755C9.02255 13.9383 9.22809 13.9726 9.50214 13.9726C9.60491 13.9726 9.70197 13.9726 9.79903 13.9669C9.89609 13.9669 9.99315 13.9612 10.0959 13.9612C10.3072 13.9612 10.4899 13.984 10.6497 14.024C10.8096 14.0639 10.9523 14.1439 11.0836 14.2638C10.7525 14.555 10.3985 14.7948 10.0217 14.9775C9.64488 15.1602 9.25664 15.2515 8.86269 15.2515C8.49729 15.2515 8.15472 15.1659 7.835 14.9889C7.57237 14.8633 7.32686 14.6292 7.10991 14.2923C6.65315 13.5958 6.32772 13.2075 6.13931 13.1162C5.76249 13.3331 5.44276 13.6928 5.16871 14.1838C4.40365 15.5541 4.00971 16.2506 3.99258 16.2792C3.87268 16.3534 3.74136 16.3877 3.59292 16.3877C3.5187 16.3877 3.44448 16.3763 3.37596 16.3477C2.98202 16.0851 2.70225 15.7368 2.53097 15.3143C2.35969 14.8918 2.27976 14.4179 2.27976 13.8984C2.27976 13.4759 2.31973 13.0762 2.40537 12.6937C2.43962 12.7051 2.50243 12.728 2.58236 12.7622C2.65658 12.7793 2.71938 12.7736 2.77648 12.7336C2.9706 12.6309 3.11333 12.4824 3.2161 12.2769C3.31887 12.0714 3.36454 11.7516 3.36454 11.3234C3.31887 11.352 3.25607 11.4319 3.17043 11.5632C3.09049 11.6945 3.00485 11.7802 2.92492 11.8144C2.83357 11.8487 2.74222 11.843 2.65658 11.7859C2.57094 11.7288 2.49672 11.6603 2.4282 11.5689C2.39966 11.4034 2.38253 11.2835 2.37111 11.2149C2.35969 11.1407 2.35969 11.0437 2.35969 10.9124C2.35969 10.5584 2.43962 10.0445 2.59378 9.37652C2.668 9.0568 2.7308 8.76563 2.7879 8.49729C2.74222 8.55438 2.70796 8.61719 2.68513 8.69141C2.66229 8.76563 2.63374 8.85699 2.59378 8.96546C2.38253 9.54782 2.25121 9.94177 2.19412 10.1416C2.06851 10.6098 2 11.0265 2 11.4034C2 11.6146 2.02284 11.8259 2.06851 12.0428C2.11419 12.2598 2.1827 12.4482 2.27405 12.6138C2.1199 13.1619 2.03997 13.7385 2.03997 14.338C2.03997 14.7376 2.07993 15.1373 2.16557 15.5255C2.25121 15.9138 2.37682 16.2621 2.5481 16.5761C2.71367 16.793 2.87354 16.9643 3.02769 17.0842C3.22752 17.2384 3.42735 17.3183 3.63289 17.3183C3.68998 17.3183 3.75849 17.3069 3.84984 17.2898C4.10677 17.0956 4.32372 16.8444 4.50642 16.5361C4.58065 16.4105 4.71767 16.1079 4.9175 15.634C5.06594 15.2515 5.20868 14.9489 5.35712 14.7319C5.55124 14.4293 5.78533 14.201 6.0708 14.0468C6.83586 15.0231 7.29832 15.5769 7.45247 15.7025C7.835 16.0051 8.24607 16.1536 8.6857 16.1536C9.17671 16.1536 9.64488 16.0337 10.0845 15.7882C10.5241 15.5427 10.8952 15.2172 11.1921 14.7947C11.2949 14.5492 11.3634 14.3266 11.4091 14.1325C11.4548 13.9383 11.4776 13.7328 11.4776 13.5215C11.4776 13.3503 11.4548 13.179 11.4091 13.0134C11.3634 12.8478 11.2949 12.6994 11.2035 12.5624L11.1978 12.551ZM4.7976 12.511C4.83186 12.5852 4.83757 12.6651 4.80331 12.7565C4.76906 12.8478 4.74051 12.9335 4.71196 13.0191C4.63774 13.0534 4.57494 13.042 4.51784 12.9792C4.50071 12.9506 4.46075 12.8878 4.40936 12.785C4.39224 12.7222 4.38082 12.6252 4.38082 12.4996C4.38082 12.3625 4.39794 12.2369 4.42649 12.117C4.46075 11.9971 4.51213 11.8601 4.58635 11.706C4.52355 11.9001 4.4893 12.0771 4.4893 12.2427C4.4893 12.3169 4.495 12.3911 4.51213 12.471C4.52355 12.551 4.57494 12.6309 4.65487 12.7222L4.79189 12.5167L4.7976 12.511ZM6.71596 16.6617C6.71596 16.9529 6.63032 17.1527 6.45333 17.2498C6.39052 17.2612 6.33914 17.2441 6.30488 17.2041C6.27063 17.1641 6.22495 17.1013 6.17928 17.0214C6.16786 16.9872 6.16786 16.9301 6.16786 16.8558C6.16786 16.5704 6.27063 16.2906 6.48187 16.0051C6.48187 16.0622 6.45333 16.1593 6.40194 16.3077C6.35056 16.4562 6.32201 16.5704 6.32201 16.6503C6.32201 16.7873 6.39052 16.8787 6.52755 16.9243C6.5618 16.8501 6.59035 16.793 6.60748 16.7474C6.62461 16.7017 6.66457 16.6731 6.71596 16.6674V16.6617ZM5.01456 7.49243L4.71196 7.43533L4.76905 7.13274C4.80331 7.16699 4.86041 7.22409 4.93463 7.29831C4.96888 7.35541 4.99743 7.41821 5.01456 7.49243ZM4.53497 7.39538C4.45504 7.4068 4.38653 7.37825 4.32943 7.31544C4.34656 7.22409 4.38653 7.17842 4.45504 7.17842C4.51213 7.17842 4.53497 7.22409 4.53497 7.31544V7.39538ZM10.5355 13.042C10.4099 13.0534 10.2843 13.0591 10.1587 13.0705C10.0331 13.0819 9.90751 13.0819 9.7819 13.0819C9.61062 13.0819 9.44505 13.0591 9.2966 13.0077C9.14816 12.9563 9.02255 12.8707 8.91978 12.7565C8.89124 12.6937 8.90836 12.6195 8.97688 12.5395C9.00542 12.511 9.06823 12.4596 9.171 12.374C9.26235 12.3568 9.33657 12.3454 9.38795 12.3454C9.61633 12.3454 9.83329 12.4139 10.0331 12.551C10.1701 12.6423 10.3414 12.8079 10.5413 13.042H10.5355Z" fill="white"/>
</svg>
