<svg width="24" height="24" viewBox="0 0 24 24" fill="none" xmlns="http://www.w3.org/2000/svg">
<path fill-rule="evenodd" clip-rule="evenodd" d="M22 6.7724C21.8786 6.74964 21.7648 6.65101 21.651 6.46892C21.5448 6.29441 21.4537 6.1806 21.393 6.13508C21.3096 6.29441 21.264 6.46133 21.264 6.64342C21.264 6.77999 21.2792 6.9545 21.3096 7.18212C21.3399 7.40974 21.3551 7.53871 21.3551 7.57665C21.3551 7.9636 21.4006 8.45677 21.4841 9.04858C21.6813 10.4067 21.7724 11.2716 21.7724 11.6358C21.7724 12.5615 21.7496 13.2292 21.6965 13.654C21.613 14.3824 21.4234 15.0046 21.1351 15.5281C21.2944 14.9439 21.3703 14.3141 21.3703 13.6313C21.3703 13.085 21.3247 12.4097 21.2261 11.6131C21.0061 9.79213 20.8998 8.66163 20.8998 8.22915C20.7405 7.11383 20.5888 5.99091 20.4446 4.86041C20.4901 4.79971 20.5584 4.64798 20.6419 4.40518C20.7253 4.16239 20.8391 4.00306 20.9681 3.93478C21.1654 4.40519 21.3627 4.89835 21.5751 5.40669C21.7876 5.91504 21.9241 6.37028 21.9848 6.7724H22ZM16.044 3.16846C16.044 3.24433 16.0061 3.31262 15.9226 3.38849C15.8467 3.46437 15.7936 3.50988 15.7709 3.53264C14.5341 3.9727 13.6085 4.29137 13.0015 4.49623C11.8483 4.89835 10.9378 5.25495 10.2701 5.57361C10.4522 5.2853 10.7633 5.05769 11.1958 4.89077C11.6282 4.72385 12.0607 4.5721 12.4704 4.42794C13.6616 4.01823 14.8528 3.59334 16.0364 3.16846H16.044ZM14.9666 5.86193C15.0121 5.75571 15.0425 5.60396 15.0425 5.40669C15.0425 5.17908 14.9894 5.01216 14.8756 4.91353C14.7997 4.97423 14.7693 5.07286 14.7693 5.20185C14.7693 5.30048 14.7845 5.45222 14.8225 5.65707H14.7314C14.5266 5.67225 14.4203 5.60397 14.4203 5.45981C14.4203 5.43705 14.4355 5.35359 14.4659 5.20185C14.4962 5.05769 14.4962 4.95905 14.4583 4.91353C14.3596 4.95905 14.2989 5.12597 14.2762 5.41429C14.2534 5.7026 14.1396 5.85435 13.9499 5.87711C13.8058 5.81641 13.7299 5.71019 13.7299 5.56603C13.7299 5.55086 13.7602 5.39912 13.8209 5.09563C13.8437 4.99699 13.8437 4.92111 13.8209 4.86041C13.6768 4.95905 13.5933 5.10321 13.563 5.28531C13.5402 5.47499 13.5099 5.7026 13.4719 5.96816C13.5326 6.19577 13.6388 6.31717 13.783 6.31717C13.8589 6.31717 13.9803 6.27165 14.1624 6.17301C14.3445 6.07438 14.481 6.02885 14.5645 6.02885C14.6252 6.02885 14.6859 6.04402 14.7466 6.08196C14.8073 6.09713 14.8528 6.08196 14.8756 6.03644C14.8983 5.99091 14.9287 5.93781 14.9666 5.86193ZM15.2398 7.69805L14.6935 8.59335C14.4962 8.51748 14.3065 8.44919 14.1093 8.37331C13.8665 8.26709 13.7602 8.13052 13.7982 7.97119L14.2914 7.24281C14.6555 7.38697 14.8528 7.47044 14.8907 7.47802C15.0349 7.53872 15.1487 7.61459 15.2398 7.69805ZM16.2564 8.80579C15.9757 8.60852 15.8164 8.5023 15.786 8.47953C15.6191 8.37331 15.4446 8.29744 15.2777 8.25951L14.6555 8.91201L13.8209 8.67681C13.6768 8.65405 13.5402 8.72992 13.4188 8.91201C13.2215 9.2155 13.1229 9.37483 13.1077 9.38242C13.085 9.52658 13.1912 9.64797 13.434 9.7466C13.5706 9.79213 13.7754 9.87559 14.0561 9.98181C14.2534 9.69349 14.4507 9.39759 14.6555 9.10928C14.7921 9.23067 14.9514 9.3369 15.1487 9.43554C15.2549 9.49623 15.4294 9.57969 15.6571 9.6935C15.8771 9.42795 16.0744 9.13204 16.2564 8.7982V8.80579ZM12.3566 7.71323C12.3945 7.83462 12.3718 7.96361 12.2959 8.10777C12.22 8.24434 12.1593 8.35056 12.1214 8.42643C11.9848 8.59335 11.8103 8.68439 11.5903 8.68439C11.5448 8.68439 11.4613 8.66922 11.3475 8.63887C11.2337 8.60852 11.1502 8.5023 11.1047 8.32021C11.1426 7.99396 11.2792 7.65252 11.522 7.30351C11.5372 7.38697 11.5068 7.51595 11.4461 7.68287C11.3854 7.84979 11.3551 7.9636 11.3551 8.00913C11.3551 8.15329 11.4537 8.25192 11.6434 8.29745C11.871 8.29745 12.0228 8.25192 12.0835 8.15329C12.1062 8.04707 12.0379 7.94085 11.8634 7.83462C11.6965 7.7284 11.6055 7.65253 11.6055 7.607C11.6055 7.53113 11.6662 7.45526 11.7876 7.3718C11.8862 7.3718 11.9848 7.40974 12.0986 7.47802C12.1366 7.50078 12.22 7.58424 12.3566 7.71323ZM13.5402 11.8635C13.5781 11.9469 13.5781 12.038 13.5478 12.129C13.5175 12.22 13.4643 12.3111 13.3961 12.4097C13.3202 12.5084 13.2291 12.5539 13.1077 12.5539C13.0698 12.5539 13.0167 12.5387 12.9408 12.516C12.8422 12.4097 12.7967 12.2656 12.7967 12.0987C12.7967 11.9545 12.8422 11.7876 12.9256 11.6055C13.0091 11.4234 13.0926 11.2489 13.1836 11.0744C13.1836 11.1502 13.1533 11.2716 13.085 11.4462C13.0167 11.6207 12.9863 11.7496 12.9863 11.8407C12.9863 11.9773 13.0546 12.0835 13.1836 12.1669C13.2671 12.1897 13.3354 12.1518 13.3961 12.0455C13.4492 11.9393 13.5023 11.8786 13.5478 11.8559L13.5402 11.8635ZM9.29894 6.1806C9.29894 6.37787 9.261 6.49926 9.19272 6.55996C8.85129 6.55996 8.65402 6.80276 8.59332 7.28834C8.53263 7.77393 8.45675 8.07741 8.35812 8.19881C8.2519 8.11535 8.1305 7.88773 8.00152 7.52354C7.87253 7.15936 7.72079 6.97726 7.5387 6.97726C7.46282 6.97726 7.40971 6.97726 7.37178 6.99244C7.31108 6.94692 7.28073 6.88621 7.28073 6.81034C7.28073 6.74964 7.30349 6.67377 7.34143 6.57514C7.38695 6.4765 7.40212 6.4158 7.40212 6.39304C7.46282 6.33234 7.51593 6.302 7.56904 6.302C7.64492 6.302 7.72079 6.3551 7.80425 6.45374C7.88771 6.55996 7.94082 6.62824 7.97117 6.66618C8.07739 6.93173 8.1912 7.19729 8.29742 7.44767C8.33536 7.40214 8.41882 7.129 8.55539 6.64342C8.65402 6.29441 8.81335 6.11231 9.04856 6.11231C9.10926 6.11231 9.19272 6.12748 9.30653 6.16542L9.29894 6.1806ZM6.93171 4.23068C6.87102 4.32931 6.84067 4.42794 6.84067 4.54175C6.84067 4.62521 6.87102 4.73902 6.92413 4.86801C6.97724 5.00458 7.00759 5.09562 7.00759 5.14115C7.00759 5.24737 6.95448 5.36117 6.84067 5.46739L6.60546 5.20943C6.2261 5.64949 5.78604 6.05921 5.27769 6.44616C4.83763 6.78758 4.34446 7.10624 3.783 7.40973C4.67071 6.63583 5.55842 5.85435 6.46131 5.08045C6.43854 5.05769 6.3475 4.9894 6.18816 4.86801C6.02883 4.7542 5.93778 4.64039 5.91502 4.53416C5.93778 4.37483 6.00607 4.23067 6.12747 4.0941C6.24128 3.95753 6.37026 3.86648 6.522 3.82096C6.62823 3.7982 6.71927 3.82096 6.79514 3.912C6.87102 3.99546 6.91654 4.10169 6.9393 4.22308L6.93171 4.23068ZM18.6237 10.3156C18.563 10.0273 18.4416 9.51141 18.2595 8.78303C17.9939 7.70564 17.827 6.87104 17.7663 6.28682L17.8953 6.02885C17.9712 6.06679 18.0622 6.17301 18.1684 6.3551C18.2747 6.53719 18.3961 6.62824 18.5175 6.62824C18.3809 6.15783 18.2215 5.7026 18.0319 5.27771C17.8422 4.85283 17.6222 4.42036 17.3642 3.98788C17.2807 4.13204 17.1973 4.29137 17.1062 4.4507C17.0228 4.61762 16.9772 4.75419 16.9772 4.87559C16.9772 4.98181 17 5.08045 17.0531 5.16391C17.5235 7.62977 18.0015 10.088 18.4719 12.5387C18.4947 12.7663 18.525 13.0015 18.563 13.2292C18.563 13.4113 18.4795 13.5326 18.305 13.5933C18.047 13.6996 17.7739 13.7603 17.4856 13.7603C17.0379 13.7603 16.6662 13.6313 16.3778 13.3809C16.3778 13.3581 16.393 13.305 16.431 13.214C16.4689 13.1305 16.4765 13.0622 16.4461 13.0167C16.4082 13.0622 16.3171 13.2216 16.173 13.4871C15.9757 13.8286 15.7633 14.0258 15.5357 14.0865C15.4143 14.1093 15.3156 14.1245 15.2473 14.1245C14.9211 14.1245 14.6555 14.0031 14.4431 13.7603C14.4279 13.7147 14.4583 13.5933 14.5341 13.4112C14.5569 13.3354 14.5645 13.2747 14.5493 13.2292C14.2838 13.472 14.0106 13.7147 13.7299 13.9651C13.4492 14.2155 13.1533 14.3369 12.8346 14.3369C12.569 14.3369 12.3338 14.1927 12.1214 13.8968C12.0152 13.7375 11.8558 13.4947 11.651 13.1685C11.4082 13.085 11.173 13.0395 10.9378 13.0395C10.5357 13.0395 10.1184 13.1609 9.6783 13.4037C9.39757 13.563 9.0258 13.8285 8.57056 14.2079C8.28983 14.4355 7.95599 14.739 7.56904 15.1032C6.7648 15.8695 6.2261 16.3627 5.94537 16.5751C5.71775 16.7421 5.47496 16.8862 5.23217 16.9924C4.98938 17.0987 4.76176 17.1594 4.54173 17.1594C4.29894 17.1594 4.07132 17.0911 3.86646 16.9621C3.60091 16.6814 3.46434 16.3779 3.46434 16.0516C3.46434 15.7254 3.59332 15.3612 3.8437 14.9211C3.98027 14.6783 4.18513 14.3293 4.46586 13.8817C3.9044 14.5949 3.57056 15.0956 3.44917 15.3763C3.28983 15.7178 3.21396 16.0592 3.21396 16.4158C3.21396 16.7345 3.28983 17.038 3.44917 17.3415C3.58574 17.5387 3.75266 17.6905 3.9651 17.8043C4.17754 17.9181 4.38999 17.9788 4.61002 17.9788C4.73141 17.9788 4.84522 17.9636 4.95903 17.9257C5.42185 17.7891 5.89226 17.516 6.37785 17.0911C6.42337 17.0455 6.84826 16.6358 7.63733 15.8695C8.20637 15.3384 8.64643 14.9666 8.94992 14.7618C9.45827 14.4204 9.96662 14.2079 10.4598 14.1245C10.5964 14.0789 10.7178 14.0486 10.8392 14.0486C11.1199 14.0486 11.3854 14.2914 11.651 14.777C11.909 15.2625 12.2276 15.475 12.607 15.4143C12.8725 15.4143 13.1381 15.3157 13.4112 15.126C13.5933 14.9894 13.7982 14.7921 14.0334 14.5266C14.0486 14.648 14.1093 14.7542 14.2155 14.8528C14.2914 14.9135 14.3824 14.9894 14.5038 15.0729C14.648 15.1487 14.7997 15.1791 14.959 15.1791C15.0804 15.1791 15.2398 15.1563 15.4294 15.1032C15.6115 15.0197 15.7633 14.8604 15.8847 14.6328C15.9605 14.4355 16.0364 14.2383 16.1199 14.0334V14.2686C16.1806 14.4128 16.2792 14.5266 16.4082 14.6176C16.4841 14.6631 16.6131 14.7238 16.8103 14.7845C16.9772 14.8225 17.1593 14.8377 17.3414 14.8377C17.569 14.8377 17.7891 14.7997 17.9939 14.7163C18.1988 14.6404 18.3733 14.519 18.5023 14.3597C18.6464 13.9803 18.7451 13.654 18.7906 13.3733C18.8361 13.0926 18.8665 12.7663 18.8665 12.387C18.8665 12.038 18.8437 11.6889 18.7906 11.3551C18.7451 11.0213 18.6768 10.6647 18.5933 10.2929L18.6237 10.3156ZM17.0228 15.9606C17.0228 16.2868 16.871 16.522 16.5675 16.651C16.4689 16.651 16.3247 16.6889 16.1199 16.7724C15.9226 16.8483 15.7785 16.8938 15.695 16.8938C15.5281 16.8938 15.3839 16.8179 15.2777 16.6586C14.959 16.7572 14.5948 16.909 14.1851 17.1138C13.8816 17.2732 13.6616 17.387 13.5326 17.4628C13.2064 17.6222 12.8953 17.7436 12.5918 17.8346C12.2959 17.9257 11.9848 17.9712 11.6737 17.9712C11.9393 17.9333 12.1745 17.8726 12.3718 17.7815C12.569 17.6905 12.9788 17.4628 13.5857 17.0987C14.0258 16.8179 14.3217 16.6358 14.481 16.5524C14.8225 16.3855 15.1639 16.2944 15.4977 16.2944C15.5736 16.3779 15.6646 16.4462 15.786 16.5068C15.9074 16.56 16.0137 16.5675 16.0971 16.5372C16.173 16.3703 16.2261 16.2413 16.2716 16.1654C16.3171 16.0896 16.3627 16.0213 16.4234 15.9757L16.4613 16.3248C16.5827 16.3627 16.6889 16.3248 16.7876 16.2337C16.9317 16.0668 17.0152 15.9757 17.0228 15.9757V15.9606ZM9.9742 16.8559C9.89833 17.0152 9.85281 17.129 9.83005 17.2049C9.76935 17.3414 9.70106 17.4325 9.63278 17.4932C9.54932 17.5387 9.45068 17.5387 9.35205 17.4932C9.24583 17.4477 9.2003 17.3718 9.2003 17.2732C9.17754 17.0076 9.24583 16.7193 9.39757 16.4158C9.48103 16.2716 9.56449 16.1199 9.65554 15.9606C9.59484 16.1199 9.54932 16.2413 9.51138 16.3248C9.43551 16.5068 9.40516 16.6586 9.40516 16.78C9.40516 16.9166 9.45827 17.0304 9.57208 17.129C9.65554 17.1518 9.74659 17.1062 9.84522 16.9848C9.90592 16.909 9.95144 16.871 9.98938 16.8559H9.9742ZM11.651 19.5721C10.9681 19.9363 10.3005 20.2246 9.64795 20.4295C8.83612 20.695 8.08498 20.8316 7.38695 20.8316C6.15781 20.8316 5.24734 20.7405 4.64795 20.566C4.04856 20.3915 3.51745 20.126 3.05463 19.777C2.66768 19.4886 2.39454 19.132 2.23521 18.7147C2.07587 18.2974 2 17.8043 2 17.2504C2.18209 16.2565 2.46282 15.4067 2.8346 14.7011C3.27466 13.8665 3.86646 13.1685 4.6176 12.6222C4.54173 12.5387 4.13961 12.2656 3.39605 11.8028C2.88771 11.4841 2.62974 11.0896 2.62974 10.6191C2.78908 10.088 2.97117 9.70108 3.17602 9.46588C3.38088 9.23067 3.61609 9.07893 3.88923 9.01823C4.35964 8.97271 4.89833 8.94236 5.49014 8.94236C6.30197 8.94236 7.08346 8.9803 7.81942 9.06376C8.56297 9.13963 9.37481 9.26862 10.2625 9.43554C10.4219 9.57211 10.4977 9.66314 10.4977 9.70867C10.4977 9.7466 10.4826 9.79213 10.4446 9.85283C10.3384 10.1563 10.2398 10.3763 10.1563 10.5053C9.99696 10.7481 9.7997 10.8847 9.55691 10.9226C8.98786 11.1806 8.41882 11.4234 7.86495 11.6662C7.09863 12.0076 6.47648 12.3111 5.9909 12.5767C5.28528 12.9636 4.71624 13.3278 4.27618 13.6692C3.72989 14.0941 3.29742 14.5493 2.98634 15.0349C2.64492 15.5205 2.478 16.1047 2.478 16.78C2.478 17.0683 2.52352 17.3642 2.62216 17.6525C3.04704 18.305 3.63885 18.821 4.40516 19.2003C5.07284 19.5266 5.84674 19.739 6.71927 19.8377C7.14416 19.8756 7.56146 19.8908 7.97876 19.8908C8.62367 19.8908 9.18513 19.868 9.67071 19.8149C10.1563 19.7694 10.8164 19.6783 11.6586 19.5569L11.651 19.5721ZM6.96965 14.7997C6.55994 15.4295 5.9909 15.7481 5.27769 15.7481C5.14112 15.7481 5.05008 15.7481 4.98938 15.7329C4.78452 15.6343 4.64795 15.5281 4.58725 15.4067C4.64795 15.1487 4.76935 14.9135 4.95144 14.6935C5.13354 14.4735 5.34598 14.3369 5.58877 14.2762C5.50531 14.2534 5.41426 14.2307 5.32322 14.2003C5.23217 14.1776 5.17147 14.1624 5.14871 14.1624C5.06525 14.1624 4.98179 14.2079 4.91351 14.2914C4.87557 14.2914 4.86039 14.2762 4.86039 14.2459C4.86039 14.2155 4.8604 14.1851 4.87557 14.1472C4.99697 13.9272 5.18665 13.821 5.43703 13.821C5.54325 13.821 5.65706 13.8361 5.76328 13.8665C5.8695 13.8968 5.97572 13.9424 6.07436 14.0031C6.05159 14.2307 5.85432 14.4355 5.48255 14.6025C5.11077 14.7694 4.92868 14.9135 4.92868 15.0197C4.92868 15.1032 4.99697 15.217 5.12595 15.346C5.27011 15.3688 5.38391 15.3839 5.47496 15.3839C5.73293 15.3839 5.9909 15.3232 6.25645 15.2018C6.37785 15.1563 6.61305 15.0197 6.96965 14.7997ZM6.6434 4.67832V4.49623C6.62064 4.33689 6.53718 4.26102 6.38543 4.26102C6.30956 4.26102 6.25645 4.29137 6.21851 4.35207L6.63581 4.67832H6.6434ZM8.88164 10.3232C8.47193 10.5205 7.8346 10.8012 6.96965 11.1806C6.2261 11.522 5.60395 11.8635 5.0956 12.2201C5.0956 11.7572 4.76176 11.3248 4.09408 10.9302C3.6692 10.6722 3.38847 10.4826 3.25948 10.346C3.51745 10.2246 3.77542 10.1411 4.04856 10.1032C4.3217 10.0577 4.64795 10.0425 5.01973 10.0425C5.10319 10.0425 5.56601 10.0653 6.40061 10.1184C6.60546 10.1336 6.8786 10.1336 7.22003 10.1336L8.87405 10.3308L8.88164 10.3232Z" fill="white"/>
</svg>
