<svg width="24" height="24" viewBox="0 0 24 24" fill="none" xmlns="http://www.w3.org/2000/svg">
<path fill-rule="evenodd" clip-rule="evenodd" d="M22 9.18219C21.9788 9.07097 21.9047 8.92796 21.7775 8.75847C21.7193 8.68962 21.6663 8.61546 21.6081 8.5466L21.4597 8.7161L21.7352 13.6419C21.7352 14.018 21.6769 14.3835 21.5604 14.7383C21.4439 15.0932 21.285 15.4534 21.089 15.8136C21.179 15.6017 21.2426 15.3792 21.2744 15.1515C21.3061 14.9237 21.322 14.643 21.322 14.3199C21.322 14.1557 21.3167 13.8856 21.3008 13.4989C21.285 13.1123 21.2797 12.911 21.2797 12.8898L20.9407 7.7733C20.9672 7.73623 20.9831 7.69385 20.9831 7.64618C20.9831 7.6091 20.9778 7.57203 20.9619 7.52965C20.946 7.48728 20.9354 7.44491 20.9195 7.40253L21.3326 6.70338C21.5657 7.22775 21.7246 7.62499 21.8093 7.90042C21.9364 8.31885 22 8.74258 22 9.18219ZM17.1377 10.3475C17.1112 10.4375 17.09 10.5116 17.0742 10.5593C17.0159 10.7341 16.9364 10.8347 16.8305 10.8559C16.767 10.8718 16.7087 10.8506 16.6557 10.7977C16.6028 10.7447 16.5657 10.6917 16.5498 10.6441C16.5339 10.5964 16.5233 10.5328 16.5233 10.464C16.5233 10.2468 16.5922 10.0455 16.7352 9.87076C16.7193 9.93431 16.7087 10.0085 16.6928 10.0879C16.6769 10.1674 16.6716 10.2203 16.6716 10.2415C16.6716 10.3104 16.6928 10.3845 16.7352 10.464C16.7828 10.5222 16.8252 10.554 16.8517 10.5699C16.8782 10.5858 16.9153 10.5699 16.9576 10.5381C16.9947 10.5328 17.0212 10.4958 17.0424 10.4375C17.0636 10.3792 17.0953 10.3475 17.1377 10.3475ZM17.1377 7.03177C16.8676 7.22245 16.5286 7.40254 16.1208 7.57203C15.5117 7.80508 14.9078 8.03284 14.3093 8.26059C13.4989 8.58368 12.6886 8.90677 11.8835 9.22457C11.8835 9.16631 11.9047 9.11335 11.947 9.06568C12.0689 8.95974 12.1536 8.88558 12.2013 8.84321C12.6515 8.68961 13.2023 8.48305 13.8432 8.22881C14.8019 7.85275 15.3528 7.64088 15.4852 7.59321C16.1049 7.36016 16.6557 7.17478 17.1377 7.03177ZM15.6229 9.84957C15.6494 9.77012 15.6653 9.68538 15.6653 9.58474C15.6653 9.48411 15.66 9.40466 15.6494 9.3464C15.6388 9.28813 15.6123 9.19809 15.5699 9.08686C15.5064 9.11334 15.4746 9.16631 15.4746 9.23516C15.4746 9.26165 15.4799 9.30931 15.4958 9.37287C15.5117 9.43643 15.517 9.48411 15.517 9.51059C15.517 9.54767 15.5117 9.57415 15.4958 9.60063C15.4799 9.62711 15.4587 9.643 15.4216 9.6483C15.3104 9.63241 15.2362 9.58474 15.1992 9.50529C15.1621 9.42584 15.1462 9.31461 15.1462 9.18219V9.03389C15.0667 9.07097 15.0297 9.14512 15.0297 9.26694C15.0297 9.30931 15.0297 9.36758 15.0403 9.44173C15.0456 9.51588 15.0508 9.56356 15.0508 9.58474C15.0508 9.67478 15.0297 9.74363 14.9873 9.78601C14.9449 9.82838 14.8602 9.83898 14.7331 9.81779C14.6483 9.77012 14.6059 9.69067 14.6059 9.58474C14.6112 9.52648 14.6218 9.47351 14.6271 9.41525C14.6324 9.35698 14.6377 9.30402 14.6377 9.24576C14.6377 9.19809 14.6271 9.14512 14.6059 9.08686C14.5371 9.15571 14.4947 9.25635 14.4841 9.38347C14.4735 9.51059 14.4629 9.66419 14.447 9.84957C14.4682 9.92902 14.5053 9.99788 14.5636 10.0667C14.6218 10.1356 14.6854 10.1674 14.7648 10.1674C14.7701 10.1674 14.786 10.1674 14.8125 10.1674C14.839 10.1674 14.8708 10.1568 14.9184 10.1462C14.9661 10.1356 15.0032 10.0932 15.0403 10.0191C15.0773 9.94491 15.1091 9.87076 15.1462 9.8019L15.2733 9.91842C15.3422 9.94491 15.4004 9.9608 15.4428 9.9608C15.5222 9.9608 15.5805 9.92372 15.6229 9.85487V9.84957ZM12 7.91101C11.9576 7.99046 11.9047 8.02754 11.8411 8.02754C11.7775 8.02754 11.7299 8.00106 11.6981 7.94809C11.6663 7.89513 11.6504 7.84745 11.6504 7.80508C11.6928 7.66207 11.7352 7.51906 11.7775 7.37075C11.7511 7.41313 11.6981 7.48728 11.6292 7.59321C11.5498 7.73622 11.5127 7.86864 11.5127 7.99576C11.5127 8.02224 11.518 8.07521 11.5339 8.14406C11.571 8.21292 11.6133 8.26589 11.661 8.30296C11.7087 8.34004 11.767 8.35063 11.8305 8.33474C11.8517 8.29237 11.8835 8.22881 11.9311 8.14936C11.9788 8.06991 12 7.99046 12 7.91101ZM13.1017 10.6864L13.0275 10.9407C12.9587 10.9619 12.8739 10.9407 12.7786 10.8718C12.6833 10.803 12.6091 10.7871 12.5508 10.8136C12.5085 10.9142 12.4714 11.0784 12.4449 11.3114C12.3972 11.7087 12.2966 11.9629 12.1483 12.0741C11.9947 11.7616 11.8358 11.4491 11.6822 11.1314C11.6769 11.2002 11.6451 11.2373 11.5869 11.2373C11.5021 11.2214 11.4174 11.2055 11.3326 11.1843C11.2956 11.1472 11.2797 11.1049 11.2797 11.0572C11.2797 11.0148 11.2956 10.9566 11.3326 10.8824C11.3697 10.8083 11.3856 10.7606 11.3856 10.7394C11.4121 10.6547 11.4968 10.6123 11.6292 10.6123C11.7722 10.7394 11.8888 10.9195 11.9788 11.1525C12.1059 11.465 12.196 11.6557 12.2436 11.7246C12.3019 11.4121 12.3443 11.1684 12.3814 10.9936C12.4449 10.6547 12.5561 10.4852 12.7097 10.4852C12.7574 10.4852 12.8157 10.5011 12.8845 10.5381C12.9534 10.5752 13.0222 10.6229 13.1017 10.6864ZM9.60593 8.95974C9.52119 9.10804 9.44174 9.22987 9.37288 9.31991C9.27225 9.44703 9.17161 9.54767 9.06568 9.62712C8.98623 9.56356 8.88559 9.4947 8.75847 9.41525C8.5625 9.30402 8.45127 9.24046 8.43009 9.22457C8.52013 9.05508 8.60487 8.91737 8.67903 8.81674C8.75318 8.7161 8.85911 8.61016 8.99153 8.50423C9.00742 8.52012 9.08157 8.56779 9.21398 8.65253C9.38877 8.76376 9.52119 8.8697 9.60593 8.95974ZM19.2564 8.93855C19.2193 8.59427 19.1345 8.22351 18.9915 7.82626C18.8485 7.48198 18.7108 7.13241 18.5784 6.78813C18.4513 6.88877 18.34 7.03177 18.25 7.22245C18.2235 7.28071 18.1811 7.38135 18.1335 7.52965C18.1335 8.06461 18.197 8.76906 18.3242 9.6377C18.4301 10.358 18.5413 11.1049 18.6578 11.8782C18.7744 12.6515 18.8326 13.34 18.8326 13.9386C18.5413 14.1028 18.1917 14.2299 17.7839 14.3305C17.5932 14.3729 17.2172 14.4417 16.661 14.5318C16.8888 14.2616 17.0424 14.0604 17.1271 13.928C17.2701 13.7002 17.3655 13.4778 17.4237 13.2606C17.4237 13.0487 17.3019 12.8633 17.0636 12.6991C16.9364 12.6091 16.7299 12.482 16.4492 12.3178C16.1314 12.1536 15.8242 12.0741 15.5275 12.0741C15.1409 12.0741 14.7383 12.2225 14.3305 12.5191C14.0975 12.6886 13.7532 13.0063 13.2977 13.4777C12.8422 13.9491 12.5032 14.2616 12.2754 14.4258C12.143 14.3358 12.0106 14.2405 11.8835 14.1504C11.7193 14.0233 11.6398 13.9015 11.6398 13.7903C11.6398 13.7108 11.661 13.6472 11.7034 13.589C11.5763 13.6472 11.3167 13.8379 10.9301 14.161C10.6176 14.4153 10.3422 14.5636 10.0932 14.6059C10.035 14.6112 9.96081 14.6218 9.86017 14.6377C9.75953 14.6536 9.64831 14.6589 9.52119 14.6589C9.33581 14.6589 9.1822 14.6324 9.04979 14.5794C8.91737 14.5265 8.81674 14.4311 8.73729 14.2987C8.82203 14.2405 8.91208 14.1769 9.01271 14.108C9.11335 14.0392 9.1875 13.965 9.23517 13.8856C9.32521 13.6472 9.42585 13.3877 9.52648 13.1123C9.62712 12.8369 9.68008 12.5985 9.68008 12.4025C9.68008 12.2913 9.6642 12.1801 9.63771 12.0794C9.61123 11.9788 9.56356 11.8782 9.5 11.7775C9.46292 11.6716 9.40466 11.5869 9.32521 11.5286C9.24576 11.4703 9.09216 11.4227 8.875 11.3856C8.57309 11.6769 8.33475 12.0106 8.15996 12.3866C7.98517 12.7627 7.90042 13.1705 7.90042 13.5996C7.90042 13.6631 7.90042 13.7267 7.90572 13.7955C7.90572 13.8644 7.91631 13.9174 7.92161 13.9597C7.54555 14.1875 7.10064 14.3782 6.58687 14.5424C6.21081 14.6642 5.73411 14.7807 5.14619 14.9025C4.48941 14.9025 4.00212 14.8655 3.68432 14.7966C3.17585 14.6854 2.78919 14.447 2.51907 14.0869C2.43962 13.9227 2.40254 13.732 2.40254 13.5148C2.40254 13.1705 2.49258 12.821 2.67797 12.4767C2.52966 12.5826 2.40784 12.7362 2.3072 12.9428C2.22775 13.1282 2.1536 13.3083 2.07415 13.4936C2.03708 13.6049 2.01589 13.6896 2.01059 13.7479C2.0053 13.8061 2 13.8856 2 13.9915C2 14.2193 2.04237 14.4364 2.13242 14.6483C2.22246 14.8602 2.34428 15.0455 2.49788 15.1991C2.79979 15.411 3.1017 15.5593 3.39831 15.6388C3.69492 15.7182 4.02331 15.7606 4.38347 15.7606C4.8072 15.7606 5.23623 15.7023 5.67585 15.5911C5.99894 15.5064 6.42267 15.3633 6.93644 15.1568C7.19598 15.0508 7.58263 14.8867 8.0911 14.6589C8.23411 14.8761 8.34004 15.0297 8.4089 15.1144C8.47775 15.1992 8.55191 15.268 8.63136 15.3263C8.80085 15.4587 9.0392 15.5275 9.3411 15.5275C9.53708 15.5275 9.73305 15.5011 9.92373 15.4428C10.1409 15.4004 10.4057 15.2521 10.7182 14.9979C11.0837 14.7013 11.3326 14.5212 11.4597 14.4576C11.4597 14.59 11.518 14.733 11.6398 14.8814C11.7034 14.9608 11.767 15.035 11.8305 15.1038C11.8252 15.1197 11.6716 15.3527 11.375 15.8136C11.2691 15.9777 11.2055 16.1261 11.1843 16.2585L12 15.1991C12.2172 15.2839 12.4131 15.3422 12.5826 15.3739C12.7521 15.4057 12.9534 15.4216 13.1864 15.4216C13.4989 15.4216 13.9015 15.3739 14.4047 15.2839C14.7066 15.2256 14.9555 15.1833 15.1462 15.1462C15.321 15.215 15.4958 15.268 15.66 15.2998C15.8242 15.3316 16.0095 15.3474 16.2055 15.3474C16.5498 15.3474 16.9576 15.2839 17.4237 15.1568C17.5456 15.1197 17.9269 15.0032 18.5784 14.7966C18.8273 14.5689 18.9968 14.3199 19.0975 14.0498C19.1981 13.7797 19.2458 13.4672 19.2458 13.1229C19.2458 12.9534 19.2352 12.7892 19.2193 12.6303C19.2034 12.4714 19.1292 12.053 19.0021 11.375C18.9121 10.8824 18.8644 10.4852 18.8644 10.1886C18.8644 10.0985 18.8485 9.93432 18.822 9.70127C18.7744 9.29873 18.7479 9.0286 18.7479 8.89618C18.7479 8.79555 18.7532 8.7002 18.7691 8.60487C18.785 8.50953 18.8061 8.42478 18.8326 8.35592C18.9121 8.41419 18.9915 8.50953 19.0763 8.64195C19.1186 8.70551 19.1769 8.80614 19.2564 8.93855ZM6.86229 7.72033C6.82521 7.83156 6.79873 7.9163 6.77754 7.97457C6.69809 7.94808 6.64513 7.9216 6.60805 7.90042C6.52331 7.85804 6.45445 7.84745 6.40678 7.86864C6.36441 7.99046 6.33792 8.22351 6.33263 8.57838C6.32733 8.93325 6.28496 9.18749 6.20551 9.35169C6.11547 9.26165 5.98835 9.04978 5.83475 8.7161C5.75 8.53072 5.67055 8.3983 5.5911 8.31355C5.56462 8.31885 5.54343 8.35063 5.53814 8.3983C5.53284 8.44597 5.52225 8.47775 5.51695 8.48305C5.4322 8.44597 5.35805 8.41948 5.29979 8.3983C5.24153 8.37711 5.18856 8.34003 5.14619 8.28177C5.14089 8.25529 5.13559 8.21821 5.13559 8.17584C5.13559 8.11228 5.15148 8.04342 5.17797 7.97457C5.18326 7.95868 5.21504 7.90042 5.27331 7.79448C5.34216 7.7733 5.42161 7.78919 5.50636 7.83686C5.52754 7.85275 5.57521 7.88453 5.64407 7.94279C5.7553 8.04872 5.85593 8.20233 5.94068 8.40889C6.0625 8.68432 6.14195 8.8538 6.18432 8.91736C6.18962 8.67902 6.20551 8.43008 6.2214 8.17584C6.23729 7.9216 6.30614 7.70974 6.42797 7.54025C6.60275 7.51906 6.75106 7.57732 6.86229 7.72033ZM14.9449 15.9619C14.9608 16.0731 14.9184 16.1843 14.8284 16.2903C14.7701 16.3538 14.6854 16.4227 14.5636 16.5021C14.4417 16.6027 14.3252 16.6504 14.2034 16.6504C14.1028 16.6504 14.0021 16.6292 13.8962 16.5869C13.6155 16.4756 13.4407 16.4174 13.3771 16.4174C13.2765 16.4174 13.1864 16.4439 13.1017 16.5021C12.7256 16.7352 12.3867 16.91 12.0847 17.0318C11.8782 17.1165 11.6928 17.1801 11.518 17.2277C11.3432 17.2754 11.1578 17.2966 10.9619 17.2966C11.2426 17.2966 11.5657 17.1854 11.9258 16.9682C12.1112 16.8464 12.2966 16.7299 12.4873 16.608C12.678 16.4862 12.8581 16.3909 13.0222 16.322C13.1864 16.2532 13.3665 16.2161 13.5572 16.2161C13.7055 16.2161 13.8644 16.2479 14.0339 16.3114C14.0498 16.2955 14.1081 16.2373 14.2193 16.1366C14.3305 16.036 14.4206 15.9619 14.5 15.9195C14.5794 15.8771 14.6483 15.8559 14.7119 15.8559C14.7966 15.8559 14.8761 15.893 14.9449 15.9619ZM6.77754 9.7966C6.77754 10.0032 6.60805 10.1091 6.27436 10.1144C5.94068 10.1197 5.73411 10.1992 5.66525 10.3475C5.76589 10.7341 5.82945 10.9883 5.85593 11.0996C5.91949 11.3697 5.96716 11.6292 5.99364 11.8835C5.99894 11.9841 6.00424 12.0636 6.00953 12.1324C6.00953 12.2013 6.01483 12.2595 6.01483 12.3072C6.01483 12.715 5.94068 13.0964 5.79237 13.4407C5.87182 13.2447 5.9089 13.0275 5.9089 12.7945C5.9089 12.6409 5.89301 12.4873 5.86653 12.339C5.84004 12.1907 5.79767 12.0053 5.7447 11.7881C5.69174 11.571 5.64407 11.3644 5.60699 11.1737C5.56992 10.983 5.54873 10.8083 5.54873 10.6441C5.54873 10.4534 5.58051 10.2627 5.64407 10.072C5.72352 9.98728 5.81356 9.92373 5.91949 9.87606C6.02542 9.82839 6.14725 9.79661 6.27966 9.77542C6.2161 9.71186 6.14195 9.68008 6.0572 9.68008C5.99894 9.68008 5.94597 9.69597 5.88771 9.73305C5.86653 9.77542 5.84004 9.8019 5.81356 9.81779C5.79237 9.79131 5.79237 9.74894 5.81356 9.70127C5.83475 9.6536 5.86123 9.59533 5.88771 9.53177C5.96716 9.44703 6.0572 9.40466 6.16314 9.40466C6.23199 9.40466 6.29555 9.42054 6.35381 9.45762C6.50742 9.53707 6.65042 9.6483 6.77754 9.7966ZM3.79025 11.0572C3.7214 11.4386 3.65254 11.7246 3.58898 11.9152C3.47775 12.2701 3.26589 12.4449 2.96398 12.4449C2.87394 12.4449 2.79449 12.4184 2.72564 12.3602C2.65678 12.3019 2.59852 12.2278 2.55085 12.1271C2.51377 12.0159 2.49258 11.8994 2.47669 11.7881C2.4608 11.6769 2.45551 11.5604 2.45551 11.4492C2.45551 11.0678 2.55614 10.6388 2.76271 10.1674C2.81038 10.0455 3.01695 9.6483 3.37712 8.97033C3.36123 9.018 3.2553 9.30932 3.04873 9.83898C2.90042 10.2256 2.82627 10.5381 2.82627 10.7712C2.82627 10.9354 2.84746 11.0837 2.89513 11.2161C2.9428 11.3485 3.02225 11.4809 3.14407 11.608C3.26589 11.608 3.36653 11.5869 3.45657 11.5445C3.54661 11.5021 3.60487 11.4386 3.63665 11.3591C3.66843 11.2797 3.69492 11.2161 3.7108 11.1737C3.72669 11.1314 3.75318 11.0943 3.79025 11.0572ZM4.93432 12.8475C4.93432 12.8475 4.89725 12.9481 4.86547 13.0805C4.83369 13.2129 4.77542 13.2977 4.69068 13.3347C4.63242 13.3559 4.57415 13.3559 4.51059 13.3294C4.44703 13.303 4.39936 13.2553 4.37288 13.1864C4.39936 12.8528 4.45233 12.5773 4.53178 12.3549C4.61123 12.1324 4.74364 11.9153 4.93432 11.7034C4.92903 11.7193 4.86017 11.8782 4.73305 12.1801C4.64301 12.3919 4.59534 12.5667 4.59534 12.7097C4.59534 12.8316 4.62182 12.9428 4.68008 13.0487C4.72246 13.0487 4.76483 13.0169 4.8072 12.9534C4.84958 12.8898 4.89195 12.8528 4.93432 12.8475ZM16.8305 13.8644C16.2161 14.1133 15.6864 14.2934 15.2415 14.4047C14.6536 14.553 14.0922 14.6271 13.5572 14.6271C13.2341 14.6271 12.911 14.5953 12.5932 14.5318C12.8739 14.2564 13.16 13.9809 13.4513 13.7055C14.0392 13.1547 14.5847 12.8792 15.0932 12.8792C15.1568 12.8792 15.2256 12.8792 15.2998 12.8898C15.3739 12.8951 15.4375 12.9057 15.4958 12.9216C15.9036 13.0911 16.1578 13.2023 16.2585 13.2606C16.5392 13.4248 16.7299 13.6261 16.8305 13.8644ZM14.6907 16.2161C14.5477 16.2955 14.3729 16.3432 14.161 16.3644C14.1822 16.3432 14.2193 16.3061 14.2775 16.2532C14.3358 16.2002 14.3782 16.1631 14.4153 16.1419C14.4523 16.1208 14.4841 16.1102 14.5212 16.1102C14.59 16.1102 14.6483 16.1472 14.6907 16.2161ZM9.23517 13.2606L8.38771 13.7585C8.31886 13.5254 8.28178 13.2765 8.28178 13.0169C8.28178 12.8422 8.30297 12.6886 8.34004 12.5561C8.37712 12.4237 8.44597 12.3125 8.53602 12.2225C8.65784 12.2383 8.76377 12.2701 8.86441 12.3284C8.96504 12.3866 9.0286 12.4661 9.06568 12.572C9.11335 12.6727 9.15042 12.7786 9.17691 12.8898C9.20339 13.0011 9.21928 13.1282 9.23517 13.2606Z" fill="white"/>
</svg>
