<svg width="24" height="24" viewBox="0 0 24 24" fill="none" xmlns="http://www.w3.org/2000/svg">
<path fill-rule="evenodd" clip-rule="evenodd" d="M21.9958 9.60747C21.8837 9.44963 21.7715 9.28763 21.6677 9.12979L21.5888 9.3084L21.7674 13.4662C21.7674 13.9315 21.7175 14.3801 21.6137 14.8162C21.5099 15.2523 21.3603 15.6594 21.161 16.0374C21.2482 15.6968 21.3105 15.3188 21.352 14.8951C21.3936 14.4714 21.4102 14.0644 21.4102 13.6656C21.4102 13.1879 21.3853 12.648 21.3396 12.0457C21.2939 11.4434 21.2482 10.8203 21.1983 10.1724C21.1526 9.5244 21.1277 9.00933 21.1277 8.62304C21.0945 8.55658 21.0779 8.49844 21.0779 8.45274C21.0779 8.36136 21.1236 8.24921 21.2191 8.1246C21.3603 7.93353 21.4309 7.82969 21.4393 7.81722C21.5722 8.09137 21.6885 8.37382 21.784 8.67289C21.8795 8.97195 21.9502 9.28348 22 9.61162L21.9958 9.60747ZM18.4486 7.63447C18.4154 7.80062 18.2908 7.91692 18.0706 7.98338C17.7383 8.09137 17.5556 8.15367 17.5223 8.17444L15.7196 8.87226C15.7196 8.81411 15.7487 8.74766 15.811 8.67289C15.8692 8.59812 15.9356 8.56074 16.0021 8.55243L18.4528 7.63447H18.4486ZM17.6303 9.88577C17.6096 9.94392 17.5597 9.97715 17.4808 9.97715C17.4351 9.97715 17.3894 9.96884 17.352 9.94807L17.244 9.8193C17.2025 9.91899 17.1734 9.98545 17.1526 10.0187C17.107 10.0934 17.0447 10.1433 16.974 10.1682C16.8868 10.189 16.8162 10.1682 16.7539 10.1101C16.7207 10.0768 16.6791 10.0145 16.6334 9.919C16.6417 9.8733 16.6459 9.74038 16.6542 9.52024C16.6625 9.30009 16.7124 9.1464 16.8037 9.05087C16.8245 9.09241 16.8328 9.14225 16.8328 9.2004C16.8328 9.25855 16.8328 9.31255 16.8245 9.35825C16.7996 9.5327 16.783 9.62408 16.783 9.63654C16.783 9.78192 16.8577 9.85669 17.0114 9.85669C17.0363 9.84838 17.0613 9.84838 17.082 9.84838C17.1485 9.79023 17.1817 9.703 17.1817 9.59085C17.1693 9.46624 17.161 9.36655 17.161 9.30009C17.161 9.20041 17.1942 9.12564 17.2606 9.07164C17.2814 9.09656 17.2897 9.15472 17.2897 9.24194C17.2814 9.35409 17.2814 9.43301 17.2814 9.48286C17.2814 9.55762 17.2939 9.61162 17.3229 9.649C17.3479 9.68639 17.4019 9.703 17.4808 9.703C17.5265 9.703 17.5639 9.68639 17.5888 9.65316C17.5639 9.54101 17.5348 9.4247 17.5099 9.30425C17.5099 9.22948 17.5306 9.17549 17.568 9.13395C17.6594 9.20872 17.7092 9.32502 17.7092 9.48286C17.7092 9.56178 17.7051 9.62824 17.6926 9.67808C17.6843 9.72793 17.6594 9.79853 17.6262 9.89407L17.6303 9.88577ZM18.1288 11.1236C18.0831 11.2149 18.054 11.2856 18.0374 11.3312L17.7799 11.2316C17.7259 11.4891 17.6885 11.6843 17.6594 11.8089C17.6137 12.0498 17.5389 12.2077 17.4393 12.2866C17.4309 12.2783 17.3603 12.1163 17.2191 11.7965C17.1319 11.5971 17.0156 11.4974 16.8702 11.4974C16.8245 11.4559 16.7996 11.4185 16.7996 11.3769C16.7996 11.3354 16.8204 11.2856 16.866 11.2191C16.9076 11.1526 16.9325 11.1028 16.9408 11.0696C17.082 11.1028 17.1983 11.2191 17.2897 11.4185C17.3645 11.5929 17.4393 11.7632 17.5182 11.9377C17.5639 11.6469 17.5971 11.4642 17.6179 11.3977C17.6719 11.1983 17.7549 11.0446 17.8671 10.9408C17.9128 10.9616 17.9668 10.9823 18.0208 11.0114C18.0789 11.0363 18.1121 11.0737 18.1246 11.1194L18.1288 11.1236ZM13.7217 10.0353C13.7217 10.1225 13.7051 10.2139 13.6677 10.3094C13.6303 10.405 13.5763 10.4756 13.5016 10.513C13.46 10.5213 13.4226 10.5005 13.3853 10.459C13.3479 10.4174 13.3188 10.3717 13.3022 10.3261C13.2814 10.2804 13.2731 10.2139 13.2731 10.1267C13.2731 10.0021 13.3063 9.85669 13.3728 9.69885C13.406 9.61993 13.4434 9.54101 13.4808 9.45794C13.4683 9.49947 13.4476 9.57008 13.4268 9.67392C13.4019 9.77777 13.3936 9.85669 13.3936 9.90653C13.3936 9.96469 13.4019 10.027 13.4143 10.0851C13.4268 10.1433 13.4642 10.2014 13.5223 10.2554C13.5639 10.2471 13.5929 10.2222 13.6179 10.1765C13.6428 10.1308 13.6636 10.0851 13.6843 10.0353H13.7259H13.7217ZM12.6459 7.51401C12.6002 7.69262 12.4133 7.82138 12.0893 7.90446C11.8775 7.95845 11.7321 8.0083 11.649 8.05399C11.3832 8.1786 11.0052 8.33229 10.5109 8.5109C10.1454 8.64381 9.91277 8.73104 9.81308 8.76842C10.1661 8.50259 10.6895 8.2326 11.3873 7.96261C11.7279 7.838 12.0644 7.70508 12.405 7.57216L12.6459 7.51401ZM19.8525 9.73623C19.8775 9.64485 19.7861 9.31671 19.5784 8.75596C19.3707 8.19521 19.2378 7.86707 19.1838 7.77569C19.1506 7.82138 19.0883 7.90861 18.9927 8.03322C18.8598 8.22429 18.7934 8.39043 18.7934 8.53166C18.7934 8.58566 18.8017 8.63966 18.8224 8.70196L19.3292 13.379V14.297C19.0301 14.4299 18.7061 14.5296 18.3614 14.596C18.2077 14.6293 17.8795 14.675 17.3728 14.7373C17.4808 14.5504 17.5888 14.3551 17.7051 14.1474C17.8214 13.9398 17.8795 13.7487 17.8795 13.5701C17.7882 13.3167 17.5971 13.1132 17.3105 12.9636C17.2233 12.918 16.9699 12.8183 16.5421 12.6646C16.4008 12.623 16.2679 12.6064 16.1433 12.6064C15.8899 12.6064 15.6366 12.6729 15.3749 12.8058C15.1963 12.8972 14.9803 13.0467 14.7269 13.2461C14.785 13.026 14.8266 12.8432 14.8432 12.6937C14.8598 12.5441 14.8681 12.3364 14.8681 12.0706C14.8681 11.8048 14.8141 11.19 14.7103 10.2056C14.6646 9.77361 14.6397 9.41224 14.6397 9.11733C14.6812 9.15056 14.7394 9.22117 14.8183 9.32501C14.8972 9.43301 14.9595 9.50362 15.0093 9.54516C15.0093 9.52024 15.0093 9.4787 15.0177 9.42471C15.0177 9.22533 14.9429 8.9678 14.7975 8.64796C14.6231 8.26998 14.5234 8.01245 14.4901 7.87953C14.3032 8.02491 14.1828 8.24506 14.1205 8.53582C14.2783 9.49116 14.3946 10.2887 14.4611 10.9283C14.5524 11.7923 14.6023 12.6023 14.6023 13.3624C14.5483 13.4164 14.2908 13.703 13.8255 14.2305C13.6594 14.4174 13.5057 14.5711 13.3686 14.6874C13.215 14.621 13.0779 14.5213 12.9616 14.3884C12.8411 14.2554 12.7497 14.1101 12.6833 13.9481C12.6085 13.4372 12.5587 12.839 12.5254 12.1578C12.4922 11.4766 12.459 10.7954 12.4258 10.1101C12.3925 9.4247 12.3385 8.82658 12.2679 8.31567C12.1225 8.42782 12.0228 8.56489 11.9688 8.72273C11.9148 8.88057 11.8899 9.07164 11.8899 9.29178C11.8899 9.40393 11.8982 9.57839 11.919 9.811C11.9398 10.0436 11.9481 10.2139 11.9481 10.3177C11.9481 10.459 11.9647 10.7747 12.0021 11.2689C12.0395 11.7632 12.0561 12.1205 12.0561 12.3406C12.0561 12.6397 12.0395 12.9055 12.0021 13.1381C11.9647 13.3707 11.8941 13.595 11.7861 13.8068C11.7861 13.4538 11.7653 13.1215 11.7279 12.81C11.5535 12.432 11.2752 12.0041 10.8889 11.5223C10.5441 11.1236 10.1994 10.7207 9.86293 10.3177C9.44341 9.82761 9.14019 9.4164 8.95742 9.09241C8.96989 9.09241 9.01558 9.10902 9.09865 9.14225C9.17757 9.17548 9.23987 9.18379 9.27726 9.17133C9.22326 9.07995 9.13603 8.95534 9.01142 8.8058C8.88681 8.65627 8.6999 8.44028 8.44652 8.16198C8.3676 8.24921 8.3136 8.33228 8.28868 8.41536C8.26376 8.49843 8.24714 8.58566 8.24714 8.68119C8.24714 8.88057 8.33022 9.12148 8.49637 9.40809C8.58359 9.56177 8.72066 9.79023 8.91173 10.1018C9.1028 10.4091 9.44341 10.8287 9.93354 11.352C10.4777 11.9294 10.839 12.3447 11.0218 12.5981C11.3666 13.0758 11.5701 13.5535 11.6282 14.0353C11.2835 14.4673 10.8017 14.8577 10.1828 15.2025C9.8297 15.3936 9.29803 15.6677 8.58775 16.0208C8.68743 16 8.99481 15.9252 9.51402 15.7923C9.88785 15.7009 10.2035 15.6345 10.4694 15.5929C10.8598 15.4849 11.2253 15.2357 11.5576 14.837C11.811 14.5296 12.0353 14.1516 12.2347 13.6988C12.2596 13.8982 12.2928 14.1059 12.3302 14.3261C12.3676 14.5462 12.4299 14.7207 12.513 14.8536C12.6874 15.1194 12.9159 15.3105 13.2025 15.4226C13.4351 15.514 13.7259 15.5639 14.0706 15.5639C14.7809 15.4725 15.4912 15.3728 16.2056 15.2731C16.3842 15.3146 16.5421 15.3437 16.675 15.3645C16.8079 15.3852 16.9574 15.3936 17.1236 15.3936C18.2658 15.2191 18.8681 15.1194 18.9263 15.0945C19.271 14.9491 19.5036 14.704 19.6241 14.3551C19.6656 14.081 19.6822 13.8151 19.6822 13.5493V13.4413C19.6822 13.0218 19.6199 12.3738 19.4995 11.4932C19.3749 10.6127 19.3167 9.94392 19.3167 9.48286L19.4455 9.32501C19.5036 9.4247 19.5659 9.52439 19.6282 9.62408C19.6905 9.72377 19.7653 9.76531 19.8525 9.74454V9.73623ZM10.8307 8.88888C10.9844 9.17548 11.0592 9.46624 11.0592 9.7653C11.0592 10.0851 10.9678 10.3468 10.7892 10.5545C10.8889 10.4299 10.9387 10.2638 10.9387 10.0561C10.9387 9.91484 10.9221 9.77777 10.8847 9.6407C10.8474 9.50363 10.7975 9.33332 10.731 9.12564L10.8307 8.88473V8.88888ZM7.33333 9.81515C7.33333 9.81515 7.26272 9.93976 7.14226 10.1433C7.06334 10.2845 6.97196 10.3676 6.87227 10.4008C6.80581 10.3219 6.72274 10.2513 6.62305 10.1931C6.57736 10.1682 6.48183 10.1142 6.33229 10.0353C6.25753 10.1599 6.20353 10.2554 6.16199 10.3136C6.08723 10.4341 6.00415 10.4797 5.90446 10.4548L5.39772 10.1641C5.4891 9.94392 5.62201 9.74038 5.79647 9.55762C5.87124 9.57839 6 9.6407 6.18692 9.74869C6.2866 9.80269 6.36552 9.84007 6.42783 9.86915C6.47352 9.84838 6.54413 9.76946 6.64382 9.62823C6.73936 9.48701 6.81828 9.42055 6.87643 9.42055C6.93458 9.42055 7.00104 9.46624 7.0758 9.56178C7.08411 9.56178 7.13396 9.60331 7.22534 9.68223C7.28349 9.72792 7.32087 9.77361 7.33333 9.82346V9.81515ZM5.23157 8.2409C5.2648 8.27413 5.26895 8.31567 5.24818 8.36136C5.22326 8.40705 5.20665 8.44859 5.19418 8.48182C5.14849 8.46936 5.1028 8.45689 5.06542 8.44859C5.02388 8.44028 4.99481 8.44444 4.97404 8.46521C4.90758 8.5732 4.86189 8.7518 4.83281 9.00518C4.80789 9.25855 4.75805 9.42886 4.69159 9.52439C4.61267 9.32501 4.55036 9.17964 4.51298 9.0841C4.42575 8.90549 4.3053 8.81411 4.15576 8.81411C4.10177 8.78088 4.06438 8.75596 4.04777 8.7435C4.00208 8.71027 3.97715 8.67288 3.97715 8.6355C3.97715 8.52751 3.98962 8.44028 4.01869 8.36967C4.04361 8.29905 4.10177 8.24506 4.18899 8.20352C4.3136 8.2949 4.41745 8.42782 4.49637 8.59812C4.57529 8.76842 4.65421 8.93042 4.72482 9.09241C4.75805 8.84734 4.78712 8.66458 4.8162 8.54412C4.8702 8.31982 4.95742 8.20352 5.08619 8.20352C5.13188 8.20352 5.18172 8.21598 5.23572 8.24506L5.23157 8.2409ZM5.13188 9.97715C5.13188 10.0976 5.10696 10.1765 5.06127 10.2181C5.01558 10.2596 4.94496 10.2762 4.85358 10.2762C4.72897 10.2638 4.63344 10.2554 4.57529 10.2554C4.46314 10.2554 4.38422 10.2721 4.33437 10.3053C4.28868 10.3385 4.2513 10.3925 4.22638 10.4631C4.23884 10.621 4.27622 10.8162 4.33437 11.0405C4.39252 11.2648 4.45068 11.4808 4.50467 11.6802C4.52959 11.7798 4.55036 11.8712 4.56282 11.9585C4.57529 12.0457 4.58359 12.1454 4.58359 12.2575C4.58359 12.4901 4.5379 12.7103 4.44237 12.9138C4.4756 12.7601 4.49221 12.6272 4.49221 12.515C4.49221 12.3614 4.47144 12.1994 4.43406 12.0249C4.4216 11.9585 4.37591 11.8006 4.3053 11.5472C4.25961 11.3936 4.21807 11.2399 4.18069 11.0779C4.1433 10.92 4.12669 10.7705 4.12669 10.6376C4.12669 10.5047 4.14746 10.3676 4.18484 10.2305C4.24299 10.1433 4.32606 10.081 4.42991 10.0394C4.53375 9.99791 4.65836 9.96468 4.80374 9.93976C4.7622 9.8733 4.68328 9.84007 4.56282 9.84007C4.52959 9.84007 4.47975 9.84838 4.41329 9.86084C4.38006 9.74039 4.43406 9.649 4.57113 9.58254C4.68328 9.57008 4.79128 9.60331 4.89097 9.68223C4.99065 9.76115 5.06957 9.85669 5.13188 9.97299V9.97715ZM8.89927 13.0966C8.89927 13.649 8.64174 14.1807 8.12253 14.6916C7.95639 14.8577 7.66563 15.0986 7.25441 15.4185C6.69782 15.7383 6.19938 15.9792 5.76739 16.1454C5.18172 16.3697 4.64174 16.486 4.1433 16.486C3.919 16.486 3.72378 16.4735 3.56594 16.4444C3.4081 16.4195 3.21703 16.3614 2.99688 16.2741C2.71859 16.1288 2.49013 15.9418 2.30737 15.7175C2.09969 15.46 2 15.19 2 14.9117C2 14.4382 2.04569 14.0062 2.13292 13.6075C2.22015 13.2087 2.37383 12.8349 2.58567 12.4818C2.40706 12.1952 2.31568 11.892 2.31568 11.5763C2.31568 11.2606 2.40706 10.8785 2.59398 10.459C2.63551 10.3717 2.81828 10.0311 3.14226 9.43301C3.16303 9.42055 3.1838 9.38732 3.21288 9.33332C3.2378 9.27933 3.27518 9.25856 3.32087 9.26271C3.18795 9.54932 3.05504 9.83592 2.92212 10.1184C2.76843 10.4756 2.69367 10.783 2.69367 11.0363C2.69367 11.3146 2.77674 11.5597 2.94289 11.7757C3.05504 11.8006 3.14226 11.7508 3.20042 11.622C3.25857 11.4932 3.31256 11.4185 3.35826 11.3977C3.31672 11.6635 3.26272 11.8837 3.18795 12.054C3.07996 12.2949 2.93458 12.4569 2.74766 12.5441C2.62305 12.9013 2.52752 13.1796 2.46937 13.3707C2.35722 13.7238 2.29907 14.0145 2.29907 14.2471C2.29907 14.4008 2.31983 14.542 2.36552 14.675C2.40706 14.8079 2.48183 14.9366 2.58152 15.0654C2.7892 15.3063 3.03011 15.4849 3.31256 15.6054C3.59502 15.7258 3.89408 15.784 4.21391 15.784C4.39252 15.784 4.57944 15.7632 4.77051 15.7258C5.50986 15.5722 6.18276 15.3354 6.79335 15.0197C7.44964 14.675 8.03115 14.2305 8.5379 13.6822C8.51298 13.5493 8.4839 13.4413 8.45898 13.3582C8.43406 13.2752 8.38422 13.2253 8.3136 13.2129C8.24299 13.2004 8.16407 13.1921 8.06853 13.1921C7.96054 13.1921 7.81101 13.2004 7.61994 13.217C7.42887 13.2336 7.31256 13.2419 7.27103 13.2419C7.05919 13.2419 6.89304 13.217 6.77259 13.163C6.61475 13.0883 6.49429 12.9595 6.41537 12.7726C6.4486 12.4486 6.52752 12.1537 6.64797 11.892C6.77259 11.6303 6.95119 11.4143 7.19211 11.2482C7.2378 11.2357 7.30841 11.2274 7.39979 11.2274C7.5784 11.2274 7.7487 11.2731 7.91485 11.3686C8.07684 11.46 8.23468 11.5929 8.38837 11.7591C8.55452 11.9585 8.67913 12.1661 8.7622 12.3863C8.84527 12.6064 8.88681 12.8432 8.88681 13.1049L8.89927 13.0966ZM5.86708 14.0353C5.81308 14.1142 5.7757 14.1682 5.75909 14.1931C5.70509 14.2513 5.65109 14.2804 5.58878 14.2721C5.53063 14.1848 5.4974 14.0768 5.4974 13.9439C5.4974 13.8567 5.51402 13.7487 5.54725 13.6158C5.55971 13.5493 5.58878 13.4455 5.62617 13.3084C5.61786 13.3416 5.56802 13.4829 5.47664 13.7279C5.41018 13.9065 5.37695 14.0519 5.37695 14.1558C5.37695 14.297 5.41848 14.4174 5.50571 14.5254C5.53894 14.5462 5.57217 14.5462 5.60955 14.5296C5.64694 14.513 5.68847 14.4839 5.73416 14.4465C5.75909 14.3925 5.78816 14.3385 5.81308 14.2887C5.86708 14.1807 5.8837 14.0976 5.86293 14.0395L5.86708 14.0353ZM3.99377 14.1267C3.96054 14.135 3.92316 14.1765 3.88577 14.2513C3.84424 14.3261 3.79024 14.3551 3.71547 14.3344C3.62409 14.2928 3.57425 14.2181 3.57425 14.1059C3.57425 14.0519 3.58671 13.9813 3.60748 13.8858C3.6324 13.7944 3.64071 13.7445 3.64071 13.7362C3.58255 13.8442 3.53686 13.9398 3.50779 14.027C3.47871 14.1142 3.4621 14.2056 3.4621 14.3053C3.4621 14.3593 3.4621 14.3967 3.4704 14.4257C3.50363 14.5504 3.59502 14.6168 3.7487 14.6168C3.82347 14.5753 3.87747 14.5047 3.919 14.3967C3.93977 14.3094 3.96054 14.2222 3.98962 14.1267H3.99377ZM17.4102 14.1682C16.92 14.4091 16.3385 14.5753 15.6656 14.6667C15.1755 14.7331 14.5441 14.7663 13.7715 14.7663C14.2118 14.2928 14.5275 13.9771 14.7186 13.8193C15.109 13.4995 15.4912 13.3416 15.865 13.3416C15.9439 13.3416 16.0312 13.3499 16.1184 13.3624C16.2098 13.3749 16.2887 13.3956 16.3634 13.4205C16.6957 13.5618 16.8993 13.649 16.9699 13.6905C17.1817 13.8152 17.3271 13.9771 17.4102 14.1682ZM7.98131 12.4237C7.8567 12.2907 7.73624 12.1869 7.62409 12.1163C7.4704 12.0166 7.32918 11.9668 7.19626 11.9668C7.09657 11.9668 6.98858 12.0041 6.87643 12.0748C6.86397 12.1163 6.85566 12.1495 6.85566 12.1744C6.85566 12.2201 6.87227 12.2534 6.9055 12.2741C6.98027 12.3531 7.0675 12.4112 7.17134 12.4444C7.27518 12.4777 7.37902 12.4943 7.48702 12.4943C7.57425 12.4943 7.66563 12.486 7.76532 12.4652C7.865 12.4444 7.93977 12.432 7.98546 12.4237H7.98131Z" fill="white"/>
</svg>
