<svg width="24" height="24" viewBox="0 0 24 24" fill="none" xmlns="http://www.w3.org/2000/svg">
<path fill-rule="evenodd" clip-rule="evenodd" d="M21.8853 9.26491C21.8648 9.19116 21.8279 9.1174 21.7664 9.03955C21.7337 8.99857 21.6763 8.94121 21.5902 8.86336C21.5698 9.07233 21.5616 9.2813 21.5616 9.49437C21.5616 9.79759 21.5903 10.2565 21.6517 10.8793C21.7132 11.5022 21.7419 11.9693 21.7419 12.2766V12.9855C21.7419 13.5304 21.7173 13.973 21.6722 14.3131C21.6066 14.7925 21.4837 15.2145 21.3075 15.5833C21.2665 15.6407 21.2379 15.6734 21.2174 15.6734C21.2706 15.3989 21.3075 15.0834 21.3362 14.7228C21.3608 14.3663 21.3772 14.0303 21.3772 13.7148C21.3772 13.1453 21.3485 12.5388 21.2952 11.8955C21.2379 11.2522 21.1846 10.5925 21.1272 9.90822C21.0699 9.22804 21.0453 8.64209 21.0453 8.15858C21.0207 8.05205 21.0453 7.93731 21.1354 7.80619C21.2215 7.67507 21.3034 7.54805 21.3813 7.42103C21.4796 7.58493 21.5943 7.82258 21.7255 8.1299C21.9099 8.55604 22 8.86336 22 9.05594C22 9.17887 21.9631 9.25262 21.8935 9.27311L21.8853 9.26491ZM17.8328 7.54395C17.6935 7.76522 17.4149 7.92502 16.9887 8.01517C16.3741 8.14629 16.0258 8.22824 15.948 8.26102C14.858 8.60931 13.7763 8.9576 12.6945 9.30179C12.6822 9.22803 12.7232 9.15018 12.8216 9.06413C12.8748 9.01906 12.9609 8.9617 13.0879 8.89614L17.6894 7.56854C17.6894 7.56854 17.714 7.56034 17.7468 7.54805C17.7796 7.53576 17.8082 7.53166 17.8369 7.53986L17.8328 7.54395ZM17.9394 10.0598C17.8082 10.2647 17.6607 10.4573 17.4968 10.6417L16.915 10.3262L16.4315 10.699C16.3905 10.6663 16.2922 10.613 16.1364 10.5433C15.8988 10.4327 15.7841 10.3221 15.7841 10.2196C15.8291 10.1787 15.907 10.0885 16.0094 9.9451C16.0955 9.82627 16.1774 9.74842 16.2553 9.70744C16.329 9.70744 16.4315 9.76481 16.5667 9.87954C16.7019 9.99427 16.7961 10.0516 16.8576 10.0516C16.9191 10.0516 16.9764 10.0107 17.0338 9.92461C17.124 9.81398 17.1772 9.75252 17.1895 9.73613C17.2633 9.66237 17.3288 9.62959 17.3944 9.62959C17.4518 9.62959 17.5091 9.67057 17.5624 9.74842L17.9353 10.0639L17.9394 10.0598ZM15.5587 9.66647C15.5792 9.63369 15.5874 9.60911 15.5874 9.58862C15.5874 9.54764 15.5751 9.49437 15.5464 9.42062C15.4931 9.42062 15.444 9.4534 15.3989 9.51896C15.3538 9.58452 15.3128 9.6173 15.2801 9.6173C15.2145 9.56403 15.1817 9.51076 15.1817 9.4493C15.1817 9.41652 15.2063 9.34686 15.2596 9.24443C15.3128 9.13789 15.3333 9.05594 15.3169 8.99038C15.2637 9.01087 15.2145 9.06004 15.1694 9.13789C15.1489 9.17886 15.1162 9.24443 15.0711 9.33457C15.0629 9.34686 15.0547 9.37145 15.0424 9.40423C15.0301 9.43701 15.0219 9.49028 15.0219 9.55994C15.0219 9.71154 15.0752 9.83037 15.1776 9.91232C15.3292 9.87134 15.4522 9.78939 15.5505 9.66647H15.5587ZM12.1373 8.83877C12.1578 8.74043 12.17 8.65848 12.1782 8.59702C12.1864 8.53555 12.1864 8.44951 12.1864 8.33477C12.1864 8.01517 12.1209 7.74473 11.9898 7.52756C12.0225 7.40873 12.0717 7.33908 12.1373 7.32269C12.2602 7.53166 12.3258 7.78571 12.3258 8.08073C12.3258 8.37575 12.2643 8.6298 12.1373 8.83877ZM19.562 14.0098C19.562 13.5304 19.5292 12.9691 19.4636 12.3217C19.3981 11.6743 19.3366 11.0473 19.2751 10.4368C19.2178 9.82627 19.185 9.26082 19.185 8.73633C19.2383 8.76911 19.2874 8.82648 19.3325 8.90433C19.3571 8.94531 19.3981 9.01087 19.4513 9.10101C19.4636 9.02316 19.4718 8.9617 19.4718 8.91253C19.4718 8.74863 19.4268 8.54375 19.3325 8.2938C19.0703 7.59312 18.9392 7.23664 18.9392 7.23254C18.763 7.44152 18.6318 7.66688 18.5458 7.90044C18.6564 8.58882 18.7671 9.27721 18.8818 9.96559C19.0252 10.8629 19.1235 11.5636 19.1768 12.0717C19.2547 12.8052 19.2956 13.5099 19.2956 14.186C18.9801 14.3622 18.6318 14.4524 18.2426 14.4524C18.1442 14.4524 18.0377 14.4442 17.9189 14.4237C17.8 14.4032 17.7058 14.3786 17.632 14.3458C17.6976 14.1246 17.7673 13.8869 17.8369 13.6329C17.9066 13.3788 17.9435 13.1576 17.9435 12.9691C17.9435 12.8257 17.923 12.6904 17.8779 12.5716C17.8328 12.4528 17.7673 12.3381 17.6771 12.2315C17.6198 12.1905 17.5665 12.1742 17.5214 12.1742C17.4477 12.1742 17.3657 12.211 17.2756 12.2807C17.2305 12.3217 17.1526 12.379 17.0502 12.4569C16.8125 12.6781 16.6281 12.9199 16.4888 13.1739C16.3495 13.428 16.284 13.6902 16.284 13.9607C16.284 14.0836 16.2963 14.1983 16.3249 14.2967C16.1733 14.3622 16.0094 14.395 15.8332 14.395C15.4808 14.395 15.2022 14.2721 15.0055 14.0303C14.9605 13.9853 14.9359 13.932 14.9359 13.8746C14.9605 13.7681 14.9932 13.6656 15.026 13.5591C14.7433 13.7148 14.4647 13.8705 14.1901 14.0221C13.6083 14.3294 13.0797 14.4852 12.6085 14.4852C12.3544 14.4852 12.1127 14.3868 11.8914 14.1901C11.7029 14.018 11.5554 13.8132 11.4489 13.5714C11.3587 13.178 11.2973 12.7847 11.2686 12.3954C11.2399 12.0062 11.2235 11.5554 11.2235 11.0432C11.2317 10.6089 11.2358 10.2196 11.244 9.87135C11.2522 9.52306 11.2522 9.21984 11.2522 8.9576C11.2522 8.60931 11.2522 8.33068 11.244 8.11761C11.2358 7.90454 11.2194 7.67098 11.1866 7.41283C11.0965 7.45381 11.0145 7.53576 10.9408 7.66688C10.8998 7.74064 10.8425 7.84717 10.7646 7.99058C10.8425 8.53555 10.8834 9.10511 10.8834 9.70335C10.8834 10.0639 10.867 10.4491 10.8343 10.8629C10.8547 10.9941 10.867 11.1252 10.8752 11.2604C10.8834 11.3956 10.8834 11.5308 10.8834 11.6702V12.1045C10.8834 12.8994 10.9244 13.4649 11.0023 13.805C11.1416 14.3868 11.4325 14.8293 11.8791 15.1326C12.0102 15.1735 12.1086 15.194 12.1741 15.2022C12.2397 15.2104 12.3421 15.2104 12.4774 15.2104C12.8625 15.2104 13.2559 15.1203 13.6493 14.9359C13.9648 14.7925 14.309 14.5753 14.6818 14.2885C14.6818 14.309 14.6818 14.3417 14.6736 14.3868C14.6736 14.4729 14.6859 14.5589 14.7146 14.6491C14.7392 14.7392 14.7802 14.8089 14.8334 14.8621C14.9564 14.9687 15.0916 15.0424 15.2309 15.0834C15.3702 15.1244 15.53 15.149 15.7062 15.149C15.8947 15.149 16.0955 15.1203 16.3003 15.067C16.5052 15.0137 16.6855 14.9441 16.8371 14.8662C17.001 14.9851 17.1895 15.0711 17.3985 15.1285C17.6075 15.1858 17.8328 15.2104 18.0787 15.2104C18.4475 15.2104 18.7671 15.153 19.0416 15.0342C19.2178 14.9564 19.3448 14.8089 19.4145 14.5917C19.4554 14.4729 19.5046 14.2844 19.5702 14.0221L19.562 14.0098ZM14.4073 10.5188L14.3376 10.7646C14.2598 10.74 14.1819 10.7072 14.1123 10.6745C14.0795 10.6745 14.0549 10.7031 14.0344 10.7564C14.0139 10.8138 13.9852 10.9654 13.9443 11.2153C13.9033 11.4653 13.8377 11.6333 13.7394 11.7275C13.6943 11.6538 13.6288 11.5226 13.5427 11.3301C13.4567 11.1375 13.387 10.9941 13.3378 10.9039C13.3174 10.949 13.2887 10.9736 13.2477 10.9736C13.2272 10.9736 13.1739 10.949 13.0797 10.9039C13.0469 10.8507 13.0305 10.7933 13.0305 10.7277C13.0305 10.6704 13.0428 10.613 13.0633 10.5597C13.0879 10.5065 13.1207 10.4532 13.1657 10.3917C13.3501 10.4573 13.4976 10.6417 13.6083 10.9408C13.682 11.1293 13.7476 11.2645 13.805 11.3424C13.8377 11.1703 13.8705 11.0023 13.9033 10.8302C13.9566 10.6458 14.0426 10.4983 14.1573 10.3876C14.2803 10.4122 14.3622 10.4573 14.4032 10.5147L14.4073 10.5188ZM10.6499 7.26532C10.6704 7.3063 10.6499 7.34727 10.5925 7.39644C10.5351 7.44561 10.4942 7.47839 10.4737 7.49069C9.66646 7.76112 9.06413 7.9619 8.66257 8.10122C7.9496 8.35117 7.36366 8.60931 6.91293 8.87975C7.06863 8.60931 7.37595 8.38804 7.82667 8.21185C8.21184 8.07254 8.60111 7.93732 8.98627 7.798C9.53534 7.62181 10.0926 7.44561 10.6499 7.26532ZM17.2305 15.7308C17.1199 15.8414 17.001 15.9275 16.8781 15.993C16.7552 16.0545 16.5995 16.1119 16.4151 16.1651C16.1078 16.2553 15.8005 16.3495 15.5013 16.4397C15.6079 16.3331 15.7226 16.2512 15.8455 16.1856C15.9684 16.1201 16.1242 16.0586 16.3085 15.9971C16.6159 15.907 16.9232 15.8168 17.2346 15.7308H17.2305ZM12.8543 12.6413C12.8543 12.8789 12.756 13.0715 12.5593 13.2231C12.4938 13.2108 12.4487 13.1739 12.4282 13.1084C12.4036 13.0469 12.3831 12.9855 12.3626 12.9281C12.3626 12.6781 12.4159 12.4774 12.5183 12.3176C12.4978 12.4282 12.4897 12.5265 12.4897 12.6126C12.4897 12.7109 12.506 12.7929 12.5388 12.8584L12.629 12.9486C12.6822 12.9158 12.7273 12.8625 12.7683 12.7929C12.8093 12.7191 12.8379 12.67 12.8584 12.6454L12.8543 12.6413ZM9.21573 9.83857C9.20344 9.87954 9.19115 9.91642 9.18705 9.95739C9.15427 10.0557 9.1092 10.0885 9.04774 10.0557C9.00676 10.0025 8.9494 9.98198 8.87154 9.99837C8.79779 10.0844 8.74862 10.2524 8.71993 10.5065C8.69125 10.7605 8.64618 10.9326 8.58881 11.0228C8.53145 10.9654 8.42081 10.7851 8.26511 10.4819C8.19135 10.3426 8.1217 10.2401 8.04794 10.1664C8.04794 10.2442 8.00697 10.2852 7.92092 10.2852C7.87994 10.2852 7.84306 10.2688 7.80209 10.2401C7.76111 10.2114 7.74472 10.1705 7.74472 10.1172C7.74472 10.0721 7.75702 10.023 7.7775 9.96969C7.80209 9.91642 7.82258 9.87134 7.84716 9.82627C7.87175 9.7853 7.90863 9.76071 7.96189 9.76071C8.01926 9.76071 8.06023 9.7771 8.08072 9.80988C8.17906 9.88364 8.2733 10.0025 8.36755 10.1746C8.48638 10.3958 8.56013 10.527 8.59291 10.5679C8.6175 10.3835 8.65847 10.2196 8.71174 10.0762C8.76501 9.93281 8.83876 9.80579 8.9371 9.70335C8.98218 9.70335 9.03135 9.71564 9.08052 9.73613C9.12969 9.76071 9.17886 9.79349 9.22393 9.83857H9.21573ZM14.8129 16.1037C14.7064 16.2348 14.6327 16.3331 14.5876 16.3987C14.5097 16.497 14.4278 16.5913 14.3417 16.6855L13.6533 16.2225C13.6083 16.3618 13.5509 16.4561 13.4813 16.5134C13.4116 16.5708 13.3337 16.5954 13.2395 16.5954C13.1412 16.5954 13.0346 16.5708 12.924 16.5175C12.883 16.497 12.7806 16.4356 12.6085 16.329C12.6331 16.2225 12.6986 16.116 12.797 16.0094C12.8953 15.9029 12.9896 15.7964 13.0838 15.698C13.3051 15.7636 13.5263 15.8906 13.7435 16.0832L14.2926 15.6611C14.2926 15.6611 14.4196 15.7718 14.6368 15.9357C14.7351 16.0094 14.7925 16.0627 14.8129 16.1037ZM6.2983 9.59271C6.25323 9.67057 6.20815 9.74842 6.15898 9.83037C6.06884 9.96969 5.9623 10.0967 5.84347 10.2155L5.21246 9.87954C5.25343 9.77301 5.31899 9.66237 5.41733 9.54355C5.43782 9.52306 5.52387 9.42062 5.68367 9.22803C5.88855 9.30179 6.08933 9.42062 6.2942 9.59271H6.2983ZM5.53206 7.90044C5.4788 7.78981 5.40914 7.68737 5.31489 7.59722C5.22475 7.50708 5.11821 7.42103 4.99939 7.34318C4.94612 7.33088 4.90924 7.32269 4.88056 7.32269C4.72895 7.32269 4.62241 7.43332 4.55685 7.65868C4.45851 7.97829 4.39705 8.15858 4.36837 8.19136C4.38885 8.26512 4.42573 8.31019 4.4872 8.33068C4.54456 8.35117 4.62241 8.37165 4.71256 8.38804C4.45851 8.68307 4.16759 8.9617 3.84798 9.22394C3.6595 9.37965 3.33579 9.6173 2.88506 9.92871C2.43434 10.2401 2.13932 10.4491 2 10.5515C2.46712 10.2975 2.80311 10.1008 3.01209 9.96969C3.38496 9.73203 3.70867 9.50257 3.97501 9.2813C4.30281 9.00677 4.58554 8.71585 4.81909 8.41673C4.94202 8.41673 5.04856 8.4577 5.1346 8.54375C5.18787 8.55604 5.22475 8.56424 5.25343 8.56424C5.36406 8.56424 5.44192 8.52326 5.49109 8.43721C5.54845 8.35936 5.58123 8.26512 5.58123 8.15039C5.58123 8.06434 5.56484 7.98239 5.53206 7.90454V7.90044ZM7.16288 11.9816C7.1178 12.1578 7.08093 12.2725 7.05634 12.3258C6.99898 12.4487 6.91293 12.5306 6.80229 12.5634C6.72854 12.5839 6.67117 12.5634 6.6302 12.5101C6.58922 12.4528 6.56054 12.3913 6.54825 12.3176C6.54825 12.1455 6.58103 11.9734 6.64659 11.7931C6.71215 11.6128 6.75722 11.4899 6.7859 11.4243C6.7941 11.4981 6.77771 11.6046 6.73673 11.7439C6.69576 11.8832 6.67937 11.9775 6.67937 12.0225C6.67937 12.1414 6.72034 12.2315 6.80639 12.2971C6.90473 12.3176 6.99078 12.2602 7.06044 12.1291C7.10551 12.043 7.14239 11.9939 7.16697 11.9816H7.16288ZM5.21655 9.67876L4.53637 9.38374C4.46261 9.46979 4.39295 9.55174 4.3192 9.62959C4.17578 9.79349 4.10203 9.93281 4.10203 10.0516C4.11022 10.0516 4.22495 10.1049 4.45442 10.2073C4.59373 10.2647 4.71256 10.2893 4.81909 10.277C4.90924 10.1582 5.00758 10.0393 5.10592 9.91232C5.15919 9.83856 5.19607 9.76071 5.21246 9.67467L5.21655 9.67876ZM9.80988 13.26C9.72383 13.1043 9.64188 12.9445 9.56402 12.7888C9.37963 12.461 9.15837 12.2971 8.89613 12.2971C8.62569 12.461 8.37164 12.7519 8.12989 13.1739C7.80209 13.7312 7.59312 14.0672 7.49887 14.1778C7.36775 14.309 7.20385 14.3745 7.00717 14.3745C6.94161 14.3745 6.89244 14.3745 6.85966 14.3663C6.58922 14.3213 6.33927 14.1287 6.10162 13.7845C5.81479 13.3706 5.61811 13.1289 5.51158 13.0551C5.12641 13.1862 4.815 13.5386 4.58554 14.1164C4.32329 14.772 4.07744 15.1899 3.84798 15.3743C3.79471 15.3866 3.72096 15.3948 3.62262 15.3948C3.53247 15.3948 3.45462 15.3866 3.39725 15.3743C3.18009 15.1981 3.02438 14.9892 2.92604 14.7556C2.80721 14.4688 2.74985 14.0385 2.74985 13.469C2.74985 13.3706 2.74985 13.2723 2.75394 13.178C2.75394 13.0838 2.75804 12.9855 2.75804 12.8871C2.60643 13.3051 2.53268 13.7435 2.53268 14.1942C2.53268 14.5466 2.58185 14.8826 2.68429 15.2022C2.78672 15.5218 2.94243 15.8046 3.1514 16.0545C3.24155 16.1119 3.33989 16.1528 3.44642 16.1733C3.55296 16.1938 3.66769 16.202 3.79881 16.202C4.06925 16.0135 4.29051 15.6775 4.46671 15.1981C4.68388 14.6204 4.84778 14.2557 4.95841 14.1082C5.12231 13.9238 5.26163 13.8337 5.37226 13.8337C5.4706 13.8337 5.56894 13.9361 5.66728 14.1369C5.88445 14.5876 6.06474 14.8375 6.20815 14.8826C6.38025 15.0588 6.60152 15.149 6.87605 15.149C6.98668 15.149 7.11371 15.1244 7.24892 15.0793C7.36775 15.0219 7.462 14.9318 7.53575 14.8171C7.60951 14.7023 7.66687 14.5794 7.71604 14.4524C7.76521 14.3254 7.81848 14.2393 7.87175 14.1983C7.92911 14.1574 8.00287 14.1328 8.09301 14.1328C8.17906 14.1328 8.34296 14.1819 8.58881 14.2844C8.83466 14.3868 9.02725 14.436 9.16247 14.436C9.2731 14.436 9.37964 14.4114 9.47798 14.3581C9.69514 14.0631 9.80168 13.6943 9.80168 13.2559L9.80988 13.26ZM4.37246 12.2274C4.35198 12.3585 4.33149 12.461 4.30281 12.5306C4.27822 12.6044 4.22905 12.6741 4.1553 12.7478C4.10203 12.756 4.05696 12.7355 4.02418 12.6945C3.9873 12.6536 3.96271 12.6044 3.95042 12.5511C3.93813 12.4979 3.92993 12.4364 3.92993 12.3626C3.92993 12.2069 3.96271 12.0348 4.02827 11.8504C4.07335 11.7111 4.1512 11.5472 4.26593 11.3587C4.25773 11.3833 4.22086 11.494 4.1512 11.6865C4.08154 11.8791 4.04876 12.0266 4.04876 12.125C4.04876 12.2643 4.09383 12.379 4.18808 12.4774C4.22086 12.4651 4.24954 12.42 4.27822 12.3462C4.30281 12.2725 4.33559 12.2315 4.37656 12.2233L4.37246 12.2274ZM9.31817 15.3948C9.33866 15.4358 9.34686 15.4727 9.34686 15.5136C9.34686 15.571 9.32637 15.6325 9.28949 15.6939C9.24851 15.7554 9.21573 15.8168 9.18295 15.8742C9.11739 15.8988 9.04364 15.8906 8.95759 15.8496C8.87154 15.8087 8.79369 15.7677 8.71993 15.7267C8.49047 16.0094 8.16267 16.2307 7.73653 16.3946C7.4538 16.5011 7.04815 16.5995 6.51547 16.6978L6.05245 16.7675C6.61791 16.579 7.04405 16.4315 7.33087 16.3249C7.85536 16.1365 8.2774 15.9357 8.60111 15.7267C8.64208 15.6079 8.69535 15.4972 8.76501 15.3907C8.83467 15.2842 8.91252 15.2022 9.00676 15.1449C9.09691 15.1244 9.17886 15.1571 9.24442 15.2432C9.2772 15.2883 9.30178 15.3374 9.32227 15.3907L9.31817 15.3948ZM17.6075 13.7148C17.6075 13.7148 17.4968 13.7845 17.3329 13.9033C17.2223 13.9812 17.128 14.0221 17.0461 14.0221C17.001 14.0221 16.956 14.0139 16.9191 13.9935C16.8453 13.9156 16.7716 13.8296 16.6978 13.7394C16.6241 13.6493 16.5954 13.555 16.6159 13.4649C16.6937 13.346 16.788 13.2436 16.9027 13.1494C17.042 13.0305 17.1608 12.9732 17.2674 12.9732C17.3206 12.9732 17.3739 12.9978 17.4231 13.0428C17.4763 13.0879 17.5132 13.1535 17.5419 13.2354C17.5665 13.3174 17.587 13.3952 17.5952 13.4649C17.6034 13.5345 17.6116 13.6206 17.6116 13.7189L17.6075 13.7148ZM5.40504 8.27741C5.33948 8.2897 5.26572 8.26922 5.17968 8.21185C5.09363 8.15449 5.03626 8.1258 5.00348 8.11761C5.03626 8.06434 5.05675 8.01517 5.06085 7.9701C5.06904 7.92502 5.06904 7.85946 5.06904 7.77342C5.20016 7.89224 5.27392 7.966 5.29441 7.99878C5.35997 8.08483 5.39684 8.17497 5.40094 8.27331L5.40504 8.27741ZM4.87236 8.10941C4.83958 8.08893 4.78222 8.07663 4.70027 8.06844C4.61832 8.06024 4.56915 8.03566 4.55685 7.99058C4.56915 7.87176 4.63471 7.81439 4.75353 7.81439C4.83139 7.81439 4.87236 7.86356 4.87236 7.9619V8.10941ZM9.29768 13.6165C9.16656 13.6165 9.04364 13.6001 8.93301 13.5714C8.82237 13.5427 8.63798 13.469 8.38394 13.3501C8.41672 13.2928 8.45769 13.2436 8.50686 13.2067C8.55603 13.1698 8.6134 13.1371 8.67896 13.1043C8.79779 13.092 8.90023 13.1166 8.98218 13.1821C9.06822 13.2477 9.17066 13.3911 9.29768 13.6165ZM9.1092 15.5751C9.07642 15.5956 9.02725 15.5833 8.96579 15.5423C8.90432 15.5013 8.86335 15.4727 8.84286 15.4604C8.88793 15.3948 8.9453 15.3825 9.01086 15.4194C9.05183 15.4604 9.08461 15.5095 9.1092 15.5751Z" fill="white"/>
</svg>
