<svg width="24" height="24" viewBox="0 0 24 24" fill="none" xmlns="http://www.w3.org/2000/svg">
<path fill-rule="evenodd" clip-rule="evenodd" d="M21.9941 8.82762L21.5961 8.35938C21.5903 8.42961 21.5844 8.50569 21.5844 8.58178V8.76908C21.5844 9.0793 21.6254 9.57681 21.7132 10.2558C21.801 10.9347 21.842 11.4498 21.842 11.801V12.2341C21.842 13.0594 21.7951 13.6623 21.7073 14.031C21.6196 14.3998 21.4732 14.7451 21.2684 15.0553C21.362 14.827 21.4264 14.5871 21.4674 14.3237C21.5083 14.0603 21.5259 13.7793 21.5259 13.475C21.5259 13.3579 21.5259 13.2408 21.5259 13.1238C21.5259 13.0067 21.5025 12.796 21.4732 12.4917L21.0518 7.77407C21.0752 7.69798 21.0694 7.61017 21.0284 7.52237C20.9874 7.43458 20.9523 7.34679 20.923 7.25899C20.964 7.1829 21.0167 7.06584 21.0928 6.90781C21.1689 6.74977 21.2332 6.63857 21.2976 6.56833C21.444 6.93708 21.5961 7.29996 21.7542 7.657C21.9181 8.09598 22 8.48229 22 8.82762H21.9941ZM17.101 8.28913L16.9839 8.44131L16.8317 8.31254C16.7147 8.55252 16.5157 8.79834 16.2347 9.03832C16.1235 9.13197 15.866 9.32513 15.4621 9.61193C15.5557 9.50072 15.7723 9.29002 16.1176 8.9798C16.4162 8.71641 16.6093 8.48228 16.703 8.28913C16.6795 8.25986 16.6093 8.20134 16.4864 8.1194C16.3635 8.03746 16.2932 7.96136 16.2698 7.89112C16.3401 7.73309 16.3927 7.62773 16.4337 7.56335C16.5098 7.45214 16.6152 7.38191 16.7381 7.35265C16.8025 7.37606 16.8551 7.42288 16.902 7.49311C16.9488 7.56335 16.9781 7.63358 16.9839 7.70382C16.9605 7.7682 16.9488 7.81503 16.9488 7.856C16.9488 7.90868 16.9781 7.97892 17.0424 8.05501C17.1068 8.1311 17.1244 8.21304 17.101 8.28913ZM14.7012 6.63857C14.6251 6.77904 14.508 6.90195 14.35 7.01316C14.2388 7.08925 14.0866 7.17704 13.8935 7.27069C13.7003 7.36434 13.5013 7.45799 13.3082 7.54579C13.115 7.63359 12.9628 7.72724 12.8516 7.82089C12.9219 7.66285 13.0214 7.53408 13.156 7.42872C13.2906 7.32337 13.4603 7.22388 13.6711 7.13023C14.0164 6.96634 14.3559 6.80246 14.7012 6.63857ZM15.2748 8.52326C15.1753 8.47059 15.1226 8.4062 15.1226 8.33596C15.1226 8.31255 15.1577 8.23646 15.228 8.10184C15.2572 8.03746 15.2748 7.99063 15.2748 7.94965C15.2748 7.90283 15.2572 7.85015 15.228 7.79747C15.1987 7.74479 15.1694 7.68626 15.146 7.63358C15.0992 7.54579 15.0231 7.51652 14.9236 7.53993C14.8124 7.5692 14.7129 7.63358 14.6193 7.72723C14.5256 7.82088 14.4671 7.9204 14.4437 8.03161C14.4671 8.12526 14.5256 8.21305 14.6193 8.30084C14.6719 8.34767 14.7539 8.4179 14.8651 8.51155C14.7422 8.66958 14.5549 8.83932 14.3149 9.02662C13.8232 9.40707 13.5247 9.66461 13.4252 9.79923C13.7471 9.59437 14.0164 9.41293 14.233 9.24904C14.5315 9.03248 14.7831 8.82177 14.9939 8.62861C15.0348 8.63447 15.0582 8.66373 15.0758 8.71641C15.0934 8.76909 15.1168 8.7925 15.146 8.7925C15.2631 8.72226 15.3041 8.63447 15.2748 8.52326ZM21.2684 15.4299C21.0518 15.6348 20.8177 15.7869 20.5777 15.8923C20.3377 15.9977 20.0685 16.0503 19.7817 16.0503C19.5651 15.9742 19.4539 15.904 19.4539 15.8396C19.4539 15.7928 19.571 15.705 19.8109 15.5704C20.0509 15.4357 20.1621 15.307 20.1446 15.1724C20.0509 15.108 19.969 15.0612 19.8987 15.0319C19.8285 15.0026 19.7524 14.9851 19.6646 14.9851C19.5944 15.0085 19.53 15.0553 19.4773 15.1197C19.4246 15.1841 19.4071 15.2426 19.4305 15.2894C19.4715 15.2426 19.5066 15.2192 19.5358 15.2192C19.5827 15.2192 19.6354 15.2367 19.6997 15.2777C19.729 15.2953 19.7758 15.3187 19.8285 15.3597C19.6471 15.4533 19.5183 15.547 19.4305 15.6406C19.3076 15.7752 19.2432 15.9099 19.2432 16.0503C19.2608 16.1147 19.2959 16.1674 19.3544 16.2142C19.4129 16.261 19.4715 16.2903 19.5358 16.3079C19.5768 16.3079 19.6295 16.3079 19.6997 16.3196C20.01 16.3196 20.3143 16.2376 20.6011 16.0679C20.8879 15.8981 21.1103 15.6874 21.2684 15.4299ZM14.549 10.8879L14.4437 11.122C14.4437 11.122 14.3734 11.1103 14.3032 11.0869C14.233 11.0635 14.1803 11.0518 14.1393 11.0518C14.0398 11.0518 13.9813 11.1045 13.9754 11.2157C13.9462 11.5259 13.8759 11.842 13.7764 12.1522C13.712 12.1053 13.6359 11.9649 13.5364 11.7249C13.4369 11.4849 13.314 11.3796 13.156 11.403C13.1092 11.362 13.0857 11.3152 13.0857 11.2508C13.0857 11.2098 13.0975 11.163 13.115 11.1045C13.1326 11.0459 13.1618 10.9757 13.1911 10.8996C13.3316 10.8996 13.4545 10.9991 13.554 11.1923C13.6652 11.444 13.7413 11.6137 13.7881 11.7073C13.8584 11.3503 13.8993 11.1571 13.9052 11.1337C13.9754 10.9289 14.0983 10.8001 14.2798 10.7474C14.3266 10.7474 14.3734 10.765 14.4144 10.7942C14.4554 10.8235 14.5022 10.8586 14.549 10.8879ZM9.30465 7.51653C9.32221 7.70968 9.28709 7.8443 9.211 7.91454C9.16418 7.93795 9.1115 7.93209 9.05882 7.89112C9.00615 7.85015 8.96517 7.80333 8.94176 7.75065C8.91835 7.69797 8.90664 7.62773 8.90664 7.53993C8.90664 7.42287 8.9242 7.32338 8.95347 7.24144C8.98273 7.15949 9.04126 7.04242 9.11735 6.88439C9.12321 6.93707 9.1115 7.03073 9.07638 7.15364C9.04126 7.27656 9.0237 7.35849 9.0237 7.39946C9.0237 7.51652 9.08809 7.59261 9.211 7.63358C9.22856 7.5809 9.24027 7.53994 9.25783 7.51653H9.30465ZM11.9971 8.52326C11.921 8.49985 11.8449 8.43546 11.7747 8.33596C11.6752 8.19549 11.6049 8.10769 11.5639 8.07842L11.5054 8.19549C11.5054 8.58765 11.5581 9.10271 11.6576 9.7407C11.7981 10.6245 11.88 11.1747 11.8976 11.403C11.9151 11.6312 11.9268 11.8771 11.9268 12.1405C11.9268 12.5794 11.8917 12.9658 11.8156 13.3111C11.7395 13.6564 11.6049 13.9959 11.4001 14.3295C11.4644 14.1364 11.5113 13.9081 11.5405 13.6506C11.5698 13.393 11.5874 13.153 11.5874 12.9365C11.5874 12.4975 11.5464 11.9941 11.4586 11.4147C11.2537 10.0568 11.1542 9.21392 11.1542 8.88615C11.0898 8.58179 11.043 8.30084 11.0079 8.03745C10.9728 7.77406 10.9552 7.51653 10.9552 7.25899V7.02487C10.9728 6.95464 10.9786 6.9078 10.9786 6.88439C10.9962 6.86683 11.0313 6.80244 11.0957 6.67953C11.1601 6.55661 11.2186 6.49224 11.2713 6.47468C11.3181 6.5976 11.4293 6.84342 11.6108 7.21216C11.8683 7.74479 11.9971 8.17793 11.9971 8.52326ZM16.703 16.2844C16.6269 16.4542 16.5625 16.5771 16.5157 16.6473C16.4279 16.7702 16.3284 16.8698 16.2113 16.94C16.1703 16.899 16.0767 16.8405 15.9303 16.7644C15.6904 16.6415 15.5967 16.5127 15.6494 16.3781C15.6787 16.3547 15.7489 16.261 15.8601 16.0972C15.9362 15.9742 16.0181 15.9099 16.1059 15.9099C16.1528 15.9099 16.1879 15.9157 16.2113 15.9333L16.703 16.2844ZM21.1981 11.9766C20.6596 11.9239 20.127 11.842 19.6061 11.7307C19.0852 11.6195 18.5701 11.4908 18.0726 11.3327C18.1955 11.1396 18.2833 10.9347 18.336 10.724C18.3886 10.5133 18.4121 10.285 18.4121 10.0334C18.4121 9.82849 18.3418 9.30171 18.2013 8.45301C18.1487 8.12524 18.1194 7.82674 18.1194 7.56335C18.1662 7.61017 18.2365 7.68626 18.3243 7.79747C18.4121 7.90868 18.4881 7.97892 18.5408 8.00819C18.5408 7.70968 18.4179 7.31751 18.1662 6.82585C18.0258 6.54491 17.9204 6.31665 17.8502 6.14691L17.5224 6.68539C17.5224 7.08925 17.5751 7.60432 17.6863 8.21889C17.9204 9.54754 18.0375 10.3962 18.0375 10.7708C17.7741 10.8586 17.4873 10.9113 17.1888 10.9406C16.8903 10.9698 16.5391 10.9815 16.1411 10.9815H15.8601C15.7255 11.2215 15.6318 11.4674 15.5792 11.7073C15.9303 11.7366 16.3049 11.7951 16.6971 11.8771C17.0893 11.959 17.458 12.0527 17.7916 12.1522C17.3936 12.2517 16.9663 12.357 16.5098 12.4624C16.0533 12.5677 15.5733 12.6789 15.0641 12.796C14.4729 12.954 14.0983 13.2467 13.952 13.6857C14.3559 13.6857 14.789 13.7383 15.2514 13.8496C15.6084 13.9374 16.0123 14.0544 16.4571 14.2125C15.1929 14.3939 14.3617 14.5285 13.9637 14.6222C13.4428 14.7451 12.9804 14.909 12.5824 15.1021C12.559 15.108 11.8742 15.6465 10.5221 16.7059C10.0538 17.0746 9.59145 17.2561 9.14077 17.2561C9.0237 17.2151 8.91835 17.1624 8.81885 17.0863C8.71934 17.0102 8.64911 16.9224 8.60228 16.8229C8.59643 16.7703 8.59058 16.6883 8.59058 16.5771C8.59058 16.1732 8.70764 15.7577 8.94176 15.3362C9.1115 15.026 9.36904 14.6749 9.71437 14.2827C9.72022 14.2651 9.87826 14.1012 10.1826 13.7793C10.3875 13.5628 10.487 13.3755 10.487 13.2174C10.487 13.1413 10.4694 13.0711 10.4402 13.0067C10.2821 12.9658 10.0948 12.9482 9.87826 12.9482C9.56804 12.9482 9.19344 13.0126 8.75446 13.1355C7.5897 13.4691 6.98098 13.6447 6.9283 13.6506C6.6415 13.7032 6.3547 13.7618 6.07375 13.8144C5.44747 13.9315 4.94996 13.99 4.57536 13.99C4.15394 13.99 3.78519 13.9315 3.47498 13.8144C3.10623 13.674 2.80773 13.4574 2.5736 13.1706C2.48581 12.9541 2.44483 12.7199 2.44483 12.4682C2.44483 12.0527 2.54434 11.6664 2.7492 11.3093C2.80187 11.3327 2.8604 11.3503 2.91308 11.3679C2.96576 11.3854 3.02429 11.3854 3.08867 11.3796C3.3228 11.2683 3.49254 11.1045 3.59204 10.8879C3.69154 10.6713 3.74422 10.4197 3.74422 10.1387H3.6974C3.6974 10.1387 3.65642 10.1797 3.64472 10.2148C3.63301 10.2499 3.62131 10.2792 3.60375 10.3026C3.55107 10.4665 3.43401 10.5601 3.25256 10.5835C3.11209 10.4606 3.01844 10.3377 2.96576 10.2148C2.91308 10.0919 2.88967 9.95142 2.88967 9.78753C2.88967 9.53585 2.98917 9.21393 3.18232 8.81592C3.43986 8.29499 3.58033 7.99063 3.60375 7.91454C3.3228 8.3184 3.12965 8.6052 3.03014 8.76908C2.67896 9.36024 2.50337 9.90458 2.50337 10.3962C2.50337 10.683 2.55019 10.9406 2.64384 11.1689C2.31607 11.8185 2.0995 12.5092 2 13.2408C2 13.4925 2.05268 13.7208 2.16389 13.9374C2.27509 14.1539 2.43313 14.3061 2.64384 14.3997C2.92479 14.5227 3.18818 14.6105 3.43986 14.6573C3.69154 14.7041 3.96664 14.7275 4.271 14.7275C4.54609 14.7275 4.80363 14.71 5.04361 14.6748C5.28358 14.6397 5.57038 14.5871 5.89816 14.5168C6.94586 14.2183 7.99356 13.9198 9.04712 13.6154C9.09979 13.6154 9.18759 13.6096 9.30465 13.592C9.42171 13.5745 9.50951 13.5686 9.56219 13.5686C9.65584 13.5686 9.73193 13.5803 9.79631 13.6096C9.8607 13.6389 9.90752 13.6915 9.94849 13.7676C9.82558 13.9022 9.50366 14.1247 8.98859 14.4466C8.57302 14.7041 8.31548 14.9675 8.20427 15.2426C8.59643 15.0143 8.98273 14.7919 9.37489 14.5636L8.81299 15.3362C8.74861 15.4767 8.6374 15.7167 8.47352 16.062C8.3506 16.3605 8.28622 16.6181 8.28622 16.8346C8.28622 16.9927 8.30963 17.1273 8.36231 17.2444C8.41498 17.3614 8.50278 17.4726 8.6257 17.5721C8.84226 17.7594 9.07638 17.8531 9.32806 17.8531C9.47439 17.8531 9.63243 17.818 9.79046 17.7477C9.94849 17.6775 10.1124 17.578 10.2763 17.4551C10.3406 17.4082 10.645 17.1331 11.2011 16.6356C11.3942 16.4542 11.5757 16.3137 11.7395 16.2142C12.237 15.904 12.7638 15.6582 13.314 15.4767C13.8642 15.2953 14.4612 15.1607 15.0992 15.067C15.7372 14.9734 16.381 14.9031 17.019 14.8504C17.657 14.7978 18.2657 14.7744 18.8452 14.7744C18.9154 14.6866 18.9857 14.5988 19.0559 14.5051C19.1905 14.3178 19.2549 14.1539 19.2549 14.0134C18.7398 14.0134 18.0433 13.8671 17.1595 13.5803C16.6152 13.3989 16.2113 13.2818 15.9538 13.2174C16.779 13.0126 17.3526 12.8838 17.6746 12.8194C18.3126 12.7024 18.9096 12.6438 19.4539 12.6438C19.8578 12.6438 20.2675 12.679 20.6831 12.7492L21.1981 11.9766ZM6.62394 6.90781C6.62979 6.97219 6.62394 7.03072 6.60638 7.08925C6.58882 7.14778 6.5537 7.1712 6.50688 7.15364C6.46005 7.10682 6.43079 7.07755 6.41323 7.05999C6.37226 7.01902 6.33714 6.99559 6.29617 6.98974C6.27861 7.1946 6.2669 7.39361 6.26105 7.58677C6.23764 7.81504 6.1791 7.99062 6.08545 8.12524C6.02107 8.08427 5.93913 7.94379 5.83377 7.70382C5.72842 7.46384 5.59965 7.35849 5.44162 7.39946C5.36553 7.35849 5.32455 7.29996 5.32455 7.21216C5.32455 7.16534 5.33626 7.11266 5.35967 7.05413C5.38308 6.9956 5.40064 6.94292 5.4182 6.90195C5.43576 6.86098 5.45917 6.84342 5.50015 6.84927C5.54112 6.85512 5.57624 6.86099 5.6055 6.86099C5.69915 6.96049 5.79865 7.11852 5.89816 7.33509C5.99766 7.55165 6.0796 7.69798 6.13228 7.77407V7.34093C6.13228 7.20045 6.13813 7.07169 6.15569 6.96048C6.17325 6.84927 6.20837 6.73807 6.26105 6.63857C6.33714 6.63857 6.40737 6.66782 6.47176 6.7205C6.50102 6.74392 6.5537 6.8083 6.62394 6.90781ZM9.49195 10.9815C9.42757 11.2157 9.3983 11.3386 9.3983 11.3444C9.35148 11.4322 9.28709 11.4908 9.211 11.52C9.16418 11.5259 9.12321 11.5025 9.09394 11.4498C9.06468 11.3971 9.04126 11.362 9.0237 11.3562C9.01785 11.3152 9.012 11.2566 9.012 11.1689C9.012 11.0284 9.04126 10.8762 9.09394 10.7123C9.17003 10.5192 9.22856 10.3728 9.25783 10.2792C9.26368 10.3436 9.24612 10.4489 9.20515 10.607C9.16418 10.765 9.14077 10.8762 9.14077 10.9464C9.14077 11.0811 9.19344 11.1688 9.30465 11.2157C9.36904 11.1396 9.42757 11.0576 9.49195 10.9815ZM8.04039 9.54169C8.04039 9.54169 7.94088 9.69972 7.81797 9.9397C7.73017 10.1036 7.63067 10.1855 7.51361 10.1855L6.85806 9.79923C6.78783 9.84606 6.72929 9.93385 6.67662 10.0685C6.62394 10.2031 6.57126 10.2967 6.50688 10.3494C6.27275 10.3026 6.12057 10.2616 6.05034 10.2324C5.88645 10.1621 5.79865 10.0743 5.78109 9.96312C5.85718 9.82264 5.91572 9.72315 5.95669 9.65876C6.02692 9.53585 6.10301 9.44219 6.1791 9.37781C6.41908 9.47731 6.66491 9.58266 6.90489 9.68216L7.45508 9.16709C7.45508 9.16709 7.5897 9.24319 7.84138 9.37781C7.93503 9.43049 7.99941 9.48902 8.04039 9.54169ZM4.94996 9.0032C4.97337 9.091 4.96752 9.1788 4.9324 9.2666C4.89728 9.3544 4.83875 9.44219 4.76266 9.51828C4.69242 9.52413 4.63389 9.50073 4.58706 9.43634C4.54024 9.34855 4.50512 9.29001 4.48171 9.26074C4.48171 9.07344 4.50512 8.89785 4.54609 8.73397C4.58706 8.57008 4.65145 8.40035 4.73924 8.23061C4.73924 8.28329 4.72169 8.38864 4.68071 8.53496C4.63974 8.68129 4.62218 8.79834 4.62218 8.87443C4.62218 9.03247 4.68657 9.14369 4.80948 9.21392L4.94996 9.0032ZM6.02692 11.8595C6.02107 11.9473 6.00936 12.0175 5.99181 12.0819C5.97425 12.1463 5.92742 12.1463 5.85133 12.0936C5.72842 12.0527 5.65818 12.0351 5.65233 12.0351C5.56453 12.3687 5.48259 12.7024 5.39479 13.0301C5.30699 12.9892 5.20164 12.8428 5.07287 12.5911C4.9441 12.3395 4.79192 12.2283 4.62218 12.2575C4.57536 12.2107 4.55195 12.1639 4.55195 12.117C4.55195 12.0878 4.5695 12.0351 4.59877 11.9649C4.62804 11.8946 4.6456 11.8419 4.6456 11.801C4.68657 11.76 4.72754 11.7425 4.77436 11.7425C4.80363 11.7425 4.8446 11.76 4.89142 11.7951C4.93825 11.8303 5.03775 12.0117 5.18408 12.3395C5.24846 12.4741 5.29529 12.5385 5.33626 12.5385C5.37723 12.5385 5.41235 12.5092 5.44162 12.4448C5.46503 12.2107 5.48259 12.0761 5.48844 12.0351C5.52941 11.8771 5.61135 11.7834 5.73427 11.7425C5.85718 11.7425 5.95669 11.7834 6.02692 11.8595ZM16.7849 7.89112C16.7673 7.82088 16.7439 7.76821 16.7088 7.73309C16.6737 7.69797 16.6386 7.68042 16.5976 7.68042C16.5683 7.68042 16.5332 7.69797 16.504 7.72723C16.5976 7.83844 16.6913 7.89112 16.7849 7.89112ZM15.029 8.19549C14.9997 8.17793 14.947 8.14281 14.8768 8.07842C14.8475 8.04916 14.7948 8.00234 14.7246 7.93795C14.7656 7.86772 14.8007 7.83259 14.83 7.83259C14.8592 7.83259 14.9002 7.86185 14.947 7.92624C14.9939 7.99062 15.0231 8.055 15.029 8.12524V8.19549Z" fill="white"/>
</svg>
