<svg width="24" height="24" viewBox="0 0 24 24" fill="none" xmlns="http://www.w3.org/2000/svg">
<path fill-rule="evenodd" clip-rule="evenodd" d="M21.9874 8.84604C21.9539 8.87955 21.9288 8.8963 21.9079 8.8963C21.8995 8.81672 21.8618 8.73295 21.7906 8.64499C21.7194 8.55704 21.6691 8.49002 21.6356 8.44395L21.5267 8.61568C21.5267 9.05128 21.5686 9.55808 21.6482 10.1319C21.7277 10.7099 21.8073 11.2628 21.8911 11.7905C21.912 11.9706 21.9288 12.1466 21.9414 12.3183C21.9539 12.49 21.9623 12.6659 21.9623 12.846C21.9623 13.2356 21.9288 13.5874 21.866 13.9057C21.8031 14.224 21.6901 14.5466 21.5309 14.8775C21.5853 14.4293 21.6105 13.956 21.6105 13.4617C21.6105 13.2356 21.6021 13.0094 21.5812 12.7874L21.1204 8.72458C21.1204 8.61149 21.1079 8.45651 21.0869 8.25547C21.0618 8.05861 21.0534 7.93714 21.0534 7.88688C21.0534 7.73191 21.0785 7.60206 21.1246 7.49316C21.1707 7.38426 21.2628 7.28374 21.3969 7.19159C21.4723 7.35075 21.5518 7.5518 21.6398 7.79473C21.6482 7.81986 21.7654 8.1717 22 8.84185L21.9874 8.84604ZM17.2126 9.70049C17.2251 9.78007 17.2126 9.85965 17.1623 9.93505C17.1162 10.0104 17.0702 10.0858 17.0199 10.1612C16.9654 10.1822 16.911 10.1612 16.8607 10.111C16.8398 10.09 16.8021 10.0356 16.7393 9.9518C16.7309 9.90572 16.7309 9.8429 16.7309 9.75913C16.7309 9.60416 16.756 9.44918 16.8105 9.28583C16.844 9.18531 16.9068 9.03871 17.0031 8.84185C17.0241 8.92981 17.0031 9.05965 16.9529 9.23557C16.8984 9.41149 16.8733 9.52457 16.8733 9.57902C16.8733 9.70049 16.9236 9.8052 17.0241 9.90154C17.0492 9.89316 17.0785 9.85965 17.1037 9.79683C17.1288 9.734 17.1665 9.70049 17.2126 9.70049ZM17.4932 7.36751C16.8105 7.58949 16.0775 7.8408 15.2901 8.12143C14.5613 8.38112 13.8325 8.64499 13.1079 8.90468C13.0325 8.93818 12.9738 8.98845 12.9277 9.05966C12.8817 9.13086 12.844 9.20625 12.8188 9.28583C13.2628 9.06384 13.8492 8.8251 14.578 8.57379C14.9717 8.43976 15.5749 8.23452 16.3874 7.96227C16.3958 7.96227 16.6094 7.89106 17.0325 7.75284C17.2921 7.66489 17.4471 7.53924 17.4932 7.3717V7.36751ZM15.2021 10.0733L15.0932 10.2827C15.0513 10.2492 15.022 10.2241 15.001 10.2115C14.934 10.1696 14.867 10.1612 14.8 10.1822C14.6995 10.5508 14.599 10.9152 14.4984 11.2796C14.4775 11.246 14.4188 11.1246 14.3183 10.9193C14.2597 10.8063 14.1927 10.6764 14.1173 10.5382C14.0963 10.5717 14.067 10.5884 14.0251 10.5884C13.9916 10.5884 13.9497 10.5759 13.8995 10.5549C13.8492 10.5298 13.8031 10.5047 13.7654 10.4796C13.7529 10.4586 13.7445 10.4293 13.7445 10.3874C13.7445 10.3455 13.7613 10.2953 13.7906 10.2324C13.8199 10.1696 13.8408 10.1235 13.8576 10.0984C13.933 10.0523 14 10.0314 14.067 10.0398C14.1424 10.1152 14.2094 10.2115 14.2681 10.333C14.356 10.5131 14.444 10.6932 14.5277 10.8775C14.5613 10.6345 14.599 10.4419 14.645 10.2953C14.6869 10.1487 14.7707 10.0188 14.8921 9.9141C14.9675 9.9141 15.0304 9.92667 15.0848 9.94761C15.1393 9.97274 15.177 10.0146 15.2063 10.0816L15.2021 10.0733ZM21.0618 12.8083C20.9403 12.733 20.8021 12.6994 20.6513 12.6994C20.3079 12.7748 19.9686 12.846 19.6251 12.9214L19.223 10.5089C19.3696 10.4 19.5246 10.2911 19.6921 10.1738C19.8555 10.0565 19.9895 9.93924 20.0901 9.82615L20.2199 9.95599L20.3288 9.84709C20.2953 9.79264 20.2785 9.73819 20.2785 9.68793C20.2785 9.64185 20.2953 9.57483 20.3288 9.48688C20.3958 9.31934 20.4209 9.19368 20.4084 9.1141C20.3749 9.02614 20.2953 8.97588 20.1654 8.96332C20.0524 8.96332 19.9518 9.00521 19.8681 9.09316C19.7843 9.18112 19.7173 9.28583 19.6712 9.40311C19.6963 9.44918 19.734 9.49525 19.7801 9.54551C19.9016 9.66698 19.9686 9.73819 19.9812 9.76751C19.9016 9.83453 19.8052 9.90991 19.7005 9.99787C19.5204 10.1403 19.3571 10.2408 19.2188 10.3078C19.2188 10.1654 19.1895 9.9518 19.1267 9.6628C19.0681 9.37379 19.0346 9.16018 19.0346 9.01777C19.0346 8.87536 19.0597 8.73714 19.1058 8.61568C19.1476 8.64919 19.2021 8.7162 19.2775 8.82091C19.3529 8.92562 19.4115 8.98426 19.4576 8.99682C19.244 8.38531 19.0304 7.77379 18.8126 7.15808C18.712 7.21672 18.6325 7.31305 18.5696 7.43871C18.5487 7.48478 18.511 7.61044 18.4482 7.81148C18.5277 8.22614 18.6031 8.67431 18.6702 9.14761C18.712 9.4408 18.7707 9.89316 18.8503 10.5047C18.6366 10.6806 18.3812 10.8314 18.088 10.957C17.9288 11.0241 17.7654 11.0911 17.6063 11.1581C17.7948 11.1581 18.0168 11.0994 18.2681 10.978C18.5906 10.823 18.7916 10.735 18.8712 10.7183L19.2147 13.001C19.0932 13.0471 18.9508 13.0722 18.7832 13.0722C18.7162 13.0722 18.6576 13.0722 18.6073 13.068C18.5571 13.068 18.4565 13.0513 18.3099 13.022C18.201 12.9633 18.1257 12.9131 18.0796 12.8712C18 12.8042 17.9539 12.7288 17.9497 12.6492C17.8702 12.7288 17.8073 12.8083 17.7696 12.8921C17.7571 12.9172 17.7026 13.0722 17.6105 13.3528C17.6901 13.4785 17.7571 13.6419 17.8115 13.8345C17.8366 13.9434 17.8785 14.1068 17.933 14.3288C17.3969 14.8649 16.9403 15.2586 16.5675 15.5057C16.0188 15.8659 15.4869 16.0502 14.9675 16.0502C14.8419 16.0502 14.7079 16.0419 14.5654 16.0209C14.3058 15.8617 14.1382 15.6356 14.0628 15.3466C14.0209 15.246 14.0042 15.1539 14.0042 15.0743C14.0042 14.9193 14.0796 14.7769 14.2346 14.6429C14.5948 14.333 14.7916 14.1152 14.8168 13.9811C14.8921 14.0942 14.9843 14.1905 15.0932 14.2617C15.2021 14.3371 15.3194 14.3706 15.4408 14.3706C15.5204 14.3706 15.5958 14.3581 15.667 14.3288C15.7382 14.3036 15.801 14.2534 15.8513 14.1864C15.9518 14.0062 16.0272 13.8345 16.0775 13.6754C16.1277 13.5162 16.1529 13.3403 16.1529 13.1518C16.1529 12.9424 16.1152 12.7581 16.044 12.5905C15.9016 12.7497 15.8346 12.9675 15.8346 13.2439C15.8346 13.311 15.8429 13.3905 15.8555 13.4869C15.8094 13.5539 15.7466 13.5958 15.6754 13.6083C15.6209 13.6293 15.5791 13.6377 15.5455 13.6377C15.466 13.6377 15.3864 13.6167 15.3152 13.579C15.2901 13.5665 15.2524 13.5413 15.2063 13.5078C15.0974 13.4282 15.0471 13.3193 15.0471 13.1853C15.0471 13.1434 15.0555 13.0764 15.0681 12.9843C14.9927 13.0178 14.9382 13.0764 14.9005 13.156C14.8628 13.2356 14.8209 13.3361 14.7749 13.4576C14.6408 13.6335 14.5194 13.7633 14.4147 13.8513C14.2597 13.9727 14.1047 14.0314 13.9539 14.0314C13.8743 14.0314 13.8115 14.023 13.7738 14.0104C13.6607 13.9434 13.5853 13.8513 13.5518 13.7298C13.5183 13.6083 13.5016 13.4576 13.5016 13.2775V13.0848C13.3592 13.1518 13.2084 13.3026 13.0492 13.5413C12.8901 13.7801 12.7518 13.935 12.6387 14.0104C12.5466 14.0523 12.4712 14.0775 12.4209 14.0858C12.3707 14.0942 12.3204 14.1026 12.266 14.1026C12.2115 14.1026 12.1445 14.09 12.0649 14.0607C11.9518 13.9853 11.8597 13.9015 11.7927 13.8094C11.7047 13.6837 11.6251 13.5036 11.5497 13.2775L11.4492 9.0052L11.2398 7.43871C11.1476 7.46384 11.0723 7.5518 11.0178 7.6984C10.9927 7.77798 10.9508 7.89945 10.8963 8.05861C10.8963 8.25966 10.9508 8.7874 11.0555 9.63766C11.1016 10.0146 11.1267 10.3329 11.1267 10.5926V11.0157C11.1267 11.4429 11.1058 11.8199 11.0681 12.1424C11.0262 12.4649 10.9382 12.7581 10.7958 13.0261C10.7958 12.5905 10.6702 12.1549 10.4147 11.7193C10.2555 11.4429 9.97068 11.0701 9.56021 10.5926C8.84817 9.74237 8.46702 9.27745 8.41257 9.20625C8.18639 8.89211 8.01466 8.59473 7.90157 8.32248C7.94346 8.30154 7.97696 8.29316 8.00209 8.29316C8.04398 8.29316 8.1445 8.3518 8.30367 8.47326C8.3623 8.51934 8.42513 8.54447 8.48377 8.54447C8.37068 8.33504 8.14869 8.06699 7.82199 7.73191C7.62932 7.53086 7.4911 7.38426 7.41152 7.28792C7.40314 7.334 7.36963 7.43033 7.31099 7.57274C7.25236 7.71515 7.21885 7.82824 7.21885 7.90782C7.21885 7.99997 7.25236 8.07955 7.31937 8.13819C7.39476 8.38531 7.48691 8.61567 7.59581 8.83347C7.70471 9.04709 7.83456 9.26908 7.98115 9.49525C8.10262 9.68374 8.2534 9.89316 8.43351 10.1277C8.57592 10.3078 8.73927 10.5172 8.93194 10.7518C9.12461 10.9864 9.28377 11.1874 9.40942 11.3549C9.58953 11.5895 9.74031 11.7989 9.86178 11.979C10.0209 12.2136 10.1634 12.4398 10.2806 12.6576C10.3979 12.8754 10.4901 13.0932 10.5571 13.3151C10.155 13.7843 9.63979 14.1989 9.00733 14.5633C8.62618 14.7853 8.05236 15.0576 7.29005 15.3885C7.83456 15.2293 8.37906 15.0659 8.92775 14.9068C9.45131 14.7811 9.92042 14.534 10.3393 14.1738C10.7581 13.8136 11.0429 13.3864 11.1895 12.8963C11.2021 12.9759 11.223 13.1727 11.2565 13.4785C11.2859 13.7885 11.3277 14.0104 11.3822 14.1528C11.5162 14.3874 11.6209 14.5466 11.6921 14.6261C11.8346 14.7853 11.9895 14.8691 12.1654 14.8691C12.4 14.89 12.6178 14.7895 12.8188 14.5675C12.9613 14.3748 13.1037 14.178 13.2503 13.9853C13.2712 14.0984 13.2921 14.2157 13.3173 14.3371C13.3424 14.4586 13.3885 14.5591 13.4639 14.6387C13.5183 14.6973 13.5812 14.7392 13.6565 14.7602C13.7654 14.7727 13.8743 14.7853 13.9874 14.8021L13.8157 15.334C13.7948 15.4471 13.7864 15.5602 13.7864 15.6649C13.7864 15.8869 13.8325 16.0837 13.9204 16.2638C14.0126 16.4398 14.1508 16.5947 14.3393 16.7204C14.4482 16.8 14.5822 16.8419 14.7497 16.8419C14.8293 16.8335 14.9131 16.8293 14.9969 16.8209C15.0806 16.8125 15.1644 16.8125 15.244 16.8125C15.5874 16.6701 15.9099 16.5193 16.2199 16.3518C16.5969 16.1424 16.9152 15.9288 17.1832 15.7068C17.5183 15.4178 17.778 15.133 17.9581 14.8523C18.1717 14.5089 18.2806 14.1612 18.2806 13.8052C18.6408 13.7717 19.0052 13.7382 19.3654 13.7047C19.4325 13.9853 19.5162 14.2157 19.6168 14.3874C19.7508 14.622 19.9267 14.7811 20.1487 14.8691C20.2031 14.8816 20.2408 14.89 20.2702 14.89C20.4251 14.89 20.5592 14.8314 20.6723 14.7183C20.7602 14.5591 20.8482 14.3958 20.9445 14.2366C21.1455 13.8764 21.2461 13.579 21.2461 13.3528C21.2461 13.1602 21.1874 12.9801 21.0743 12.8209L21.0618 12.8083ZM13.2419 11.6439C13.2503 11.7361 13.2293 11.8282 13.1832 11.9162C13.1372 12.0042 13.066 12.0879 12.9738 12.1675C12.9194 12.1759 12.8733 12.1675 12.8398 12.1382C12.8021 12.1131 12.777 12.0796 12.7602 12.0377C12.7435 11.9958 12.7351 11.9455 12.7351 11.8869C12.7351 11.7403 12.7853 11.5727 12.8859 11.3843C12.9654 11.2586 13.0241 11.1623 13.0576 11.1036C13.0576 11.1497 13.0283 11.246 12.9738 11.3885C12.9152 11.5309 12.8901 11.6356 12.8901 11.6942C12.8901 11.7947 12.9487 11.8701 13.0618 11.9162C13.0827 11.8492 13.1037 11.7905 13.133 11.7445C13.1581 11.6984 13.2 11.6649 13.2545 11.6439H13.2419ZM9.87435 8.59892C9.80733 8.80834 9.75288 8.95913 9.71518 9.05966C9.64817 9.21882 9.57277 9.36541 9.48482 9.49107C9.57277 9.31096 9.63979 9.13086 9.68586 8.95913C9.73194 8.78321 9.75707 8.60311 9.75707 8.41463C9.75707 8.28059 9.74031 8.15075 9.70681 8.02929C9.6733 7.90363 9.61466 7.79054 9.5267 7.68164C9.56859 7.623 9.59791 7.57693 9.61885 7.54761C9.63979 7.51829 9.66492 7.50154 9.69843 7.50154C9.77801 7.67746 9.83665 7.81987 9.87435 7.92877C9.91204 8.03767 9.9288 8.16332 9.9288 8.30573C9.9288 8.38531 9.91204 8.48164 9.87853 8.59892H9.87435ZM5.95393 7.81568L5.88272 8.0251C5.88272 8.0251 5.8199 8.00834 5.75288 7.97483C5.68586 7.94133 5.63141 7.92457 5.59372 7.92457C5.53927 7.92457 5.50157 7.96646 5.48482 8.05442C5.45131 8.14656 5.42199 8.31411 5.39267 8.55704C5.36754 8.79997 5.32147 8.9717 5.26283 9.0806C5.20838 9.03871 5.15393 8.9675 5.10366 8.8586C5.02408 8.69944 4.9445 8.53191 4.8733 8.36437C4.85236 8.39787 4.81885 8.41463 4.77277 8.41463C4.69319 8.41463 4.61361 8.38112 4.52984 8.31411C4.49634 8.26803 4.47958 8.22614 4.47958 8.19264C4.47958 8.14656 4.48796 8.10049 4.50052 8.06279C4.51309 8.02091 4.52984 7.98322 4.55079 7.94133C4.57592 7.9162 4.60942 7.88688 4.64293 7.85756C4.67644 7.82824 4.70995 7.81148 4.74346 7.81148C4.78953 7.81148 4.82304 7.8408 4.84398 7.90363C4.96545 8.10468 5.04084 8.23871 5.07435 8.30573C5.14136 8.43138 5.20419 8.57798 5.26702 8.73714C5.3466 8.30154 5.39267 8.06699 5.40942 8.03348C5.45131 7.90782 5.51832 7.78636 5.61047 7.67327C5.68586 7.6607 5.74869 7.66489 5.80314 7.69002C5.85759 7.71515 5.91204 7.75704 5.9623 7.81568H5.95393ZM8.13613 11.535C8.11518 11.7696 8.01885 11.9455 7.84293 12.067C7.80105 12.0586 7.76754 12.0335 7.73822 11.9916C7.7089 11.9497 7.68377 11.9036 7.66283 11.8576C7.66283 11.6691 7.68796 11.5057 7.73822 11.3633C7.78848 11.2209 7.87225 11.0827 7.99372 10.9403C7.93927 11.0953 7.89319 11.2209 7.85969 11.3172C7.82199 11.4136 7.80524 11.4932 7.80524 11.5518C7.80524 11.6523 7.84712 11.7403 7.9267 11.8115C7.93508 11.8031 7.9644 11.7529 8.01885 11.6523C8.05236 11.5937 8.09424 11.5518 8.14031 11.5309L8.13613 11.535ZM13.2419 15.3466C13.2628 15.4932 13.1958 15.6188 13.0408 15.7193C12.8984 15.7947 12.7644 15.8701 12.6304 15.9497C12.5843 15.9246 12.5257 15.9036 12.4586 15.8911C12.3916 15.8785 12.333 15.8701 12.2785 15.8701C12.1445 15.8701 12.0063 15.9036 11.8681 15.9706C11.822 15.9916 11.7382 16.0377 11.6168 16.1131C11.3822 16.2387 11.2147 16.3225 11.1141 16.3644C10.9257 16.4398 10.7372 16.4733 10.5529 16.4733H10.3812C10.5696 16.4272 10.7916 16.3434 11.0429 16.222C11.1435 16.1759 11.2817 16.1047 11.4534 16.0125C11.6293 15.9204 11.8052 15.8324 11.9812 15.7528C12.1571 15.6733 12.3288 15.6146 12.488 15.5811C12.5634 15.6398 12.601 15.6733 12.6094 15.6816C12.6639 15.7152 12.7099 15.7193 12.7518 15.69C12.7979 15.6104 12.8356 15.5392 12.8691 15.4848C12.8984 15.4261 12.9403 15.3884 12.9948 15.3675V15.5769C13.0366 15.5686 13.0785 15.535 13.1288 15.468C13.1791 15.401 13.2168 15.3591 13.2461 15.3466H13.2419ZM6.82932 10.7309C6.71623 10.89 6.62408 11.0073 6.55707 11.0827C6.49005 11.1581 6.42723 11.1916 6.3644 11.1916C6.29738 11.1916 6.23037 11.1413 6.16335 11.0408L5.84084 10.8314C5.77382 10.8858 5.70262 10.9612 5.63141 11.0576C5.55602 11.1539 5.48901 11.246 5.43037 11.334C5.33822 11.3131 5.2377 11.2837 5.13298 11.2377C5.02827 11.1958 4.93194 11.1497 4.8356 11.1036C4.92356 10.8607 5.06178 10.6555 5.25864 10.4796C5.42618 10.5549 5.54764 10.6052 5.62722 10.6387C5.70262 10.6722 5.77801 10.7141 5.8534 10.7602L6.3267 10.2492C6.37277 10.2743 6.4733 10.3581 6.62827 10.4921C6.69529 10.5717 6.7623 10.6513 6.82932 10.735V10.7309ZM6.6199 12.1591C6.61152 12.2052 6.60314 12.2597 6.59058 12.3141C6.57801 12.3727 6.53613 12.4104 6.46911 12.4314C6.46911 12.356 6.41885 12.3015 6.31832 12.2597C6.29738 12.3015 6.25969 12.4356 6.20105 12.6617C6.14241 12.8879 6.06283 13.0387 5.95393 13.1057C5.90785 13.0597 5.85759 12.9549 5.80314 12.7958C5.71518 12.5361 5.58534 12.4188 5.40942 12.4523C5.36754 12.4272 5.35079 12.3895 5.35079 12.3434C5.40524 12.2303 5.43037 12.1466 5.43037 12.0921C5.47225 12.0795 5.50157 12.067 5.5267 12.0586C5.55183 12.0502 5.57277 12.0419 5.59372 12.0419C5.6356 12.0419 5.66492 12.0586 5.68586 12.0921C5.75288 12.1717 5.81571 12.2848 5.87853 12.423C5.96649 12.6324 6.01675 12.7497 6.02932 12.7748C6.08377 12.5947 6.12984 12.4398 6.16335 12.3183C6.20105 12.1926 6.26387 12.0837 6.34764 11.9916C6.40209 11.9916 6.44817 12.0042 6.48168 12.0335C6.51937 12.0586 6.56544 12.1047 6.61571 12.1633L6.6199 12.1591ZM8.60942 13.5078C8.60942 13.6335 8.56335 13.7675 8.46702 13.9015C8.42513 13.9602 8.24084 14.1487 7.91414 14.4628C7.70471 14.6178 7.50366 14.7644 7.30262 14.9068C7.06806 15.0743 6.85445 15.2167 6.65759 15.3298C6.74974 15.1036 6.95497 14.8733 7.26911 14.6471C7.71309 14.3246 7.9644 14.1319 8.03141 14.0649C7.97696 14.0649 7.91832 14.0649 7.8555 14.0565C7.79267 14.0481 7.74241 14.0481 7.7089 14.0481C7.33194 14.0481 6.79581 14.1361 6.09215 14.3078C5.59791 14.4293 5.2712 14.5005 5.11623 14.5298C4.95707 14.5424 4.78115 14.5549 4.59267 14.5717C4.40419 14.5843 4.23246 14.5926 4.08168 14.5926C3.64607 14.5926 3.28168 14.5466 2.98429 14.4502C2.61571 14.3288 2.32251 14.1277 2.1089 13.8471C2.07539 13.7801 2.05026 13.6921 2.02932 13.5874C2.00838 13.4785 2 13.3905 2 13.3151C2 13.0555 2.07539 12.7665 2.23037 12.4523C2.30995 12.2848 2.46492 12.0335 2.6911 11.6984C2.59058 11.4764 2.54031 11.2544 2.54031 11.0241C2.54031 10.668 2.64503 10.2911 2.85026 9.88897C2.99686 9.59997 3.20209 9.29421 3.46178 8.97589C3.42827 9.06385 3.3445 9.23976 3.21047 9.50782C3.00942 9.90991 2.9089 10.2324 2.9089 10.4712C2.9089 10.5926 2.92565 10.6973 2.95497 10.7895C2.98429 10.8816 3.03874 10.978 3.12251 11.0869C3.21047 11.112 3.28586 11.0743 3.34869 10.9654C3.41152 10.8565 3.47016 10.8063 3.52461 10.8146C3.52461 11.0241 3.48272 11.2083 3.39895 11.3759C3.31518 11.5434 3.18953 11.6816 3.02199 11.7864C2.87539 11.7864 2.77906 11.7612 2.7288 11.7152C2.56963 12.1047 2.48168 12.3267 2.46911 12.3769C2.42304 12.5319 2.39791 12.6701 2.39791 12.8C2.39791 12.9926 2.45654 13.1686 2.56963 13.3235C2.79162 13.5581 3.06387 13.7256 3.39476 13.8261C3.72147 13.9267 4.07749 13.9769 4.45864 13.9769C4.55079 13.9769 4.64293 13.9769 4.73508 13.9727C4.82723 13.9727 4.94869 13.9602 5.10785 13.9434C5.26702 13.9267 5.91623 13.7926 7.06387 13.5455C7.49948 13.4534 7.8555 13.4031 8.12775 13.4031C8.16126 13.3947 8.18639 13.3947 8.19895 13.3947C8.34555 13.3947 8.47958 13.4366 8.60105 13.5162L8.60942 13.5078ZM4.34555 12.2806C4.34555 12.2806 4.29948 12.3309 4.27016 12.3979C4.24084 12.4607 4.20314 12.4984 4.16545 12.5152C4.06492 12.4607 4.01466 12.3895 4.01466 12.3057C4.01466 12.2597 4.0356 12.1926 4.0733 12.1047C4.14869 11.9455 4.1822 11.845 4.1822 11.8031C4.14031 11.8701 4.0733 11.9748 3.98115 12.1131C3.91414 12.2345 3.88063 12.3518 3.88063 12.4649C3.88063 12.5193 3.88063 12.557 3.88901 12.5864C3.90157 12.5989 3.93089 12.6366 3.98115 12.6911C4.02723 12.7497 4.0733 12.7748 4.12356 12.7748C4.20314 12.6994 4.26597 12.624 4.30367 12.5445C4.34555 12.4649 4.35812 12.3769 4.34555 12.2848V12.2806ZM20.199 9.29421L20.1696 9.49525C20.0817 9.42824 19.9979 9.36122 19.9183 9.29421C19.9267 9.28164 19.9518 9.25651 19.9979 9.22301C20.0733 9.21044 20.1403 9.23138 20.199 9.29421ZM20.8942 13.9099C20.8147 14.0188 20.6848 14.0858 20.5131 14.1193C20.3581 14.1193 20.2199 14.0565 20.0942 13.9267C19.9686 13.801 19.8764 13.6586 19.8178 13.5036C19.9267 13.4576 20.0105 13.424 20.0733 13.4073C20.1361 13.3905 20.2241 13.3822 20.3288 13.3822C20.5089 13.3822 20.6513 13.4366 20.7518 13.5413C20.844 13.6209 20.8942 13.7424 20.8942 13.9015V13.9099Z" fill="white"/>
</svg>
