<svg width="24" height="24" viewBox="0 0 24 24" fill="none" xmlns="http://www.w3.org/2000/svg">
<path fill-rule="evenodd" clip-rule="evenodd" d="M21.9948 8.3553C21.843 8.13552 21.6913 7.92097 21.5447 7.70119C21.4453 7.99423 21.393 8.3396 21.393 8.73206C21.393 8.89952 21.4035 9.15593 21.4296 9.49606C21.4558 9.84143 21.4662 10.0926 21.4662 10.2496C21.5186 10.7206 21.5552 11.2595 21.5814 11.8718C21.6075 12.484 21.618 13.0387 21.618 13.5411C21.618 14.0853 21.5604 14.6138 21.4401 15.1214C21.325 15.6342 21.1523 16.1261 20.9273 16.6023C21.0267 16.1837 21.0999 15.7598 21.147 15.3255C21.1941 14.8964 21.2151 14.4254 21.2151 13.9231C21.2151 13.3631 21.1837 12.6829 21.1261 11.8875C20.9901 10.0612 20.9273 8.92045 20.9273 8.45996C20.8749 7.86341 20.8278 7.2721 20.7755 6.67555C20.8435 6.30925 21.0058 6.00574 21.2674 5.77026C21.3093 5.99004 21.4506 6.40867 21.6965 7.03662C21.8953 7.55467 22 7.989 22 8.34483L21.9948 8.3553ZM17.0235 7.85294C17.0235 7.85294 17.0497 7.9262 17.0497 8.0047C17.0497 8.08842 17.0392 8.15122 17.0235 8.19831C17.0078 8.24541 16.9765 8.3082 16.9346 8.39193C16.8666 8.46519 16.7828 8.50705 16.6834 8.50705C16.6259 8.50705 16.5735 8.48612 16.5317 8.44426C16.4061 8.35007 16.3433 8.20878 16.3433 8.01516C16.3433 7.96283 16.3433 7.91574 16.3537 7.86864C16.3642 7.82155 16.3694 7.77445 16.3799 7.72212L16.6677 7.14651C16.6834 7.21977 16.6677 7.34536 16.6102 7.51281C16.5578 7.68026 16.5264 7.78492 16.5264 7.82678C16.5264 7.88434 16.5421 7.93667 16.5683 7.98376C16.5997 8.03086 16.652 8.06749 16.7253 8.10412C16.809 8.13552 16.8718 8.10412 16.9189 8.00993C16.966 7.91574 16.9974 7.86341 17.0131 7.85294H17.0235ZM19.3731 8.26634C19.3731 8.23494 19.3731 8.18261 19.3836 8.11459C19.3836 7.83724 19.2737 7.45525 19.0591 6.95812C18.7818 6.34065 18.6248 5.94295 18.5829 5.7755C18.4835 5.91155 18.3893 6.05807 18.3004 6.21506C18.2114 6.37204 18.1486 6.51856 18.1068 6.65462C18.248 7.78492 18.3998 8.97278 18.5672 10.2234C18.7295 11.4689 18.8132 12.5625 18.8132 13.4992C18.6981 13.9859 18.4312 14.4202 18.023 14.8074C17.7561 15.0586 17.3323 15.3516 16.7567 15.6865C16.0345 16.1052 15.6002 16.3668 15.4485 16.4662C16.202 16.2465 16.9555 16.0371 17.7091 15.8278C18.2428 15.3778 18.6248 14.8179 18.8498 14.1585C19.0434 13.5986 19.1376 12.9184 19.1376 12.123C19.1376 11.7357 19.0487 10.8357 18.876 9.41234C18.8027 8.80009 18.7609 8.2925 18.7609 7.87911L18.9388 7.5913C19.033 7.73259 19.1272 7.87387 19.2266 8.0047C19.2789 8.07796 19.326 8.16691 19.3783 8.26634H19.3731ZM18.2794 12.8137C18.2114 12.4265 18.0597 12.0497 17.8294 11.6834C17.6463 11.4008 17.3846 11.0869 17.0497 10.7415C16.4636 10.1397 15.8828 9.53269 15.3019 8.92045C15.0612 8.65357 14.8205 8.3867 14.585 8.11459C14.3182 7.79538 14.1664 7.51804 14.135 7.2721C14.1873 7.29826 14.2292 7.30873 14.2711 7.30873C14.381 7.30873 14.4804 7.26163 14.5746 7.17267C14.1245 6.7959 13.6693 6.41391 13.2193 6.03191C13.1198 6.17319 13.0518 6.30402 13.0099 6.41391C12.9681 6.5238 12.9524 6.65985 12.9524 6.8116C12.9524 7.26163 13.2977 7.86864 13.9833 8.62217C14.4437 9.12453 14.7316 9.46466 14.8414 9.63735C14.9566 9.81527 15.1031 10.0036 15.2862 10.2025C15.4014 10.3281 15.5897 10.5112 15.8409 10.7572C16.0345 10.9403 16.2282 11.1235 16.4165 11.2962C16.652 11.5212 16.8352 11.7043 16.9712 11.8352C17.3585 12.2276 17.6515 12.6253 17.8608 13.0282C17.9707 13.2376 18.0492 13.4573 18.1015 13.6824C18.1538 13.9074 18.1852 14.1638 18.2009 14.4464C18.2585 14.2684 18.2899 14.1167 18.2951 13.9859C18.2951 13.855 18.3004 13.7347 18.3004 13.63C18.3004 13.5306 18.3004 13.3893 18.2899 13.2009C18.2794 13.0178 18.2794 12.887 18.2794 12.8137ZM12.0262 8.83149C12.0262 9.0408 11.9372 9.23442 11.7645 9.4071C11.6913 9.4228 11.6232 9.41757 11.5709 9.38094C11.5186 9.34954 11.4662 9.29721 11.4244 9.22919C11.4139 9.19779 11.4139 9.16116 11.4139 9.12976V9.0565C11.4139 8.91521 11.4401 8.77916 11.4872 8.65357C11.5343 8.52798 11.6075 8.39193 11.7017 8.24017C11.6756 8.31343 11.6546 8.39716 11.6337 8.48612C11.6128 8.57508 11.6023 8.65357 11.6023 8.73206C11.6023 8.86812 11.6442 8.97278 11.7279 9.0565L12.0314 8.83149H12.0262ZM13.9623 10.4903C13.978 10.5322 13.9885 10.595 13.9885 10.6787C13.9885 10.7729 13.9676 10.8566 13.9309 10.9403C13.8943 11.0241 13.8367 11.1182 13.7635 11.2229C13.6902 11.3276 13.5908 11.4008 13.4757 11.4427C13.3605 11.4845 13.2402 11.5055 13.1251 11.5055C13.0675 11.495 13.0204 11.495 12.989 11.495C12.9471 11.4845 12.9053 11.4584 12.8582 11.4113C12.8111 11.3642 12.7745 11.2962 12.7378 11.202C12.764 11.0345 12.8111 10.8775 12.8896 10.7258C12.9681 10.574 13.0675 10.417 13.1931 10.2496C13.2036 10.3229 13.1669 10.4432 13.0884 10.6002C13.0099 10.7572 12.9681 10.8671 12.9681 10.9246C12.9681 11.0398 13.057 11.1235 13.2297 11.1653C13.3239 11.1496 13.4181 11.1287 13.5123 11.1078C13.6065 11.0869 13.6902 11.045 13.7582 10.9874C13.7687 10.888 13.7216 10.7886 13.6222 10.6996C13.4861 10.6002 13.3972 10.5269 13.3448 10.4851L13.5594 10.1816C13.6274 10.192 13.6954 10.2287 13.7687 10.2967C13.842 10.3647 13.91 10.4275 13.978 10.4851L13.9623 10.4903ZM12.293 6.41914C11.6128 6.67032 10.7807 6.99999 9.79173 7.41338C8.91261 7.77445 8.08582 8.12505 7.30612 8.47042C7.29566 8.51228 7.25903 8.57508 7.18577 8.6588C7.11251 8.74253 7.08111 8.81056 7.08111 8.85765C7.08111 8.88905 7.09158 8.93091 7.11774 8.97278L7.36892 8.71113L11.8744 6.7959C11.9738 6.75404 12.0628 6.70171 12.1361 6.64415C12.2093 6.58659 12.2616 6.5081 12.2878 6.41914H12.293ZM18.4574 16.7279C18.3893 16.9267 18.1695 17.0837 17.7928 17.1884C17.416 17.293 17.1753 17.3872 17.0654 17.4709C17.0497 17.3977 17.0968 17.314 17.2119 17.225C17.3271 17.136 17.3794 17.0837 17.3794 17.068C17.3794 17.0157 17.3218 16.9738 17.2015 16.932C17.191 16.9058 17.1753 16.8796 17.1491 16.843C17.0811 16.7593 17.0706 16.6912 17.1125 16.6442C17.3323 16.4453 17.4579 16.3302 17.4893 16.304C17.5835 16.236 17.6672 16.2046 17.7509 16.2046C17.8608 16.2046 17.9498 16.2569 18.0126 16.3563C17.9969 16.5081 17.9393 16.5918 17.8346 16.6075C17.7091 16.5761 17.6201 16.5552 17.573 16.5552C17.5311 16.5552 17.4945 16.5709 17.4579 16.6075C17.6096 16.7593 17.7928 16.8325 18.0126 16.8325C18.1538 16.8325 18.3004 16.8011 18.4521 16.7331L18.4574 16.7279ZM18.6562 17.2198C18.5463 17.2721 18.3946 17.3349 18.2062 17.4082C18.1068 17.4395 17.9655 17.4919 17.7875 17.5651C17.6096 17.6384 17.4526 17.7169 17.3166 17.8058C17.1805 17.8948 17.0759 17.9942 17.0026 18.1146C17.3061 17.9995 17.6044 17.8791 17.9079 17.764C18.0649 17.7064 18.2114 17.6279 18.3475 17.539C18.4835 17.4448 18.5882 17.3401 18.6614 17.225L18.6562 17.2198ZM10.2889 9.89899C10.2575 9.99318 10.2261 10.0664 10.1999 10.124C10.1737 10.1816 10.1371 10.213 10.0848 10.213C10.0534 10.213 10.0115 10.1973 9.96965 10.1606C9.76034 10.213 9.62951 10.4223 9.58242 10.7938C9.53009 11.1653 9.4673 11.4061 9.38357 11.5159L8.84458 10.4851C8.81319 10.5269 8.77132 10.5479 8.719 10.5479C8.60387 10.506 8.52015 10.4798 8.46782 10.4746C8.41026 10.4223 8.37886 10.37 8.37886 10.3124C8.37886 10.2601 8.39979 10.1868 8.44165 10.0926C8.48352 9.99842 8.50445 9.93039 8.50445 9.89899C8.54631 9.82573 8.60911 9.78387 8.69283 9.78387C8.72423 9.78387 8.76086 9.79433 8.79226 9.81003C8.90738 9.95132 9.0225 10.1397 9.13239 10.3752C9.21612 10.574 9.30508 10.7729 9.39404 10.9665C9.47776 10.6578 9.54056 10.4327 9.58242 10.2862C9.66614 10.0193 9.8022 9.84143 9.98535 9.7577C10.0429 9.76817 10.0848 9.7734 10.1109 9.78387C10.1842 9.84143 10.247 9.87806 10.2889 9.89899ZM3.69545 6.59706C3.68498 6.66508 3.64312 6.69648 3.56986 6.69648C3.47567 6.68078 3.41287 6.67032 3.37101 6.67032C3.27682 6.67032 3.23496 6.73311 3.23496 6.8587C3.23496 7.13604 3.21926 7.37675 3.19309 7.58607C3.1617 7.79538 3.0989 7.989 2.99948 8.16168C2.93145 8.08842 2.81633 7.87911 2.64887 7.53374C2.57561 7.38199 2.49189 7.25116 2.40816 7.14651C2.39246 7.1779 2.37677 7.21453 2.37153 7.24593C2.36107 7.27733 2.36107 7.31396 2.36107 7.34536C2.25118 7.30349 2.17792 7.2721 2.13605 7.24593C2.04186 7.1936 2 7.12558 2 7.03138C2 6.87963 2.01047 6.75927 2.0314 6.67555C2.05233 6.58659 2.09942 6.50286 2.17792 6.41914C2.37677 6.50286 2.54422 6.68078 2.68027 6.95812C2.79016 7.1936 2.90005 7.42385 3.00471 7.64886C3.05704 7.32442 3.0989 7.04185 3.13553 6.8116C3.17216 6.58136 3.26112 6.39821 3.40764 6.26739C3.50183 6.25169 3.58032 6.26215 3.64835 6.29878C3.71638 6.33541 3.74778 6.39297 3.74778 6.46623C3.74778 6.49763 3.73731 6.53949 3.71115 6.59182L3.69545 6.59706ZM6.51073 8.44426C6.427 8.41809 6.33281 8.32913 6.23339 8.16691C6.0921 7.94713 5.99267 7.81631 5.94558 7.76398L5.74673 8.21401C5.91418 9.49606 6.08687 10.7781 6.25955 12.0549C6.29095 12.3794 6.31188 12.7509 6.31188 13.1591C6.31188 13.6614 6.27525 14.1271 6.20722 14.5615C6.13396 14.9906 6.01884 15.4249 5.85139 15.8592C5.90372 15.4301 5.93511 15.1109 5.94558 14.8911C5.95604 14.6714 5.96651 14.3993 5.96651 14.0644C5.96651 13.9388 5.96651 13.8184 5.96128 13.6981C5.96128 13.5829 5.94035 13.3631 5.90372 13.0439L5.12402 7.05232C5.09785 6.95812 5.08739 6.8744 5.08739 6.79067C5.08739 6.59182 5.13972 6.40344 5.24437 6.22552C5.34903 6.04761 5.47985 5.90109 5.64207 5.7755C5.93511 6.66508 6.22815 7.54944 6.52119 8.43902L6.51073 8.44426ZM7.63056 13.5044C7.41078 13.5044 7.30612 13.3684 7.30612 13.1015C7.30612 12.6253 7.39508 12.1858 7.56777 11.7828C7.57823 11.8822 7.56777 11.9817 7.5573 12.0863C7.48927 12.4474 7.45788 12.641 7.45788 12.6619C7.45788 12.7614 7.47357 12.8503 7.49974 12.9341C7.53114 13.0125 7.58346 13.0806 7.65672 13.1434C7.70905 13.0492 7.75615 12.9602 7.80848 12.866C7.83464 12.9393 7.84511 13.0073 7.84511 13.0649C7.84511 13.2428 7.77185 13.3893 7.63056 13.5044ZM14.135 16.2674C14.1507 16.3825 14.1141 16.5029 14.0147 16.6232C13.9205 16.7436 13.8001 16.8482 13.6588 16.932C13.4076 16.932 13.1722 17.0105 12.9576 17.1727C12.764 17.0889 12.5808 17.0471 12.4029 17.0471C12.225 17.0471 12.0209 17.0942 11.8116 17.1831C11.6599 17.2512 11.4767 17.3558 11.2569 17.4971C10.8959 17.7378 10.629 17.9053 10.4511 17.989C10.1266 18.146 9.82313 18.2297 9.54579 18.2297C9.74464 18.1774 9.92779 18.1094 10.09 18.0204C10.2522 17.9314 10.5819 17.7117 11.0738 17.3611C11.3773 17.1517 11.6389 16.9948 11.8639 16.8953C12.1727 16.754 12.4657 16.6808 12.7431 16.6808C12.8373 16.775 12.9367 16.8168 13.0466 16.8168C13.1146 16.8168 13.1669 16.7959 13.2088 16.754C13.2507 16.6599 13.2978 16.5814 13.3553 16.5133C13.4076 16.4453 13.4704 16.393 13.5385 16.3511C13.5489 16.3825 13.5385 16.4296 13.5123 16.4819C13.4861 16.5343 13.4757 16.5657 13.4757 16.5761C13.5018 16.5918 13.5542 16.6023 13.6379 16.6023C13.7478 16.6023 13.8315 16.5866 13.8891 16.55L14.1298 16.2622L14.135 16.2674ZM15.2391 12.9916C15.3386 13.2166 15.3909 13.4521 15.3909 13.6928C15.3909 13.9335 15.349 14.1952 15.2653 14.4464C15.1816 14.6975 15.0665 14.9435 14.9147 15.1894C14.763 15.2993 14.5484 15.3516 14.2606 15.3516C14.203 15.3516 14.1402 15.3516 14.0722 15.3464C14.0042 15.3464 13.9152 15.3255 13.7949 15.3045C13.5699 15.2051 13.3972 15.0534 13.2821 14.8545C13.1408 15.0324 12.9995 15.1999 12.853 15.3673C12.675 15.5505 12.4971 15.6708 12.314 15.7179C12.2459 15.7179 12.1779 15.7179 12.1151 15.7232C12.0471 15.7232 11.9791 15.7284 11.9163 15.7284C11.7907 15.7284 11.686 15.7179 11.6023 15.697C11.5186 15.6761 11.4453 15.6342 11.3773 15.5662C11.2412 15.3412 11.1104 15.1162 10.9744 14.8859C10.7807 14.6347 10.5557 14.5091 10.2941 14.5091C9.77603 14.5091 9.25275 14.6609 8.72423 14.9592C8.36316 15.1685 7.91313 15.5139 7.36892 15.99C6.93459 16.3773 6.50026 16.7593 6.0764 17.1465C5.55835 17.5913 5.09786 17.9105 4.69492 18.1146C4.54317 18.1303 4.43328 18.1408 4.35479 18.1408C4.17687 18.1408 4.03035 18.1198 3.91523 18.0832C3.80011 18.0466 3.67452 17.9785 3.54893 17.8739C3.39717 17.7483 3.28205 17.6122 3.20356 17.4657C3.12507 17.3192 3.07274 17.1517 3.04657 16.9686C3.04657 16.5761 3.11983 16.1837 3.27159 15.786C3.32391 15.6604 3.63789 15.0743 4.2135 14.0277C4.17164 14.1533 4.03558 14.4516 3.8001 14.9173C3.69021 15.1423 3.60649 15.3307 3.54893 15.4825C3.49137 15.6342 3.43904 15.786 3.39717 15.9429C3.35531 16.0999 3.33438 16.2412 3.33438 16.3773C3.33438 16.618 3.39717 16.8692 3.52276 17.1203C3.76347 17.3611 4.03558 17.4866 4.32862 17.4866C4.40188 17.4866 4.46468 17.4866 4.50654 17.4762C4.89377 17.293 5.27054 17.0575 5.64731 16.775C5.76243 16.6808 6.34851 16.1627 7.39508 15.2156C8.05442 14.619 8.53585 14.2318 8.82889 14.0487C9.3888 13.6876 9.94872 13.5097 10.4982 13.5097C10.718 13.494 10.922 13.5463 11.1156 13.6667C11.3093 13.787 11.4453 13.9545 11.529 14.1638C11.529 14.3626 11.6442 14.5458 11.8796 14.7028C11.9791 14.7342 12.0837 14.7551 12.1936 14.7551C12.4867 14.7551 12.7797 14.6033 13.0727 14.3051C13.3082 14.0434 13.5437 13.7818 13.7739 13.5149C13.7582 13.5829 13.7425 13.651 13.7321 13.7242C13.7216 13.7975 13.7111 13.855 13.7111 13.9074C13.7111 14.0068 13.7321 14.0853 13.7687 14.1481C13.8053 14.2109 13.8786 14.2527 13.9885 14.2841C14.0984 14.3522 14.2501 14.3836 14.4542 14.3836C14.5641 14.3836 14.6478 14.3783 14.7106 14.3626C14.7734 14.3522 14.8414 14.3208 14.9199 14.2789L14.9095 13.5882L15.2496 12.9968L15.2391 12.9916ZM3.69545 9.0565C3.62219 9.29721 3.4652 9.50129 3.22972 9.65828C3.03087 9.79433 2.78493 9.88329 2.50235 9.93562L2.45003 9.89899C2.75353 9.71584 3.05704 9.53269 3.36578 9.34431C3.21402 9.30245 3.06227 9.28151 2.90005 9.28151C2.78493 9.28151 2.67504 9.29721 2.57561 9.33384C2.47619 9.36524 2.38723 9.4228 2.31397 9.49606C2.28781 9.42803 2.30351 9.36524 2.3506 9.30245C2.40293 9.23965 2.45003 9.17686 2.50235 9.1193C2.63841 9.00941 2.83726 8.95708 3.10413 8.95708C3.32391 8.95708 3.51753 8.98847 3.69545 9.0565ZM8.79226 17.0575C8.76086 17.0732 8.72423 17.1099 8.6876 17.157C8.65097 17.2093 8.59864 17.2826 8.53061 17.382C8.37363 17.314 8.2899 17.2041 8.2899 17.0419C8.2899 16.9581 8.33176 16.8221 8.41026 16.6285C8.48875 16.4348 8.53061 16.304 8.53061 16.2412C8.38933 16.4924 8.2899 16.6808 8.22711 16.8064C8.13292 17.0262 8.09105 17.2302 8.09105 17.4238C8.10152 17.45 8.12768 17.5076 8.17478 17.607C8.22187 17.7012 8.2899 17.7431 8.38409 17.7274C8.50968 17.675 8.60387 17.5913 8.6719 17.4657C8.73993 17.3401 8.78179 17.2041 8.79749 17.0628L8.79226 17.0575ZM5.16065 12.9027L4.44375 13.1643C4.2606 13.2062 4.09315 13.2271 3.94139 13.2271C3.71638 13.2271 3.50183 13.1905 3.29252 13.112C3.08844 13.0387 2.92098 12.9184 2.79539 12.7614C2.87912 12.6881 2.94715 12.6358 2.99424 12.6096C3.04657 12.5835 3.10937 12.5835 3.18263 12.6096C3.25065 12.6515 3.31345 12.7143 3.37101 12.798C3.40241 12.8399 3.4495 12.9027 3.50706 12.9864C3.62219 12.8503 3.74254 12.709 3.8629 12.5573C3.98325 12.4055 4.05652 12.2642 4.08268 12.1282L3.8315 11.8038C3.4652 11.8038 3.10937 11.9921 2.77446 12.3689C2.60701 12.5521 2.3663 12.9027 2.05756 13.4259C2.08896 13.5777 2.19362 13.6981 2.36107 13.7922C2.45526 13.8446 2.59655 13.9126 2.79016 14.0068C2.61225 14.1847 2.49712 14.3051 2.43956 14.3731C2.32967 14.4987 2.23548 14.6295 2.15175 14.7603H2.24071C2.43956 14.5772 2.69074 14.415 2.99424 14.2841C3.27159 14.1847 3.54893 14.0853 3.82104 13.9806C4.17164 13.8446 4.43328 13.719 4.60073 13.5934C4.84144 13.4155 5.02983 13.1852 5.15542 12.9027H5.16065Z" fill="white"/>
</svg>
