<svg width="24" height="24" viewBox="0 0 24 24" fill="none" xmlns="http://www.w3.org/2000/svg">
<path fill-rule="evenodd" clip-rule="evenodd" d="M21.9544 12.3467C21.9863 12.6524 22 12.9261 22 13.1679C22 13.4964 21.9726 13.8066 21.9133 14.094C21.854 14.3814 21.7582 14.6688 21.6168 14.9471C21.6396 14.8057 21.6578 14.646 21.6715 14.4635C21.6852 14.281 21.6898 14.1031 21.6898 13.9252C21.6898 13.469 21.6487 12.9443 21.5666 12.3558C21.4845 11.7673 21.4024 11.1652 21.3157 10.5493C21.229 9.9334 21.188 9.41789 21.188 8.99818C21.1378 8.94344 21.115 8.87956 21.115 8.80657C21.115 8.72902 21.1469 8.62866 21.2153 8.51461C21.302 8.39143 21.3568 8.3093 21.3887 8.25912C21.4206 8.3458 21.4982 8.52828 21.6259 8.81569C21.8084 9.23084 21.8996 9.55475 21.8996 9.79197C21.8996 9.86041 21.8996 9.91059 21.8905 9.94708C21.8723 9.92427 21.8403 9.86953 21.7993 9.78741C21.7582 9.70529 21.7126 9.64599 21.6624 9.6095L21.6168 9.68249C21.6168 10.0338 21.6578 10.4717 21.7445 10.9963C21.8723 11.781 21.9407 12.2327 21.9544 12.3467ZM18.8339 7.95804C18.7792 8.05384 18.7016 8.13595 18.5967 8.20438C18.5283 8.24544 18.4142 8.29562 18.2546 8.3458C18.0949 8.39598 17.958 8.4416 17.8485 8.47354C17.7391 8.50547 17.6387 8.54654 17.5474 8.59672C17.6159 8.49179 17.6934 8.41423 17.7892 8.35949C17.885 8.30474 17.9945 8.25913 18.1268 8.22263C18.2591 8.18613 18.3823 8.14964 18.5009 8.11315C18.6195 8.07665 18.729 8.02647 18.8339 7.95804ZM18.5328 8.76095C18.5511 8.81113 18.5693 8.87044 18.583 8.94799C18.5967 9.02555 18.6058 9.08486 18.6058 9.13504C18.6058 9.26278 18.5648 9.35859 18.4781 9.42702C18.4462 9.4407 18.4142 9.43613 18.3823 9.41332C18.3504 9.39051 18.3184 9.3677 18.2865 9.34489C18.2637 9.39963 18.2318 9.44982 18.1953 9.49088C18.1588 9.53194 18.1131 9.55475 18.0584 9.55475C17.9854 9.53651 17.9307 9.50913 17.8987 9.46807C17.8668 9.42702 17.8485 9.3814 17.8485 9.32665C17.8485 9.28559 17.8622 9.22172 17.885 9.13504C17.9398 8.948 17.9672 8.82938 17.9672 8.78832C17.9854 8.82025 17.9945 8.85676 17.9945 8.89782C17.9945 8.92975 17.99 8.97536 17.9763 9.04379C17.9626 9.11222 17.958 9.15785 17.958 9.18978C17.958 9.26734 17.9991 9.3084 18.0766 9.3084C18.1131 9.3084 18.1405 9.30839 18.1588 9.29927C18.2135 9.24908 18.2409 9.18978 18.2409 9.11679C18.2272 9.02555 18.2226 8.95711 18.2226 8.91606C18.2226 8.84763 18.2409 8.79744 18.2774 8.76095C18.3002 8.78376 18.3139 8.82482 18.3139 8.87957C18.3093 8.95712 18.3047 9.01643 18.3047 9.05293C18.3047 9.10311 18.3139 9.14416 18.3276 9.1761C18.3412 9.20803 18.3914 9.21716 18.4781 9.19891C18.4964 9.18067 18.5055 9.14873 18.5055 9.10767C18.5055 9.07117 18.5055 9.03923 18.4964 9.01642C18.4735 8.92518 18.4599 8.87501 18.4599 8.87045C18.4599 8.82026 18.4827 8.78376 18.5328 8.76095ZM17.219 9.12592L16.9361 9.66424L16.3431 9.37226C16.3932 9.23084 16.4297 9.13047 16.4617 9.07116C16.5164 8.96624 16.5849 8.875 16.6624 8.78832C16.8266 8.86131 16.9453 8.92062 17.0228 8.96168C17.1004 9.00274 17.1642 9.05749 17.219 9.12592ZM20.2117 12.6478C20.0839 12.0684 19.9608 11.4891 19.8376 10.9051C19.8239 10.8093 19.7965 10.6588 19.7464 10.458C19.6688 10.125 19.6277 9.86952 19.6277 9.70073C19.6277 9.65055 19.6323 9.57756 19.646 9.48176L20.0566 9.85584C20.0246 9.61405 19.9334 9.3312 19.7737 9.01642C19.687 8.8385 19.5593 8.57847 19.3814 8.23175C19.3768 8.24544 19.3175 8.33668 19.208 8.50548C19.135 8.61953 19.0985 8.71533 19.0985 8.78832C19.0985 8.85675 19.1214 8.9115 19.1624 8.96168C19.2172 9.41332 19.3038 9.95621 19.427 10.5949C19.4453 10.6861 19.5593 11.2199 19.7646 12.1916C19.8923 12.7801 19.9973 13.3184 20.0748 13.8066C19.9881 13.8932 19.9015 13.9708 19.8148 14.0392C19.7281 14.1077 19.6323 14.1624 19.5365 14.1943C19.4407 14.2263 19.3312 14.2582 19.2172 14.2856C19.1031 14.313 18.9936 14.3266 18.8978 14.3266C18.6925 14.3266 18.5192 14.2673 18.3869 14.1533C18.1314 13.8613 17.917 13.4781 17.7482 13.0037C17.6204 12.5885 17.4927 12.1734 17.365 11.7536C17.2053 11.2564 17.0319 10.8641 16.8358 10.5766C16.781 10.6268 16.74 10.6953 16.7172 10.7865C16.6943 10.9279 16.6715 11.0648 16.6533 11.2062C16.8221 11.4754 16.9681 11.7628 17.0912 12.073C17.1962 12.3285 17.2965 12.6341 17.3923 12.9854C17.3923 13.0903 17.3513 13.1998 17.2646 13.323C17.2235 13.3914 17.146 13.4872 17.0365 13.615C16.594 14.021 16.229 14.3084 15.9507 14.4726C15.5265 14.7281 15.1022 14.8558 14.6825 14.8558C14.6141 14.7965 14.5684 14.7327 14.5411 14.6642C14.5137 14.5958 14.5 14.5228 14.5 14.4361C14.5 14.3495 14.5228 14.2308 14.5639 14.0803C14.6505 13.7746 14.6916 13.5739 14.6916 13.4781C14.5821 13.6925 14.4954 13.9161 14.4316 14.1487C14.3677 14.3814 14.3358 14.6232 14.3358 14.865C14.3358 14.9927 14.3449 15.1204 14.3631 15.2482C14.3859 15.3394 14.4407 15.4079 14.5182 15.4535C14.5958 15.4991 14.7372 15.5356 14.938 15.5584C15.5036 15.3987 16.01 15.1432 16.4617 14.792C16.9681 14.3951 17.3193 13.948 17.5201 13.4416C17.7162 13.9891 17.885 14.3586 18.0265 14.5456C18.1679 14.7327 18.3549 14.8695 18.5876 14.9471C18.6925 14.9653 18.7838 14.9745 18.8704 14.9745C19.094 14.9745 19.3038 14.9243 19.4909 14.8239C19.6779 14.7235 19.8695 14.5867 20.0566 14.4088C20.2026 14.094 20.2755 13.7427 20.2755 13.3595C20.2755 13.2454 20.271 13.1268 20.2573 13.0037C20.2436 12.8805 20.2299 12.7619 20.2117 12.6478ZM15.3303 9.85584L15.0109 9.58212C15.0109 9.79654 15.0338 10.0611 15.0839 10.385C15.1934 11.115 15.2482 11.5803 15.2482 11.781C15.2801 11.9498 15.3029 12.1414 15.3212 12.3513C15.3394 12.5611 15.3485 12.7619 15.3485 12.958C15.3485 13.2728 15.3303 13.5465 15.2892 13.7792C15.2482 14.0119 15.1752 14.2445 15.0657 14.4818C15.0885 14.1943 15.1022 13.9936 15.1068 13.875C15.1068 13.7564 15.1068 13.6606 15.1068 13.5876C15.1068 12.9717 15.0429 12.2509 14.9106 11.4252C14.7783 10.5995 14.6551 9.81022 14.5319 9.06205C14.5 9.0073 14.4863 8.93887 14.4863 8.86131C14.4863 8.75183 14.5319 8.61953 14.6232 8.46899C14.6825 8.37318 14.7281 8.30475 14.7509 8.26825C14.7692 8.323 14.8558 8.49179 15.0064 8.7792C15.0748 8.9115 15.1204 9.02555 15.1524 9.11679L15.1706 9.08942C15.1478 9.16697 15.1706 9.28102 15.2345 9.43157C15.3029 9.58212 15.3349 9.69161 15.3349 9.7646C15.3349 9.80566 15.3349 9.83759 15.3257 9.85584H15.3303ZM13.2318 9.91059C13.2318 9.96078 13.2089 10.0246 13.1588 10.1113C13.1086 10.0748 13.0584 10.0566 13.0036 10.0566C12.9717 10.0566 12.9443 10.0703 12.9215 10.0931C12.8622 10.1798 12.8166 10.3212 12.7938 10.5219C12.771 10.7226 12.7345 10.8641 12.6843 10.9416C12.6524 10.9005 12.5976 10.7911 12.5109 10.6223C12.3832 10.3622 12.2509 10.2391 12.1095 10.2573C12.1095 10.1296 12.1414 10.0246 12.2007 9.94708C12.3057 9.96077 12.3969 10.0338 12.4836 10.1752C12.552 10.2984 12.6159 10.417 12.6843 10.531C12.7026 10.4991 12.7345 10.3987 12.7847 10.2299C12.8577 9.97445 12.9489 9.84672 13.0584 9.84672C13.1086 9.84672 13.1633 9.86953 13.2318 9.91059ZM13.4142 8.45073C12.99 8.56478 12.5246 8.71077 12.0274 8.87957C11.5849 9.03011 11.1286 9.19434 10.6588 9.37226C10.4261 9.4635 10.198 9.55475 9.96533 9.64599C9.68704 9.76004 9.51369 9.91516 9.45438 10.1113C10.0246 9.81935 10.6451 9.55018 11.3157 9.29927C11.8495 9.09854 12.4973 8.88412 13.25 8.66058C13.2865 8.62865 13.323 8.59671 13.3641 8.56022C13.4051 8.52372 13.4188 8.48723 13.4142 8.45073ZM10.0474 12C9.99726 12.1323 9.9562 12.2281 9.92427 12.2874C9.89234 12.3467 9.85128 12.3878 9.81022 12.4106C9.9927 12.1186 10.0839 11.7993 10.0839 11.4526C10.0839 11.3066 10.0657 11.1743 10.0338 11.0602C10.0018 10.9462 9.94252 10.8276 9.86496 10.7135C9.88321 10.6405 9.90146 10.5903 9.91515 10.5584C9.92883 10.5265 9.96077 10.5173 10.0018 10.5219C10.1296 10.7546 10.1934 11.0192 10.1934 11.3157C10.1934 11.5757 10.1432 11.8038 10.0474 12ZM11.9361 13.8066C11.7308 14.1213 11.4206 14.3586 11.0055 14.5182C10.636 14.6597 10.2162 14.7281 9.75547 14.7281C9.66423 14.7281 9.58212 14.7281 9.51369 14.7281C9.44526 14.7281 9.38139 14.719 9.32664 14.7144C8.95712 14.5183 8.70164 14.2172 8.56022 13.802C8.46442 13.51 8.41423 13.0858 8.41423 12.5338V12.1323C8.41423 12 8.41423 11.8631 8.42336 11.7308C8.42336 11.5985 8.42336 11.4662 8.41423 11.3385C8.40967 11.2108 8.39599 11.0876 8.37774 10.9644C8.30474 10.3303 8.23175 9.70074 8.15876 9.06661C8.19526 8.91606 8.23175 8.79744 8.26825 8.71533C8.30474 8.63321 8.36405 8.5511 8.44161 8.46442C8.53285 8.87956 8.58759 9.39508 8.60584 10.011C8.62409 10.6268 8.64234 11.2473 8.66515 11.8631C8.68796 12.479 8.74726 12.9991 8.84307 13.4188C8.91606 13.6378 9.06661 13.8294 9.29927 13.9936C9.51825 14.0529 9.74179 14.0849 9.97445 14.0849C10.2801 14.0849 10.5812 14.0347 10.8823 13.9298C11.1834 13.8248 11.4662 13.688 11.7263 13.5192C11.708 13.469 11.6715 13.3732 11.6122 13.2318C11.5529 13.0903 11.521 12.9808 11.5073 12.9078L11.6624 12.2874C11.7856 12.4471 11.8814 12.6113 11.9589 12.7892C12.0365 12.9672 12.073 13.1451 12.073 13.3276C12.073 13.51 12.0274 13.6788 11.9361 13.8111V13.8066ZM14.0712 12.2555C14.0712 12.1049 14.0301 11.9407 13.9434 11.7628C13.8568 11.5849 13.7518 11.4434 13.6241 11.3339C13.5511 11.3841 13.4918 11.4617 13.4462 11.5712C13.4005 11.6807 13.3595 11.7856 13.323 11.8905C13.4644 12.4516 13.6058 13.0082 13.7518 13.5693C13.3504 13.9161 12.8896 14.24 12.365 14.5365C12 14.7418 11.5027 14.9927 10.8777 15.2847C10.0155 15.6861 9.52737 15.9142 9.41788 15.969C9.86952 15.9006 10.3212 15.8367 10.7774 15.7683C11.3066 15.677 11.7217 15.5173 12.0182 15.2938C12.4015 15.0703 12.7847 14.8422 13.1679 14.6095C13.6013 14.3175 13.8568 13.9799 13.9343 13.5967C13.9891 13.4735 14.0164 13.3595 14.0164 13.25C14.0164 13.1542 13.9891 12.9991 13.9297 12.7847C13.8704 12.5703 13.8431 12.4106 13.8431 12.3011C13.8431 12.2418 13.8522 12.1779 13.8704 12.1095L14.0712 12.2555ZM13.6788 15.1296C13.6058 15.2345 13.5055 15.3303 13.3777 15.4215C13.2819 15.49 13.1542 15.563 12.9945 15.6405C12.812 15.7181 12.6752 15.7819 12.5839 15.823C12.4243 15.896 12.292 15.969 12.1825 16.042C12.2327 15.9644 12.3011 15.8823 12.3969 15.8047C12.4927 15.7272 12.6432 15.6314 12.8577 15.5219C13.0447 15.4352 13.1861 15.3759 13.2774 15.3394C13.437 15.271 13.5693 15.2026 13.6788 15.1296ZM5.98723 8.72446L5.9781 8.88869C5.94161 8.88869 5.90511 8.875 5.86405 8.84763C5.82299 8.82026 5.7865 8.79288 5.75 8.76095C5.69069 9.06661 5.62682 9.36771 5.56752 9.66424C5.51734 9.61406 5.4489 9.49088 5.36223 9.29471C5.27555 9.09855 5.19799 9.01186 5.12956 9.03467C5.03832 9.08486 4.96989 9.06661 4.91971 8.97993C4.91971 8.89325 4.92883 8.82026 4.94708 8.7564C4.96533 8.69253 5.00639 8.64234 5.06569 8.60584C5.19799 8.66059 5.30292 8.76551 5.37591 8.92062C5.4489 9.07573 5.51734 9.22628 5.58577 9.37226C5.59033 9.33576 5.60401 9.21259 5.62682 9.0073C5.64964 8.80201 5.69526 8.64234 5.76825 8.53285C5.87774 8.56478 5.95073 8.62866 5.98723 8.72446ZM6.36131 10.6131C6.3385 10.7089 6.29745 10.8093 6.2427 10.9142C6.16515 11.0465 6.10584 11.1469 6.06934 11.2062C5.86861 11.0785 5.67245 10.9462 5.47628 10.8139C5.46259 10.8321 5.40785 10.9279 5.31204 11.1058C5.27099 11.1788 5.22536 11.229 5.18431 11.261C5.11131 11.2564 5.0292 11.229 4.93339 11.1788C4.83759 11.1287 4.75091 11.083 4.66423 11.0329C4.68248 10.8184 4.78741 10.6268 4.97445 10.4489L5.44891 10.6496L5.82299 10.312C5.90055 10.3349 5.99635 10.385 6.1104 10.4535C6.22445 10.5219 6.30657 10.5766 6.36131 10.6131ZM9.49088 15.4033C9.49088 15.4033 9.43157 15.5128 9.32664 15.7135C9.25821 15.8412 9.17153 15.8914 9.06204 15.8686C8.91606 15.7956 8.77007 15.7272 8.62409 15.6588C8.55566 15.6588 8.51004 15.6998 8.4781 15.7865C8.45985 15.8184 8.43704 15.8504 8.40967 15.8869C8.3823 15.9234 8.35036 15.9599 8.31387 15.9964L7.7573 15.7409C7.77555 15.6679 7.80748 15.5903 7.8531 15.5128C7.89872 15.4352 7.98084 15.3303 8.10401 15.2026C8.22719 15.2527 8.32756 15.2938 8.41423 15.3257C8.50091 15.3577 8.57391 15.4033 8.64234 15.458L9.02555 15.1661L9.49088 15.4033ZM5.47628 12.5201C5.47628 12.5885 5.46259 12.6615 5.43522 12.7391C5.40785 12.8166 5.36679 12.8805 5.31204 12.9307C5.25274 12.9307 5.19343 12.9079 5.13869 12.8577C5.08394 12.8075 5.05201 12.7527 5.04745 12.6843C5.04745 12.5794 5.05201 12.4836 5.06569 12.3969C5.07938 12.3102 5.11588 12.2144 5.18431 12.1095C5.18431 12.1323 5.17974 12.1825 5.16606 12.2555C5.15237 12.3285 5.14781 12.3878 5.14781 12.4288C5.14781 12.5566 5.20255 12.6433 5.31204 12.6843C5.34854 12.6889 5.38047 12.6706 5.41241 12.6296C5.41697 12.625 5.43978 12.5885 5.47628 12.5201ZM7.76642 13.5693C7.75274 13.5009 7.71624 13.4553 7.64781 13.4325C7.54288 13.4188 7.44252 13.4051 7.34672 13.3869C7.01369 13.3869 6.59854 13.4553 6.10584 13.5967C5.40785 13.7974 4.98358 13.9115 4.83759 13.9389C4.69161 13.9662 4.55931 13.9891 4.43613 14.0027C4.31296 14.0164 4.18522 14.0256 4.0438 14.0256C3.77464 14.0256 3.51916 13.9891 3.27281 13.9115C3.02646 13.8339 2.78011 13.7108 2.53832 13.542C2.38777 13.3549 2.31022 13.1223 2.31022 12.8485C2.31022 12.7801 2.31022 12.7345 2.31934 12.7026C2.39234 12.5338 2.46533 12.3604 2.53832 12.1825C2.63412 11.9772 2.76186 11.8723 2.92153 11.8723C3.05383 11.7445 3.15876 11.6031 3.22719 11.448C3.29562 11.2929 3.32299 11.1378 3.30474 10.9781C3.28193 10.9735 3.26369 10.9781 3.25912 10.9963C3.25456 11.0146 3.24544 11.0329 3.23175 11.0511C3.18157 11.1378 3.13595 11.1971 3.09489 11.229C3.05383 11.261 2.99909 11.2655 2.93066 11.2427C2.85766 11.1469 2.80748 11.0602 2.78011 10.9872C2.75274 10.9142 2.73905 10.8276 2.73905 10.7226C2.97172 10.1798 3.19982 9.63686 3.43248 9.08942C3.26825 9.34033 3.10858 9.58669 2.94891 9.8376C2.61588 10.3668 2.44708 10.8139 2.44708 11.1788C2.44708 11.3933 2.48814 11.594 2.57482 11.781C2.44708 12.0502 2.31934 12.3285 2.19161 12.6159C2.06387 12.9033 2 13.1725 2 13.4142C2 13.615 2.0365 13.7974 2.10949 13.9617C2.29653 14.1989 2.52464 14.3677 2.78923 14.4635C3.05383 14.5593 3.35036 14.6095 3.67883 14.6095C3.89781 14.6095 4.11679 14.5913 4.34033 14.5593C4.56387 14.5274 4.87409 14.4498 5.27555 14.3358C5.62683 14.2445 5.98266 14.1487 6.33394 14.0529C6.55748 13.9982 6.7719 13.9708 6.97263 13.9708C7.07755 13.9708 7.18248 13.9799 7.29197 13.9982C7.20073 14.1624 7 14.3996 6.69434 14.7144C6.38869 15.0292 6.19252 15.2755 6.10584 15.458C6.42062 15.1706 6.73996 14.8878 7.05474 14.6004C7.43339 14.24 7.67062 13.8978 7.76642 13.5693Z" fill="white"/>
</svg>
