<svg width="24" height="24" viewBox="0 0 24 24" fill="none" xmlns="http://www.w3.org/2000/svg">
<path fill-rule="evenodd" clip-rule="evenodd" d="M21.996 9.17267L21.9397 9.24103L21.6421 8.81473C21.5978 8.87103 21.5616 8.97961 21.5375 9.13646C21.5134 9.29331 21.4973 9.46625 21.4973 9.65125C21.4973 10.0132 21.5295 10.4878 21.5898 11.079C21.6501 11.6701 21.7185 12.2814 21.7868 12.9129C21.7868 13.2587 21.7587 13.5805 21.7064 13.87C21.6501 14.1596 21.5496 14.4411 21.4008 14.7106C21.4008 14.0993 21.3726 13.3794 21.3123 12.5549C21.252 11.7305 21.1997 10.902 21.1434 10.0776C21.0871 9.2531 21.0629 8.53321 21.0629 7.91387L21.3807 7.383C21.4852 7.63234 21.5938 7.92995 21.7104 8.27179C21.7627 8.42462 21.8592 8.72625 22 9.16864L21.996 9.17267ZM18.2799 8.78657C18.3 8.85092 18.296 8.9193 18.2638 8.99571C18.2317 9.07212 18.2075 9.14049 18.1834 9.20483C18.107 9.25712 18.0145 9.28125 17.9139 9.28125C17.8415 9.16462 17.8094 9.02788 17.8094 8.86701C17.8094 8.72625 17.8335 8.59353 17.8818 8.47288C17.93 8.35223 17.9944 8.22353 18.0788 8.09484C18.0788 8.16723 18.0668 8.24365 18.0386 8.3281C17.9662 8.55332 17.934 8.69408 17.934 8.7544C17.934 8.85897 17.9622 8.94744 18.0225 9.02385C18.0949 9.04396 18.1472 9.01179 18.1834 8.93136C18.2196 8.85093 18.2518 8.80266 18.2839 8.7906L18.2799 8.78657ZM17.4112 9.70352C17.3871 9.77591 17.3429 9.85635 17.2865 9.94483C17.1981 10.0816 17.1056 10.2103 17.0171 10.339C16.9648 10.2666 16.8643 10.1821 16.7074 10.0776C16.5546 9.97299 16.45 9.90059 16.3977 9.85635C16.4742 9.7357 16.5466 9.62712 16.6149 9.53462C16.6833 9.44212 16.7637 9.35766 16.8602 9.27722C16.9889 9.36168 17.0855 9.42201 17.1498 9.46223C17.2584 9.53864 17.3469 9.61907 17.4112 9.70352ZM17.934 7.50364C17.2383 7.70875 16.5466 7.91386 15.8588 8.11093C14.9178 8.38842 14.23 8.59755 13.7917 8.73831C13.0718 8.97157 12.3921 9.19679 11.7567 9.42201C11.5878 9.49842 11.4913 9.6231 11.4591 9.78799C12.372 9.42603 13.3895 9.07212 14.5075 8.72625C15.5291 8.42462 16.5586 8.12299 17.5882 7.81734C17.6767 7.81734 17.7531 7.78115 17.8094 7.71278C17.8335 7.68865 17.8777 7.61626 17.934 7.49963V7.50364ZM13.9083 8.04256C13.9284 8.07474 13.9365 8.10288 13.9365 8.13103C13.9365 8.17527 13.9204 8.22755 13.8882 8.28386C13.8359 8.37233 13.8118 8.4206 13.8118 8.42865C13.7796 8.46082 13.7434 8.49298 13.7072 8.52114C13.667 8.54929 13.6308 8.5493 13.5906 8.51712C13.5504 8.46082 13.5262 8.40451 13.5182 8.34821C13.5102 8.2919 13.5021 8.23962 13.5021 8.18734C13.5021 8.06669 13.5262 7.94201 13.5745 7.82136C13.6228 7.70071 13.6871 7.58007 13.7635 7.46344C13.7635 7.51572 13.7394 7.60419 13.6952 7.73288C13.6509 7.86158 13.6268 7.9581 13.6268 8.02245C13.6268 8.12701 13.671 8.20343 13.7635 8.25571L13.9083 8.04256ZM12.7903 7.29049C12.738 7.3468 12.6777 7.40311 12.6133 7.45941C12.5449 7.51571 12.4685 7.57201 12.376 7.62831C12.2071 7.72484 11.809 7.87767 11.1776 8.09082C10.8558 8.19941 10.6105 8.29995 10.4456 8.38843C10.5421 8.26777 10.6507 8.16321 10.7754 8.07876C10.9604 7.95006 11.2741 7.82538 11.7124 7.70875C12.1508 7.5881 12.4524 7.48354 12.6214 7.38702L12.7943 7.29049H12.7903ZM14.5276 10.339C14.5478 10.3832 14.5437 10.4234 14.5236 10.4596C14.4995 10.4958 14.4754 10.528 14.4512 10.5602C14.3949 10.54 14.3266 10.5199 14.2502 10.4918C14.1737 10.4677 14.1134 10.4516 14.0652 10.4516C14.0008 10.5561 13.9485 10.7452 13.9043 11.0267C13.8641 11.3082 13.7877 11.5012 13.6791 11.6098C13.6147 11.5535 13.5464 11.4248 13.478 11.2318C13.3614 10.9302 13.1965 10.7894 12.9873 10.8055C12.9471 10.7653 12.931 10.717 12.931 10.6527C12.931 10.6004 12.9511 10.532 12.9954 10.4435C13.0356 10.355 13.0637 10.3068 13.0718 10.2907C13.0798 10.2746 13.104 10.2666 13.1402 10.2625C13.1764 10.2625 13.2005 10.2585 13.2125 10.2585C13.301 10.343 13.3815 10.4556 13.4458 10.5963C13.6187 10.9583 13.7233 11.1594 13.7555 11.2036C13.8198 10.8899 13.86 10.6969 13.8802 10.6325C13.9445 10.4274 14.033 10.2666 14.1496 10.1499C14.222 10.1379 14.2904 10.1499 14.3628 10.1982C14.3869 10.2103 14.4472 10.2545 14.5357 10.3349L14.5276 10.339ZM15.1148 12.5871C15.1148 12.6434 15.1028 12.7118 15.0826 12.7882C15.0585 12.8646 15.0304 12.941 14.9901 13.0094C14.9499 13.0295 14.9097 13.0375 14.8655 13.0375C14.8132 13.0375 14.777 13.0214 14.7488 12.9893C14.6765 12.8807 14.6443 12.76 14.6443 12.6313C14.6443 12.5469 14.6644 12.4463 14.7006 12.3337C14.7126 12.2895 14.785 12.1286 14.9137 11.8511C14.9137 11.9034 14.8896 11.9999 14.8373 12.1407C14.785 12.2814 14.7609 12.39 14.7609 12.4705C14.7609 12.5268 14.773 12.5831 14.7931 12.6354C14.8172 12.6876 14.8574 12.7319 14.9137 12.7721C14.97 12.7922 15.0103 12.7681 15.0304 12.6997C15.0505 12.6313 15.0625 12.5951 15.0706 12.5871H15.1188H15.1148ZM12.1428 12.4142C12.1629 12.4906 12.1589 12.567 12.1387 12.6354C12.1146 12.7077 12.0704 12.8123 11.998 12.9531C11.9779 12.9651 11.9497 12.9732 11.9095 12.9732C11.8532 12.9732 11.8009 12.9531 11.7607 12.9088C11.7205 12.8686 11.6883 12.8163 11.6682 12.76C11.6682 12.5871 11.6883 12.4142 11.7326 12.2493C11.7728 12.0804 11.8331 11.9195 11.9095 11.7667C11.9095 11.8189 11.8974 11.8873 11.8693 11.9798C11.813 12.193 11.7808 12.3297 11.7808 12.3941C11.7808 12.5227 11.821 12.6273 11.9055 12.7037C11.9296 12.7158 11.9538 12.7118 11.9779 12.6957C12.002 12.6756 12.0181 12.6635 12.0302 12.6555C12.0181 12.6112 12.0261 12.567 12.0543 12.5308C12.0824 12.4906 12.1106 12.4544 12.1347 12.4142H12.1428ZM8.86909 9.87647C8.88116 9.94886 8.86909 10.0373 8.82083 10.1459C8.78061 10.2183 8.75649 10.2666 8.74442 10.2987C8.72431 10.3188 8.69616 10.3309 8.65192 10.3309C8.6117 10.3309 8.57551 10.3349 8.55138 10.3349C8.44681 10.2143 8.39855 10.0695 8.39855 9.90863C8.39855 9.74777 8.45486 9.55875 8.57149 9.32147C8.65594 9.1606 8.71225 9.04799 8.74442 8.98364C8.74442 9.06006 8.7042 9.18875 8.62779 9.36973C8.55138 9.5507 8.51116 9.68342 8.51116 9.77592C8.51116 9.84027 8.5192 9.89656 8.53529 9.9408C8.55138 9.98504 8.58355 10.0333 8.63583 10.0856C8.69214 10.0977 8.74442 10.0695 8.78464 9.99309C8.82485 9.9207 8.85301 9.88048 8.86507 9.87244L8.86909 9.87647ZM19.6795 12.6474C19.6795 12.2292 19.6191 11.5616 19.4945 10.6406C19.3738 9.71962 19.3095 9.07212 19.3095 8.69005C19.3819 8.71418 19.4462 8.78255 19.5106 8.88711C19.5749 8.99168 19.6191 9.05603 19.6473 9.07614C19.6473 8.84288 19.5508 8.53723 19.3537 8.15115C19.1566 7.76506 19.0481 7.48354 19.032 7.31061L19.0119 7.33071L18.9435 7.27441C18.8349 7.47952 18.7464 7.69669 18.6821 7.9219C18.7987 8.54527 18.9153 9.19277 19.04 9.86038C19.1607 10.528 19.2572 11.1554 19.3296 11.7385C19.402 12.3217 19.4341 12.9249 19.4341 13.5483L19.3095 13.685C19.1084 13.8057 18.8872 13.9062 18.6419 13.9826C18.3965 14.059 18.1673 14.0993 17.9461 14.0993C17.6364 14.0993 17.367 14.0148 17.1337 13.8499L17.6083 13.5523C17.7772 13.3512 17.8576 13.0818 17.8576 12.7399C17.8576 12.571 17.8415 12.4182 17.8134 12.2774C17.7852 12.1367 17.741 11.9879 17.6847 11.835C17.6123 11.7305 17.548 11.6541 17.4917 11.6018C17.4072 11.5254 17.3227 11.4852 17.2302 11.4852C17.186 11.4852 17.1377 11.4932 17.0855 11.5133C16.8401 11.7828 16.6592 12.1005 16.5385 12.4584C16.4179 12.8204 16.3616 13.2064 16.3616 13.6167C15.7583 13.8821 15.147 14.0832 14.5357 14.2239C13.9244 14.3647 13.305 14.4371 12.6736 14.4371C12.3961 14.4371 12.1468 14.425 11.9216 14.3969C11.4269 14.3004 11.0448 14.1797 10.7834 14.0389C10.3893 13.8258 10.156 13.5322 10.0796 13.1501C10.0153 12.6595 9.97104 12.0602 9.94289 11.3484C9.91876 10.6366 9.89463 9.95689 9.87452 9.30538C9.83431 8.56538 9.76996 7.93397 9.68148 7.41516C9.593 7.48756 9.51257 7.58408 9.44822 7.71278C9.408 7.78919 9.36376 7.90984 9.31148 8.07071C9.45224 9.1445 9.54072 9.9569 9.57692 10.5039C9.61311 11.0508 9.6292 11.6018 9.6292 12.1527C9.58898 12.2613 9.5005 12.3538 9.35974 12.4222C9.13453 12.5308 9.0179 12.5911 9.01387 12.5951C8.93746 12.6675 8.86507 12.6997 8.80072 12.6997C8.73638 12.6997 8.68007 12.6474 8.62779 12.5469C8.49909 12.3016 8.41464 12.1688 8.37844 12.1527C8.25779 12.016 8.12105 11.9114 7.96823 11.831C7.8154 11.7506 7.66258 11.7104 7.50171 11.7104C7.4253 11.7104 7.34084 11.7184 7.25236 11.7385C7.00704 11.8913 6.8341 12.1005 6.72552 12.3619C6.62095 12.6233 6.56465 12.9048 6.56465 13.2064C6.67324 13.3754 6.80193 13.488 6.94671 13.5443C7.09149 13.6006 7.27247 13.6327 7.49367 13.6327C7.6103 13.6327 7.79127 13.6167 8.03258 13.5805C8.2779 13.5443 8.41062 13.5242 8.43877 13.5161C8.45888 13.5724 8.49507 13.6689 8.54333 13.7976C8.56746 13.8942 8.57551 13.9907 8.56344 14.0872C8.06073 14.5698 7.52584 14.968 6.9628 15.2857C6.39574 15.5994 5.79248 15.8326 5.149 15.9814C5.0002 16.0056 4.85944 16.0257 4.73075 16.0377C4.59803 16.0498 4.46531 16.0578 4.32857 16.0578C3.90227 16.0578 3.54434 15.9935 3.24673 15.8648C2.89282 15.712 2.62739 15.4666 2.45445 15.1328C2.34587 14.9157 2.28956 14.6864 2.28956 14.4492C2.28956 14.1918 2.36195 13.87 2.51076 13.4839C2.58717 13.2788 2.70782 12.9732 2.86869 12.567C2.72793 12.8646 2.58717 13.1582 2.44239 13.4558C2.14478 14.0912 2 14.6181 2 15.0283C2 15.3259 2.06435 15.5994 2.19304 15.8568C2.39815 16.2227 2.71989 16.4721 3.15825 16.6008C3.44782 16.6852 3.8701 16.7254 4.42107 16.7254H4.83531C5.59944 16.4801 6.19465 16.2629 6.62095 16.0699C7.32073 15.7562 7.85964 15.4023 8.23366 15.0082C8.69616 14.5175 8.92942 13.9545 8.92942 13.3191C9.09029 13.2225 9.21094 13.1421 9.29539 13.0777C9.42409 12.9812 9.5367 12.8807 9.63322 12.7801C9.64528 12.8767 9.67344 13.0697 9.70963 13.3552C9.74985 13.6408 9.80615 13.8861 9.88257 14.0952C10.1641 14.4894 10.5301 14.7709 10.9725 14.9438C11.3505 15.0926 11.809 15.165 12.3439 15.165C12.738 15.165 13.2005 15.1168 13.7354 15.0202C14.0893 14.9559 14.5156 14.8674 15.0183 14.7508C15.0505 14.7387 15.3722 14.614 15.9835 14.3848C16.1685 14.3124 16.3455 14.2601 16.5144 14.2199C16.6029 14.232 16.7356 14.3567 16.9085 14.598C17.1739 14.7588 17.4756 14.8393 17.8174 14.8393C18.0748 14.8393 18.3322 14.795 18.5856 14.7025C18.8389 14.614 19.0641 14.4974 19.2572 14.3567C19.4382 14.1234 19.5548 13.858 19.6151 13.5563C19.6553 13.3552 19.6714 13.0576 19.6714 12.6595L19.6795 12.6474ZM7.7591 9.3456L7.37301 9.94483C7.16791 9.81613 6.9628 9.68744 6.75367 9.55875C6.70139 9.59896 6.64911 9.6794 6.60084 9.80005C6.51237 10.0253 6.41987 10.1379 6.33139 10.1379C6.29922 10.1379 6.259 10.1298 6.20672 10.1097L5.77237 9.87647C5.82868 9.74777 5.889 9.61505 5.9453 9.48233C6.03378 9.32951 6.14639 9.26114 6.27509 9.28125L6.76574 9.53059L7.15182 8.95951C7.26041 8.99169 7.36497 9.04397 7.46551 9.12038C7.56606 9.19277 7.66258 9.26918 7.7591 9.3456ZM5.88498 7.71278L5.83672 7.95409C5.79248 7.93398 5.7402 7.91386 5.68791 7.88571C5.63161 7.86158 5.58737 7.84549 5.54715 7.84549C5.50292 7.84549 5.4627 7.85756 5.43052 7.88571C5.32596 8.00636 5.26161 8.21549 5.23346 8.50506C5.20531 8.79462 5.16509 8.99168 5.11281 9.09223C5.06053 9.04799 4.96803 8.87506 4.83129 8.56941C4.72672 8.34419 4.58999 8.23962 4.41705 8.25169C4.3326 8.24365 4.29238 8.18332 4.29238 8.06669C4.29238 8.02648 4.30042 7.96614 4.31651 7.88169C4.3326 7.79723 4.37281 7.73691 4.43716 7.69669C4.57792 7.72082 4.72672 7.91788 4.87955 8.28386C4.95194 8.45277 5.01227 8.5332 5.06455 8.5332C5.08868 8.5332 5.12085 8.51712 5.15303 8.48494C5.19324 8.20744 5.22542 8.0305 5.24955 7.95409C5.31389 7.76104 5.4265 7.6243 5.58737 7.54789C5.63965 7.54789 5.68791 7.56398 5.73618 7.60017C5.78444 7.63637 5.8327 7.66854 5.88498 7.70072V7.71278ZM5.5552 9.55472C5.52302 9.67537 5.35813 9.74374 5.05651 9.75581C4.7589 9.76787 4.5739 9.85635 4.50955 10.0172C4.61814 10.7653 4.72672 11.5053 4.83933 12.2453C4.83933 12.4946 4.82325 12.7198 4.78705 12.9129C4.75085 13.1059 4.68249 13.2949 4.57792 13.4839C4.64227 13.3432 4.68651 13.2064 4.71466 13.0737C4.73879 12.941 4.75488 12.8002 4.75488 12.6555C4.75488 12.5348 4.74683 12.4061 4.72672 12.2774C4.61814 11.6259 4.50955 10.9784 4.39694 10.3269C4.39694 10.158 4.41705 9.98906 4.45325 9.81613C4.50955 9.73167 4.59803 9.65929 4.71466 9.59897C4.83129 9.53864 4.94792 9.4944 5.06053 9.47027C5.00422 9.43005 4.95194 9.41396 4.9077 9.41396C4.83531 9.42602 4.77901 9.43809 4.73477 9.44211C4.68249 9.4944 4.64629 9.51451 4.6302 9.49842C4.64227 9.41397 4.6664 9.3456 4.70259 9.28527C4.73879 9.22897 4.79509 9.18473 4.87151 9.1606C5.01227 9.14854 5.14096 9.17669 5.25357 9.24908C5.36618 9.32147 5.46672 9.42201 5.55922 9.55875L5.5552 9.55472ZM3.64488 11.5053C3.64488 11.7385 3.61673 11.9476 3.5564 12.1407C3.5001 12.3337 3.39151 12.4946 3.23869 12.6233C3.18238 12.6434 3.1301 12.6434 3.08586 12.6233C3.04162 12.6032 2.96923 12.5509 2.87271 12.4705C2.80837 12.3337 2.76413 12.201 2.73597 12.0683C2.71184 11.9356 2.69576 11.7988 2.69576 11.6581C2.69576 11.3122 2.79228 10.9181 2.98532 10.4797C3.06173 10.3068 3.25075 9.9408 3.5564 9.37776C3.52423 9.49439 3.4438 9.69951 3.3151 9.99711C3.10999 10.4797 3.00543 10.8578 3.00543 11.1272C3.00543 11.2479 3.02152 11.3645 3.04967 11.4731C3.07782 11.5817 3.12608 11.6903 3.19043 11.8029C3.23065 11.8471 3.27488 11.8712 3.32717 11.8712C3.37141 11.8712 3.41564 11.8551 3.45184 11.8189C3.49206 11.7828 3.52423 11.7385 3.55238 11.6782C3.58053 11.6179 3.61271 11.5616 3.64488 11.5053ZM5.16911 14.1998C5.149 14.2521 5.06455 14.2802 4.91977 14.2883C4.77096 14.2963 4.69053 14.3567 4.67846 14.4733C4.6664 14.5899 4.63825 14.7226 4.58999 14.8674C4.52564 15.0403 4.4814 15.169 4.45325 15.2535C4.3889 15.2133 4.32455 15.0926 4.26423 14.8835C4.2039 14.6744 4.1114 14.5698 3.99075 14.5698C3.97064 14.5698 3.93042 14.5779 3.86608 14.5899C3.8339 14.5577 3.81782 14.5175 3.81782 14.4733C3.81782 14.4411 3.82586 14.3928 3.84195 14.3285C3.85803 14.2642 3.86608 14.228 3.86608 14.2239C3.89825 14.1355 3.95858 14.0872 4.05108 14.0872C4.12347 14.1596 4.18781 14.2682 4.24814 14.421C4.30847 14.5738 4.37683 14.7347 4.45727 14.9076C4.47738 14.8674 4.52966 14.7065 4.62216 14.417C4.68651 14.1998 4.77901 14.055 4.90368 13.9826C4.95998 13.9947 5.02433 14.0068 5.08868 14.0108C5.16509 14.0309 5.20531 14.0631 5.20531 14.1073C5.20531 14.1314 5.19727 14.1636 5.17716 14.2038L5.16911 14.1998ZM17.4675 12.9048C17.4675 13.0456 17.3469 13.1582 17.1096 13.2426C16.9568 13.2949 16.8562 13.3392 16.812 13.3794C16.7718 13.2748 16.7436 13.1702 16.7195 13.0576C16.6954 12.945 16.6873 12.8445 16.6873 12.752C16.6873 12.6434 16.7034 12.5429 16.7396 12.4544C16.7758 12.3659 16.8281 12.2855 16.9005 12.2211C17.0613 12.2211 17.19 12.3016 17.2865 12.4624C17.3268 12.5268 17.3871 12.6756 17.4715 12.9048H17.4675ZM8.0004 12.8364C7.92399 12.8606 7.82747 12.8767 7.71084 12.8767C7.59019 12.8767 7.46149 12.8566 7.32475 12.8123C7.18802 12.7721 7.08345 12.7158 7.00704 12.6514C6.99899 12.6072 7.00704 12.571 7.02312 12.5509C7.03921 12.5268 7.08345 12.4906 7.15182 12.4383C7.17193 12.4383 7.2041 12.4383 7.24834 12.4302C7.39714 12.4302 7.53388 12.4705 7.66258 12.5469C7.74703 12.5992 7.85964 12.6957 8.0004 12.8364Z" fill="white"/>
</svg>
