<svg width="24" height="24" viewBox="0 0 24 24" fill="none" xmlns="http://www.w3.org/2000/svg">
<path fill-rule="evenodd" clip-rule="evenodd" d="M22 8.83085C21.9453 8.79105 21.8706 8.69652 21.7811 8.55225C21.6915 8.40299 21.602 8.3035 21.5124 8.24877C21.5124 8.89554 21.5622 9.75124 21.6667 10.8159C21.7164 11.3433 21.7662 11.8607 21.8209 12.3781C21.8358 12.607 21.8507 12.8309 21.8706 13.0448C21.8856 13.2587 21.8955 13.4577 21.8955 13.6418C21.8955 14.1692 21.8557 14.6468 21.7711 15.0746C21.6866 15.5025 21.5373 15.9304 21.3234 16.3532C21.3781 16.209 21.4179 16.0348 21.4428 15.8259C21.4677 15.6169 21.4776 15.4229 21.4776 15.2388C21.4776 15.01 21.4776 14.8209 21.4677 14.6766C21.4378 14.0945 21.4179 13.7861 21.4179 13.7463L20.8209 7.75126C20.7811 7.56718 20.7612 7.40299 20.7612 7.24876C20.7612 7.02488 20.801 6.8209 20.8856 6.6418C20.9701 6.45772 21.1045 6.31343 21.2836 6.19901C21.2985 6.27861 21.4428 6.7015 21.7114 7.46269C21.9005 8.00996 22 8.46766 22 8.82587V8.83085ZM15.5771 7.31344C15.5771 7.4428 15.5572 7.56717 15.5124 7.69652C15.4677 7.82588 15.398 7.92538 15.3035 8.00498C15.209 8.03483 15.1343 8.02489 15.0846 7.97016C15.0348 7.91544 14.9851 7.83583 14.9353 7.73135C14.9254 7.6816 14.9254 7.6219 14.9254 7.5423C14.9254 7.35324 14.9652 7.15423 15.0448 6.94527C15.0846 6.83582 15.1343 6.7214 15.199 6.61195C15.1741 6.6816 15.1493 6.77612 15.1294 6.88558C15.1045 6.99503 15.0945 7.09454 15.0945 7.17414C15.0945 7.37315 15.1443 7.54229 15.2488 7.67662C15.3582 7.70149 15.4378 7.65175 15.4776 7.52737C15.5174 7.40299 15.5522 7.33333 15.5871 7.31841L15.5771 7.31344ZM13.7512 6.54727C13.7512 6.86568 13.607 7.13931 13.3234 7.37314C13.2289 7.38807 13.1343 7.37812 13.0498 7.34329C12.9602 7.30847 12.9104 7.25871 12.8955 7.19403C12.8806 7.12935 12.8706 7.05971 12.8706 6.9801C12.8706 6.85075 12.9005 6.72638 12.9552 6.59702C12.9801 6.5423 13.0448 6.42786 13.1592 6.24876C13.1592 6.26369 13.1443 6.33831 13.1194 6.46269C13.0896 6.59204 13.0796 6.68658 13.0796 6.75125C13.0796 6.83085 13.0945 6.89553 13.1194 6.95025C13.1493 7.00001 13.199 7.04478 13.2687 7.07463C13.3333 7.08458 13.3781 7.07464 13.4129 7.06469C13.4826 6.99504 13.5373 6.94031 13.5672 6.91046C13.5672 6.83086 13.5075 6.75125 13.3881 6.67165C13.2687 6.59205 13.209 6.5224 13.209 6.45772C13.209 6.403 13.2289 6.34827 13.2687 6.30349C13.3085 6.27364 13.3532 6.25374 13.398 6.25374C13.4627 6.25374 13.5274 6.28857 13.602 6.36319C13.6269 6.37812 13.6766 6.4428 13.7562 6.55225L13.7512 6.54727ZM15.4726 9.7612C15.4876 9.91045 15.4726 10.01 15.4229 10.0498C15.3731 10.0896 15.2935 10.1095 15.1741 10.1095C15.0398 10.1095 14.9453 10.1244 14.8856 10.1493C14.8308 10.1791 14.801 10.2687 14.801 10.4179C14.801 10.5672 14.791 10.6915 14.7662 10.7861C14.7413 10.8806 14.6567 11.1095 14.5174 11.4677C14.4776 11.4179 14.3582 11.1891 14.1592 10.7761C14.0249 10.4876 13.8458 10.3284 13.6219 10.2886C13.6368 10.199 13.6517 10.1144 13.6716 10.0249C13.7015 9.93533 13.7562 9.87563 13.8259 9.84578C13.995 9.95026 14.1393 10.1244 14.2687 10.3731C14.3632 10.597 14.4627 10.8159 14.5672 11.0299C14.6468 10.6617 14.7114 10.393 14.7562 10.2189C14.8507 9.89056 15.0199 9.73135 15.2587 9.73135C15.3134 9.73135 15.3881 9.7413 15.4726 9.76618V9.7612ZM10.6965 7.92041C10.6567 8.09454 10.6269 8.20399 10.6119 8.24379C10.5622 8.37314 10.5025 8.47264 10.4229 8.55225C10.3333 8.55225 10.2687 8.52239 10.2189 8.45772C10.1692 8.39304 10.1343 8.31345 10.1095 8.21892C10.0846 8.01992 10.1294 7.79105 10.2388 7.53732C10.2935 7.40796 10.3532 7.28359 10.4179 7.15424C10.3781 7.32339 10.3433 7.46269 10.3184 7.57214C10.2886 7.6816 10.2786 7.77115 10.2786 7.83583C10.2786 8.00996 10.3532 8.12936 10.5075 8.19404C10.5373 8.16916 10.5672 8.12438 10.592 8.04975C10.6169 7.97513 10.6517 7.93534 10.7015 7.92041H10.6965ZM15.0547 12.9851C15.0547 13.1144 15.0398 13.2239 15.0149 13.3184C14.9851 13.413 14.9254 13.4925 14.8308 13.5572C14.7413 13.5721 14.6716 13.5473 14.6219 13.4727C14.5721 13.403 14.5373 13.3134 14.5224 13.209C14.5224 13.0249 14.5373 12.8657 14.5622 12.7264C14.592 12.5871 14.6418 12.4577 14.7214 12.3383C14.7313 12.4179 14.7214 12.5224 14.6965 12.6567C14.6716 12.7861 14.6617 12.8657 14.6617 12.8906C14.6617 13.0249 14.7114 13.1294 14.806 13.199C14.8756 13.209 14.9303 13.1741 14.9652 13.1045C15 13.0348 15.0299 12.995 15.0547 12.9851ZM20.0697 14.1791C19.8856 13.995 19.6517 13.9055 19.3632 13.9055C18.9254 13.995 18.4876 14.0746 18.0498 14.1542C17.796 12.9702 17.6667 12.3682 17.6667 12.3532C17.602 11.9552 17.5721 11.5871 17.5721 11.2438C17.7214 11.1343 17.9602 10.9602 18.2786 10.7314C18.7562 10.3731 19.1244 10.0498 19.3881 9.76618L19.5174 9.89553C19.607 9.69653 19.6667 9.51743 19.7065 9.35325C19.7463 9.18907 19.7662 8.99504 19.7662 8.77613C19.7363 8.62688 19.6915 8.52239 19.6418 8.47264C19.592 8.42289 19.5224 8.39304 19.4428 8.39304C19.2736 8.43284 19.1343 8.51742 19.0149 8.64179C18.9751 8.68159 18.9154 8.76617 18.8358 8.89055C18.796 8.95523 18.7761 9.01494 18.7761 9.06966C18.7761 9.15921 18.8458 9.25871 18.9801 9.37812C19.1542 9.52737 19.2537 9.62189 19.2786 9.65174C19.0149 9.91543 18.7413 10.1542 18.4527 10.3682C18.204 10.5572 17.9104 10.7562 17.5672 10.9652C17.5124 10.5572 17.4527 10.1294 17.393 9.68159C17.3333 9.23383 17.3035 8.84577 17.3035 8.51742C17.3035 8.40796 17.3035 8.31344 17.3085 8.23881C17.3085 8.16418 17.3184 8.08458 17.3284 8.00498L17.8159 8.47264L17.8756 8.42289C17.8109 8.07463 17.6866 7.67662 17.4925 7.22886C17.4378 7.09951 17.2637 6.72638 16.9652 6.10449C16.8706 6.18409 16.7811 6.31344 16.7015 6.49752C16.6617 6.59204 16.592 6.7413 16.4975 6.94031C16.5224 7.16419 16.6318 7.88061 16.8308 9.08957C16.9751 9.96519 17.0448 10.6916 17.0448 11.2637C16.8308 11.393 16.6119 11.5224 16.393 11.6567C16.1741 11.791 15.9851 11.9154 15.8259 12.0249C16.2388 11.8906 16.6517 11.7513 17.0697 11.607L17.4876 14.3433C17.0398 14.5324 16.5821 14.6816 16.1144 14.7911C15.6468 14.9005 15.1692 14.9503 14.6915 14.9503C14.4229 14.9503 14.1642 14.9353 13.9254 14.9005C13.6866 14.8707 13.4527 14.811 13.2189 14.7314C13.0348 14.6219 12.8706 14.4726 12.7164 14.2935C12.5672 14.1144 12.4478 13.9304 12.3682 13.7363C12.2388 13.0597 12.1393 12.2637 12.0697 11.3483C12.0299 10.801 11.9801 9.97016 11.9254 8.86568C11.8706 7.7612 11.8159 6.96519 11.7711 6.47763C11.7015 6.5423 11.6318 6.61692 11.5721 6.71144C11.5124 6.801 11.4279 6.95025 11.3134 7.14926C11.3632 7.61194 11.398 8.17413 11.4279 8.84578C11.4577 9.51244 11.4876 10.1741 11.5224 10.8259C11.5572 11.4776 11.602 12.0547 11.6617 12.5572C11.6517 12.607 11.6517 12.6766 11.6517 12.7712C11.6517 12.9055 11.6866 13.2289 11.7612 13.7363C11.791 13.9602 11.8109 14.1443 11.8109 14.2985C11.8109 14.5075 11.7761 14.7015 11.7114 14.8905C11.6418 15.0796 11.5323 15.2438 11.3831 15.3881C11.1542 15.5721 10.8856 15.6617 10.5821 15.6617C10.4925 15.6617 10.393 15.6517 10.2836 15.6269C10.0547 15.5473 9.87562 15.3731 9.74627 15.0995C9.71642 15.0199 9.63682 14.7811 9.50746 14.3831L8.9602 7.43284L8.77115 6.28857C8.62687 6.41792 8.53234 6.55722 8.47761 6.70648C8.42786 6.85573 8.39801 7.03484 8.39801 7.23384C8.39801 7.36817 8.40796 7.52239 8.43284 7.69154C8.45771 7.8607 8.48756 8.06469 8.52736 8.29354L9.05473 13.9552C8.76119 14.2637 8.40299 14.5323 7.9801 14.7562C7.64677 14.9304 7.24378 15.0945 6.77612 15.2438C6.40299 15.3383 6.05473 15.4129 5.73134 15.4726C5.40796 15.5274 5.08955 15.5572 4.77114 15.5572C4.31841 15.5572 3.89552 15.4876 3.51244 15.3433C3.12438 15.199 2.81592 14.9652 2.57711 14.6368C2.46766 14.4478 2.40796 14.2488 2.40796 14.0398C2.62189 13.4179 2.8408 12.796 3.06468 12.1642C2.79602 12.6169 2.60697 12.9453 2.50249 13.1443C2.16915 13.796 2 14.408 2 14.9702C2.04975 15.3284 2.25373 15.6468 2.62189 15.9254C2.91542 16.1493 3.25871 16.3134 3.64677 16.4279C3.9403 16.4577 4.13433 16.4776 4.22388 16.4826C4.31343 16.4826 4.41791 16.4876 4.52736 16.4876C5.43284 16.4876 6.28856 16.3184 7.09453 15.9801C7.9005 15.6418 8.56219 15.1592 9.08955 14.5274C9.1592 15.0199 9.21891 15.3532 9.26866 15.5323C9.37314 15.8906 9.53234 16.1791 9.74627 16.393C9.8408 16.4876 9.94527 16.5522 10.0498 16.592C10.1542 16.6319 10.2886 16.6468 10.4478 16.6468C10.5821 16.6468 10.7114 16.6368 10.8308 16.612C11.0846 16.5622 11.3085 16.4229 11.4975 16.194C11.7114 15.8209 11.9303 15.4428 12.1542 15.0597C12.4428 15.3483 12.7612 15.5473 13.1194 15.6667C13.4776 15.7861 13.8706 15.8458 14.3035 15.8458C14.8308 15.8458 15.5572 15.7313 16.4876 15.4975C17.1343 15.3383 17.5274 15.2438 17.6716 15.209C17.7662 15.5373 17.8408 15.7562 17.9005 15.8756C18.01 16.1045 18.1692 16.2886 18.3682 16.4229C18.4726 16.4925 18.5771 16.5473 18.6915 16.5821C18.801 16.6169 18.9204 16.6368 19.0398 16.6368C19.1741 16.6368 19.2935 16.607 19.398 16.5523C19.7662 16.01 19.9503 15.7313 19.9602 15.7164C20.1493 15.3831 20.2488 15.0746 20.2488 14.796C20.2488 14.5821 20.1841 14.3682 20.0597 14.1642L20.0697 14.1791ZM7.42289 7.70647C7.42289 7.85572 7.40796 7.98011 7.37314 8.07464C7.34328 8.16916 7.27363 8.24379 7.16916 8.30349C7.11443 8.30349 7.0597 8.28856 7.01493 8.25373C6.96517 8.22388 6.91045 8.14429 6.84577 8.02488C6.83582 7.99503 6.83582 7.96021 6.83582 7.93035V7.86071C6.83582 7.70151 6.8607 7.55225 6.90547 7.41792C6.91542 7.39304 7.02488 7.17413 7.23881 6.7612C7.14925 7.02985 7.06468 7.30349 6.97512 7.57214C6.97512 7.70647 7.0199 7.82091 7.10448 7.92041C7.13433 7.93534 7.19403 7.94528 7.28358 7.94528C7.32338 7.86568 7.36816 7.78607 7.41294 7.70647H7.42289ZM17.2736 16.398C17.2985 16.5025 17.2836 16.602 17.2388 16.6965C17.1592 16.801 17.1095 16.8756 17.0846 16.9254C17.0299 16.9353 16.9453 16.9254 16.8259 16.9005C16.7114 16.8756 16.6468 16.8657 16.6269 16.8657C16.5473 16.8657 16.4876 16.8856 16.4428 16.9204C16.398 16.9552 16.3632 17.0348 16.3433 17.1542C16.0398 17.3831 15.6567 17.5572 15.1841 17.6667C15.0796 17.6916 14.6517 17.7662 13.8955 17.8955C14.4925 17.6965 14.9353 17.5473 15.2189 17.4428C15.7264 17.2587 16.1443 17.0498 16.4627 16.811C16.4627 16.6667 16.5124 16.5323 16.6119 16.398C16.7114 16.2687 16.8308 16.1692 16.9751 16.1045C17.0647 16.0896 17.1343 16.1343 17.1841 16.2338C17.2338 16.3383 17.2637 16.393 17.2736 16.403V16.398ZM10.7761 12.9254C10.7761 13.1144 10.7711 13.2338 10.7562 13.2786C10.7463 13.3234 10.7114 13.3781 10.6567 13.4378C10.6468 13.5274 10.5871 13.5672 10.4677 13.5672C10.4129 13.5672 10.3682 13.5523 10.3383 13.5174C10.2736 13.4478 10.2289 13.3682 10.209 13.2836C10.1841 13.199 10.1741 13.1095 10.1741 13.0149C10.1741 12.8707 10.2139 12.6965 10.2935 12.4876C10.2935 12.4776 10.3632 12.3184 10.5075 12C10.5174 12.0796 10.4975 12.1791 10.4577 12.2985C10.3632 12.602 10.3134 12.7861 10.3134 12.8458C10.3134 12.9901 10.3781 13.1095 10.5025 13.204C10.5821 13.2189 10.6418 13.1791 10.6766 13.0846C10.7114 12.9901 10.7463 12.9353 10.7761 12.9154V12.9254ZM4.93532 7.02488C4.92537 7.10448 4.91542 7.16916 4.90547 7.21394C4.89552 7.26369 4.8607 7.30349 4.80597 7.34329C4.73632 7.28857 4.65672 7.25871 4.57711 7.25871C4.54726 7.25871 4.51244 7.26867 4.48259 7.28359C4.35323 7.81096 4.23383 8.32836 4.11443 8.84578C4.07463 8.80597 3.9602 8.57712 3.76617 8.16419C3.63184 7.87065 3.43781 7.72141 3.19403 7.72141C3.12438 7.67166 3.08458 7.60698 3.08458 7.51743C3.08458 7.46767 3.10448 7.39802 3.1393 7.30846C3.17413 7.21891 3.19403 7.14926 3.19403 7.10946C3.22388 7.06966 3.26368 7.04976 3.30348 7.04976C3.34328 7.04976 3.40796 7.07961 3.49254 7.14429C3.61194 7.27862 3.72637 7.47265 3.8408 7.73135C3.93035 7.94031 4.0199 8.13931 4.11443 8.33832C4.16418 8.08459 4.20896 7.82588 4.25871 7.5622C4.32836 7.26867 4.44776 7.04479 4.61692 6.89554C4.74627 6.87066 4.85075 6.91046 4.9403 7.01493L4.93532 7.02488ZM6.78607 9.37812C6.69652 9.59205 6.64179 9.72638 6.61692 9.78608C6.49751 10.0498 6.36318 10.2537 6.20896 10.393V10.2239C6.11443 10.209 6.01493 10.2438 5.91542 10.3383C5.81592 10.4279 5.72139 10.5174 5.63682 10.607C5.68657 10.7562 5.87065 10.8358 6.19901 10.8358C6.52736 10.8358 6.68657 10.9055 6.68657 11.0498C6.68657 11.1194 6.66169 11.2189 6.61692 11.3383C6.44279 11.6269 6.30846 11.8408 6.20896 11.9851C6.03483 12.2388 5.85075 12.4229 5.66169 12.5323C5.53234 12.5323 5.34826 12.5722 5.10448 12.6468C4.8607 12.7214 4.68657 12.7612 4.57214 12.7612C4.52239 12.7512 4.48259 12.7513 4.45274 12.7513C4.79602 12.6169 5.08458 12.4826 5.32338 12.3582C5.61194 12.209 5.87562 12.0199 6.12438 11.796C6.0597 11.7313 5.89055 11.6965 5.61194 11.6866C5.33333 11.6766 5.15423 11.597 5.07463 11.4378C5.16915 10.9901 5.37811 10.5622 5.70149 10.1542C6.02488 9.74628 6.38309 9.48758 6.7811 9.3831L6.78607 9.37812ZM4.45771 10.8358C4.42786 10.9801 4.39303 11.0896 4.36318 11.1692C4.30846 11.2985 4.23383 11.398 4.14925 11.4677C4.0796 11.4677 4.00995 11.4279 3.94527 11.3483C3.91542 11.3085 3.89055 11.2637 3.8806 11.2189C3.87065 11.1692 3.8607 11.0995 3.8607 11.005C3.8607 10.8308 3.88557 10.6716 3.93035 10.5274C3.9801 10.3831 4.04975 10.2139 4.14428 10.0149C4.14428 10.0647 4.12438 10.1791 4.0796 10.3682C4.03483 10.5572 4.01493 10.6816 4.01493 10.7463C4.01493 10.9204 4.0796 11.0547 4.20398 11.1393C4.22886 11.1244 4.26368 11.0746 4.30348 10.9901C4.34826 10.9055 4.39801 10.8557 4.45274 10.8408L4.45771 10.8358ZM7.39304 12.9851C7.39304 12.9851 7.35323 13.0746 7.32836 13.1891C7.29851 13.2985 7.26368 13.3582 7.21393 13.3582C7.17413 13.3582 7.13433 13.3433 7.09453 13.3085C6.90547 13.3085 6.7811 13.4876 6.72637 13.8408C6.67164 14.194 6.61692 14.408 6.55721 14.4776C6.47761 14.3881 6.40299 14.2687 6.33831 14.1144C6.26866 13.9602 6.20896 13.811 6.15423 13.6667C6.12438 13.6667 6.07463 13.6866 6.00498 13.7214C5.93532 13.7562 5.8806 13.7662 5.83085 13.7513C5.77612 13.6866 5.74627 13.607 5.74627 13.5124C5.74627 13.4328 5.76119 13.3582 5.78607 13.2935C5.81592 13.2239 5.85572 13.1542 5.91045 13.0746C6.0995 13.0746 6.23881 13.199 6.32836 13.4428C6.46269 13.801 6.55224 14.005 6.59204 14.0498C6.61692 13.995 6.65174 13.7811 6.70647 13.4179C6.75622 13.0498 6.87562 12.8706 7.0597 12.8706C7.15423 12.8706 7.26866 12.9105 7.39304 12.9901V12.9851ZM19.5124 9.07961L19.4876 9.29353C19.3134 9.17413 19.209 9.09951 19.1791 9.06468C19.1244 9.00996 19.0746 8.95026 19.0348 8.88559C19.0348 8.84578 19.0647 8.81593 19.1194 8.801C19.1741 8.78608 19.209 8.76618 19.2289 8.7413C19.3234 8.71643 19.398 8.73136 19.4428 8.77613C19.4925 8.82588 19.5124 8.92537 19.5124 9.07463V9.07961ZM19.7413 15.5274C19.6915 15.592 19.6418 15.6318 19.5821 15.6517C19.5224 15.6716 19.4428 15.6816 19.3483 15.6816C19.2289 15.6816 19.1343 15.6667 19.0597 15.6319C18.8905 15.5672 18.7413 15.4776 18.607 15.3582C18.4726 15.2388 18.3831 15.0995 18.3433 14.9403C18.5025 14.8508 18.6866 14.811 18.8905 14.811C19.1841 14.811 19.4129 14.8955 19.5721 15.0597C19.7164 15.1692 19.7711 15.3284 19.7413 15.5274ZM16.995 16.592L16.7811 16.4826C16.8308 16.4428 16.8706 16.4428 16.9104 16.4826L16.995 16.592Z" fill="white"/>
</svg>
