<svg width="24" height="24" viewBox="0 0 24 24" fill="none" xmlns="http://www.w3.org/2000/svg">
<path fill-rule="evenodd" clip-rule="evenodd" d="M21.5345 6.35476C21.4828 6.53061 21.3587 6.67025 21.1621 6.77886C21.1311 6.79438 20.9501 6.87196 20.6294 7.00126C19.0675 7.50811 17.5573 8.08737 16.1091 8.74938C16.4557 8.38734 17.0142 8.05634 17.7848 7.75636C18.1572 7.61672 18.5348 7.47708 18.9123 7.33226C19.7812 7.0116 20.6553 6.68059 21.5294 6.34959L21.5345 6.35476ZM20.7174 9.38553C20.6087 9.56138 20.5312 9.68551 20.4794 9.76826C20.3812 9.92342 20.2881 10.0527 20.2053 10.151C19.9881 10.0269 19.8278 9.93376 19.7192 9.87687C19.5226 9.76309 19.4037 9.6493 19.3726 9.54069L19.9571 9.00798L20.7122 9.38036L20.7174 9.38553ZM15.3437 8.27873C15.4161 8.06151 15.4575 7.83911 15.4575 7.60638C15.4575 7.22365 15.3644 6.89264 15.1833 6.60301L15.3437 6.31855C15.4264 6.41682 15.4885 6.54612 15.5299 6.69611C15.5712 6.85127 15.5919 7.00643 15.5919 7.16159C15.5919 7.55983 15.5092 7.93221 15.3437 8.27873ZM21.6638 14.1127C21.8862 13.7507 22 13.3421 22 12.8973C22 12.4111 21.8707 11.9974 21.6173 11.656C21.2966 11.2009 20.8415 10.9733 20.2622 10.9733C19.9312 11.1233 19.6726 11.3664 19.4813 11.7077C19.3416 11.956 19.233 12.2973 19.1606 12.7266C19.3261 13.1093 19.7295 13.3162 20.376 13.3576C21.0225 13.399 21.4001 13.4507 21.519 13.5076C21.55 13.6317 21.5397 13.73 21.4828 13.8076C21.1673 13.9058 20.6501 14.0817 19.9312 14.3299C19.3209 14.5213 18.7624 14.6558 18.2555 14.7385C17.9348 14.7902 17.6142 14.8109 17.2987 14.8109C16.8591 14.8109 16.4557 14.7592 16.0833 14.6506C15.7109 14.542 15.3592 14.3661 15.0282 14.1179C14.723 13.5697 14.5213 12.8766 14.4334 12.0336C14.3817 11.5526 14.3558 10.8027 14.3455 9.77343C14.3351 8.74938 14.2938 7.97358 14.211 7.45122C14.1852 7.25985 14.1593 7.0478 14.1386 6.82024C14.1128 6.5875 14.0662 6.47371 13.9886 6.47371C13.9317 6.47371 13.8542 6.55129 13.7662 6.71162C13.699 6.79438 13.6576 6.86678 13.6369 6.93402C13.6162 7.00125 13.6059 7.08918 13.6059 7.19262C13.6059 7.29606 13.6576 7.55466 13.7559 7.94773C13.7973 8.11323 13.8179 8.25287 13.8179 8.37183C13.9162 8.90971 13.9783 9.68551 14.0041 10.6992C14.03 11.7129 14.0662 12.4318 14.1179 12.8508C14.211 13.6783 14.392 14.361 14.6662 14.8989C14.9144 15.1781 15.2196 15.3798 15.5764 15.4936C15.9385 15.6074 16.3315 15.6695 16.7608 15.6695C16.9832 15.6695 17.1746 15.6643 17.3297 15.6488C17.4849 15.6384 17.7176 15.6074 18.0228 15.5557C18.6693 15.4005 19.3158 15.235 19.9726 15.0695C20.7277 14.8523 21.2914 14.5368 21.6742 14.1127H21.6638ZM18.1883 10.2027L18.0745 10.4613C18.0331 10.4613 17.971 10.4406 17.8883 10.3941C17.8055 10.3475 17.7486 10.3268 17.7124 10.3268C17.6452 10.3268 17.5987 10.3579 17.578 10.4251C17.5521 10.4923 17.5159 10.6785 17.4642 10.9837C17.4125 11.2888 17.3452 11.5112 17.2521 11.656C17.097 11.3509 16.9366 11.0457 16.7815 10.7354C16.7711 10.7871 16.7505 10.8078 16.7091 10.8078C16.6005 10.7509 16.5281 10.7147 16.4867 10.7096C16.4039 10.6785 16.3626 10.6165 16.3626 10.5234C16.3626 10.4665 16.3729 10.4199 16.3884 10.3889L16.4246 10.3165C16.466 10.2596 16.5022 10.2079 16.5281 10.1665C16.5591 10.1251 16.585 10.0941 16.6108 10.0682C16.7349 10.1355 16.8487 10.2441 16.9573 10.4044C16.9832 10.4458 17.097 10.694 17.3039 11.1492C17.3452 10.9526 17.3918 10.7458 17.4383 10.5389C17.5107 10.3061 17.6297 10.1303 17.7848 10.0062C17.8573 9.99065 17.9297 10.001 17.9917 10.0372C18.0538 10.0734 18.1159 10.1303 18.1831 10.2027H18.1883ZM20.1122 16.2487C20.0967 16.3884 20.0657 16.5073 20.0243 16.6004C19.9829 16.6935 19.9054 16.7608 19.7864 16.7918C19.714 16.8228 19.6468 16.8176 19.595 16.7711C19.5433 16.7246 19.5019 16.6728 19.4813 16.6108C19.4606 16.5487 19.4502 16.4711 19.4502 16.3832C19.4502 16.228 19.4761 16.0832 19.533 15.9488C19.5847 15.8143 19.6674 15.6746 19.7761 15.5247C19.745 15.6384 19.714 15.7522 19.683 15.866C19.6519 15.9798 19.6416 16.0677 19.6416 16.1349C19.6416 16.2746 19.6881 16.3935 19.7761 16.4815C19.8485 16.5073 19.9157 16.4711 19.9726 16.3832C20.0295 16.2901 20.076 16.2487 20.1071 16.2487H20.1122ZM11.6302 6.70128L11.5578 7.02194C11.5164 7.00643 11.444 6.95988 11.3406 6.89264C11.2371 6.82024 11.1544 6.7892 11.0871 6.7892C11.0613 6.87196 11.0406 7.09435 11.0199 7.45122C10.9992 7.81325 10.901 8.04082 10.7303 8.13909C10.6734 8.05634 10.6165 7.9529 10.5544 7.82877C10.4303 7.54948 10.332 7.36329 10.2545 7.28054L10.1665 7.39432C10.0993 7.35295 10.0321 7.31157 9.97 7.2702C9.87691 7.20296 9.82519 7.13573 9.80967 7.05815C9.8407 6.92367 9.87691 6.81506 9.91311 6.72714C9.94932 6.63922 10.0166 6.6237 10.12 6.67025C10.2958 6.79438 10.451 6.99608 10.5906 7.28054C10.6993 7.49776 10.7665 7.63741 10.8027 7.70464C10.813 7.67361 10.8544 7.45122 10.9268 7.0478C10.9785 6.77369 11.0613 6.57198 11.1854 6.43751C11.2682 6.43751 11.3457 6.4582 11.4233 6.50475C11.4957 6.55129 11.5681 6.61336 11.6354 6.69611L11.6302 6.70128ZM16.5591 12.7473C16.5849 12.799 16.5953 12.8456 16.5953 12.8973C16.5953 12.9697 16.5798 13.0369 16.5539 13.0887C16.5229 13.1404 16.466 13.218 16.3729 13.3162C16.2746 13.3473 16.1867 13.3421 16.1195 13.2955C16.0471 13.249 16.0005 13.1921 15.9695 13.1197C15.9385 13.0473 15.9281 12.9749 15.9281 12.8921C15.9281 12.737 15.9798 12.5611 16.0884 12.3698C16.1453 12.2767 16.2022 12.1836 16.2643 12.0853C16.2798 12.1525 16.2539 12.2611 16.1919 12.406C16.1246 12.5559 16.0936 12.6594 16.0936 12.7163C16.0936 12.8249 16.1505 12.9128 16.2695 12.9749C16.3626 13.0059 16.4246 12.9749 16.466 12.887C16.5074 12.7939 16.5384 12.7473 16.5643 12.737L16.5591 12.7473ZM10.0424 10.3372C10.0683 10.4199 10.0579 10.5078 10.0166 10.5958C9.97518 10.6889 9.92346 10.7716 9.85622 10.8544C9.78898 10.8647 9.73209 10.844 9.69072 10.7923C9.64417 10.7406 9.59762 10.6785 9.5459 10.5958C9.52004 10.5027 9.5097 10.4199 9.5097 10.3475C9.5097 10.2493 9.52521 10.1406 9.56142 10.032C9.59245 9.91824 9.639 9.78895 9.69589 9.63896C9.69589 9.68033 9.68555 9.75274 9.67003 9.86135C9.65451 9.96997 9.64417 10.0527 9.64417 10.1096C9.64417 10.3061 9.72175 10.4406 9.88208 10.5079L10.0424 10.332V10.3372ZM5.46005 6.46337C5.47556 6.55647 5.4497 6.65991 5.38764 6.78403C5.31523 6.72714 5.248 6.69611 5.1911 6.69611C5.14973 6.69611 5.1187 6.71162 5.09284 6.74783C5.02043 6.87196 4.96354 7.12538 4.93251 7.51328C4.90147 7.89601 4.81872 8.13909 4.68425 8.23736L4.2136 7.3064C4.18774 7.33743 4.16188 7.35812 4.12568 7.35812C4.08947 7.35812 4.04293 7.33743 3.98086 7.30123C3.9188 7.26503 3.86191 7.22882 3.81536 7.19779C3.76364 7.14607 3.74295 7.08401 3.74295 7.0116C3.74295 6.97022 3.7533 6.91333 3.77399 6.8461C3.79467 6.77369 3.81019 6.72197 3.81536 6.68059C3.86708 6.5875 3.9188 6.54612 3.97569 6.54612C4.00672 6.54612 4.05327 6.56681 4.11016 6.60819C4.21877 6.72197 4.31187 6.86678 4.39462 7.04263C4.51875 7.3064 4.64288 7.57017 4.767 7.8236C4.79286 7.55983 4.81872 7.29088 4.85493 7.01677C4.91182 6.72714 5.03077 6.50992 5.21696 6.35993C5.36695 6.34441 5.4497 6.38062 5.46522 6.47371L5.46005 6.46337ZM12.918 13.1921C12.8456 13.0369 12.7008 12.8766 12.4939 12.7215C12.3853 12.6387 12.2302 12.5249 12.0233 12.3801C11.8164 12.2353 11.6199 12.1318 11.4388 12.0698C11.2578 12.0077 11.0716 11.9767 10.8803 11.9767C10.3165 11.9767 9.62865 12.318 8.82183 13.0059C8.17016 13.5593 7.81329 13.8593 7.7564 13.9007C7.82881 13.6007 7.88053 13.3317 7.91156 13.0938C7.94259 12.8559 7.95294 12.5663 7.95294 12.2353C7.95294 12.0025 7.94259 11.775 7.92708 11.5526C7.91156 11.3302 7.89087 11.113 7.87018 10.9061C7.8495 10.6992 7.78743 10.2958 7.68917 9.70102C7.55469 8.88902 7.49263 8.26322 7.49263 7.81325L7.61676 7.53914L8.015 8.07185C8.015 7.7305 7.93742 7.36846 7.77709 6.98057C7.70985 6.82541 7.54435 6.4944 7.28058 5.98755L6.93406 6.59784C6.95992 6.8461 7.04267 7.54431 7.18231 8.69766C7.19783 8.83213 7.28058 9.53552 7.43057 10.8078C7.52883 11.6612 7.60641 12.3698 7.65296 12.9283C7.64262 12.9801 7.64262 13.0576 7.64262 13.1662C7.64262 13.249 7.64262 13.3835 7.65296 13.5645C7.65296 13.7196 7.63227 13.8645 7.59607 13.9938C7.55987 14.1231 7.49263 14.2213 7.38919 14.2989C7.20817 14.5316 6.89268 14.7385 6.44789 14.9195C5.89966 15.1419 5.53763 15.323 5.36178 15.4574C5.18593 15.5919 4.92733 15.835 4.58598 16.1815C4.34807 16.4194 4.18257 16.5849 4.09982 16.6677C3.85156 16.9056 3.61365 17.0866 3.39126 17.2055C3.16886 17.3245 2.92061 17.3711 2.6465 17.3504C2.50685 17.2521 2.40341 17.1435 2.34135 17.0297C2.27929 16.9159 2.24825 16.7918 2.24825 16.6573C2.44479 16.0936 2.6465 15.5298 2.84303 14.9713C2.56892 15.4109 2.41893 15.6591 2.38273 15.716C2.12413 16.197 2 16.6573 2 17.0918C2.05172 17.309 2.13447 17.5003 2.24825 17.6762C2.36204 17.852 2.5172 17.9607 2.70856 18.0124C3.17404 18.0124 3.71192 17.6917 4.33256 17.0556C4.7308 16.6418 5.02043 16.3729 5.20145 16.2487C5.63072 15.9591 6.1324 15.7367 6.70132 15.5764C7.13059 15.4626 7.67882 15.3695 8.34083 15.3023C8.71321 15.2712 9.2511 15.2195 9.94932 15.1471C10.6475 15.0747 11.2216 14.9713 11.6664 14.8316C12.0233 14.7644 12.3129 14.5523 12.5353 14.2006C12.7008 13.942 12.8249 13.611 12.9077 13.1973L12.918 13.1921ZM5.43419 8.82179C5.43419 9.02867 5.26351 9.14245 4.92733 9.16831C4.58598 9.19417 4.38428 9.28209 4.31704 9.42691C4.33256 9.56138 4.38945 9.83032 4.47737 10.2337C4.51875 10.4303 4.54978 10.6009 4.57564 10.7406C4.6015 10.8802 4.61702 10.9837 4.62736 11.0509C4.6377 11.1181 4.6377 11.2216 4.6377 11.3612C4.6377 11.5991 4.6015 11.8422 4.52392 12.0801C4.5653 11.9405 4.58598 11.8112 4.58598 11.6974C4.58598 11.5009 4.54461 11.2681 4.45669 11.0044C4.36876 10.7406 4.29118 10.4923 4.22912 10.2648C4.16188 10.0372 4.13085 9.85101 4.13085 9.71137C4.13085 9.50449 4.18257 9.32864 4.29118 9.18383C4.39979 9.03901 4.58598 8.91488 4.84975 8.81662C4.79803 8.75972 4.7308 8.72869 4.6377 8.72869C4.55495 8.72869 4.48254 8.74938 4.41531 8.79076L4.3429 8.94074C4.31187 8.89937 4.3067 8.83213 4.33773 8.74421C4.36876 8.65111 4.40497 8.56836 4.45669 8.49595C4.53944 8.43906 4.62736 8.40803 4.71528 8.40803C4.82389 8.40803 4.94802 8.45458 5.08767 8.5425C5.14456 8.57353 5.26351 8.66663 5.43419 8.81662V8.82179ZM12.1009 15.7833C11.925 15.9384 11.7233 16.0781 11.4906 16.1918C11.3354 16.2746 11.1078 16.3677 10.8079 16.4763C10.5079 16.5849 10.2855 16.6625 10.1355 16.7142C9.83553 16.8228 9.60797 16.9159 9.45281 16.9987C9.42177 16.9573 9.43212 16.9004 9.48901 16.8332C9.5459 16.7608 9.57693 16.7142 9.57693 16.6884C10.1407 16.4711 10.5596 16.316 10.8441 16.2177C11.3923 16.0212 11.8061 15.8764 12.0957 15.7833H12.1009ZM6.30308 12.4422C6.30308 12.5353 6.28756 12.6284 6.2617 12.7266C6.23067 12.8249 6.19447 12.9232 6.14275 13.0266C6.04448 13.0783 5.94621 13.0369 5.85829 12.9025C5.81691 12.8456 5.78071 12.7835 5.7445 12.7163C5.72899 12.6594 5.71865 12.5715 5.71865 12.4577C5.71865 12.2094 5.79105 11.9663 5.9307 11.7233C5.87898 11.8474 5.85829 11.987 5.85829 12.1474C5.85829 12.3077 5.88932 12.4473 5.95656 12.5818C6.01345 12.6335 6.07551 12.6749 6.14275 12.7163C6.15826 12.7008 6.17895 12.6542 6.19964 12.5715C6.22033 12.4939 6.25653 12.4473 6.30308 12.4422ZM3.81019 13.4248C3.72744 13.6886 3.64469 13.9524 3.56193 14.2058C3.44815 14.5058 3.29299 14.7127 3.10163 14.8264C2.94647 14.8264 2.80166 14.7799 2.66718 14.692C2.53271 14.5989 2.43962 14.4799 2.38273 14.3299C2.34135 14.1075 2.32066 13.9058 2.32066 13.7352C2.32066 13.28 2.43445 12.7732 2.65684 12.2198C2.71373 12.0801 2.93613 11.6147 3.31368 10.8285C3.11715 11.5319 2.92061 12.2301 2.72925 12.9283C2.72925 13.1249 2.76028 13.3007 2.82234 13.4507C2.88441 13.6007 3.00336 13.7507 3.17404 13.8955C3.23093 13.9265 3.28265 13.9472 3.32402 13.9472C3.40678 13.9472 3.4947 13.8593 3.58262 13.6886C3.67572 13.5128 3.74813 13.43 3.80502 13.43L3.81019 13.4248ZM21.0639 12.4422C20.9501 12.4577 20.8622 12.468 20.8053 12.468C20.4019 12.468 20.0347 12.3284 19.714 12.0439C19.7036 11.9922 19.7192 11.956 19.7554 11.925C19.7916 11.8939 19.8588 11.8629 19.9467 11.8319C20.1691 11.8319 20.376 11.8836 20.5622 11.9922C20.7484 12.1008 20.9139 12.2508 21.0639 12.437V12.4422ZM12.3026 13.8696C11.6974 14.061 10.963 14.2006 10.0941 14.2937C9.59762 14.3455 8.84251 14.4075 7.82364 14.4903C8.12361 14.2161 8.42358 13.942 8.72873 13.6731C9.34937 13.1352 9.91311 12.8663 10.4148 12.8663C10.6113 12.8663 10.8234 12.9025 11.0458 12.9801C11.3664 13.1456 11.594 13.2697 11.7285 13.3524C11.9612 13.5024 12.1526 13.6731 12.2974 13.8748L12.3026 13.8696Z" fill="white"/>
</svg>
