<svg width="24" height="24" viewBox="0 0 24 24" fill="none" xmlns="http://www.w3.org/2000/svg">
<path fill-rule="evenodd" clip-rule="evenodd" d="M22 8.17915C21.9037 8.12567 21.8128 8.00803 21.7166 7.82621C21.6203 7.64439 21.5508 7.5214 21.4973 7.46257C21.4973 7.89038 21.5241 8.4091 21.5722 9.01337C21.6898 10.4412 21.754 11.3556 21.754 11.762V12.6711C21.754 13.3663 21.7219 13.9225 21.6631 14.3503C21.5775 14.9492 21.4171 15.4733 21.1872 15.9171C21.262 15.7139 21.3209 15.4893 21.3583 15.2433C21.3957 14.9973 21.4171 14.7406 21.4171 14.4679C21.4171 14.1685 21.3957 13.7353 21.3476 13.1738C21.2995 12.607 21.2781 12.2326 21.2781 12.0455C21.0535 10.2754 20.8342 8.5 20.6096 6.71926C20.6845 6.54813 20.7701 6.37166 20.8556 6.19519C20.9679 5.99733 21.1016 5.86899 21.2513 5.81017C21.4973 6.60696 21.7487 7.3984 21.9947 8.1845L22 8.17915ZM16.3904 5.86899C16.3155 6.02407 16.1979 6.15241 16.0428 6.25402C15.8877 6.35562 15.7112 6.44653 15.5187 6.51605C15.3209 6.59092 15.1283 6.65509 14.9412 6.71391C14.754 6.78878 14.5829 6.88503 14.4278 6.99733C14.5027 6.82621 14.6257 6.68182 14.7861 6.55883C14.9037 6.47327 15.0749 6.38771 15.2995 6.30214C15.5561 6.22728 15.7433 6.16311 15.8663 6.12033C16.0909 6.04546 16.262 5.9599 16.3904 5.86364V5.86899ZM15.8128 9.2968L15.3262 10.1417L14.5936 9.56418L15.107 8.78343C15.2193 8.8369 15.3529 8.91177 15.5134 9.01872C15.6738 9.12567 15.7701 9.21658 15.8128 9.2968ZM12.8984 7.31819C12.8824 7.45723 12.8075 7.53209 12.6791 7.54813C12.5775 7.5214 12.3904 7.58557 12.1283 7.74065C11.984 7.82621 11.877 7.86899 11.8075 7.86899C11.6898 7.86899 11.5936 7.77273 11.5241 7.57487C11.5134 7.54279 11.5134 7.49466 11.5134 7.43583C11.5134 7.36631 11.5401 7.24867 11.5882 7.07755C11.615 6.99198 11.631 6.91712 11.6417 6.85829L11.6952 6.83156C11.7219 6.90108 11.7326 6.9599 11.7326 7.01338C11.7219 7.11498 11.7219 7.18985 11.7219 7.23263C11.7219 7.36097 11.7754 7.44653 11.8877 7.48931C11.9465 7.47862 12.0107 7.46792 12.0749 7.44653C12.139 7.42514 12.1765 7.3877 12.1818 7.33958C12.1925 7.2861 12.1925 7.22193 12.1925 7.14707C12.1818 7.01872 12.1818 6.92781 12.1818 6.87969C12.1818 6.80482 12.1925 6.7353 12.2086 6.68182C12.2246 6.62835 12.262 6.57487 12.3262 6.53209C12.3369 6.56418 12.3476 6.67113 12.3583 6.8476C12.369 7.02407 12.4225 7.13637 12.508 7.18984H12.7112C12.7219 7.13637 12.7219 7.08289 12.7112 7.01872C12.7005 6.95455 12.6952 6.88503 12.6845 6.80482C12.6845 6.70321 12.7112 6.623 12.7594 6.55883C12.877 6.71926 12.9412 6.91177 12.9412 7.12567C12.9412 7.19519 12.9305 7.26471 12.9037 7.32888L12.8984 7.31819ZM13.6578 7.71391C13.4438 7.85295 13.2139 7.97594 12.9626 8.08824C12.8075 8.15776 12.5775 8.25402 12.2781 8.38236C11.9733 8.5107 11.7166 8.63904 11.508 8.77273C11.2995 8.90642 11.1123 9.0722 10.9519 9.26471C11.4385 9.04011 11.9251 8.81551 12.4171 8.58557C12.7005 8.45722 12.9305 8.33423 13.1123 8.21124C13.3369 8.06685 13.5187 7.90108 13.6631 7.70856L13.6578 7.71391ZM20.4973 12.6283C20.3957 12.5321 20.2941 12.4733 20.2032 12.4465C20.107 12.4198 19.9893 12.4091 19.8449 12.4091C19.7166 12.4091 19.5401 12.4305 19.3209 12.4733C18.8824 12.5588 18.615 12.6016 18.5134 12.6016L18.0374 10.1364C18.0802 10.1043 18.2567 9.95455 18.5615 9.69787C18.9305 9.3984 19.1872 9.13102 19.3316 8.89038C19.4438 8.9599 19.5294 8.99198 19.5882 8.99198C19.631 8.99198 19.6524 8.96525 19.6524 8.91712C19.6524 8.89038 19.6417 8.82086 19.615 8.71391C19.5882 8.60161 19.5775 8.51605 19.5775 8.45722C19.5775 8.33958 19.6203 8.25402 19.7059 8.20054C19.7219 8.11498 19.7326 8.04011 19.7326 7.98129C19.7326 7.82086 19.6791 7.69787 19.5668 7.623C19.4118 7.623 19.2781 7.67113 19.1551 7.76204C19.0374 7.85829 18.9305 7.97594 18.8449 8.12033C18.8128 8.16311 18.7914 8.21658 18.7914 8.27541C18.7914 8.32888 18.8342 8.39305 18.9198 8.47861C19.0909 8.64974 19.1872 8.76739 19.2139 8.8369C19.0321 9.0615 18.8342 9.25936 18.615 9.44118C18.3957 9.623 18.1872 9.75134 17.9947 9.8369C17.9947 9.67648 17.9358 9.27006 17.8128 8.62835C17.7594 8.35562 17.738 8.12033 17.738 7.92246C17.738 7.79412 17.7487 7.65509 17.7754 7.5107L18.262 7.93316C18.2086 7.77273 18.107 7.49466 17.9519 7.10963C17.6791 6.42514 17.5134 5.98664 17.4492 5.78878C17.3048 5.97594 17.2032 6.17915 17.1497 6.39305C17.0963 6.60696 17.0642 6.8476 17.0642 7.10963C17.0642 7.45188 17.139 7.97594 17.2834 8.67648C17.4278 9.37701 17.5027 9.88503 17.5027 10.2059C17.246 10.361 17.0214 10.5107 16.8235 10.6551C16.5668 10.8423 16.3636 11.0241 16.2086 11.1952C16.4813 11.0134 16.754 10.8316 17.0321 10.6444C17.2139 10.5321 17.385 10.4626 17.5455 10.4412L17.9412 12.7513C17.7594 12.8262 17.5668 12.8904 17.3636 12.9385C17.1604 12.9866 16.9572 13.008 16.7594 13.008C16.4706 13.008 16.1979 12.9546 15.9519 12.8529C15.8128 12.7674 15.7166 12.6444 15.6524 12.4893C15.5882 12.3289 15.5562 12.1578 15.5562 11.9706C15.3743 12.0989 15.2513 12.2326 15.1765 12.377C15.1016 12.516 15.0695 12.6765 15.0695 12.8583C15.0695 13.0134 15.0856 13.1471 15.1123 13.2701C15.1444 13.3877 15.2032 13.5802 15.2995 13.8369C15.4438 14.238 15.5187 14.5321 15.5187 14.7086C14.8503 15.2326 14.0695 15.7086 13.1711 16.1471C12.5989 16.4198 11.7647 16.7781 10.6684 17.2112C9.47059 17.6818 8.63636 18.0294 8.16578 18.2487C8.39037 18.2219 8.58824 18.1845 8.76471 18.1417C8.94118 18.0936 9.13904 18.0294 9.36364 17.9439C10.492 17.7834 11.3583 17.6123 11.9572 17.4412C12.8877 17.1845 13.6791 16.8209 14.3316 16.3503C14.8342 16.1043 15.246 15.7674 15.5562 15.3449C15.8663 14.9225 16.0588 14.4412 16.1283 13.9011C16.3529 13.9011 16.6845 13.8583 17.1337 13.7781C17.5829 13.6979 17.9198 13.6551 18.139 13.6551C18.2353 14.0562 18.3529 14.377 18.4973 14.6177C18.6952 14.9439 18.9572 15.1631 19.2781 15.2861C19.3209 15.3021 19.385 15.3128 19.4706 15.3128C19.6684 15.3128 19.8289 15.2433 19.9572 15.1096C20.1123 14.8262 20.2781 14.5214 20.4492 14.2005C20.6257 13.8743 20.7112 13.5856 20.7112 13.3289C20.7112 13.0882 20.6364 12.8583 20.492 12.6337L20.4973 12.6283ZM18.0321 15.8636C17.9358 15.8636 17.8128 15.8583 17.6524 15.8423C17.492 15.8316 17.4118 15.8209 17.4011 15.8209C17.2995 15.8209 17.2086 15.8316 17.123 15.8476C17.0428 15.8636 16.9626 15.9011 16.8877 15.9492C16.8877 16.0882 16.9037 16.2326 16.9412 16.3877C16.9733 16.5428 17.0053 16.6872 17.0374 16.8155C17.0695 16.9492 17.0909 17.0562 17.1016 17.1364C17.1123 17.2166 17.123 17.2968 17.123 17.3717C17.123 17.5 17.0963 17.639 17.0481 17.7834C17.0642 17.6283 17.0374 17.4358 16.9733 17.2059C16.7861 16.607 16.6898 16.2647 16.6898 16.1791C16.6898 16.0241 16.7219 15.8957 16.7914 15.7941C16.861 15.6925 16.9893 15.5963 17.1765 15.5107C17.2193 15.5214 17.2727 15.5107 17.3369 15.4893C17.4011 15.4679 17.4492 15.4572 17.4866 15.4572C17.4438 15.3877 17.3583 15.3556 17.2299 15.3556C17.1016 15.3717 17.016 15.3824 16.9733 15.3824C16.9733 15.2968 17 15.2273 17.0588 15.1685C17.1123 15.115 17.1925 15.0615 17.2941 15.0187C17.3797 14.992 17.4492 14.9866 17.4973 15.008C17.5508 15.0241 17.6791 15.0989 17.893 15.2273C18.0481 15.3396 18.123 15.4733 18.123 15.639C18.123 15.7246 18.0909 15.7995 18.0321 15.8583V15.8636ZM7.58289 7.91712C7.58289 8.05616 7.5615 8.17915 7.51872 8.29145C7.47594 8.40375 7.40107 8.48931 7.29946 8.54813C7.2246 8.56418 7.14973 8.54813 7.08021 8.49466C7.01069 8.41979 6.96257 8.36097 6.94118 8.32888C6.93048 8.2861 6.93048 8.22193 6.93048 8.13637C6.93048 7.93851 6.98931 7.71926 7.1123 7.46792C7.17112 7.33958 7.23529 7.21123 7.30481 7.08289C7.30481 7.15776 7.27273 7.2861 7.20321 7.46792C7.13369 7.64974 7.1016 7.77808 7.1016 7.86364C7.1016 8.00803 7.17112 8.12033 7.30481 8.19519C7.36364 8.19519 7.41711 8.15241 7.45989 8.0615C7.50267 7.97059 7.54545 7.92247 7.58823 7.91177L7.58289 7.91712ZM12.6524 10.6016C12.5134 10.4144 12.4171 10.2914 12.3583 10.2433C12.2299 10.131 12.0909 10.0829 11.9465 10.1043C11.5615 10.2914 11.2781 10.6497 11.1016 11.1685C11.0053 11.4519 10.9198 11.9225 10.8342 12.5802C10.8021 12.5909 10.7487 12.5909 10.6791 12.5909C10.508 12.5909 10.3529 12.5374 10.2086 12.4251C10.0695 12.3128 9.94118 12.1738 9.82888 12.0027C9.63102 11.4358 9.49733 10.7674 9.41711 9.98664C9.39037 9.74599 9.35294 9.10428 9.31016 8.05615C9.26203 7.00803 9.19786 6.23797 9.1123 5.75134C8.99465 5.89573 8.8984 6.04011 8.83422 6.18985C8.77005 6.33423 8.72727 6.50001 8.71123 6.67648C8.71123 7.15776 8.75401 7.81551 8.83422 8.66043C8.91444 9.50535 8.99465 10.3289 9.06952 11.131C9.14438 11.9332 9.18717 12.6497 9.18717 13.2754C8.40107 14.0134 7.6738 14.5642 7.00535 14.9332C6.14973 15.4037 5.29412 15.639 4.4385 15.639C4.38503 15.639 4.32086 15.639 4.24064 15.6337C4.16043 15.6337 4.06417 15.623 3.95187 15.6123C3.58289 15.5107 3.25668 15.3342 2.97861 15.0882C2.6631 14.8048 2.47594 14.4893 2.42781 14.1364C2.41711 14.0936 2.41711 14.0348 2.41711 13.9546C2.41711 13.7139 2.47059 13.4733 2.57219 13.238C2.64706 13.0562 2.77005 12.8423 2.93048 12.5856C2.94652 12.6016 3.01604 12.6123 3.13369 12.6123C3.37433 12.484 3.5508 12.2968 3.6738 12.0562C3.79144 11.8102 3.85562 11.5481 3.85562 11.2647C3.85562 11.1685 3.85561 11.0989 3.84492 11.0455C3.81283 11.0562 3.75936 11.1203 3.69519 11.238C3.63102 11.3556 3.58289 11.4358 3.54545 11.4679C3.47594 11.5428 3.40107 11.5856 3.31551 11.5856C3.28342 11.5856 3.24064 11.5749 3.18717 11.5481C3.05882 11.4091 2.96791 11.2647 2.90909 11.1096C2.85561 10.9546 2.82353 10.7888 2.82353 10.607C2.82353 10.3503 2.90909 9.98664 3.07487 9.5107C3.24064 9.03476 3.3369 8.74065 3.36364 8.61765C3.07487 9.04546 2.85027 9.45188 2.69519 9.8369C2.49733 10.3235 2.40107 10.7888 2.40107 11.2219C2.40107 11.7193 2.53476 12.1685 2.79679 12.5695C2.41176 13.2861 2.19786 13.7139 2.15508 13.8422C2.05348 14.1257 2 14.4037 2 14.6765C2 14.9492 2.06952 15.2219 2.20321 15.5C2.42781 15.8583 2.71658 16.1417 3.07487 16.3556C3.43316 16.5642 3.81818 16.6711 4.22995 16.6711H4.41176C4.48663 16.6711 4.5615 16.6604 4.63102 16.6444C5.70053 16.5 6.67914 16.1203 7.57219 15.5C8.52406 14.8423 9.18182 14.0294 9.5508 13.0615L9.92513 13.4572C10.0374 13.5267 10.1337 13.5695 10.2139 13.5909C10.2941 13.6123 10.4064 13.623 10.5401 13.623C10.7807 13.623 11.0428 13.5535 11.3209 13.4198C11.4385 13.361 11.6791 13.2219 12.0374 13.008C12.2781 12.7781 12.4652 12.516 12.5936 12.2326C12.7273 11.9439 12.7914 11.6497 12.7914 11.3396C12.7914 11.2273 12.7807 11.1043 12.754 10.9599C12.7273 10.8209 12.6952 10.7032 12.6524 10.607V10.6016ZM7.54545 11.8102C7.54545 11.9973 7.51872 12.1578 7.47059 12.2914C7.41711 12.4251 7.32086 12.5214 7.17647 12.5802C7.09091 12.5802 7.02674 12.5374 6.97861 12.4519C6.93048 12.3663 6.8877 12.2701 6.84492 12.1578C6.84492 11.7888 6.92513 11.4626 7.09091 11.1685C7.06417 11.254 7.04278 11.3449 7.02139 11.4465C7 11.5428 6.9893 11.639 6.9893 11.7246C6.9893 11.9385 7.06417 12.0989 7.20856 12.2112C7.30481 12.2112 7.36898 12.1631 7.41176 12.0722C7.4385 11.9866 7.46524 11.9011 7.50267 11.8155H7.55615L7.54545 11.8102ZM5.85027 6.34493C5.85027 6.38771 5.83422 6.43583 5.79679 6.49466C5.76471 6.54813 5.73262 6.60161 5.70588 6.65509C5.6738 6.64439 5.62032 6.61765 5.54545 6.56418C5.47059 6.5107 5.40642 6.50001 5.34759 6.52674C5.23529 7.10963 5.12299 7.69252 5.01604 8.27006C5.18717 8.34493 5.34225 8.44653 5.48663 8.56418C5.62567 8.68182 5.74331 8.82621 5.82888 8.98664C5.7754 9.16845 5.51872 9.27006 5.05882 9.2968C4.59893 9.32353 4.3369 9.47861 4.27807 9.75669C4.30481 10.0027 4.34759 10.2754 4.40642 10.5642C4.50802 11.0241 4.61497 11.4893 4.72727 11.9492C4.77005 12.2487 4.79144 12.516 4.79144 12.746C4.79144 12.992 4.76471 13.2273 4.71658 13.4519C4.6631 13.6765 4.57754 13.8904 4.4492 14.1043C4.52406 13.9599 4.58289 13.7995 4.61497 13.6283C4.64706 13.4572 4.66845 13.2915 4.66845 13.1257C4.66845 12.885 4.63636 12.6177 4.56684 12.3182C4.53476 12.1578 4.45989 11.9064 4.35294 11.5749C4.24599 11.2433 4.17112 10.9813 4.12834 10.7995C4.08556 10.6177 4.06417 10.4144 4.06417 10.2005C4.06417 9.98664 4.09626 9.79947 4.15508 9.61765C4.2139 9.43583 4.31551 9.24867 4.46524 9.0615C4.70588 8.9492 4.97861 8.89573 5.28877 8.89573C5.22995 8.8369 5.16043 8.78343 5.09091 8.7353C5.01604 8.68717 4.94118 8.66578 4.86631 8.66578C4.81283 8.66578 4.75401 8.68717 4.68449 8.72995L4.54545 8.89573C4.51337 8.8369 4.51337 8.76739 4.54545 8.69252C4.57754 8.61765 4.61497 8.54279 4.64706 8.47327L4.94118 8.29145C4.82353 7.98129 4.73262 7.75134 4.6738 7.59626C4.5615 7.31284 4.40642 7.1738 4.19786 7.1738C4.1123 7.14706 4.03743 7.10963 3.96791 7.05615C3.8984 7.00268 3.85027 6.93851 3.82888 6.85295C3.82888 6.6123 3.90374 6.43049 4.05882 6.30214C4.31551 6.35562 4.50802 6.54279 4.63636 6.86899C4.82353 7.32888 4.94652 7.59091 4.99465 7.64974C5.04813 7.29145 5.09626 6.98664 5.14439 6.74065C5.19251 6.49466 5.28877 6.28075 5.43315 6.09894C5.52941 6.09894 5.60963 6.12033 5.67914 6.16311C5.74866 6.20589 5.81283 6.26471 5.87166 6.34493H5.85027ZM11.4332 15.238C11.3797 15.3503 11.3422 15.4305 11.3155 15.484C11.262 15.5856 11.1872 15.639 11.0856 15.639C10.984 15.6551 10.8556 15.6444 10.7059 15.607C10.5561 15.5695 10.4652 15.5481 10.4278 15.5481C10.1176 16.008 9.62567 16.361 8.95187 16.6016C8.13904 16.8262 7.54545 16.9973 7.16577 17.1257C7.39037 16.9973 7.87166 16.7941 8.61497 16.5107C9.69519 16.1096 10.3529 15.5749 10.5936 14.9064C10.6684 14.8476 10.738 14.7995 10.7914 14.7674C10.8449 14.7353 10.9091 14.7139 10.9786 14.7139C11.0214 14.7139 11.0695 14.7246 11.1176 14.7513C11.1872 14.8048 11.246 14.8743 11.2888 14.9706C11.3369 15.0668 11.3797 15.1524 11.4225 15.238H11.4332ZM19.4438 8.37166C19.385 8.38771 19.3209 8.36097 19.2513 8.2968C19.1497 8.19519 19.0909 8.13637 19.0856 8.13102C19.1283 8.0615 19.1925 8.02942 19.2781 8.02942C19.3797 8.02942 19.4385 8.08289 19.4438 8.1845V8.37701V8.37166ZM20.1872 14.1578C20.0856 14.2594 19.9572 14.3128 19.8021 14.3128C19.7166 14.3128 19.6203 14.2914 19.5187 14.2487C19.3316 14.1203 19.1818 14.0027 19.0695 13.9011C18.9144 13.746 18.8235 13.5909 18.8021 13.4251C19 13.3824 19.1925 13.361 19.3797 13.361C19.5668 13.361 19.7166 13.3931 19.8556 13.4572C19.9947 13.5214 20.0963 13.6283 20.1658 13.7727C20.1765 13.8316 20.1925 13.9225 20.2192 14.0401C20.2192 14.0936 20.2086 14.131 20.1925 14.1578H20.1872ZM12.3048 11.9118C11.9358 12.2112 11.5508 12.4144 11.1497 12.5267C11.1497 12.2166 11.1765 11.9492 11.2353 11.7139C11.2888 11.4786 11.4118 11.2968 11.5989 11.1685C11.7166 11.1417 11.8396 11.1792 11.9572 11.2701C12.0321 11.3289 12.1016 11.4144 12.1604 11.5214C12.2193 11.6283 12.2674 11.7567 12.2995 11.9118H12.3048ZM11.0588 15.2487C11 15.2647 10.9358 15.2647 10.8717 15.2433C10.8075 15.2219 10.7273 15.2005 10.6364 15.1738C10.7112 15.115 10.7861 15.0829 10.8556 15.0829C10.8984 15.0829 10.9358 15.1043 10.9733 15.1471C10.9733 15.1578 11.0053 15.1898 11.0642 15.2487H11.0588Z" fill="white"/>
</svg>
