<svg width="24" height="24" viewBox="0 0 24 24" fill="none" xmlns="http://www.w3.org/2000/svg">
<path fill-rule="evenodd" clip-rule="evenodd" d="M21.9128 12.0616C21.9385 12.277 21.959 12.4923 21.9744 12.7128C21.9897 12.9334 22 13.1539 22 13.3641C22 13.8667 21.959 14.3282 21.8718 14.7539C21.7846 15.1795 21.6359 15.6 21.4205 16.0103C21.518 15.7744 21.5897 15.5282 21.6359 15.2769C21.6821 15.0257 21.7026 14.7539 21.7026 14.4564C21.7026 14.1129 21.6718 13.7231 21.6051 13.2872C21.5385 12.8513 21.4769 12.4308 21.4205 12.0205C21.1231 10.3385 20.8308 8.65131 20.5333 6.96413C20.5487 6.8308 20.5795 6.71799 20.6205 6.62055C20.6359 6.57952 20.7436 6.40004 20.9385 6.07696C20.9949 6.2667 21.0667 6.45644 21.1487 6.64105C21.2718 6.87695 21.3641 7.06156 21.4205 7.18464L21.4462 7.159C21.4462 7.29234 21.5077 7.47695 21.6256 7.71284C21.7436 7.94874 21.8051 8.12823 21.8051 8.24105C21.8051 8.29746 21.7949 8.35901 21.7692 8.42567L21.3385 7.87183L21.2513 8.00516C21.3026 8.45644 21.3744 8.94875 21.4718 9.48208C21.7333 10.959 21.8821 11.8154 21.9128 12.0564V12.0616ZM16.6821 9.29234C16.5077 9.29234 16.3282 9.35901 16.1385 9.48721C16.0051 9.57952 15.8923 9.64106 15.7949 9.68209C15.5641 9.70773 15.4205 9.60516 15.3641 9.37439C15.3538 9.32311 15.3538 9.25132 15.3538 9.15388C15.3538 8.98978 15.3744 8.82567 15.4103 8.6667C15.4462 8.50772 15.4769 8.37951 15.5026 8.29233H15.5641C15.5487 8.41541 15.5333 8.53337 15.5128 8.64106C15.4974 8.75388 15.4872 8.82567 15.4872 8.85644C15.4872 9.07182 15.5538 9.22055 15.6821 9.31286C15.8718 9.34363 16 9.2872 16.0769 9.13848C16.0872 9.08207 16.0872 8.99489 16.0769 8.88207C16.0667 8.76925 16.0667 8.68207 16.0667 8.62566C16.0667 8.43592 16.118 8.30772 16.2256 8.24618C16.2154 8.3949 16.2154 8.50259 16.2154 8.57951C16.2154 8.69233 16.2308 8.78464 16.2564 8.85131C16.2872 8.91797 16.3385 8.96413 16.4205 9.00003H16.5692C16.5692 8.94362 16.559 8.86156 16.5333 8.75387C16.5077 8.64618 16.4974 8.56414 16.4974 8.50773C16.4974 8.41029 16.5282 8.32311 16.5949 8.25131C16.6462 8.40003 16.6872 8.52823 16.7179 8.6308C16.7487 8.73849 16.7692 8.84618 16.7692 8.94874C16.7692 9.07182 16.7385 9.18465 16.6821 9.29234ZM16.9897 6.12823C16.9077 6.17951 16.8308 6.21028 16.7641 6.22567C16.6923 6.24105 16.6205 6.25644 16.5487 6.27695L10.8154 8.44106C10.7026 8.52311 10.5795 8.60515 10.4564 8.69233C10.3333 8.77951 10.2615 8.87695 10.2462 8.9949C10.959 8.69746 11.6821 8.40002 12.4205 8.09746C13.1538 7.7949 13.8718 7.51286 14.5692 7.24619C15.3487 6.94875 16.0821 6.69746 16.7744 6.48208C16.8564 6.41541 16.9026 6.37951 16.9077 6.36926C16.9897 6.27695 17.0205 6.19491 16.9949 6.12311L16.9897 6.12823ZM12.1385 6.98978C12.1128 7.12311 12.0923 7.24619 12.0769 7.36926C12.0256 7.53337 11.9282 7.63593 11.7795 7.67696C11.7231 7.68721 11.6718 7.67695 11.6308 7.64106C11.559 7.53336 11.5077 7.46157 11.4821 7.42055C11.4718 7.3385 11.4718 7.27695 11.4718 7.23592C11.4718 6.88208 11.5641 6.57439 11.7538 6.31285C11.7282 6.39491 11.7026 6.49234 11.6718 6.60003C11.641 6.71285 11.6308 6.80516 11.6308 6.88721C11.6308 7.06157 11.6821 7.20003 11.7795 7.30773C11.8769 7.33337 11.9487 7.30772 11.9949 7.22567C12.041 7.14875 12.0872 7.0667 12.1385 6.98465V6.98978ZM14.3282 10.0308C14.3282 10.1539 14.3026 10.2821 14.2564 10.4205C14.2051 10.5539 14.1282 10.6513 14.0205 10.7077C13.9538 10.718 13.8974 10.6923 13.8462 10.6359C13.8051 10.5539 13.7744 10.4975 13.759 10.4616C13.759 10 13.8615 9.57439 14.0667 9.17952C14.0103 9.43593 13.9538 9.68721 13.8923 9.94362C13.8923 10.1077 13.9436 10.2411 14.041 10.3385C14.1077 10.3282 14.1641 10.2821 14.2154 10.1898C14.2667 10.0975 14.3026 10.0462 14.3282 10.0308ZM11.041 6.05644C11.0667 6.09747 11.041 6.14875 10.9795 6.21542C10.9128 6.28208 10.8769 6.32824 10.8667 6.36414C9.83077 6.70773 9.25128 6.90773 9.11795 6.95388C8.44615 7.18978 7.85128 7.42054 7.33846 7.63592C6.82564 7.85131 6.29231 8.11798 5.74359 8.4308C6.06154 7.99491 6.70769 7.60516 7.67692 7.26157C8.37436 7.01542 8.81538 6.84106 9.00513 6.74362C9.67692 6.51285 10.3538 6.28208 11.0359 6.05644H11.041ZM10.9179 10.3128C10.9333 10.4205 10.9077 10.5282 10.8462 10.6462C10.7487 10.7795 10.6769 10.877 10.6359 10.9436C10.5231 11.0359 10.4103 11.1026 10.2974 11.1487C10.1846 11.1949 10.0718 11.2052 9.95897 11.1795C9.82051 11.1077 9.74872 10.9846 9.74872 10.8103C9.74872 10.7539 9.75898 10.6923 9.78462 10.6257C9.85128 10.4462 9.89744 10.3077 9.93333 10.2205C10 10.0462 10.0821 9.9385 10.1795 9.88721C10.1077 10.1077 10.0564 10.2564 10.0308 10.3385C10.0051 10.4154 9.99487 10.4872 9.99487 10.5539C9.99487 10.6462 10.0103 10.718 10.0359 10.7744C10.0667 10.8308 10.1179 10.8616 10.2 10.8616C10.2513 10.8616 10.3231 10.8411 10.4205 10.7949C10.5179 10.7487 10.5795 10.7231 10.6051 10.7128L10.6923 10.6257C10.6513 10.5282 10.5744 10.4359 10.4564 10.3539C10.4051 10.3231 10.3026 10.2616 10.1487 10.1693L10.3231 9.86156C10.4359 9.89233 10.5538 9.94875 10.6667 10.0257C10.7795 10.1026 10.8615 10.2 10.9128 10.3128H10.9179ZM18.7333 15.8411C18.7436 15.9385 18.7231 16.0411 18.6718 16.1487C18.5795 16.3385 18.5385 16.4359 18.5385 16.4462C18.4154 16.559 18.2821 16.6052 18.1436 16.5795C18.1436 16.5487 18.1436 16.518 18.1385 16.4923C18.1385 16.4667 18.1231 16.4513 18.1077 16.4411C18.0667 16.5334 18.0205 16.6052 17.9744 16.6616C17.9026 16.7539 17.8205 16.8 17.7282 16.8103C17.5641 16.677 17.4 16.6154 17.2359 16.6154C17.0564 16.6154 16.8667 16.6975 16.6718 16.8616C16.3692 17.1077 16.0667 17.359 15.759 17.6103C15.6872 17.6411 15.5385 17.718 15.318 17.8308C15 18.0052 14.7333 18.1077 14.5282 18.1487C14.7487 18.0564 14.9897 17.9231 15.241 17.7436C15.3487 17.6718 15.5744 17.4923 15.9231 17.2103C16.2718 16.9282 16.5436 16.7231 16.7436 16.5949C16.9385 16.4667 17.1282 16.3693 17.3077 16.2923C17.3795 16.2821 17.4872 16.318 17.6256 16.3898C17.7179 16.4411 17.7795 16.4616 17.8103 16.4616C17.8769 16.4616 17.9385 16.4308 17.9949 16.3744C18.0359 16.2616 18.0667 16.1795 18.0872 16.1334C18.1077 16.0872 18.1436 16.0462 18.1897 16.0052V16.3129C18.3128 16.2975 18.4154 16.2359 18.4974 16.1282C18.5795 16.0205 18.6564 15.9231 18.7333 15.8308V15.8411ZM9.24615 8.51798C9.19487 8.42054 9.13846 8.34362 9.06667 8.28208C8.99487 8.22567 8.91795 8.21028 8.82564 8.2308C8.73333 8.37952 8.6718 8.55387 8.64103 8.759C8.62564 8.95387 8.61026 9.14875 8.58974 9.33849C8.57949 9.32824 8.4718 9.12824 8.25641 8.73337C8.18974 8.61029 8.10256 8.49746 8 8.38977C7.94872 8.36413 7.91795 8.35387 7.90256 8.35387C7.85128 8.35387 7.82051 8.37952 7.80513 8.42567C7.80513 8.45644 7.79487 8.50773 7.76923 8.57439C7.71795 8.69747 7.69744 8.77951 7.69744 8.82054C7.69744 8.8872 7.72821 8.94361 7.78462 8.9949C7.81539 9.00515 7.87692 9.02568 7.96923 9.05645C8.01026 9.05645 8.03077 9.02567 8.03077 8.96926C8.14359 9.16413 8.26667 9.36413 8.38974 9.559C8.46154 9.68208 8.54359 9.76926 8.6359 9.81541C8.69231 9.73336 8.72821 9.65644 8.73846 9.58977C8.74872 9.51797 8.75898 9.41029 8.75898 9.26157V9.0667C8.75898 8.97439 8.75898 8.88722 8.76923 8.80004C8.77949 8.71286 8.79487 8.64106 8.82051 8.58465C8.87692 8.58465 8.94359 8.62054 9.01539 8.69747C9.08718 8.77439 9.13846 8.81028 9.1641 8.82054L9.25128 8.51286L9.24615 8.51798ZM18.9795 10.2411C18.9487 10.0667 18.8462 9.63592 18.6821 8.94874C18.559 8.43079 18.4821 8.01028 18.4462 7.68208C18.5436 7.76413 18.641 7.84618 18.7436 7.92824C18.8103 7.97952 18.8718 8.00517 18.9282 8.01542C18.7128 7.28722 18.4051 6.56414 17.9949 5.85132C17.8308 6.10773 17.6974 6.3949 17.5897 6.71285C18.1231 8.74875 18.4051 9.83592 18.441 9.97438C18.5795 10.5795 18.7077 11.2513 18.8205 11.9795C18.6872 12.0616 18.559 12.1231 18.4308 12.159C18.3026 12.1949 18.1641 12.2154 18.0205 12.2154C17.9128 12.2154 17.8103 12.2052 17.7077 12.1898C17.6051 12.1744 17.4821 12.1539 17.3436 12.1334C17.2051 12.1129 17.1333 12.0257 17.1333 11.8667C17.1333 11.7949 17.1436 11.6872 17.159 11.5487C17.0769 11.6154 17.0051 11.7231 16.9385 11.8821C16.8 12.1949 16.6821 12.3846 16.5949 12.4616C16.4821 12.5282 16.3744 12.5744 16.2769 12.6052C16.1795 12.6359 16.0821 12.6462 15.9795 12.6462C15.8974 12.6462 15.8205 12.6359 15.7436 12.6103C15.5282 12.5846 15.4256 12.5129 15.4256 12.3898C15.4256 12.3231 15.4564 12.2205 15.518 12.077C15.5795 11.9334 15.6051 11.8308 15.6 11.7744C15.4256 11.9539 15.2615 12.1334 15.0974 12.318C14.8821 12.5334 14.6872 12.6667 14.5077 12.7231C14.4103 12.7539 14.3077 12.7744 14.2 12.7744C13.8872 12.7744 13.6462 12.5282 13.4718 12.0359C13.2974 11.5436 13.1282 11.2616 12.9538 11.1846C12.4718 11.677 11.8513 12.159 11.0974 12.6257C10.6615 12.8872 10 13.2718 9.11795 13.7847C9.06667 13.877 9.02051 13.9693 8.96923 14.0667C8.91795 14.1641 8.90256 14.2513 8.91795 14.3231C8.98462 14.3334 9.68718 14.4667 11.0359 14.7282C11.5128 14.8205 11.9333 14.8975 12.3026 14.9641C11.7179 15.2257 11.3385 15.3898 11.159 15.4564C10.6923 15.6205 10.2718 15.7026 9.90256 15.7026C9.66667 15.7026 9.44616 15.6718 9.25128 15.6103C9.05641 15.5488 8.8718 15.4462 8.69744 15.3077C8.45128 14.9129 8.24103 14.4462 8.0718 13.9026C8 13.6821 7.86667 13.2205 7.67692 12.518C7.48718 11.8154 7.31795 11.2975 7.15898 10.959C6.92821 10.4513 6.6359 10.0206 6.28718 9.6667C6.18974 9.73337 6.11795 9.85132 6.0718 10.0308C6.02564 10.2052 6.00513 10.3898 6.00513 10.5795C6.4 11 6.71282 11.4821 6.95385 12.0308C7.13333 12.4513 7.30769 12.9847 7.4718 13.6411C6.99487 14.4718 6.34359 15.1282 5.51282 15.6103C5.07692 15.8667 4.64103 16.0616 4.21026 16.2C3.77436 16.3385 3.33846 16.4103 2.89231 16.4103C2.76923 16.3282 2.68205 16.2359 2.6359 16.1334C2.58462 16.0308 2.5641 15.9231 2.5641 15.8052C2.5641 15.641 2.6359 15.3846 2.77436 15.0308C2.91282 14.677 2.98462 14.4205 2.98462 14.2564C2.76923 14.6103 2.61026 14.9795 2.49744 15.3693C2.38462 15.759 2.33333 16.159 2.33333 16.5693V16.7846C2.33333 16.8769 2.34359 16.9641 2.35897 17.0359C2.41539 17.1693 2.51282 17.2718 2.64103 17.3487C2.77436 17.4257 2.90769 17.4667 3.04615 17.4667C3.49744 17.3846 3.96923 17.2462 4.45641 17.0564C4.94359 16.8616 5.37949 16.6411 5.76923 16.3846C6.20513 16.0975 6.57436 15.7795 6.87692 15.4257C7.21538 15.0308 7.46154 14.6052 7.62564 14.1436C7.68205 14.3641 7.77949 14.7282 7.90769 15.2411C8.13846 15.9693 8.51282 16.4257 9.02564 16.6052C9.05128 16.6052 9.09231 16.6052 9.14872 16.6154H9.35897C9.79487 16.6154 10.2769 16.5385 10.8103 16.3795C10.9744 16.3282 11.4359 16.1693 12.1897 15.8975C12.6564 15.7334 13.0103 15.6206 13.2462 15.5641C13.6154 15.4718 13.9744 15.4308 14.3282 15.4308C14.4821 15.4308 14.6615 15.4411 14.8564 15.4667C15.0513 15.4923 15.2359 15.5282 15.4 15.5795C15.4974 15.4308 15.5744 15.2923 15.6205 15.1539C15.6718 15.0205 15.718 14.8462 15.7692 14.6308C15.6154 14.6 14.9538 14.4821 13.7897 14.2872C12.4359 14.0513 11.3538 13.8308 10.5385 13.6359C11.2359 13.1129 11.9333 12.5846 12.6308 12.0616C12.7436 12.1846 12.8462 12.359 12.9282 12.5898C13.1026 13.0923 13.2564 13.4052 13.4 13.5334C13.5436 13.6616 13.7282 13.7231 13.959 13.7231C14.0513 13.7231 14.1385 13.7129 14.2308 13.6872C14.559 13.5795 14.8359 13.3641 15.0564 13.0359C15.0718 13.1744 15.1077 13.2872 15.1692 13.3693C15.2 13.4205 15.2513 13.4616 15.318 13.4923C15.4974 13.559 15.6718 13.5898 15.8359 13.5898C16.0103 13.5898 16.1795 13.559 16.3538 13.4923C16.5077 13.4 16.6308 13.2513 16.7231 13.0359C16.7744 12.9231 16.8359 12.7385 16.9179 12.4923C16.9487 12.518 16.959 12.559 16.9385 12.6154C16.9179 12.6718 16.9128 12.7129 16.9179 12.7385C16.9436 12.8205 16.9949 12.8923 17.0769 12.9488C17.0923 12.959 17.1641 13 17.2872 13.0821C17.4769 13.1641 17.6769 13.2052 17.8923 13.2052C18.2615 13.2052 18.6 13.0872 18.9026 12.8462C18.9846 12.6257 19.0462 12.4052 19.0821 12.1898C19.118 11.9744 19.1385 11.7385 19.1385 11.4923C19.1385 11.0923 19.0923 10.6718 19.0051 10.2359L18.9795 10.2411ZM4.63077 6.85644L4.22564 7.72823C4.08718 7.66156 3.95385 7.60003 3.83077 7.53849C3.70769 7.47695 3.55385 7.3949 3.37436 7.28721C3.27692 7.52311 3.22051 7.65131 3.21539 7.66669C3.12308 7.82054 3.02564 7.9026 2.91795 7.9026C2.85128 7.9026 2.7641 7.85644 2.66154 7.76926C2.53846 7.69747 2.41538 7.61542 2.29231 7.53337C2.34872 7.35388 2.41026 7.19491 2.47692 7.0667C2.54359 6.93337 2.63077 6.81028 2.74872 6.6872L3.4 6.90773L3.86667 6.46669C4.00513 6.49746 4.13846 6.54875 4.26154 6.61542C4.31795 6.64619 4.44103 6.72824 4.63077 6.86158V6.85644ZM13.7282 17.0975C13.6769 17.2205 13.6051 17.359 13.5077 17.518C13.4513 17.6103 13.3538 17.7334 13.2256 17.8975C13.1692 17.8411 13.0103 17.7436 12.7436 17.6103C12.4821 17.477 12.3487 17.3487 12.3487 17.2359C12.3487 17.1795 12.3744 17.1128 12.4205 17.0411L12.8615 16.4975C13.1487 16.6923 13.4359 16.8975 13.7231 17.1026L13.7282 17.0975ZM5.84103 13.518C5.84103 13.6667 5.82051 13.7949 5.77949 13.9077C5.73846 14.0205 5.66667 14.0975 5.55897 14.1488C5.40513 14.1744 5.30769 14.0975 5.27692 13.9282C5.27692 13.6308 5.34872 13.2718 5.49744 12.8462C5.56923 12.6411 5.64615 12.4308 5.71795 12.2205C5.71795 12.2923 5.64615 12.5231 5.49744 12.9077C5.42564 13.0975 5.38462 13.2462 5.38462 13.3641C5.38462 13.5693 5.47692 13.7077 5.66667 13.7847L5.84103 13.5282V13.518ZM4.75898 8.8308C4.70256 9.18978 4.61539 9.51798 4.50256 9.81541C4.38974 10.1128 4.23077 10.3795 4.0359 10.6257C4.25641 10.8205 4.42051 11 4.52821 11.1539C4.66667 11.3693 4.73846 11.5898 4.73846 11.8205C4.73846 11.918 4.71795 12.0359 4.67692 12.1795C4.67692 12.4821 4.6359 12.7385 4.55385 12.9436C4.44615 13.2 4.27692 13.4052 4.0359 13.559C3.84103 13.6923 3.64103 13.8205 3.44615 13.9539C3.2 14.1026 2.97949 14.1744 2.77949 14.1744C2.6718 14.1744 2.59487 14.1641 2.54359 14.1488C2.40513 14.0513 2.30256 13.9282 2.24103 13.7795C2.17949 13.6308 2.14872 13.4667 2.14872 13.2872C2.14872 13.1334 2.1641 12.9795 2.2 12.8308C2.23077 12.6821 2.31282 12.3898 2.44615 11.9436C2.6 11.6052 2.8 11.3026 3.0359 11.0308C2.88205 10.918 2.69744 10.7385 2.49231 10.5026C2.25641 10.2257 2.09231 10.0462 2 9.97438C2 9.63079 2.09744 9.32823 2.29744 9.06156L3.0359 9.49233C3.0359 9.49233 3.02564 9.54362 3 9.57952C2.92821 9.65131 2.88718 9.69747 2.88718 9.71286L3.55385 10.318C3.74872 10.1539 3.9641 9.91797 4.19487 9.60515C4.38462 9.34874 4.57436 9.09234 4.75898 8.8308ZM7.66154 16.8667C7.67692 16.9898 7.66154 17.1026 7.6 17.2103C7.54359 17.318 7.46154 17.3949 7.35385 17.4462C7.30256 17.4872 7.25128 17.4872 7.18974 17.4411C7.12821 17.3949 7.08718 17.3282 7.0718 17.2359C7.05641 17.1436 7.04615 17.0667 7.04615 17C7.04615 16.7949 7.08205 16.5795 7.15898 16.359C7.18462 16.277 7.2718 16.077 7.41539 15.7539C7.34872 15.9898 7.30256 16.1846 7.26667 16.3385C7.2359 16.4923 7.21538 16.6052 7.21538 16.6872C7.21538 16.7846 7.22051 16.8564 7.2359 16.9026C7.24615 16.9487 7.27692 17.0103 7.32821 17.0923C7.37949 17.0923 7.43077 17.0667 7.48205 17.0205C7.53333 16.9693 7.59487 16.918 7.66154 16.8616V16.8667ZM4.31282 12.2257C4.13333 12.3744 3.95385 12.5231 3.78462 12.6667C3.42564 12.9641 3.10256 13.1077 2.82564 13.1077C2.76923 13.1077 2.69231 13.0975 2.58974 13.0821C2.54872 12.9846 2.52821 12.8975 2.52821 12.8257C2.52821 12.6205 2.64103 12.3795 2.8718 12.0975C2.99487 11.9436 3.18462 11.7129 3.4359 11.4103C3.58974 11.5436 3.75897 11.6769 3.93333 11.8154C4.10769 11.9539 4.2359 12.0923 4.30769 12.2205L4.31282 12.2257Z" fill="white"/>
</svg>
