<svg width="24" height="24" viewBox="0 0 24 24" fill="none" xmlns="http://www.w3.org/2000/svg">
<path fill-rule="evenodd" clip-rule="evenodd" d="M22 9.20917C21.8882 9.04577 21.7807 8.87806 21.6689 8.71465L21.5356 8.89096L21.7506 12.8729C21.7506 13.2771 21.7162 13.6469 21.6517 13.9823C21.5872 14.3178 21.4754 14.636 21.3163 14.937C21.3722 14.6962 21.4109 14.4554 21.4281 14.2145C21.4496 13.9737 21.4582 13.6985 21.4582 13.3889V12.8299C21.4367 12.6794 21.4238 12.5676 21.4152 12.4988L21.1271 8.18574C21.14 8.12983 21.1486 8.09113 21.1486 8.06103C21.1486 8.01373 21.14 7.94923 21.1185 7.87612C21.097 7.79872 21.0884 7.74712 21.0884 7.71272C21.0884 7.64391 21.1142 7.57942 21.1701 7.51491C21.1916 7.49341 21.226 7.43751 21.2733 7.3429C21.3206 7.2483 21.3765 7.201 21.4367 7.1924C21.4797 7.36441 21.5614 7.61382 21.6861 7.93633C21.8925 8.47815 21.9957 8.90386 21.9957 9.20487L22 9.20917ZM18.6158 7.89763C18.5685 7.95353 18.5212 8.00943 18.4825 8.06103C18.0138 8.44804 17.7127 8.63725 17.5751 8.63725C17.5536 8.63725 17.5407 8.62865 17.5321 8.61145C17.5235 8.59425 17.5321 8.56845 17.5407 8.53405C17.6181 8.34914 17.773 8.20724 18.0138 8.11263C18.2116 8.04383 18.4137 7.97073 18.6115 7.89763H18.6158ZM18.3492 8.78346C18.4266 8.92106 18.461 9.06727 18.461 9.22637C18.461 9.38548 18.418 9.52308 18.3277 9.61769C18.2718 9.59189 18.2202 9.57468 18.1729 9.57468C18.1127 9.57468 18.0439 9.59618 17.9751 9.63488C17.816 9.72949 17.6955 9.76389 17.6138 9.73809C17.5321 9.68219 17.4891 9.60049 17.4891 9.48868C17.4891 9.42848 17.5063 9.33388 17.545 9.21347C17.5837 9.09307 17.6052 9.01137 17.6138 8.97266L17.6869 8.95116C17.6999 8.99416 17.6955 9.05867 17.6654 9.14897C17.6396 9.23928 17.6224 9.29947 17.6224 9.33388C17.6224 9.40268 17.6568 9.45428 17.7256 9.48868C17.8504 9.48868 17.9149 9.39838 17.9235 9.21347C17.9321 9.03287 17.9665 8.92106 18.0353 8.87806C18.0482 8.89956 18.0568 8.93826 18.0568 9.00276C18.0482 9.09307 18.0482 9.15757 18.0482 9.20057C18.0482 9.32528 18.1084 9.38118 18.2245 9.36398H18.3062C18.3277 9.30808 18.3234 9.23497 18.3019 9.13607C18.2761 9.04146 18.2675 8.98127 18.2675 8.95976C18.2675 8.88236 18.2933 8.82216 18.3492 8.77485V8.78346ZM18.2675 10.5981C18.2675 10.5981 18.1729 10.7142 18.0525 10.8862C17.9622 11.0109 17.8719 11.0711 17.7859 11.0711C17.7644 11.0711 17.7342 11.0625 17.6912 11.0496L17.3085 10.8002C17.2053 10.9507 17.1021 11.0668 16.9989 11.1442C16.8957 11.2216 16.7839 11.2646 16.6678 11.2646C16.5431 11.2646 16.4141 11.2044 16.2765 11.0797C16.2765 10.9851 16.3109 10.8862 16.3797 10.7873C16.4485 10.6884 16.5388 10.5938 16.6463 10.5035C16.6807 10.5035 16.8183 10.5551 17.0591 10.6583C17.1623 10.7013 17.244 10.7142 17.3085 10.7013C17.3644 10.6196 17.4203 10.5336 17.4719 10.4433C17.5407 10.353 17.6138 10.2799 17.6869 10.2154C17.8332 10.2713 17.945 10.3229 18.031 10.3745C18.117 10.4261 18.1944 10.4992 18.2632 10.5981H18.2675ZM12.4279 7.0978C12.4279 7.2698 12.3333 7.41601 12.1398 7.53211C12.1269 7.54071 11.9548 7.60951 11.6237 7.74712C11.6667 7.69122 11.7312 7.63532 11.8215 7.58372C12.0624 7.44611 12.1957 7.36441 12.2258 7.33431C12.1226 7.29991 12.0107 7.2827 11.8946 7.2827C11.7785 7.2827 11.671 7.3042 11.5764 7.3429C11.6022 7.2311 11.6538 7.158 11.7269 7.1193C11.8 7.0806 11.8946 7.0634 12.0107 7.0634C12.0882 7.0634 12.157 7.0634 12.2258 7.072C12.2946 7.0806 12.3634 7.08489 12.4322 7.09349L12.4279 7.0978ZM15.0897 9.60479L15.0295 9.80259C14.9951 9.81549 14.9435 9.80259 14.8747 9.75959C14.8058 9.71659 14.7628 9.69939 14.7413 9.69939C14.7069 9.69939 14.6811 9.73379 14.6596 9.80259C14.6166 10.1681 14.5865 10.3874 14.565 10.4562C14.5435 10.5293 14.5005 10.6239 14.4317 10.74C14.3887 10.7056 14.2984 10.5594 14.1522 10.3057C14.049 10.1208 13.92 10.0391 13.7609 10.0563C13.7136 10.0305 13.6878 9.9789 13.6878 9.91009C13.6878 9.88429 13.6878 9.85419 13.6964 9.82409C13.705 9.79399 13.7093 9.76389 13.7179 9.73809C13.7652 9.68219 13.8125 9.62628 13.8641 9.57468C13.9587 9.62198 14.0576 9.72949 14.1522 9.8929C14.3242 10.1896 14.4446 10.3143 14.5134 10.2627C14.5134 10.0004 14.5306 9.81979 14.565 9.72089C14.5994 9.62198 14.6639 9.52308 14.7628 9.42848C14.823 9.41988 14.8832 9.43708 14.9392 9.47148C15.008 9.53169 15.0596 9.57899 15.094 9.60479H15.0897ZM16.6076 12.3182C16.5861 12.4472 16.5603 12.5504 16.5259 12.6278C16.4915 12.7052 16.4356 12.7654 16.3625 12.8127C16.2593 12.7998 16.1819 12.7439 16.1346 12.6493C16.126 12.5934 16.126 12.5547 16.126 12.5246C16.126 12.3612 16.169 12.215 16.2507 12.0903V12.3569C16.2507 12.473 16.3023 12.5461 16.4055 12.5719C16.4399 12.559 16.47 12.5117 16.5001 12.4386C16.5259 12.3612 16.5646 12.3225 16.6119 12.3139L16.6076 12.3182ZM19.8284 8.98556C19.794 8.69745 19.7123 8.38784 19.5876 8.06103C19.4586 7.73422 19.3339 7.42031 19.2092 7.115C19.1146 7.1752 19.0415 7.2741 18.9942 7.40311C18.9469 7.53211 18.8996 7.66111 18.8609 7.78582C18.9512 8.30184 19.0329 8.90386 19.1103 9.59189C19.1576 9.9918 19.2221 10.5895 19.2952 11.3894C19.3726 12.1892 19.4328 12.8041 19.4801 13.2384C19.4242 13.2943 19.3683 13.3373 19.3167 13.3717C19.3081 13.3803 19.2135 13.4319 19.0286 13.5265C19.0071 13.5351 18.9684 13.548 18.9168 13.5695H18.7534C18.504 13.5695 18.2847 13.4835 18.0912 13.3115C18.0439 13.2212 18.0181 13.1137 18.0181 12.9804C18.0181 12.8901 18.0181 12.8256 18.0267 12.7826C17.8332 12.817 17.5622 12.9933 17.2096 13.3072C16.8914 13.5953 16.6205 13.7415 16.3926 13.7415C16.3367 13.7415 16.2765 13.7329 16.2077 13.72C16.1389 13.7071 16.0787 13.6856 16.0314 13.6598C15.5971 13.3158 15.0596 12.817 14.4231 12.1634C13.5416 11.2603 13.0385 10.7486 12.9052 10.6239C12.3204 10.0649 11.7613 9.61769 11.2238 9.28228C11.198 9.26078 11.1808 9.23927 11.1808 9.22207C11.1808 9.19627 11.2152 9.14467 11.284 9.07586C11.9161 8.85656 12.3935 8.69316 12.7203 8.58995C13.2234 8.43085 13.7136 8.28894 14.1952 8.15994C14.6768 8.03093 15.1886 7.91483 15.7347 7.80302C15.8594 7.78152 16.0443 7.75142 16.2851 7.70412C16.5302 7.66112 16.7452 7.63532 16.9301 7.63532C17.0935 7.63532 17.2569 7.65682 17.416 7.69552C17.4504 7.72992 17.4676 7.77722 17.4676 7.84172C17.4676 7.89762 17.459 7.95353 17.4461 8.00513C17.1838 8.28894 16.9215 8.56845 16.6635 8.85226C16.3625 9.18337 16.1174 9.46718 15.9325 9.70799C15.6831 10.0262 15.4896 10.3186 15.3434 10.5852C15.5283 10.3186 15.8594 9.9488 16.3281 9.47578C16.7968 9.00276 17.1193 8.65445 17.2913 8.42654C17.6095 8.01373 17.8031 7.59662 17.8805 7.1795C17.8461 7.0849 17.7902 7.0204 17.7171 6.9903C17.6396 6.96019 17.5493 6.94299 17.4375 6.94299C17.3773 6.94299 17.3257 6.943 17.2827 6.9516C16.3281 6.9516 15.2746 7.1193 14.1264 7.45901C13.1503 7.79012 12.1742 8.11693 11.1937 8.43944C10.9959 8.57705 10.854 8.77055 10.7723 9.01566C10.7164 9.18767 10.6906 9.41988 10.6906 9.70799C10.8755 9.94019 11.1894 10.2756 11.6366 10.7142C12.0796 11.1528 12.3978 11.4797 12.5913 11.699C12.9267 12.0774 13.1847 12.4343 13.3653 12.774C13.3524 12.8772 13.2836 12.9589 13.1632 13.0148C13.0428 13.075 12.9267 13.1266 12.8192 13.1739C12.7074 12.9331 12.5397 12.731 12.3118 12.5719C12.0839 12.4085 11.8387 12.3311 11.5807 12.3311C11.4775 12.3784 11.3915 12.4257 11.327 12.4773C11.2625 12.5246 11.2023 12.5891 11.1464 12.6622C11.1464 12.6708 11.0862 12.8256 10.9615 13.1352C10.8841 13.3287 10.8497 13.4878 10.8497 13.6211C10.8497 13.7028 10.8626 13.7759 10.8841 13.8447C10.9099 13.9092 10.9443 13.978 10.9916 14.0468C11.1507 14.1586 11.3399 14.2103 11.5592 14.2103C11.7054 14.2103 11.8688 14.1887 12.0495 14.1414C12.2301 14.0984 12.4021 14.0554 12.5612 14.0124L12.5827 14.1974C12.2602 14.5156 11.9376 14.8295 11.6237 15.1477C11.2324 15.5175 10.8841 15.7927 10.5831 15.9647C10.1703 16.1969 9.76177 16.3173 9.35326 16.3173C9.22855 16.3173 9.09955 16.3087 8.96194 16.2872C8.81144 16.1926 8.70393 16.0808 8.64803 15.9604C8.58783 15.84 8.56203 15.7067 8.56203 15.5648C8.56203 15.4057 8.61793 15.152 8.73404 14.7951C8.84584 14.4425 8.90604 14.1758 8.90604 14.0038C8.90604 13.9436 8.90604 13.892 8.89744 13.8576C8.88884 13.849 8.87594 13.8576 8.85444 13.8662C8.83294 14.0167 8.72973 14.3694 8.54483 14.9198C8.39862 15.3541 8.32982 15.7067 8.32982 15.9819C8.32982 16.1453 8.35562 16.3087 8.40292 16.4635C8.45023 16.6183 8.53193 16.7645 8.63943 16.9021C8.90174 17.0053 9.14685 17.0569 9.37046 17.0569C9.59407 17.0569 9.82627 17.0139 10.037 16.9322C10.2477 16.8505 10.4627 16.7344 10.682 16.5796C11.2453 16.0636 11.8129 15.5476 12.3849 15.0316C12.5569 14.8725 12.7117 14.6102 12.8493 14.2361C12.9439 13.9866 13.0127 13.8232 13.0557 13.7415C13.3094 13.6727 13.4857 13.4792 13.5803 13.1653C13.6276 12.9933 13.7007 12.7353 13.7953 12.3913C14.1651 12.7826 14.5435 13.1739 14.922 13.5566C15.3606 14.0038 15.7734 14.3092 16.1518 14.4769C16.1776 14.4855 16.2206 14.4855 16.2765 14.4855C16.5259 14.4855 16.7753 14.3737 17.029 14.1543C17.2268 13.9479 17.4289 13.7415 17.6267 13.5351C17.6826 13.5093 17.7299 13.4921 17.773 13.4921C17.8289 13.4921 17.859 13.5781 17.8676 13.7501C17.8762 13.9221 17.9278 14.0253 18.0224 14.0597C18.2073 14.1887 18.418 14.2575 18.6502 14.2575C18.8437 14.2575 19.0114 14.2145 19.1576 14.1328C19.3984 14.0382 19.5532 13.8361 19.622 13.5351C19.6564 13.3717 19.6994 13.1094 19.7467 12.7525L19.3769 8.72755L19.5016 8.57275C19.5016 8.57275 19.5919 8.68025 19.708 8.85226C19.751 8.91246 19.7983 8.95546 19.8542 8.97696L19.8284 8.98556ZM9.21995 7.77722L9.15975 7.99223C9.11245 7.98363 9.05655 7.94923 8.98774 7.88473C8.92324 7.82022 8.87164 7.78152 8.83724 7.77722C8.82434 8.12124 8.81144 8.40934 8.79424 8.64585C8.78134 8.87806 8.70823 9.07157 8.57923 9.22207C8.51903 9.12747 8.45023 8.98987 8.38142 8.81786C8.29112 8.58995 8.23522 8.45234 8.20512 8.40504L8.14491 8.49965C8.07611 8.45664 8.01591 8.41364 7.96001 8.37064C7.90411 8.32764 7.8482 8.26744 7.7837 8.19864C7.7837 8.12123 7.7966 8.05243 7.8267 7.98363C7.8525 7.91483 7.88691 7.84603 7.92131 7.77722C8.11911 7.85893 8.29112 8.07393 8.43732 8.41794C8.50613 8.58135 8.57493 8.74906 8.64373 8.91246C8.65663 8.86946 8.66953 8.63725 8.68673 8.20724C8.69963 7.77722 8.76414 7.56222 8.88454 7.56222C8.93184 7.56222 8.97914 7.57942 9.03075 7.60952C9.07805 7.63962 9.14255 7.69552 9.22855 7.78152L9.21995 7.77722ZM14.7198 15.1262C14.7069 15.2208 14.6854 15.3068 14.6596 15.3799C14.6338 15.453 14.5865 15.5132 14.5263 15.5605C14.4833 15.5734 14.4446 15.5605 14.4016 15.5089C14.3586 15.4616 14.3328 15.4315 14.3199 15.4143C14.2941 15.3369 14.2769 15.2595 14.2769 15.1778C14.2769 15.0746 14.2984 14.9714 14.3371 14.8682C14.3801 14.765 14.436 14.6575 14.5134 14.55C14.479 14.6403 14.4532 14.7134 14.436 14.7779C14.4188 14.8381 14.4102 14.9069 14.4102 14.9843C14.4102 15.1305 14.4575 15.238 14.5564 15.3154C14.5779 15.3025 14.5994 15.2681 14.6295 15.2165C14.6553 15.1649 14.6897 15.1348 14.7241 15.1305L14.7198 15.1262ZM10.6863 15.0144C10.639 15.0488 10.5702 15.1348 10.4842 15.2724C10.3982 15.41 10.3122 15.4831 10.2305 15.4874L9.72307 15.1692C9.64567 15.2939 9.59407 15.3842 9.55966 15.4358C9.49086 15.5476 9.41346 15.5863 9.33176 15.5605C9.21995 15.5046 9.14255 15.4659 9.09525 15.4358C8.99204 15.3799 8.95334 15.3111 8.98344 15.2294C9.06515 15.0703 9.11245 14.98 9.12965 14.9628C9.18555 14.8682 9.25435 14.7908 9.33606 14.7349C9.48656 14.8037 9.64137 14.8682 9.80047 14.9327C9.82627 14.9327 9.86067 14.9241 9.89508 14.9026C9.98538 14.7177 10.1058 14.6231 10.2563 14.6231C10.3466 14.6231 10.4369 14.6747 10.5358 14.7779C10.5444 14.8037 10.5788 14.8381 10.6476 14.8768C10.7164 14.9155 10.7293 14.9628 10.6906 15.0144H10.6863ZM5.89594 11.0926C5.90454 11.1184 5.90454 11.1571 5.90454 11.2044C5.90454 11.4108 5.83143 11.5613 5.68953 11.6603C5.53902 11.6947 5.43582 11.6302 5.37992 11.4624C5.35412 11.3721 5.33692 11.2689 5.33692 11.1528C5.33692 11.0238 5.36272 10.8604 5.41862 10.6669C5.47452 10.4734 5.51322 10.3315 5.54332 10.2326C5.54332 10.2928 5.53472 10.3788 5.51322 10.4906C5.46592 10.7443 5.44012 10.9077 5.44012 10.9765C5.44012 11.0711 5.45302 11.1528 5.47452 11.213C5.50032 11.2732 5.54762 11.3377 5.62503 11.3979C5.69383 11.4237 5.74113 11.4108 5.77123 11.3506C5.79703 11.2904 5.82283 11.2345 5.84863 11.1786C5.87444 11.1227 5.88734 11.0926 5.89594 11.084V11.0926ZM10.1488 12.4558C10.0456 12.8213 9.98538 13.0234 9.97248 13.0664C9.89078 13.2986 9.79187 13.4835 9.68437 13.6125C9.64997 13.5351 9.67147 13.4319 9.74457 13.3029C9.79187 13.2212 9.81767 13.161 9.81767 13.1266C9.81767 13.0793 9.79187 13.032 9.74457 12.9804C9.66287 13.0019 9.31456 13.1868 8.70393 13.5394C8.45453 13.6856 8.23092 13.7544 8.02451 13.7544C7.87831 14.2447 7.7751 14.5543 7.7063 14.6919C7.54289 15.0273 7.30639 15.2681 7.00537 15.4143C6.37325 15.7497 5.96904 15.9647 5.79703 16.055C5.34982 16.2829 4.9284 16.4549 4.52849 16.571C4.04687 16.7172 3.58676 16.786 3.14384 16.786C2.82563 16.829 2.61062 16.8591 2.49022 16.8849C2.36981 16.9107 2.20641 16.9494 2 17.0053L5.74543 15.5304C6.05504 15.367 6.36465 15.2036 6.67426 15.0445C7.01827 14.851 7.31929 14.6403 7.57299 14.4166C7.57299 14.2919 7.53859 14.0984 7.47409 13.8275C7.40959 13.5609 7.37519 13.3717 7.37519 13.2599C7.37519 13.1352 7.40099 13.0234 7.45259 12.9245C7.50419 12.8256 7.59019 12.7353 7.7149 12.6493C7.7235 12.7095 7.7321 12.7955 7.7493 12.8987C7.7665 13.0019 7.8353 13.0535 7.95141 13.0535C7.96431 13.0621 8.00301 13.0707 8.07181 13.0793C8.13631 13.0879 8.19222 13.0965 8.23092 13.0965C8.42442 13.0965 8.80714 12.9202 9.37476 12.5719C9.64137 12.4085 9.88218 12.3225 10.0972 12.3225L10.1488 12.4558ZM12.1613 13.3932C12.0366 13.4362 11.9075 13.4534 11.7699 13.4534C11.5549 13.4534 11.3657 13.4018 11.2023 13.2986C11.1937 13.2556 11.2152 13.2169 11.2625 13.1739C11.284 13.161 11.3184 13.1309 11.3657 13.0922C11.3872 13.0922 11.4173 13.0922 11.4603 13.0836C11.5764 13.0836 11.6925 13.1094 11.8129 13.1653C11.929 13.2212 12.0452 13.2943 12.1656 13.3932H12.1613Z" fill="white"/>
</svg>
