<svg width="24" height="24" viewBox="0 0 24 24" fill="none" xmlns="http://www.w3.org/2000/svg">
<path fill-rule="evenodd" clip-rule="evenodd" d="M21.9958 9.23406C21.9534 9.16624 21.8983 9.08993 21.822 9.00515C21.7457 8.92037 21.6778 8.83559 21.61 8.75505L21.5167 8.93733C21.5167 9.36547 21.5337 9.8233 21.5676 10.3108C21.6015 10.7983 21.6354 11.3112 21.6736 11.8538C21.7117 12.3922 21.7287 12.8288 21.7287 13.1595C21.7287 13.5325 21.6863 13.9649 21.6058 14.4524C21.504 15.0755 21.3684 15.4698 21.1988 15.6308C21.2751 15.3935 21.326 15.1306 21.3557 14.8381C21.3853 14.5456 21.4023 14.2447 21.4023 13.931C21.4023 13.7868 21.4023 13.5791 21.3938 13.2993C21.3853 13.0196 21.3853 12.8161 21.3853 12.6804L21.0504 7.94114C21.0038 7.88603 20.9784 7.82245 20.9784 7.74614C20.9784 7.65712 21.0208 7.55115 21.1013 7.41974C21.2242 7.22898 21.2878 7.123 21.2963 7.10604C21.4532 7.4918 21.5888 7.85212 21.7033 8.19125C21.8177 8.52614 21.9152 8.87374 22 9.23406H21.9958ZM18.3247 10.8915C18.312 10.9721 18.2993 11.0526 18.295 11.1374C18.2738 11.2307 18.2442 11.307 18.2018 11.3621C18.134 11.3875 18.0704 11.379 18.0153 11.3366C17.9559 11.2943 17.9135 11.2349 17.8881 11.1586C17.8796 11.1162 17.8796 11.0611 17.8796 10.9848C17.8796 10.8152 17.922 10.633 18.011 10.4337C18.0577 10.332 18.1509 10.1667 18.2866 9.93351C18.2781 10.0098 18.2357 10.1412 18.1509 10.332C18.0661 10.5227 18.0237 10.6626 18.0237 10.7474C18.0237 10.8746 18.0831 10.989 18.206 11.0823C18.2272 11.0611 18.2399 11.0314 18.2526 10.9975C18.2611 10.9594 18.2738 10.9255 18.2866 10.8915H18.329H18.3247ZM18.3162 7.25865L18.1552 7.51299C17.9093 7.5893 17.3285 7.75462 16.4044 8.01321C15.5905 8.24212 15.0055 8.41592 14.6537 8.53038C14.0432 8.73385 13.4752 8.95428 12.9453 9.19167C13.0725 8.95428 13.3268 8.76353 13.7084 8.62364C14.1619 8.48799 14.4926 8.38201 14.6961 8.30994C15.2259 8.14038 15.9763 7.91995 16.9428 7.64865C17.6337 7.45789 18.0916 7.33071 18.3162 7.26289V7.25865ZM17.3497 9.61982L17.248 9.84449C17.2056 9.84449 17.142 9.81906 17.0487 9.76819C16.9555 9.71732 16.8792 9.70036 16.8198 9.71308C16.7054 10.0268 16.6164 10.2642 16.5613 10.4295C16.5019 10.5948 16.4298 10.7262 16.3408 10.8195C16.2857 10.7601 16.2306 10.6245 16.1797 10.4125C16.0907 10.0734 15.9212 9.9208 15.671 9.95471C15.6499 9.9208 15.6414 9.89112 15.6414 9.86145C15.6414 9.81906 15.6541 9.77243 15.6838 9.71308C15.7092 9.65373 15.7304 9.61134 15.7431 9.58591C15.7855 9.54352 15.8279 9.52656 15.8745 9.52656C15.9 9.52656 15.9339 9.53928 15.972 9.56895C16.0102 9.59439 16.0441 9.6283 16.078 9.67069C16.1585 9.76395 16.2264 9.8996 16.2815 10.0692C16.362 10.315 16.4129 10.4592 16.4341 10.5058C16.5146 10.2472 16.5782 10.0564 16.6164 9.93775C16.6927 9.70884 16.7986 9.53928 16.9428 9.43754C17.0106 9.42906 17.0784 9.45026 17.1462 9.49265C17.2141 9.53504 17.2819 9.57743 17.3497 9.61982ZM12.5892 8.23788C12.5638 8.42864 12.479 8.58548 12.3434 8.71689C12.284 8.71689 12.2247 8.69994 12.1653 8.66179C12.106 8.62364 12.0805 8.57701 12.0805 8.51342C12.0678 8.42016 12.0593 8.34809 12.0593 8.30146C12.0593 8.16581 12.0848 8.02592 12.1399 7.88603C12.195 7.74191 12.2671 7.59778 12.3646 7.44941C12.3179 7.61897 12.2798 7.75886 12.2543 7.86484C12.2289 7.97506 12.212 8.05136 12.212 8.09799C12.212 8.16581 12.2204 8.22516 12.2374 8.27179C12.2543 8.31842 12.2883 8.36929 12.3434 8.4244C12.3985 8.43712 12.4493 8.41168 12.496 8.34809C12.5426 8.28451 12.5723 8.24636 12.5892 8.24212V8.23788ZM14.1238 10.6372C14.145 10.705 14.1365 10.7898 14.1026 10.8873C14.0687 10.9848 14.0178 11.0696 13.95 11.1374C13.8949 11.1501 13.844 11.1374 13.7931 11.0865C13.7423 11.0399 13.6956 10.9806 13.6575 10.9127C13.649 10.8788 13.649 10.8237 13.649 10.7517C13.649 10.5906 13.6787 10.421 13.7423 10.2514C13.7677 10.1836 13.8101 10.0904 13.8652 9.9759C13.8652 10.0225 13.8525 10.1073 13.8228 10.2302C13.7974 10.3532 13.7804 10.4464 13.7804 10.5143C13.7804 10.5948 13.7974 10.6626 13.827 10.7177C13.8567 10.7729 13.9118 10.811 13.9966 10.8407L14.128 10.6372H14.1238ZM10.9784 8.33962C10.7537 8.76776 10.5078 9.08146 10.2365 9.28493C10.0119 9.4545 9.77872 9.53928 9.53285 9.53928H9.16829C9.23612 9.49689 9.43959 9.40363 9.77872 9.25526C10.0246 9.14504 10.2153 9.03483 10.3595 8.92037C10.2323 8.92037 10.1094 8.91189 9.99491 8.89918C9.60068 8.85255 9.39296 8.82711 9.36329 8.82711C9.15981 8.82711 8.97753 8.87374 8.81221 8.97124C8.8546 8.83559 8.93938 8.69146 9.07079 8.54309C9.2022 8.39472 9.34209 8.28451 9.48198 8.21668C9.99067 8.21668 10.4909 8.25907 10.9784 8.33962ZM8.07885 8.34809C8.04493 8.54309 8.02374 8.64483 8.0195 8.65331C7.99406 8.70842 7.9432 8.75505 7.87537 8.79744C7.80755 8.81016 7.7482 8.7932 7.70157 8.74233C7.65494 8.69146 7.61679 8.63211 7.59135 8.56429C7.59135 8.3269 7.60831 8.11494 7.64646 7.92842C7.68461 7.74191 7.7482 7.52147 7.83298 7.26289C7.83298 7.33919 7.81602 7.4706 7.78211 7.66136C7.7482 7.85212 7.73124 8.00049 7.73124 8.11071C7.73124 8.19125 7.73972 8.26331 7.75244 8.33114C7.76515 8.39472 7.79483 8.45831 7.83298 8.51766C7.92624 8.54309 7.99407 8.5007 8.03646 8.38625L8.07885 8.35657V8.34809ZM10.6944 10.9212C10.6604 11.0357 10.6308 11.1501 10.6011 11.2561C10.5545 11.3833 10.4739 11.4511 10.3552 11.4511C10.245 11.4299 10.1941 11.3663 10.1941 11.2561C10.1857 11.1883 10.1857 11.1374 10.1857 11.1035C10.1857 10.9255 10.2153 10.7517 10.2789 10.5779C10.3383 10.404 10.4188 10.243 10.5121 10.0946C10.4655 10.2302 10.4273 10.3447 10.4019 10.4422C10.3552 10.599 10.3298 10.722 10.3298 10.8068C10.3298 10.9212 10.3595 11.0357 10.4231 11.1544C10.4909 11.1671 10.546 11.1374 10.5841 11.0569C10.6265 10.9806 10.6604 10.9339 10.6944 10.9212ZM16.5952 15.9064C16.4044 16.1226 16.1755 16.2921 15.9084 16.4108C15.6414 16.5295 15.3531 16.5889 15.0479 16.5889C14.8359 16.5889 14.6198 16.5507 14.3951 16.4787C14.3357 16.4236 14.3018 16.3642 14.3018 16.2964C14.3018 16.2286 14.3315 16.148 14.3951 16.0505C14.4205 16.0039 14.4714 15.9403 14.5477 15.8682C14.624 15.7919 14.6706 15.7411 14.6918 15.7071C14.5774 15.6817 14.4714 15.5969 14.3781 15.4613C14.4205 15.3383 14.4968 15.2239 14.607 15.1222C14.7173 15.0162 14.8317 14.9653 14.9462 14.9653C15.0394 14.9653 15.1157 15.0035 15.1708 15.0755C15.1708 15.1306 15.1454 15.1773 15.0945 15.2112C15.0437 15.2493 14.9928 15.2832 14.9462 15.3171C14.9334 15.2239 14.8995 15.1688 14.8444 15.1561C14.7639 15.1476 14.6833 15.1815 14.6113 15.2578C14.624 15.3044 14.6579 15.3468 14.713 15.3807C14.7681 15.4146 14.8232 15.4443 14.8868 15.474C14.9504 15.5037 14.997 15.5164 15.0309 15.5164C15.0988 15.5164 15.192 15.4867 15.3065 15.4316C15.4209 15.3723 15.5057 15.3468 15.5608 15.3468C15.5142 15.4401 15.2811 15.5927 14.8571 15.8046C14.6791 15.8937 14.5943 15.9827 14.5943 16.0675C14.5943 16.1268 14.6282 16.2031 14.6961 16.2921C14.8741 16.3345 15.0437 16.3515 15.2047 16.3515C15.4549 16.3515 15.6965 16.3133 15.9339 16.2413C16.167 16.165 16.3917 16.059 16.5994 15.9149L16.5952 15.9064ZM19.7914 8.91613C19.749 8.65331 19.6431 8.31842 19.465 7.91995C19.376 7.70799 19.2361 7.39006 19.0369 6.96191L18.7317 7.52995C18.8673 8.60668 18.9903 9.62406 19.0962 10.5736C19.2064 11.5232 19.3082 12.4982 19.4014 13.5028C19.1852 13.6936 18.986 13.8462 18.8122 13.9606C18.596 14.1048 18.3798 14.2065 18.1721 14.2743C17.9813 14.3506 17.7736 14.3846 17.5405 14.3846C17.2565 14.3846 16.9809 14.3252 16.7223 14.2107C16.4595 14.0963 16.2306 13.9352 16.0271 13.7317C16.3111 13.6088 16.5443 13.524 16.7181 13.4774C16.9809 13.4011 17.2268 13.3672 17.4515 13.3672C17.4854 13.3672 17.5278 13.3672 17.5786 13.3714C17.6295 13.3714 17.6889 13.3799 17.7567 13.3884C17.7906 13.3078 17.8372 13.1934 17.9008 13.0408C17.9644 12.8882 18.0025 12.7567 18.0237 12.6338C17.638 12.4388 17.2098 12.2862 16.7435 12.176C16.2772 12.0658 15.8109 12.0149 15.3489 12.0149C14.8529 12.0149 14.412 12.0658 14.0263 12.1675C13.8101 12.1887 13.6872 12.3286 13.6617 12.5957C13.6363 12.8585 13.6024 13.0196 13.5685 13.0747L13.9033 12.9645C14.0729 13.0196 14.234 13.1001 14.3908 13.2146C14.5477 13.3248 14.6706 13.4477 14.7681 13.5749C14.2679 13.8208 13.7211 13.9988 13.1318 14.1132C13.1403 14.0242 13.1912 13.8886 13.2844 13.7063C13.3777 13.524 13.4286 13.3714 13.4286 13.2485C13.4286 13.0196 13.3311 12.8076 13.1318 12.6169C13.0089 12.5024 12.8139 12.371 12.5468 12.2184C12.2798 12.07 12.0127 11.9937 11.7499 11.9937C11.504 11.9937 11.2497 12.0573 10.9784 12.1887C10.7622 12.2904 10.5248 12.443 10.2662 12.6465C10.0882 12.7822 9.81263 13.028 9.43112 13.3884C9.10471 13.6936 8.85036 13.9098 8.66808 14.0412C8.55786 13.9988 8.46036 13.9267 8.36711 13.8165C8.27385 13.7063 8.18906 13.6046 8.10852 13.5028C8.04917 13.4435 7.96863 13.3968 7.87537 13.3672C7.78211 13.3375 7.68037 13.3205 7.57864 13.3205C7.4769 13.3205 7.3794 13.329 7.2819 13.3502C6.95549 13.4392 6.65028 13.5749 6.36626 13.7572C6.15006 13.8928 5.87876 14.1048 5.55235 14.3888C5.36159 14.5499 5.10301 14.7873 4.78084 15.101C4.25095 15.6181 3.90335 15.9488 3.73379 16.0971C3.50911 16.2879 3.28444 16.4575 3.06401 16.6058C2.98347 16.627 2.90293 16.6355 2.81814 16.6355C2.61467 16.6355 2.45782 16.5634 2.35184 16.4151C2.24163 16.2709 2.19076 16.0929 2.19076 15.8894C2.19076 15.6393 2.25011 15.4146 2.37304 15.2196C2.4663 14.995 2.56804 14.7873 2.66978 14.6007C2.77151 14.41 2.88173 14.2192 2.99618 14.0327C3.22086 14.0073 3.41585 13.8589 3.58542 13.5961C3.73379 13.3672 3.81009 13.1255 3.81009 12.8754C3.72955 12.9857 3.649 13.0874 3.56422 13.1891C3.50487 13.2485 3.43281 13.2824 3.35227 13.2824C3.23781 13.1383 3.15727 13.0068 3.11488 12.8797C3.07249 12.7525 3.04705 12.6084 3.04705 12.4473C3.04705 12.1675 3.15303 11.7987 3.36075 11.3366C3.62357 10.7601 3.77618 10.4125 3.81009 10.2896C3.72107 10.3913 3.64476 10.5015 3.57694 10.616C3.54303 10.6754 3.50487 10.7432 3.46672 10.8195C3.22086 11.2815 3.04281 11.6546 2.92836 11.9386C2.75032 12.3879 2.66554 12.7779 2.66554 13.1086C2.66554 13.1976 2.67401 13.3078 2.68673 13.4435C2.69945 13.5791 2.77151 13.7402 2.89869 13.9225C2.61467 14.3506 2.41543 14.6855 2.29674 14.9314C2.10174 15.3383 2 15.7114 2 16.0505C2 16.3896 2.10598 16.7118 2.31369 16.9958C2.33913 17.0043 2.39 17.017 2.45782 17.0382H2.6613C3.09368 17.0382 3.56846 16.7924 4.07715 16.2964C4.82323 15.5715 5.25562 15.1688 5.37007 15.0967C5.78974 14.7491 6.078 14.5287 6.23485 14.4354C6.58669 14.2107 6.90886 14.1005 7.20136 14.1005C7.39212 14.1005 7.57016 14.1429 7.73548 14.2235C7.90081 14.304 8.01102 14.393 8.06613 14.482C8.12124 14.5753 8.13819 14.6686 8.117 14.7618C7.95591 14.9653 7.79483 15.1688 7.63798 15.3723C7.4557 15.6181 7.36244 15.8258 7.36244 16.0039C7.40907 15.9573 7.62527 15.7156 8.01526 15.2832C8.15091 15.1264 8.2908 14.9865 8.43069 14.8551C8.81645 15.0458 9.27851 15.1391 9.81263 15.1391C10.0924 15.1391 10.3722 15.1179 10.6604 15.0713C10.9487 15.0289 11.2963 14.9695 11.7033 14.8932C11.7626 14.9017 11.8559 14.9144 11.9788 14.9356H12.2331C12.7334 14.9356 13.3777 14.7788 14.1662 14.4693C14.7003 14.2574 15.0733 14.1217 15.2768 14.0539C15.5481 14.3125 15.7728 14.5075 15.9466 14.6431C16.1925 14.8339 16.4298 14.978 16.6672 15.0798C16.8792 15.1561 17.0911 15.19 17.3073 15.19C17.5362 15.19 17.7736 15.1561 18.011 15.084C18.2484 15.0119 18.4688 14.9187 18.6723 14.8042C19.0326 14.6347 19.2955 14.3888 19.465 14.0709C19.6346 13.7529 19.7194 13.3926 19.7194 12.9941L19.3039 8.56853L19.3633 8.44559C19.5074 8.60668 19.6515 8.76776 19.7999 8.92461L19.7914 8.91613ZM8.18482 10.2091C8.20602 10.2854 8.17635 10.3574 8.10428 10.4337C8.00254 10.421 7.922 10.4125 7.85841 10.4125C7.80331 10.4125 7.76092 10.4252 7.727 10.4549C7.66766 10.5482 7.62103 10.7135 7.59559 10.9467C7.57016 11.1798 7.53201 11.3494 7.48538 11.4511C7.37516 11.396 7.28614 11.2773 7.20983 11.0908C7.13353 10.9043 7.06571 10.7856 7.00636 10.7305C6.98092 10.8322 6.93006 10.8534 6.85375 10.7898C6.75201 10.7474 6.68419 10.6923 6.65028 10.616C6.65028 10.5355 6.65875 10.4592 6.67995 10.3871C6.70114 10.315 6.7393 10.2557 6.80288 10.2091C6.98516 10.2642 7.14201 10.4252 7.26918 10.6965C7.37092 10.9127 7.43451 11.0442 7.46418 11.0823C7.49809 10.9043 7.532 10.7305 7.56592 10.5524C7.62103 10.3574 7.71852 10.2175 7.86265 10.137C7.9983 10.137 8.10852 10.1624 8.18906 10.2091H8.18482ZM6.00593 7.64441C6.01441 7.66984 6.00593 7.71223 5.98898 7.7631C5.97202 7.81397 5.95507 7.8606 5.93387 7.89875C5.89996 7.89875 5.84909 7.87332 5.7855 7.82245C5.72192 7.77158 5.66681 7.75462 5.61594 7.76734C5.57355 7.86908 5.53964 8.02168 5.50572 8.22516C5.42942 8.67874 5.37855 8.94581 5.35312 9.03059C5.62442 9.13233 5.83213 9.30613 5.97202 9.54775C5.93811 9.70884 5.75583 9.8021 5.42942 9.8233C5.09877 9.84449 4.89529 9.93351 4.81475 10.0988C4.91649 10.8322 5.02247 11.5656 5.12844 12.2947C5.12844 12.4727 5.11573 12.6423 5.08605 12.8034C5.06062 12.9645 5.00975 13.1255 4.94192 13.2824C4.97584 13.1595 4.99279 13.0196 4.99279 12.867C4.99279 12.8076 4.99279 12.7101 4.98432 12.5829C4.97584 12.4558 4.97584 12.354 4.97584 12.2862C4.97584 12.07 4.92073 11.7394 4.81475 11.2985C4.70454 10.8576 4.65367 10.5355 4.65367 10.332C4.65367 10.1751 4.6791 10.0522 4.72573 9.95471C4.77236 9.86145 4.87834 9.75547 5.03942 9.64102C5.11997 9.6071 5.20899 9.57743 5.29801 9.54775C5.38703 9.51808 5.48453 9.50536 5.57779 9.50536C5.47605 9.39091 5.35735 9.33156 5.2217 9.33156C5.20051 9.33156 5.17084 9.34004 5.12844 9.35276L5.03518 9.48417C5.00127 9.45873 4.98432 9.42906 4.98432 9.40363C5.00975 9.3358 5.04366 9.26374 5.07758 9.19167L5.28105 9.04754C5.12421 8.76353 4.9716 8.47951 4.82323 8.19125L4.77236 8.2506C4.70454 8.22516 4.63671 8.19125 4.57312 8.1531C4.50954 8.11495 4.45867 8.05984 4.42476 7.98353C4.42476 7.79277 4.47986 7.64017 4.58584 7.52571C4.74269 7.62745 4.88258 7.79701 5.00127 8.0344C5.19203 8.39896 5.29801 8.60244 5.32768 8.63635C5.37007 8.35657 5.40822 8.12766 5.44638 7.94962C5.48453 7.77158 5.55659 7.61473 5.66681 7.48756C5.73463 7.46637 5.79398 7.47061 5.84061 7.49604C5.88724 7.52147 5.94235 7.57234 6.0017 7.64017L6.00593 7.64441ZM16.3239 12.9433C16.2348 12.9857 16.0992 13.0535 15.9169 13.1467C15.7685 13.2061 15.6244 13.24 15.4888 13.24L15.1412 12.833C15.2429 12.8118 15.3362 12.8034 15.4252 12.8034C15.5015 12.8034 15.6075 12.8161 15.7474 12.8373C15.8872 12.8627 16.078 12.8966 16.3239 12.9433ZM12.9241 13.736C12.2713 14.0497 11.5507 14.2447 10.7579 14.3252C10.5418 14.3252 10.2747 14.3252 9.95252 14.321C9.63459 14.321 9.33786 14.2871 9.06655 14.2235C9.42688 13.9098 9.7872 13.5961 10.1433 13.2782C10.5969 12.9136 11.0165 12.7271 11.3938 12.7271C11.5379 12.7271 11.6778 12.7525 11.822 12.7991C12.1017 12.8924 12.3264 13.0026 12.5045 13.1255C12.7503 13.2951 12.886 13.4986 12.9199 13.736H12.9241Z" fill="white"/>
</svg>
