<svg width="24" height="24" viewBox="0 0 24 24" fill="none" xmlns="http://www.w3.org/2000/svg">
<path fill-rule="evenodd" clip-rule="evenodd" d="M21.9743 12.922C21.9807 13.0056 21.9871 13.0828 21.9936 13.1471C21.9936 13.2114 22 13.2629 22 13.3079C22 13.6101 21.9614 13.8931 21.8907 14.1696C21.8199 14.4462 21.7106 14.7613 21.5756 15.1214C21.6077 15.0185 21.6334 14.8963 21.6527 14.7548C21.672 14.6134 21.6785 14.4783 21.6785 14.3497C21.6785 14.0732 21.6463 13.7388 21.5756 13.3465C21.4791 12.8063 21.4277 12.4783 21.4212 12.3561L20.5981 7.34003C20.5016 7.21141 20.4566 7.06351 20.4566 6.88988C20.4566 6.74197 20.4887 6.59405 20.5595 6.43971C20.5916 6.36897 20.6752 6.22749 20.8039 6.01527C20.9904 6.33038 21.1576 6.70981 21.3055 7.14711C21.4277 7.53296 21.5177 7.9188 21.5756 8.30466L21.2026 7.73876L21.1383 7.81592L21.9743 12.922ZM15.9421 5.97669C15.8842 6.04743 15.8521 6.12461 15.8521 6.20821C15.8521 6.27895 15.8714 6.35612 15.9164 6.45258C15.9614 6.54905 15.9807 6.60692 15.9807 6.63265C15.9807 6.65837 15.9678 6.68408 15.9486 6.70338C15.9293 6.72267 15.8521 6.73554 15.7235 6.73554C15.4341 7.1021 15.1125 7.44935 14.7588 7.76447C14.4051 8.07958 14.0322 8.34969 13.6399 8.56191C14.283 7.93811 14.9325 7.30788 15.582 6.68409C15.5756 6.67765 15.492 6.61977 15.3376 6.51688C15.2347 6.44614 15.1833 6.3754 15.1833 6.29823C15.1833 6.24678 15.2026 6.18891 15.2476 6.1246C15.2926 6.06029 15.3376 5.98313 15.3891 5.88666C15.4662 5.78377 15.5498 5.71945 15.6463 5.69373C15.7492 5.67443 15.8264 5.71303 15.8778 5.8095C15.9035 5.86094 15.9228 5.91881 15.9421 5.97669ZM16.418 8.3947C16.4373 8.24036 16.4437 8.11174 16.4437 8.00884C16.4437 7.80949 16.4116 7.64873 16.3408 7.52011C16.2701 7.55226 16.2379 7.6037 16.2379 7.67444C16.2379 7.71946 16.2508 7.78377 16.283 7.8738C16.3151 7.96383 16.328 8.0217 16.328 8.04743C16.328 8.1053 16.3087 8.15676 16.2637 8.20178C16.2315 8.20821 16.1865 8.21463 16.135 8.21463C16.0386 8.21463 15.9807 8.1889 15.955 8.14388C15.9293 8.09887 15.9164 8.01527 15.9164 7.90595V7.70017C15.9164 7.57156 15.8971 7.48794 15.865 7.44292C15.8199 7.49437 15.8006 7.57155 15.8006 7.67444C15.8006 7.7066 15.8006 7.77091 15.8135 7.85451C15.8199 7.93811 15.8264 8.00241 15.8264 8.04743C15.8264 8.09244 15.8135 8.16319 15.7942 8.27251C15.7749 8.38183 15.6656 8.43328 15.4662 8.43328C15.3891 8.36254 15.3505 8.25965 15.3505 8.11174C15.3505 8.05386 15.3505 7.97026 15.3633 7.86736C15.3633 7.78376 15.3569 7.71946 15.3376 7.67444C15.2412 7.75805 15.1961 7.89953 15.1961 8.09888C15.2026 8.19535 15.2154 8.28538 15.2219 8.38184C15.2283 8.47831 15.2347 8.5619 15.2347 8.63907C15.2669 8.6648 15.3183 8.70338 15.3891 8.75483C15.4405 8.78055 15.5048 8.78697 15.582 8.76768C15.6527 8.76125 15.7106 8.7291 15.7556 8.67122C15.8006 8.61334 15.8457 8.55548 15.8907 8.48474C15.9421 8.49117 15.9743 8.50402 15.9936 8.51689C16.0129 8.52975 16.0514 8.53618 16.1222 8.53618C16.2572 8.53618 16.3601 8.49116 16.418 8.3947ZM10.5659 7.27573C10.5916 7.38506 10.5852 7.49437 10.5402 7.60369C10.4952 7.71302 10.4244 7.79663 10.3215 7.85451C10.2444 7.8738 10.1865 7.85451 10.1479 7.79663C10.1093 7.73875 10.0707 7.66159 10.0386 7.55869C10.0386 7.35934 10.0579 7.1857 10.0965 7.03779C10.135 6.88988 10.2058 6.74197 10.3087 6.60692C10.283 6.71624 10.2572 6.82556 10.2315 6.92202C10.2058 7.01849 10.1929 7.11496 10.1929 7.19857C10.1929 7.35291 10.2508 7.46865 10.3601 7.54582C10.4116 7.5008 10.4502 7.46223 10.4759 7.41721C10.5016 7.3722 10.5338 7.32718 10.5659 7.27573ZM19.7235 12.6133C19.7235 12.0217 19.5884 11.1664 19.3248 10.041C19.0611 8.9156 18.926 8.08601 18.926 7.54582C18.9711 7.57154 19.0354 7.66158 19.1318 7.81592C19.2026 7.92525 19.2669 7.9767 19.3376 7.9574C19.2862 7.64229 19.1833 7.30789 19.0289 6.95419C18.9711 6.82557 18.8167 6.51045 18.5659 6.00241C18.418 6.2082 18.2765 6.41398 18.1415 6.61977C18.2379 7.15997 18.373 7.86093 18.5531 8.7291C18.701 9.44292 18.8489 10.1632 18.9968 10.8899C19.1447 11.6166 19.2669 12.324 19.3633 12.9992C18.926 13.205 18.5016 13.3722 18.0965 13.5008C17.6913 13.6294 17.2733 13.713 16.8553 13.758C17.1833 13.6487 17.4405 13.4108 17.627 13.0506C17.7556 12.7998 17.8521 12.4719 17.9228 12.0603C17.8135 11.7773 17.5949 11.5523 17.2669 11.3915C16.9646 11.2886 16.6881 11.1857 16.4244 11.0892C16.1608 10.9928 15.9164 10.9413 15.6849 10.9413C15.0997 10.9413 14.4116 11.3593 13.6141 12.1889C13.0804 12.7484 12.7203 13.0957 12.5209 13.2307C12.6045 12.9799 12.6688 12.7291 12.7074 12.4783C12.746 12.2275 12.7653 11.9574 12.7653 11.6744C12.7653 11.2886 12.7331 10.877 12.6624 10.4397C12.4823 9.5201 12.3087 8.60049 12.135 7.67444C12.1929 7.65515 12.2637 7.6873 12.3408 7.76447C12.5145 7.94453 12.6302 8.03457 12.701 8.03457C12.5659 7.57798 12.4309 7.20498 12.3023 6.90273C12.1415 6.52331 11.9614 6.18891 11.7621 5.88666C11.7428 5.94454 11.6849 6.0603 11.5884 6.23394C11.492 6.40757 11.4405 6.54261 11.4405 6.6455C11.4405 6.71624 11.4662 6.78698 11.5177 6.86415C11.5691 7.28215 11.6849 7.90595 11.865 8.7291C12.045 9.55225 12.1672 10.1375 12.2251 10.4783C12.3473 11.1535 12.4051 11.7645 12.4051 12.3047C12.4051 12.6969 12.373 13.0764 12.3151 13.4365C12.2058 13.5715 12.09 13.713 11.9678 13.8609C11.8457 14.0088 11.717 14.0796 11.582 14.0796C11.5305 14.0796 11.4727 14.0667 11.4019 14.041C11.3055 13.7066 11.1383 13.4043 10.9003 13.1407C10.6238 12.8384 10.328 12.6712 10.0129 12.6391C9.67846 12.7227 9.42765 12.9413 9.25402 13.2822C9.15756 13.4687 9.06752 13.7966 8.97106 14.2596C9.00322 14.4397 9.09325 14.5748 9.2283 14.6712C9.27331 14.7034 9.51768 14.7934 9.96141 14.9413C10.0322 14.9735 10.1222 14.9928 10.2315 14.9928C10.283 14.9928 10.3601 14.9928 10.463 14.9799C10.5659 14.9735 10.6367 14.967 10.6817 14.967C10.8617 14.967 10.9775 15.0185 11.0289 15.1214C10.7267 15.4108 10.4373 15.6809 10.1543 15.9188C9.82637 16.1953 9.51768 16.4269 9.21543 16.6133C8.84887 16.8449 8.48875 17.0249 8.13505 17.16C7.78135 17.295 7.42122 17.3593 7.05466 17.3593C6.85531 17.3593 6.67524 17.3207 6.50161 17.2371C6.32797 17.1535 6.19936 17.0314 6.10289 16.8577C6.00643 16.7098 5.96141 16.5555 5.96141 16.3947C5.96141 16.2982 6.03215 16.041 6.1672 15.6101C6.22508 15.4236 6.25723 15.2564 6.25723 15.1214C6.07717 15.4815 5.94855 15.7709 5.87138 15.9831C5.74277 16.3432 5.67846 16.6648 5.67846 16.9477C5.67846 17.0828 5.69775 17.2307 5.7299 17.3786C5.76206 17.5265 5.81994 17.6744 5.90354 17.8095C5.98714 17.9445 6.10932 18.0603 6.2701 18.1439C6.43087 18.2275 6.61736 18.2854 6.82315 18.3111C7.2926 18.2661 7.76849 18.1503 8.24437 17.9574C8.72026 17.7645 9.16399 17.5201 9.57556 17.2243C9.98714 16.9285 10.3537 16.5748 10.6752 16.1696C10.9968 15.7645 11.2476 15.34 11.4277 14.9027C12.0129 14.8063 12.6302 14.7034 13.2862 14.5941C13.9421 14.4847 14.4823 14.3754 14.9003 14.2725C15.2604 14.3561 15.5756 14.4204 15.8521 14.459C16.1286 14.4976 16.418 14.5169 16.7267 14.5169C17.0804 14.5169 17.4212 14.4783 17.7621 14.4076C18.1029 14.3368 18.4051 14.2275 18.6817 14.0924C18.9582 14.0603 19.164 13.951 19.3055 13.7645C19.4469 13.578 19.5884 13.1986 19.7235 12.6133ZM11.0804 10.4397C11.0611 10.6005 11.0354 10.7355 11.0032 10.832C10.9711 10.9285 10.9003 11.0121 10.7974 11.0699C10.6945 11.0957 10.6238 11.0699 10.5852 10.9799C10.5466 10.8963 10.5209 10.8191 10.5016 10.7613C10.5016 10.5812 10.5338 10.3947 10.6045 10.1953C10.7074 9.95739 10.7781 9.77733 10.8232 9.65514C10.8232 9.72588 10.7974 9.84164 10.746 10.0153C10.6945 10.1889 10.6688 10.3175 10.6688 10.4011C10.6688 10.5233 10.701 10.6262 10.7717 10.7227C10.8682 10.742 10.926 10.6969 10.9582 10.6005C10.9904 10.504 11.0289 10.4461 11.0804 10.4397ZM14.9775 16.086C14.9196 16.2725 14.8103 16.4333 14.6624 16.5555C14.5145 16.6777 14.3408 16.7741 14.1479 16.832C13.955 16.8899 13.7428 16.9285 13.5113 16.9477C13.2797 16.967 13.0932 16.9799 12.9453 16.9992C13.2605 16.8449 13.4469 16.7484 13.4984 16.7034C13.7042 16.549 13.8264 16.3561 13.8714 16.1246C13.8971 16.0474 13.91 15.9638 13.91 15.8674C13.91 15.6616 13.8328 15.5072 13.6785 15.4043C13.6013 15.4043 13.537 15.4494 13.4855 15.5394C13.4341 15.6294 13.4019 15.6809 13.3826 15.6873C13.3633 15.5908 13.3955 15.4879 13.4662 15.3722C13.537 15.2564 13.6334 15.1664 13.7428 15.0957C13.8264 15.0957 13.8971 15.1278 13.9486 15.1921C14 15.2564 14.045 15.3336 14.0772 15.4301C14.0965 15.5137 14.1029 15.578 14.1029 15.623C14.1029 15.7452 14.0836 15.8738 14.0386 16.0217C13.9678 16.2532 13.9357 16.3754 13.9357 16.3818C14.0129 16.3047 14.09 16.2275 14.1672 16.1503C14.3215 16.0024 14.4823 15.9317 14.6431 15.9317C14.746 15.9317 14.8553 15.9831 14.9775 16.086ZM6 6.40113C6.00643 6.45257 6 6.50403 5.98714 6.54904C5.96785 6.59406 5.95498 6.63907 5.93569 6.68409C5.90354 6.68409 5.85209 6.66479 5.78135 6.61977C5.71061 6.57476 5.65916 6.55548 5.61415 6.55548C5.5627 6.55548 5.51768 6.58762 5.48553 6.65836C5.50482 6.74196 5.51125 6.8127 5.51125 6.86415C5.51125 6.96061 5.49196 7.07637 5.45981 7.22428C5.38264 7.55868 5.34405 7.75804 5.34405 7.82878C5.34405 7.95097 5.36977 8.04099 5.42765 8.1053C5.48553 8.16961 5.58842 8.22106 5.74276 8.25322C5.86495 8.33039 5.92283 8.42685 5.92283 8.54903C5.92283 8.60691 5.90354 8.68408 5.85852 8.76768C5.55627 8.76768 5.33762 8.78055 5.19614 8.8127C5.05466 8.84486 4.91961 8.92847 4.791 9.06351C4.84244 9.32075 4.90032 9.54581 4.9582 9.73231C5.08682 10.1117 5.21543 10.4847 5.34405 10.8641C5.42765 11.1921 5.47267 11.4815 5.47267 11.7388C5.47267 11.8995 5.45338 12.0667 5.42122 12.2275C5.38907 12.3883 5.33119 12.5555 5.25402 12.7162C5.29904 12.6198 5.33119 12.504 5.35691 12.369C5.38264 12.2339 5.3955 12.1117 5.3955 12.0088C5.3955 11.7773 5.35691 11.5394 5.27974 11.2886C5.26045 11.2307 5.209 11.0892 5.1254 10.8641C4.97749 10.4719 4.8746 10.176 4.81672 9.97669C4.71383 9.64228 4.66238 9.34004 4.66238 9.06351C4.66238 8.9349 4.7074 8.82557 4.79743 8.73553C4.88746 8.6455 5.00322 8.56833 5.15112 8.51045L5.38264 8.43328C5.30547 8.3754 5.209 8.34326 5.09968 8.34326C5.0418 8.34326 4.99035 8.36254 4.94534 8.3947L4.791 8.58762C4.73955 8.55546 4.73312 8.49758 4.7717 8.42684C4.81029 8.35611 4.82315 8.29823 4.81672 8.25322C4.84887 8.19534 4.90032 8.14389 4.97106 8.11174C5.0418 8.07958 5.11897 8.041 5.20257 7.99599C5.08039 7.76448 4.99035 7.59083 4.93248 7.48151C4.81029 7.27572 4.68167 7.14712 4.53376 7.09567C4.46302 7.11496 4.39228 7.10852 4.32154 7.0828C4.2508 7.05707 4.18006 7.03135 4.10932 7.00563C4.0836 6.95418 4.07074 6.90274 4.07074 6.85129C4.07074 6.79985 4.09003 6.7291 4.12862 6.63906C4.1672 6.54903 4.19936 6.48473 4.21865 6.44615C4.23794 6.40756 4.28296 6.38827 4.34084 6.38827C4.39228 6.38827 4.4373 6.40113 4.48231 6.42685C4.59164 6.51046 4.7074 6.63908 4.81672 6.81271C4.96463 7.06351 5.10611 7.30788 5.25402 7.54582C5.27974 7.46865 5.3119 7.25644 5.34405 6.91561C5.37621 6.57477 5.46624 6.34325 5.61415 6.22106C5.69132 6.24679 5.76849 6.27251 5.83923 6.29823C5.90997 6.32395 5.96785 6.35611 6 6.40113ZM8.71383 12.1117C8.71383 13.0056 8.10289 13.7773 6.88746 14.4397C6.32154 14.742 5.76206 15.0378 5.20257 15.3272C4.91318 15.4558 4.5209 15.578 4.03215 15.6873C3.35691 15.8352 2.67524 15.9767 2 16.1246C3.06109 15.6037 4.12862 15.0764 5.18971 14.5555C6.39871 13.9381 7.42122 13.3143 8.26367 12.6905C8.26367 12.4397 8.17363 12.0603 7.99357 11.5458C7.8135 11.0314 7.72347 10.6455 7.72347 10.3883C7.72347 10.2661 7.7299 10.1632 7.7492 10.0667C7.76849 9.97026 7.80707 9.86736 7.86495 9.75804L7.98071 9.6037C8.18649 9.80306 8.32154 9.93168 8.37942 10.0024C8.53376 10.1889 8.59164 10.3433 8.54662 10.4654C8.51447 10.459 8.47588 10.4461 8.44373 10.4397C8.41158 10.5362 8.39228 10.6391 8.39228 10.7484C8.39228 10.9027 8.44373 11.1343 8.55305 11.4365C8.66238 11.7388 8.71383 11.9638 8.71383 12.1117ZM15.7235 6.29823V6.23394C15.7235 6.1632 15.6913 6.11174 15.6334 6.06673C15.5627 6.03457 15.4984 6.04743 15.4405 6.10531C15.4469 6.15676 15.4855 6.19534 15.5434 6.2275C15.6013 6.25965 15.6656 6.27894 15.7235 6.29823ZM17.3569 12.7934C16.6688 13.0442 15.8778 13.2629 14.9775 13.4494C14.6881 13.5072 13.865 13.6552 12.5209 13.8867C12.9582 13.4558 13.3955 13.0314 13.8328 12.6005C14.373 12.086 14.8746 11.8288 15.3376 11.8288C15.5113 11.8288 15.6977 11.8609 15.9035 11.9317C16.2572 12.041 16.5273 12.1439 16.7267 12.2404C17.0161 12.3883 17.2283 12.5683 17.3569 12.7934ZM14.6817 16.3432L13.8971 16.6391C13.9743 16.5555 14.0579 16.4783 14.1415 16.4076C14.2251 16.3368 14.3087 16.2918 14.3859 16.2661C14.4952 16.2596 14.5981 16.2854 14.6817 16.3432ZM10.5916 14.0796C10.1994 14.0217 9.98714 13.9831 9.96141 13.9767C9.7299 13.9188 9.55627 13.8095 9.43408 13.6551C9.46624 13.5715 9.54341 13.5201 9.66559 13.5008C9.83923 13.5008 10.0064 13.5587 10.1672 13.6809C10.2379 13.7323 10.3794 13.8674 10.5916 14.0796Z" fill="white"/>
</svg>
