<svg width="24" height="24" viewBox="0 0 24 24" fill="none" xmlns="http://www.w3.org/2000/svg">
<path fill-rule="evenodd" clip-rule="evenodd" d="M21.9932 7.10045C22.0082 7.13045 21.9983 7.18044 21.9633 7.25043C21.9283 7.32043 21.9033 7.37042 21.8833 7.40042C20.5934 7.88038 19.4135 8.38033 18.3336 8.90029C18.3186 8.86029 18.3186 8.8203 18.3336 8.7803C18.4136 8.67531 18.4636 8.60532 18.4886 8.56532C19.6585 8.03037 20.8234 7.54041 21.9932 7.10045ZM18.7435 11.0351C18.5985 11.0351 18.5086 10.9501 18.4686 10.7851C18.4686 10.5851 18.4936 10.4002 18.5386 10.2252C18.5885 10.0552 18.6535 9.8802 18.7435 9.70522C18.7435 9.75521 18.7285 9.85521 18.6935 10.0052C18.6635 10.1552 18.6435 10.2752 18.6435 10.3652C18.6435 10.4952 18.6735 10.6001 18.7285 10.6901C18.7985 10.7301 18.8785 10.7151 18.9585 10.6501C19.0385 10.5801 19.0935 10.5101 19.1285 10.4302C19.1435 10.5501 19.1185 10.6701 19.0435 10.7901C18.9735 10.9101 18.8735 10.9951 18.7435 11.0401V11.0351ZM16.0438 8.87529C16.0588 8.94029 16.0688 8.98528 16.0688 9.02028C16.0688 9.16527 16.0188 9.29526 15.9138 9.41525C15.7788 9.49524 15.6788 9.44524 15.6138 9.27026C15.6038 9.23026 15.6038 9.17527 15.6038 9.10027C15.6038 8.95529 15.6488 8.7853 15.7338 8.58532C15.8538 8.31534 15.9238 8.14536 15.9388 8.08036C15.9538 8.13036 15.9638 8.17035 15.9638 8.20035C15.9638 8.27035 15.9338 8.38533 15.8738 8.53532C15.8138 8.68531 15.7838 8.7903 15.7838 8.8453C15.7838 8.94029 15.8288 9.01528 15.9138 9.07528C15.9538 9.01028 15.9988 8.94529 16.0438 8.87029V8.87529ZM16.7637 6.74048L10.9192 8.72031C10.8242 8.7853 10.7242 8.8503 10.6192 8.92529C10.5143 8.99528 10.4543 9.08527 10.4393 9.19026C11.8791 8.68031 13.324 8.16535 14.7689 7.6554C15.2088 7.50541 15.6538 7.35043 16.0988 7.20044C16.3887 7.08045 16.6087 6.93046 16.7587 6.74548L16.7637 6.74048ZM20.9983 14.6598C20.9983 14.7798 20.9683 14.8598 20.9133 14.9048C20.8584 14.9498 20.7784 14.9698 20.6734 14.9698C20.6334 14.9698 20.5634 14.9698 20.4684 14.9598C20.3734 14.9498 20.2984 14.9498 20.2534 14.9498C20.1734 14.9498 20.1034 14.9598 20.0484 14.9798C19.9934 14.9998 19.9434 15.0398 19.9034 15.0947C19.9684 15.3847 20.0034 15.5447 20.0134 15.5847C20.0534 15.7847 20.0734 15.9547 20.0734 16.0997C20.0734 16.2197 20.0634 16.3346 20.0384 16.4496C20.0384 16.3196 19.9934 16.1197 19.8984 15.8447C19.8084 15.5697 19.7584 15.3697 19.7584 15.2497C19.7584 15.1397 19.7784 15.0398 19.8234 14.9498C19.8684 14.8598 19.9434 14.7798 20.0584 14.7098L20.4884 14.6148C20.4334 14.5598 20.3584 14.5298 20.2584 14.5298C20.2184 14.5298 20.1784 14.5398 20.1384 14.5648C20.0834 14.6198 20.0084 14.6598 19.9234 14.6848C19.9484 14.6698 20.0084 14.5748 20.1034 14.4098C20.1734 14.2798 20.2734 14.2198 20.3934 14.2198C20.5134 14.2348 20.6234 14.2848 20.7284 14.3698C20.8334 14.4548 20.9183 14.5498 20.9933 14.6648L20.9983 14.6598ZM20.6984 11.0701C20.6284 10.9401 20.5084 10.8801 20.3384 10.8801C20.2884 10.8801 20.2484 10.8801 20.2184 10.8901C19.9934 11.0751 19.8284 11.2901 19.7185 11.5301C19.6085 11.775 19.4985 12.25 19.3885 12.9499C19.2935 12.9899 19.2035 13.0099 19.1235 13.0099C19.0735 13.0099 19.0135 12.9999 18.9385 12.9849C18.8635 12.9699 18.7935 12.9549 18.7285 12.9499C18.5835 12.8799 18.4736 12.78 18.3986 12.66C18.3236 12.54 18.2736 12.405 18.2486 12.25L17.7786 12.8999L18.0886 14.2098C17.1787 14.7848 16.0788 15.3447 14.7989 15.8897C13.664 16.3446 12.5291 16.7996 11.3892 17.2596C11.6992 17.1396 11.9391 17.0646 12.1041 17.0296C12.2691 16.9996 12.7491 16.9296 13.549 16.8246C14.3589 16.6396 15.0089 16.4596 15.5038 16.2846C16.2388 16.0297 16.8387 15.7347 17.3037 15.3947C17.8736 14.9848 18.3036 14.4848 18.5985 13.8849C18.9685 13.8849 19.3035 13.8299 19.6085 13.7249C19.9134 13.6149 20.2034 13.4549 20.4834 13.2399C20.6584 12.9199 20.7734 12.695 20.8184 12.57C20.9233 12.305 20.9733 12.06 20.9733 11.84C20.9733 11.5451 20.8783 11.2901 20.6834 11.0701H20.6984ZM10.1043 7.84038C10.0793 7.88038 10.0443 7.97037 9.9943 8.10536C9.9443 8.24035 9.88431 8.33534 9.81432 8.39533C9.61433 8.39533 9.50434 8.30534 9.47935 8.13036C9.45435 7.96037 9.47935 7.80039 9.54934 7.6404C9.65933 7.44042 9.74432 7.29043 9.79932 7.19544C9.79932 7.23544 9.78432 7.30043 9.74932 7.38542C9.67933 7.58541 9.63933 7.72039 9.63933 7.79539C9.63933 7.91538 9.68933 8.01037 9.79432 8.08536C9.85931 8.09536 9.90931 8.05536 9.94931 7.97037C9.9893 7.88538 10.0393 7.84538 10.0943 7.84538L10.1043 7.84038ZM13.559 10.1902L13.449 10.4802C13.419 10.4802 13.379 10.4702 13.339 10.4552C13.244 10.4152 13.184 10.3952 13.159 10.3952C13.119 10.3952 13.084 10.4102 13.049 10.4452C13.024 10.5101 12.969 10.7051 12.889 11.0351C12.8041 11.3651 12.7091 11.6051 12.5941 11.755C12.5391 11.685 12.4841 11.5701 12.4241 11.4201C12.2941 11.0901 12.2091 10.8901 12.1591 10.8201C12.1091 10.8451 12.0441 10.8501 11.9541 10.8301C11.8641 10.8151 11.7891 10.7901 11.7191 10.7601C11.6492 10.7301 11.6192 10.6801 11.6192 10.6151C11.6192 10.5751 11.6292 10.5351 11.6442 10.4902C11.6592 10.4452 11.6742 10.4002 11.6942 10.3502C11.7441 10.2952 11.7941 10.2352 11.8491 10.1702C11.9141 10.1552 11.9591 10.1452 11.9941 10.1452C12.0591 10.1452 12.1041 10.1602 12.1391 10.1952C12.2291 10.2902 12.3041 10.4202 12.3691 10.5801C12.4641 10.8101 12.5591 11.0451 12.6591 11.2751C12.7391 10.9801 12.8041 10.7601 12.849 10.6151C12.939 10.3502 13.074 10.1802 13.259 10.1002L13.559 10.1952V10.1902ZM13.509 15.6847L12.909 16.1547L12.2141 15.8647L11.6992 16.3796C11.4492 16.2496 11.2042 16.1247 10.9542 15.9947C11.0192 15.8647 11.0892 15.7547 11.1692 15.6597C11.2492 15.5647 11.3592 15.4497 11.4942 15.3247C11.7991 15.3947 12.0541 15.5297 12.2641 15.7197C12.3191 15.6897 12.4141 15.5897 12.5541 15.4247C12.6891 15.2597 12.7991 15.1797 12.879 15.1797C12.944 15.1797 13.009 15.2097 13.069 15.2647C13.099 15.3147 13.189 15.3697 13.329 15.4397C13.469 15.5097 13.529 15.5897 13.514 15.6847H13.509ZM7.63951 11.1351C7.63951 11.2151 7.61951 11.3051 7.58451 11.4001C7.54951 11.4951 7.50452 11.5901 7.44452 11.675C7.34953 11.725 7.27954 11.745 7.23954 11.745C7.18455 11.745 7.13955 11.715 7.10955 11.66C7.05456 11.5501 7.02456 11.4251 7.02456 11.2901C7.02456 11.1401 7.06456 10.9701 7.14455 10.7801C7.22454 10.5901 7.30454 10.4102 7.38453 10.2352C7.39453 10.3402 7.35453 10.4901 7.27454 10.6901C7.19455 10.8901 7.15455 11.0251 7.15455 11.1001C7.15455 11.1751 7.17455 11.2351 7.20954 11.2901C7.24454 11.3451 7.31453 11.3901 7.41953 11.4201C7.48952 11.3251 7.56451 11.2301 7.63451 11.1301L7.63951 11.1351ZM16.0888 12.225C15.9838 11.77 15.9038 11.4651 15.8488 11.3201C15.7938 11.1701 15.7138 11.0351 15.6088 10.9051L15.3188 11.5901C15.3188 11.6201 15.4088 11.87 15.5838 12.335C15.6388 12.485 15.6688 12.64 15.6688 12.79C15.2188 12.9799 14.7589 13.1499 14.2839 13.2899C13.809 13.4299 13.329 13.5299 12.849 13.5949C12.6191 13.6249 12.4091 13.6499 12.2191 13.6599C12.0291 13.6699 11.8541 13.6799 11.6842 13.6799C11.0442 13.6799 10.4343 13.6049 9.84931 13.4499C9.60933 13.2799 9.42435 13.1249 9.29936 12.9799C9.11438 12.7799 9.00439 12.585 8.96439 12.39C8.92439 12.415 8.8894 12.46 8.8544 12.52C8.8244 12.585 8.77441 12.68 8.70941 12.8099C8.58942 12.785 8.47443 12.775 8.35944 12.775C8.16946 12.775 7.94948 12.8099 7.7095 12.8849C7.53952 12.9349 7.33953 13.0049 7.10955 13.0999C6.76458 13.2299 6.40961 13.4299 6.03965 13.7099C5.86466 13.8399 5.53969 14.1098 5.06973 14.5248C4.64477 14.8948 4.3198 15.1547 4.08482 15.3147C3.72485 15.5647 3.36488 15.7447 3.00491 15.8547C2.70994 15.8547 2.48496 15.7247 2.33497 15.4597C2.26498 15.3797 2.22498 15.2747 2.22498 15.1497C2.22498 15.0598 2.23998 14.9648 2.26498 14.8598C2.29497 14.7548 2.32497 14.6548 2.35497 14.5598C2.45996 14.3998 2.61995 14.1498 2.83493 13.8149C3.02491 13.5349 3.20489 13.3099 3.36488 13.1449C3.60486 13.0499 3.77984 12.8799 3.89483 12.635C4.00482 12.39 4.06482 12.125 4.06482 11.835C4.02482 11.85 3.96483 11.935 3.87984 12.08C3.79484 12.23 3.69485 12.29 3.57486 12.265C3.41488 12.12 3.30489 11.975 3.24489 11.825C3.1849 11.675 3.1549 11.5051 3.1549 11.3151C3.1549 11.0201 3.25489 10.6401 3.45487 10.1752C3.74485 9.51024 3.89483 9.15027 3.90983 9.09527C3.79984 9.28526 3.60486 9.61023 3.33488 10.0652C2.93492 10.7851 2.73494 11.4001 2.73494 11.915C2.73494 12.125 2.76493 12.325 2.82993 12.525C2.89492 12.725 2.99991 12.9149 3.1399 13.0999C2.74993 13.6299 2.51995 13.9398 2.45496 14.0348C2.23998 14.3798 2.09499 14.7148 2.025 15.0448C2.01 15.1397 2 15.2147 2 15.2747C2 15.4747 2.045 15.6597 2.13999 15.8347C2.22998 16.0047 2.35997 16.1697 2.51995 16.3196C2.70494 16.3896 2.86992 16.4296 3.02491 16.4296C3.43987 16.4296 3.94983 16.1497 4.54978 15.5897C4.97474 15.1997 5.24972 14.9598 5.3797 14.8698C6.06964 14.3998 6.47961 14.1248 6.6146 14.0548C7.10955 13.7849 7.56451 13.6449 7.98448 13.6449C8.16946 13.6449 8.37444 13.6749 8.60942 13.7399C8.60942 14.1148 8.71941 14.4748 8.94439 14.8198C9.14438 15.1247 9.41435 15.3897 9.74932 15.6247C9.81432 15.4747 9.87931 15.3197 9.93931 15.1697C10.0693 14.8648 10.1293 14.5998 10.1293 14.3798C10.3793 14.4448 10.6142 14.4898 10.8392 14.5098C11.0642 14.5348 11.3092 14.5448 11.5692 14.5448C11.9991 14.5448 12.4391 14.5098 12.889 14.4348C13.339 14.3648 13.774 14.2648 14.1989 14.1348C14.6239 14.0048 15.0589 13.8449 15.5088 13.6549C15.7088 13.5249 15.8488 13.3099 15.9288 13.0049C15.9688 12.8349 16.0238 12.575 16.0988 12.215L16.0888 12.225ZM6.17963 7.03045C6.15464 7.15044 6.10964 7.24543 6.04965 7.32043C5.93966 7.27043 5.83966 7.25043 5.75967 7.25043C5.70468 7.25043 5.65468 7.26543 5.61468 7.30043C5.53469 7.40542 5.4797 7.6404 5.4447 8.00037C5.4147 8.36534 5.35471 8.60032 5.27471 8.71531C5.28471 8.7303 5.3897 8.8053 5.59969 8.94529C5.75967 9.05528 5.83966 9.16027 5.83966 9.25526C5.83966 9.32525 5.79967 9.40525 5.71967 9.48524C5.52969 9.48524 5.32971 9.51024 5.12973 9.56523C4.92974 9.61523 4.73476 9.69022 4.53978 9.78521C4.53978 10.0102 4.57477 10.2752 4.63977 10.5851C4.70976 10.8951 4.76976 11.1751 4.82475 11.4301C4.87975 11.685 4.90975 11.925 4.90975 12.15C4.90975 12.335 4.88975 12.51 4.84975 12.67C4.80975 12.8349 4.73976 12.9949 4.64477 13.1549C4.69476 13.0499 4.72976 12.9349 4.75476 12.7999C4.77976 12.67 4.78976 12.55 4.78976 12.445C4.78976 12.26 4.76476 12.065 4.71976 11.855C4.70476 11.765 4.65977 11.6001 4.57977 11.3551C4.50478 11.1101 4.44479 10.8951 4.39979 10.7151C4.35479 10.5301 4.3348 10.3652 4.3348 10.2252C4.3348 10.0852 4.3448 9.9652 4.36479 9.8852C4.38479 9.80021 4.42479 9.70022 4.48978 9.58023C4.55478 9.49024 4.65477 9.43024 4.78976 9.39025C5.12473 9.28526 5.31471 9.22026 5.35471 9.18527C5.20472 9.05528 5.03473 9.00528 4.84975 9.03028C4.81975 9.07028 4.78976 9.10527 4.76476 9.13027C4.73976 9.16027 4.70976 9.17027 4.66977 9.16027C4.69476 8.93029 4.81475 8.7703 5.02974 8.69031L5.21972 8.71531C5.12473 8.48533 5.04973 8.30534 4.98974 8.18535C4.88475 7.97037 4.76976 7.85038 4.63977 7.82538C4.61477 7.80039 4.54978 7.75539 4.44979 7.69539C4.3448 7.6304 4.2748 7.57041 4.2348 7.51541C4.2348 7.34043 4.2748 7.18544 4.35479 7.06045C4.57977 7.12545 4.76976 7.28043 4.92974 7.53041C4.98474 7.6204 5.09973 7.84538 5.26471 8.21535C5.35471 7.72039 5.4147 7.43542 5.4447 7.36542C5.50969 7.20544 5.60468 7.06545 5.73467 6.94546C5.79967 6.93046 5.87966 6.94046 5.97465 6.97546C6.06964 7.01046 6.13464 7.03545 6.16464 7.04045L6.17963 7.03045ZM8.08947 15.0348C8.11446 15.1297 8.08947 15.2197 8.02447 15.3047C7.95448 15.3897 7.90948 15.4447 7.88449 15.4647C7.82949 15.4747 7.7545 15.4747 7.65451 15.4747C7.46452 15.4747 7.33453 15.4847 7.26954 15.5047C7.20455 15.5247 7.13955 15.6047 7.06456 15.7497C6.83958 15.8997 6.49961 16.0397 6.04465 16.1697C5.73967 16.2496 5.52969 16.3096 5.4097 16.3496C5.4897 16.2846 5.83466 16.1247 6.43961 15.8697C6.86457 15.6847 7.12955 15.4597 7.24454 15.1847C7.33453 14.9748 7.47452 14.8048 7.6745 14.6698C7.7695 14.6598 7.85449 14.6948 7.91948 14.7648C7.98948 14.8348 8.03947 14.9248 8.07947 15.0298L8.08947 15.0348ZM20.5184 12.48L19.7484 12.8649C19.7484 12.8649 19.7584 12.7999 19.7584 12.745C19.7484 12.68 19.7484 12.615 19.7484 12.545V12.335C19.7484 12.2 19.7684 12.085 19.8134 11.985C19.8584 11.89 19.9384 11.825 20.0584 11.795C20.2684 11.825 20.4034 11.935 20.4684 12.12C20.4784 12.145 20.4934 12.2 20.5234 12.28C20.5534 12.365 20.5484 12.43 20.5184 12.48ZM7.7745 15.1697C7.7445 15.1947 7.6995 15.1997 7.64451 15.1797C7.58951 15.1647 7.53952 15.1397 7.49952 15.1097C7.49952 15.0048 7.53952 14.9698 7.61951 14.9998C7.6895 15.0398 7.7445 15.0947 7.7745 15.1697Z" fill="white"/>
</svg>
