<svg width="24" height="24" viewBox="0 0 24 24" fill="none" xmlns="http://www.w3.org/2000/svg">
<path fill-rule="evenodd" clip-rule="evenodd" d="M22 13.3175C22 13.6393 21.9849 13.9157 21.9584 14.1504C21.9319 14.3851 21.8789 14.6349 21.7994 14.8999C21.7994 14.2753 21.7577 13.5939 21.6706 12.8556C21.6214 12.4544 21.5268 11.7767 21.3829 10.8189C21.2391 9.86114 21.1406 9.16078 21.0876 8.71028C21.0384 8.65728 21.0157 8.58914 21.0157 8.50964C21.0157 8.43014 21.0536 8.33549 21.1331 8.21813C21.2429 8.0667 21.3034 7.97206 21.3148 7.93799C21.5344 8.41499 21.6669 8.71785 21.7161 8.84656C21.8561 9.19863 21.9394 9.52042 21.9697 9.8195C21.9016 9.65671 21.7918 9.50149 21.6328 9.35764L21.5419 9.54692C21.5419 9.94064 21.5874 10.4063 21.6782 10.9476C21.8902 12.2007 21.9962 12.9919 21.9962 13.3175H22ZM18.9752 8.13863C18.9373 8.2787 18.8351 8.37714 18.661 8.43771C18.4868 8.49828 18.3241 8.55128 18.1651 8.60049C17.7032 8.72921 17.1808 8.91092 16.594 9.1532C16.0867 9.37278 15.5756 9.58478 15.0683 9.79678C15.0683 9.72864 15.0948 9.67185 15.144 9.61885C15.1933 9.56585 15.2614 9.51664 15.3409 9.46743C16.5523 9.0245 17.7638 8.58157 18.9752 8.13106V8.13863ZM18.8011 11.2467C18.8011 11.3186 18.7897 11.3868 18.7632 11.4511C18.7405 11.5155 18.7026 11.5874 18.6534 11.6745C18.6118 11.6745 18.5663 11.6518 18.5209 11.6101C18.4755 11.5685 18.4452 11.5117 18.4263 11.4474C18.4073 11.3792 18.3998 11.2884 18.3998 11.1748C18.3998 10.9552 18.4566 10.7811 18.5739 10.6486C18.5626 10.6978 18.5474 10.7659 18.5285 10.853C18.5096 10.9401 18.502 11.0082 18.502 11.0574C18.502 11.1407 18.5133 11.2126 18.5323 11.2656C18.555 11.3186 18.5928 11.3754 18.6534 11.4284C18.6837 11.4209 18.7064 11.3944 18.7253 11.3414C18.7443 11.2884 18.7556 11.2581 18.7632 11.2467H18.8011ZM17.9644 10.0466C17.9758 10.0845 17.972 10.1224 17.9455 10.1602C17.9228 10.1981 17.9076 10.2246 17.9076 10.2359C17.8849 10.2473 17.8433 10.2359 17.7903 10.1905C17.7108 10.1299 17.6653 10.0959 17.654 10.0921C17.5821 10.1905 17.5215 10.3533 17.4723 10.5842C17.4231 10.8151 17.3852 10.9704 17.3549 11.0461C17.2943 10.9855 17.2111 10.8265 17.1013 10.5729C17.0483 10.4517 16.9877 10.3533 16.9271 10.2814C16.9385 10.3344 16.912 10.3684 16.8514 10.376C16.7871 10.3836 16.753 10.3911 16.7454 10.3987C16.7076 10.3495 16.6924 10.3003 16.6924 10.2549C16.6924 10.2132 16.7038 10.164 16.7227 10.111C16.7454 10.058 16.7643 10.0088 16.7833 9.96714C16.8022 9.9255 16.8211 9.90278 16.8476 9.90278C16.8893 9.92171 16.9196 9.93307 16.9385 9.94064C17.0293 10.0315 17.1051 10.1526 17.1694 10.3003C17.2338 10.4479 17.2943 10.5918 17.3549 10.7319C17.4041 10.5274 17.442 10.3609 17.4723 10.2397C17.5328 10.005 17.6123 9.88386 17.707 9.88386C17.7751 9.88386 17.8584 9.93686 17.9606 10.0466H17.9644ZM14.9396 9.27435L14.8753 9.37278C14.8753 9.10778 14.8677 8.92985 14.8563 8.84656C14.826 8.65349 14.7617 8.49071 14.667 8.36578C14.667 8.24463 14.7049 8.1727 14.7844 8.1462C14.8525 8.22948 14.9018 8.33927 14.9396 8.46799C14.9775 8.5967 14.9926 8.72542 14.9926 8.85414C14.9926 8.99421 14.9737 9.13427 14.9396 9.27056V9.27435ZM20.2737 13.1812C20.2737 12.6588 20.2131 12.0607 20.0958 11.3868C19.9784 10.7129 19.8686 10.0656 19.7626 9.44849L19.8459 9.35764C19.8762 9.38792 19.9216 9.43335 19.9822 9.49014C20.0428 9.54693 20.0806 9.59992 20.0996 9.64913C20.0996 9.45606 20.0276 9.19106 19.88 8.85792C19.6907 8.42256 19.5847 8.15378 19.5544 8.04778C19.4636 8.10078 19.3916 8.19163 19.3424 8.31656C19.2894 8.44149 19.2667 8.55885 19.2667 8.67621C19.4068 9.475 19.5506 10.3003 19.6983 11.1521C19.8459 12.0039 19.9557 12.7799 20.0314 13.4841C19.8194 13.6847 19.5961 13.8475 19.3651 13.9687C19.1304 14.0936 18.8881 14.1807 18.6345 14.2261C18.3241 14.2261 18.1196 14.2185 18.0174 14.1996C17.7941 14.1617 17.6275 14.0709 17.5177 13.927C17.9228 13.6431 18.3581 13.4803 18.8276 13.4349L19.0358 12.8178C18.6913 12.7042 18.343 12.6134 17.9947 12.5452C17.6464 12.4771 17.3019 12.4468 16.965 12.4468C16.7 12.4468 16.435 12.4733 16.17 12.5301C15.905 12.5831 15.6703 12.6701 15.4658 12.7837C15.4583 12.8443 15.4355 12.9314 15.3977 13.0412C15.3598 13.1547 15.3371 13.238 15.3371 13.2986C15.3371 13.3402 15.3371 13.3743 15.3447 13.397C15.3636 13.4046 15.3825 13.397 15.4053 13.3743C15.428 13.3516 15.4469 13.344 15.4658 13.344C15.5264 13.3327 15.5718 13.3251 15.6021 13.3251C15.7422 13.3251 15.8785 13.3667 16.011 13.4538C16.1018 13.5144 16.276 13.6809 16.5296 13.9535C16.329 14.0557 16.1889 14.1239 16.1132 14.1542C15.9542 14.2223 15.8065 14.2677 15.6665 14.2904C15.4128 14.2904 15.1857 14.245 14.9888 14.1542C14.792 14.0633 14.6368 13.9194 14.5194 13.7264C14.4172 13.2342 14.3528 12.6437 14.3301 11.9547C14.3074 11.2656 14.2847 10.5994 14.2658 9.96336C14.2279 9.24407 14.1408 8.63834 14.0008 8.1462C13.9402 8.20677 13.8872 8.29763 13.838 8.41877C13.8153 8.47934 13.7774 8.5702 13.7282 8.69134C13.8077 9.05477 13.872 9.48635 13.9175 9.98228C13.9667 10.4782 14.0121 10.9552 14.0538 11.4095C14.0613 11.4511 14.0727 11.5193 14.0916 11.6101V11.9471C14.0916 12.0455 14.0916 12.2007 14.084 12.4203C14.0765 12.6399 14.0765 12.8027 14.0765 12.9124C14.0765 13.3781 14.1219 13.7529 14.2128 14.0292C14.3339 14.4002 14.5535 14.6766 14.8677 14.8659C15.0305 14.9264 15.2008 14.9567 15.375 14.9567C15.6097 14.9567 15.8406 14.9113 16.0602 14.8204C16.2798 14.7296 16.4993 14.6047 16.7189 14.4494C16.7871 14.3662 16.8476 14.3207 16.9082 14.3207C16.9763 14.3207 17.0634 14.3813 17.177 14.4987C17.2906 14.616 17.3701 14.6842 17.4193 14.7031C17.6843 14.8469 17.9796 14.9227 18.3013 14.9227C18.7556 14.9227 19.1418 14.8053 19.4636 14.5668C19.7248 14.4343 19.9254 14.2412 20.0693 13.9952C20.2131 13.7453 20.2813 13.4765 20.2813 13.185L20.2737 13.1812ZM15.886 11.1748C15.8974 11.2543 15.8936 11.3376 15.8709 11.4246C15.8482 11.5117 15.8103 11.5836 15.7573 11.6366C15.6778 11.6556 15.621 11.648 15.5908 11.6139C15.5605 11.5799 15.5264 11.5231 15.4961 11.4474C15.4885 11.4171 15.4885 11.3641 15.4885 11.2921C15.4885 11.1634 15.5113 11.0347 15.5529 10.8984C15.5945 10.7621 15.6513 10.6334 15.7157 10.5123C15.7157 10.5615 15.6968 10.6561 15.6627 10.7924C15.6248 10.9325 15.6097 11.0385 15.6097 11.1104C15.6097 11.1786 15.621 11.2354 15.64 11.2846C15.6627 11.3338 15.7005 11.3754 15.7611 11.4133L15.8898 11.1786L15.886 11.1748ZM13.4594 8.13863C13.4594 8.18785 13.4329 8.23706 13.3837 8.28249C13.3307 8.33171 13.2777 8.36578 13.2171 8.38092C12.5508 8.63457 12.0511 8.82763 11.718 8.95256C11.1198 9.18349 10.6315 9.40306 10.2567 9.61506C10.2794 9.44092 10.393 9.30843 10.5974 9.22136C10.8018 9.13428 10.9949 9.051 11.1842 8.9715C11.9413 8.69135 12.7023 8.41499 13.4632 8.13484L13.4594 8.13863ZM13.096 9.54692C13.0278 9.45607 12.9483 9.41064 12.8499 9.41064C12.7401 9.50907 12.6682 9.62263 12.6379 9.75513C12.6038 9.88763 12.5735 10.058 12.5433 10.2624C12.4448 10.0618 12.3843 9.94064 12.3615 9.89899C12.2934 9.78542 12.2101 9.67942 12.1079 9.58099C12.07 9.58099 12.0398 9.59235 12.0095 9.61885C11.9981 9.67185 11.9716 9.75893 11.9375 9.8725C11.9375 9.93307 11.9602 9.9785 12.0095 10.0088C12.1003 10.0315 12.1533 10.0277 12.1647 9.98986C12.2177 10.0504 12.2934 10.1867 12.3918 10.3987C12.4335 10.4971 12.4751 10.5729 12.5205 10.6259C12.6038 10.3041 12.6909 9.98228 12.7742 9.66428C12.8537 9.62642 12.937 9.66428 13.0278 9.78164C13.0392 9.75892 13.0619 9.71728 13.0922 9.66428C13.1035 9.62264 13.1073 9.58099 13.0998 9.54692H13.096ZM18.1196 15.3694C17.9568 15.57 17.7638 15.7328 17.5442 15.8653C17.3246 15.994 17.0899 16.0622 16.8401 16.0622C16.7378 16.0622 16.6243 16.0432 16.5031 16.0092C16.435 15.9675 16.4047 15.8994 16.4047 15.8085V15.7555C16.4161 15.7328 16.4236 15.7177 16.4236 15.7101C16.4918 15.6079 16.5296 15.5473 16.541 15.5284C16.5826 15.4602 16.6281 15.4034 16.6773 15.3542C16.6356 15.3315 16.594 15.2975 16.5599 15.2558C16.5221 15.2142 16.5069 15.1725 16.5069 15.1271C16.5069 15.0892 16.5258 15.0589 16.5599 15.0287C16.5902 14.9757 16.6356 14.9227 16.7 14.8697C16.7643 14.8167 16.8211 14.7939 16.8779 14.7939C16.9385 14.7939 16.9877 14.828 17.0218 14.8924C17.0407 14.934 17.0331 14.9719 17.0028 15.0022C16.9536 15.0324 16.9196 15.0552 16.9044 15.0665C16.8855 15.0779 16.859 15.0627 16.8173 15.0173C16.7795 14.9719 16.7416 14.9605 16.7113 14.987C16.6924 15.0249 16.7 15.0627 16.7303 15.1006C16.7606 15.1384 16.8136 15.1687 16.8931 15.1877C16.9536 15.2066 17.0218 15.1952 17.1013 15.1612C17.2338 15.1006 17.3057 15.0703 17.3095 15.0703C17.2981 15.1612 17.1732 15.2596 16.9423 15.3694C16.7076 15.4792 16.594 15.5662 16.594 15.6344C16.594 15.695 16.647 15.7631 16.7492 15.8426C16.7871 15.8502 16.8401 15.8502 16.912 15.8502C17.124 15.8502 17.3284 15.8085 17.5291 15.729C17.7297 15.6457 17.9266 15.5322 18.1196 15.3807V15.3694ZM9.80617 9.61885L9.76831 9.66428C9.82131 9.50528 9.8516 9.32356 9.8516 9.11913C9.8516 8.97528 9.83646 8.84657 9.80996 8.73299C9.78346 8.61942 9.73424 8.5172 9.66988 8.41877C9.67746 8.4112 9.6926 8.38471 9.7191 8.33171C9.7456 8.27871 9.77589 8.2522 9.80617 8.24463C9.91974 8.41499 9.98031 8.61942 9.98031 8.86171C9.98031 9.12292 9.92353 9.37278 9.80617 9.61506V9.61885ZM10.3967 10.6902C10.4157 10.7281 10.4232 10.7621 10.4232 10.8C10.4232 10.8416 10.4157 10.8833 10.4043 10.9211C10.393 10.959 10.3702 11.0271 10.34 11.118C10.287 11.1369 10.2377 11.118 10.1961 11.0726C10.1545 11.0234 10.1204 10.9628 10.0977 10.8909C10.0901 10.8416 10.0901 10.8076 10.0901 10.7811C10.0901 10.6524 10.109 10.535 10.1431 10.4252C10.1507 10.4063 10.181 10.3419 10.234 10.2359C10.2415 10.2851 10.234 10.3609 10.215 10.4631C10.1961 10.5653 10.1885 10.6259 10.1885 10.6448C10.1885 10.7432 10.2264 10.8114 10.3059 10.853L10.3967 10.6902ZM13.6033 13.1055C13.6108 13.0676 13.6108 13.0147 13.6108 12.9427C13.6108 12.549 13.361 12.2461 12.8575 12.0341C12.1912 11.7502 11.8012 11.542 11.6839 11.4057C11.7331 11.3527 11.7823 11.2921 11.8391 11.2316C11.5476 11.0877 11.2561 10.9401 10.9684 10.7962C10.9267 10.8795 10.8965 10.9704 10.8775 11.065C10.8586 11.1596 10.8397 11.277 10.8132 11.4246C11.0138 11.6366 11.2372 11.8335 11.487 12.0152C11.5476 12.0569 11.6915 12.1553 11.9148 12.3067C12.0246 12.3976 12.2934 12.5339 12.725 12.7156C13.0657 12.8556 13.2928 13.0298 13.4064 13.2418C12.5773 13.7377 11.7483 14.2337 10.9154 14.7334C10.7261 14.8167 10.5444 14.9037 10.3627 14.987C10.2415 15.04 10.1317 15.0703 10.0371 15.0703C9.92731 15.0703 9.8251 15.0324 9.72667 14.9605C9.65474 14.8697 9.61688 14.7561 9.61688 14.616C9.61688 14.5365 9.63203 14.4457 9.66231 14.3434C9.6926 14.2412 9.72288 14.1542 9.75317 14.0898C9.81374 14.1201 9.91217 14.1693 10.0447 14.2337C10.1431 14.2829 10.2302 14.3397 10.3097 14.4078C10.393 14.3775 10.4762 14.298 10.5557 14.1731C10.5974 14.1049 10.658 14.0027 10.7375 13.8627C10.5936 13.7529 10.5027 13.6885 10.4649 13.6734C10.3665 13.6204 10.2756 13.5901 10.1847 13.5901C10.1052 13.5901 10.0371 13.6128 9.98031 13.662C9.92353 13.7112 9.87431 13.7983 9.82889 13.927C9.87053 13.7453 9.90839 13.6204 9.93867 13.556C9.99924 13.4235 10.0863 13.3326 10.2037 13.2834C10.2945 13.0336 10.3475 12.8821 10.3665 12.8216C10.4195 12.6323 10.4497 12.4657 10.4497 12.3219C10.4497 12.2197 10.4346 12.1212 10.4081 12.0304C10.3816 11.9395 10.3362 11.8562 10.2756 11.7767C10.1847 11.7767 10.1166 11.8486 10.075 11.9963C10.0068 12.2196 9.97274 12.337 9.96517 12.3408C10.075 12.4544 10.1393 12.5944 10.1545 12.7572C10.0939 12.8254 10.0106 12.8708 9.90081 12.9011C9.84024 12.9124 9.78346 12.9238 9.72667 12.9389C9.55631 12.9806 9.42003 12.9162 9.31781 12.7496C9.25724 12.5149 9.2156 12.2726 9.19667 12.0304C9.17395 11.7881 9.16638 11.5079 9.16638 11.1861C9.16638 11.0271 9.16638 10.8681 9.17017 10.7054C9.17017 10.5426 9.17395 10.3798 9.17395 10.2132C9.17395 9.78921 9.15881 9.41821 9.13231 9.104C9.10581 8.78978 9.04524 8.49071 8.95438 8.20299C8.89381 8.27114 8.84081 8.36199 8.7916 8.48313C8.76888 8.54371 8.73102 8.64213 8.68181 8.77463C8.80295 9.32735 8.87867 9.86871 8.90895 10.4063C8.93924 10.9439 8.95438 11.6139 8.95438 12.4203V12.9579C8.95438 13.1812 9.05281 13.3743 9.24588 13.5295C9.29888 13.5598 9.34431 13.5787 9.3746 13.5901C9.40488 13.5976 9.44653 13.6052 9.50331 13.6052C9.59417 13.5977 9.68503 13.5901 9.77589 13.5787C9.78724 13.6469 9.76831 13.7302 9.72288 13.8324C9.65096 13.9762 9.60931 14.0671 9.60553 14.0974C9.58281 14.0141 9.5071 13.9422 9.38596 13.8892C9.22317 13.8172 9.12474 13.7642 9.09445 13.7339C8.99603 13.8021 8.91652 13.8816 8.84838 13.9762C8.78024 14.0709 8.72724 14.1769 8.6856 14.298C8.83702 14.3813 8.99224 14.4684 9.14745 14.5517C9.2156 14.5138 9.29131 14.4381 9.37838 14.3169C9.46546 14.1958 9.52981 14.1163 9.57524 14.0822C9.53738 14.2412 9.5071 14.3927 9.47681 14.5441C9.40867 14.8583 9.37838 15.1271 9.37838 15.3429C9.42003 15.4527 9.47303 15.5435 9.53738 15.6154C9.60174 15.6874 9.68124 15.729 9.77967 15.7442C10.234 15.6722 10.8397 15.411 11.5968 14.9643C12.0738 14.6804 12.4221 14.4873 12.6417 14.3813C12.9256 14.2299 13.149 14.0595 13.3155 13.874C13.5162 13.6431 13.6146 13.3932 13.6146 13.1207L13.6033 13.1055ZM7.97009 9.06992C7.94738 9.1797 7.92845 9.26678 7.91709 9.33492C7.90574 9.40307 7.86788 9.45985 7.80731 9.50906C7.75809 9.52799 7.71645 9.51664 7.68616 9.48257C7.65209 9.44471 7.62559 9.41064 7.59909 9.37278C7.57638 9.30464 7.56123 9.2327 7.56123 9.1532C7.56123 9.06235 7.57638 8.97907 7.60288 8.89957C7.62938 8.82007 7.67481 8.74057 7.73538 8.6535C7.73538 8.68378 7.72781 8.72164 7.71645 8.77085C7.68616 8.89957 7.67102 8.98663 7.67102 9.03585C7.67102 9.14563 7.71645 9.22513 7.80731 9.27056C7.83002 9.2592 7.85274 9.22513 7.87545 9.16456C7.89816 9.10777 7.92845 9.0737 7.97009 9.06992ZM11.7217 13.2948C11.7104 13.4273 11.6915 13.5219 11.6687 13.5749C11.6271 13.6734 11.559 13.7339 11.4681 13.7567C11.4378 13.768 11.4075 13.7642 11.381 13.7377C11.3545 13.715 11.3205 13.662 11.275 13.5825C11.2637 13.5522 11.2561 13.5181 11.2561 13.4841V13.4008C11.2561 13.3099 11.2712 13.2229 11.2977 13.1434C11.3242 13.0639 11.3621 12.973 11.4113 12.8746C11.4 12.9162 11.3886 12.9692 11.3735 13.0336C11.3621 13.0979 11.3545 13.1585 11.3545 13.2191C11.3545 13.3478 11.3924 13.4462 11.4643 13.5181C11.5173 13.5257 11.5703 13.4992 11.6195 13.4462C11.6687 13.3743 11.7028 13.3213 11.718 13.291L11.7217 13.2948ZM13.4935 14.9567C13.3496 15.0665 13.1376 15.1801 12.865 15.3012C12.1912 15.6117 11.8164 15.7858 11.7369 15.8274C11.8164 15.7177 11.911 15.623 12.0284 15.5359C12.142 15.4527 12.4221 15.305 12.865 15.1006C13.096 14.9908 13.2663 14.8962 13.3837 14.8204L13.4935 14.9567ZM6.12644 8.55885L6.07344 8.73299L5.83873 8.5967C5.7403 8.93742 5.64566 9.27056 5.54723 9.60371C5.49801 9.56206 5.41851 9.40306 5.31251 9.13049C5.22923 8.91849 5.10808 8.82763 4.94908 8.85792C4.89987 8.82763 4.87715 8.78978 4.87715 8.74056C4.87715 8.71027 4.88851 8.66485 4.91501 8.60428C4.93773 8.54371 4.95287 8.50207 4.95287 8.47557C5.02101 8.40364 5.08158 8.38092 5.13458 8.4112C5.21408 8.4907 5.27844 8.58914 5.32387 8.71028C5.46773 9.06235 5.55101 9.25163 5.56994 9.28192C5.61158 9.22892 5.64944 9.10778 5.67973 8.91849C5.7403 8.54749 5.80844 8.36578 5.88794 8.36578C5.9258 8.36578 5.95987 8.37714 5.99394 8.40364C6.02801 8.42635 6.07344 8.47935 6.13402 8.55885H6.12644ZM6.94416 10.5653C6.82302 10.7394 6.70187 10.9136 6.58073 11.0839C6.47852 11.0158 6.38009 10.9628 6.28544 10.9174C6.1908 10.8719 6.07344 10.8189 5.93716 10.7584C5.88416 10.7886 5.83116 10.8568 5.77816 10.959C5.72516 11.0612 5.67594 11.1331 5.62673 11.1672C5.51694 11.1483 5.41473 11.1218 5.32387 11.0801C5.22923 11.0423 5.1308 10.9893 5.02858 10.9211C5.0778 10.8303 5.12701 10.7356 5.1838 10.6334C5.2368 10.535 5.31251 10.4517 5.40337 10.3911C5.47151 10.3836 5.56237 10.4176 5.68351 10.4858C5.80466 10.5539 5.88794 10.5918 5.93716 10.5918C5.99016 10.5918 6.03937 10.5615 6.08102 10.5009L6.36116 10.2283C6.44444 10.2283 6.54287 10.2662 6.64887 10.3457C6.75487 10.4252 6.8533 10.4971 6.94416 10.5653ZM3.48401 10.8454C3.46508 11.0347 3.41586 11.2164 3.32879 11.3906C3.2455 11.5647 3.13193 11.7086 2.99186 11.8184C2.90857 11.8373 2.83286 11.8184 2.77229 11.7691C2.71172 11.7161 2.67007 11.6518 2.64357 11.5723C2.61329 11.4322 2.59815 11.2694 2.59815 11.0801C2.59815 10.6978 2.68143 10.3079 2.84422 9.90657C2.97293 9.59614 3.16222 9.25163 3.41586 8.86927C3.30608 9.13049 3.20008 9.38792 3.09786 9.64157C2.97672 9.96335 2.91615 10.2397 2.91615 10.4669C2.91615 10.6069 2.93129 10.7319 2.96536 10.8379C2.99943 10.9476 3.05622 11.0574 3.14329 11.1748C3.22279 11.1748 3.28715 11.1331 3.34393 11.0461C3.42343 10.9136 3.46886 10.8416 3.48022 10.8379L3.48401 10.8454ZM5.12701 12.4884C5.12701 12.6209 5.11944 12.7307 5.10051 12.8102C5.08158 12.8935 5.03615 12.9541 4.96423 12.9957C4.92637 13.0071 4.8923 13.0033 4.85444 12.9881C4.7863 12.9276 4.74087 12.8897 4.71815 12.8708C4.68787 12.7913 4.67272 12.7004 4.67272 12.5982C4.67272 12.4771 4.69544 12.3559 4.73708 12.2386C4.77872 12.1212 4.83551 12.0076 4.91122 11.8979C4.86201 12.0871 4.8128 12.2689 4.76737 12.4506C4.76737 12.5793 4.82037 12.6853 4.93015 12.7686C4.99073 12.761 5.03237 12.7156 5.0513 12.6323C5.07401 12.549 5.09673 12.4998 5.12701 12.4884ZM8.19724 13.98C8.22752 13.9308 8.24267 13.8778 8.24267 13.8172C8.24267 13.7491 8.21617 13.7036 8.15938 13.6734C8.12909 13.6734 8.07609 13.6658 8.00416 13.6544H7.84895C7.10316 13.7869 6.36116 13.9194 5.62294 14.0557C5.47151 14.0747 5.23301 14.1087 4.90365 14.1542C4.64244 14.1844 4.39258 14.1996 4.15029 14.1996C3.79444 14.1996 3.48401 14.1466 3.22279 14.0444C2.91993 13.9232 2.68143 13.7226 2.5035 13.4462C2.45429 13.3629 2.424 13.2872 2.40886 13.2267C2.39372 13.1661 2.38614 13.0866 2.38614 12.9919C2.38614 12.8481 2.42779 12.6512 2.51486 12.4014C2.62465 12.0758 2.68522 11.8941 2.69657 11.8562C2.44672 12.2499 2.29529 12.5036 2.23472 12.6209C2.07571 12.9314 2 13.2115 2 13.4652C2 13.6582 2.04543 13.8551 2.13629 14.0557C2.371 14.3283 2.64357 14.5252 2.954 14.6463C3.219 14.7485 3.53322 14.8015 3.88908 14.8015C4.96044 14.6084 6.03559 14.4116 7.11452 14.2109C7.18266 14.192 7.23188 14.1807 7.26973 14.1731C7.30759 14.1655 7.3568 14.1655 7.42495 14.1655C7.55745 14.1655 7.65588 14.192 7.71645 14.2488C7.63695 14.4078 7.41738 14.6236 7.05395 14.9037C6.73216 15.146 6.54287 15.3769 6.4823 15.5927C6.88737 15.3088 7.20159 15.0703 7.41738 14.8734C7.75052 14.5782 8.01174 14.2791 8.19724 13.9838V13.98ZM17.6729 13.2153C17.5631 13.2834 17.4533 13.3478 17.3473 13.4121C17.2376 13.4765 17.1429 13.5068 17.0672 13.5068C16.9953 13.5068 16.9309 13.4841 16.8703 13.4387C16.8136 13.3932 16.7568 13.3175 16.7038 13.2153C16.6659 13.1774 16.6508 13.1509 16.6583 13.132H16.7757C16.8552 13.132 16.9915 13.1358 17.1846 13.1472C17.3776 13.1547 17.5404 13.1774 17.6767 13.2153H17.6729Z" fill="white"/>
</svg>
