<svg width="24" height="24" viewBox="0 0 24 24" fill="none" xmlns="http://www.w3.org/2000/svg">
<path fill-rule="evenodd" clip-rule="evenodd" d="M21.3402 5.20013C21.3182 5.42741 21.1569 5.58137 20.8563 5.66934C20.3871 5.79398 20.1305 5.87463 20.0938 5.90395C19.3534 6.18988 18.6056 6.46847 17.8651 6.75439C17.0367 7.08431 16.3035 7.42154 15.6804 7.75145C15.7463 7.58283 15.8123 7.46553 15.871 7.38488C15.9663 7.24559 16.0836 7.17228 16.2082 7.15028C17.3299 6.68108 18.1804 6.3365 18.7449 6.10923C19.7126 5.728 20.5777 5.42741 21.3402 5.20013ZM20.0352 8.99779C20.0059 9.15175 19.9765 9.30571 19.9472 9.45234C19.8886 9.62829 19.7786 9.72359 19.6246 9.74559C19.5586 9.75292 19.5 9.7236 19.4633 9.65029C19.4267 9.57697 19.3974 9.52565 19.3754 9.49632C19.346 9.38635 19.3314 9.28371 19.3314 9.17374C19.3314 8.97579 19.3754 8.77051 19.4633 8.54324C19.4853 8.49192 19.5367 8.37462 19.6246 8.19134C19.6026 8.33797 19.588 8.4846 19.566 8.63122C19.544 8.77785 19.5367 8.87315 19.5367 8.90981C19.5367 9.07843 19.566 9.2104 19.6246 9.30571C19.7346 9.36436 19.8152 9.3277 19.8739 9.20307C19.9326 9.07844 19.9839 9.00513 20.0352 8.99779ZM18.5543 8.10336C18.4443 8.00806 18.349 7.92008 18.261 7.8541C18.085 7.70747 17.9238 7.60482 17.7771 7.54617L17.2933 8.13269C17.1979 8.22799 17.1466 8.31597 17.1466 8.39662C17.1466 8.49192 17.2639 8.60189 17.5059 8.72653C17.7478 8.85116 17.8871 8.96114 17.9384 9.05645C18.2097 8.78519 18.415 8.4626 18.5543 8.10336ZM21.6628 13.7632C21.5455 13.7998 20.9443 14.0931 19.8592 14.6283C19.1041 15.0022 18.4809 15.1855 17.9824 15.1855C17.7845 15.1855 17.5938 15.1635 17.3959 15.1122C17.1979 15.0608 17.0073 14.9802 16.824 14.8629C16.4795 14.6063 16.2155 14.3204 16.0323 14.0051C15.849 13.6899 15.7537 13.338 15.7537 12.9567C15.7537 12.8468 15.7537 12.7661 15.7683 12.7075C16.6114 12.3849 17.2786 12.1723 17.7845 12.0696C18.2903 11.967 18.7595 11.9157 19.1994 11.9157C19.5147 11.9157 19.8226 11.945 20.1378 12.0037C19.8666 11.6884 19.5073 11.4831 19.0674 11.3878C18.8328 11.3365 18.415 11.3145 17.8211 11.3145C17.2273 11.3145 16.6554 11.5418 16.1202 12.0037C15.6437 12.4142 15.2918 12.9127 15.0792 13.4993C15.0792 14.401 15.4384 15.1635 16.1496 15.8013C15.8343 15.8013 15.5484 15.7427 15.2845 15.6254C15.0205 15.5081 14.8079 15.3248 14.654 15.0682C14.4194 14.1811 14.2507 13.1107 14.1408 11.8717C14.1114 11.5418 14.0528 10.5594 13.9721 8.9318C13.8915 7.30424 13.7815 6.08724 13.6422 5.28812C13.5029 5.38343 13.3856 5.53005 13.2757 5.72799C13.195 5.90395 13.1217 6.0799 13.0411 6.25585C13.2537 7.50952 13.3856 8.3013 13.4223 8.64588C13.5323 9.48899 13.5836 10.3028 13.5836 11.0946C13.6496 12.033 13.7302 13.0081 13.8255 14.0198C13.9208 15.0315 14.1481 15.8526 14.522 16.4758C14.7199 16.6444 14.9252 16.7617 15.1452 16.835C15.3651 16.9084 15.5997 16.945 15.8416 16.945C16.2595 16.945 16.8534 16.791 17.6158 16.4905C18.063 16.3145 18.3856 16.1899 18.5836 16.1239C18.8182 15.9479 19.1481 15.7793 19.5806 15.6107C20.4824 15.2588 21.0323 14.9875 21.2375 14.7896L21.6628 13.7632ZM15.7097 10.0682C15.5704 10.5007 15.4971 10.7207 15.4897 10.7427C15.4238 10.8893 15.3358 11.0139 15.2405 11.1239C15.3578 11.0066 15.4384 10.882 15.4751 10.75C15.5117 10.618 15.5337 10.4567 15.5337 10.2734C15.5337 10.1048 15.4897 9.75292 15.4018 9.20307C15.3651 8.94647 15.3504 8.76318 15.3578 8.64588C15.5117 8.78518 15.6144 8.96114 15.651 9.18108C15.6877 9.40102 15.7097 9.69427 15.7097 10.0682ZM12.2786 5.62536C12.1393 5.86729 12.0513 6.05791 12 6.1972C11.912 6.42447 11.868 6.63709 11.868 6.84237C11.868 7.01099 11.912 7.17227 12 7.3409C12.0587 7.33356 12.1026 7.28958 12.1246 7.20894C12.1466 7.12829 12.1833 7.0843 12.2199 7.07697C12.1979 7.24559 12.1686 7.37755 12.132 7.48019C12.0953 7.58283 12.022 7.65614 11.9267 7.70746C11.868 7.7148 11.8167 7.70747 11.7801 7.66348C11.7434 7.62682 11.6994 7.56084 11.6481 7.47287C11.6408 7.38489 11.6334 7.31891 11.6334 7.26759C11.6334 6.967 11.6921 6.66641 11.8094 6.38049C11.9267 6.09456 12.0806 5.83797 12.2786 5.62536ZM22 17.2383C21.8021 17.4362 21.6041 17.6048 21.3915 17.7515C21.1789 17.8981 20.9443 18.0154 20.6877 18.1107C20.4311 18.206 20.1745 18.25 19.9326 18.25C19.6906 18.25 19.4487 18.1987 19.1847 18.0887C19.1041 18.0594 19.0674 17.9934 19.0674 17.8981C19.0674 17.8174 19.0968 17.7515 19.1554 17.6928C19.2654 17.5095 19.412 17.3189 19.5953 17.1356C19.5587 17.1283 19.522 17.1063 19.4927 17.077C19.4633 17.0476 19.4267 17.0037 19.3754 16.945C19.4047 16.8057 19.4707 16.6811 19.5733 16.5564C19.676 16.4318 19.8006 16.3292 19.9472 16.2412C20.0425 16.2339 20.1452 16.2632 20.2405 16.3438C20.2331 16.3951 20.2038 16.4391 20.1525 16.4905C20.1012 16.5418 20.0572 16.5858 20.0059 16.6371C19.9106 16.6004 19.8446 16.5784 19.8152 16.5784C19.7786 16.5784 19.7346 16.6078 19.6833 16.6664C19.7933 16.791 19.9252 16.857 20.0792 16.857C20.1305 16.857 20.1818 16.8424 20.2478 16.813C20.3138 16.7837 20.3798 16.7544 20.4457 16.7177C20.5117 16.6811 20.5704 16.6664 20.6217 16.6664C20.563 16.835 20.2918 17.0403 19.8006 17.2822C19.5733 17.3922 19.434 17.5315 19.3754 17.7075C19.4927 17.7881 19.61 17.8394 19.7199 17.8688C19.8299 17.8981 19.9545 17.9127 20.0938 17.9127C20.3651 17.9127 20.695 17.8321 21.0762 17.6635C21.3768 17.5168 21.6847 17.3776 22 17.2383ZM10.7243 7.8541C10.607 8.12536 10.5411 8.28665 10.5191 8.32331C10.4238 8.50659 10.3211 8.65321 10.2111 8.76318C10.0938 8.72653 9.93988 8.65321 9.74927 8.54324C9.55865 8.43327 9.44868 8.37462 9.41935 8.35263C9.44868 8.206 9.51466 8.04471 9.62463 7.86876C9.7346 7.6928 9.83724 7.52418 9.93255 7.35556C10.1965 7.42154 10.4604 7.59017 10.7243 7.8541ZM9.09677 6.97433C9.06745 7.26025 9.03812 7.43621 9.00147 7.51685C8.96481 7.5975 8.90616 7.65614 8.81818 7.70746C8.70088 7.75878 8.6129 7.74413 8.56158 7.67082C8.51026 7.5975 8.47361 7.53152 8.46628 7.47287C8.46628 7.23093 8.4956 6.98166 8.55425 6.73973C8.56158 6.68108 8.69355 6.30717 8.93548 5.62536C8.92815 5.706 8.87683 5.88929 8.78886 6.17521C8.70088 6.46113 8.65689 6.68107 8.65689 6.8277C8.65689 7.06231 8.73754 7.2236 8.90616 7.31157C8.93548 7.28225 8.96481 7.22359 8.99414 7.13562C9.02346 7.04764 9.06012 6.99632 9.09677 6.97433ZM7.61584 5.85997C7.59384 5.91862 7.57918 5.9626 7.55718 5.99192C7.52053 5.99926 7.46188 5.99192 7.38856 5.95527C7.31525 5.91861 7.26393 5.90395 7.2346 5.90395C7.20528 5.90395 7.16862 5.91861 7.1173 5.94794C7.05132 6.08723 7.00733 6.3365 6.98534 6.69574C6.96334 7.05498 6.93402 7.31891 6.8827 7.47287C6.77273 7.38489 6.67009 7.26025 6.57478 7.09163C6.31085 6.62242 6.16422 6.37315 6.1349 6.34383L6.09091 6.4758C5.94428 6.43914 5.84897 6.40248 5.80499 6.38049C5.761 6.35849 5.71701 6.29984 5.66569 6.21187C5.68768 6.08723 5.70235 5.95526 5.72434 5.81597C5.761 5.66201 5.84897 5.60336 5.97361 5.64002C6.14956 5.77932 6.30352 5.96261 6.44281 6.20454C6.58211 6.44648 6.71408 6.67375 6.83871 6.90102C6.83871 6.46114 6.84604 6.18987 6.86803 6.09456C6.92669 5.80131 7.06598 5.60337 7.29325 5.4934C7.38856 5.51539 7.47654 5.54471 7.54985 5.58137C7.62317 5.61803 7.65982 5.67668 7.65982 5.74266C7.65982 5.77199 7.64516 5.80865 7.61584 5.85997ZM7.55718 8.07403L7.46921 8.45527C7.32991 8.40395 7.2346 8.38195 7.18328 8.38195H7.05865C6.77273 8.38195 6.53079 8.46993 6.32551 8.64588C6.32551 8.93913 6.3695 9.27639 6.46481 9.65029C6.56012 10.0242 6.65542 10.3834 6.75073 10.728C6.78006 10.882 6.80938 11.0652 6.83871 11.2705C6.86804 11.4758 6.8827 11.6591 6.8827 11.813C6.8827 12.1869 6.81672 12.5388 6.67742 12.8688C6.70675 12.7735 6.72874 12.6488 6.73607 12.5022C6.7434 12.3556 6.75073 12.2749 6.75073 12.2676C6.75073 12.0256 6.73607 11.8277 6.70674 11.6737C6.67742 11.5198 6.56745 11.1166 6.3695 10.4641C6.30352 10.2368 6.23754 10.0095 6.18622 9.76758C6.1349 9.52564 6.10557 9.32037 6.10557 9.14442C6.10557 8.82184 6.17888 8.53591 6.32551 8.29398C6.3915 8.206 6.49414 8.14002 6.61877 8.10336C6.7434 8.06671 6.83871 8.03737 6.89736 8.01538C6.78739 7.9494 6.69941 7.91274 6.61877 7.91274C6.56012 7.91274 6.5088 7.93474 6.45748 7.97139L6.32551 8.10336C6.32551 8.10336 6.30352 8.04472 6.31085 7.95674C6.31818 7.86876 6.34751 7.78811 6.39883 7.70746C6.45015 7.58283 6.56745 7.51685 6.7654 7.51685C6.84604 7.51685 6.93402 7.52418 7.02933 7.54617C7.05865 7.5755 7.15396 7.65615 7.30792 7.79545C7.43255 7.90542 7.52053 7.99339 7.55718 8.07403ZM7.68915 14.1737C7.6085 14.3497 7.47654 14.4377 7.27859 14.4377C7.21261 14.4377 7.15396 14.4303 7.1173 14.4083C7.05865 14.3497 7.02199 14.2617 7 14.1444C6.97801 14.0271 6.97067 13.9611 6.97067 13.9391C6.97067 13.7705 7.00733 13.6019 7.07331 13.4333C7.1393 13.2646 7.22727 13.096 7.33724 12.9421C7.34457 13.03 7.33724 13.1254 7.30792 13.2353C7.21261 13.5506 7.16129 13.7192 7.16129 13.7485C7.16129 13.8732 7.21994 13.9758 7.33724 14.0564C7.41789 14.0564 7.4912 14.0125 7.55718 13.9245C7.57918 13.8952 7.62317 13.8218 7.68915 13.7045C7.75513 13.7412 7.79179 13.7998 7.79179 13.8658C7.79179 13.9171 7.79179 13.9538 7.77713 13.9831C7.72581 14.0784 7.69648 14.1444 7.68915 14.1737ZM12.4399 16.1239C12.4106 16.3585 12.2419 16.5271 11.9267 16.6371C11.4795 16.791 11.2229 16.8937 11.1642 16.945C10.3358 17.3189 9.55132 17.6855 8.81818 18.0594C8.90616 17.7661 9.14809 17.5388 9.55132 17.3702C10.1158 17.1356 10.4457 16.9817 10.5337 16.9157C10.7683 16.835 11.0103 16.7471 11.2522 16.6371C11.9633 16.3218 12.3592 16.1532 12.4399 16.1239ZM11.8387 11.9157C11.6921 11.6004 11.4721 11.3438 11.1862 11.1459C10.9003 10.9479 10.585 10.8233 10.2551 10.772C9.79325 10.772 9.45601 11.0139 9.22874 11.5051C9.11144 11.7691 8.96481 12.1869 8.78886 12.7661C8.85484 13.096 9.02346 13.3233 9.28739 13.4406C9.48534 13.5286 9.76393 13.5726 10.1232 13.5726C10.2478 13.5726 10.3724 13.5726 10.4971 13.5726C10.6217 13.5726 10.739 13.5652 10.8563 13.5652C10.915 13.5652 10.9809 13.5652 11.0616 13.5726C11.1422 13.5726 11.2302 13.5872 11.3255 13.5946C11.4062 13.5946 11.4648 13.6386 11.5015 13.7192C11.5381 13.7998 11.5821 13.8805 11.6188 13.9611C10.585 14.3204 9.55132 14.6796 8.52493 15.0315C8.05572 15.1195 7.57918 15.3248 7.08798 15.6473C6.79472 15.8453 6.37683 16.1825 5.82698 16.6591C5.21114 17.1943 4.79326 17.5462 4.58065 17.7001C4.11144 18.0447 3.64956 18.272 3.18768 18.3893C2.89443 18.36 2.63783 18.2353 2.41056 18.0081C2.32258 17.9201 2.26393 17.8248 2.22727 17.7295C2.19062 17.6341 2.17595 17.5168 2.17595 17.3776C2.17595 17.2089 2.19062 17.0696 2.22727 16.945C2.26393 16.8204 2.31525 16.6811 2.38123 16.5125C2.70381 16.0506 3.02639 15.596 3.34897 15.1342C3.73754 14.6063 4.1261 14.2471 4.50733 14.0638C4.62463 13.9098 4.71994 13.7412 4.79326 13.5579C4.86657 13.3746 4.90323 13.1987 4.90323 13.0227C4.90323 13.0007 4.90323 12.9421 4.88856 12.8468C4.88123 12.7515 4.85924 12.6708 4.82991 12.6122C4.74927 12.6415 4.69062 12.7075 4.65396 12.8174C4.58798 13.0447 4.51466 13.1693 4.44135 13.1913C4.36804 13.2133 4.31672 13.228 4.28739 13.228C4.11877 13.228 4.00147 13.162 3.93548 13.0374C3.8695 12.8614 3.81818 12.7075 3.79619 12.5755C3.77419 12.4435 3.75953 12.2822 3.75953 12.099C3.75953 11.6664 3.89883 11.1019 4.18475 10.3981C4.51466 9.56963 4.71261 9.02712 4.77126 8.77052C4.59531 9.02712 4.44135 9.27638 4.31672 9.51832C4.14809 9.8409 3.95015 10.3028 3.71554 10.9113C3.62023 11.2559 3.5176 11.6151 3.40762 11.9963C3.29765 12.3776 3.24633 12.7148 3.24633 13.0081C3.24633 13.2647 3.29032 13.4993 3.37097 13.7119C3.45161 13.9245 3.58358 14.1151 3.75953 14.2837C3.42962 14.7016 3.09971 15.1195 2.77713 15.53C2.40323 16.0212 2.16862 16.4758 2.07331 16.8937C2.04399 17.033 2.02199 17.1356 2.01466 17.2163C2.00733 17.2969 2 17.3995 2 17.5242C2 17.7221 2.02933 17.8908 2.08065 18.0374C2.13197 18.184 2.22727 18.3086 2.35191 18.4186C2.53519 18.5652 2.70381 18.6679 2.84311 18.7192C2.98241 18.7705 3.1437 18.7998 3.31965 18.7998C3.53226 18.7998 3.7522 18.7485 3.97214 18.6459C4.19208 18.5432 4.41202 18.4113 4.62463 18.2573C4.96921 17.9641 5.31378 17.6781 5.66569 17.3922C6.08358 17.0476 6.44282 16.8277 6.73607 16.7324C6.82405 16.6737 7.8871 16.2852 9.93255 15.5594C10.673 15.2954 11.2595 14.9655 11.6774 14.5623C11.824 14.3057 11.934 14.0564 12.0073 13.7998C12.0806 13.5432 12.1173 13.2793 12.1173 13.0081C12.1173 12.6195 12.022 12.2529 11.8387 11.923V11.9157ZM10.915 12.4435C10.7903 12.4655 10.6877 12.4802 10.607 12.4875C10.5264 12.4949 10.4457 12.5022 10.3578 12.5022C10.1525 12.5022 9.96188 12.4729 9.79326 12.4069C9.62463 12.3409 9.48534 12.2309 9.39003 12.077C9.41935 11.9963 9.46334 11.945 9.52933 11.923C9.59531 11.901 9.67595 11.879 9.77126 11.857C9.98387 11.857 10.1818 11.9084 10.3651 12.011C10.5484 12.1136 10.7317 12.2603 10.915 12.4435Z" fill="white"/>
</svg>
