<svg width="24" height="24" viewBox="0 0 24 24" fill="none" xmlns="http://www.w3.org/2000/svg">
<path fill-rule="evenodd" clip-rule="evenodd" d="M21.9957 9.04317C21.9697 9.05184 21.9393 9.05617 21.9133 9.06484C21.8352 8.94778 21.7832 8.86108 21.7485 8.80472C21.6792 8.70066 21.6098 8.6443 21.5404 8.63996C21.5318 8.70933 21.5274 8.78737 21.5231 8.86975C21.5231 8.95212 21.5188 9.01715 21.5188 9.05617C21.5188 9.27729 21.5361 9.53309 21.5708 9.8149C21.6532 10.4999 21.6965 10.9335 21.6965 11.1156C21.7572 11.6705 21.8006 12.0477 21.8179 12.2515C21.8352 12.4509 21.8439 12.659 21.8439 12.8758C21.8439 13.188 21.8222 13.4741 21.7746 13.7299C21.7312 13.9857 21.6488 14.2372 21.5318 14.48C21.5318 14.3846 21.5404 14.2025 21.5534 13.9337C21.5664 13.6649 21.5751 13.5131 21.5751 13.4698L21.1372 8.81772C21.1372 8.68766 21.1372 8.57926 21.1286 8.49688C21.1025 8.17605 21.0852 8.0113 21.0852 7.99829C21.0852 7.83354 21.1112 7.68613 21.1589 7.56474C21.2066 7.44334 21.2976 7.32628 21.4277 7.2179C21.5578 7.56474 21.6965 7.90725 21.8352 8.24976C21.8222 8.29312 21.8136 8.3278 21.8136 8.35381C21.8136 8.42318 21.8483 8.54458 21.9176 8.718C21.909 8.74401 21.9176 8.7917 21.9436 8.8524C21.9697 8.9131 21.9783 8.96079 21.9783 8.9868L22 9.04751L21.9957 9.04317ZM18.5922 9.12555C18.5229 9.34666 18.3971 9.53743 18.2194 9.69784C18.1934 9.66316 18.1023 9.60246 17.9549 9.51574C17.8075 9.42903 17.7295 9.35099 17.7295 9.28162C17.7295 9.24694 17.7468 9.20358 17.7815 9.14722L18.085 8.70933C18.085 8.70933 18.1847 8.7787 18.3668 8.89576C18.4795 8.9738 18.5532 9.04751 18.5966 9.12555H18.5922ZM17.6037 9.31197L17.2092 9.67616L16.6976 9.48973C16.6976 9.41169 16.7193 9.33799 16.7583 9.25995C16.7713 9.23393 16.8667 9.10821 17.0401 8.88709C17.2699 8.96513 17.4216 9.03016 17.491 9.08653C17.5647 9.14289 17.5994 9.21659 17.5994 9.31631L17.6037 9.31197ZM17.9679 10.7254C17.9896 10.8381 17.9549 10.9508 17.8639 11.0679C17.8422 11.0766 17.8205 11.0896 17.7902 11.1112C17.7295 11.1676 17.6774 11.1763 17.6428 11.1416C17.5517 11.0592 17.5083 10.9465 17.5083 10.8078C17.5083 10.7297 17.517 10.6777 17.53 10.643C17.543 10.6083 17.556 10.5823 17.5604 10.5693L17.7988 10.101C17.7988 10.1444 17.7815 10.2354 17.7425 10.3829C17.7034 10.5303 17.6861 10.6257 17.6861 10.6733C17.6861 10.7687 17.7121 10.8468 17.7685 10.9031C17.8032 10.8945 17.8379 10.8684 17.8769 10.8164C17.9159 10.7644 17.9462 10.734 17.9636 10.7297L17.9679 10.7254ZM17.3956 7.38698C17.1312 7.45635 16.5415 7.6211 15.6267 7.8769C14.4258 8.21074 13.4503 8.49688 12.7045 8.73967C12.5918 8.76135 12.5008 8.80037 12.4227 8.86107C12.3447 8.92177 12.3013 8.99548 12.2883 9.08653C13.4936 8.72667 14.7032 8.36682 15.9085 8.00263C15.9866 7.96795 16.2467 7.88991 16.6976 7.77285C17.0184 7.69047 17.2482 7.5604 17.3956 7.38698ZM12.4964 7.9376C12.5311 7.97229 12.5268 8.02431 12.4878 8.09368C12.4184 8.19773 12.375 8.25843 12.362 8.27578C12.349 8.29312 12.3273 8.30179 12.3013 8.30179C12.232 8.30179 12.1713 8.24542 12.1236 8.13704C12.1236 7.98529 12.1539 7.83788 12.2189 7.69914C12.2623 7.60809 12.3403 7.48237 12.4574 7.31328C12.401 7.4867 12.349 7.66012 12.3013 7.83354C12.3013 7.92459 12.3273 7.99829 12.3837 8.06332L12.4964 7.9376ZM14.9417 9.94496L14.8376 10.1444C14.7769 10.1097 14.7292 10.0837 14.7032 10.0707C14.6469 10.036 14.5948 10.0273 14.5472 10.049C14.5038 10.1401 14.4648 10.3178 14.4258 10.5866C14.3867 10.8554 14.326 11.0505 14.2437 11.1763C14.1743 11.0982 14.1093 11.0028 14.0442 10.8858C13.9532 10.7124 13.8621 10.5346 13.7754 10.3568C13.7537 10.4175 13.7234 10.4522 13.68 10.4522C13.6454 10.4522 13.602 10.4349 13.5456 10.4002C13.5023 10.3568 13.4849 10.3178 13.4849 10.2745C13.4849 10.2398 13.4936 10.1964 13.5109 10.1487C13.5283 10.101 13.5456 10.0534 13.5673 10.0013C13.628 9.94063 13.6887 9.91028 13.7451 9.91895C13.8361 9.99699 13.9098 10.101 13.9749 10.2311C14.0659 10.4262 14.1569 10.617 14.2567 10.8034C14.2914 10.6213 14.326 10.4392 14.3607 10.2528C14.4171 10.0447 14.5125 9.8886 14.6512 9.78455C14.7076 9.79322 14.7596 9.8019 14.8116 9.81924C14.8636 9.83658 14.907 9.87993 14.9417 9.9493V9.94496ZM10.4457 8.08067C10.4587 8.15004 10.4457 8.22374 10.4153 8.29745C10.4067 8.31046 10.3677 8.37983 10.2896 8.50556C10.2202 8.50556 10.1639 8.47955 10.1249 8.42318C10.0815 8.36682 10.0555 8.30613 10.0425 8.23676C10.0425 7.88991 10.1379 7.5604 10.333 7.24823C10.2896 7.35229 10.2549 7.45634 10.2289 7.5604C10.2029 7.66445 10.1856 7.7685 10.1856 7.87256C10.1856 8.0243 10.2289 8.14571 10.3113 8.23676C10.3373 8.22809 10.359 8.20206 10.372 8.15871C10.385 8.11535 10.411 8.08934 10.4457 8.08067ZM7.88771 7.89424C7.85302 8.01998 7.82701 8.09368 7.814 8.12403C7.77932 8.20207 7.72296 8.25409 7.64925 8.2801C7.58855 8.29311 7.52786 8.24542 7.47149 8.1327C7.47149 7.84221 7.5452 7.55606 7.68827 7.27859C7.70128 7.32628 7.68827 7.41299 7.64492 7.53438C7.60156 7.65578 7.58422 7.7425 7.58422 7.79886C7.58422 7.89424 7.64058 7.96795 7.74897 8.01564C7.77065 8.00697 7.78799 7.98096 7.80533 7.9376C7.82268 7.89425 7.84869 7.8769 7.88337 7.8899L7.88771 7.89424ZM20.3005 9.06051C20.2658 8.75702 20.1921 8.44486 20.0837 8.12403C20.023 7.95061 19.9016 7.66011 19.7282 7.24823C19.6371 7.38697 19.5461 7.52572 19.4594 7.66446C19.4594 8.11536 19.481 8.54891 19.5201 8.96946C19.5591 9.39001 19.6241 9.85392 19.7108 10.3568C19.7975 10.8641 19.8799 11.3454 19.9623 11.8093C20.0403 12.2688 20.1054 12.7284 20.153 13.188C19.9883 13.3614 19.8019 13.5001 19.5981 13.5999C19.3943 13.6996 19.1819 13.7516 18.9564 13.7516C18.861 13.7516 18.757 13.7429 18.6529 13.7213C18.7223 13.5608 18.7787 13.3918 18.8264 13.2053C18.8697 13.0232 18.8957 12.8411 18.8957 12.6677C18.8957 12.3425 18.822 12.0781 18.679 11.8786C18.5966 11.7963 18.4752 11.7529 18.3148 11.7529C18.0113 11.9957 17.7772 12.2818 17.6167 12.607C17.5344 12.7804 17.478 12.9495 17.4433 13.1099C17.413 13.2747 17.3956 13.4611 17.3956 13.6779C17.1181 13.795 16.8147 13.8557 16.4895 13.8557C16.6369 13.6042 16.7843 13.3571 16.936 13.1056C17.0184 12.9452 17.0661 12.7848 17.0835 12.6287C17.0574 12.4292 16.9534 12.2558 16.78 12.1084C16.6412 11.9914 16.4765 11.896 16.2857 11.8266C16.0949 11.7572 15.9172 11.7225 15.7481 11.7225C15.4923 11.7225 15.2365 11.7963 14.9764 11.9393C14.7206 12.0867 14.4865 12.2732 14.2783 12.503C14.1526 12.5983 14.0009 12.7501 13.8144 12.9539C13.6323 13.1576 13.4546 13.3267 13.2898 13.4568C13.2075 13.3874 13.1251 13.318 13.0514 13.2487C12.8649 13.0839 12.7956 12.9408 12.8433 12.8238C12.6222 13.0449 12.3837 13.214 12.1236 13.3267C11.8678 13.4394 11.5903 13.5175 11.2911 13.5608C11.5903 13.2747 11.8157 12.9278 11.9675 12.5203C11.9675 12.3816 11.9155 12.2515 11.8114 12.1344C11.7334 12.0521 11.5513 11.9177 11.2608 11.7399C11.109 11.6488 10.9703 11.5838 10.8446 11.5491C10.7188 11.5101 10.5888 11.4928 10.45 11.4928C9.99046 11.4928 9.43984 11.8006 8.79384 12.4206C8.28225 12.9148 7.98743 13.188 7.91806 13.2443C7.78799 13.1663 7.66226 13.0709 7.54953 12.9582C7.43681 12.8455 7.35443 12.7241 7.30674 12.5983L7.12031 13.2834C7.13332 13.3744 7.168 13.5001 7.22437 13.6692C7.31975 13.9597 7.37178 14.1808 7.37178 14.3239C7.37178 14.3933 7.37178 14.4453 7.3631 14.48C7.02493 14.8485 6.64774 15.152 6.24019 15.3948C5.87167 15.6159 5.44678 15.8023 4.9612 15.9584C4.67505 16.0408 4.38457 16.0841 4.08541 16.0841C3.76024 16.0841 3.45675 16.0321 3.17494 15.9237C2.89313 15.8153 2.65467 15.6462 2.46391 15.4078C2.33817 15.1433 2.27748 14.8702 2.27748 14.584C2.27748 14.2979 2.3295 13.9901 2.43356 13.6779C2.51593 13.4351 2.63733 13.1663 2.79775 12.8671C2.57663 13.201 2.39887 13.5305 2.26881 13.8557C2.13874 14.1808 2.04769 14.5277 2 14.8962C2 15.2907 2.03468 15.5942 2.10405 15.8023C2.19944 16.0928 2.38587 16.3139 2.65467 16.47C2.8411 16.5827 3.0362 16.6608 3.24431 16.7085C3.44808 16.7562 3.66486 16.7822 3.89465 16.7822C4.27618 16.7822 4.64904 16.7258 5.00889 16.6088C5.36874 16.496 5.70692 16.3399 6.01908 16.1448C6.49165 15.8934 6.86885 15.6029 7.155 15.269C7.50184 14.8658 7.67527 14.441 7.67527 13.9901C7.8617 14.0334 8.06547 14.0724 8.29092 14.1158C8.51203 14.1592 8.7158 14.1765 8.89356 14.1765C8.92825 14.1765 8.97594 14.1765 9.04097 14.1721C9.10167 14.1721 9.16237 14.1635 9.21873 14.1548C9.41817 14.1201 9.61327 14.1028 9.79536 14.0984C9.97746 14.0984 10.1682 14.0941 10.3633 14.0941H11.07C11.4082 14.0941 11.716 14.0377 11.9848 13.9294C12.2536 13.8166 12.4834 13.6302 12.6698 13.3657C12.6785 13.4351 12.7219 13.5522 12.8042 13.7126C12.8866 13.873 12.93 14.0031 12.93 14.0941C12.93 14.2068 12.8866 14.3022 12.7956 14.3846C12.8866 14.2589 12.995 14.1982 13.1294 14.1982C13.1554 14.1982 13.3809 14.2762 13.7971 14.428C13.9575 14.4843 14.0919 14.5017 14.2046 14.48C14.352 14.4366 14.5038 14.4106 14.6685 14.3976C14.8333 14.3846 14.998 14.3759 15.1715 14.3759C15.3449 14.3846 15.5227 14.3889 15.7004 14.3976C15.8825 14.4063 16.0559 14.4063 16.2294 14.4063C16.2901 14.4063 16.3811 14.4063 16.4938 14.4019C16.6065 14.4019 16.7106 14.3933 16.8016 14.3846C16.9144 14.3846 17.0705 14.3412 17.2786 14.2502C17.4867 14.1591 17.6384 14.1158 17.7381 14.1158C17.8075 14.1158 17.8769 14.1331 17.9462 14.1678C18.0156 14.2025 18.0763 14.2545 18.1327 14.3239C18.3321 14.4149 18.5402 14.4583 18.757 14.4583C19.0085 14.4583 19.2512 14.4019 19.494 14.2849C19.7368 14.1722 19.9536 14.0204 20.14 13.834C20.2354 13.6389 20.3048 13.4438 20.3395 13.24C20.3742 13.0406 20.3915 12.8195 20.3915 12.5853C20.3915 12.3859 20.3828 12.1995 20.3655 12.0347C20.3481 11.87 20.3178 11.6575 20.2788 11.4017C20.1834 10.8901 20.088 10.3698 19.997 9.84958C19.9406 9.51574 19.9146 9.21659 19.9146 8.94345C19.9146 8.90009 19.9146 8.84807 19.9189 8.78737C19.9189 8.72667 19.9276 8.65297 19.9363 8.57059L20.3091 9.06051H20.3005ZM9.47886 9.84091L9.37481 10.049C9.29243 10.023 9.21006 9.99266 9.12335 9.96665C9.06265 9.96665 9.02363 10.0187 9.01062 10.1271C8.99762 10.2355 8.98027 10.3482 8.9586 10.4696C8.93692 10.591 8.8979 10.721 8.83286 10.8598C8.76349 10.8251 8.68112 10.6994 8.5814 10.4782C8.48602 10.2615 8.36462 10.1487 8.22588 10.1487C8.18253 10.1487 8.15218 10.1487 8.1305 10.1574C8.08714 10.1227 8.0698 10.0924 8.0698 10.062C8.0698 10.0317 8.08714 9.98833 8.12617 9.92763C8.16519 9.86693 8.18253 9.81924 8.18253 9.79323C8.19553 9.74987 8.22588 9.73252 8.2649 9.73252C8.32127 9.76721 8.37763 9.80189 8.44266 9.83657C8.51203 9.91895 8.5814 10.0273 8.65077 10.1531C8.72014 10.2831 8.77217 10.3785 8.80685 10.4479C8.85021 10.3178 8.89356 10.1791 8.94125 10.0317C8.98894 9.88427 9.05831 9.77154 9.14936 9.68916C9.20572 9.68916 9.25775 9.70218 9.30978 9.72386C9.3618 9.74987 9.41383 9.78455 9.47019 9.83225L9.47886 9.84091ZM15.1411 14.9309C15.0978 15.0783 15.0197 15.1997 14.9027 15.2994C14.7856 15.3991 14.6512 15.4511 14.5081 15.4511C14.4388 15.4642 14.3737 15.4598 14.3087 15.4425C14.2046 15.3991 14.1006 15.3644 13.9965 15.3298C13.9185 15.3298 13.8578 15.3514 13.8101 15.3905C13.5586 15.5899 13.2682 15.7763 12.9343 15.9411C12.7609 16.0191 12.6048 16.0798 12.4617 16.1275C12.3187 16.1752 12.1582 16.2185 11.9762 16.2532C12.3317 16.1405 12.6742 15.9844 13.008 15.7763L13.9965 15.152C14.0789 15.139 14.1439 15.1303 14.183 15.1303C14.287 15.1303 14.3694 15.1563 14.4344 15.2127C14.5038 15.1303 14.5645 15.0566 14.6209 15.0002C14.6772 14.9395 14.7292 14.8919 14.7813 14.8528C14.8333 14.8138 14.8897 14.7965 14.9547 14.7965C15.0327 14.7965 15.0934 14.8398 15.1411 14.9309ZM5.81964 7.46935C5.83265 7.53872 5.84132 7.57775 5.84132 7.58208C5.84132 7.64278 5.8023 7.67747 5.72859 7.67747H5.52049C5.47713 7.69914 5.45112 7.7425 5.43811 7.81187C5.41643 7.86823 5.39475 8.03731 5.36874 8.32346C5.34273 8.60961 5.28636 8.78737 5.19532 8.86541L4.73575 8.16739L4.66204 8.2801C4.59267 8.23241 4.54498 8.19773 4.51463 8.17605C4.45393 8.12836 4.41058 8.08067 4.3889 8.02865C4.3889 7.88124 4.41925 7.74683 4.48428 7.6211C4.63603 7.66446 4.77477 7.77719 4.9005 7.96361C4.99588 8.12403 5.0956 8.28444 5.19098 8.44052C5.25168 8.17171 5.29937 7.96361 5.32539 7.82487C5.38608 7.56907 5.50314 7.439 5.66789 7.439C5.72859 7.439 5.78062 7.44768 5.8153 7.46069L5.81964 7.46935ZM5.81097 9.39435C5.83698 9.42036 5.83698 9.45939 5.81097 9.50708C5.78496 9.55477 5.76328 9.59378 5.75027 9.61979H5.45979C5.27769 9.61979 5.13028 9.63715 5.01322 9.67183C4.89616 9.70652 4.79644 9.78456 4.70973 9.90162C4.70973 10.075 4.74008 10.2875 4.80512 10.5346C4.9005 10.9161 4.95686 11.1503 4.96987 11.2413C4.98287 11.3324 4.99588 11.4061 5.00022 11.4581C5.00889 11.5144 5.00889 11.6012 5.00889 11.7182C5.00889 11.8353 4.99588 11.9567 4.96553 12.0781C4.93952 12.1995 4.89183 12.3209 4.83113 12.4379C4.85714 12.3685 4.87882 12.2862 4.89183 12.1951C4.90483 12.0997 4.91351 12.013 4.91351 11.9307C4.91351 11.7789 4.89183 11.6142 4.85281 11.4407C4.8398 11.3844 4.79644 11.237 4.72708 10.9985C4.65771 10.7601 4.61869 10.6213 4.61435 10.5866C4.58834 10.4566 4.571 10.3222 4.571 10.1921C4.571 10.0794 4.584 9.97965 4.60568 9.88427C4.63169 9.78889 4.67071 9.69351 4.72708 9.58945C4.79644 9.52009 4.89616 9.46806 5.03057 9.42904C5.16063 9.39002 5.25168 9.364 5.29937 9.35099C5.26469 9.3033 5.22567 9.27295 5.18665 9.26861C5.14329 9.25994 5.08693 9.25994 5.00889 9.26861C4.98287 9.3033 4.95686 9.33799 4.93518 9.37268C4.9005 9.40736 4.85714 9.42903 4.80945 9.43337C4.80945 9.35099 4.83547 9.26862 4.89183 9.18191C4.94819 9.09953 5.01322 9.04317 5.09126 9.01716C5.23 8.99548 5.38175 9.05184 5.55084 9.18191C5.63321 9.25128 5.71992 9.32064 5.81097 9.39001V9.39435ZM4.98721 13.8773C4.91784 14.1071 4.87882 14.2285 4.87449 14.2415C4.82679 14.3109 4.76176 14.3456 4.67505 14.3456C4.61435 14.2545 4.57967 14.1418 4.57967 14.0031C4.57967 13.899 4.59701 13.7863 4.63169 13.6606C4.66638 13.5348 4.70973 13.4091 4.7661 13.2747C4.77477 13.3441 4.7661 13.4394 4.74008 13.5652C4.71407 13.6909 4.7054 13.7733 4.7054 13.8166C4.7054 13.9467 4.74875 14.0421 4.83113 14.0984C4.84414 14.0854 4.86148 14.0464 4.88316 13.9771C4.90483 13.912 4.93952 13.8773 4.98721 13.8773ZM18.5055 12.7327C18.5402 12.7934 18.5619 12.8455 18.5749 12.8802C18.5879 12.9148 18.5922 12.9625 18.5922 13.0276C18.5922 13.2617 18.4362 13.4004 18.124 13.4438C17.9246 13.3961 17.7772 13.2617 17.6861 13.0492C17.6601 12.9582 17.6818 12.8715 17.7555 12.7848C17.8292 12.6981 17.8985 12.62 17.9636 12.555C18.0286 12.49 18.0937 12.4553 18.1543 12.4553C18.2237 12.4553 18.2931 12.4813 18.3581 12.5376C18.4232 12.594 18.4752 12.659 18.5099 12.7371L18.5055 12.7327ZM16.6239 13.1056C16.4028 13.305 16.121 13.4611 15.7828 13.5652C15.4446 13.6692 14.9157 13.7213 14.2003 13.7213L13.5847 13.5869C13.9532 13.1836 14.2176 12.9148 14.3867 12.7761C14.7119 12.5116 15.0371 12.3816 15.3536 12.3816C15.4793 12.3816 15.6137 12.4032 15.7611 12.4423C15.9779 12.4899 16.1643 12.568 16.3247 12.6764C16.4852 12.7848 16.5849 12.9278 16.6282 13.1099L16.6239 13.1056ZM14.9287 15.0913C14.8116 15.1347 14.6946 15.178 14.5732 15.2257C14.5645 15.1823 14.5775 15.152 14.6078 15.126C14.6382 15.1 14.6816 15.0739 14.7379 15.0393H14.8506C14.8983 15.0393 14.9243 15.0566 14.9243 15.0913H14.9287ZM11.4862 12.9885C11.1307 13.1403 10.7665 13.2617 10.3937 13.3484C10.0208 13.4351 9.65229 13.4785 9.29243 13.4785C8.90223 13.4785 8.54238 13.4308 8.20854 13.3311C8.41665 13.1446 8.62909 12.9539 8.84154 12.7588C9.30111 12.3556 9.70431 12.1561 10.0598 12.1561C10.2549 12.1561 10.437 12.1995 10.6104 12.2818C11.0007 12.4769 11.2131 12.5897 11.2564 12.6244C11.3822 12.7284 11.4559 12.8498 11.4862 12.9885Z" fill="white"/>
</svg>
