<svg width="24" height="24" viewBox="0 0 24 24" fill="none" xmlns="http://www.w3.org/2000/svg">
<path fill-rule="evenodd" clip-rule="evenodd" d="M21.9412 6.77955C21.9118 6.84811 21.8923 6.92157 21.8923 6.99013C21.8923 7.05379 21.9118 7.13215 21.9461 7.2252C21.9804 7.31824 22 7.3819 22 7.41129C22 7.46026 21.9902 7.49944 21.9755 7.53372C21.9608 7.568 21.9265 7.61207 21.8678 7.65614L21.76 7.5631C21.5886 7.78837 21.3536 8.00874 21.0548 8.21932C20.7904 8.40051 20.5211 8.58171 20.2566 8.75801C20.7023 8.34175 21.1479 7.92549 21.5984 7.49944C21.5739 7.43577 21.4858 7.35252 21.3291 7.24478C21.1724 7.13705 21.094 7.044 21.094 6.95585C21.094 6.90688 21.1136 6.85301 21.1577 6.78935C21.2018 6.72569 21.285 6.65713 21.4025 6.58367C21.525 6.51021 21.6229 6.47103 21.7013 6.47103C21.8335 6.47103 21.9118 6.56897 21.9363 6.76486L21.9412 6.77955ZM19.7767 8.44949C19.6738 8.64537 19.5955 8.78739 19.5416 8.87064C19.4388 9.04204 19.3164 9.1057 19.1645 9.05673C18.998 8.94899 18.8756 8.87064 18.7875 8.82657C18.6993 8.78249 18.6112 8.74821 18.5181 8.72862C18.4643 8.75801 18.4006 8.85595 18.3369 9.02245C18.2684 9.18896 18.1998 9.26731 18.1214 9.26731C18.0725 9.26731 18.0235 9.25262 17.9696 9.21834C17.9452 9.18896 17.857 9.13509 17.7052 9.06653C17.5534 8.99797 17.4897 8.90982 17.524 8.80698C17.6562 8.61109 17.7884 8.4152 17.9256 8.21932C18.0137 8.2487 18.1117 8.29767 18.2292 8.36623C18.3467 8.43479 18.4594 8.49846 18.572 8.56212C18.6503 8.50825 18.7336 8.41031 18.8266 8.26829C18.9148 8.12627 18.9882 8.03812 19.0421 7.99895C19.1694 8.06261 19.2968 8.12138 19.429 8.17525C19.5465 8.23891 19.6641 8.32706 19.7816 8.44459L19.7767 8.44949ZM18.7287 6.19189L18.5524 6.48572C18.0186 6.66692 17.4456 6.88239 16.8237 7.13215C16.3046 7.34273 15.7365 7.58269 15.1195 7.84713C15.1195 7.75898 15.1538 7.68063 15.2174 7.60717C15.286 7.53372 15.3595 7.48474 15.4476 7.46026C15.9863 7.23988 16.5299 7.01951 17.0735 6.80404C17.617 6.58367 18.1704 6.38288 18.7238 6.19189H18.7287ZM13.1459 6.77955C13.1557 6.81873 13.1459 6.85791 13.1361 6.90198C13.1215 6.94606 13.097 6.98523 13.0676 7.02441L12.7835 6.8726C12.7346 7.13215 12.7003 7.32314 12.6758 7.45046C12.6268 7.69532 12.5632 7.87652 12.475 8.00384C12.4114 7.95487 12.3232 7.81775 12.2106 7.59248C12.0979 7.36721 11.9608 7.24968 11.8041 7.24968C11.7502 7.2203 11.7209 7.15663 11.7209 7.06359C11.7209 6.99993 11.7356 6.93136 11.7698 6.85301C11.8384 6.78445 11.8923 6.72568 11.9216 6.67671C12.0392 6.74038 12.1518 6.89709 12.2547 7.15174C12.3624 7.40639 12.4603 7.53372 12.5534 7.53372C12.5681 7.36721 12.5877 7.19091 12.6121 6.99503C12.6366 6.79914 12.7003 6.65223 12.7982 6.55918C12.8521 6.55918 12.8962 6.56897 12.9256 6.58856C12.9549 6.60815 13.0284 6.67182 13.1361 6.78445L13.1459 6.77955ZM20.7169 13.092C20.5455 13.8902 19.8501 14.473 18.6357 14.8305C17.8129 15.0753 17.2742 15.2761 17.0147 15.4426C16.6376 15.5602 16.2262 15.7854 15.7806 16.1135C15.7708 16.1233 15.3937 16.4221 14.6396 17.0195C14.1694 17.3966 13.7679 17.6561 13.4398 17.808C12.9843 17.808 12.6415 17.6219 12.4065 17.2448C12.3134 17.0342 12.2644 16.8285 12.2644 16.6326C12.2644 16.3584 12.3477 16.0548 12.5093 15.7267C12.5485 15.6483 12.7101 15.3741 12.9892 14.9039C12.8227 15.2076 12.715 15.4279 12.6611 15.5602C12.5338 15.8491 12.475 16.1037 12.475 16.3241C12.475 16.5298 12.524 16.7208 12.6268 16.902C12.7199 17.0048 12.8129 17.0881 12.9109 17.1468C13.0039 17.2105 13.1068 17.2399 13.2145 17.2399C13.6161 17.1321 14.0274 16.9118 14.4486 16.5837C14.811 16.2702 15.1685 15.9568 15.5309 15.6434C15.9765 15.2614 16.3683 14.997 16.7062 14.855C17.9207 14.3604 19.1352 13.8657 20.3497 13.3613C20.3594 13.3075 20.3595 13.2683 20.3595 13.2438C20.3595 13.2046 20.3399 13.1752 20.3007 13.1508C20.2713 13.1997 20.237 13.2193 20.2076 13.2095C20.0656 12.9206 19.6102 12.759 18.8315 12.7296C18.0529 12.7002 17.666 12.426 17.666 11.9167C17.6758 11.8383 17.6758 11.7796 17.6758 11.7404C17.8619 11.3731 18.0137 11.0988 18.1214 10.9177C18.3173 10.5944 18.5573 10.3986 18.8364 10.3202C19.1205 10.2957 19.3898 10.3643 19.6494 10.521C19.8599 10.6532 20.0705 10.8589 20.2713 11.1331C20.4378 11.4319 20.5553 11.662 20.6239 11.8285C20.7316 12.1028 20.7904 12.3623 20.7904 12.6023C20.7904 12.7737 20.761 12.9402 20.7071 13.0969L20.7169 13.092ZM11.5837 8.77759L11.1626 9.41423L10.4574 9.1106C10.4966 8.99307 10.5504 8.88044 10.6239 8.7678C10.6925 8.66006 10.7855 8.54253 10.8932 8.41521C11.143 8.50825 11.3732 8.63068 11.5886 8.77759H11.5837ZM9.17434 7.68553C9.12047 7.79327 9.04212 7.81775 8.93927 7.75409C8.85113 7.62187 8.81195 7.47985 8.81195 7.33293C8.81195 7.18602 8.85602 6.99503 8.93927 6.76976C9.05681 6.47103 9.12047 6.29473 9.12537 6.24087C9.13516 6.32901 9.10088 6.47593 9.02742 6.68161C8.95397 6.88729 8.91479 7.044 8.91479 7.14684C8.91479 7.28886 8.97845 7.40149 9.10088 7.48964C9.14006 7.41129 9.18413 7.33293 9.22821 7.25458C9.2429 7.31824 9.25269 7.36721 9.25269 7.40639C9.25269 7.51413 9.22331 7.61207 9.16944 7.69042L9.17434 7.68553ZM12.382 9.59052C12.3575 9.48768 12.2595 9.40443 12.0881 9.33097C11.9412 9.282 11.7943 9.23303 11.6523 9.17916L11.2067 9.71785L10.4525 9.44851C10.2321 9.66888 10.0901 9.90884 10.0167 10.1782L10.7904 10.4377C10.8541 10.3741 10.8981 10.3251 10.9275 10.2908C10.9569 10.2565 10.9814 10.1782 11.0108 10.0607C11.0402 9.94312 11.1087 9.88435 11.2262 9.88435C11.2654 9.88435 11.3976 9.94801 11.6278 10.0704C11.7209 10.1243 11.8041 10.1537 11.8727 10.1537C11.9804 10.1537 12.0833 10.0704 12.1714 9.89904C12.2596 9.73254 12.3281 9.6248 12.3771 9.58563L12.382 9.59052ZM15.6141 14.8795C15.6288 14.8158 15.6386 14.7766 15.6386 14.7619C15.6386 14.6542 15.5504 14.5465 15.379 14.4436C15.286 14.3897 15.1489 14.3114 14.9677 14.2085L14.4388 14.855L13.8266 14.5122C13.7189 14.5269 13.621 14.5856 13.5426 14.6885C13.5181 14.713 13.4251 14.8844 13.2586 15.2076L14.0225 15.5602C14.0764 15.5112 14.1352 15.4328 14.1988 15.3251C14.3017 15.139 14.3849 15.0215 14.4584 14.9725C14.5857 14.997 14.713 15.0509 14.8452 15.139C14.9383 15.1929 15.0558 15.2761 15.1978 15.3839C15.3301 15.2174 15.4672 15.0509 15.6092 14.8795H15.6141ZM7.79824 11.7159C7.71988 11.7159 7.66112 11.6865 7.62684 11.6326C7.59256 11.5788 7.56807 11.5249 7.55828 11.4808C7.54848 11.4319 7.53869 11.3682 7.53869 11.28C7.53869 10.9764 7.60725 10.6924 7.74927 10.4328C7.71009 10.5797 7.68071 10.6875 7.66601 10.756C7.65132 10.8246 7.64153 10.8981 7.64153 10.9862C7.64153 11.0891 7.65132 11.1674 7.67091 11.2262C7.6905 11.2849 7.72968 11.3486 7.79334 11.4221C7.84231 11.4221 7.89618 11.3927 7.95984 11.329C7.94515 11.2898 7.94026 11.2507 7.95495 11.2115C7.96474 11.1723 7.99412 11.1233 8.0333 11.0597C8.04799 11.1233 8.05779 11.1723 8.05779 11.2115C8.05779 11.4368 7.96964 11.6082 7.79824 11.7159ZM7.15181 8.77759C7.11263 8.9343 6.92165 9.02245 6.58374 9.04694C6.24094 9.07143 6.03036 9.16937 5.94221 9.34077C5.94221 9.59052 5.98139 9.89905 6.05975 10.2565C6.24094 11.0891 6.32909 11.6131 6.32909 11.8334C6.33888 11.8971 6.33888 11.9607 6.33888 12.0293V12.2252C6.33888 12.4358 6.31929 12.6464 6.27522 12.852C6.23115 13.0577 6.16748 13.2634 6.07933 13.4593C6.19687 13.1703 6.25563 12.8569 6.25563 12.519C6.25563 12.3329 6.23604 12.1175 6.19687 11.8824C6.06954 11.187 5.94711 10.4818 5.81978 9.77662C5.81978 9.54155 5.84917 9.32608 5.90304 9.13019C5.99608 9.01266 6.10872 8.92451 6.23604 8.86574C6.36337 8.80698 6.52498 8.75311 6.71107 8.70903C6.6474 8.66006 6.59354 8.62578 6.54456 8.6013C6.49559 8.57681 6.44662 8.56702 6.39275 8.56702C6.33888 8.56702 6.28991 8.58171 6.25073 8.61599L6.12341 8.7678C6.09892 8.70414 6.09892 8.64537 6.11851 8.5915C6.1381 8.53763 6.17238 8.47397 6.21645 8.40541C6.3046 8.34175 6.34378 8.26339 6.34378 8.17035C6.34378 8.09199 6.29971 7.97446 6.21645 7.81285C6.12831 7.65125 6.08423 7.54351 6.07444 7.48964C5.90793 7.46516 5.7904 7.42598 5.71205 7.37211C5.63369 7.31824 5.58472 7.24478 5.56023 7.16153L5.73653 6.66692C5.89324 6.79425 6.03526 6.95095 6.15769 7.14684C6.25073 7.29375 6.34378 7.48964 6.44172 7.7345C6.49559 7.31824 6.53477 7.07828 6.55926 7.01952C6.61312 6.8726 6.69638 6.75507 6.80411 6.66692C6.92165 6.63754 7.02449 6.67671 7.10774 6.78445L7.02449 7.02931C6.95592 6.99993 6.89716 6.97544 6.84819 6.96075C6.79922 6.94606 6.75514 6.95096 6.70617 6.98524C6.66699 7.06359 6.63761 7.16153 6.62292 7.27417C6.60823 7.3868 6.59843 7.49944 6.59843 7.60717V7.85203C6.59843 7.99895 6.58374 8.13607 6.54946 8.2536C6.6572 8.30257 6.76494 8.37603 6.86778 8.47887C6.92165 8.53274 7.01469 8.63558 7.13712 8.78249L7.15181 8.77759ZM15.3203 12.3378C15.335 12.2742 15.3448 12.1811 15.3448 12.0538C15.3448 11.8187 15.1587 11.3437 14.7816 10.6336C14.6151 10.33 14.5465 10.0558 14.571 9.8109C14.6004 9.8109 14.6396 9.82069 14.6787 9.84518C14.7179 9.86966 14.762 9.89415 14.8061 9.92843C14.8306 9.86476 14.8404 9.81579 14.8404 9.77662C14.8404 9.64439 14.7473 9.49258 14.5563 9.31628C14.3213 9.09591 14.1743 8.9343 14.1205 8.83636C14.0176 8.86085 13.9344 8.95879 13.8756 9.13019C13.8658 9.15468 13.8266 9.29669 13.7581 9.56604C14.189 10.5357 14.62 11.5053 15.0509 12.47C14.9579 12.6268 14.8355 12.7345 14.6787 12.7884C14.5269 12.8422 14.3359 12.8716 14.1107 12.8716C14.0568 12.8716 13.9931 12.8716 13.9148 12.8667C13.8413 12.8667 13.7581 12.8569 13.6601 12.8471C13.6357 12.8324 13.523 12.7884 13.3173 12.7198C13.0529 12.6268 12.9158 12.5043 12.9158 12.3574C12.9158 12.2889 12.9403 12.2056 12.9843 12.1126C12.9354 12.1664 12.8276 12.3476 12.6562 12.6512C12.5289 12.8765 12.3918 13.0283 12.2351 13.0969C12.1273 13.1459 12.0098 13.1655 11.8923 13.1655C11.6572 13.1655 11.4515 13.1018 11.2801 12.9794C11.2507 12.9255 11.2311 12.8667 11.2311 12.8031C11.2311 12.7786 11.2703 12.6561 11.3487 12.4407C11.3732 12.3721 11.3781 12.2987 11.3732 12.2301C11.3438 12.2595 11.2654 12.3427 11.1479 12.475C11.001 12.6464 10.8688 12.7786 10.7561 12.8618C10.6435 12.95 10.526 13.0087 10.4084 13.043C10.2909 13.0773 10.144 13.0969 9.97258 13.0969C9.82566 13.0969 9.66405 13.0773 9.49265 13.0381C9.29677 13.0381 9.14985 12.9353 9.04701 12.7345C8.9001 12.4309 8.82174 12.2742 8.81195 12.2644C8.7238 12.4603 8.66993 12.5925 8.64545 12.6659C8.62096 12.7345 8.59647 12.8471 8.56219 12.994C8.57689 13.043 8.65034 13.283 8.78746 13.7237C8.88051 14.0225 8.93438 14.2624 8.95397 14.4534C8.35162 15.0166 7.67581 15.4573 6.93144 15.7707C6.18707 16.0842 5.38883 16.2898 4.53183 16.3829C4.08619 16.3829 3.70421 16.3143 3.39079 16.1821C3.02351 16.0254 2.73947 15.7805 2.54358 15.4524C2.41136 15.1635 2.3428 14.8403 2.3428 14.4877C2.3428 14.3163 2.36729 14.1351 2.41136 13.9392C2.46033 13.7482 2.5191 13.5866 2.59745 13.4642C2.66112 13.4103 2.71009 13.2977 2.74927 13.1214C2.81783 12.8373 2.93046 12.71 3.07738 12.7345C3.29775 12.6659 3.45446 12.4896 3.5475 12.2056C3.60137 12.0489 3.66993 11.7991 3.74829 11.4514C3.66993 11.4759 3.61117 11.5396 3.57689 11.6375C3.54261 11.7355 3.49853 11.8089 3.45446 11.8432C3.40548 11.8775 3.35651 11.8971 3.30264 11.8971C3.18511 11.8971 3.08717 11.8383 3.00881 11.7208C2.93046 11.5102 2.89128 11.28 2.89128 11.0401C2.89128 10.7267 2.95005 10.4035 3.06758 10.0655C3.15573 9.806 3.39079 9.31139 3.77277 8.57191C3.61606 8.74331 3.47894 8.92451 3.36141 9.1057C3.24388 9.2918 3.13614 9.49748 3.0333 9.72275C2.94025 9.9676 2.84721 10.2027 2.76396 10.4377C2.58276 10.9372 2.49461 11.3633 2.49461 11.7061C2.49461 12.0734 2.59256 12.3966 2.78844 12.6708C2.61704 12.9451 2.47502 13.2389 2.35749 13.5523C2.24486 13.8657 2.13712 14.2085 2.03428 14.5758C2.00979 14.7619 2 14.9578 2 15.1537C2 15.5161 2.05387 15.8295 2.1665 16.1037C2.27424 16.378 2.47013 16.6033 2.74437 16.7845C3.24388 17.0489 3.79236 17.186 4.38002 17.186C4.96768 17.186 5.64349 17.0391 6.36827 16.7502C6.92654 16.5298 7.52889 16.2213 8.18022 15.8197C8.52302 15.6532 8.78746 15.3643 8.96866 14.948C9.09598 14.5807 9.21841 14.2134 9.34574 13.8413C9.45348 13.8804 9.5906 13.9 9.74731 13.9C10.2174 13.9 10.619 13.6992 10.9569 13.3026C10.9422 13.3956 10.9569 13.4985 10.9912 13.6013C11.0304 13.709 11.0842 13.7874 11.1577 13.8413C11.2605 13.8902 11.3634 13.9245 11.4613 13.9539C11.5642 13.9833 11.6572 13.9931 11.7453 13.9931C11.8482 13.9931 11.951 13.9735 12.049 13.9343C12.2302 13.9049 12.382 13.7825 12.5093 13.5719C12.573 13.4544 12.6709 13.2732 12.8031 13.0332C12.8129 13.0969 12.8423 13.1557 12.8913 13.2144C12.9403 13.2732 12.9941 13.332 13.048 13.3858C13.3516 13.5817 13.6993 13.6796 14.0813 13.6796C14.2478 13.6796 14.3947 13.665 14.522 13.6307C14.6494 13.6013 14.7767 13.5425 14.904 13.4544C15.046 13.3271 15.1489 13.1508 15.2076 12.9255C15.237 12.7296 15.2762 12.5337 15.3154 12.3378H15.3203ZM11.9461 15.3104C11.9461 15.3986 11.9265 15.4818 11.8923 15.5651C11.858 15.6483 11.7992 15.7218 11.7209 15.7952C11.6131 15.8491 11.4417 15.9225 11.2165 16.0058C11.0695 16.0695 10.9569 16.1135 10.8883 16.1331C10.81 16.0548 10.7463 16.0009 10.7023 15.9666C10.6239 15.9128 10.5455 15.8834 10.4672 15.8834C10.3986 15.8834 10.335 15.9128 10.2811 15.9666L9.68364 16.3878C9.12537 16.7893 8.76787 17.0391 8.60137 17.1419C8.18511 17.3917 7.78844 17.5631 7.40157 17.6464C7.75416 17.5043 8.2096 17.2301 8.76298 16.8236C9.12537 16.5641 9.39471 16.3682 9.57591 16.236C9.88932 16.0009 10.2223 15.7952 10.5749 15.614C10.6533 15.614 10.7708 15.663 10.9275 15.756C11.0059 15.805 11.0646 15.8246 11.1038 15.8246C11.1822 15.8246 11.2605 15.7658 11.3389 15.6483C11.3536 15.5846 11.3683 15.5259 11.3732 15.4671C11.383 15.4083 11.4221 15.3692 11.4907 15.3545L11.4417 15.614C11.4907 15.6434 11.5446 15.6483 11.6131 15.6189C11.6817 15.5895 11.7453 15.5504 11.809 15.4965C11.858 15.4328 11.9021 15.3692 11.951 15.3104H11.9461ZM4.88443 13.9098C4.88443 14.042 4.85994 14.1645 4.81587 14.2722C4.7669 14.3799 4.69344 14.4632 4.5906 14.5171C4.52693 14.5269 4.47307 14.5024 4.4192 14.4534C4.37022 14.4044 4.32615 14.3408 4.29677 14.2722C4.28697 14.2232 4.28697 14.1596 4.28697 14.0714C4.28697 13.8853 4.32615 13.6943 4.40451 13.5083C4.42899 13.4446 4.48286 13.3417 4.57101 13.2046C4.53183 13.2977 4.49755 13.3956 4.46327 13.4985C4.43389 13.6013 4.4143 13.7041 4.4143 13.8021C4.4143 13.9735 4.47307 14.1155 4.5906 14.2232C4.66895 14.2379 4.72772 14.2085 4.7669 14.1302C4.83546 13.9882 4.87463 13.9147 4.88443 13.9049V13.9098ZM21.716 7.08318C21.7453 6.96565 21.716 6.88239 21.6082 6.83832C21.5054 6.78935 21.4417 6.82363 21.4221 6.93137C21.4466 6.94116 21.4907 6.97054 21.5642 7.02441C21.6376 7.07828 21.6866 7.09787 21.716 7.08318ZM19.8012 11.8775C19.62 11.6424 19.4584 11.471 19.3066 11.3584C19.1009 11.2115 18.8854 11.1331 18.6503 11.1331C18.572 11.1331 18.5132 11.1331 18.474 11.1429C18.381 11.1968 18.3222 11.236 18.2977 11.2605C18.2341 11.3241 18.2047 11.3927 18.2047 11.471C18.2831 11.6375 18.4006 11.7453 18.5622 11.804C18.7238 11.8628 18.9148 11.8922 19.1303 11.8922C19.2184 11.8922 19.3359 11.8922 19.4878 11.8824C19.6396 11.8726 19.7424 11.8726 19.8012 11.8726V11.8775Z" fill="white"/>
</svg>
