<svg width="24" height="24" viewBox="0 0 24 24" fill="none" xmlns="http://www.w3.org/2000/svg">
<path fill-rule="evenodd" clip-rule="evenodd" d="M17.0851 8.56657L17.005 8.86687C16.98 8.84685 16.9349 8.80181 16.8699 8.73674C16.8048 8.67168 16.7497 8.63664 16.6947 8.63664C16.6897 8.66166 16.6697 8.82683 16.6446 9.12212C16.6196 9.41742 16.5646 9.63264 16.4845 9.76777C16.4194 9.72273 16.3093 9.54255 16.1642 9.22723C16.049 8.99199 15.9089 8.88689 15.7337 8.90691C15.6737 8.88188 15.6436 8.83184 15.6436 8.76677C15.6436 8.72673 15.6486 8.68669 15.6637 8.64665C15.6787 8.60661 15.6937 8.56656 15.7137 8.52652C15.7788 8.42642 15.8238 8.37638 15.8438 8.37638C15.959 8.44145 16.0591 8.54154 16.1441 8.67668C16.2492 8.88188 16.3594 9.09209 16.4645 9.2973C16.4845 9.13213 16.5095 8.96196 16.5345 8.78679C16.5746 8.59159 16.6446 8.44144 16.7447 8.33634C16.8098 8.35636 16.8599 8.37137 16.8849 8.38638C16.98 8.43143 17.045 8.49149 17.0851 8.56657ZM14.9429 9.78779L14.7528 9.62763C14.5325 9.98299 14.2072 10.2883 13.7718 10.5486C13.5365 10.6887 13.1411 10.8739 12.5806 11.1091C12.956 10.8839 13.3313 10.6537 13.7117 10.4184C14.1471 10.1231 14.4474 9.82282 14.6126 9.50751C14.5475 9.47247 14.4775 9.43243 14.4124 9.38739C14.3323 9.31231 14.2723 9.26226 14.2322 9.22723C14.2523 9.09209 14.2923 8.97698 14.3574 8.87688C14.4224 8.77678 14.5125 8.71171 14.6326 8.68669C14.8078 8.64665 14.9079 8.70671 14.9429 8.86687C14.9229 8.90691 14.9079 8.94695 14.9029 8.98699C14.8979 9.02703 14.8929 9.05706 14.8929 9.07708C14.8929 9.13714 14.9279 9.23724 14.993 9.37738C15.028 9.45246 15.043 9.51252 15.043 9.55756C15.043 9.62263 15.008 9.7027 14.9429 9.78779ZM15.013 11.7097L14.963 11.7297C14.9429 11.7748 14.9229 11.8198 14.9079 11.8649C14.8929 11.9099 14.8579 11.9249 14.8028 11.9199C14.7227 11.8198 14.6827 11.6897 14.6827 11.5295C14.6827 11.4645 14.6927 11.3744 14.7177 11.2693C14.7427 11.1642 14.7578 11.0741 14.7728 11.009C14.6927 11.1892 14.6326 11.3393 14.5976 11.4645C14.5626 11.5896 14.5425 11.7397 14.5425 11.9199C14.5876 12.04 14.6176 12.1101 14.6326 12.1301C14.6777 12.1952 14.7427 12.2202 14.8228 12.2002C14.8879 12.1351 14.9379 12.0601 14.968 11.975C14.998 11.8899 15.013 11.8048 15.013 11.7097ZM19.4474 15.994C19.3473 16.1291 19.2673 16.2292 19.2072 16.3043C19.1121 16.4044 19.022 16.5045 18.9369 16.6046C18.8969 16.5696 18.7518 16.4995 18.4965 16.3844C18.3013 16.2993 18.1912 16.2042 18.1662 16.1041L18.6667 15.5435C18.8519 15.6186 18.997 15.6837 19.1021 15.7387C19.2072 15.7938 19.3223 15.8789 19.4474 15.994ZM13.0611 8.01602C11.3944 8.48149 9.72272 8.95195 8.05606 9.41741C7.93093 9.43243 7.80581 9.4975 7.69069 9.61762C7.57557 9.73774 7.4955 9.85786 7.45546 9.97798L7.55555 9.87788C8.02102 9.68269 8.59159 9.49249 9.25726 9.2973C9.57257 9.2022 10.1532 9.04204 10.999 8.81682C11.7347 8.61662 12.3153 8.45145 12.7407 8.31632C12.8458 8.26126 12.9159 8.22622 12.9409 8.2062C13.016 8.15115 13.0561 8.09109 13.0611 8.01602ZM22 9.18719C21.96 8.86186 21.8649 8.51151 21.7197 8.14615C21.5746 7.78078 21.4344 7.43043 21.2993 7.09509C21.1241 7.31531 20.999 7.56056 20.9189 7.82583C20.984 8.32132 21.044 8.89189 21.0991 9.54755C21.1542 10.2032 21.2042 10.8489 21.2593 11.4895C21.3143 12.1301 21.3744 12.7007 21.4394 13.2012C21.034 13.2012 20.4835 13.1111 19.7878 12.9309C19.3073 12.8058 18.987 12.7257 18.8268 12.6907C18.9019 12.5506 18.9469 12.4154 18.972 12.2903C18.997 12.1652 19.007 12.005 19.007 11.8098C19.007 11.6847 18.997 11.5245 18.972 11.3293C18.9469 11.1341 18.9269 10.9439 18.9069 10.7588C19.1872 10.5636 19.3824 10.4234 19.4875 10.3383C19.6927 10.1732 19.8629 10.003 19.988 9.83784L20.2082 9.97798C20.2332 9.87788 20.2482 9.78278 20.2482 9.68769C20.2432 9.61261 20.2332 9.53754 20.2282 9.45746C20.2232 9.37738 20.2182 9.2973 20.2182 9.21722C20.2182 9.13714 20.2182 9.07207 20.2282 9.02702C20.2032 8.97197 20.1732 8.92192 20.1431 8.86687C20.1131 8.81181 20.0731 8.78679 20.018 8.78679C19.9229 8.82182 19.8478 8.87187 19.7928 8.93694C19.7377 9.002 19.6877 9.08709 19.6476 9.18719C19.6076 9.24224 19.5876 9.2923 19.5876 9.33734C19.5876 9.40241 19.6276 9.47748 19.7077 9.55756C19.7477 9.5976 19.8128 9.66266 19.9079 9.74775C19.7427 9.90791 19.5776 10.048 19.4174 10.1682C19.2573 10.2883 19.0871 10.4034 18.9069 10.5085C18.8619 10.2482 18.8118 9.97798 18.7618 9.6977C18.7117 9.41742 18.6867 9.16717 18.6867 8.94695C18.6867 8.90691 18.6867 8.85685 18.6867 8.79179C18.6867 8.72672 18.7067 8.62162 18.7317 8.47648C18.7718 8.52152 18.8368 8.61662 18.9219 8.75176C19.007 8.88689 19.0821 8.98198 19.1421 9.03704C19.1471 9.03203 19.1622 9.01702 19.1772 8.997C19.1922 8.97698 19.2072 8.96197 19.2122 8.94695C19.047 8.54655 18.8819 8.14615 18.7217 7.74574C18.6016 7.48548 18.4715 7.29029 18.3313 7.16516C18.1962 7.4004 18.1061 7.65065 18.051 7.91591C18.1962 8.87687 18.3463 9.83784 18.4915 10.7988L17.5806 11.3594C17.6757 11.3594 17.8759 11.2743 18.1912 11.1091C18.3163 11.044 18.4364 11.009 18.5415 11.009C18.5415 11.044 18.5666 11.2843 18.6116 11.7397C18.6266 11.8749 18.6316 12.015 18.6316 12.1702C18.4715 12.1702 18.2512 12.1852 17.971 12.2202C17.4104 12.2853 17.045 12.3203 16.8699 12.3203H16.7097C16.6547 12.3203 16.6046 12.3203 16.5495 12.3103C16.4845 12.5055 16.4394 12.6356 16.4194 12.7107C16.3794 12.8559 16.3594 12.991 16.3594 13.1111C16.4344 13.0961 16.5345 13.0911 16.6697 13.0911C16.9249 13.0911 17.2653 13.1562 17.6907 13.2913C18.1161 13.4264 18.4264 13.5065 18.6116 13.5315C18.1712 13.6767 17.7357 13.8268 17.3003 13.972C16.7447 14.1522 16.2693 14.2773 15.8689 14.3423C15.6286 14.3824 15.3834 14.4024 15.1381 14.4024C14.7578 14.4024 14.4074 14.3474 14.0871 14.2322C13.7668 14.1171 13.4715 13.9319 13.1962 13.6717C13.1011 13.5766 13.011 13.4815 12.9209 13.3814C12.8308 13.2813 12.7858 13.1862 12.7858 13.1011C12.7858 13.041 12.8008 12.986 12.8258 12.9309C12.7608 12.966 12.3654 13.3413 11.6446 14.0621C11.3794 14.3273 11.0991 14.4875 10.8138 14.5325C10.6787 14.5776 10.5485 14.6026 10.4134 14.6026C10.1882 14.6026 9.96296 14.5425 9.74274 14.4224C9.56757 14.3273 9.38739 14.1872 9.2022 14.002C9.44244 13.8218 9.7027 13.6967 9.98799 13.6216C10.2733 13.5465 10.5886 13.5115 10.9339 13.5115C10.989 13.3964 11.044 13.2813 11.1091 13.1562C11.1742 13.031 11.2142 12.9159 11.2342 12.8108C10.7137 12.6056 10.2633 12.4555 9.88288 12.3604C9.38238 12.2352 8.90691 12.1702 8.45145 12.1702C8.15616 12.1702 7.88088 12.2002 7.62563 12.2553C7.37037 12.3103 7.11511 12.4004 6.86987 12.5205C6.82983 12.6356 6.7998 12.7508 6.77477 12.8659C6.74975 12.981 6.73974 13.0861 6.73974 13.1812C6.73974 13.2162 6.73974 13.2613 6.74975 13.3213L7.1001 13.2312C7.32532 13.3063 7.54054 13.4114 7.74074 13.5566C7.94094 13.7017 8.0961 13.8669 8.2012 14.0521C8.02102 14.1772 7.83583 14.2773 7.65065 14.3423C7.46546 14.4074 7.27027 14.4424 7.07007 14.4424C6.94995 14.4424 6.83984 14.4274 6.73473 14.4024C6.62963 14.3774 6.53453 14.3273 6.43944 14.2623C6.33934 14.2172 6.11411 13.9319 5.75876 13.4114C5.63363 13.2262 5.47848 13.1311 5.2983 13.1311C5.01301 13.3363 4.77277 13.6366 4.57758 14.032C4.09209 15.013 3.78178 15.5636 3.65666 15.6837C3.62162 15.6987 3.57157 15.7037 3.50651 15.7037C3.42142 15.7037 3.32633 15.6787 3.23123 15.6286C3.13614 15.5786 2.996 15.4885 2.81582 15.3634C2.63063 15.1632 2.50551 14.9429 2.44545 14.7027C2.38539 14.4625 2.35536 14.1772 2.35536 13.8418C2.35536 13.6817 2.36537 13.4464 2.38539 13.1411C2.40541 12.8358 2.41542 12.6056 2.41542 12.4605C2.3003 12.5205 2.23524 12.6607 2.21522 12.8859C2.1952 13.1111 2.17518 13.2462 2.15516 13.3013C2.15516 13.3614 2.14515 13.4615 2.12513 13.6016C2.12012 13.7067 2.11512 13.8669 2.11512 14.0821C2.11512 14.6577 2.19019 15.1331 2.34535 15.5135C2.53053 15.979 2.84585 16.3193 3.28629 16.5345C3.32633 16.5395 3.38138 16.5445 3.44645 16.5445C3.78178 16.5445 4.04204 16.2643 4.22723 15.7037C4.34735 15.3433 4.44745 15.1131 4.52753 15.013C4.6026 14.8478 4.67768 14.6777 4.75776 14.5125C4.92292 14.1572 5.14314 13.967 5.41842 13.9319C5.68368 14.3574 5.86386 14.6276 5.95896 14.7327C6.1992 15.018 6.46446 15.1882 6.74975 15.2432C6.77477 15.2432 6.81982 15.2483 6.87988 15.2633H7.01001C7.30531 15.2633 7.59559 15.1782 7.89089 15.013C8.08609 14.9079 8.32633 14.7277 8.61161 14.4725C8.87688 14.7528 9.11712 14.963 9.33233 15.1031C9.60761 15.2783 9.88789 15.3784 10.1832 15.4134C10.2232 15.4184 10.2783 15.4234 10.3433 15.4234C10.8088 15.4234 11.2943 15.1281 11.7948 14.5425C12.2102 14.0571 12.4204 13.8068 12.4354 13.7918C12.4304 13.8468 12.4254 13.9269 12.4254 14.032C12.4254 14.3674 12.5005 14.6677 12.6506 14.9379C12.8008 15.2082 13.021 15.4184 13.3163 15.5736C13.3564 15.5886 13.3864 15.5936 13.4064 15.5936C13.5065 15.5936 13.5816 15.5235 13.6266 15.3834C13.6517 15.3083 13.6817 15.1982 13.7167 15.0531C13.7417 14.978 13.7868 14.9429 13.8468 14.9429C13.982 14.998 14.1171 15.048 14.2573 15.1031C14.4925 15.1431 14.7177 15.1632 14.9379 15.1632C15.3634 15.1632 15.8288 15.0981 16.3293 14.963C16.5295 14.9079 16.97 14.7678 17.6506 14.5425C18.2162 14.3423 18.6466 14.2072 18.9419 14.1321C19.4224 14.012 19.8779 13.952 20.3033 13.952C20.5786 13.952 20.8438 13.977 21.1041 14.022C21.1792 13.982 21.2442 13.8969 21.2993 13.7718C21.3544 13.6467 21.3994 13.5666 21.4344 13.5315C21.4394 13.5866 21.4494 13.6366 21.4595 13.6817C21.4695 13.7267 21.4745 13.7818 21.4745 13.8418C21.4745 13.9069 21.4595 13.967 21.4344 14.022C21.4545 14.1071 21.4695 14.1772 21.4745 14.2222C21.4795 14.2673 21.4845 14.3273 21.4845 14.4024C21.4845 14.5475 21.4595 14.7828 21.4144 15.1031C21.3994 15.1782 21.3844 15.3033 21.3644 15.4835C21.5195 15.1582 21.6246 14.8128 21.6897 14.4575C21.7548 14.1021 21.7848 13.7217 21.7848 13.3213C21.7848 12.956 21.7648 12.5906 21.7247 12.2302C21.6597 11.6697 21.5896 11.0791 21.5145 10.4635C21.4394 9.84785 21.4044 9.31231 21.4044 8.86687L21.5646 8.56657C21.6096 8.63163 21.6847 8.74174 21.7848 8.8969C21.8649 9.02202 21.9349 9.12212 21.995 9.18719H22ZM17.2052 16.4645C17.1101 16.6046 16.965 16.7147 16.7698 16.7898C16.5746 16.8649 16.2643 16.9049 15.8438 16.9049C15.8288 16.8899 15.8038 16.8699 15.7638 16.8448C15.6887 16.7998 15.6587 16.7498 15.6637 16.6947C15.6887 16.5596 15.7487 16.4344 15.8388 16.3193C15.9289 16.2042 16.044 16.0991 16.1842 16.004C16.0841 15.9439 15.979 15.9239 15.8739 15.9439C15.8188 15.999 15.7838 16.029 15.7638 16.034C15.7638 15.974 15.7938 15.9089 15.8488 15.8388C15.9039 15.7688 15.969 15.7187 16.044 15.6837C16.1091 15.6987 16.1842 15.7087 16.2643 15.7237C16.3443 15.7387 16.3994 15.7738 16.4344 15.8338C16.4344 15.9489 16.3443 16.0641 16.1592 16.1892C15.974 16.3143 15.8839 16.4044 15.8839 16.4645C15.8839 16.5245 15.9439 16.5896 16.0641 16.6647C16.2993 16.6647 16.4995 16.6497 16.6647 16.6246C16.8298 16.5996 17.01 16.5445 17.2052 16.4645ZM11.2192 9.92793C11.2242 9.98298 11.1942 10.0731 11.1191 10.2082L10.8889 9.998C10.8438 10.3183 10.8038 10.5536 10.7788 10.7087C10.7237 10.989 10.6336 11.1892 10.5085 11.3093C10.4935 11.2943 10.4134 11.1141 10.2583 10.7588C10.1582 10.5335 10.008 10.4184 9.80781 10.4184C9.83283 10.3133 9.86286 10.2032 9.8979 10.0881C9.92292 10.028 9.97297 9.993 10.038 9.97798C10.1381 10.0781 10.2282 10.1982 10.3083 10.3383C10.4084 10.5586 10.5135 10.7738 10.6186 10.989C10.6186 10.984 10.6486 10.7638 10.7087 10.3283C10.7487 10.0531 10.8188 9.84285 10.9189 9.6977C11.014 9.73274 11.0691 9.75276 11.0891 9.76777C11.1542 9.80781 11.1992 9.86286 11.2192 9.92793ZM8.24625 8.28629C8.23123 8.38138 8.22122 8.47148 8.20621 8.55656C8.18118 8.65666 8.13113 8.73173 8.05606 8.78679C7.98098 8.8018 7.92092 8.78679 7.87588 8.74675C7.83083 8.70671 7.79079 8.64665 7.75576 8.56657C7.75075 8.52653 7.74575 8.46147 7.74575 8.37638C7.74575 8.13114 7.81081 7.9009 7.94595 7.68569C7.94595 7.72573 7.93093 7.8008 7.90591 7.91591C7.88088 8.03103 7.86587 8.12112 7.86587 8.18619C7.86587 8.34134 7.93093 8.44144 8.05606 8.4965C8.0961 8.4965 8.13113 8.48149 8.15616 8.44645C8.18118 8.3914 8.21121 8.34134 8.24625 8.28629ZM5.18318 8.17618C5.2032 8.23123 5.21321 8.27128 5.21321 8.30631C5.21321 8.34635 5.1982 8.40641 5.16817 8.49149C5.13814 8.57658 5.11812 8.63163 5.11311 8.66666H4.59259C4.41742 8.92192 4.1972 9.15215 3.92192 9.36737C3.88689 9.39239 3.44144 9.66767 2.58058 10.1882C2.68569 10.0931 3.00601 9.85285 3.53153 9.46747C3.92693 9.18218 4.21722 8.9019 4.41241 8.63664C4.36737 8.6016 4.32232 8.56657 4.27728 8.53153C4.23223 8.4965 4.20721 8.44145 4.2022 8.37638C4.22222 8.26127 4.26226 8.13614 4.32232 7.996C4.38238 7.85586 4.42743 7.74574 4.46246 7.66566C4.60761 7.66566 4.74775 7.71572 4.87788 7.81081C5.00801 7.90591 5.10811 8.03103 5.18318 8.17618ZM6.44444 11.3594C6.44444 11.5546 6.37938 11.6997 6.25425 11.7998C6.18919 11.7998 6.13413 11.7748 6.09409 11.7197C6.05405 11.6647 6.02402 11.5996 6.004 11.5195L6.14414 10.7287C6.14414 10.7287 6.15415 10.7838 6.15415 10.8388C6.13914 10.979 6.13413 11.0841 6.13413 11.1592C6.13413 11.2442 6.14414 11.3193 6.16917 11.3744C6.19419 11.4294 6.23924 11.4745 6.31431 11.4995C6.33433 11.4845 6.34935 11.4595 6.36436 11.4144C6.37938 11.3694 6.4044 11.3544 6.44444 11.3594ZM5.89389 9.78779C5.79379 9.98298 5.73373 10.0981 5.71371 10.1381C5.65365 10.2382 5.57357 10.3433 5.47347 10.4585C5.40841 10.4535 5.31832 10.4134 5.21321 10.3483C5.10811 10.2833 5.03303 10.2382 4.98799 10.2182C4.94294 10.1982 4.9029 10.1782 4.86286 10.1582C4.77778 10.1131 4.71772 10.0681 4.69269 10.028C4.66767 10.043 4.56757 10.1932 4.4024 10.4785C4.34234 10.5836 4.27227 10.6386 4.19219 10.6386C4.11712 10.6386 4.03704 10.6036 3.94194 10.5285C3.91692 10.4885 3.83684 10.4485 3.7017 10.4084C3.56657 10.3684 3.5015 10.3233 3.5015 10.2683C3.5015 10.2132 3.53153 10.1582 3.59159 10.0981C3.70671 9.93794 3.82182 9.77277 3.94194 9.60761C4.21722 9.72272 4.47748 9.85285 4.72272 9.998L5.16316 9.38739C5.36837 9.48749 5.49349 9.54755 5.53353 9.56757C5.65866 9.63263 5.77878 9.70771 5.89389 9.78779ZM9.57758 16.1542C9.47748 16.3493 9.32232 16.5045 9.11211 16.6196C8.9019 16.7347 8.67167 16.7948 8.42643 16.7948C8.36637 16.7898 8.32132 16.7848 8.2963 16.7848C8.15616 16.7397 8.07608 16.6597 8.05606 16.5546C8.07107 16.4394 8.1011 16.3393 8.15616 16.2442C8.21121 16.1492 8.28128 16.0491 8.37638 15.9439C8.31131 15.8989 8.26126 15.8689 8.23624 15.8539C8.19119 15.8188 8.15616 15.7788 8.13614 15.7337C8.18118 15.5335 8.29129 15.3884 8.45646 15.2933C8.57157 15.2783 8.65666 15.3033 8.71672 15.3634C8.71171 15.3984 8.69169 15.4334 8.65666 15.4685C8.62162 15.5035 8.59159 15.5385 8.55656 15.5736C8.5015 15.5335 8.44144 15.5185 8.37638 15.5235L8.33634 15.5435C8.43644 15.6086 8.50651 15.6537 8.55155 15.6787C8.5966 15.7037 8.63664 15.7137 8.67668 15.7137C8.71672 15.7137 8.75676 15.7037 8.79179 15.6787C8.82683 15.6537 8.87187 15.6286 8.91692 15.5986C8.96196 15.5686 9.002 15.5485 9.02703 15.5435C9.01201 15.6637 8.84184 15.8238 8.51652 16.024C8.36136 16.1191 8.28629 16.2042 8.28629 16.2843C8.28629 16.3493 8.32633 16.4244 8.40641 16.5045C8.46146 16.5195 8.53654 16.5245 8.63664 16.5245C8.83183 16.5245 9.03203 16.4695 9.24725 16.3544C9.32232 16.3143 9.43243 16.2493 9.57758 16.1542ZM3.17117 11.0791C3.17117 11.3243 3.13113 11.5596 3.05606 11.7798C2.98098 12 2.86086 12.1902 2.7007 12.3503C2.58058 12.3854 2.45546 12.3504 2.33033 12.2402C2.21522 12.0801 2.13514 11.9049 2.08008 11.7097C2.02502 11.5145 2 11.3143 2 11.1091C2 10.7487 2.08509 10.3433 2.25025 9.88789C2.37037 9.56757 2.54555 9.2022 2.77077 8.78679C2.67067 9.06707 2.57558 9.34234 2.48048 9.61762C2.37538 9.96297 2.32032 10.2683 2.32032 10.5285C2.32032 10.7287 2.35035 10.9089 2.40541 11.0691C2.46046 11.2292 2.56056 11.3794 2.7007 11.5195C2.78579 11.5395 2.86086 11.5195 2.91592 11.4645C2.97097 11.4094 3.02102 11.3343 3.06106 11.2392C3.07608 11.1942 3.08609 11.1542 3.0961 11.1191C3.10611 11.0841 3.13113 11.0741 3.17117 11.0791ZM20.0681 9.45746L19.7878 9.18719C19.8228 9.13213 19.8579 9.10711 19.8979 9.10711C19.9379 9.10711 19.973 9.13213 20.008 9.18719C20.043 9.24224 20.0631 9.29229 20.0681 9.34735V9.45746ZM14.7528 9.25726V9.14715C14.7678 9.03203 14.7127 8.97698 14.5926 8.97698C14.5475 8.97698 14.5075 8.997 14.4725 9.03704L14.7528 9.25726ZM5.003 8.36637H4.76276L4.78278 8.17618C4.82783 8.18118 4.86787 8.20121 4.9029 8.23624C4.93794 8.27128 4.96797 8.31131 5.003 8.36637ZM4.59259 8.31632C4.51251 8.33133 4.44745 8.30631 4.39239 8.24625L4.41241 8.17618C4.51251 8.16116 4.57257 8.21121 4.59259 8.31632ZM9.37738 13.1311L8.7968 13.5616L8.33634 13.041C8.38138 13.041 8.6016 13.0661 8.997 13.1111C9.11211 13.1261 9.23724 13.1311 9.37738 13.1311Z" fill="white"/>
</svg>
