<svg width="24" height="24" viewBox="0 0 24 24" fill="none" xmlns="http://www.w3.org/2000/svg">
<path fill-rule="evenodd" clip-rule="evenodd" d="M16.5006 6.74745C16.3603 6.88774 16.1807 7.02242 15.9618 7.14027C15.8047 7.23005 15.5971 7.32546 15.3446 7.43208C15.1257 7.51625 14.9125 7.60043 14.6936 7.6846C14.4747 7.76878 14.284 7.8754 14.11 7.99324C14.2054 7.83051 14.3513 7.67899 14.5365 7.54993C14.7217 7.42086 14.9349 7.30862 15.1762 7.21883C15.6195 7.0617 16.0572 6.90458 16.5006 6.74745ZM22 8.93601C21.8934 8.58247 21.7138 8.07742 21.4613 7.40963C21.3266 7.0561 21.2144 6.76428 21.1246 6.53421C21.1077 6.56226 21.0292 6.69134 20.8777 6.9158C20.771 7.07293 20.7205 7.20761 20.7205 7.31985C20.7205 7.40402 20.7486 7.48259 20.8103 7.56676C20.8103 8.06059 20.844 8.66103 20.9057 9.3681C20.9675 10.0752 21.0292 10.7598 21.0909 11.4164C21.1526 12.0729 21.1807 12.6958 21.1807 13.2794C20.7767 13.2794 20.3446 13.2346 19.8788 13.1448C19.5701 13.083 18.8967 12.9091 17.8586 12.6173C17.9652 12.3984 18.0325 12.1852 18.0718 11.9775C18.1111 11.7699 18.1279 11.5398 18.1279 11.2929C18.1279 10.9506 18.055 10.4063 17.9091 9.65991C17.7632 8.91356 17.6902 8.358 17.6902 7.99324C17.7576 8.08303 17.8361 8.18404 17.9203 8.30189C18.0045 8.41973 18.0662 8.49268 18.0943 8.52074C18.055 8.22332 17.9596 7.86418 17.8025 7.4433C17.6958 7.15711 17.5499 6.80918 17.3535 6.38831C17.2413 6.47248 17.1459 6.59594 17.073 6.75868C17.0224 6.91019 16.9663 7.0561 16.9158 7.19639C16.9551 7.49381 17.0673 8.11109 17.2525 9.03702C17.5163 10.3614 17.6453 11.3771 17.6453 12.0898C17.2862 12.1403 16.8709 12.1683 16.3996 12.1683H15.3333C15.2267 12.3086 15.1425 12.4601 15.0808 12.6173C15.0191 12.7744 14.9854 12.9259 14.9854 13.0774C15.0584 13.0718 15.1706 13.0662 15.3109 13.0662C15.6981 13.0662 16.1526 13.1391 16.6689 13.2794C16.9551 13.3524 17.3816 13.4758 17.9484 13.6498C17.4321 13.8911 16.9214 14.1268 16.4108 14.3569C15.8047 14.6206 15.266 14.7497 14.7946 14.7497C14.7104 14.7497 14.6431 14.7497 14.587 14.7441C14.5309 14.7441 14.4747 14.7329 14.413 14.7273C14.1717 14.688 13.9585 14.5589 13.7733 14.3344C13.6162 14.1493 13.4983 13.9248 13.4141 13.6723L12.3591 6.74745L12.2806 6.61278C12.2132 6.67451 12.1571 6.74745 12.1066 6.83724C12.0561 6.92703 11.9888 7.06732 11.899 7.25251L12.6734 11.8316C12.7576 12.4882 12.8418 13.1448 12.9315 13.7957C13.0494 14.5589 13.33 15.1257 13.7733 15.5017C14.0483 15.5746 14.3288 15.6139 14.6038 15.6139C14.9574 15.6139 15.2941 15.5634 15.6139 15.4624C15.9338 15.3614 16.2873 15.2155 16.6689 15.0303C16.8934 14.9237 17.2301 14.7553 17.679 14.5252C18.3468 14.2166 18.9473 14.0651 19.486 14.0651C19.514 14.0651 19.5645 14.0651 19.6319 14.0539C19.7217 14.0539 19.89 14.0707 20.1313 14.1044C20.3726 14.138 20.5578 14.1549 20.6756 14.1549C20.7598 14.1549 20.844 14.1436 20.9394 14.1212C21.0348 14.0987 21.1134 14.0651 21.1807 14.0202C21.1807 14.3793 21.1639 14.7273 21.1246 15.0696C21.0853 15.4119 21.0292 15.7261 20.945 16.0179C21.1863 15.4848 21.349 14.9405 21.4388 14.3793C21.5286 13.8182 21.5735 13.184 21.5735 12.4826C21.5735 12.1234 21.5511 11.6521 21.5062 11.0684C21.4108 9.81142 21.3603 9.04263 21.3603 8.75643L21.5174 8.57686C21.5174 8.57686 21.5847 8.68348 21.6745 8.835C21.7362 8.94162 21.8036 9.00896 21.8765 9.04824L22 8.93601ZM16.1526 10.1257C16.1246 10.367 16.0348 10.569 15.8945 10.7317C15.7823 10.7598 15.6925 10.743 15.6308 10.67C15.569 10.5971 15.5297 10.5129 15.5129 10.4063C15.5129 10.064 15.5971 9.7497 15.7598 9.4635C15.7318 9.65991 15.7037 9.85071 15.6813 10.0359C15.6813 10.1257 15.6925 10.1986 15.7093 10.2547C15.7262 10.3109 15.7654 10.3614 15.8272 10.4063C15.9169 10.4287 15.9843 10.4063 16.0236 10.3333C16.0629 10.2604 16.1077 10.193 16.1526 10.1257ZM14.3345 10.2828C14.2727 10.5802 14.1717 10.9057 14.0202 11.2592C14.11 10.9394 14.1549 10.6251 14.1549 10.3277C14.1549 10.0752 14.1268 9.84509 14.0707 9.64869C14.0146 9.45228 13.9136 9.2671 13.7733 9.09314C13.7565 9.04824 13.7677 9.00334 13.7957 8.96406C13.8238 8.92478 13.8575 8.87989 13.8967 8.835C14.0763 8.96406 14.1998 9.17169 14.2671 9.4635C14.312 9.66552 14.3345 9.9405 14.3345 10.2828ZM11.3266 8.87989C11.2985 9.0314 11.2312 9.18292 11.1246 9.34004C11.0629 9.42983 11.0067 9.51401 10.945 9.59818C10.8328 9.59818 10.7093 9.5589 10.5746 9.48595C10.3782 9.37933 10.266 9.32321 10.2267 9.30637L10.6981 8.63297L11.3266 8.87989ZM18.5432 16.2761C18.4478 16.45 18.3468 16.624 18.2514 16.8036C18.1785 16.9158 18.0887 16.9888 17.9933 17.0168C17.954 16.9719 17.8474 16.9046 17.6622 16.8204C17.477 16.7362 17.3872 16.6408 17.3872 16.5342L17.9035 15.9955L18.5432 16.2761ZM10.5971 6.9158C10.44 7.10099 10.1538 7.25811 9.74411 7.38718C9.17733 7.56114 8.83502 7.67338 8.72278 7.73511C8.29069 7.89224 7.96521 8.01008 7.74635 8.08303C7.35915 8.22332 7.04489 8.35801 6.80359 8.48707C6.80359 8.42535 6.83726 8.358 6.9046 8.27944C6.97194 8.20087 7.03928 8.13915 7.10662 8.09426C8.26824 7.70705 9.42985 7.31423 10.5971 6.9158ZM12.101 9.72164C12.0056 9.8956 11.9327 10.0191 11.8878 10.1032C11.8036 10.2547 11.7194 10.3782 11.6296 10.4736L10.8552 10.1257C10.7374 10.4792 10.541 10.6532 10.2716 10.6532C10.092 10.6532 9.89562 10.5802 9.67677 10.4399C9.69921 10.3109 9.75533 10.1762 9.84512 10.0247C9.91246 9.91805 10.0135 9.79459 10.1481 9.64308C10.1987 9.68236 10.3165 9.72725 10.4961 9.78337C10.6756 9.83949 10.8047 9.90682 10.8889 9.991L11.4725 9.35127C11.4725 9.35127 11.6128 9.42422 11.8765 9.55329C11.9888 9.60379 12.0617 9.65991 12.101 9.72164ZM8.67789 9.2727C8.633 9.27832 8.59933 9.30637 8.57688 9.35127C8.55443 9.39616 8.52637 9.45228 8.49832 9.51962C8.42536 9.48034 8.37486 9.44667 8.35241 9.40739C8.30752 9.34005 8.28507 9.25587 8.28507 9.14925C8.28507 9.04263 8.32997 8.85745 8.41975 8.5937C8.50954 8.32995 8.54321 8.13354 8.52076 8.0157C8.50393 8.0662 8.42536 8.30189 8.27385 8.71154C8.16723 8.99773 8.11672 9.23343 8.11672 9.41861C8.11672 9.57013 8.14478 9.7048 8.19529 9.83387C8.28507 9.86193 8.3468 9.87877 8.37486 9.87877C8.43659 9.87877 8.48148 9.8451 8.52076 9.77776C8.64983 9.64308 8.70034 9.47473 8.67789 9.2727ZM16.826 16.7924C16.7082 16.9719 16.5398 17.1178 16.321 17.2301C16.1021 17.3423 15.8777 17.3984 15.6476 17.3984C15.5634 17.3984 15.5017 17.3984 15.4568 17.3872C15.4063 17.3872 15.3558 17.3816 15.3109 17.3647C15.2043 17.3255 15.1369 17.2693 15.0976 17.1852C15.1145 17.0561 15.1594 16.9439 15.2435 16.8372C15.3558 16.6969 15.5297 16.5623 15.7598 16.4444C15.7318 16.3939 15.6869 16.3602 15.6308 16.349C15.5746 16.3378 15.4905 16.3322 15.3782 16.3322L15.3558 16.3546C15.3165 16.3266 15.3221 16.2873 15.367 16.248C15.4119 16.2087 15.4343 16.1751 15.4343 16.1526C15.5017 16.0797 15.5746 16.0404 15.6588 16.0404C15.7262 16.0404 15.8103 16.0684 15.9057 16.1189C15.9506 16.1414 16.0236 16.1863 16.1302 16.2536C16.0685 16.3715 15.9338 16.5005 15.7205 16.6352C15.5073 16.7699 15.3838 16.8877 15.3558 16.9944C15.4961 17.0785 15.6588 17.1178 15.8384 17.1178C15.9955 17.1178 16.1526 17.0898 16.3154 17.028C16.4781 16.9663 16.6465 16.8877 16.826 16.7924ZM6.54545 7.52187C6.50056 7.66216 6.46689 7.76877 6.43883 7.84173C6.41077 7.91468 6.3771 7.96519 6.33221 7.99324C6.21998 7.93152 6.10774 7.90346 5.99551 7.90346C5.81033 7.90346 5.60831 7.99886 5.40067 8.19526C4.81706 8.7396 4.49719 9.02579 4.43547 9.04824L3.62739 9.48595L5.64759 7.80245C5.62514 7.77439 5.57464 7.74633 5.49046 7.71827C5.40629 7.69021 5.35578 7.67338 5.33333 7.65654C5.33333 7.45452 5.367 7.25812 5.43434 7.07293C5.47924 6.9607 5.56902 6.78112 5.7037 6.53421C5.91134 6.62399 6.10774 6.75868 6.28171 6.94386C6.45567 7.12905 6.54545 7.31985 6.54545 7.52187ZM8.52076 11.5398C8.48148 11.6128 8.46465 11.6689 8.46465 11.697C8.42536 11.697 8.37486 11.6857 8.30752 11.6689C8.24018 11.6521 8.19529 11.6408 8.17284 11.6408C8.14478 11.6408 8.11111 11.6521 8.07183 11.6745C8.02694 11.7867 7.98765 11.9383 7.9596 12.1347C7.88664 12.6565 7.84175 12.9259 7.83614 12.9427C7.75196 12.853 7.66779 12.6958 7.57239 12.477C7.47699 12.2581 7.39282 12.101 7.31987 12.0112C7.29742 12.0729 7.26375 12.101 7.21885 12.101C7.1908 12.101 7.14029 12.0842 7.07856 12.0449C7.01683 12.0056 6.97755 11.9888 6.96072 11.9888C6.93266 11.9382 6.91583 11.8821 6.91583 11.8204C6.91583 11.7755 6.92705 11.7194 6.94388 11.6521C6.96072 11.5847 6.98878 11.523 7.01684 11.4613C7.05612 11.4164 7.10101 11.3939 7.15152 11.3939C7.17396 11.3939 7.21324 11.4108 7.27497 11.4388C7.36476 11.5567 7.46016 11.7138 7.56678 11.899C7.61167 11.9719 7.69024 12.129 7.80247 12.3591C7.84736 12.0842 7.88664 11.8821 7.9147 11.7531C7.97643 11.523 8.08867 11.3659 8.2514 11.2817C8.31313 11.3041 8.37486 11.3266 8.44781 11.3434C8.52076 11.3602 8.55443 11.3995 8.55443 11.45C8.55443 11.4725 8.54321 11.5005 8.52076 11.5398ZM6.78115 9.75531C6.78115 9.75531 6.67452 9.65991 6.48934 9.54206C6.39955 9.48033 6.30415 9.41861 6.19753 9.35127L5.59147 10.0471C5.48485 9.95172 5.36139 9.87316 5.20988 9.81143C5.05836 9.7497 4.91246 9.69358 4.77217 9.64308C4.62065 9.8956 4.52525 10.0696 4.48597 10.165C4.44669 10.2604 4.41302 10.3614 4.39057 10.4736C4.60943 10.5858 4.82267 10.6925 5.04153 10.7991C5.14815 10.7991 5.24355 10.7149 5.33333 10.5409C5.45118 10.3109 5.52974 10.1706 5.56902 10.1257L6.36588 10.5409C6.4725 10.3894 6.55668 10.2604 6.61841 10.1425C6.68013 10.0247 6.73625 9.8956 6.78115 9.75531ZM12.4377 16.3771C12.3872 16.4949 12.3086 16.5959 12.2132 16.6689C12.1178 16.7418 11.9888 16.8092 11.8373 16.8709C11.6857 16.9326 11.5679 16.9719 11.4837 16.9944C11.3434 17.0449 11.22 17.101 11.1246 17.1515C11.1751 17.0449 11.2536 16.9551 11.3603 16.8765C11.4669 16.798 11.5903 16.7306 11.7363 16.6689C11.8822 16.6072 11.9944 16.5623 12.0786 16.5342C12.2525 16.4669 12.3704 16.4164 12.4377 16.3771ZM11.3827 15.1762C11.5623 14.7553 11.6521 14.3176 11.6521 13.8518C11.6521 13.6218 11.624 13.3973 11.5623 13.1784C11.5006 12.9596 11.4108 12.7744 11.2817 12.6173L11.0797 13.3692C11.0965 13.4815 11.1358 13.6442 11.2031 13.8631C11.2705 14.0819 11.3098 14.2446 11.3266 14.3569C11.2312 14.4523 11.119 14.514 10.9899 14.5365C10.9618 14.5365 10.9169 14.5421 10.8664 14.5589C10.8159 14.5757 10.7374 14.5814 10.6308 14.5814C10.2323 14.5814 9.90124 14.4354 9.63187 14.1436C9.62626 14.0595 9.6431 13.936 9.68799 13.762C9.71044 13.6779 9.72166 13.6161 9.72166 13.5712C9.60943 13.6891 9.42985 13.9023 9.18294 14.1998C8.7789 14.6319 8.38608 14.8507 8.00449 14.8507C7.93154 14.8507 7.87542 14.8507 7.83614 14.8395C7.43771 14.8395 7.06734 14.6431 6.7138 14.2446C6.69697 14.2278 6.45006 13.8799 5.96184 13.2009C5.66442 13.2963 5.4119 13.4646 5.20988 13.6947C5.05275 13.8687 4.89562 14.1156 4.7385 14.4354C4.51403 14.8619 4.36813 15.1257 4.30079 15.2323C4.1156 15.5297 3.91919 15.7598 3.71717 15.9169C3.64422 15.9338 3.58249 15.9394 3.5376 15.9394C3.35802 15.9394 3.20651 15.8776 3.08866 15.7598C2.8193 15.5297 2.6229 15.2491 2.49944 14.9237C2.37598 14.5982 2.31425 14.2503 2.31425 13.8855C2.31425 13.5207 2.37037 13.1448 2.4826 12.8081L2.88664 12.7856C3.06061 12.6229 3.18406 12.4152 3.26824 12.1683C3.32997 11.9831 3.37486 11.7362 3.40292 11.4388C3.35241 11.4332 3.31874 11.4444 3.30752 11.4837C3.2963 11.523 3.28507 11.5679 3.27946 11.6184C3.22896 11.7138 3.16162 11.7923 3.08866 11.8485C3.01571 11.9046 2.92593 11.9158 2.83053 11.8765C2.71268 11.7138 2.6229 11.5454 2.56678 11.3827C2.51066 11.22 2.4826 11.0516 2.4826 10.8776C2.4826 10.468 2.70146 9.87877 3.14478 9.11558C3.40853 8.66103 3.57688 8.32995 3.66106 8.12793C3.48709 8.24577 3.2963 8.48146 3.08866 8.835C2.93715 9.08752 2.84175 9.24465 2.79686 9.30637C2.57239 9.73286 2.40965 10.0976 2.30303 10.395C2.1459 10.8271 2.06734 11.22 2.06734 11.5735C2.06734 12.028 2.1908 12.4265 2.43771 12.7632C2.2862 13.055 2.17957 13.3468 2.10662 13.6386C2.03367 13.9304 2 14.2334 2 14.5477C2 14.991 2.08979 15.4063 2.26936 15.8047C2.44332 16.1189 2.6229 16.3602 2.80808 16.5342C3.07183 16.7755 3.34119 16.8934 3.62739 16.8934C3.86869 16.7587 4.07632 16.551 4.25589 16.2761C4.32884 16.1582 4.46352 15.9001 4.64871 15.5017C4.80022 15.165 4.94052 14.9012 5.0752 14.716C5.27161 14.4467 5.49607 14.2503 5.7486 14.1212C5.88328 14.211 5.98429 14.3344 6.05163 14.4916C6.21437 14.8507 6.45567 15.1537 6.76992 15.395C7.08418 15.6363 7.42649 15.7598 7.80247 15.7598C8.11672 15.7598 8.41975 15.6532 8.71156 15.4455C8.96409 15.266 9.17733 15.0247 9.35129 14.7273C9.37374 14.8675 9.45791 15.0134 9.60943 15.1537C9.7385 15.2716 9.87318 15.3614 10.0135 15.4231C10.064 15.4287 10.1425 15.4399 10.2435 15.4512C10.3446 15.4624 10.4343 15.468 10.5185 15.468C10.6813 15.468 10.844 15.4455 11.0011 15.395C11.1582 15.3445 11.2873 15.2716 11.3827 15.1762ZM10.7318 16.7587C10.6813 16.8709 10.6027 16.9888 10.5073 17.1066C10.4119 17.2244 10.3053 17.3479 10.193 17.4657C9.97419 17.376 9.81706 17.3086 9.71044 17.2637C9.51403 17.1796 9.38496 17.0898 9.31762 16.9944L8.68911 17.6117C8.66106 17.5724 8.57127 17.5275 8.42537 17.4714C8.27946 17.4152 8.156 17.3703 8.04938 17.3311C8.04938 17.2132 8.09989 17.0898 8.20651 16.9607C8.31313 16.8316 8.41414 16.7082 8.52076 16.5903C8.65544 16.5903 8.80135 16.624 8.95847 16.6913C9.0651 16.7362 9.19978 16.8092 9.37374 16.9158L9.9798 16.3322C10.0528 16.3602 10.1425 16.4051 10.2492 16.4669C10.4063 16.5623 10.569 16.6633 10.7318 16.7587ZM4.53648 12.6173C4.54209 12.679 4.5477 12.7239 4.5477 12.7519C4.5477 12.8473 4.53648 12.9315 4.50842 13.0045C4.48036 13.0774 4.42985 13.1391 4.3569 13.2009C4.27273 13.2289 4.20539 13.2233 4.14927 13.184C4.09315 13.1448 4.05387 13.0943 4.03704 13.0325C4.0202 12.9708 4.00898 12.9035 4.00898 12.8193C4.00898 12.6397 4.05387 12.4433 4.13805 12.2357C4.22222 12.028 4.3064 11.8204 4.39057 11.6184C4.40741 11.725 4.37374 11.8821 4.29517 12.0954C4.21661 12.3086 4.17733 12.4545 4.17733 12.5387C4.17733 12.6117 4.18855 12.6734 4.211 12.7239C4.23345 12.7744 4.28395 12.8193 4.3569 12.8642C4.4018 12.8473 4.42985 12.8024 4.44669 12.7295C4.46352 12.6565 4.49158 12.6173 4.53648 12.6173ZM5.96184 16.5791C5.93939 16.6745 5.90011 16.7811 5.84961 16.8877C5.7991 16.9944 5.73737 17.0954 5.67003 17.1852C5.60831 17.1852 5.5578 17.1627 5.5073 17.1122C5.45679 17.0617 5.42873 17.0112 5.41751 16.9607C5.40629 16.9102 5.40067 16.8485 5.40067 16.7811C5.40067 16.6857 5.42873 16.5623 5.47924 16.4108C5.52974 16.2592 5.56902 16.147 5.59147 16.074C5.56902 16.2087 5.55219 16.349 5.53535 16.4893C5.53535 16.6408 5.57464 16.7475 5.64759 16.8148L5.71493 16.8485C5.75982 16.8429 5.81033 16.7811 5.86083 16.6689C5.88889 16.6072 5.92256 16.5791 5.96184 16.5791ZM6.33221 7.62287L6.09652 7.25251C6.05724 7.32546 6.0404 7.38158 6.0404 7.40963C6.0404 7.45453 6.05724 7.49381 6.0853 7.52187C6.15264 7.58921 6.23681 7.62287 6.33221 7.62287ZM5.84961 7.4433C5.85522 7.3928 5.84961 7.3479 5.82155 7.30862C5.79349 7.26934 5.75982 7.23567 5.71493 7.20761C5.60831 7.16833 5.54658 7.20761 5.52413 7.33107C5.56341 7.35913 5.61953 7.38718 5.69809 7.40402C5.77666 7.42085 5.82716 7.43769 5.84961 7.4433Z" fill="white"/>
</svg>
