<svg width="24" height="24" viewBox="0 0 24 24" fill="none" xmlns="http://www.w3.org/2000/svg">
<path fill-rule="evenodd" clip-rule="evenodd" d="M21.9942 9.15292C21.9006 9.13538 21.8246 9.06521 21.772 8.94244C21.6785 8.73783 21.6258 8.62675 21.62 8.60337L21.468 8.81383L21.9591 14.8062C21.9591 15.5195 21.7837 16.1743 21.4388 16.7706C21.544 16.3672 21.5908 15.8995 21.5908 15.3675V14.8354C21.5615 14.6834 21.544 14.5782 21.5323 14.5139L20.86 8.15905C20.8951 8.11228 20.9009 8.05382 20.8717 7.97782C20.8424 7.90182 20.8132 7.82581 20.7723 7.73812C20.8366 7.58612 20.9126 7.42828 20.9944 7.25289C21.0763 7.0775 21.1815 6.94887 21.3043 6.85533C21.3803 7.01318 21.4972 7.34642 21.6551 7.8492C21.7135 8.00705 21.7778 8.18243 21.8538 8.36951C21.8831 8.35197 21.9006 8.36951 21.9182 8.42797C21.9298 8.48643 21.9415 8.52151 21.9532 8.53905L21.9415 8.69106H22V9.15292H21.9942ZM16.6624 7.56857C16.6039 7.64457 16.5221 7.67965 16.411 7.67965C16.3759 7.67965 16.3291 7.66797 16.2707 7.65043C16.2239 7.63289 16.1245 7.65628 15.9667 7.72643C15.8147 7.79659 15.6977 7.83166 15.6217 7.83166C15.499 7.83166 15.4054 7.7732 15.3411 7.65043C15.3411 7.42827 15.3645 7.23534 15.4054 7.07749C15.4464 6.91964 15.5341 6.79103 15.6627 6.69749C15.6627 6.72672 15.6451 6.80856 15.6159 6.94302C15.5808 7.07748 15.5691 7.18272 15.5691 7.25872C15.5691 7.32303 15.5808 7.37565 15.5984 7.41073C15.6276 7.42827 15.6685 7.43995 15.727 7.43995C15.8673 7.43995 15.9725 7.38151 16.0485 7.27043C16.031 7.23535 16.0193 7.17102 16.0193 7.08918C16.0193 7.01318 16.031 6.94302 16.0544 6.87287C16.0778 6.80271 16.1128 6.71502 16.1596 6.61563C16.1771 6.64486 16.1888 6.69748 16.1888 6.78518C16.1771 6.89626 16.1771 6.98395 16.1771 7.03656C16.1771 7.19441 16.2531 7.28212 16.3993 7.3055C16.5045 7.3055 16.563 7.28796 16.5805 7.24704C16.5455 7.20027 16.5221 7.1301 16.5221 7.03656C16.5221 6.92548 16.5571 6.81441 16.6331 6.69749C16.7092 6.86703 16.7442 7.03656 16.7442 7.20026C16.7442 7.32887 16.715 7.45166 16.6624 7.56274V7.56857ZM17.1944 5.28269C17.1593 5.271 17.0892 5.28269 16.9839 5.32362L11.2312 7.32887C11.0091 7.43411 10.8629 7.60366 10.7986 7.8492C11.3248 7.61535 11.9094 7.38149 12.5525 7.14764C12.9909 6.98979 13.5873 6.78518 14.3356 6.52794C15.2242 6.22978 15.8205 6.02517 16.1187 5.90824C16.3175 5.83224 16.5279 5.75624 16.7501 5.66854C16.9722 5.58085 17.1242 5.45224 17.2002 5.27686L17.1944 5.28269ZM16.5513 9.07106C16.3935 9.32245 16.2356 9.57383 16.0894 9.83107C16.0544 9.75506 15.9374 9.66737 15.7387 9.55629C15.5399 9.45106 15.4464 9.34583 15.4464 9.25229C15.4464 9.20552 15.4581 9.1529 15.4873 9.10029L15.9199 8.42797C16.0602 8.52151 16.2005 8.6092 16.3408 8.69689C16.4987 8.81966 16.5688 8.94245 16.5513 9.07691V9.07106ZM14.5285 10.4859C14.5753 10.5502 14.5811 10.6262 14.5402 10.708C14.5051 10.7899 14.4408 10.8951 14.3531 11.012C14.2654 11.1289 14.166 11.1582 14.0666 11.1056C13.9731 10.9769 13.9263 10.8191 13.9263 10.6437C13.9263 10.4917 13.9614 10.3397 14.0316 10.176C14.1017 10.0123 14.1836 9.86615 14.2771 9.73169C14.2128 9.97723 14.1485 10.2111 14.0959 10.4449C14.0959 10.5852 14.1543 10.6963 14.2771 10.784C14.3356 10.7723 14.3823 10.7372 14.4291 10.6729C14.4467 10.6554 14.4817 10.5911 14.5285 10.4917V10.4859ZM12.5525 10.1935C12.5642 10.3046 12.5525 10.4157 12.5115 10.5151C12.4355 10.6437 12.3829 10.7372 12.3595 10.7957C12.2835 10.8542 12.1958 10.9068 12.1023 10.9594C12.0029 11.012 11.9152 11.0354 11.8275 11.0354C11.7691 11.0354 11.7048 11.012 11.6288 10.9652C11.5528 10.9185 11.5001 10.8483 11.4592 10.7606C11.4241 10.6729 11.4008 10.5735 11.4008 10.4742C11.4008 10.4274 11.4183 10.328 11.4475 10.1702C11.4826 10.0182 11.5645 9.88954 11.6931 9.7843C11.6931 9.81938 11.6814 9.89539 11.6638 10.0065C11.6463 10.1175 11.6346 10.2052 11.6346 10.2578C11.6346 10.3806 11.6697 10.48 11.734 10.5502C11.7983 10.6262 11.8743 10.6612 11.9562 10.6612C12.0029 10.6612 12.0614 10.6495 12.1257 10.6203C12.19 10.5911 12.2368 10.5735 12.266 10.5618L12.3245 10.4917C12.3069 10.4332 12.1958 10.3163 12.0029 10.1409C11.9211 10.0649 11.8743 10.0006 11.8743 9.94215C11.8743 9.87784 11.9328 9.80183 12.0438 9.71999C12.1374 9.77845 12.2309 9.84276 12.3245 9.92461C12.418 10.0065 12.494 10.0883 12.5466 10.1818L12.5525 10.1935ZM10.6875 9.50368C10.6524 9.60891 10.6115 9.71415 10.5764 9.82523C10.5414 9.93631 10.4829 10.0298 10.4069 10.1058C10.3426 10.1175 10.2841 10.1 10.2315 10.0591C10.1789 10.0182 10.1263 9.95384 10.0678 9.87199C10.0561 9.83692 10.0561 9.77261 10.0561 9.69076C10.0561 9.36337 10.1672 9.08861 10.3952 8.86061C10.3309 9.05938 10.2666 9.25229 10.214 9.45106C10.214 9.52707 10.2432 9.60307 10.2958 9.67322C10.3894 9.75507 10.4595 9.77846 10.5063 9.73169C10.5238 9.72 10.5472 9.67907 10.5706 9.60307C10.594 9.52707 10.6349 9.49783 10.6875 9.50368ZM18.235 17.7001C17.9252 18.0158 17.6329 18.2555 17.3522 18.4134C16.9956 18.618 16.639 18.7232 16.2882 18.7232C16.1011 18.7232 15.9141 18.6881 15.727 18.6238C15.6042 18.5595 15.5457 18.466 15.5457 18.3432C15.5457 18.2497 15.5808 18.1503 15.651 18.0509C15.7211 17.9457 15.803 17.8521 15.9024 17.7644C16.0018 17.6767 16.1128 17.5949 16.2473 17.5189C16.1362 17.4721 16.0427 17.437 15.9725 17.4195C15.9024 17.402 15.8381 17.3961 15.7854 17.4078C15.7562 17.3493 15.7621 17.2909 15.8088 17.2324C15.8498 17.174 15.9082 17.1155 15.9842 17.057C16.1128 17.0863 16.2531 17.1155 16.3935 17.1389C16.5455 17.1856 16.6156 17.2675 16.6156 17.3786C16.5864 17.4721 16.3935 17.6417 16.0427 17.8814C15.9024 17.9866 15.8439 18.0977 15.8731 18.2204C16.0719 18.3257 16.2824 18.3724 16.5045 18.3724C16.7267 18.3724 16.9547 18.3315 17.1768 18.2438C17.2412 18.2263 17.5978 18.045 18.2409 17.6943L18.235 17.7001ZM6.88161 7.4692C6.86992 7.53351 6.83484 7.56857 6.77053 7.56857C6.64776 7.5335 6.55422 7.51011 6.48992 7.51011C6.41391 7.51011 6.3613 7.55689 6.33791 7.65043C6.2736 8.00705 6.22099 8.26428 6.18591 8.42797C6.15083 8.59167 6.09237 8.73198 6.01637 8.85475C5.88775 8.56244 5.78837 8.35197 5.72406 8.21166C5.59544 7.94858 5.40251 7.81996 5.15113 7.81996C5.06928 7.77319 5.02251 7.71473 5.02251 7.63873C5.02251 7.60365 5.04005 7.54519 5.06928 7.46334C5.10436 7.3815 5.11605 7.32888 5.11605 7.29965C5.14528 7.23534 5.1979 7.20026 5.26805 7.20026C5.31482 7.20026 5.3499 7.21195 5.37913 7.24118C5.53698 7.3698 5.68898 7.57442 5.82929 7.84335C5.88775 7.95443 5.95791 8.0889 6.03975 8.25259C6.07483 8.18828 6.12745 8.00121 6.18591 7.69136C6.24437 7.38151 6.38468 7.19441 6.60099 7.1301C6.8173 7.1301 6.92254 7.20027 6.92254 7.34058C6.92254 7.37566 6.91084 7.42243 6.88161 7.4692ZM19.6089 14.9641L19.3575 14.8939C18.7612 14.8939 18.1766 14.8588 17.6036 14.7887C17.0307 14.7185 16.3642 14.6075 15.5984 14.4613C14.9904 14.3502 14.3823 14.2333 13.7743 14.1105C14.2303 13.8416 14.6747 13.5434 15.1073 13.2219C15.5399 12.9004 15.9433 12.5496 16.3291 12.1754C16.4811 12.2339 16.5981 12.3742 16.6916 12.608C16.9079 13.1225 17.1008 13.4265 17.2821 13.52C17.3581 13.5551 17.4516 13.5785 17.5627 13.5785C17.7381 13.5785 17.9018 13.5434 18.0538 13.4674C18.3344 13.1868 18.5215 12.8711 18.615 12.5203C18.7086 12.1696 18.7553 11.7486 18.7553 11.2634C18.7553 11.0296 18.7319 10.7139 18.6852 10.3105C18.5916 9.50368 18.5449 8.99506 18.5449 8.77875L18.6852 8.42797C18.767 8.56828 18.8606 8.70859 18.9541 8.8489C19.0184 8.95413 19.0652 9.01844 19.0944 9.04767C19.0944 8.70859 19.0243 8.34028 18.884 7.93689C18.8547 7.87258 18.7144 7.52765 18.463 6.89626C18.3812 6.92549 18.2993 7.00149 18.2233 7.13596C18.1882 7.20027 18.1298 7.3055 18.0538 7.44581C18.0362 7.57442 18.0246 7.69135 18.0246 7.79659V8.11812C18.0246 8.43382 18.1006 9.32245 18.2467 10.784C18.311 11.4212 18.3461 11.9649 18.3461 12.4268C18.2876 12.4911 18.2292 12.532 18.1707 12.5437C18.1122 12.5554 18.0246 12.5671 17.9135 12.5671H17.6913C17.475 12.4619 17.323 12.2397 17.2295 11.889C17.1359 11.5382 17.0541 11.3277 16.9898 11.2517C16.7208 11.3336 16.3701 11.5616 15.9374 11.924C15.4347 12.3567 15.0897 12.6197 14.9144 12.725C14.774 12.836 14.2186 13.1225 13.2423 13.5785C12.5583 13.8942 12.1315 14.3151 11.9503 14.8296C12.2952 14.8764 12.798 14.9465 13.4528 15.0401C14.1076 15.1336 14.6571 15.2388 15.0956 15.3499C14.6922 15.4785 14.2654 15.6189 13.8211 15.765C13.3709 15.9112 12.9968 16.0164 12.6928 16.0807C12.3888 16.145 12.1491 16.1918 11.9678 16.2152C11.7925 16.2386 11.5995 16.2502 11.3949 16.2502C10.9564 16.2502 10.5238 16.1742 10.1029 16.0281C9.81058 15.8527 9.58842 15.613 9.43058 15.3207C9.27273 15.0284 9.16749 14.701 9.12072 14.3444C9.06226 13.6428 9.03888 12.9588 9.03888 12.2982C9.03888 11.9591 9.03888 11.6259 9.04472 11.2926C9.04472 10.9594 9.05057 10.632 9.05057 10.3046C9.05057 9.71414 9.03303 9.12952 9.0038 8.55074C8.96872 7.97196 8.91611 7.43996 8.8401 6.96641C8.72903 7.07749 8.62964 7.2295 8.54779 7.41658C8.50102 7.52182 8.43671 7.6855 8.34902 7.91935C8.47764 8.60921 8.56533 9.45691 8.60041 10.4566C8.6121 10.7665 8.61795 11.5382 8.62964 12.7717C8.64133 14.0053 8.67056 14.9465 8.72903 15.5896C8.52441 15.841 8.27302 16.0749 7.96901 16.2912C7.85794 16.373 7.58316 16.5484 7.15639 16.8115C6.65946 17.057 6.23268 17.2383 5.88191 17.361C5.36744 17.5306 4.89974 17.6124 4.47881 17.6124C4.16896 17.6124 3.8708 17.5598 3.57849 17.4487C3.28617 17.3435 3.02309 17.1681 2.7834 16.9343C2.5437 16.7004 2.42678 16.4081 2.42678 16.0632C2.42678 15.9696 2.42678 15.8995 2.43847 15.8527C2.45016 15.8059 2.4677 15.7358 2.49693 15.6422C2.60216 15.3792 2.71324 15.1044 2.83601 14.8121C2.95878 14.5198 3.12248 14.3794 3.3271 14.3794C3.59602 14.2684 3.7831 13.9878 3.87664 13.5376C3.94095 13.2277 3.99357 13.0348 4.02865 12.9471C3.93511 13.0524 3.84157 13.1517 3.74803 13.2511C3.65449 13.3505 3.54341 13.3914 3.40894 13.3681C3.28617 13.2102 3.19848 13.0582 3.15171 12.912C3.09909 12.7659 3.07571 12.608 3.07571 12.4443C3.07571 12.1053 3.22186 11.6609 3.50833 11.0997C3.86495 10.4274 4.06372 10.0065 4.11049 9.83692C3.98772 9.93046 3.8708 10.0766 3.75972 10.2695C3.70126 10.3748 3.61356 10.5326 3.49079 10.7489C3.47325 10.7957 3.29202 11.2108 2.95878 12C2.73663 12.5145 2.6197 12.9471 2.6197 13.3037C2.6197 13.4908 2.64309 13.6662 2.6957 13.8241C2.74832 13.9819 2.83017 14.1398 2.94125 14.3035C2.50862 15.0693 2.25139 15.5838 2.16954 15.8469C2.05846 16.1742 2 16.5133 2 16.8583C2 16.981 2 17.0687 2.01169 17.1272C2.08769 17.4546 2.25724 17.7469 2.52616 18.01C2.79509 18.2731 3.07571 18.4309 3.37387 18.4952C3.67203 18.5537 3.97018 18.5887 4.25665 18.5887C4.6425 18.5887 5.02835 18.5361 5.41421 18.4367C5.80006 18.3315 6.16253 18.1971 6.50161 18.0275C7.45455 17.5774 8.24379 16.8816 8.85764 15.9345C8.98041 16.2912 9.19088 16.601 9.49488 16.8583C9.79889 17.1213 10.1263 17.25 10.4712 17.25C10.974 17.25 11.5352 17.1915 12.1432 17.0687C12.5291 16.9927 13.4177 16.753 14.8091 16.3555C15.4639 16.1684 15.9842 16.0398 16.3642 15.9638C16.8962 15.8586 17.4282 15.8118 17.9486 15.8118C18.1473 15.8118 18.3519 15.8235 18.5741 15.841C18.7963 15.8585 18.9892 15.8878 19.1587 15.9229C19.2406 15.765 19.3341 15.6013 19.4277 15.4318C19.5212 15.2622 19.5797 15.1161 19.6089 14.9816V14.9641ZM11.2604 13.2687C11.2604 13.5142 11.1961 13.7188 11.0617 13.8884C10.8921 13.9176 10.7928 13.9234 10.7694 13.9001C10.6466 13.7422 10.5881 13.5551 10.5881 13.3388C10.5881 13.1634 10.6349 12.9588 10.7284 12.7308C10.822 12.5028 10.9097 12.2865 10.9974 12.076C10.9974 12.1813 10.974 12.304 10.9272 12.456C10.8161 12.8185 10.7577 13.0465 10.7577 13.1284C10.7577 13.3271 10.8454 13.4557 11.0266 13.52C11.0734 13.5084 11.1084 13.4674 11.1377 13.3914C11.1669 13.3154 11.2078 13.2745 11.2663 13.2628L11.2604 13.2687ZM6.56007 9.43938C6.57761 9.49784 6.57761 9.5563 6.55422 9.62061C6.53084 9.68492 6.49576 9.75506 6.44899 9.83107C6.38468 9.81937 6.32622 9.81938 6.2736 9.81938H6.16837C5.96375 9.81938 5.78252 9.84861 5.63636 9.91292C5.48436 9.97138 5.36744 10.0766 5.28559 10.2286C5.36159 10.556 5.41421 10.8015 5.43759 10.9711C5.51359 11.316 5.56036 11.5557 5.5779 11.696C5.59544 11.8305 5.60713 11.9533 5.60713 12.0585V12.3742C5.60713 12.6197 5.60129 12.7893 5.58375 12.8887C5.57205 12.988 5.53698 13.1225 5.49021 13.2862C5.52529 13.1634 5.54867 13.0173 5.54867 12.836C5.54867 12.7542 5.53698 12.6431 5.51944 12.5087C5.5019 12.3742 5.48436 12.269 5.46098 12.193L5.19205 11.0412C5.17451 10.9594 5.15697 10.8717 5.15113 10.7899C5.13943 10.708 5.13943 10.6145 5.13943 10.5092C5.13943 10.3514 5.16866 10.1994 5.22128 10.0591C5.34405 9.76677 5.63052 9.56215 6.09237 9.43938C6.03391 9.36338 5.9696 9.31661 5.8936 9.29322C5.8176 9.26984 5.75329 9.26984 5.69483 9.29907L5.56621 9.42767C5.54867 9.36921 5.56036 9.29906 5.60129 9.21137C5.64221 9.12367 5.67144 9.05938 5.69483 9.0243C5.75913 8.95999 5.84683 8.92491 5.96375 8.92491C6.02222 8.92491 6.08068 8.94245 6.14499 8.98337C6.2093 9.01845 6.2853 9.09445 6.36714 9.20553C6.44899 9.31661 6.5133 9.39846 6.54838 9.44523L6.56007 9.43938ZM7.20316 14.5198C7.20316 14.6425 7.17977 14.7653 7.13885 14.8822C7.09792 15.005 7.02192 15.0927 6.905 15.1512C6.82315 15.1687 6.753 15.1512 6.70038 15.1044C6.64776 15.0576 6.61269 14.9875 6.59515 14.8998C6.58345 14.8238 6.58346 14.7711 6.58346 14.7302C6.58346 14.5139 6.62438 14.2976 6.71207 14.0696C6.7413 13.9936 6.79392 13.8708 6.88161 13.7071C6.89331 13.789 6.86992 13.9234 6.8173 14.0988C6.76469 14.2742 6.7413 14.397 6.7413 14.4613C6.7413 14.5081 6.7413 14.5607 6.753 14.6133C6.76469 14.6718 6.80561 14.7361 6.88161 14.8121C6.95761 14.8121 7.02192 14.7653 7.08623 14.6718C7.14469 14.5782 7.18562 14.5256 7.20316 14.5198Z" fill="white"/>
</svg>
