<svg width="24" height="24" viewBox="0 0 24 24" fill="none" xmlns="http://www.w3.org/2000/svg">
<path fill-rule="evenodd" clip-rule="evenodd" d="M18.4826 7.04983C18.3913 7.16195 18.2874 7.25332 18.1753 7.31976C18.0632 7.38621 17.9178 7.4485 17.7351 7.51079C17.7019 7.52325 17.5607 7.57308 17.3074 7.66029C17.1205 7.72674 16.9793 7.78488 16.8796 7.83887C16.9544 7.71428 17.0499 7.61046 17.1703 7.53571C17.2908 7.46096 17.4361 7.39036 17.6105 7.33222C17.9012 7.24086 18.1961 7.14534 18.4868 7.05398L18.4826 7.04983ZM18.275 8.57392C18.2085 8.73173 18.0549 8.86047 17.8182 8.95183C17.5192 9.07226 17.3281 9.16362 17.2492 9.23007C17.216 9.18854 17.2202 9.14286 17.2575 9.08887C17.324 9.00166 17.3572 8.95598 17.3572 8.94768C17.2783 8.91445 17.2243 8.88538 17.1911 8.85631C17.1579 8.82724 17.1371 8.79402 17.1163 8.74834C17.1163 8.62375 17.1745 8.50332 17.2949 8.39119C17.3821 8.30398 17.5026 8.22508 17.6521 8.15033C17.6977 8.15033 17.7642 8.19186 17.8514 8.27907C17.8597 8.33306 17.8431 8.38289 17.8099 8.42857C17.7766 8.47425 17.7434 8.51993 17.7102 8.55731C17.6853 8.52409 17.6645 8.49917 17.6521 8.4784C17.6188 8.43688 17.5898 8.41611 17.5607 8.40781C17.515 8.40781 17.4735 8.42027 17.4403 8.44103C17.407 8.46595 17.3697 8.49086 17.3323 8.52409C17.407 8.64867 17.5316 8.71512 17.7102 8.71512C17.785 8.71512 17.8846 8.6902 18.0092 8.64036C18.1338 8.59053 18.221 8.56562 18.2667 8.56562L18.275 8.57392ZM19.878 9.0515L19.4502 8.6819L19.3506 8.9103C19.5084 9.90698 19.6745 10.9037 19.8406 11.9003C19.8489 12.0208 19.8572 12.1329 19.8655 12.2409C19.8738 12.3489 19.8821 12.4693 19.8821 12.6105C19.8821 13.0216 19.8365 13.4078 19.7409 13.765C19.6496 14.1221 19.4918 14.4585 19.2717 14.77C19.0516 15.0814 18.736 15.2932 18.3248 15.4095C18.0507 15.4843 17.6687 15.5175 17.1703 15.5175H16.7135C17.2119 15.3721 17.6604 15.1894 18.059 14.9693C18.4992 14.7284 18.9062 14.4377 19.2841 14.093C19.4046 13.9352 19.5001 13.7608 19.5665 13.5781C19.6371 13.3954 19.6703 13.2085 19.6703 13.0133C19.6703 12.9053 19.662 12.8057 19.6413 12.706C19.334 11.0905 19.0308 9.47509 18.7235 7.85133C18.7443 7.7392 18.7775 7.62292 18.8273 7.50248C18.8771 7.38205 18.9436 7.25747 19.0225 7.12458C19.1554 7.3696 19.3049 7.68521 19.471 8.07143C19.5831 8.33721 19.7202 8.66113 19.878 9.04734V9.0515ZM19.1222 12.8887C19.1554 13.1088 19.172 13.3123 19.172 13.495C19.172 13.6362 19.172 13.7401 19.1637 13.8107C19.1554 13.8813 19.1346 13.9768 19.0931 14.093C19.0931 13.819 19.0225 13.5532 18.8855 13.2957C18.8273 13.1753 18.7609 13.0631 18.6903 12.9552C18.6197 12.8472 18.5283 12.7268 18.412 12.5856C18.2958 12.4444 18.2044 12.3405 18.1379 12.2658C17.9967 12.1204 17.8971 12.0125 17.8306 11.946L17.2534 11.2982C16.8547 10.8206 16.5557 10.451 16.3564 10.1935C16.0574 9.80732 15.7791 9.42525 15.5258 9.04734C15.2683 8.66943 15.0316 8.27491 14.8115 7.87209C14.8115 7.75165 14.8364 7.61461 14.8863 7.45265C14.9361 7.29484 14.9652 7.20348 14.9693 7.18272C15.2143 7.38206 15.476 7.62707 15.7584 7.92192C15.8124 7.97591 15.966 8.13787 16.2152 8.41196C16.1903 8.43687 16.157 8.45349 16.1238 8.45349C16.0906 8.45349 16.0325 8.43272 15.9536 8.39535C15.8746 8.35382 15.8124 8.34136 15.7625 8.35382C15.9951 8.79817 16.3481 9.30482 16.8173 9.86961C17.2368 10.3555 17.6562 10.8414 18.0715 11.3231C18.5449 11.9003 18.8938 12.4236 19.118 12.8887H19.1222ZM14.0682 7.27823C14.0432 7.42358 13.9602 7.5191 13.819 7.56893C13.3331 7.73504 12.9718 7.85963 12.7309 7.93853C12.324 8.08388 11.9751 8.24585 11.6761 8.41611C11.6761 8.22508 11.7841 8.08389 12.0042 8.00083C12.2243 7.91777 12.4361 7.83886 12.6437 7.76827C13.1172 7.61046 13.5906 7.44435 14.0682 7.27823ZM14.4959 8.89369C14.4959 8.97259 14.4793 9.0515 14.4461 9.12625C14.4128 9.201 14.363 9.29236 14.2966 9.39203C14.2509 9.44601 14.1844 9.48339 14.1014 9.51246C14.0183 9.53738 13.9394 9.55399 13.8688 9.55399C13.8148 9.54568 13.7775 9.54569 13.7484 9.54569C13.6736 9.47924 13.6404 9.37957 13.6404 9.24668C13.6404 9.15947 13.6612 9.07226 13.6986 8.9809C13.7401 8.88954 13.7733 8.80648 13.8024 8.73173C13.8314 8.65698 13.8854 8.60299 13.956 8.57807C13.9228 8.65698 13.8896 8.74003 13.8605 8.82309C13.8314 8.90615 13.8148 8.98505 13.8148 9.05565C13.8148 9.15532 13.8439 9.23422 13.9062 9.29651C13.981 9.29651 14.0515 9.28821 14.1221 9.27575C14.1927 9.26329 14.255 9.21761 14.3173 9.14701C14.3173 9.08057 14.2343 8.99336 14.0682 8.88954C13.981 8.83555 13.9394 8.78986 13.9394 8.74834C13.9394 8.70265 13.9893 8.64452 14.0889 8.57807C14.2011 8.6196 14.2633 8.64037 14.2675 8.64867C14.3755 8.70681 14.4502 8.78986 14.4959 8.89784V8.89369ZM12.0457 10.8372C12 10.9493 11.9544 11.0449 11.917 11.1155C11.8588 11.2276 11.7966 11.3231 11.7384 11.3937C11.7966 11.2857 11.8547 11.157 11.9045 11.0033C11.9544 10.8497 11.9793 10.7085 11.9793 10.5756C11.9793 10.4552 11.9627 10.3513 11.9294 10.2558C11.9294 10.1894 11.8713 10.0606 11.7592 9.86545C11.701 9.75748 11.6678 9.67857 11.6678 9.62459C11.6678 9.54983 11.7052 9.47924 11.7758 9.40449C11.8755 9.55814 11.9585 9.7201 12.0208 9.89868C12.0831 10.0731 12.1163 10.2475 12.1163 10.4219C12.1163 10.5756 12.0914 10.7126 12.0457 10.8289V10.8372ZM9.08475 7.99667C9.10551 8.0299 9.11382 8.06312 9.11382 8.09634C9.11382 8.14202 9.09721 8.20847 9.06399 8.29153C9.03076 8.37458 9.01415 8.42441 9.01415 8.43687C8.98923 8.50332 8.9394 8.53654 8.86465 8.53654C8.83143 8.53654 8.7982 8.52824 8.76498 8.50748C8.66531 8.38704 8.61548 8.24584 8.61548 8.07973C8.61548 7.93853 8.64455 7.80565 8.69854 7.67691C8.75668 7.54817 8.82727 7.42358 8.91448 7.30315C8.8688 7.43604 8.83973 7.53571 8.82312 7.60215C8.7899 7.72674 8.77329 7.83887 8.77329 7.93023C8.77329 8.05066 8.81066 8.15448 8.88126 8.25C8.92694 8.24169 8.96432 8.20432 8.99754 8.12957C9.02661 8.05482 9.05568 8.01329 9.0806 8.00083L9.08475 7.99667ZM10.8206 11.3148C10.8456 11.6346 10.8622 11.8464 10.8663 11.9543C10.8663 12.0623 10.8705 12.1744 10.8705 12.2949C10.8705 12.6935 10.8456 13.0465 10.7957 13.3497C10.7459 13.657 10.6504 13.9726 10.5133 14.3048C10.5382 14.1387 10.559 13.9435 10.5715 13.7151C10.5839 13.4909 10.5922 13.2749 10.5922 13.0756C10.5922 12.5357 10.5507 11.9709 10.4718 11.3812C10.4303 11.0905 10.3389 10.5424 10.1977 9.74087C10.0565 8.93937 9.96515 8.37874 9.92362 8.05066C9.83226 7.9593 9.78243 7.85963 9.78243 7.75166C9.78243 7.67275 9.80734 7.57724 9.86133 7.47342C9.94854 7.31976 10.0358 7.1661 10.1313 7.0166C10.3057 7.29069 10.4552 7.58139 10.5839 7.89701C10.7127 8.21262 10.7791 8.48671 10.7791 8.71927C10.7542 8.65282 10.6961 8.57392 10.6088 8.4784C10.5216 8.38704 10.4593 8.3206 10.4178 8.27907C10.4178 8.64452 10.4718 9.13871 10.5756 9.76579C10.7168 10.5839 10.7957 11.0989 10.8165 11.3106L10.8206 11.3148ZM16.1446 15.6296C15.9328 15.8165 15.6961 15.9618 15.4386 16.0615C15.1811 16.1653 14.9112 16.2152 14.6329 16.2152C14.4876 16.2152 14.3589 16.2027 14.255 16.1736C14.1554 16.1196 14.1055 16.0324 14.1055 15.9037C14.1055 15.8455 14.118 15.7957 14.1471 15.7625L14.554 15.3223C14.4793 15.2641 14.4128 15.206 14.3464 15.152C14.3672 15.0441 14.4212 14.9485 14.5042 14.8613C14.5623 14.8032 14.6537 14.7367 14.7741 14.6703C14.9527 14.6578 15.0441 14.7035 15.0441 14.8115C15.0109 14.853 14.9776 14.8904 14.9403 14.9319C14.9029 14.9734 14.8697 14.9901 14.8364 14.9901C14.7949 14.9901 14.7617 14.961 14.7285 14.8987C14.6703 14.8987 14.6246 14.9112 14.5997 14.9402C14.6329 15.0191 14.6828 15.0731 14.7534 15.0939C14.824 15.1188 14.9029 15.1271 14.9984 15.1271C15.1105 15.0731 15.2226 15.0233 15.3389 14.9776C15.2932 15.0897 15.123 15.2143 14.824 15.3472C14.5291 15.4801 14.3713 15.6421 14.3506 15.8372C14.5084 15.9161 14.6911 15.9577 14.8904 15.9577C15.1105 15.9577 15.3805 15.8995 15.6961 15.7874C15.8497 15.7293 16.0034 15.6711 16.1529 15.6171L16.1446 15.6296ZM17.0914 12.4984C16.9918 12.706 16.8962 12.9095 16.8007 13.1171C16.6678 13.358 16.4851 13.5033 16.2526 13.5573C15.8207 13.7774 15.2974 13.9809 14.6786 14.1636C14.4212 14.2426 13.8688 14.3921 13.0258 14.6122C12.4195 14.7866 11.8879 14.9693 11.4228 15.1686C10.8788 15.4012 10.3804 15.6753 9.92778 15.9951C9.81565 16.074 9.63292 16.2235 9.3796 16.4436C8.97262 16.8007 8.6404 16.9834 8.37461 16.9834C8.27495 16.9834 8.18774 16.971 8.10883 16.9502C8.03408 16.9253 7.94687 16.8838 7.85551 16.8256C7.82229 16.7716 7.79737 16.7093 7.7766 16.6304C7.75584 16.5557 7.74753 16.4809 7.74753 16.4145C7.74753 16.2608 7.78491 16.103 7.85551 15.9369C7.93026 15.7708 8.01747 15.613 8.12544 15.4676C8.059 15.721 7.9967 15.9743 7.93441 16.2235C7.93441 16.3148 7.95102 16.3979 7.98425 16.4643C8.02577 16.5183 8.07146 16.5557 8.1296 16.5723C8.18774 16.5931 8.24588 16.6014 8.31232 16.6014C8.36631 16.6014 8.43691 16.5931 8.53242 16.5806C8.7899 16.4269 9.10551 16.2068 9.47927 15.912C9.78658 15.667 10.1022 15.4178 10.4261 15.1686C10.75 14.9195 11.0657 14.7118 11.373 14.5457C11.7384 14.3464 12.0914 14.2052 12.4278 14.1263C12.5482 14.1055 12.6603 14.0806 12.76 14.0474C12.8638 14.0141 12.9718 13.9685 13.0839 13.9062C12.8389 13.6819 12.6562 13.4161 12.5358 13.1171C12.4153 12.8181 12.3572 12.4942 12.3572 12.1495C12.6022 11.7633 12.8555 11.4601 13.113 11.2442C13.4535 10.9535 13.8024 10.804 14.1595 10.804C14.5374 10.804 14.8738 10.8497 15.1728 10.9452C15.4677 11.0366 15.7168 11.2027 15.9162 11.4435C15.6296 11.3563 15.3265 11.3148 14.9984 11.3148C14.6413 11.3148 14.28 11.3646 13.9228 11.4684C13.5657 11.5723 13.2168 11.7093 12.8763 11.8837C12.868 11.9253 12.868 11.9751 12.868 12.0415C12.868 12.2616 12.9303 12.4776 13.059 12.6894C13.1504 12.8472 13.2999 13.0299 13.5075 13.2293C13.6529 13.3165 13.8107 13.3788 13.9768 13.4203C14.1429 13.4618 14.3007 13.4784 14.4544 13.4784C14.8406 13.4784 15.2932 13.358 15.8207 13.1213C16.2442 12.9136 16.672 12.706 17.0956 12.4942L17.0914 12.4984ZM8.10053 9.50001C7.97594 9.69104 7.8472 9.88207 7.72262 10.0689L7.1163 9.61213C7.28242 9.32558 7.38208 9.16778 7.41531 9.13455C7.50252 9.04319 7.58973 9.00166 7.67278 9.01412C7.76415 9.08887 7.86797 9.16362 7.97594 9.23837C8.08391 9.31313 8.12544 9.40449 8.10053 9.50416V9.50001ZM6.32726 7.63538C6.3065 7.71013 6.28989 7.76412 6.27327 7.80565C6.25666 7.84717 6.22344 7.86378 6.17776 7.86378C6.15284 7.86378 6.11547 7.84717 6.06979 7.81395C5.84968 7.84717 5.72095 8.04651 5.68772 8.40781C5.65035 8.7691 5.60882 8.9892 5.56314 9.0598C5.49669 9.00166 5.43855 8.90614 5.38457 8.78156C5.23922 8.4078 5.16031 8.22093 5.15616 8.21262L5.08556 8.30399C5.08556 8.30399 5.02742 8.26661 4.93191 8.20847C4.83639 8.15033 4.7824 8.09219 4.76579 8.03405C4.77825 7.92193 4.79486 7.82641 4.81563 7.75166C4.83639 7.67691 4.89038 7.62707 4.97344 7.6063C5.08141 7.68106 5.17277 7.79734 5.25168 7.95515C5.35134 8.20017 5.45517 8.44518 5.55899 8.6819C5.59221 8.45764 5.62543 8.22923 5.65865 8.00498C5.7251 7.75166 5.85384 7.58139 6.04902 7.49833C6.16115 7.49833 6.25666 7.54401 6.32726 7.63953V7.63538ZM5.30982 11.4435C5.32227 11.5224 5.31812 11.593 5.30151 11.6595C5.28075 11.7218 5.24337 11.8131 5.19354 11.9336C5.13955 11.9668 5.08971 11.9834 5.04403 11.9834C4.99005 11.9834 4.95267 11.9585 4.9236 11.9128C4.85716 11.8048 4.82393 11.6886 4.82393 11.564C4.82393 11.4518 4.853 11.3189 4.9153 11.1653C4.95682 11.0739 5.01912 10.941 5.10633 10.7749C5.05234 10.9286 5.01496 11.0532 4.98589 11.1528C4.96098 11.2525 4.94437 11.3273 4.94437 11.3812C4.94437 11.5058 4.98589 11.6096 5.0648 11.6885C5.13955 11.7218 5.18938 11.7052 5.21845 11.6387C5.24752 11.5723 5.28075 11.5058 5.31397 11.4394L5.30982 11.4435ZM9.45435 13.4161C9.51249 13.2583 9.54571 13.0756 9.54571 12.8763C9.54571 12.49 9.44605 12.162 9.24671 11.8879C9.0806 11.6678 8.93109 11.5058 8.7982 11.3979C8.61133 11.2525 8.42029 11.1778 8.22096 11.1778C8.13375 11.1778 8.05069 11.1902 7.97179 11.2193C7.68524 11.3979 7.46514 11.6304 7.30318 11.917C7.14537 12.2035 7.06231 12.5067 7.06231 12.8223C7.14122 13.0133 7.24919 13.1462 7.38208 13.2126C7.51497 13.2791 7.67278 13.3123 7.85136 13.3123C7.93026 13.3123 8.04239 13.304 8.19189 13.2915C8.33724 13.2791 8.44936 13.2708 8.51996 13.2708C8.63209 13.2708 8.74422 13.2874 8.8605 13.3165C8.97262 13.3455 9.06814 13.3912 9.13874 13.4494C9.05153 13.603 8.85219 13.7484 8.54073 13.8896C8.35385 13.9685 8.22096 14.0349 8.14205 14.0889C7.44438 14.3298 6.98756 14.4793 6.76746 14.5457C6.22344 14.7035 5.7251 14.8156 5.27244 14.8738C5.01496 14.8987 4.8447 14.9153 4.76579 14.9195C4.68689 14.9195 4.59968 14.9236 4.50832 14.9236C4.10964 14.9236 3.75665 14.8696 3.45349 14.7658C3.09635 14.6412 2.78073 14.4377 2.50665 14.1595C2.41944 14.0723 2.3613 13.9809 2.32807 13.8854C2.29485 13.7899 2.27824 13.6902 2.27824 13.5906C2.27824 13.4327 2.33223 13.2251 2.43605 12.9718C2.52326 12.7849 2.61047 12.598 2.69352 12.4028C2.95931 12.4028 3.13373 12.2035 3.22094 11.8048C3.27908 11.5307 3.32476 11.3688 3.34967 11.3148C3.26246 11.4394 3.20848 11.5183 3.17941 11.5432C3.1005 11.6221 3.00914 11.6512 2.90947 11.6346C2.79735 11.5141 2.71429 11.3979 2.66445 11.2857C2.61462 11.1736 2.5897 11.0573 2.5897 10.9369C2.5897 10.7292 2.68522 10.4718 2.8804 10.1603C3.36629 9.38372 3.61961 8.95598 3.63622 8.88538C3.31645 9.1387 3.04236 9.47094 2.8098 9.88207C2.65615 10.1478 2.48173 10.5382 2.28239 11.049C2.26163 11.1944 2.24917 11.2899 2.24917 11.3314C2.24917 11.3729 2.24502 11.4352 2.24502 11.5141C2.24502 11.6927 2.26993 11.8547 2.31977 12.0042C2.3696 12.1495 2.45681 12.2741 2.58555 12.3738C2.36545 12.7932 2.22841 13.0631 2.17857 13.1919C2.05814 13.4826 2 13.765 2 14.0308C2 14.1387 2.01246 14.2592 2.04153 14.3962C2.06645 14.5332 2.10797 14.6578 2.16196 14.77C2.39452 15.0939 2.70598 15.3347 3.1005 15.4884C3.44519 15.6213 3.84801 15.6877 4.30483 15.6877C4.53739 15.6877 4.79902 15.667 5.08556 15.6213C5.37626 15.5798 5.63789 15.5258 5.87875 15.4676C6.31065 15.3223 7.00002 15.1063 7.94272 14.8198C8.70684 14.5 9.21349 14.0308 9.46681 13.4161H9.45435ZM5.74586 12.569C5.76663 12.6022 5.77493 12.6312 5.77493 12.6603C5.77493 12.6935 5.75002 12.7517 5.70434 12.8306C5.46347 12.8306 5.31812 13.0008 5.26413 13.3372C5.21015 13.6778 5.15616 13.8771 5.09387 13.9435C5.00666 13.8979 4.90699 13.7525 4.79071 13.5116C4.67443 13.2708 4.52493 13.1462 4.34636 13.1462C4.30483 13.113 4.28822 13.0714 4.28822 13.0258C4.28822 13.0008 4.30898 12.9386 4.34636 12.8472C4.36712 12.8015 4.37543 12.76 4.37543 12.7268C4.38788 12.6935 4.40865 12.6811 4.44187 12.6852C4.47094 12.6935 4.50416 12.6977 4.53739 12.706C4.6246 12.7808 4.7035 12.8804 4.77825 13.0133C4.88623 13.2126 4.99005 13.4078 5.09802 13.603C5.17277 13.304 5.22676 13.0798 5.26829 12.9344C5.34719 12.6603 5.50915 12.5399 5.74586 12.5648V12.569ZM8.72761 12.4776C8.57395 12.3115 8.44521 12.1869 8.33724 12.108C8.16282 11.9876 7.99255 11.9294 7.81813 11.9294C7.70601 11.9502 7.6188 12.0042 7.56066 12.0872C7.53989 12.1204 7.53159 12.1537 7.53159 12.1869C7.53159 12.2533 7.56481 12.3032 7.63125 12.3364C7.78906 12.49 8.01332 12.5648 8.29986 12.5648C8.46598 12.5648 8.60717 12.5357 8.72761 12.4734V12.4776Z" fill="white"/>
<path d="M21.9896 9.31821C21.9931 9.31941 21.9966 9.32049 22 9.32145L21.9917 9.3256C21.991 9.32313 21.9903 9.32067 21.9896 9.31821C21.918 9.29328 21.8421 9.21509 21.755 9.07643C21.6636 8.93524 21.593 8.86048 21.539 8.86048C21.4934 8.86048 21.4435 8.8854 21.3895 8.93939C21.3895 9.26331 21.4435 9.77826 21.5473 10.4759C21.6553 11.1736 21.7301 11.7052 21.7051 12.0706L21.647 14.0972C21.6055 14.4502 21.5266 14.7991 21.4061 15.1437C21.4726 14.8863 21.5058 14.5748 21.5058 14.2177C21.5058 13.9726 21.4934 13.7027 21.4643 13.4037C21.4394 13.1088 21.4186 12.8846 21.4061 12.7309L20.9078 7.94686L20.9826 7.38622C21.0864 7.23672 21.1487 7.13706 21.1653 7.09138C21.3189 7.37792 21.4726 7.73922 21.6346 8.17942C21.7543 8.52208 21.874 8.90167 21.9896 9.31821Z" fill="white"/>
</svg>
