<svg width="24" height="24" viewBox="0 0 24 24" fill="none" xmlns="http://www.w3.org/2000/svg">
<path fill-rule="evenodd" clip-rule="evenodd" d="M21.9886 9.5838C21.947 9.54217 21.8978 9.47784 21.8448 9.39459C21.7919 9.31133 21.7389 9.22429 21.6897 9.14103L21.5799 9.25835L21.9357 13.247C21.9357 13.7541 21.9205 14.1363 21.8903 14.3898C21.8373 14.8213 21.7313 15.1656 21.5724 15.4268L21.6443 13.9357L21.2621 9.81085C21.2318 9.68975 21.2053 9.45513 21.1788 9.10698C21.1561 8.75882 21.1069 8.50149 21.035 8.33877L21.3605 7.74842C21.4286 7.85059 21.5005 8.01331 21.5799 8.24037C21.7502 8.71341 21.8675 9.0048 21.9357 9.12212C21.9773 9.25078 22 9.37566 22 9.50432C21.9924 9.54217 21.9924 9.56866 21.9924 9.58758L21.9886 9.5838ZM18.3027 7.69543L18.2044 7.86952C17.7389 8.03981 17.2734 8.20631 16.8042 8.36903C16.1608 8.59988 15.6954 8.77018 15.404 8.88749C14.9574 9.06914 14.5033 9.27349 14.0416 9.49676C14.2649 9.23564 14.6093 9.01615 15.0785 8.83451C15.4721 8.6907 15.8694 8.53933 16.2668 8.38796C16.9442 8.15712 17.6216 7.92628 18.3027 7.69922V7.69543ZM18.4844 10.8742C18.4428 11.0256 18.4087 11.1354 18.386 11.1997C18.333 11.3321 18.2384 11.3851 18.106 11.3548C18.0227 11.2527 17.9773 11.1202 17.9773 10.9651C17.9773 10.8515 17.9924 10.7456 18.0265 10.6472C18.0605 10.5488 18.106 10.4504 18.1665 10.3482C18.1476 10.4693 18.1362 10.5677 18.1249 10.6434C18.1173 10.7191 18.1097 10.7683 18.1097 10.7948C18.1097 10.878 18.1173 10.9461 18.1325 10.9953C18.1476 11.0445 18.1779 11.0937 18.2271 11.1505C18.2876 11.1505 18.3368 11.1051 18.3709 11.018C18.4087 10.931 18.4428 10.8818 18.4806 10.878L18.4844 10.8742ZM17.4475 9.87519L16.8761 9.4135L16.4484 9.93953C16.3955 9.86762 16.3008 9.79951 16.1684 9.73896C16.0359 9.67841 15.9489 9.63299 15.9149 9.60272C15.8354 9.68219 15.7597 9.77679 15.6878 9.88275C15.6575 9.93195 15.6008 10.0266 15.5137 10.1742C15.6272 10.2461 15.7219 10.3028 15.7938 10.3482C15.9376 10.4315 16.036 10.492 16.0851 10.5299C16.1268 10.4882 16.1835 10.405 16.2479 10.2801C16.316 10.1552 16.3803 10.0682 16.4484 10.0114L17.0577 10.4277C17.088 10.3898 17.1561 10.299 17.2583 10.1477C17.3188 10.0568 17.3832 9.96601 17.4475 9.87519ZM14.9574 8.36903C14.9196 8.3766 14.8931 8.39931 14.8742 8.44472C14.8553 8.49014 14.8363 8.51663 14.8098 8.52042C14.7304 8.47879 14.6925 8.40688 14.6925 8.30092C14.6925 8.26308 14.7077 8.17982 14.7417 8.05115C14.7758 7.92249 14.7909 7.83923 14.7909 7.80139C14.719 7.90357 14.6585 8.02088 14.6131 8.15711C14.5676 8.28957 14.5449 8.42201 14.5449 8.5469C14.5525 8.59988 14.5676 8.65287 14.5941 8.69828C14.6206 8.74369 14.6585 8.77017 14.7077 8.77396C14.7871 8.75504 14.8477 8.69827 14.8893 8.59988C14.9082 8.55826 14.9272 8.47879 14.9536 8.36526L14.9574 8.36903ZM19.771 9.40594C19.5478 8.82316 19.3245 8.24037 19.0974 7.65381C19.0369 7.74463 18.9763 7.83924 18.912 7.94142C18.8477 8.03981 18.8174 8.13441 18.8174 8.21766C18.8174 8.27064 18.8288 8.32363 18.8553 8.37282C18.8553 8.87992 18.9007 9.49298 18.9915 10.2082C19.0331 10.5526 19.1239 11.1543 19.264 12.0171C19.3775 12.7248 19.4607 13.3302 19.5099 13.8336C19.3888 13.9736 19.2488 14.0833 19.0861 14.1704C18.9272 14.2536 18.6623 14.3444 18.299 14.4353C18.2763 14.4353 18.2308 14.4428 18.1627 14.4542H17.9432C17.7313 14.4542 17.5459 14.4277 17.3832 14.3709C17.2242 14.318 17.088 14.2196 16.9782 14.0795C17.1788 13.9811 17.334 13.8449 17.4513 13.667C17.5648 13.4892 17.6518 13.2811 17.7048 13.0464C17.7275 12.9443 17.7427 12.8232 17.7427 12.6831C17.7427 12.4637 17.7048 12.2631 17.6254 12.0777C17.5459 11.8922 17.421 11.7333 17.2545 11.6008C17.2053 11.5895 17.1599 11.5743 17.1183 11.5592C17.0766 11.5441 17.0274 11.5365 16.9745 11.5365C16.9026 11.5365 16.842 11.5592 16.7928 11.6008C16.5695 11.8203 16.4068 12.0739 16.3084 12.369C16.21 12.6642 16.157 12.9821 16.157 13.3265C16.157 13.4476 16.1608 13.5649 16.1722 13.6746C16.1798 13.7882 16.1911 13.8714 16.2025 13.9244C15.8921 14.0833 15.5818 14.2006 15.264 14.2839C14.9461 14.3671 14.6168 14.405 14.28 14.405C13.9659 14.405 13.667 14.3671 13.3907 14.2877C12.9858 14.0871 12.7247 13.7654 12.6112 13.3265C12.5506 12.861 12.5052 12.2858 12.4749 11.6008C12.4447 10.9159 12.4182 10.2612 12.3917 9.64056C12.35 8.90263 12.2895 8.29335 12.21 7.81653C12.1381 7.92628 12.0889 8.00196 12.0662 8.04359C12.0246 8.12306 11.9678 8.24795 11.9035 8.41446C11.9754 9.27349 12.0473 10.1325 12.123 10.984C12.1608 11.65 12.1987 12.3463 12.2441 13.0691C12.2895 13.7919 12.4863 14.3558 12.8382 14.7645C13.0426 14.8932 13.2469 14.9802 13.4437 15.0332C13.6405 15.0862 13.8638 15.1089 14.1097 15.1089C14.4957 15.1089 14.9082 15.0408 15.3434 14.9007C15.6878 14.791 16.0587 14.6358 16.4522 14.439L16.9593 14.9651C17.0993 15.037 17.228 15.0862 17.3491 15.1089C17.4702 15.1316 17.6102 15.1467 17.7654 15.1467C18.0265 15.1467 18.2914 15.1013 18.5639 15.0067C18.8363 14.9121 19.0747 14.791 19.2829 14.6396C19.4645 14.3785 19.5894 14.1098 19.6613 13.8298C19.7294 13.5497 19.7673 13.2508 19.7673 12.9291C19.7673 12.6453 19.6727 11.9528 19.4872 10.8591C19.404 10.3634 19.3586 9.94709 19.3586 9.61407C19.3586 9.3908 19.3699 9.19401 19.3964 9.02372C19.4267 9.04643 19.4834 9.12212 19.5705 9.25078C19.631 9.3416 19.6991 9.39458 19.7786 9.4135L19.771 9.40594ZM13.3037 9.58758C13.2545 9.70111 13.2204 9.78437 13.1977 9.83357C13.175 9.88276 13.141 9.93195 13.0918 9.97736C13.2431 9.7276 13.3188 9.45135 13.3188 9.14103C13.3188 8.76639 13.2167 8.44851 13.0085 8.1874L13.0918 7.95277C13.2129 8.05495 13.2999 8.18361 13.3491 8.33498C13.4021 8.48635 13.4248 8.65664 13.4248 8.84207C13.4248 8.97074 13.4134 9.09562 13.3945 9.2205C13.3718 9.34538 13.3415 9.46648 13.2999 9.58758H13.3037ZM15.1202 10.878L15.0558 11.1051C14.9726 11.0824 14.8855 11.0559 14.8023 11.0332C14.7493 11.0332 14.7114 11.071 14.6925 11.1505C14.6206 11.4646 14.5487 11.7787 14.4844 12.0966C14.4163 12.0436 14.333 11.8922 14.2308 11.6425C14.1816 11.5214 14.1249 11.423 14.0568 11.3511C14.0492 11.3927 14.0303 11.4154 13.9924 11.4154C13.9622 11.4154 13.9319 11.4078 13.9016 11.3889C13.8713 11.37 13.8486 11.3586 13.8373 11.3511C13.7956 11.3094 13.7729 11.2678 13.7729 11.2224C13.7729 11.1846 13.7919 11.1316 13.8335 11.0635C13.8713 10.9953 13.894 10.9424 13.894 10.9121C14.0378 10.9348 14.1589 11.0407 14.2573 11.23C14.3254 11.3927 14.3936 11.5554 14.4655 11.7106C14.526 11.4797 14.5676 11.3094 14.5941 11.2035C14.6471 11.0029 14.7379 10.8629 14.859 10.7759C14.9082 10.7645 14.9574 10.7759 15.0104 10.8023C15.0634 10.8326 15.1012 10.8553 15.1239 10.8742L15.1202 10.878ZM11.052 9.26213C11.052 9.3908 11.0331 9.48919 10.9991 9.55731C10.9612 9.62543 10.9158 9.67462 10.8553 9.69733C10.7417 9.67462 10.6698 9.6065 10.6471 9.49676C10.6774 9.18266 10.7644 8.91398 10.912 8.69828C10.8628 8.86857 10.8174 9.03886 10.7758 9.20537C10.7758 9.30376 10.8136 9.38701 10.8855 9.45891C10.9234 9.45891 10.9536 9.44756 10.9763 9.42107C10.9991 9.39836 11.0293 9.3416 11.0596 9.25835L11.052 9.26213ZM14.7758 13.1221C14.7985 13.1751 14.7871 13.247 14.7379 13.334C14.6887 13.4211 14.6623 13.4816 14.6547 13.5119C14.6433 13.5119 14.6055 13.5195 14.5449 13.5346C14.4844 13.5497 14.439 13.546 14.4087 13.5195C14.3254 13.3984 14.28 13.2697 14.28 13.1297C14.28 13.001 14.3141 12.8572 14.386 12.6983C14.4541 12.5393 14.5222 12.3842 14.5904 12.2404C14.5487 12.3539 14.5071 12.475 14.4693 12.5999C14.4314 12.7248 14.4087 12.8421 14.4087 12.948C14.4087 13.0805 14.4428 13.1978 14.5071 13.3038C14.5601 13.3227 14.6017 13.3227 14.6282 13.3075C14.6547 13.2924 14.6925 13.2356 14.7417 13.141L14.7682 13.1221H14.7758ZM16.5279 15.6841C16.5355 15.756 16.509 15.8392 16.4522 15.9338C16.3955 16.0285 16.3614 16.089 16.3463 16.1193C16.3046 16.1495 16.2554 16.1382 16.2062 16.089C16.1533 16.036 16.1268 15.9868 16.1192 15.9376C16.1192 15.7863 16.1381 15.6425 16.1798 15.5062C16.2176 15.37 16.2744 15.2262 16.3463 15.0748C16.3576 15.1429 16.3463 15.2413 16.3046 15.37C16.2668 15.4986 16.2441 15.5895 16.2441 15.6387C16.2441 15.7408 16.2819 15.8279 16.3614 15.9036L16.5241 15.6841H16.5279ZM10.8136 7.73706C10.0454 7.97926 9.2772 8.21767 8.5052 8.45608C8.13434 8.58853 7.76727 8.72098 7.3964 8.84586C6.96121 9.00858 6.6509 9.23186 6.46925 9.50811C6.80227 9.32646 7.12015 9.17131 7.42289 9.04643C7.79754 8.88749 8.35005 8.6907 9.07663 8.45608C9.17502 8.41445 9.47777 8.31606 9.99243 8.16469C10.3671 8.05495 10.6395 7.91493 10.8098 7.73706H10.8136ZM9.67077 9.12589C9.65941 9.19779 9.64806 9.25835 9.63292 9.30754C9.62157 9.35674 9.58373 9.36052 9.52318 9.32646C9.4929 9.29619 9.43614 9.28105 9.3491 9.28105C9.28098 9.37187 9.22422 9.52325 9.17502 9.73896C9.12583 9.95466 9.08798 10.0985 9.05771 10.1704L8.73226 9.57245C8.70199 9.5838 8.66793 9.59515 8.6263 9.60272C8.58846 9.61029 8.5544 9.6065 8.53169 9.58758C8.47871 9.5573 8.44844 9.51947 8.44844 9.47784C8.44844 9.45514 8.45979 9.41351 8.47871 9.36053C8.50142 9.30755 8.50899 9.26591 8.50142 9.24321C8.53169 9.19023 8.58089 9.15995 8.64522 9.15995C8.68307 9.15995 8.70956 9.17131 8.72848 9.1978C8.78903 9.2697 8.85336 9.37188 8.91769 9.49676C8.96689 9.6065 9.01608 9.71246 9.07285 9.81464C9.11069 9.61029 9.14096 9.46648 9.17124 9.38701C9.22422 9.23564 9.30369 9.11076 9.40587 9.01616C9.45885 9.0048 9.51183 9.01615 9.56102 9.05399C9.61022 9.09183 9.64428 9.11454 9.65941 9.12589H9.67077ZM11.3699 13.8941C11.2677 14.3974 10.8742 14.8326 10.1892 15.2035C9.86377 15.3738 9.53832 15.5441 9.21665 15.7106C8.86093 15.9036 8.41438 16.0512 7.8808 16.1571C7.55913 16.2177 7.07096 16.282 6.4087 16.3463C7.20341 16.002 7.99811 15.6576 8.79659 15.3208C9.71618 14.8894 10.492 14.4315 11.1202 13.9395C11.0974 13.8411 11.0066 13.5838 10.8477 13.16C10.7266 12.8383 10.666 12.5734 10.666 12.3615C10.5828 12.3198 10.5374 12.2631 10.5374 12.1874C10.5374 12.1458 10.5563 12.0814 10.5979 12.002C10.6358 11.9187 10.6585 11.8657 10.666 11.8355C10.6774 11.8241 10.7001 11.7863 10.7342 11.7219C10.7682 11.6576 10.7985 11.6273 10.8288 11.6273C10.8515 11.6273 10.878 11.6425 10.9007 11.6727C10.9991 11.896 11.1353 12.1155 11.3169 12.3274L11.2337 12.4107L11.1429 12.3274C11.1429 12.4561 11.1693 12.6037 11.2261 12.774C11.3586 13.1864 11.4267 13.4476 11.4267 13.5535C11.4267 13.6746 11.404 13.7882 11.3623 13.8979L11.3699 13.8941ZM11.7143 15.3019C11.6613 15.2905 11.5932 15.3094 11.5099 15.3549C11.4267 15.404 11.3813 15.4305 11.3699 15.4381C10.9385 15.6198 10.5147 15.8052 10.0908 15.9906C10.0227 16.0285 9.95837 16.0739 9.89026 16.1344C9.82214 16.195 9.77294 16.2593 9.7351 16.3236C10.0795 16.1798 10.4276 16.0322 10.7796 15.8884C11.1845 15.7068 11.4986 15.51 11.7143 15.2981V15.3019ZM5.72753 9.70868C5.614 9.86762 5.49669 10.0228 5.38316 10.1817C5.32261 10.1741 5.17881 10.1136 4.94797 10.0001C4.83822 9.94708 4.75118 9.91681 4.68307 9.91681C4.58467 9.91681 4.50899 9.96601 4.45601 10.0606C4.43709 10.1022 4.4106 10.1477 4.36897 10.1969C4.33113 10.2461 4.30085 10.2801 4.28193 10.3066C4.17975 10.3066 4.05487 10.2763 3.91107 10.2158C3.69158 10.1249 3.5667 10.072 3.52886 10.0606C3.57048 9.95844 3.62346 9.86005 3.68401 9.76923C3.72185 9.71625 3.79376 9.62542 3.9035 9.49676C3.98676 9.49676 4.07758 9.51569 4.17597 9.54974C4.32734 9.61029 4.4825 9.67083 4.63765 9.73138C4.6982 9.70868 4.7701 9.62164 4.84957 9.47784C4.93283 9.33404 5.00473 9.25835 5.07285 9.25835C5.12583 9.25835 5.19016 9.29619 5.26206 9.36809C5.26963 9.37566 5.36424 9.42107 5.55345 9.50432C5.66698 9.5573 5.72753 9.62542 5.72753 9.70489V9.70868ZM4.90255 8.43716C4.86093 8.30849 4.78903 8.18739 4.69442 8.07386C4.59603 7.96033 4.49007 7.85437 4.36897 7.75598C4.30842 7.72571 4.25544 7.71057 4.20624 7.71057C4.12677 7.71057 4.08136 7.80139 4.07001 7.97925C4.05866 8.15711 4.01703 8.26686 3.9527 8.31227C3.93377 8.35012 3.92621 8.38796 3.92621 8.42958C3.92621 8.58096 3.99432 8.67936 4.13434 8.72098C3.93377 9.01616 3.64238 9.3189 3.2526 9.62921C2.93851 9.86384 2.62441 10.0985 2.31788 10.3293C2.74172 10.1287 3.09745 9.91681 3.38884 9.69354C3.76348 9.40972 4.05487 9.09562 4.25922 8.75882C4.2895 8.73989 4.31599 8.73233 4.34248 8.73233C4.36897 8.73233 4.41816 8.75126 4.49385 8.79289C4.56954 8.83073 4.63008 8.85343 4.67928 8.861C4.78146 8.85343 4.84957 8.80801 4.88363 8.72476C4.91769 8.6415 4.92526 8.5469 4.90634 8.44472L4.90255 8.43716ZM5.61022 11.3624C5.62914 11.3927 5.63671 11.4192 5.63671 11.4457C5.63671 11.4835 5.62914 11.5214 5.61022 11.563C5.57237 11.6425 5.55724 11.6841 5.55724 11.6916C5.51561 11.7749 5.45885 11.8203 5.38316 11.8203C5.35289 11.8203 5.33018 11.809 5.31126 11.7825C5.25828 11.6917 5.228 11.5781 5.228 11.4457C5.228 11.3321 5.24693 11.2224 5.28098 11.124C5.31883 11.0256 5.37181 10.9121 5.44371 10.7834C5.40208 10.9575 5.36045 11.1316 5.3264 11.3019C5.3264 11.4116 5.36424 11.4949 5.44371 11.5554C5.48534 11.5554 5.51939 11.5289 5.53832 11.4722C5.56102 11.4192 5.58373 11.3813 5.60643 11.3624H5.61022ZM10.2422 12.2706C9.93945 12.4599 9.64049 12.6415 9.34153 12.8232C8.71712 13.194 8.17597 13.3757 7.71429 13.3757C7.62346 13.3757 7.52886 13.3681 7.42668 13.3567C7.32829 13.3454 7.23746 13.3265 7.15799 13.3038C6.88552 13.1827 6.67739 12.9783 6.5298 12.6945C6.41627 12.4712 6.34059 12.195 6.30274 11.8695C6.75686 11.6197 7.12772 11.4419 7.41911 11.3321C7.84295 11.1732 8.24409 11.0975 8.6263 11.0975C8.80795 11.0975 8.99716 11.1164 9.19016 11.1505C9.06149 11.0105 8.90634 10.9083 8.71712 10.8478C8.52791 10.7834 8.32734 10.7531 8.10785 10.7531C7.87701 10.7531 7.64238 10.7834 7.40019 10.844C7.05582 10.8856 6.73415 11.0483 6.44276 11.3284C6.14759 11.6084 5.95837 11.9225 5.86755 12.2669C5.98865 12.7702 6.11731 13.1335 6.24976 13.3567C6.38221 13.58 6.54872 13.7579 6.74929 13.8941C6.63955 13.9168 6.56008 13.9357 6.50331 13.9433C6.45033 13.9509 6.39357 13.9584 6.34059 13.9584C6.31031 13.9584 6.24598 13.9509 6.15137 13.9395C5.92053 13.8903 5.69726 13.7654 5.47777 13.5687C5.29612 13.3984 5.13718 13.1978 4.99716 12.9594C4.58467 13.0124 4.2895 13.3794 4.10785 14.0568C3.99432 14.4882 3.88836 14.7683 3.79376 14.9045C3.69915 15.0408 3.60454 15.1467 3.50615 15.2186C3.38505 15.317 3.26017 15.3624 3.13529 15.3624C2.80227 15.2224 2.57143 14.9802 2.44655 14.6358C2.35572 14.3861 2.31031 14.0379 2.31031 13.5914C2.31788 13.387 2.32167 13.2016 2.32923 13.0426C2.3368 12.8837 2.3368 12.7437 2.3368 12.6302C2.23463 12.7815 2.15894 12.9405 2.11353 13.107C2.06812 13.2735 2.03027 13.4854 2 13.7465C2 14.2801 2.06812 14.7304 2.20814 15.1013C2.38221 15.5668 2.66982 15.896 3.06339 16.0814C3.52886 16.0398 3.85809 15.7181 4.04352 15.1202C4.29328 14.3255 4.49007 13.8563 4.63387 13.7125C4.68307 13.7011 4.71712 13.6935 4.74361 13.6935C4.85714 13.6935 4.97824 13.8033 5.10691 14.019C5.23557 14.2385 5.35667 14.3634 5.47777 14.4012C5.62914 14.4996 5.77294 14.5677 5.91296 14.6056C6.05298 14.6434 6.20435 14.6661 6.36708 14.6661C6.73794 14.6661 7.2299 14.5147 7.84674 14.212C8.3122 13.9811 8.59224 13.8487 8.68306 13.8109C8.97824 13.6406 9.28098 13.4703 9.58373 13.3038C9.78808 13.1902 9.94702 13.0691 10.0568 12.9405L10.2384 12.2669L10.2422 12.2706ZM3.72942 11.8998C3.74834 11.983 3.72942 12.089 3.68401 12.2177C3.66131 12.2858 3.63103 12.3463 3.59319 12.4069C3.54021 12.4069 3.49101 12.3804 3.44938 12.3236C3.40019 12.2442 3.36613 12.1912 3.35099 12.1609C3.32072 12.0701 3.30558 11.9906 3.30558 11.9263C3.30558 11.8165 3.3245 11.7106 3.36613 11.6084C3.40397 11.5062 3.45695 11.4078 3.5175 11.317C3.4948 11.3776 3.46831 11.4457 3.4456 11.5251C3.42289 11.6046 3.40776 11.6803 3.40776 11.7522C3.40776 11.8846 3.4456 11.9868 3.5175 12.0625L3.60076 12.1344L3.73699 11.8998H3.72942ZM17.3794 13.1713C17.228 13.2924 17.1145 13.3794 17.035 13.4362C16.9026 13.527 16.7777 13.5952 16.6641 13.6368C16.6112 13.493 16.5658 13.3492 16.5317 13.2054C16.4976 13.0616 16.4825 12.9215 16.4825 12.7815C16.4825 12.668 16.4938 12.562 16.5203 12.4674C16.543 12.3728 16.5885 12.2933 16.649 12.2252C16.6679 12.2177 16.6944 12.2177 16.7323 12.2177C16.8231 12.2177 16.9101 12.2555 16.9972 12.3274C17.0653 12.3804 17.1258 12.4561 17.1864 12.5469C17.2242 12.6491 17.2621 12.755 17.3037 12.8648C17.3453 12.9745 17.3718 13.0767 17.3869 13.1751L17.3794 13.1713ZM4.73605 8.55825C4.69442 8.57717 4.63765 8.56583 4.56197 8.52042C4.49007 8.47879 4.4333 8.45608 4.39924 8.45608L4.46358 8.2101C4.53169 8.25173 4.58467 8.30093 4.6263 8.35391C4.66793 8.40689 4.70577 8.475 4.73605 8.55447V8.55825ZM4.28193 8.39553C4.28193 8.39553 4.2403 8.41067 4.21381 8.41067C4.18732 8.41067 4.14948 8.39552 4.10028 8.38039C4.08136 8.36903 4.07758 8.34633 4.09272 8.31227C4.10407 8.27821 4.12299 8.25173 4.1457 8.23659C4.1684 8.22524 4.19489 8.23281 4.2176 8.2593C4.2403 8.28579 4.26301 8.31227 4.28193 8.33498V8.39932V8.39553Z" fill="white"/>
</svg>
