<svg width="24" height="24" viewBox="0 0 24 24" fill="none" xmlns="http://www.w3.org/2000/svg">
<path fill-rule="evenodd" clip-rule="evenodd" d="M22 9.81874C21.9729 9.79704 21.9078 9.69938 21.8155 9.52575C21.7504 9.40095 21.6744 9.3684 21.5876 9.41723C21.5876 9.78077 21.631 10.3396 21.7179 11.0993C21.8047 11.8589 21.8481 12.4286 21.8481 12.8139C21.8481 13.72 21.8047 14.3874 21.7179 14.8269C21.631 15.2664 21.4954 15.6679 21.3055 16.0369C21.3977 15.8578 21.4574 15.6516 21.4845 15.4292C21.5117 15.2067 21.5225 14.9354 21.5225 14.6261V14.2897L21.197 9.74278C21.1807 9.67224 21.1644 9.48234 21.1481 9.17306C21.1319 8.86379 21.083 8.64132 21.0016 8.50567C21.083 8.33204 21.1373 8.21267 21.1753 8.14756C21.2566 8.01191 21.3435 7.91424 21.4357 7.85456C21.6799 8.5545 21.8209 8.95602 21.8481 9.05912C21.9186 9.31413 21.9729 9.56372 22 9.81874ZM17.5616 8.21267C17.5399 8.27236 17.5128 8.31576 17.4856 8.35374C17.4585 8.39172 17.4151 8.40258 17.3663 8.39715C17.3011 8.37002 17.2143 8.37545 17.1058 8.41886C16.9973 8.46227 16.9322 8.48397 16.9105 8.48397C16.8508 8.48397 16.7965 8.45684 16.7477 8.39715C16.7477 8.29406 16.7477 8.21809 16.7585 8.15841C16.764 8.09872 16.7911 8.03361 16.8345 7.96307C16.8616 7.98478 16.8779 8.01191 16.8779 8.04989C16.8779 8.14213 16.8996 8.19096 16.943 8.19096C17.0515 8.20724 17.1221 8.14213 17.1546 8.00648C17.1872 7.87083 17.2143 7.78944 17.236 7.76774C17.2794 7.77317 17.3011 7.81658 17.3011 7.89797C17.3011 8.02819 17.3174 8.0933 17.3445 8.0933L17.4314 8.07159L17.5182 7.74604C17.567 7.78945 17.5941 7.85998 17.5941 7.96307C17.5941 8.06617 17.5833 8.14756 17.5616 8.21267ZM17.1492 6.75852C17.1492 6.75852 17.1167 6.70969 17.0895 6.65543C17.0624 6.60117 17.0353 6.57404 16.9973 6.57404C16.8888 6.60117 16.7965 6.66085 16.7206 6.75309C16.6446 6.84533 16.5795 6.94843 16.5198 7.06237C16.5252 7.14376 16.5741 7.20345 16.6609 7.24685C16.7043 7.26856 16.7748 7.30654 16.8779 7.35537C16.7097 7.59954 16.4059 7.89254 15.9555 8.23437C15.6517 8.46769 15.4563 8.61961 15.3695 8.701C15.6896 8.5545 15.9826 8.38088 16.2485 8.18012C16.5524 7.9468 16.802 7.69178 16.9973 7.40963C17.1112 7.3825 17.1709 7.32824 17.1709 7.24685C17.1709 7.22515 17.1601 7.17631 17.1384 7.10578C17.1167 7.03524 17.1058 6.97556 17.1058 6.93215C17.1058 6.86704 17.1221 6.80735 17.1492 6.75852ZM17.9631 9.31956C17.8492 9.52032 17.7895 9.62884 17.7895 9.63426C17.7244 9.73736 17.643 9.83503 17.5507 9.92727C17.3554 9.82418 17.2306 9.75363 17.1709 9.71023C17.0353 9.60713 16.9647 9.50947 16.9647 9.41723C17.0081 9.3901 17.0733 9.29243 17.1655 9.13508C17.2577 8.97773 17.3337 8.89634 17.3988 8.89634C17.4585 8.89634 17.5236 8.93432 17.5941 9.01571C17.7189 9.1188 17.8383 9.21647 17.9631 9.31956ZM13.8177 7.59411C13.7797 7.74604 13.682 7.88169 13.5247 8.00648C13.3999 8.09872 13.248 8.18011 13.0689 8.24522C13.1177 8.16384 13.1991 8.08787 13.3077 8.01734C13.4813 7.90339 13.5789 7.83285 13.6007 7.81115C13.5138 7.76774 13.4216 7.74604 13.3185 7.74604C13.21 7.74604 13.096 7.76231 12.9712 7.80029C13.0364 7.64294 13.1449 7.53443 13.2968 7.47474H13.5789C13.682 7.49102 13.758 7.529 13.8177 7.59411ZM14.5448 9.16763C14.5014 9.20561 14.4308 9.3087 14.3386 9.48776C14.2463 9.66682 14.1595 9.75363 14.0781 9.75363C14.0347 9.75363 13.975 9.72108 13.8937 9.65597L13.5138 9.38467C13.541 9.28158 13.6224 9.15136 13.7526 8.99401C13.8448 8.88006 13.9045 8.8041 13.9262 8.76612C14.0293 8.79325 14.1107 8.8258 14.1758 8.86378C14.2897 8.92889 14.4145 9.03198 14.5448 9.16763ZM19.58 9.74278C19.6017 9.52032 19.5041 9.12966 19.287 8.57078C19.1622 8.26151 19.0754 8.01733 19.0266 7.8437C18.8909 7.97935 18.8041 8.07702 18.7661 8.12585C18.6793 8.25065 18.6359 8.35917 18.6359 8.46226C18.6359 8.50567 18.6468 8.5545 18.6685 8.61418C18.8421 10.0466 18.9452 10.8931 18.9723 11.1535C19.0754 12.1302 19.1243 12.9929 19.1243 13.7363C18.8692 13.9262 18.5383 14.089 18.1259 14.2355C17.8926 14.3168 17.5453 14.4308 17.0841 14.5827C16.764 14.6967 16.4493 14.8703 16.14 15.0928C15.9012 15.2664 15.6191 15.4997 15.2935 15.7981C14.8432 16.2051 14.4905 16.4818 14.2355 16.6337C13.9805 16.7857 13.7309 16.8887 13.4921 16.9484C13.3782 16.9484 13.2751 16.9213 13.1829 16.8725C13.0906 16.8236 12.9984 16.7477 12.9061 16.6554C12.8681 16.5306 12.8519 16.4221 12.8519 16.319C12.8519 16.1237 12.9116 15.8795 13.0364 15.5811C13.21 15.1741 13.3022 14.9571 13.3077 14.9191C13.1394 15.1959 13.0201 15.4183 12.9387 15.5919C12.8302 15.8307 12.7488 16.0694 12.6891 16.3082C12.6728 16.3679 12.6674 16.4492 12.6674 16.5578C12.6674 16.8019 12.7379 17.0027 12.8844 17.1546C13.1069 17.2903 13.3294 17.3608 13.5464 17.3608C13.7037 17.3608 13.8502 17.3337 13.9859 17.2794C14.1215 17.2251 14.2626 17.1492 14.4091 17.0461C14.5556 16.943 14.8486 16.7043 15.2827 16.319C15.478 16.1454 15.6408 16.0152 15.771 15.9284C16.0369 15.7493 16.2919 15.6028 16.5307 15.4889C16.7694 15.3749 17.0515 15.261 17.3771 15.147C17.7732 15.0005 18.0553 14.892 18.2235 14.8215C18.5274 14.6912 18.7878 14.5502 19.0049 14.3982C19.1731 14.1215 19.287 13.8448 19.3521 13.5626C19.4173 13.2805 19.4498 12.9549 19.4498 12.586C19.4498 12.3038 19.3793 11.6202 19.2436 10.535C19.1839 10.0792 19.1568 9.6831 19.1568 9.34127L19.2328 9.18934C19.3847 9.34127 19.4986 9.52574 19.58 9.74278ZM17.9414 16.2105C17.9577 16.2702 17.9414 16.3353 17.9143 16.4113C17.8817 16.4872 17.8383 16.5632 17.7895 16.6446C17.7461 16.6608 17.7081 16.6663 17.6701 16.6663C17.6267 16.6663 17.5833 16.65 17.5453 16.6174C17.5073 16.5849 17.4748 16.5415 17.4585 16.4926C17.4422 16.4438 17.4314 16.3787 17.4314 16.2973C17.4314 16.2376 17.4368 16.1617 17.4531 16.0586L17.7461 15.5051C17.6972 15.6571 17.6538 15.7819 17.6267 15.8849C17.5996 15.988 17.5833 16.0586 17.5833 16.102C17.5833 16.2322 17.643 16.3299 17.7678 16.395L17.9414 16.2105ZM10.2583 8.54908C10.2583 8.69558 10.2203 8.83665 10.1389 8.9723C10.0792 9.03198 10.025 9.05912 9.96527 9.05912C9.92729 9.05912 9.90016 9.04284 9.87846 9.01571C9.79707 8.90719 9.75909 8.78239 9.75909 8.63589C9.75909 8.48939 9.79707 8.32119 9.87846 8.12585C9.92187 8.03361 9.96527 7.93594 10.0087 7.8437C10.0141 7.90881 9.99783 8.01734 9.95985 8.16926C9.92187 8.32119 9.90016 8.42428 9.90016 8.47311C9.90016 8.58706 9.94357 8.68473 10.0304 8.76612C10.0792 8.77154 10.1281 8.73356 10.1715 8.64675C10.1932 8.59791 10.2203 8.56535 10.2583 8.54908ZM12.0054 10.0358L11.9186 10.1443L11.7016 9.98152C11.4845 10.3017 11.1861 10.6055 10.8009 10.9039C10.3288 11.2349 9.98155 11.4845 9.75909 11.6527C10.3831 11.0884 11.0016 10.5187 11.6256 9.94897C11.5985 9.92184 11.5117 9.87843 11.376 9.81874C11.2404 9.75906 11.1698 9.69395 11.1698 9.61256C11.1698 9.58543 11.1807 9.54745 11.2024 9.50405C11.2512 9.41723 11.3163 9.33584 11.3977 9.2653C11.4791 9.19477 11.5605 9.15136 11.6473 9.13508C11.7504 9.13508 11.8155 9.19476 11.8535 9.31956C11.8698 9.39009 11.8752 9.45521 11.8752 9.50405C11.8752 9.58544 11.8589 9.63969 11.8318 9.67767C11.8752 9.73736 11.9186 9.79162 11.9674 9.85131C12.0163 9.91099 12.0271 9.97067 12.0054 10.0358ZM14.7292 15.0276C14.7075 15.1307 14.6804 15.2176 14.6424 15.2989C14.6044 15.3803 14.5502 15.44 14.4797 15.4834C14.3983 15.4997 14.3332 15.44 14.2843 15.3098C14.268 15.2393 14.2626 15.185 14.2626 15.147C14.2626 15.0222 14.2897 14.9028 14.3494 14.778C14.3657 14.7509 14.4308 14.637 14.5448 14.4416C14.561 14.5068 14.5556 14.5719 14.5339 14.637C14.4525 14.8486 14.4145 14.9571 14.4145 14.9734C14.4145 15.0548 14.4471 15.1253 14.5122 15.1904C14.5502 15.1904 14.5882 15.1633 14.6262 15.109C14.6641 15.0548 14.7021 15.0276 14.7292 15.0276ZM8.50027 9.5366L8.02279 10.1443C7.97396 10.1009 7.87629 10.0412 7.74064 9.97067C7.5019 9.84587 7.3771 9.73736 7.37168 9.63426L7.7949 9.10252L8.50027 9.5366ZM6.01519 8.02819L5.97179 8.25608C5.94466 8.26151 5.89582 8.2398 5.83071 8.19096C5.7656 8.14213 5.70591 8.12043 5.65708 8.12585C5.63538 8.32661 5.61367 8.5328 5.59197 8.73356C5.55399 8.95059 5.49973 9.14051 5.41834 9.29786C5.3478 9.22732 5.27727 9.0971 5.20673 8.90719C5.13619 8.71728 5.07108 8.58706 5.00597 8.50567C4.98969 8.57078 4.95714 8.60334 4.9083 8.60334C4.8866 8.60334 4.85947 8.59249 4.82149 8.57078C4.72925 8.50025 4.65871 8.42971 4.6153 8.3646C4.63158 8.29948 4.64786 8.22895 4.67499 8.15298C4.70212 8.07702 4.75095 8.01191 4.82149 7.96307C4.98969 8.04446 5.11991 8.18554 5.22301 8.39715C5.3044 8.58706 5.38036 8.77154 5.46175 8.9506C5.49973 8.61962 5.52686 8.37002 5.55399 8.20182C5.58112 8.03361 5.62995 7.90339 5.71134 7.81115C5.77645 7.81657 5.83071 7.84371 5.87954 7.88169C5.92838 7.91967 5.97179 7.96851 6.01519 8.02819ZM12.6457 16.2105C12.4883 16.3678 12.3039 16.4981 12.0977 16.6012C11.8915 16.7043 11.6853 16.7531 11.4845 16.7531C11.3706 16.7531 11.2675 16.7368 11.1807 16.7097C11.0667 16.65 11.0071 16.5632 11.0071 16.4384C11.0071 16.3896 11.0233 16.3461 11.0505 16.3082C11.1644 16.1562 11.2512 16.0531 11.3001 16.0043C11.4086 15.8904 11.5171 15.8198 11.6256 15.7981C11.5768 15.7818 11.5225 15.771 11.4683 15.7547C11.414 15.7384 11.3814 15.733 11.3652 15.733C11.3055 15.733 11.2621 15.7547 11.2241 15.7981C11.197 15.771 11.2078 15.7276 11.2566 15.6788C11.3055 15.6299 11.3326 15.5919 11.3326 15.5702C11.3706 15.5106 11.4303 15.4834 11.5171 15.4834C11.5659 15.4834 11.6093 15.4834 11.6365 15.4943C11.7287 15.5323 11.7884 15.554 11.8101 15.5594C11.8318 15.5648 11.8589 15.5865 11.8969 15.6245C11.8969 15.7167 11.8264 15.8144 11.6799 15.9175C11.3597 16.14 11.2024 16.2702 11.2024 16.2973C11.2024 16.3624 11.3055 16.433 11.5062 16.5035C11.6799 16.5035 11.8806 16.4655 12.1031 16.3841C12.4015 16.281 12.5806 16.2268 12.6457 16.2105ZM17.3228 11.7178C17.3662 11.7775 17.388 11.8318 17.388 11.8915C17.388 11.962 17.3391 12.0705 17.2469 12.217C17.1546 12.3635 17.1004 12.4775 17.0841 12.5643C16.7748 12.6782 16.3245 12.8301 15.7385 13.0092C14.9788 13.2479 14.2409 13.4813 13.5301 13.7091C12.8193 13.937 12.217 14.1758 11.7233 14.4199C11.159 14.7021 10.6218 15.0439 10.1063 15.44C9.92729 15.5757 9.62344 15.8795 9.20564 16.3516C8.55996 17.0678 8.00651 17.4259 7.53445 17.4259C7.42594 17.4259 7.31742 17.4151 7.2089 17.3934C7.01899 17.2903 6.88334 17.1438 6.7911 16.943C6.69886 16.7422 6.65545 16.5198 6.65545 16.2756C6.69343 16.0314 6.75855 15.8035 6.86164 15.5919C6.32447 15.7276 5.95551 15.8198 5.7439 15.8632C5.27184 15.9663 4.87032 16.0152 4.52849 16.0152C4.03473 16.0152 3.64406 15.9772 3.34563 15.8958C2.94954 15.7873 2.61313 15.5919 2.33641 15.3098C2.22246 15.1959 2.13565 15.0548 2.08139 14.892C2.02713 14.7292 2 14.5556 2 14.3657C2 14.1975 2.01628 14.0564 2.04341 13.9316C2.11394 13.72 2.21161 13.4867 2.33641 13.2262C2.4612 12.9658 2.59143 12.7216 2.73793 12.4883C2.63483 12.6891 2.55345 12.8953 2.48833 13.1069C2.40152 13.3727 2.35811 13.6115 2.35811 13.8231C2.35811 13.975 2.37982 14.1107 2.4178 14.2355C2.45578 14.3603 2.52632 14.4742 2.61856 14.5827C2.90071 14.8649 3.24254 15.0602 3.64948 15.1687C3.95334 15.2501 4.35486 15.2881 4.85404 15.2881C5.21758 15.2881 5.62995 15.2284 6.10201 15.1145C6.62832 14.9625 7.00814 14.8594 7.24145 14.7998C7.32827 14.6044 7.41508 14.4037 7.5019 14.2029C7.56158 14.0727 7.62127 13.9587 7.68638 13.8665C7.59957 14.1703 7.48562 14.4579 7.34997 14.7346C7.6701 14.6424 7.99566 14.5176 8.33207 14.3711C8.66848 14.2246 8.97775 14.0564 9.2599 13.8665C9.2599 13.7308 9.23277 13.6169 9.18394 13.5301C9.11883 13.4921 9.04287 13.4704 8.96148 13.4541C8.88009 13.4378 8.78785 13.4324 8.69561 13.4324C8.60879 13.4324 8.45686 13.4378 8.2344 13.4541C8.01194 13.4704 7.89799 13.4758 7.88172 13.4758C7.63755 13.4758 7.45307 13.4378 7.33912 13.3673C7.18177 13.2642 7.07868 13.0852 7.03527 12.8247C7.2306 12.2821 7.34997 11.9728 7.39338 11.9023C7.58329 11.5605 7.83288 11.3651 8.14216 11.3163C8.38633 11.3163 8.62507 11.4031 8.85838 11.5767C9.04829 11.7232 9.22192 11.9186 9.37927 12.1736C9.47151 12.2984 9.54205 12.4341 9.58546 12.5806C9.62887 12.7271 9.65057 12.8735 9.65057 13.0201C9.65057 13.2751 9.60716 13.5192 9.51492 13.758C9.42268 13.9967 9.29246 14.2463 9.11883 14.5068C8.7987 14.7184 8.46229 14.9083 8.1096 15.0765C7.75692 15.2447 7.38795 15.3912 7.01356 15.5051C6.91047 15.6842 6.86164 15.8795 6.86164 16.0911C6.86164 16.3244 6.92132 16.5089 7.03527 16.6554C7.0841 16.7043 7.13836 16.7585 7.19805 16.8074C7.30657 16.8942 7.42051 16.9376 7.53445 16.9376C7.57786 16.9376 7.61042 16.9376 7.63212 16.9267C7.95768 16.7965 8.29951 16.5795 8.66305 16.2756C8.88009 16.0966 9.19479 15.7981 9.60716 15.3858C9.97613 15.0114 10.2854 14.7184 10.5404 14.5176C10.8823 14.2409 11.2404 14.0238 11.6148 13.8556C11.9891 13.6874 12.3798 13.5192 12.7759 13.3456C12.6945 13.2317 12.4341 13.0635 11.9837 12.8464C11.6365 12.6728 11.4628 12.4503 11.4628 12.1845C11.4628 12.1193 11.4628 12.0651 11.4737 12.0217C11.631 11.6256 11.7396 11.3814 11.7992 11.2946C11.9674 11.0342 12.1845 10.8931 12.4504 10.8714C13.0146 10.8714 13.5572 10.9094 14.0781 10.9853C14.599 11.0613 15.1525 11.1698 15.7385 11.3055C15.809 11.3217 16.3407 11.4574 17.3228 11.7178ZM5.57027 12.6077C5.52686 12.6131 5.48888 12.6619 5.46175 12.7488C5.43462 12.8356 5.39664 12.8844 5.35323 12.9007C5.26641 12.8084 5.22301 12.6945 5.22301 12.5643C5.22301 12.5426 5.25556 12.3852 5.32067 12.0976C5.34238 12.0108 5.3478 11.924 5.33152 11.8372C5.17417 12.1899 5.09278 12.5588 5.09278 12.9441C5.09821 12.9875 5.12534 13.0363 5.16332 13.0906C5.2013 13.1448 5.26099 13.172 5.33152 13.172C5.41834 13.0906 5.47802 13.0038 5.50515 12.9115C5.50515 12.9061 5.52686 12.803 5.57027 12.6077ZM3.80141 11.2295C3.76343 11.2512 3.72002 11.3109 3.66576 11.414C3.6115 11.5171 3.56267 11.5767 3.51926 11.5984C3.47585 11.6202 3.43787 11.631 3.39989 11.631C3.36191 11.631 3.32393 11.6147 3.28052 11.5822C3.23711 11.5496 3.18828 11.5116 3.13945 11.4682C3.07434 11.2783 3.04178 11.0993 3.04178 10.9256C3.04178 10.6164 3.15572 10.2257 3.37819 9.75363C3.48671 9.5366 3.59523 9.31956 3.70374 9.10252C3.37276 9.59628 3.14487 9.96524 3.02008 10.2094C2.79761 10.6598 2.68367 11.0721 2.68367 11.4465C2.68367 11.7287 2.73793 11.9891 2.84645 12.2279C2.94954 12.2984 3.0255 12.3472 3.07434 12.3744C3.12317 12.4015 3.18285 12.4015 3.24797 12.3798C3.4433 12.2713 3.57895 12.0976 3.66034 11.8589C3.70374 11.6473 3.75258 11.4411 3.80141 11.2295ZM16.943 6.99726C16.943 6.99726 16.8616 6.99726 16.7585 6.9213C16.7857 6.86161 16.8237 6.85076 16.8671 6.87789C16.905 6.89959 16.9268 6.93757 16.943 6.99726ZM11.6582 9.60171C11.6582 9.54202 11.631 9.49862 11.5714 9.46064C11.5062 9.42266 11.4466 9.4335 11.3977 9.48234L11.6582 9.60171ZM16.2377 12.2062L13.2642 13.1611C13.2208 13.0689 13.1557 12.9658 13.0689 12.8518C12.9821 12.7379 12.9116 12.6457 12.8627 12.5643C12.7922 12.4937 12.6131 12.3635 12.331 12.1845C12.1085 12.038 11.962 11.8969 11.8969 11.7612C12.0868 11.7124 12.2659 11.6744 12.4449 11.6527C12.624 11.631 12.7976 11.6202 12.9712 11.6202C13.4053 11.6202 13.9533 11.6907 14.6207 11.8372C14.9843 11.9186 15.5214 12.038 16.2377 12.2062ZM8.80412 12.6511C8.6956 12.5371 8.61964 12.4557 8.57623 12.4123C8.44059 12.2821 8.28866 12.179 8.13131 12.1085C8.02821 12.0814 7.94683 12.0651 7.88172 12.0651C7.72979 12.0651 7.6267 12.1193 7.56701 12.2279C7.53988 12.255 7.5236 12.2984 7.5236 12.3472C7.5236 12.4069 7.54531 12.4503 7.58871 12.4883C7.6484 12.5751 7.72436 12.6402 7.82746 12.6782C7.93055 12.7162 8.03907 12.7379 8.15301 12.7379C8.23983 12.7379 8.33207 12.7325 8.42973 12.7162C8.5274 12.6999 8.6522 12.6782 8.80412 12.6511Z" fill="white"/>
</svg>
