<svg width="24" height="24" viewBox="0 0 24 24" fill="none" xmlns="http://www.w3.org/2000/svg">
<path fill-rule="evenodd" clip-rule="evenodd" d="M21.978 9.78178C21.9671 9.73054 21.9341 9.66831 21.8829 9.59876C21.8023 9.49261 21.7548 9.43039 21.7438 9.41575C21.7072 9.52556 21.6852 9.64269 21.6742 9.76348C21.6632 9.88427 21.6559 10.0124 21.6559 10.1551C21.6559 10.3198 21.6852 10.6932 21.7438 11.2789C21.7731 11.5717 21.7877 11.8059 21.7877 11.9816C21.806 12.1464 21.8206 12.3147 21.8316 12.4868C21.8426 12.6588 21.8499 12.8345 21.8499 13.0102C21.8499 13.3433 21.828 13.6507 21.784 13.9289C21.7401 14.2071 21.6669 14.478 21.5608 14.7415C21.5791 14.4853 21.5864 14.2364 21.5864 14.0021C21.5864 13.6617 21.5864 13.3909 21.5791 13.1895C21.5717 12.9882 21.5681 12.7942 21.5608 12.6149L21.2094 8.83742C21.1618 8.77154 21.1398 8.71297 21.1398 8.66172C21.1398 8.59584 21.1618 8.5263 21.202 8.44943C21.3265 8.22249 21.3851 8.10169 21.3851 8.09071C21.5132 8.34328 21.6413 8.59584 21.7731 8.84474C21.9268 9.17417 22 9.43771 22 9.63537C22 9.66465 21.9927 9.7159 21.9817 9.78544L21.978 9.78178ZM20.459 9.62439C20.4004 9.61341 20.3346 9.55484 20.2577 9.44869C20.2211 9.40111 20.1881 9.35352 20.1515 9.29862C20.1515 9.6134 20.1991 10.1368 20.2906 10.8616C20.3858 11.5863 20.4297 12.1354 20.4297 12.5051V12.9004C20.4114 13.0065 20.4004 13.0834 20.3931 13.1273C20.3419 13.53 20.2321 13.8777 20.0674 14.1632C19.8807 14.4926 19.6061 14.7708 19.2511 14.9977C18.7057 15.1149 18.164 15.2357 17.6259 15.3565C17.7833 15.2466 18.1054 15.0709 18.5922 14.8294C19.0205 14.6134 19.3426 14.4194 19.5586 14.251C19.8807 13.9948 20.1076 13.691 20.2357 13.3469C20.1772 12.8272 20.1223 12.3037 20.0674 11.784C19.9978 11.18 19.9283 10.6566 19.8551 10.21C19.7672 9.66465 19.6647 9.15586 19.5476 8.68002C19.6061 8.54459 19.6464 8.44577 19.672 8.37988C19.7233 8.25543 19.7818 8.16758 19.8477 8.11634C19.9649 8.36158 20.082 8.60682 20.1991 8.84474C20.3163 9.10828 20.4004 9.3645 20.4553 9.61706L20.459 9.62439ZM19.9136 13.6141C19.9319 13.5336 19.9429 13.4494 19.9502 13.3689C19.9575 13.2884 19.9575 13.2115 19.9575 13.142C19.9575 12.6551 19.7818 12.161 19.4305 11.6559C19.284 11.4436 18.918 11.019 18.3324 10.3821C17.8565 9.86597 17.5381 9.43039 17.3734 9.07168C17.4026 9.03507 17.4575 9.0424 17.5344 9.08632C17.6113 9.13025 17.6698 9.13025 17.7064 9.08999C17.6113 8.95089 17.4539 8.78983 17.2306 8.61414C16.9378 8.37256 16.7694 8.23712 16.7291 8.20052C16.6706 8.36523 16.6413 8.52263 16.6413 8.67637C16.6413 8.78252 16.6559 8.87768 16.6852 8.96552C16.7145 9.05337 16.7657 9.13391 16.8353 9.20345C17.0476 9.62439 17.4283 10.1368 17.9773 10.7408C18.6508 11.4802 19.0717 11.9707 19.2438 12.2159C19.6428 12.7942 19.8404 13.3579 19.8404 13.9033C19.8697 13.8813 19.888 13.8301 19.8917 13.7532C19.899 13.6764 19.9026 13.6288 19.91 13.6141H19.9136ZM15.4956 8.63245C15.4956 8.88867 15.3712 9.09364 15.1259 9.24005C15.0893 9.26933 15.0307 9.28398 14.9502 9.28398C14.91 9.28398 14.866 9.27665 14.8184 9.26567C14.8001 9.19613 14.7928 9.12292 14.7928 9.04605C14.7928 8.86304 14.8441 8.66172 14.9502 8.43844C14.9868 8.36157 15.0893 8.1749 15.265 7.87476C15.1662 8.07973 15.0966 8.23347 15.0527 8.3323C14.9722 8.51897 14.9283 8.67636 14.9283 8.80813C14.9283 8.90696 14.9429 8.99115 14.9722 9.05338C15.1113 9.05338 15.243 8.99481 15.3602 8.87768C15.3492 8.83742 15.287 8.76421 15.1772 8.65806C15.1259 8.60681 15.0966 8.56289 15.0966 8.53361C15.0966 8.48603 15.1223 8.43844 15.1772 8.39452C15.2284 8.39452 15.2833 8.41649 15.3382 8.46041C15.3931 8.50433 15.4444 8.5629 15.4919 8.63245H15.4956ZM17.0769 10.6712C17.0988 10.7115 17.0988 10.7664 17.0769 10.8286C17.0549 10.8945 17.0329 10.9531 17.0146 11.0117C16.9927 11.0336 16.9671 11.0556 16.9451 11.0739C16.8939 11.1141 16.8426 11.1324 16.795 11.1251C16.7072 11.019 16.6633 10.8872 16.6633 10.7298C16.6633 10.6127 16.6816 10.4919 16.7145 10.3711C16.7255 10.3235 16.7657 10.2137 16.8389 10.038C16.8389 10.0856 16.828 10.1698 16.8023 10.2942C16.7804 10.4187 16.7657 10.5138 16.7657 10.5834C16.7657 10.7188 16.8023 10.825 16.8719 10.8982C16.9305 10.8982 16.9744 10.8652 17.0037 10.7957C17.0329 10.7298 17.0549 10.6859 17.0732 10.6676L17.0769 10.6712ZM16.0666 9.90623C16.03 10.0051 15.9861 10.0966 15.9312 10.1771C15.8763 10.2576 15.7994 10.3601 15.7079 10.4772C15.6859 10.3894 15.5835 10.3089 15.4078 10.232C15.2321 10.1551 15.1625 10.0636 15.1955 9.95015C15.2357 9.92819 15.2943 9.85133 15.3675 9.72321C15.4407 9.5951 15.5029 9.52922 15.5578 9.52922C15.6054 9.52922 15.6603 9.56216 15.7262 9.62439C15.8141 9.67197 15.8799 9.70492 15.9202 9.73054C16.0007 9.77813 16.052 9.83668 16.0703 9.90623H16.0666ZM20.7042 15.0197C20.6457 15.049 20.5944 15.0709 20.5505 15.0856C20.5066 15.1002 20.4627 15.1075 20.4151 15.1075C20.3199 15.1075 20.2394 15.0709 20.1698 15.0014C20.1479 14.9831 20.1259 14.9648 20.1113 14.9428C20.0966 14.9209 20.0893 14.9026 20.0893 14.8843C20.0893 14.866 20.1113 14.8477 20.1515 14.833C20.2394 14.844 20.298 14.8843 20.3272 14.9465C20.4078 14.8989 20.459 14.8294 20.4773 14.7342C20.437 14.6683 20.3821 14.639 20.3089 14.639C20.2357 14.639 20.1698 14.6683 20.104 14.7232C20.0381 14.7781 19.9868 14.8403 19.9575 14.9026C19.9283 14.9428 19.9136 14.9831 19.9136 15.016C19.9136 15.0673 19.9319 15.1185 19.9649 15.1661C20.0015 15.2137 20.0417 15.254 20.0893 15.2906C20.082 15.2979 20.06 15.3235 20.0234 15.3711C19.9868 15.4187 19.9685 15.4626 19.9758 15.5029C20.1515 15.415 20.3272 15.3308 20.5029 15.2466C20.6127 15.1881 20.6823 15.1112 20.7042 15.0197ZM20.8177 15.3894C20.7665 15.4772 20.6786 15.5614 20.5542 15.6456C20.5139 15.6676 20.3529 15.7445 20.071 15.8726C19.9758 15.9128 19.8807 15.9677 19.7818 16.03C19.8294 15.9348 19.8917 15.8579 19.9649 15.7957C20.0417 15.7335 20.1406 15.6786 20.265 15.6237C20.6091 15.4772 20.7958 15.3967 20.8177 15.3857V15.3894ZM14.4305 10.6895C14.4414 10.7481 14.4414 10.8067 14.4268 10.8616C14.4122 10.9165 14.3682 11.008 14.2987 11.1288C14.2694 11.1654 14.2328 11.18 14.1925 11.18C14.1706 11.18 14.134 11.169 14.0864 11.1434C14.0095 11.0483 13.9729 10.9384 13.9729 10.8103C13.9729 10.7042 14.0022 10.5834 14.0608 10.4443C14.1193 10.3052 14.1779 10.1771 14.2365 10.0526C14.2365 10.0892 14.1999 10.21 14.1303 10.4223C14.0937 10.5285 14.0791 10.609 14.0791 10.6676C14.0791 10.792 14.1449 10.8799 14.2804 10.9311C14.328 10.8506 14.3755 10.7664 14.4305 10.6859V10.6895ZM11.7511 9.45967C11.6925 9.58778 11.6376 9.71589 11.5827 9.84766C11.6596 9.70125 11.6962 9.52922 11.6962 9.3279C11.6962 9.16319 11.6706 9.00213 11.623 8.84108C11.5717 8.68002 11.5022 8.52629 11.407 8.37988L11.5022 8.16026C11.7072 8.43112 11.8097 8.73127 11.8097 9.06436C11.8097 9.20345 11.7877 9.33522 11.7474 9.45967H11.7511ZM18.8302 12.6844C17.7687 12.3806 16.7108 12.0768 15.6493 11.7693C15.5798 11.7584 15.4736 11.751 15.3346 11.751C15.1113 11.751 14.8953 11.7876 14.6794 11.8608C14.4671 11.934 14.2548 12.0512 14.0498 12.2086C13.951 12.3843 13.8741 12.5673 13.8155 12.754C13.7606 12.9406 13.7313 13.1273 13.7313 13.3177C13.7313 13.5336 13.7753 13.7349 13.8631 13.9253C13.7094 13.874 13.5776 13.7679 13.4678 13.6105C13.3873 13.4933 13.3141 13.3433 13.2482 13.1639C13.153 12.2086 13.1018 11.6632 13.0908 11.5204C13.0395 10.975 12.9883 10.4297 12.9407 9.87695C12.8748 9.24372 12.8163 8.7093 12.765 8.27007C12.6698 8.39818 12.604 8.53361 12.5673 8.68002C12.5307 8.82277 12.5088 8.98383 12.5088 9.15952C12.5088 9.31692 12.5637 9.71224 12.6772 10.3455C12.7247 10.609 12.7467 10.836 12.7467 11.0226C12.7394 11.0702 12.7394 11.1434 12.7394 11.2422C12.7394 11.3411 12.754 11.5534 12.787 11.8791C12.8199 12.2049 12.8346 12.4319 12.8346 12.56C12.8346 12.7576 12.8089 12.9443 12.7613 13.1163C12.7101 13.2884 12.6259 13.4384 12.5015 13.5702L12.5198 12.9297C12.5198 12.4831 12.3514 12.0219 12.0183 11.5424C11.8646 11.3191 11.5205 10.9165 10.9824 10.3308C10.5322 9.84035 10.2247 9.42307 10.06 9.08266L10.481 9.21443C10.1698 8.84108 9.81845 8.50432 9.42679 8.2115C9.34627 8.35059 9.30234 8.49701 9.30234 8.64343C9.30234 8.86671 9.44876 9.17782 9.74158 9.57314C9.90996 9.80008 10.0271 9.97944 10.093 10.1076C10.2504 10.3784 10.5505 10.7408 10.9898 11.1983C11.451 11.6851 11.7657 12.0475 11.9305 12.2891C12.216 12.71 12.3624 13.1273 12.3624 13.5373C12.3624 13.5958 12.3551 13.6764 12.3441 13.7825C12.0439 14.1229 11.6632 14.4377 11.1947 14.7305C10.7738 14.9721 10.3529 15.2137 9.93924 15.4589C9.9978 15.4589 10.2394 15.3857 10.6603 15.2393C10.8287 15.1808 10.9898 15.1515 11.1362 15.1515C11.5534 15.0746 11.9341 14.855 12.2782 14.4926C12.582 14.1778 12.8126 13.8045 12.9736 13.3762C13.0615 13.7166 13.1201 13.9253 13.1493 14.0094C13.2372 14.2327 13.369 14.4084 13.5447 14.5365C13.5739 14.5585 13.6984 14.5988 13.9217 14.65C14.0681 14.6866 14.1486 14.7562 14.1596 14.8623C14.1779 14.8513 14.1852 14.8257 14.1852 14.7818C14.1852 14.7452 14.1925 14.7196 14.2035 14.7013C14.672 14.7013 15.1881 14.5768 15.7482 14.3316C16.2167 14.1083 16.6852 13.885 17.1537 13.6544C17.7028 13.4128 18.2152 13.2957 18.6837 13.2957L18.8338 12.6881L18.8302 12.6844ZM16.5278 15.6346C16.1874 15.9641 15.7848 16.1251 15.3163 16.1251C15.2211 16.1251 15.1479 16.1251 15.0966 16.1178C15.0454 16.1105 14.9722 16.0958 14.877 16.0666C14.8111 16.0153 14.7745 15.975 14.7599 15.9494C14.7452 15.9238 14.7379 15.8909 14.7379 15.8469C14.7379 15.8103 14.7452 15.7847 14.7562 15.7664C14.8221 15.6712 14.8917 15.5907 14.9722 15.5248C15.0527 15.4589 15.1479 15.3931 15.265 15.3272C15.1881 15.2686 15.104 15.2393 15.0088 15.2393C14.9612 15.2393 14.9283 15.2466 14.9136 15.2576L14.877 15.2759L14.8514 15.2576C14.8734 15.1881 14.9136 15.1368 14.9685 15.1075C15.0234 15.0783 15.0857 15.0636 15.1589 15.0636C15.2394 15.0636 15.3199 15.0783 15.3968 15.1075C15.4627 15.1478 15.4919 15.1734 15.4919 15.1771C15.5029 15.3015 15.4114 15.4114 15.2138 15.5138C15.0161 15.6163 14.9209 15.6859 14.9209 15.7188C14.9209 15.7701 14.9941 15.836 15.1406 15.9128C15.2394 15.9311 15.3346 15.9384 15.4224 15.9384C15.5981 15.9384 15.7884 15.9055 15.9934 15.8433C16.0593 15.825 16.235 15.7554 16.5278 15.631V15.6346ZM8.48243 8.59949C8.45315 8.67636 8.42753 8.75324 8.4019 8.82644L8.22621 8.65074C8.16764 8.73127 8.13104 8.89598 8.11274 9.13756C8.09444 9.37914 8.04685 9.54386 7.96266 9.62439C7.9224 9.58779 7.85285 9.44137 7.75037 9.18515C7.68082 9.00213 7.56369 8.92893 7.39898 8.95821C7.36237 8.93625 7.33675 8.89964 7.31479 8.85206C7.29283 8.80447 7.29649 8.76055 7.31845 8.72029C7.32577 8.71297 7.34041 8.67636 7.36237 8.61047C7.38433 8.54459 7.42094 8.50067 7.46852 8.48237C7.59663 8.51897 7.69546 8.62146 7.76867 8.78984C7.8675 9.03142 7.93338 9.16685 7.96266 9.20345C8.00293 8.95089 8.04319 8.75689 8.07979 8.62512C8.1164 8.48969 8.1713 8.4238 8.24085 8.4238C8.27745 8.4238 8.3104 8.43479 8.347 8.46041C8.3836 8.48237 8.42753 8.52995 8.47877 8.59949H8.48243ZM8.24451 10.8652C8.26281 10.9018 8.27013 10.9348 8.27013 10.9714C8.27013 11.0116 8.25549 11.0629 8.22621 11.1215C8.19693 11.18 8.17496 11.2276 8.15666 11.2606C8.13836 11.2972 8.10908 11.3118 8.06881 11.3118C8.04685 11.3118 8.01025 11.3008 7.96266 11.2752C7.8858 11.1764 7.84919 11.0556 7.84919 10.9165C7.84919 10.8103 7.87482 10.6895 7.92972 10.5468C7.95168 10.4772 8.00293 10.3638 8.07979 10.2137C8.04319 10.3308 8.02123 10.4187 8.01025 10.4772C7.98097 10.5944 7.96632 10.6895 7.96632 10.7664C7.96632 10.9018 8.01025 11.0043 8.0981 11.0739C8.13836 11.0629 8.16764 11.0263 8.18594 10.9677C8.20425 10.9092 8.22255 10.8726 8.24817 10.8616L8.24451 10.8652ZM6.90117 9.1705C6.77672 9.48163 6.60835 9.73786 6.39239 9.94284C6.13616 10.1844 5.85432 10.3016 5.55051 10.3016L5.53221 10.2832C5.80307 10.0966 6.07028 9.90989 6.34114 9.71955C6.20205 9.68295 6.041 9.66831 5.85798 9.66831C5.71889 9.66831 5.58712 9.68295 5.46999 9.7159C5.35285 9.74884 5.25037 9.80375 5.16252 9.87695C5.2101 9.71224 5.28331 9.56216 5.3858 9.43039C5.48829 9.29496 5.6164 9.20711 5.76647 9.16685C5.97145 9.13757 6.15813 9.12293 6.33016 9.12293C6.39971 9.12293 6.46925 9.12292 6.53148 9.12658C6.59736 9.12658 6.71815 9.14123 6.90117 9.16685V9.1705ZM4.66105 9.08999C4.64275 9.1998 4.62079 9.2913 4.59151 9.35718C4.56223 9.42307 4.51098 9.47432 4.43411 9.51092C4.38653 9.51824 4.33895 9.5036 4.29502 9.467C4.24744 9.43039 4.22182 9.39378 4.21083 9.35718C4.19985 9.32058 4.19619 9.26934 4.19619 9.21077C4.19619 9.08632 4.22914 8.95455 4.29136 8.80813C4.30966 8.76787 4.37189 8.64709 4.48536 8.44943C4.48536 8.50067 4.44876 8.62146 4.37189 8.80813C4.33163 8.90696 4.30966 8.98383 4.30966 9.03507C4.30966 9.12292 4.34993 9.20345 4.43411 9.28032C4.48536 9.28764 4.52562 9.2547 4.54758 9.18881C4.56955 9.12292 4.60981 9.08632 4.66105 9.08632V9.08999ZM11.3302 12.3403C11.2496 12.6332 11.1581 12.8601 11.0593 13.0175C10.9202 13.2444 10.7408 13.4092 10.5249 13.508C10.1662 13.6324 9.78551 13.7276 9.38287 13.8008C8.98023 13.874 8.58858 13.9106 8.21523 13.9106C8.0981 13.9106 7.97731 13.9106 7.85652 13.9033C7.73206 13.896 7.61493 13.885 7.4978 13.8667C7.30015 14.2364 7.13543 14.5073 7.01098 14.6793C6.88653 14.8513 6.73646 14.9794 6.56808 15.06C6.12884 15.3528 5.69693 15.5797 5.27599 15.7371C4.78551 15.9238 4.30966 16.019 3.85212 16.019C3.62884 16.019 3.4202 15.997 3.22255 15.9531C3.02489 15.9092 2.83455 15.8396 2.64788 15.7481C2.4246 15.62 2.25988 15.4406 2.15739 15.2137C2.05124 14.9868 2 14.7232 2 14.4304C2 14.09 2.10249 13.7056 2.30747 13.281C2.41362 13.0651 2.51977 12.8491 2.63324 12.6295C2.56735 12.5343 2.52343 12.4282 2.49414 12.3074C2.46486 12.1866 2.45022 12.0658 2.45022 11.9414C2.45022 11.7584 2.47218 11.5827 2.51245 11.4143C2.53075 11.3374 2.62225 11.0556 2.79429 10.5724C2.93338 10.2686 3.03953 10.038 3.10908 9.88793C3.23719 9.61341 3.35798 9.39013 3.46779 9.22175C3.43851 9.3279 3.29209 9.68295 3.02855 10.2832C2.84187 10.7152 2.74671 11.0812 2.74671 11.374C2.74671 11.4838 2.75403 11.579 2.76501 11.6595C2.77599 11.7401 2.80161 11.8352 2.84553 11.945C2.89312 11.9963 2.94436 12.0402 3.00293 12.0731C3.06149 12.1061 3.1164 12.1134 3.1713 12.0951C3.23719 12.0731 3.29941 11.9926 3.3653 11.8572C3.4019 11.7876 3.44217 11.7364 3.48975 11.7071C3.4202 12.0585 3.35798 12.2891 3.30673 12.4026C3.23719 12.5417 3.13836 12.6588 3.01757 12.7466C2.98829 12.7649 2.95168 12.7723 2.91142 12.7723C2.86384 12.7723 2.82723 12.7576 2.79795 12.7283C2.60395 13.0431 2.47584 13.303 2.40996 13.5007C2.34407 13.6983 2.31479 13.8887 2.31479 14.0644C2.31479 14.1925 2.32943 14.3133 2.36237 14.4231C2.39531 14.5329 2.45022 14.6463 2.52343 14.7562C2.68082 14.9794 2.88214 15.1368 3.12006 15.232C3.36164 15.3272 3.62518 15.3711 3.91069 15.3711C4.00952 15.3711 4.11933 15.3674 4.24012 15.3565C4.36091 15.3491 4.49268 15.3308 4.63909 15.3089C5.11493 15.21 5.56149 15.0526 5.98243 14.844C6.40337 14.6354 6.77672 14.3682 7.09883 14.0461L6.79868 12.8528L7.09883 12.3879C7.15739 12.5563 7.20498 12.6844 7.24524 12.7686C7.28184 12.8528 7.33309 12.926 7.39898 12.9846C7.73206 12.6515 8.06515 12.3184 8.4019 11.9816C8.81918 11.6119 9.21815 11.4289 9.60615 11.4289C9.7306 11.4289 9.86237 11.4472 10.0015 11.4802C10.3346 11.6083 10.5798 11.7217 10.7408 11.8133C10.9971 11.9597 11.202 12.1354 11.3485 12.3403H11.3302ZM8.8448 15.3638C8.81552 15.3748 8.78624 15.415 8.76061 15.4772C8.73499 15.5395 8.71669 15.5834 8.70205 15.6017C8.64348 15.5651 8.60322 15.5248 8.58492 15.4772C8.56296 15.4297 8.55564 15.3784 8.55564 15.3198C8.55564 15.254 8.58126 15.1478 8.62884 14.9977C8.68009 14.8477 8.70205 14.7415 8.70205 14.6756C8.62152 14.8513 8.56296 14.9941 8.52635 15.1075C8.47511 15.2759 8.44583 15.437 8.44583 15.5834C8.45681 15.631 8.47511 15.6822 8.50439 15.7408C8.53001 15.7993 8.5776 15.836 8.65081 15.8469C8.72035 15.8067 8.7716 15.7554 8.80088 15.6932C8.83016 15.631 8.8448 15.5212 8.8448 15.3638ZM6.05198 13.1603L5.95681 13.3286C5.90922 13.2884 5.87994 13.2481 5.8653 13.2152C5.85066 13.1786 5.84334 13.1273 5.84334 13.0578C5.84334 13.0065 5.85798 12.915 5.8836 12.7869C5.90922 12.6588 5.92387 12.5746 5.92387 12.5307C5.9019 12.5893 5.86164 12.6917 5.8104 12.8345C5.75915 12.9772 5.72987 13.098 5.72987 13.2005C5.72987 13.3176 5.76281 13.4275 5.82504 13.5263C5.8653 13.5446 5.9019 13.5592 5.93119 13.5702C5.96047 13.5812 5.98243 13.5775 5.99341 13.5519C6.04466 13.4824 6.07394 13.3909 6.07394 13.281C6.07394 13.2408 6.06662 13.2005 6.05564 13.1676L6.05198 13.1603ZM5.48097 11.4033C5.45168 11.3923 5.40776 11.3667 5.34919 11.3338C5.30161 11.3155 5.25403 11.3118 5.2101 11.3264C5.07101 11.4509 4.98316 11.6559 4.95388 11.9487C4.94656 12.0439 4.93558 12.183 4.91728 12.3696C4.86603 12.3184 4.77818 12.15 4.66105 11.8682C4.57321 11.6559 4.45242 11.5241 4.30234 11.4655C4.28038 11.4655 4.25476 11.4911 4.2328 11.5387C4.21083 11.59 4.19253 11.6339 4.18155 11.6742C4.17057 11.7144 4.16325 11.762 4.16325 11.8133C4.16325 11.8828 4.19985 11.9377 4.2694 11.9816C4.45242 11.945 4.59883 12.0768 4.71596 12.3696C4.78551 12.5526 4.85505 12.6698 4.91728 12.7283C4.93558 12.6881 4.97218 12.4428 5.03075 11.989C5.05271 11.8059 5.09663 11.6705 5.16252 11.5753C5.19912 11.5753 5.23938 11.5827 5.28697 11.5973C5.33455 11.6119 5.37848 11.6266 5.41874 11.6376C5.42972 11.6156 5.44802 11.5753 5.46999 11.5241C5.49195 11.4729 5.49561 11.4289 5.47731 11.3996L5.48097 11.4033ZM3.99488 13.6068C3.96559 13.6068 3.94363 13.6288 3.92533 13.669C3.90703 13.7093 3.87775 13.7239 3.83748 13.713C3.7716 13.6544 3.74231 13.5885 3.74231 13.519C3.74231 13.4714 3.75695 13.4055 3.78624 13.3177C3.81552 13.2298 3.83016 13.1639 3.83016 13.1237C3.76061 13.1895 3.70937 13.2701 3.68009 13.3652C3.65081 13.4604 3.63616 13.5629 3.63616 13.669C3.63616 13.7276 3.64348 13.7789 3.65813 13.8228C3.67277 13.8667 3.70205 13.907 3.74963 13.9399C3.79722 13.9765 3.8448 13.9765 3.89971 13.9472C3.95827 13.8374 3.99122 13.7606 4.0022 13.7203C4.01318 13.68 4.00952 13.6398 3.99854 13.6068H3.99488ZM17.1464 12.9992C16.9305 13.1273 16.7145 13.2481 16.5059 13.3579C16.2533 13.4933 16.03 13.5995 15.8397 13.6727C15.3346 13.8777 14.7782 13.9802 14.1632 13.9802C14.1632 13.9619 14.1632 13.9326 14.1706 13.8923C14.1706 13.7972 14.1413 13.6581 14.0827 13.4714C14.0242 13.2847 13.9949 13.1456 13.9949 13.0578C13.9949 12.9699 14.0132 12.8894 14.0534 12.8162C14.09 12.743 14.1559 12.6808 14.2438 12.6258C14.3792 12.5453 14.5146 12.4868 14.6464 12.4575C14.7818 12.4282 14.9283 12.4136 15.0857 12.4136C15.4151 12.4136 15.8543 12.516 16.4107 12.721C16.8865 12.8967 17.1318 12.9882 17.1501 12.9919L17.1464 12.9992ZM10.847 12.8162C10.5029 12.9626 10.1442 13.0761 9.77452 13.1529C9.40483 13.2298 9.03148 13.2701 8.65081 13.2701C8.27013 13.2701 7.95534 13.2371 7.64788 13.1749C8.02855 12.7649 8.26647 12.5197 8.35798 12.4355C8.66911 12.172 8.96559 12.0402 9.25476 12.0402C9.32064 12.0402 9.38653 12.0475 9.45974 12.0585C9.53294 12.0695 9.60615 12.0914 9.6757 12.1207C9.92826 12.2013 10.1369 12.2891 10.298 12.3843C10.5029 12.5014 10.6859 12.6442 10.8433 12.8162H10.847Z" fill="white"/>
</svg>
