<svg width="24" height="24" viewBox="0 0 24 24" fill="none" xmlns="http://www.w3.org/2000/svg">
<path fill-rule="evenodd" clip-rule="evenodd" d="M21.887 12.5579C21.9153 12.7839 21.9435 13.0382 21.967 13.3159C21.9906 13.5937 22 13.8479 22 14.0739C22 14.4788 21.9765 14.8414 21.9247 15.1568C21.8776 15.4722 21.7881 15.8112 21.661 16.1738L21.6139 16.2067C21.6987 15.7924 21.7363 15.3687 21.7363 14.9308C21.7363 14.8272 21.7363 14.7237 21.7316 14.6248C21.7316 14.5259 21.7128 14.347 21.6798 14.0834L20.7288 8.03816C20.6911 7.97225 20.6723 7.89691 20.6723 7.82158C20.6723 7.73684 20.7194 7.61914 20.8089 7.46377C20.8983 7.3084 20.9501 7.1907 20.9689 7.10596C21.1573 7.47319 21.3173 7.80746 21.4444 8.09937C21.6234 8.50426 21.7646 8.85737 21.8635 9.14927C21.7976 9.11161 21.7269 9.0504 21.6563 8.96095C21.5857 8.8762 21.5151 8.79145 21.4492 8.70671L21.3597 8.90916C21.3597 9.46001 21.4539 10.218 21.6422 11.1785C21.7787 11.8658 21.8588 12.3178 21.8917 12.5438L21.887 12.5579ZM18.1911 7.27074C18.1299 7.39785 18.0358 7.50614 17.9087 7.6003C17.8239 7.66151 17.6874 7.73684 17.4896 7.8263C17.339 7.8875 17.1836 7.94871 17.0282 8.01933C16.8682 8.08524 16.7363 8.16528 16.6234 8.25473C16.6704 8.09466 16.7458 7.97224 16.854 7.88279C16.9623 7.79334 17.1177 7.7133 17.3107 7.63797C17.5085 7.56735 17.6544 7.51556 17.7533 7.48731C17.9322 7.42611 18.0829 7.35548 18.1959 7.27074H18.1911ZM18.2806 8.99861C18.2194 9.16339 18.1017 9.30463 17.9322 9.41763C17.6215 9.5777 17.3202 9.73307 17.0188 9.89315C17.0047 9.82724 17.0235 9.76132 17.08 9.69541C17.1365 9.6295 17.2119 9.56359 17.3013 9.49767C17.2119 9.46001 17.1412 9.42705 17.0989 9.39409C17.0235 9.3423 16.9623 9.28581 16.92 9.2246C17.0047 9.03628 17.08 8.89503 17.146 8.80558C17.2589 8.64551 17.3861 8.54193 17.532 8.49014C17.5791 8.49956 17.6168 8.51838 17.6497 8.55134L17.7674 8.66904C17.7768 8.71612 17.7486 8.76321 17.6921 8.81029C17.6356 8.85737 17.5979 8.89503 17.5744 8.91857C17.5603 8.91857 17.532 8.89974 17.4896 8.85737C17.4473 8.815 17.4096 8.79616 17.3719 8.79616C17.3202 8.79616 17.2542 8.86207 17.1789 8.99861C17.2307 9.08335 17.3202 9.13985 17.452 9.1681C17.6121 9.19164 17.725 9.20577 17.791 9.21518C17.8757 9.20577 17.9605 9.17752 18.0499 9.12573C18.1864 9.0504 18.2665 9.00803 18.2853 9.00332L18.2806 8.99861ZM20.1215 12.7839C20.1215 12.2566 20.032 11.6587 19.8578 10.9854C19.6789 10.3169 19.5141 9.68599 19.354 9.09748C19.354 9.06923 19.3446 9.01273 19.3305 8.92799C19.3164 8.84324 19.307 8.78674 19.307 8.74908C19.307 8.67375 19.3305 8.61255 19.3729 8.57018L19.7919 9.04569C19.7448 8.74437 19.58 8.34419 19.2928 7.84984C19.0951 7.51085 18.9727 7.28015 18.9209 7.16245C18.8314 7.25191 18.7514 7.36961 18.6855 7.50614C18.6196 7.64268 18.5819 7.77921 18.5819 7.90633C18.5819 7.96754 18.5819 8.00991 18.5913 8.04286L19.8107 12.8922C19.8202 12.9817 19.8343 13.1182 19.8578 13.2924C19.8814 13.4713 19.8908 13.6314 19.8908 13.7726C19.8908 14.008 19.8578 14.2199 19.7872 14.4129C19.7213 14.606 19.6083 14.766 19.4482 14.8931C19.4482 14.8037 19.4482 14.7095 19.4529 14.6107C19.4529 14.5118 19.4576 14.4129 19.4576 14.3046C19.4576 14.154 19.4482 14.0174 19.4341 13.8903C19.42 13.7679 19.387 13.6549 19.3446 13.5561C19.081 13.057 18.6573 12.4779 18.0687 11.8141C17.5697 11.2726 17.0753 10.7265 16.5763 10.1756C16.0113 9.52591 15.6064 8.94211 15.3569 8.42422C15.4322 8.41009 15.4981 8.4148 15.5546 8.43364C15.6111 8.45718 15.6629 8.48072 15.7053 8.51367C15.6817 8.26414 15.4981 7.99107 15.1497 7.68976C14.9237 7.48731 14.7778 7.34607 14.7072 7.27074C14.6083 7.31782 14.5377 7.40256 14.5 7.53439C14.4576 7.66622 14.4247 7.84042 14.4058 8.0617C14.6695 8.51368 14.9614 8.98449 15.2815 9.47884C15.6017 9.97319 15.9077 10.4205 16.2043 10.8159C16.4774 11.169 16.7787 11.5033 17.1083 11.8235L18.0593 12.8075C18.2335 12.9958 18.3842 13.1747 18.516 13.3395C18.6478 13.5043 18.7655 13.6785 18.8738 13.8574C19.1092 14.234 19.2599 14.6342 19.3258 15.0532C18.9492 15.4157 18.4831 15.7594 17.9228 16.0796C17.4237 16.3527 16.9341 16.621 16.4444 16.8941C16.8682 16.8046 17.1883 16.734 17.4049 16.6775C18.0687 16.5174 18.5819 16.348 18.9397 16.1596C19.4058 15.7547 19.7307 15.2368 19.9096 14.6107C20.0461 14.1351 20.1121 13.5278 20.1121 12.7792L20.1215 12.7839ZM13.2053 9.21518C13.2053 9.21518 13.2147 9.27639 13.2147 9.32818C13.2147 9.42705 13.1959 9.52121 13.1582 9.61066C13.1205 9.70012 13.0687 9.78015 12.9981 9.84607C12.8569 9.84607 12.7627 9.76132 12.7156 9.59654C12.7062 9.55887 12.7062 9.50709 12.7062 9.43646C12.7062 9.29993 12.7203 9.18693 12.7533 9.09748C12.7815 9.00803 12.838 8.8809 12.9228 8.71141C12.9228 8.72083 12.9087 8.78675 12.8851 8.90916C12.8569 9.03157 12.8475 9.13515 12.8475 9.21048C12.8475 9.34701 12.8945 9.44588 12.984 9.5165C13.0499 9.5165 13.097 9.46942 13.1252 9.37997C13.1535 9.29052 13.1817 9.23402 13.21 9.21048L13.2053 9.21518ZM14.7401 10.5382L14.2646 11.169C14.0904 11.0796 13.9633 11.009 13.8785 10.9666C13.7185 10.8771 13.6431 10.7877 13.6431 10.6935C13.6431 10.6464 13.662 10.5947 13.6996 10.5335L14.0951 10.0014C14.2316 10.0673 14.3635 10.1521 14.4906 10.2557C14.6177 10.3593 14.7024 10.4487 14.7401 10.5335V10.5382ZM13.5301 7.4214C12.904 7.58618 12.1648 7.85454 11.3032 8.22177C10.5734 8.55134 9.84369 8.88562 9.10923 9.21518C9.08569 9.25285 9.05273 9.31876 9.00094 9.40822C8.95386 9.49767 8.93974 9.57771 8.96328 9.64362C9.3258 9.35643 9.89548 9.05511 10.6817 8.73967C11.1996 8.53722 11.5574 8.38656 11.7458 8.28769C12.1365 8.12761 12.5273 7.97225 12.9228 7.81217C13.1959 7.69918 13.3983 7.56735 13.5348 7.41669L13.5301 7.4214ZM9.93785 7.90633C9.92373 8.04758 9.90019 8.16528 9.87194 8.25473C9.84369 8.34419 9.77778 8.4101 9.67891 8.44776C9.54237 8.44776 9.47646 8.38185 9.47646 8.24532C9.47646 8.04758 9.50471 7.85925 9.56591 7.67093C9.60358 7.54852 9.6742 7.37902 9.78249 7.15303C9.79661 7.23778 9.77778 7.35548 9.72128 7.51556C9.66478 7.67563 9.63654 7.78863 9.63654 7.85454C9.63654 7.95812 9.67891 8.05228 9.75894 8.12761C9.78719 8.06641 9.81544 8.01933 9.83898 7.98166C9.86252 7.944 9.89548 7.92046 9.94256 7.91575L9.93785 7.90633ZM12.6026 10.8206C12.4426 11.0608 12.2919 11.3009 12.1412 11.5316C12.0518 11.5174 11.9623 11.4751 11.8682 11.4092C11.6139 11.2303 11.468 11.1361 11.4397 11.1267C11.468 11.0419 11.5151 10.9478 11.5763 10.8348C11.5998 10.7877 11.7034 10.6323 11.8917 10.3592C12.146 10.4581 12.3861 10.6135 12.6026 10.8206ZM15.5311 15.557C15.2815 15.7547 14.9849 15.9054 14.646 16.009C14.3023 16.1125 13.9539 16.169 13.6008 16.169C13.1582 16.169 12.7439 16.089 12.3578 15.9336C11.9529 16.0937 11.548 16.2255 11.1431 16.3338C10.7382 16.4421 10.3522 16.4986 9.98493 16.4986C9.5565 16.4986 9.16573 16.4233 8.80791 16.2726C8.51601 16.0184 8.29944 15.7124 8.15819 15.364C8.01695 15.0156 7.95104 14.6342 7.95104 14.2293C7.95104 12.9722 7.92279 11.8564 7.86158 10.8866C7.80038 9.91669 7.68267 8.94211 7.51318 7.97225C7.55085 7.89692 7.60264 7.79334 7.67326 7.66622C7.73917 7.5391 7.80979 7.43081 7.87571 7.33665C8.03578 7.96283 8.13465 8.74437 8.18173 9.68599C8.20527 10.5052 8.22881 11.3621 8.25706 12.2566C8.28531 13.1512 8.35593 13.9139 8.47834 14.5542C8.59134 14.7802 8.69492 14.9544 8.78437 15.0721C8.92561 15.2698 9.08098 15.3922 9.24576 15.444C9.41055 15.4958 9.56591 15.5382 9.71657 15.5617C9.86252 15.5899 10.032 15.5994 10.2203 15.5994C10.484 15.5994 10.7382 15.5758 10.9878 15.524C11.2373 15.477 11.5009 15.3969 11.7787 15.2933C11.7693 15.218 11.7646 15.1521 11.7599 15.0956C11.7599 15.0391 11.7552 14.9873 11.7552 14.9449C11.7552 14.5306 11.8399 14.1446 12.0094 13.7867C12.1789 13.4289 12.4426 13.1276 12.8051 12.8875C12.9463 12.8734 13.0734 12.9016 13.177 12.9722C13.2806 13.0429 13.3606 13.1417 13.4124 13.2736C13.4783 13.3866 13.5301 13.5184 13.5584 13.6643C13.5866 13.8103 13.6055 13.9657 13.6055 14.121C13.6055 14.3093 13.5913 14.4835 13.5678 14.6389C13.5395 14.799 13.5019 14.9873 13.4501 15.2133C13.6008 15.2368 13.742 15.2463 13.8785 15.2463C14.1516 15.2463 14.4153 15.1992 14.6789 15.1097C14.9426 15.0203 15.178 14.8979 15.3898 14.7472C15.3004 14.5306 15.1733 14.1775 15.0038 13.6926C14.839 13.2076 14.7166 12.8687 14.6412 12.6803C14.6789 12.4826 14.726 12.3131 14.7825 12.1719C14.839 12.0306 14.919 11.9365 15.0273 11.8894C15.0556 11.9647 15.1497 12.0918 15.3098 12.2754C15.4463 12.4355 15.5122 12.5579 15.5122 12.6474C15.5122 12.685 15.5028 12.7227 15.4793 12.7604C15.3757 12.7604 15.3192 12.7886 15.3098 12.8404C15.3333 12.9157 15.404 13.137 15.5264 13.509C15.6911 14.008 15.7759 14.4035 15.7759 14.6954C15.7759 14.8696 15.7571 15.0156 15.7241 15.138C15.6911 15.2604 15.6299 15.3969 15.5358 15.557H15.5311ZM10.1544 11.9176C10.2533 11.7199 10.3004 11.4986 10.3004 11.2491C10.3004 10.7736 10.1544 10.3781 9.85782 10.0626L9.72128 10.3545C9.86252 10.5052 9.9661 10.6747 10.032 10.8583C10.0979 11.0419 10.1262 11.2444 10.1262 11.4609C10.1262 11.7905 10.0603 12.0871 9.93315 12.3414C9.96139 12.2943 10.0038 12.219 10.0508 12.1154C10.0979 12.0118 10.1309 11.9412 10.145 11.9129L10.1544 11.9176ZM11.1149 12.9911C11.0113 12.9299 10.9266 12.9016 10.8653 12.9016C10.7241 12.9016 10.6205 13.0852 10.5593 13.4478C10.4981 13.815 10.4557 14.0221 10.4228 14.0739C10.3569 13.9892 10.2674 13.8103 10.1591 13.5372C10.0508 13.2641 9.92373 13.0899 9.78249 13.024C9.64595 13.1135 9.58004 13.25 9.58004 13.4289C9.58004 13.4901 9.58945 13.5513 9.61299 13.622C9.67891 13.5984 9.7354 13.589 9.78249 13.589C9.92373 13.589 10.0461 13.7208 10.1497 13.9798C10.2533 14.2387 10.338 14.3941 10.404 14.4506C10.4699 14.3093 10.5264 14.1493 10.5734 13.9798C10.6205 13.8103 10.677 13.5372 10.7524 13.1606C10.8559 13.1841 10.9501 13.2265 11.0348 13.2971L11.1149 12.9911ZM4.83428 7.55793L4.78719 7.831C4.72128 7.80275 4.66478 7.77921 4.62712 7.76509C4.58945 7.75096 4.54708 7.75096 4.50471 7.76509C4.41996 8.30181 4.34463 8.82912 4.2693 9.35643C4.0904 9.05511 3.90678 8.75379 3.72787 8.45247L3.64783 8.55605C3.52542 8.49014 3.4548 8.44776 3.43126 8.43364C3.36535 8.38185 3.31827 8.31123 3.29473 8.21707C3.30885 8.10407 3.32298 8.00991 3.32768 7.92987C3.3371 7.84984 3.37476 7.78863 3.44068 7.74155C3.61959 7.86866 3.77966 8.03816 3.9162 8.25002C3.98211 8.3536 4.0951 8.56076 4.24576 8.86208C4.25989 8.51368 4.27401 8.22648 4.29284 7.99107C4.30697 7.75567 4.39642 7.56735 4.55179 7.4261C4.66478 7.41669 4.75895 7.46377 4.83428 7.56264V7.55793ZM4.71186 10.5617C4.7354 10.6088 4.74482 10.6464 4.74482 10.6747C4.74482 10.7265 4.71657 10.7971 4.66478 10.8818C4.61299 10.9666 4.58004 11.0231 4.57533 11.0466C4.38701 11.235 4.18456 11.3621 3.96328 11.4327C3.98682 11.3338 4.07156 11.235 4.22222 11.1408C4.37288 11.0419 4.46704 10.9619 4.50471 10.9054C4.39171 10.8677 4.27401 10.8489 4.15631 10.8489C3.9774 10.8489 3.83145 10.896 3.72787 10.9948C3.75141 10.8913 3.78908 10.7924 3.84087 10.7076C3.89266 10.6229 3.96798 10.5664 4.06685 10.5429H4.39642C4.52354 10.5429 4.63183 10.5523 4.71186 10.5664V10.5617ZM6.96234 13.4195C6.96234 13.0805 6.93409 12.7274 6.8823 12.3555C6.83051 11.9883 6.71281 11.3715 6.5339 10.5146C6.51977 10.4016 6.46798 10.1568 6.38324 9.78487C6.29849 9.41293 6.25141 9.12573 6.25141 8.91857C6.25141 8.79616 6.26083 8.67375 6.28437 8.54663C6.35028 8.57488 6.42561 8.63138 6.50565 8.71141C6.58569 8.79145 6.63748 8.86207 6.67043 8.91857C6.67985 8.89503 6.67985 8.86207 6.67985 8.81499C6.67985 8.62667 6.56215 8.2971 6.33145 7.831C6.13371 7.44494 6.03484 7.24249 6.02542 7.21895C5.95951 7.27074 5.90301 7.34136 5.85593 7.4261C5.80885 7.51085 5.75235 7.64268 5.67702 7.81688C5.67702 8.42893 5.76177 9.12573 5.93597 9.91669C6.11017 10.7077 6.27966 11.4892 6.44915 12.2613C6.61864 13.0335 6.70339 13.7397 6.70339 14.38C6.0113 15.2086 5.15913 15.7406 4.1516 15.9713C4.01507 15.9948 3.88795 16.0043 3.76554 16.0043C3.53013 16.0043 3.31827 15.9619 3.12053 15.8819C2.92279 15.7971 2.7533 15.6653 2.61205 15.4864C2.49906 15.3828 2.42373 15.2604 2.38136 15.1238C2.33898 14.9873 2.32015 14.8319 2.32015 14.6483C2.32015 14.4647 2.33898 14.2858 2.38136 14.1069C2.42373 13.928 2.47552 13.7444 2.53202 13.5655H2.47552C2.3484 13.8903 2.25895 14.121 2.21657 14.2528C2.07533 14.6813 2 15.0768 2 15.4393C2 15.5523 2.00942 15.6841 2.02825 15.8348C2.04708 15.9854 2.15537 16.1643 2.3484 16.3762C2.5226 16.5645 2.73446 16.7058 2.97928 16.8046C3.17702 16.8517 3.36535 16.8705 3.54426 16.8705C3.93503 16.8705 4.33522 16.7811 4.74011 16.5975C5.05085 16.4609 5.40866 16.2491 5.81356 15.9525C6.21846 15.6606 6.51977 15.2792 6.7081 14.8131C6.87288 14.4082 6.95763 13.9374 6.95763 13.4007L6.96234 13.4195ZM5.52637 13.1135C5.54049 13.2029 5.54991 13.2547 5.54991 13.2736C5.54991 13.3583 5.50753 13.396 5.4275 13.396C5.32863 13.3819 5.26271 13.3724 5.22505 13.3724C5.12147 13.3724 5.06497 13.4336 5.06497 13.5513C5.06497 13.7491 5.05556 13.9186 5.03202 14.0692C4.98493 14.2858 4.95669 14.4459 4.94256 14.5447C4.85311 14.5165 4.74482 14.3753 4.62241 14.121C4.5 13.8668 4.35876 13.7444 4.19868 13.7444C4.1516 13.7444 4.11394 13.7444 4.08569 13.7538C4.02448 13.7255 3.98682 13.6973 3.96798 13.6785C3.94915 13.6596 3.93974 13.6361 3.93974 13.6031C3.94915 13.589 3.95857 13.5184 3.97269 13.3866C3.98682 13.2594 4.02448 13.1747 4.08569 13.137C4.25989 13.2029 4.41996 13.3536 4.57062 13.5796C4.68362 13.7773 4.80132 13.9657 4.91902 14.154C4.93315 14.0928 4.95198 13.8903 4.97081 13.5419C4.98964 13.1935 5.0838 13.024 5.258 13.024C5.33333 13.024 5.42279 13.0523 5.53107 13.1041L5.52637 13.1135ZM3.17702 12.2754C3.17702 12.2754 3.12053 12.5297 3.03107 12.9628C2.96987 13.25 2.85687 13.4383 2.69209 13.5278C2.58851 13.5278 2.48493 13.476 2.38606 13.3677C2.33427 13.3159 2.26365 13.2124 2.16949 13.0617C2.1177 12.8451 2.08945 12.6144 2.08945 12.3743C2.08945 11.96 2.1742 11.5269 2.33898 11.0749C2.46139 10.7359 2.64972 10.3404 2.91337 9.88844C2.74859 10.2792 2.63559 10.557 2.57439 10.7265C2.45198 11.0796 2.39548 11.3903 2.39548 11.654C2.39548 11.8517 2.42844 12.0259 2.48964 12.186C2.55556 12.3461 2.65913 12.492 2.80038 12.6286C2.89925 12.6521 2.97928 12.6003 3.03578 12.4826C3.09699 12.3602 3.13936 12.2943 3.17232 12.2802L3.17702 12.2754ZM13.2665 14.6248C13.2053 14.46 13.1488 14.2952 13.097 14.1257C12.9981 13.9374 12.8616 13.8338 12.678 13.8103C12.452 13.9468 12.2731 14.121 12.146 14.3282C12.1318 14.3894 12.1224 14.4318 12.1224 14.4647C12.1224 14.5495 12.1507 14.6295 12.2119 14.7095C12.2731 14.7896 12.3531 14.8602 12.4473 14.9308C12.5085 14.9449 12.5508 14.9544 12.5838 14.9544C12.6968 14.9544 12.8004 14.9261 12.8992 14.8696C12.9981 14.8131 13.1158 14.7331 13.2618 14.6248H13.2665Z" fill="white"/>
</svg>
