<svg width="24" height="24" viewBox="0 0 24 24" fill="none" xmlns="http://www.w3.org/2000/svg">
<path fill-rule="evenodd" clip-rule="evenodd" d="M22 9.62511L21.6555 9.16572L21.557 9.32979L21.8441 13.53C21.8072 13.977 21.7088 14.4282 21.557 14.8753C21.557 14.7564 21.5652 14.5964 21.5775 14.4036C21.5898 14.2108 21.598 14.1042 21.598 14.0878L21.2535 9.68254C21.233 9.40772 21.2125 9.18623 21.1961 9.01396C21.1797 8.84168 21.155 8.66531 21.1222 8.48484C21.1756 8.34948 21.2166 8.25514 21.2371 8.20592C21.2863 8.09517 21.3396 8.01314 21.4011 7.95161C21.5611 8.26744 21.6842 8.53816 21.7703 8.76375C21.8852 9.06318 21.9631 9.3503 22 9.62511ZM18.735 8.02544C18.6899 8.12799 18.6366 8.20182 18.571 8.23873C17.7957 8.46433 17.0615 8.68582 16.3724 8.90321C15.6833 9.1206 14.9737 9.3585 14.2477 9.60871C14.2642 9.54308 14.3011 9.48566 14.3585 9.43644C14.4159 9.38722 14.4815 9.3462 14.5595 9.31338C15.1624 9.1042 15.8515 8.8827 16.6349 8.6489C17.3363 8.43972 18.0336 8.23463 18.735 8.02544ZM18.4807 11.233C18.4848 11.2863 18.4766 11.3478 18.4479 11.4176C18.4192 11.4873 18.3864 11.5529 18.3495 11.6186C18.3167 11.635 18.2838 11.6432 18.251 11.6432C18.1977 11.6432 18.1567 11.6268 18.1321 11.5898C18.1075 11.5529 18.087 11.5119 18.0706 11.4586C18.0541 11.4053 18.0459 11.3601 18.0459 11.3232C18.0459 11.2576 18.0582 11.192 18.087 11.1263L18.2018 10.9131C18.2018 10.95 18.1936 11.0033 18.1813 11.073C18.169 11.1428 18.1608 11.1838 18.1608 11.2002C18.1608 11.2617 18.1813 11.3109 18.2182 11.356C18.2633 11.3766 18.3043 11.3971 18.3495 11.4135C18.3618 11.4012 18.3782 11.3724 18.4028 11.3232C18.4274 11.274 18.452 11.2453 18.4807 11.233ZM17.4799 10.6423C17.4471 10.7039 17.4102 10.7326 17.3733 10.7326C17.3527 10.7326 17.3117 10.7203 17.2584 10.6916C17.2051 10.6629 17.1641 10.6505 17.1436 10.6505C17.1066 10.6505 17.0779 10.6998 17.0615 10.7982C17.0246 10.8638 16.9508 10.8966 16.84 10.8966C16.8072 10.8966 16.758 10.8925 16.6924 10.8802C16.6226 10.8105 16.5857 10.7203 16.5857 10.6095C16.5857 10.5439 16.598 10.466 16.6226 10.3757C16.6473 10.2855 16.6719 10.1994 16.6924 10.1173L16.7416 10.0763C16.758 10.1091 16.758 10.1747 16.7416 10.2691C16.7252 10.3634 16.717 10.4332 16.717 10.4701C16.717 10.5808 16.7703 10.6464 16.8728 10.667C16.9713 10.6546 17.041 10.6136 17.0779 10.5439C17.0943 10.4988 17.1025 10.4578 17.1025 10.4208C17.0861 10.306 17.0779 10.2199 17.0779 10.1665C17.0779 10.0722 17.1148 10.0107 17.1928 9.97786V10.1501C17.1928 10.2363 17.201 10.306 17.2133 10.3511C17.2256 10.3962 17.2584 10.4414 17.3076 10.4783H17.4225C17.4266 10.4455 17.4225 10.3921 17.4061 10.3142C17.3897 10.2363 17.3815 10.1829 17.3815 10.1501C17.3815 10.0681 17.4143 10.0066 17.4799 9.96146C17.4922 10.0312 17.5045 10.1091 17.5168 10.1912C17.5291 10.2732 17.5373 10.3347 17.5373 10.3798C17.5373 10.4742 17.5168 10.5603 17.4799 10.6423ZM13.6489 9.43644L13.6243 9.44464C13.6776 9.29287 13.7063 9.13291 13.7063 8.96884C13.7063 8.83758 13.6899 8.71043 13.653 8.58328C13.6161 8.45612 13.5628 8.34948 13.493 8.25514C13.4971 8.22232 13.5094 8.18131 13.5217 8.12799C13.534 8.07466 13.571 8.05005 13.6243 8.05005C13.7555 8.25924 13.8212 8.48894 13.8212 8.74735C13.8212 8.98935 13.7637 9.21904 13.6489 9.43644ZM19.8589 9.40362C19.8917 9.37491 19.9081 9.32979 19.9081 9.26416C19.9081 9.10009 19.8302 8.84169 19.6702 8.49304C19.5349 8.19361 19.4282 8.00493 19.3585 7.927C19.3052 8.02134 19.2477 8.11568 19.1862 8.21412C19.1247 8.31256 19.096 8.4028 19.096 8.48484C19.096 8.53816 19.1124 8.59558 19.1452 8.65711C19.1452 9.1124 19.1903 9.63332 19.2806 10.2281C19.3708 10.8228 19.461 11.4053 19.5472 11.9795C19.6333 12.5537 19.6784 13.0829 19.6784 13.571C19.4692 13.6571 19.26 13.7309 19.0468 13.7884C18.8335 13.8458 18.6202 13.8868 18.4069 13.9073C18.4889 13.7925 18.571 13.6776 18.653 13.5628C18.8171 13.329 18.8868 13.1157 18.8663 12.9229C18.735 12.726 18.5587 12.5743 18.3331 12.4717C18.1649 12.3897 17.9434 12.324 17.6686 12.2748C17.5414 12.2461 17.4348 12.2338 17.3404 12.2338C17.0615 12.2338 16.7826 12.3281 16.5037 12.5209C16.2904 12.6686 16.0607 12.8778 15.8146 13.1444C15.4578 13.5341 15.2568 13.7473 15.2075 13.7925C15.1296 13.7391 15.0558 13.6817 14.9861 13.6284C14.8917 13.5587 14.8466 13.4889 14.8466 13.4233C14.8466 13.3782 14.8712 13.329 14.9204 13.2674C14.7933 13.3003 14.6333 13.4274 14.4323 13.6448C14.2313 13.8622 14.0591 13.9729 13.9114 13.9729C13.8909 13.9729 13.8499 13.9688 13.7966 13.9565C13.6694 13.8786 13.5587 13.7638 13.4602 13.612C13.3823 13.4971 13.3167 13.3536 13.2633 13.1854C13.2633 12.3774 13.2141 11.5324 13.1157 10.6505C13.0172 9.76868 12.8819 8.90731 12.7137 8.05826C12.644 8.14439 12.5865 8.23873 12.5414 8.33717C12.525 8.36999 12.4881 8.46843 12.4266 8.6325C12.525 9.02626 12.603 9.46925 12.6645 9.96146C12.6809 10.0886 12.726 10.5439 12.8039 11.3314C12.8368 11.9426 12.8737 12.5537 12.9106 13.1608C12.9762 13.8827 13.2469 14.3708 13.7227 14.6292C13.8991 14.6292 14.0714 14.539 14.2395 14.3585C14.3339 14.2601 14.4692 14.1083 14.6497 13.9073C14.6497 13.9688 14.6743 14.0427 14.7235 14.1288C14.7441 14.1739 14.7851 14.2396 14.8384 14.3339C14.7523 14.4775 14.6989 14.5595 14.6825 14.5882C14.6005 14.74 14.5472 14.8958 14.5185 15.0476C14.5964 14.9984 14.6825 14.8999 14.781 14.7482C14.8794 14.5964 14.9573 14.4939 15.0107 14.4405C15.1419 14.5062 15.2691 14.5513 15.3921 14.5759C15.5152 14.6005 15.6587 14.6128 15.8228 14.6128C15.9253 14.6128 16.1797 14.5923 16.5857 14.5554C16.7621 14.539 16.9098 14.5308 17.0287 14.5308C17.0328 14.5308 17.0861 14.5308 17.1846 14.539C17.283 14.5431 17.3733 14.5513 17.4553 14.5636C17.5373 14.5759 17.6399 14.58 17.767 14.58C18.0993 14.58 18.4315 14.5349 18.7637 14.4405C19.096 14.3462 19.3995 14.219 19.6784 14.055C19.7769 13.8704 19.8466 13.6776 19.8876 13.4807C19.9286 13.2839 19.9491 13.0747 19.9491 12.8491C19.9491 12.5496 19.8917 12.0903 19.7769 11.4709C19.662 10.8515 19.6046 10.3921 19.6046 10.0927C19.5923 10.0066 19.5759 9.87532 19.5472 9.70715C19.5185 9.53898 19.5062 9.39542 19.5062 9.28057V9.15752C19.5062 9.1042 19.5103 9.05498 19.5226 9.00986C19.5759 9.04267 19.6374 9.10419 19.703 9.19033C19.7358 9.23545 19.7892 9.30518 19.8589 9.40362ZM15.6013 10.7572L15.5439 10.9869C15.5234 10.9828 15.4824 10.9541 15.429 10.909C15.3757 10.8638 15.3265 10.8433 15.2814 10.8556C15.2116 10.9541 15.1624 11.1222 15.1419 11.3601C15.1214 11.598 15.0804 11.7621 15.0271 11.8565C14.982 11.8195 14.904 11.6678 14.7892 11.4053C14.703 11.2084 14.6005 11.1304 14.4856 11.1674C14.4159 11.1838 14.3503 11.151 14.297 11.0689C14.297 10.991 14.3052 10.9254 14.3257 10.872C14.3462 10.8187 14.379 10.7695 14.4282 10.7244C14.5923 10.7449 14.7194 10.8474 14.8138 11.0279C14.8835 11.1879 14.9573 11.3437 15.0271 11.5037C15.0558 11.3437 15.0886 11.1797 15.1255 11.0074C15.1624 10.8351 15.2363 10.7039 15.3388 10.6095C15.3757 10.6095 15.4249 10.6177 15.4783 10.6382C15.5316 10.6587 15.5726 10.6957 15.6013 10.7572ZM12.1969 8.02544L12.082 8.23873C12.0328 8.25924 11.7252 8.3864 11.155 8.61609C10.4947 8.8827 9.98605 9.1206 9.6292 9.32979C9.6128 9.29698 9.621 9.25186 9.65381 9.19854C9.65792 9.18623 9.69073 9.14521 9.75226 9.06728C9.99426 8.95243 10.3019 8.81297 10.6792 8.6489C11.0566 8.48483 11.5611 8.27565 12.1969 8.02544ZM11.0976 10.2076C11.0607 10.2896 11.0074 10.3839 10.9459 10.4947C10.8843 10.6054 10.8228 10.6998 10.7613 10.7818C10.7285 10.7326 10.6382 10.667 10.4865 10.5808C10.3347 10.4947 10.2609 10.4085 10.2609 10.3224L10.6382 9.96146L11.0976 10.2076ZM16.6924 15.023C16.7047 15.1009 16.7088 15.1419 16.7088 15.146C16.7088 15.1912 16.6965 15.224 16.676 15.2445C16.5775 15.306 16.4832 15.3675 16.397 15.4332C16.2617 15.4701 16.1099 15.4906 15.9459 15.4906C15.8515 15.4373 15.7572 15.4085 15.6587 15.4085C15.5972 15.4085 15.5357 15.4208 15.4742 15.4414C15.4126 15.4619 15.347 15.4906 15.2814 15.5234C15.146 15.6177 15.0435 15.6834 14.9779 15.7285C14.8507 15.8105 14.7441 15.8638 14.6497 15.8843L13.813 16.073C13.9606 16.0402 14.137 15.9828 14.338 15.9007C14.6005 15.79 14.8261 15.6752 15.0107 15.548C15.1952 15.4208 15.3593 15.3265 15.4988 15.265C15.6382 15.2035 15.7613 15.1706 15.8638 15.1706C15.9582 15.1706 16.0238 15.1994 16.0607 15.2527C16.1263 15.2199 16.192 15.1788 16.2535 15.1296C16.315 15.0804 16.3765 15.0353 16.4381 14.9943C16.4996 14.9533 16.5447 14.9327 16.5775 14.9327C16.6226 14.9327 16.6596 14.9615 16.6924 15.023ZM9.53897 11.233C9.53897 11.233 9.55127 11.1551 9.57178 11.0279C9.59229 10.9007 9.60459 10.7859 9.60459 10.6752C9.60459 10.5316 9.59229 10.4126 9.56768 10.3183C9.54307 10.224 9.48975 10.1296 9.40771 10.0353L9.52256 9.85481C9.65792 10.0066 9.72765 10.2158 9.72765 10.4783C9.72765 10.5972 9.71534 10.7162 9.69483 10.8269C9.67432 10.9377 9.621 11.073 9.53897 11.233ZM11.5652 14.1206C11.6432 13.9606 11.7047 13.7966 11.7498 13.6202C11.7949 13.4438 11.8195 13.2715 11.8195 13.1034C11.8195 12.9516 11.799 12.808 11.758 12.6768C11.717 12.5455 11.6514 12.4266 11.5652 12.324C11.4504 12.16 11.3314 12.0328 11.2043 11.9467C11.0566 11.8441 10.9048 11.7908 10.7449 11.7908C10.6998 11.7908 10.6669 11.7908 10.6464 11.799C10.4044 11.8852 10.224 12.0656 10.105 12.3323C10.0435 12.4635 9.97785 12.7137 9.90812 13.0788C9.95324 13.2592 10.0435 13.3823 10.1788 13.4479C10.2773 13.4971 10.4208 13.5218 10.6136 13.5218C10.6669 13.5218 10.749 13.5217 10.8515 13.5135C10.9541 13.5094 11.032 13.5053 11.0812 13.5053C11.1591 13.5053 11.233 13.5094 11.3068 13.5218C11.3806 13.5341 11.4381 13.5505 11.4832 13.571C11.315 13.7843 11.0935 13.9565 10.8228 14.0837C10.5521 14.2108 10.2691 14.2765 9.97375 14.2765C9.87941 14.2765 9.78917 14.2683 9.69483 14.2519C9.31747 14.0222 9.12059 13.5874 9.10008 12.9434C9.07957 12.2994 9.06727 11.9467 9.05496 11.8811L8.62018 8.08287L8.55455 8.00083L8.25103 8.53406C8.33716 9.00575 8.41509 9.46515 8.48072 9.92044C8.54635 10.3757 8.61608 10.8761 8.69401 11.4217C8.75554 11.6719 8.78835 12.2338 8.80066 13.0993C8.81296 13.9647 9.05086 14.5677 9.52256 14.8999C9.621 14.9163 9.72354 14.9245 9.82609 14.9245C10.1501 14.9245 10.4619 14.8548 10.7654 14.7113C11.0689 14.5677 11.3355 14.3708 11.5652 14.1206ZM7.54553 9.30518C7.54553 9.40772 7.53322 9.49796 7.50451 9.57589C7.4758 9.65383 7.42248 9.70715 7.34044 9.73996C7.27482 9.74406 7.2297 9.72356 7.20509 9.67023C7.18048 9.61691 7.16407 9.57179 7.15587 9.53488C7.14766 9.49796 7.14356 9.44054 7.14356 9.37081C7.14356 9.26006 7.15176 9.17393 7.16817 9.1124C7.18458 9.05087 7.2379 8.91552 7.32404 8.71453C7.32404 8.76375 7.31993 8.81707 7.30763 8.8704C7.27482 9.03857 7.25841 9.14521 7.25841 9.18213C7.25841 9.27647 7.27071 9.34209 7.29943 9.38311C7.32814 9.42413 7.36916 9.46105 7.42248 9.49386C7.44299 9.44874 7.46349 9.40772 7.484 9.37081C7.50451 9.33389 7.52502 9.30928 7.54553 9.30518ZM6.13454 8.32897L6.08532 8.52585C6.0361 8.48894 5.99918 8.46022 5.97867 8.44382C5.93355 8.411 5.89664 8.3946 5.86382 8.3946C5.78589 8.71043 5.71206 9.03036 5.63413 9.3462C5.59721 9.30108 5.52338 9.16982 5.42084 8.94423C5.37572 8.84579 5.3265 8.75965 5.26497 8.68992C5.23626 8.70633 5.20755 8.71453 5.17473 8.71453C5.12961 8.71453 5.0927 8.71043 5.06399 8.69812C5.03527 8.68582 4.97375 8.6489 4.88761 8.58328C4.90402 8.49714 4.92863 8.41921 4.96555 8.34948C5.00246 8.27975 5.05578 8.23053 5.12551 8.19771C5.25677 8.27975 5.37572 8.43972 5.47826 8.67352C5.5603 8.85809 5.61362 8.97294 5.63413 9.00986C5.67104 8.80067 5.70386 8.6407 5.72436 8.52585C5.77359 8.30846 5.84331 8.19771 5.92945 8.19771C5.99508 8.19771 6.06481 8.24283 6.13454 8.32897ZM6.88925 10.7408C6.84413 10.8392 6.79902 10.9254 6.74979 11.0033C6.70057 11.0812 6.63085 11.1715 6.54471 11.274C6.49959 11.2576 6.39295 11.192 6.21657 11.0771C6.08121 10.991 5.96637 10.9459 5.88023 10.9459C5.85972 10.9746 5.82281 11.032 5.77769 11.1263C5.73257 11.2207 5.68335 11.2822 5.63413 11.315C5.53569 11.3027 5.42904 11.274 5.31419 11.2207C5.19934 11.1674 5.0886 11.1181 4.98605 11.0689C5.01477 10.9705 5.05578 10.8761 5.10911 10.79C5.16243 10.7039 5.23216 10.6095 5.31419 10.5111C5.41263 10.5111 5.51928 10.5398 5.63413 10.6013C5.83101 10.6998 5.93355 10.7531 5.93765 10.7572L6.29861 10.347C6.36013 10.3757 6.43396 10.4167 6.5242 10.4742C6.61444 10.5316 6.73749 10.6218 6.88925 10.7408ZM3.64889 9.31338C3.57916 9.46105 3.45201 9.68664 3.27153 9.99427C2.97211 10.4988 2.82034 10.9007 2.82034 11.2002C2.82034 11.2699 2.82445 11.3437 2.83265 11.4176C2.84085 11.4914 2.86957 11.5898 2.91879 11.7088C2.9475 11.7375 2.97211 11.758 2.99672 11.7785C3.02133 11.799 3.05004 11.8072 3.08285 11.8072C3.09926 11.8072 3.11977 11.799 3.14848 11.7826C3.22642 11.6842 3.30025 11.5857 3.37818 11.4873C3.37818 11.6555 3.34126 11.8236 3.27153 11.9877C3.2018 12.1518 3.10336 12.2994 2.97621 12.4307C2.9434 12.443 2.91058 12.4471 2.87777 12.4471C2.78343 12.4471 2.7137 12.4184 2.66448 12.3569C2.61526 12.2461 2.57834 12.1313 2.54963 12.0041C2.52092 11.877 2.50861 11.7621 2.50861 11.6514C2.50861 11.2617 2.63167 10.8392 2.87777 10.3798C2.93929 10.265 3.07875 10.0394 3.30435 9.69895C3.33716 9.67023 3.39048 9.60871 3.46021 9.51027C3.52994 9.41183 3.59557 9.3462 3.64889 9.31338ZM4.64971 12.4881C4.64971 12.5866 4.63331 12.685 4.60049 12.7793C4.56768 12.8737 4.51436 12.9434 4.44463 12.9803C4.34619 13.0008 4.27646 12.9598 4.23544 12.8573C4.19442 12.7547 4.16981 12.6973 4.16571 12.6932C4.16571 12.5578 4.19032 12.4225 4.23954 12.2871C4.28876 12.1518 4.33798 12.0246 4.3872 11.8975C4.3872 11.9426 4.3749 12.0041 4.35439 12.0861C4.30517 12.2707 4.28056 12.3938 4.28056 12.4471C4.28056 12.566 4.32568 12.6645 4.42002 12.7342C4.48975 12.7465 4.53897 12.7096 4.56358 12.6276C4.58819 12.5455 4.6169 12.5004 4.64971 12.4881ZM8.02133 13.9237C8.00082 13.8745 7.96801 13.8417 7.92699 13.8212C7.88597 13.8007 7.83675 13.7925 7.77523 13.7925C6.86054 13.9401 5.94996 14.0878 5.03527 14.2355C4.75636 14.2847 4.48154 14.3093 4.20673 14.3093C3.87449 14.3093 3.56686 14.2642 3.28384 14.178C3.00082 14.0919 2.73421 13.9442 2.4758 13.735C2.41017 13.6735 2.36505 13.612 2.34044 13.5464C2.31583 13.4807 2.30353 13.411 2.30353 13.3331C2.38966 13.0336 2.4799 12.7301 2.57424 12.4307C2.45529 12.5291 2.35275 12.6686 2.27482 12.8532C2.19688 13.0377 2.12305 13.21 2.05742 13.3741C2.04102 13.452 2.02871 13.5259 2.01641 13.6038C2.0041 13.6817 2 13.7514 2 13.8171C2 13.936 2.02051 14.055 2.06153 14.1698C2.10254 14.2847 2.16407 14.3749 2.2461 14.4405C2.46349 14.6087 2.69729 14.7318 2.9434 14.8015C3.1895 14.8712 3.46432 14.9081 3.76374 14.9081C3.86628 14.9081 3.94011 14.9081 3.98523 14.9081C4.03035 14.9081 4.1411 14.8958 4.32568 14.8753C4.51025 14.8548 4.75636 14.8138 5.07219 14.7482C5.38802 14.6825 5.82691 14.58 6.39705 14.4446C6.516 14.4282 6.64315 14.4077 6.77851 14.3872C6.91386 14.3667 7.03281 14.3544 7.14356 14.3544C7.27071 14.3544 7.38556 14.3749 7.49631 14.4118C7.45939 14.4939 7.18458 14.7687 6.67596 15.2404C6.47498 15.4249 6.35603 15.6095 6.32322 15.79C6.65546 15.5152 6.9918 15.2445 7.32404 14.9779C7.7055 14.6333 7.93929 14.2847 8.02133 13.9278V13.9237ZM18.4233 13.4561C17.968 13.6325 17.6071 13.7555 17.3404 13.8253C16.9426 13.9278 16.557 13.9811 16.192 13.9811C15.95 13.9811 15.7121 13.9565 15.4701 13.9073C15.7203 13.5956 15.9623 13.3536 16.192 13.1854C16.4914 12.9598 16.7949 12.8491 17.0943 12.8491C17.2092 12.8491 17.3281 12.8655 17.4553 12.8983C17.7629 12.9844 17.9844 13.0747 18.1198 13.1608C18.2551 13.2469 18.3577 13.3454 18.4233 13.4561ZM16.4627 15.1542C16.4299 15.1378 16.3806 15.1501 16.315 15.1871C16.2699 15.2076 16.2371 15.2404 16.2084 15.2773C16.3068 15.2773 16.3765 15.2691 16.4217 15.2486C16.4668 15.2281 16.4914 15.2117 16.4955 15.1953C16.4996 15.1788 16.4914 15.1665 16.4627 15.1542ZM11.155 12.8327C11.0894 12.8368 11.0238 12.845 10.9541 12.8491C10.8843 12.8532 10.8146 12.8573 10.7367 12.8573C10.6382 12.8573 10.548 12.845 10.4701 12.8163C10.3921 12.7875 10.3306 12.7383 10.2855 12.6604C10.306 12.5948 10.3306 12.5496 10.3593 12.5209C10.388 12.4922 10.4167 12.4758 10.4495 12.4635C10.6259 12.4635 10.7859 12.5168 10.9336 12.6276C10.9869 12.6727 11.0607 12.7383 11.155 12.8327Z" fill="white"/>
</svg>
