<svg width="24" height="24" viewBox="0 0 24 24" fill="none" xmlns="http://www.w3.org/2000/svg">
<path fill-rule="evenodd" clip-rule="evenodd" d="M22 8.27784C21.9044 8.21939 21.8193 8.1025 21.7396 7.93247C21.6599 7.76244 21.5855 7.64553 21.5165 7.57646L21.4155 7.80495C21.458 8.2566 21.5271 8.98453 21.6174 9.99941C21.7131 11.009 21.7768 11.8113 21.8087 12.3958C21.8406 12.9803 21.8619 13.6498 21.8619 14.399C21.8193 14.7125 21.7556 14.9941 21.6759 15.2491C21.5962 15.4989 21.4793 15.8018 21.3252 16.1471C21.3783 15.9452 21.4102 15.7327 21.4315 15.5148C21.4527 15.297 21.4633 15.0419 21.4633 14.7444C21.4633 14.4628 21.4633 14.1811 21.4527 13.9048C21.4421 13.6232 21.4368 13.3416 21.4261 13.0653L20.7992 7.00792C20.7141 6.92291 20.6716 6.82726 20.6716 6.71567C20.6716 6.60409 20.7248 6.46062 20.8363 6.27996C20.9798 6.05148 21.0595 5.90803 21.0808 5.86021C21.2614 6.25341 21.4474 6.66254 21.6493 7.09825C21.8512 7.53395 21.9681 7.92716 22 8.28316V8.27784ZM20.3156 8.64979C20.1456 8.76669 19.9915 8.86232 19.848 8.93671C19.7099 9.0111 19.4708 9.10676 19.1413 9.23428C18.8863 9.32992 18.6366 9.42025 18.3868 9.5159C18.4878 9.399 18.6259 9.2874 18.796 9.18644C19.0191 9.04298 19.2689 8.91015 19.5558 8.79857C19.8427 8.68167 20.0553 8.62853 20.1987 8.62853C20.2412 8.62853 20.2784 8.63915 20.3156 8.6551V8.64979ZM19.7524 11.7476C19.6939 11.9176 19.6461 12.0398 19.6142 12.1195C19.5452 12.263 19.4336 12.3214 19.2848 12.2842C19.1892 12.1408 19.1467 11.9654 19.1467 11.7635C19.1467 11.6094 19.1679 11.4606 19.2157 11.3118C19.2636 11.1631 19.3326 11.0196 19.4283 10.8868C19.4017 10.9877 19.3751 11.1046 19.3539 11.2375C19.3273 11.3703 19.3167 11.4713 19.3167 11.551C19.3167 11.721 19.3539 11.8591 19.4336 11.9601C19.492 12.0026 19.5558 11.9814 19.6249 11.891C19.6939 11.8007 19.7418 11.7582 19.763 11.7582L19.7524 11.7476ZM16.0011 6.86445L15.8629 7.17264C15.0659 7.43832 14.2635 7.69336 13.4665 7.94841C12.4623 8.27784 11.6706 8.55414 11.0967 8.77731C10.3156 9.07487 9.53985 9.4043 8.77471 9.77093C8.79065 9.65404 8.83847 9.54777 8.91286 9.45744C8.98725 9.36711 9.0882 9.28741 9.2051 9.2077C10.3953 8.75606 11.5218 8.34692 12.5845 7.96967C13.8332 7.53396 14.9756 7.16733 16.0011 6.85915V6.86445ZM15.3634 9.85063C15.2784 9.81875 15.1934 9.77624 15.1084 9.73373C15.0234 9.69123 14.9384 9.6753 14.8533 9.68061C14.6727 9.80814 14.5558 10.0313 14.5027 10.3554C14.4495 10.6795 14.4017 10.8815 14.3698 10.9665C14.2582 10.738 14.1467 10.4989 14.0244 10.2438C13.9075 9.99411 13.7269 9.84001 13.4878 9.79219L13.3709 9.93035C13.3549 9.98348 13.3337 10.0366 13.3124 10.1004C13.2912 10.1641 13.2806 10.2332 13.2806 10.3129C13.2806 10.3926 13.3124 10.4511 13.3709 10.5042C13.3975 10.5201 13.4346 10.5361 13.4878 10.5573C13.5409 10.5733 13.5834 10.5839 13.6153 10.5839C13.7109 10.5839 13.7694 10.552 13.796 10.4829C13.9926 10.8389 14.1892 11.195 14.3964 11.5563C14.492 11.4181 14.5558 11.1737 14.5877 10.823C14.6196 10.4723 14.678 10.2226 14.7524 10.0791C14.779 10.0632 14.8162 10.0525 14.8693 10.0525C14.9384 10.0525 15.0234 10.0791 15.1243 10.1269C15.1562 10.1588 15.1934 10.1801 15.2253 10.1801C15.2678 10.1801 15.2997 10.1482 15.3263 10.0897C15.3369 10.0154 15.3475 9.93035 15.3634 9.84533V9.85063ZM10.3262 6.67317C10.1881 6.53502 10.0553 6.47126 9.91711 6.47126C9.65143 6.5669 9.4814 6.84851 9.39639 7.32672C9.34325 7.6349 9.29543 7.84214 9.2423 7.95373C9.13071 7.67211 9.05101 7.48614 8.99788 7.3905C8.88629 7.16733 8.77471 6.99729 8.6525 6.86977C8.60999 6.81663 8.55685 6.79537 8.49841 6.79537C8.44527 6.79537 8.39745 6.82195 8.34432 6.86977C8.34432 6.90165 8.32306 6.96541 8.28055 7.05574C8.23804 7.14607 8.21679 7.21515 8.21679 7.26828C8.21679 7.32142 8.23804 7.37455 8.28055 7.433C8.32306 7.42237 8.3762 7.42238 8.44527 7.42238C8.67375 7.42238 8.85441 7.60835 8.98193 7.98561C9.05632 8.22471 9.12009 8.37349 9.17322 8.43194C9.34325 7.91122 9.5186 7.39581 9.69394 6.87509C9.74708 6.84852 9.78959 6.83789 9.83209 6.83789C9.88523 6.83789 9.9543 6.85383 10.0446 6.89103C10.135 6.92291 10.1881 6.94416 10.204 6.95479L10.3209 6.68911L10.3262 6.67317ZM20.3103 13.7614C20.2147 13.5913 20.1084 13.4744 19.9809 13.416C19.8533 13.3576 19.6939 13.3257 19.4973 13.3257C19.3592 13.3257 19.136 13.3575 18.8278 13.4213C18.5197 13.4851 18.2965 13.517 18.169 13.517L17.4038 7.91653L17.5685 7.75181C17.6429 7.84745 17.712 7.94309 17.7705 8.04405C17.8023 8.1025 17.8608 8.19814 17.9352 8.32566C17.9086 8.01217 17.7917 7.57114 17.5792 6.99729C17.2976 6.24277 17.1382 5.7805 17.0956 5.62109C16.9787 5.71674 16.8831 5.83895 16.8193 5.99304C16.7556 6.14714 16.6971 6.29591 16.6493 6.43938C16.8034 7.40643 16.9256 8.21408 17.0213 8.86233C17.0372 9.00048 17.1488 9.80813 17.3507 11.2853C17.5526 12.7624 17.6642 13.5701 17.6801 13.7082C17.186 13.8942 16.8193 14.027 16.5696 14.1014C16.1339 14.229 15.7513 14.2927 15.4113 14.2927C15.0978 14.2927 14.8108 14.2449 14.5558 14.1546C14.5399 14.0961 14.5452 14.0164 14.5824 13.9102C14.6142 13.8092 14.6355 13.7295 14.6355 13.6817C14.5824 13.7242 14.4761 13.8836 14.3167 14.1652C14.1892 14.3884 14.0351 14.5212 13.8597 14.5743C13.7906 14.6009 13.7269 14.6115 13.6684 14.6115C13.5569 14.6115 13.4559 14.5796 13.3549 14.5212C13.2593 14.4628 13.1637 14.3831 13.068 14.2927C13.0149 14.2502 12.9936 14.1918 12.9936 14.1121C13.0202 13.9952 13.0468 13.873 13.068 13.7561C12.797 14.027 12.526 14.298 12.2657 14.5743C12.1063 14.6328 11.9841 14.6753 11.9097 14.6966C11.8353 14.7178 11.729 14.7284 11.6015 14.7284C11.4421 14.7284 11.3039 14.6966 11.1923 14.6275C11.0755 14.585 10.9958 14.5159 10.9586 14.4149C10.9214 14.3193 10.9001 14.2077 10.9001 14.0908C10.9001 14.0324 10.9001 13.9473 10.9107 13.8358C10.6238 14.0377 10.3316 14.2396 10.0446 14.4362C9.69394 14.6647 9.37513 14.7816 9.0882 14.7816C8.99256 14.7816 8.89692 14.7709 8.79596 14.7444C8.60999 14.6594 8.43464 14.5371 8.28055 14.3724C8.12115 14.213 7.98831 14.0324 7.87673 13.8358C7.66419 13.23 7.45165 12.6243 7.23911 12.0132C6.98406 11.3065 6.73433 10.7114 6.48459 10.2279C6.17109 9.60091 5.8204 9.05362 5.43783 8.59665C5.37938 8.6923 5.33688 8.81451 5.31031 8.96861C5.28374 9.1227 5.25186 9.31398 5.20935 9.54246C5.66631 10.1482 6.02763 10.7061 6.29331 11.2268C6.60149 11.8379 6.79809 12.4489 6.89373 13.0653C6.46865 13.9314 5.85228 14.654 5.04463 15.2279C4.23698 15.8018 3.38682 16.0887 2.49416 16.0887C2.37726 15.9877 2.29756 15.8815 2.26036 15.7752C2.22317 15.6689 2.20191 15.5414 2.20191 15.3979C2.20191 15.2598 2.2763 14.9303 2.43039 14.4043C2.49947 14.1758 2.53135 13.9899 2.53135 13.8411C2.43571 14.0961 2.35069 14.3459 2.26567 14.5956C2.08502 15.1216 2 15.5627 2 15.908C2 16.1099 2.02657 16.3012 2.08502 16.4819C2.13815 16.6625 2.22848 16.8273 2.34538 16.9814C2.43039 17.0557 2.54729 17.0982 2.69075 17.0982C2.75983 17.0982 2.85016 17.0876 2.97237 17.0717C3.08927 17.0557 3.1796 17.0451 3.23804 17.0451C4.17322 16.7635 4.98619 16.3118 5.67163 15.6955C6.45271 14.9994 6.92561 14.2077 7.08502 13.3257C7.48353 14.3618 7.71201 14.925 7.75983 15.01C7.97237 15.3395 8.23805 15.5839 8.56217 15.738C8.66313 15.7646 8.76408 15.7752 8.85441 15.7752C9.13603 15.7752 9.4389 15.6795 9.75771 15.4829C10.0234 15.3023 10.2837 15.1269 10.5494 14.9463C10.56 15.0313 10.576 15.1216 10.6026 15.212C10.6291 15.3076 10.6929 15.3926 10.7992 15.467C10.9054 15.5414 11.017 15.6052 11.1392 15.6477C11.2561 15.6636 11.3518 15.6742 11.4208 15.6742C11.9416 15.6742 12.3401 15.4511 12.6217 14.9994C12.7651 15.3235 13.0149 15.5042 13.3762 15.5467C13.4028 15.5573 13.4453 15.5573 13.5037 15.5573C13.7056 15.5573 13.8969 15.4564 14.0669 15.2491C14.1838 15.0791 14.3061 14.9038 14.423 14.7284C14.6036 14.8825 14.7736 14.9835 14.9384 15.0419C15.1031 15.0951 15.2944 15.1269 15.5069 15.1269C15.8045 15.1269 16.1923 15.0525 16.6652 14.8985C17.2763 14.7019 17.6429 14.5903 17.7598 14.569C17.7758 14.6275 17.8289 14.7709 17.9139 15.0047C17.9671 15.1482 18.0149 15.2917 18.068 15.4245C18.2062 15.6477 18.3549 15.8177 18.5197 15.9452C18.6844 16.0727 18.8757 16.1365 19.0882 16.1365C19.1626 16.1365 19.221 16.1365 19.2529 16.1259C19.6249 15.8868 19.9012 15.5467 20.0818 15.1057C20.2359 14.7231 20.3103 14.2821 20.3103 13.7773V13.7614ZM10.5282 12.077C10.4325 12.1036 10.3581 12.0876 10.2997 12.0239C10.2412 11.9601 10.204 11.8857 10.1828 11.7794C10.1828 11.5935 10.2094 11.4075 10.2678 11.2321C10.3209 11.0515 10.4006 10.8815 10.5016 10.7221C10.491 10.738 10.4697 10.8336 10.4272 11.0037C10.3847 11.1737 10.3634 11.2959 10.3634 11.3756C10.3634 11.5297 10.4113 11.6519 10.5016 11.7476C10.56 11.7741 10.6185 11.7582 10.6663 11.7104C10.7194 11.636 10.7513 11.5828 10.7673 11.5563C10.7566 11.5244 10.7673 11.4925 10.7779 11.4659C10.7938 11.4394 10.8098 11.4234 10.8151 11.4128C10.8151 11.5669 10.7938 11.6997 10.7513 11.8166C10.7088 11.9335 10.6344 12.0185 10.5228 12.077H10.5282ZM13.9182 16.3118C13.8172 16.5775 13.7588 16.7263 13.7375 16.7582C13.6419 16.9176 13.5197 17.0026 13.3656 17.0026C13.2699 16.976 13.1371 17.0132 12.9617 17.1089C12.7864 17.2045 12.6695 17.2576 12.6111 17.2576C12.542 17.2576 12.4888 17.2364 12.4516 17.1992C12.4145 17.162 12.3719 17.077 12.3294 16.9495C12.0319 16.9495 11.6971 17.0717 11.3199 17.3214C10.8363 17.6455 10.5228 17.8262 10.3741 17.8687C10.0499 18.0069 9.80553 18.1025 9.6355 18.1609C9.34857 18.2725 9.09352 18.3416 8.87035 18.3788C9.15728 18.2672 9.51328 18.1025 9.92774 17.8793C10.0818 17.8049 10.4485 17.603 11.0223 17.2789C11.2774 17.1195 11.5377 16.9548 11.7981 16.7954C11.9787 16.6997 12.1647 16.636 12.3613 16.6041C12.4357 16.6041 12.5314 16.6572 12.6429 16.7582C12.7545 16.8591 12.8342 16.9123 12.8874 16.9123C12.9564 16.9123 13.0202 16.8379 13.0786 16.6944C13.1052 16.5935 13.153 16.5191 13.2168 16.4766C13.2434 16.4925 13.2487 16.5244 13.2434 16.5669C13.2327 16.6094 13.2115 16.6625 13.169 16.7316C13.3231 16.7476 13.4612 16.721 13.5887 16.6413C13.6312 16.6253 13.6791 16.5669 13.7375 16.4713C13.7906 16.3756 13.8491 16.3225 13.9075 16.3118H13.9182ZM4.31668 6.88571C4.27418 6.97072 4.25292 7.02386 4.25292 7.05043C4.19979 7.06105 4.14134 7.05042 4.06695 7.01323C3.99256 6.98135 3.95005 6.96009 3.93411 6.96009C3.90223 6.96009 3.85972 6.97072 3.81722 6.99729C3.67375 7.16732 3.57279 7.44894 3.52497 7.83683C3.47184 8.23003 3.42933 8.46382 3.39745 8.54884C3.58342 8.59134 3.75345 8.67635 3.90755 8.80387C4.02444 8.92077 4.11477 9.00579 4.17322 9.05893C4.13071 9.2449 3.90755 9.37242 3.50372 9.4415C3.09989 9.51057 2.85547 9.65404 2.77046 9.87721C2.94049 10.738 3.11583 11.5882 3.29118 12.4383C3.29118 12.6668 3.27524 12.874 3.24867 13.0547C3.21679 13.2353 3.16366 13.4213 3.08927 13.6073C3.12115 13.5116 3.14772 13.4054 3.16366 13.2885C3.1796 13.1716 3.19022 13.0494 3.19022 12.9325V12.7518C3.17428 12.6668 3.16366 12.6084 3.16366 12.5712C2.99362 11.7529 2.82891 10.9399 2.66419 10.1216C2.66419 10.0047 2.66419 9.89315 2.67481 9.79751C2.68544 9.70187 2.7067 9.60091 2.73858 9.49996C2.83422 9.3618 2.96174 9.26084 3.13177 9.19176C3.35494 9.12269 3.50903 9.07486 3.60468 9.05361C3.5728 9.02704 3.53029 9.00048 3.48778 8.97923C3.40276 8.92609 3.32306 8.90483 3.24336 8.90483C3.15834 8.90483 3.08927 8.93141 3.04145 8.97923C2.98831 9.01111 2.9458 9.0483 2.90329 9.08018C2.89267 8.97923 2.92455 8.87296 2.99894 8.76137C3.07333 8.64979 3.16366 8.58071 3.27524 8.54352C3.2221 8.46913 3.11583 8.25127 2.9458 7.89527C2.87141 7.73586 2.79171 7.59772 2.71732 7.48614L2.57917 7.70399C2.356 7.65086 2.24973 7.5127 2.24973 7.28422C2.24973 7.18858 2.28162 7.10356 2.34006 7.01855C2.356 6.96541 2.39851 6.93353 2.46759 6.91759C2.53666 6.90165 2.5898 6.89634 2.63231 6.90697C2.77046 7.05043 2.89798 7.24702 3.0255 7.49144C3.12646 7.69335 3.22742 7.90059 3.33369 8.1025C3.4187 7.73587 3.47715 7.46488 3.51435 7.28422C3.58874 6.95478 3.7322 6.721 3.93411 6.59347C4.06164 6.62004 4.16791 6.6466 4.25292 6.66785C4.33794 6.69442 4.35919 6.7635 4.31668 6.86977V6.88571ZM5.31031 12.6137C5.34219 12.6987 5.34219 12.7943 5.29968 12.8953C5.28905 12.9218 5.23592 13.0122 5.13496 13.1769C5.06057 13.1928 5.00213 13.1769 4.96493 13.1397C4.92774 13.0972 4.88523 13.0228 4.84272 12.9218C4.84272 12.5393 4.92774 12.178 5.09777 11.8379C5.09777 11.8963 5.08183 12.0026 5.04463 12.1567C5.01275 12.3108 4.9915 12.4224 4.9915 12.5021C4.9915 12.6721 5.05526 12.789 5.18278 12.8581L5.31031 12.6137ZM6.94155 16.7848C6.95218 16.8804 6.9203 16.992 6.85654 17.1248C6.79277 17.2576 6.70776 17.3586 6.6068 17.4383C6.53241 17.4542 6.46865 17.4277 6.41552 17.348C6.37301 17.2523 6.34113 17.1886 6.32519 17.1567C6.32519 16.8166 6.42614 16.4872 6.63337 16.1737C6.60149 16.2906 6.56961 16.3969 6.54835 16.4819C6.5271 16.5669 6.51647 16.6572 6.51647 16.7476C6.51647 16.8857 6.55367 17.0026 6.63337 17.1036C6.70776 17.1036 6.77152 17.0664 6.81403 16.9973C6.85654 16.9229 6.89904 16.8538 6.94155 16.7848ZM19.8587 14.9091C19.7152 15.0632 19.5399 15.1376 19.3379 15.1376C19.2848 15.1376 19.221 15.1269 19.136 15.111C18.9926 15.0685 18.8491 14.9675 18.7003 14.8028C18.5887 14.6859 18.4931 14.5371 18.4081 14.3671C18.4612 14.3565 18.5515 14.3405 18.6897 14.314C18.8278 14.2874 18.9607 14.2768 19.0988 14.2768C19.1732 14.2768 19.2742 14.2874 19.3964 14.3087C19.5186 14.3299 19.6302 14.3777 19.7205 14.4574C19.7949 14.569 19.8427 14.654 19.8587 14.7125C19.8746 14.7709 19.8746 14.8347 19.8587 14.9038V14.9091Z" fill="white"/>
</svg>
