<svg width="24" height="24" viewBox="0 0 24 24" fill="none" xmlns="http://www.w3.org/2000/svg">
<path fill-rule="evenodd" clip-rule="evenodd" d="M22 13.4983C22 14.0652 21.9865 14.4927 21.955 14.7717C21.9055 15.2306 21.802 15.6176 21.64 15.928L21.703 14.4612L20.4612 8.15298C20.4972 8.08999 20.4882 8.009 20.4297 7.91901C20.3712 7.82902 20.3442 7.76603 20.3442 7.73004C20.3802 7.68054 20.4387 7.56356 20.5242 7.38358C20.6052 7.2036 20.6817 7.08662 20.7447 7.02812C20.8076 7.1856 20.9336 7.44657 21.1226 7.80653C21.4241 8.38245 21.5905 8.8324 21.6175 9.15636L21.1541 8.67942L21.0911 8.7964L22 13.4938V13.4983ZM16.1237 8.64792C16.0877 8.70642 16.0562 8.75591 16.0337 8.7919C16.0067 8.8324 15.9753 8.8594 15.9303 8.87289C15.8718 8.87289 15.8223 8.8324 15.7773 8.74691C15.7323 8.66592 15.7053 8.60293 15.6918 8.56693C15.6783 8.46795 15.6693 8.38245 15.6693 8.31946C15.6693 8.08099 15.7323 7.90551 15.8538 7.78853C15.8538 7.85152 15.8538 7.92351 15.8448 7.9955C15.8358 8.06749 15.8313 8.13498 15.8223 8.20248C15.8223 8.28797 15.8358 8.35546 15.8583 8.40945C15.8853 8.45894 15.9303 8.49944 16.0022 8.52644L16.1012 8.36446C16.1507 8.37345 16.1777 8.40495 16.1777 8.46344C16.1507 8.55793 16.1327 8.61643 16.1237 8.64792ZM15.4128 6.67267L15.2283 6.91114C14.9314 7.03262 14.2115 7.29359 13.0686 7.68954C12.5917 7.85602 12.1597 8.018 11.7728 8.17548C11.7503 8.10349 11.7818 8.027 11.8583 7.95051C11.8943 7.91451 11.9438 7.87852 12.0112 7.84252C12.4702 7.72104 13.0461 7.53206 13.73 7.28009C14.6884 6.92914 15.2508 6.72666 15.4128 6.67717V6.67267ZM14.3105 7.88302C14.2475 7.94151 14.2115 8.0135 14.2115 8.09899C14.2115 8.15748 14.2205 8.23847 14.234 8.34646C14.234 8.42745 14.216 8.48594 14.18 8.53094C14.036 8.53094 13.964 8.47245 13.964 8.35996C13.973 8.31047 13.9775 8.26097 13.9865 8.20698C13.9955 8.15748 13.9955 8.10799 13.9955 8.054C13.9955 7.97301 13.9775 7.91901 13.9415 7.88302C13.892 7.94601 13.8605 8.0225 13.8425 8.10799V8.50844C13.7975 8.57143 13.757 8.62092 13.712 8.65242C13.667 8.68392 13.6175 8.69292 13.5591 8.67942C13.4736 8.61643 13.4286 8.52194 13.4286 8.40045C13.4511 8.25647 13.4736 8.10799 13.5051 7.95951C13.4106 8.018 13.3521 8.10349 13.3206 8.22047C13.2981 8.40945 13.2801 8.59393 13.2666 8.7829C13.2801 8.8414 13.3161 8.89089 13.3746 8.93589C13.4331 8.98088 13.4916 8.99888 13.5591 8.99888C13.64 8.98988 13.703 8.95838 13.748 8.89989C13.793 8.8414 13.8425 8.78291 13.892 8.72891C13.919 8.77841 13.946 8.8099 13.973 8.8144C14 8.8234 14.063 8.8234 14.171 8.8234C14.306 8.69292 14.378 8.52644 14.378 8.31496C14.378 8.19348 14.351 8.0495 14.3015 7.88302H14.3105ZM16.3847 9.91226C16.4117 9.99775 16.3937 10.0832 16.3217 10.1597C16.2947 10.1597 16.2452 10.1417 16.1822 10.1102C16.1192 10.0787 16.0607 10.0697 16.0112 10.0832C15.9483 10.2182 15.8988 10.4477 15.8718 10.7672C15.8448 11.0866 15.8043 11.3206 15.7548 11.4646C15.6738 11.3836 15.5838 11.2306 15.4803 11.0056C15.3768 10.7807 15.2733 10.6142 15.1744 10.5152C15.1519 10.5602 15.1114 10.5692 15.0574 10.5512C14.9989 10.5332 14.9629 10.5287 14.9494 10.5332C14.8549 10.4972 14.8099 10.4117 14.8099 10.2722C14.8234 10.1867 14.8369 10.1192 14.8414 10.0787C14.8774 9.98426 14.9089 9.92576 14.9404 9.89427C14.9719 9.86277 15.0034 9.85377 15.0484 9.86277C15.1699 9.99325 15.2868 10.1552 15.3948 10.3487C15.4803 10.5287 15.5703 10.7042 15.6648 10.8796C15.6918 10.8167 15.7278 10.6277 15.7728 10.3217C15.8178 10.0157 15.9078 9.81778 16.0427 9.72329C16.1597 9.75028 16.2407 9.77728 16.2857 9.79528C16.3307 9.81328 16.3712 9.84927 16.3982 9.90776L16.3847 9.91226ZM16.5917 13.0124C16.6052 13.1294 16.6007 13.2283 16.5692 13.3138C16.5422 13.3993 16.4792 13.4713 16.3847 13.5298C16.2677 13.5028 16.1822 13.4353 16.1237 13.3363C16.1237 12.9674 16.1957 12.6434 16.3397 12.3645C16.3622 12.3915 16.3712 12.4409 16.3712 12.5039C16.3712 12.5489 16.3532 12.6209 16.3172 12.7289C16.2812 12.8369 16.2632 12.9179 16.2632 12.9674C16.2632 13.0619 16.3127 13.1339 16.4162 13.1834C16.4297 13.1744 16.4612 13.1204 16.5152 13.0124H16.5917ZM11.1699 7.64455C11.1339 7.67154 11.0844 7.68954 11.0169 7.68954C10.9584 7.68954 10.8954 7.68054 10.8234 7.66705L10.8009 7.64455C10.7739 7.71654 10.7154 7.76153 10.6299 7.77953C10.5444 7.79753 10.4859 7.80653 10.4589 7.80653C10.4094 7.77053 10.3735 7.71654 10.351 7.64905C10.3285 7.58156 10.3195 7.51406 10.3195 7.45107V7.34309C10.333 7.29359 10.342 7.2576 10.342 7.2351C10.3645 7.1991 10.387 7.15861 10.4184 7.11811C10.4319 7.2126 10.4454 7.29359 10.4544 7.36108C10.4634 7.42858 10.4994 7.48707 10.5579 7.52756C10.6884 7.52756 10.7514 7.47357 10.7514 7.36558C10.7379 7.2486 10.7289 7.16311 10.7289 7.10461C10.7289 7.01013 10.7604 6.94713 10.8279 6.91114C10.8549 6.93364 10.8729 6.99213 10.8729 7.09561C10.8639 7.1901 10.8639 7.25759 10.8639 7.30259C10.8639 7.40158 10.8909 7.45557 10.9494 7.45557C10.9764 7.45557 11.0304 7.43757 11.1024 7.40158C11.0889 7.35208 11.0799 7.30709 11.0754 7.27109C11.0754 7.2351 11.0709 7.1901 11.0709 7.14061C11.0709 7.04612 11.0979 6.96963 11.1474 6.91564C11.2193 7.04612 11.2553 7.19011 11.2553 7.34759C11.2553 7.39708 11.2508 7.44657 11.2373 7.50056C11.2283 7.55006 11.2058 7.59955 11.1789 7.65354L11.1699 7.64455ZM20.8976 14.0247C20.8121 13.8718 20.7177 13.7728 20.6187 13.7188C20.5197 13.6648 20.3892 13.6378 20.2317 13.6378C19.8133 13.7323 19.3948 13.8223 18.9809 13.9078C18.8594 13.5478 18.7154 12.9899 18.5489 12.234C18.4184 11.667 18.342 11.3296 18.324 11.2306L19.6198 10.0427C19.7638 10.0652 19.8673 9.99775 19.9348 9.84927C19.8853 9.79978 19.8583 9.73229 19.8583 9.6558C19.8583 9.6108 19.8718 9.54331 19.9033 9.44882C19.9303 9.35433 19.9483 9.28234 19.9483 9.23285C19.9483 9.16986 19.9348 9.10687 19.9033 9.04837C19.9033 8.96288 19.8628 8.89989 19.7773 8.85939C19.6963 8.8189 19.6063 8.8054 19.5118 8.8234C19.4173 8.8684 19.3363 8.91789 19.2688 8.98088C19.2013 9.04387 19.1564 9.10687 19.1339 9.17886C19.1114 9.25085 19.1024 9.30034 19.1024 9.33184C19.1024 9.41733 19.1744 9.51631 19.3183 9.6243C19.4623 9.73229 19.5433 9.82227 19.5658 9.89427C19.3723 10.1012 19.1609 10.2947 18.9404 10.4657C18.8234 10.5512 18.6074 10.7087 18.2835 10.9291C18.1845 10.4972 18.0855 10.0652 17.991 9.6333C17.874 9.12036 17.82 8.68842 17.82 8.33746C17.8335 8.35096 17.9235 8.45445 18.09 8.63892C18.126 8.68392 18.171 8.72891 18.2295 8.7784C18.2295 8.51744 18.126 8.20698 17.9145 7.83802C17.6175 7.32059 17.4556 7.01912 17.4196 6.92914C17.3116 6.98763 17.2216 7.09112 17.1496 7.2441C17.1001 7.37908 17.0506 7.51406 16.9966 7.64455C17.2756 8.8459 17.5636 10.0472 17.8515 11.2531L16.9111 11.901C16.9966 11.8875 17.2081 11.7975 17.5366 11.631C17.6715 11.5591 17.793 11.5186 17.892 11.5141C17.991 11.955 18.0945 12.3915 18.1935 12.8324C18.2925 13.2733 18.3825 13.7053 18.4634 14.1282C18.297 14.1777 18.0225 14.2722 17.6445 14.4072C17.0551 14.5962 16.5602 14.6862 16.1642 14.6862C15.9213 14.6862 15.6873 14.6502 15.4668 14.5827C15.2463 14.5152 15.0484 14.4027 14.8684 14.2542C14.6299 13.9078 14.4094 13.5118 14.2115 13.0664C14.1305 12.8954 13.9685 12.4769 13.7165 11.8155C13.5141 11.2891 13.3341 10.8751 13.1766 10.5737C12.9516 10.1417 12.6997 9.76378 12.4117 9.43982V9.44882C12.4117 9.44882 12.3712 9.46682 12.3577 9.45782C12.2632 9.6153 12.2182 9.76828 12.2182 9.91226C12.2182 10.1012 12.2992 10.3172 12.4567 10.5602C12.5422 10.6952 12.6817 10.8931 12.8661 11.1541C13.0191 11.4556 13.1721 11.7705 13.3341 12.099C13.4961 12.4274 13.5771 12.7289 13.5771 13.0124C13.5771 13.0619 13.5681 13.1474 13.5546 13.2598C13.1586 13.9708 12.6592 14.5647 12.0517 15.0416C11.3678 15.5816 10.6659 15.8515 9.94601 15.8515C9.81102 15.721 9.73903 15.5681 9.73903 15.3881C9.73903 15.2666 9.79303 15.0461 9.90551 14.7357C10.018 14.4207 10.0675 14.1867 10.0495 14.0292C9.964 14.2452 9.87852 14.4612 9.78853 14.6772C9.59955 15.1541 9.50956 15.5321 9.50956 15.82C9.50956 15.9775 9.53656 16.135 9.59505 16.288C9.65354 16.4409 9.73903 16.5759 9.85602 16.6929C9.90551 16.7019 9.9865 16.7154 10.099 16.7379C10.2115 16.7604 10.3105 16.7694 10.396 16.7694C10.5399 16.7694 10.6614 16.7424 10.7649 16.6929C11.5433 16.3825 12.2137 15.937 12.7717 15.3521C13.4286 14.6772 13.7525 13.9708 13.7525 13.2373C13.8605 13.5388 13.9775 13.8538 14.1035 14.1777C14.2295 14.5017 14.387 14.7672 14.5804 14.9786C14.7694 15.1856 14.9854 15.3386 15.2238 15.4331C15.4623 15.5276 15.7188 15.5726 15.9888 15.5726C16.0832 15.5726 16.1777 15.5681 16.2812 15.5546C16.3802 15.5456 16.4882 15.5276 16.6052 15.5051C16.9201 15.4556 17.3656 15.3251 17.9325 15.1181C18.1755 15.0326 18.4229 14.9471 18.6659 14.8571C18.7514 15.0506 18.8504 15.2441 18.9629 15.4331C19.0754 15.622 19.1924 15.7795 19.3138 15.901C19.4083 15.973 19.5028 16.027 19.6063 16.0675C19.7053 16.108 19.8088 16.126 19.9078 16.126C19.9888 16.126 20.0472 16.117 20.0922 16.1035C20.3532 15.8065 20.5512 15.4871 20.6907 15.1361C20.8301 14.7852 20.9021 14.4162 20.9021 14.0202L20.8976 14.0247ZM10.261 8.07649C10.18 8.24747 10.108 8.39595 10.036 8.51744C10.009 8.57593 9.94601 8.66142 9.85152 8.7784L9.2036 8.46344C9.30259 8.18898 9.45107 7.94601 9.64455 7.73004C9.82452 7.81553 9.92801 7.86502 9.9595 7.88302C10.045 7.92801 10.1485 7.991 10.261 8.07649ZM11.0934 8.8234L10.6164 9.50281C10.4139 9.41732 10.261 9.34983 10.153 9.30484C10.045 9.25985 9.94601 9.21035 9.85152 9.16086C9.81552 9.19685 9.73903 9.31834 9.62655 9.52981C9.54106 9.68729 9.44207 9.76828 9.33408 9.76828C9.27559 9.76828 9.23509 9.75928 9.2036 9.74578L8.71766 9.56131C8.80315 9.33634 8.85264 9.21035 8.87064 9.18335C8.94263 9.03037 9.02812 8.92239 9.13161 8.8504L9.85602 9.07537L10.3195 8.47245C10.5129 8.53094 10.6614 8.58043 10.7694 8.62542C10.8729 8.67042 10.9854 8.73791 11.0979 8.8324L11.0934 8.8234ZM18.4904 16.0135C18.4994 16.072 18.4814 16.135 18.4409 16.2025C18.4004 16.27 18.3645 16.3375 18.3285 16.4005C18.27 16.4229 18.2205 16.4319 18.1755 16.4319C18.1125 16.4319 18.045 16.4184 17.982 16.387C17.919 16.36 17.8605 16.324 17.811 16.279C17.5501 16.6119 17.1496 16.8504 16.6007 17.0034C16.1192 17.1114 15.6378 17.2193 15.1654 17.3273C15.3678 17.2463 15.6828 17.1294 16.1147 16.9719C16.8076 16.7199 17.3251 16.4949 17.6715 16.3015C17.685 16.1845 17.7525 16.054 17.8785 15.901C18 15.748 18.117 15.676 18.225 15.676C18.3555 15.676 18.4454 15.7885 18.4949 16.009L18.4904 16.0135ZM10.144 10.7132C10.1575 10.7492 10.1665 10.7987 10.1665 10.8661C10.1665 10.9876 10.1215 11.1046 10.027 11.2126C9.982 11.2486 9.93701 11.2846 9.89201 11.3206C9.84702 11.3566 9.79303 11.3656 9.73453 11.3431C9.65354 11.2126 9.61755 11.0686 9.61755 10.9111C9.61755 10.7537 9.64904 10.5872 9.71654 10.3982C9.77953 10.2092 9.84702 10.0248 9.91001 9.85377C9.92351 9.88077 9.93251 9.92576 9.93251 9.98425C9.93251 10.0697 9.91901 10.1597 9.88751 10.2542C9.80202 10.5332 9.75703 10.6952 9.75703 10.7312C9.75703 10.8661 9.82452 10.9561 9.964 10.9921C9.9865 10.9696 10.0135 10.9246 10.045 10.8526C10.0765 10.7807 10.1125 10.7357 10.1485 10.7222L10.144 10.7132ZM7.74578 8.55343C7.76828 8.63442 7.75928 8.72441 7.71879 8.8324C7.67829 8.94038 7.6288 9.02587 7.5613 9.09337C7.48931 9.11586 7.43082 9.10237 7.38133 9.06187C7.33633 9.01688 7.29134 8.95838 7.25534 8.87739C7.23285 8.7919 7.22385 8.70642 7.22385 8.61643C7.22385 8.47244 7.25084 8.32846 7.30034 8.18448C7.32733 8.10349 7.39033 7.97751 7.48481 7.79753C7.44882 7.93251 7.42182 8.0495 7.39933 8.14849C7.37683 8.24747 7.36783 8.33746 7.36783 8.42295C7.36783 8.51744 7.38583 8.60743 7.41732 8.69292C7.44882 8.77841 7.51181 8.8144 7.6063 8.8009L7.74578 8.55343ZM12.3262 13.1654C12.3262 13.3678 12.2452 13.5478 12.0877 13.7053C11.9663 13.7278 11.8853 13.6603 11.8493 13.4983C11.8223 13.4173 11.8043 13.3318 11.8043 13.2373C11.8043 13.1024 11.8493 12.9314 11.9393 12.7289C12.0292 12.5264 12.0787 12.4185 12.0832 12.405C12.0697 12.4634 12.0382 12.5669 11.9978 12.7109C11.9528 12.8594 11.9348 12.9719 11.9348 13.0529C11.9348 13.1969 11.9843 13.3138 12.0877 13.4083C12.1507 13.4173 12.2047 13.3813 12.2407 13.3003C12.2767 13.2193 12.3037 13.1744 12.3262 13.1609V13.1654ZM5.67604 7.62655L5.59955 7.86502L5.30709 7.73453C5.2351 7.86502 5.1856 8.08999 5.15411 8.41395C5.12711 8.73791 5.07312 8.95838 4.99213 9.07087C4.93363 9.00788 4.86614 8.8549 4.78515 8.61643C4.66367 8.24747 4.47019 8.07649 4.21372 8.09899C4.17773 8.0405 4.15973 7.982 4.15973 7.91451C4.15973 7.79753 4.19573 7.69404 4.26772 7.59955C4.29021 7.57256 4.34421 7.57705 4.4297 7.62205C4.53768 7.70304 4.62767 7.81103 4.69966 7.94601C4.79865 8.17098 4.90664 8.38695 5.01462 8.60293C5.05962 8.32396 5.09561 8.08549 5.12711 7.89651C5.15861 7.70754 5.2261 7.54556 5.32508 7.41507C5.45557 7.43757 5.56805 7.50506 5.67154 7.62205L5.67604 7.62655ZM7.04837 11.8065C7.05737 11.892 7.04387 11.9775 7.01237 12.054C6.98088 12.135 6.92688 12.2385 6.85489 12.369C6.74691 12.342 6.66142 12.3015 6.59393 12.252C6.49944 12.18 6.46344 12.09 6.48594 11.982C6.48594 11.766 6.52193 11.5411 6.58943 11.3071C6.65692 11.0731 6.7919 10.7987 6.99438 10.4792C6.99438 10.6007 6.94038 10.7942 6.8324 11.0506C6.72441 11.3116 6.67042 11.5006 6.67042 11.6221C6.67042 11.7885 6.74691 11.9325 6.89539 12.054C6.91789 12.0315 6.94038 11.991 6.95838 11.9235C6.98088 11.8605 7.00787 11.82 7.04387 11.8065H7.04837ZM5.56805 9.56131C5.51856 9.71879 5.33408 9.82228 5.01012 9.86727C4.69066 9.91226 4.48369 10.0113 4.3892 10.1642C4.3892 10.4252 4.4342 10.7312 4.52868 11.0866C4.62317 11.4421 4.71316 11.784 4.79865 12.108C4.82565 12.2385 4.85264 12.387 4.87514 12.5579C4.89764 12.7289 4.90664 12.8819 4.90664 13.0169C4.90664 13.3858 4.83015 13.7323 4.68166 14.0652C4.77615 13.8133 4.82115 13.5568 4.82115 13.3003C4.82115 13.1429 4.80765 12.9899 4.78515 12.8459C4.75816 12.7019 4.69066 12.4139 4.57368 11.982C4.45219 11.613 4.3757 11.3656 4.34871 11.2351C4.28571 10.9696 4.24972 10.7132 4.24972 10.4702C4.24972 10.2677 4.27672 10.0787 4.32621 9.89877C4.4207 9.79978 4.54668 9.71879 4.70416 9.6603C4.77615 9.6333 4.91564 9.5928 5.12711 9.54331C5.04612 9.48032 4.95613 9.44432 4.84814 9.44432C4.78965 9.44432 4.74466 9.46232 4.70866 9.49382C4.67267 9.52531 4.64117 9.55681 4.60967 9.5838C4.60967 9.50281 4.62767 9.42183 4.66367 9.33634C4.69966 9.25085 4.74016 9.19685 4.78965 9.17436C4.83465 9.15186 4.87514 9.14286 4.90214 9.14286H4.96513C5.08211 9.14286 5.1946 9.18786 5.31159 9.27334C5.39708 9.33634 5.48256 9.43532 5.57255 9.5658L5.56805 9.56131ZM9.40158 14.8616C9.32059 15.0146 9.2171 15.1451 9.08661 15.2621C8.99213 15.3431 8.84364 15.4466 8.64567 15.5771C8.32171 15.757 8.00225 15.937 7.68279 16.117C7.66029 16.0675 7.66929 16.009 7.70979 15.937C7.75028 15.8695 7.80427 15.829 7.87627 15.811L9.39707 14.8616H9.40158ZM11.4848 11.6131C11.4578 11.892 11.3768 12.162 11.2463 12.423C11.1474 12.6164 10.9899 12.8459 10.7829 13.1024C10.7739 13.0214 10.8009 12.9089 10.8639 12.7559C10.9269 12.6029 10.9539 12.5039 10.9539 12.4544C10.9539 12.369 10.9134 12.288 10.8369 12.216C10.6704 12.2745 10.4544 12.378 10.189 12.5309C10.0675 12.5939 9.93701 12.6659 9.80202 12.7469C9.52756 12.9044 9.31609 13.0124 9.1721 13.0709C9.02362 13.1294 8.87514 13.1699 8.72216 13.1879C8.69516 13.5253 8.60517 13.8403 8.45219 14.1282C8.20922 14.5332 7.82677 14.9111 7.30934 15.2711C6.94938 15.5231 6.43645 15.802 5.76603 16.1125C5.24859 16.351 4.73116 16.5894 4.22272 16.8234C3.48031 16.9674 2.73791 17.1114 2 17.2553C2.34646 17.0889 3.05287 16.7604 4.12823 16.261C5.07762 15.82 5.79303 15.4781 6.26547 15.2261C7.02137 14.8166 7.69629 14.3892 8.29471 13.9393C8.29471 13.7683 8.25872 13.5748 8.18223 13.3633C8.10574 13.1519 8.03375 12.9449 7.96176 12.7424C7.91226 12.5624 7.88526 12.4185 7.88526 12.3105C7.88526 12.0495 8.01125 11.829 8.26322 11.64C8.29921 11.793 8.33971 11.937 8.3802 12.081C8.44319 12.252 8.56918 12.342 8.74916 12.342C9.2081 12.342 9.71204 12.1935 10.252 11.901C10.5264 11.748 10.8009 11.5951 11.0709 11.4376C11.1699 11.4376 11.2598 11.4466 11.3408 11.4691C11.4218 11.4916 11.4713 11.5366 11.4938 11.6086L11.4848 11.6131ZM19.7368 9.5838L19.3498 9.21485C19.3948 9.16536 19.4443 9.13836 19.5028 9.13836C19.5658 9.13836 19.6243 9.17435 19.6738 9.24635C19.7233 9.31834 19.7458 9.39933 19.7368 9.48482V9.5838ZM20.4837 15.1361C20.5062 15.0776 20.5152 15.0281 20.5152 14.9831C20.5152 14.9201 20.5062 14.8616 20.4837 14.8122C20.4612 14.7627 20.4207 14.6952 20.3532 14.6187C20.2452 14.5107 20.0922 14.4567 19.8988 14.4567C19.8043 14.4567 19.7053 14.4657 19.6018 14.4882C19.4983 14.5107 19.3993 14.5332 19.3048 14.5512C19.3048 14.6817 19.3723 14.8167 19.5118 14.9606C19.6468 15.1046 19.7908 15.2036 19.9348 15.2531C20.0337 15.2666 20.1102 15.2756 20.1597 15.2756C20.3127 15.2756 20.4207 15.2306 20.4837 15.1361ZM18.225 16.117C18.198 16.1305 18.162 16.1305 18.1215 16.1125C18.081 16.0945 18.036 16.063 17.9865 16.0225L18.018 15.9595C18.045 15.9505 18.09 15.9685 18.1485 16.0135L18.225 16.1215V16.117Z" fill="white"/>
</svg>
