<svg width="24" height="24" viewBox="0 0 24 24" fill="none" xmlns="http://www.w3.org/2000/svg">
<path fill-rule="evenodd" clip-rule="evenodd" d="M20.3519 7.44355L20.2988 7.49672C20.2562 7.47013 20.2137 7.43823 20.1765 7.40102C20.1393 7.3638 20.1021 7.32128 20.0702 7.27874C19.7565 7.80506 19.2142 8.29416 18.4487 8.74605C18.0766 8.96933 17.6991 9.1873 17.327 9.41059C18.1935 8.68757 19.0654 7.95924 19.9426 7.2309C19.9107 7.18837 19.8203 7.12989 19.6821 7.05015C19.5439 6.97572 19.4535 6.88534 19.4216 6.78433C19.4535 6.63016 19.5279 6.48661 19.6449 6.35902C19.7618 6.22612 19.8894 6.14105 20.033 6.09852C20.0861 6.09852 20.134 6.11979 20.1871 6.16764C20.2403 6.21548 20.2775 6.26865 20.3041 6.32713C20.2935 6.36966 20.2935 6.43345 20.2935 6.51851C20.2935 6.59294 20.3147 6.74712 20.3573 6.97572C20.3732 7.07141 20.3838 7.15647 20.3838 7.24153C20.3838 7.27343 20.3732 7.34254 20.3573 7.44355H20.3519ZM18.0181 7.35317C18.0181 7.35317 17.9755 7.40634 17.949 7.45418C17.9171 7.50735 17.8852 7.52861 17.8533 7.52861C17.7682 7.45418 17.7257 7.34785 17.7257 7.20963C17.7257 7.12457 17.7416 7.01293 17.7682 6.86939C17.8001 6.73116 17.8107 6.65673 17.8107 6.6461C17.7363 6.82686 17.6778 6.98103 17.6406 7.11925C17.6034 7.25748 17.5821 7.40633 17.5821 7.56582C17.5981 7.63493 17.6247 7.70405 17.6672 7.77848C17.7044 7.85291 17.7788 7.87418 17.8905 7.84759C17.9436 7.7519 17.9755 7.66683 17.9968 7.59241C18.0181 7.51798 18.0234 7.43292 18.0181 7.34786V7.35317ZM16.4232 6.20485C16.3913 6.33244 16.37 6.45472 16.37 6.57699V6.73116C16.37 6.81623 16.3647 6.89065 16.3487 6.95445C16.3381 7.01824 16.3062 7.09267 16.2637 7.17773C16.2052 7.1352 16.1574 7.11394 16.1255 7.11394C16.067 7.11394 15.9872 7.18305 15.8915 7.32659C15.7959 7.46481 15.7055 7.54988 15.631 7.57646C15.3599 7.77848 15.0888 7.9805 14.8283 8.1772C14.4987 8.40581 14.2701 8.49618 14.1531 8.44302C14.8868 7.92202 15.2695 7.64557 15.3121 7.61368C15.5673 7.41166 15.7746 7.199 15.9394 6.98635C15.8437 6.91723 15.7799 6.86939 15.7374 6.83218C15.6523 6.76306 15.5991 6.68863 15.5832 6.60357C15.6257 6.42281 15.6895 6.27396 15.7693 6.15169C15.849 6.02941 15.966 5.94967 16.1201 5.91777C16.2052 5.89119 16.2743 5.91777 16.3222 5.9922C16.3488 6.02409 16.3806 6.09852 16.4232 6.21017V6.20485ZM18.4646 10.2346C18.4646 10.3888 18.454 10.5111 18.4274 10.6068C18.4008 10.7025 18.3424 10.7769 18.2467 10.8354C18.0925 10.8354 17.9968 10.7716 17.9543 10.644C17.9436 10.6121 17.9436 10.5536 17.9436 10.4792C17.9436 10.224 18.0128 9.98476 18.1457 9.76679C18.1563 9.82527 18.1457 9.91564 18.1085 10.0326C18.0766 10.1496 18.0553 10.2293 18.0553 10.2612C18.0553 10.3728 18.1085 10.4473 18.2095 10.4898L18.4646 10.2346ZM14.1797 7.45418C14.1212 7.35317 14.0202 7.25748 13.8713 7.17242C13.7969 7.12989 13.68 7.06077 13.5258 6.9704L13.1536 7.49139C13.0845 7.56582 13.0526 7.64025 13.0526 7.70937C13.0526 7.80506 13.159 7.89544 13.3716 7.99113C13.5843 8.08682 13.7119 8.16657 13.7544 8.23568C13.8926 7.9805 14.0308 7.72 14.1744 7.4595L14.1797 7.45418ZM22 15.9762C21.9468 16.0613 21.883 16.1889 21.798 16.3537C21.7129 16.5185 21.6385 16.6514 21.5694 16.7418C21.3036 16.6142 21.0431 16.4919 20.7772 16.3697C20.7772 16.2155 20.8464 16.0454 20.9793 15.8593C21.0484 15.7636 21.1175 15.6679 21.1972 15.5669C21.4843 15.62 21.7554 15.753 22 15.9762ZM20.6709 16.2686L20.1978 17.0608C20.1021 17.0076 19.9851 16.9651 19.8469 16.9226C19.7087 16.88 19.5917 16.8641 19.5066 16.8694C19.4641 16.7312 19.496 16.5823 19.597 16.4122C19.6502 16.3165 19.7512 16.1836 19.9054 16.0028C20.0436 16.0347 20.1712 16.0773 20.2935 16.1251C20.4157 16.1729 20.5433 16.2208 20.6709 16.274V16.2686ZM21.0909 12.5153C21.1069 12.4143 21.1175 12.3399 21.1175 12.2974C21.1175 12.1272 21.0005 11.7764 20.7613 11.25C20.6603 11.0214 20.6071 10.8194 20.6071 10.6493C20.6071 10.5749 20.6071 10.5164 20.6178 10.4845C20.7347 10.5695 20.8304 10.5855 20.8995 10.5377C20.8304 10.3409 20.7347 10.1496 20.6071 9.96349C20.4795 9.77742 20.3519 9.59135 20.2243 9.39996C20.1287 9.47439 20.0383 9.64451 19.9426 9.89969C19.8841 10.0592 19.8416 10.1708 19.815 10.2293C19.9001 10.6227 20.017 11.0108 20.1712 11.4042C20.2881 11.7126 20.4583 12.0794 20.6709 12.5153C20.655 12.7014 20.5114 12.8609 20.2509 12.9885C20.0223 13.0842 19.7937 13.1692 19.5598 13.2543C19.5066 13.0523 19.3897 12.8502 19.2036 12.6535C19.0654 12.51 18.89 12.3558 18.6667 12.1963C18.4965 12.0794 18.2786 12.0156 18.0181 12.0156C17.8161 12.0156 17.6406 12.0634 17.4971 12.1538C17.3429 12.3665 17.2259 12.5897 17.1409 12.8183C17.0558 13.047 17.0133 13.2756 17.0133 13.4935C17.0133 13.7593 17.0718 13.9933 17.194 14.2059C17.4226 14.3654 17.715 14.4505 18.0766 14.4505C18.47 14.4079 18.8581 14.3601 19.2515 14.3122V14.4132C18.6401 15.0937 18.05 15.6413 17.4758 16.0613C16.806 16.5557 16.1148 16.9119 15.4078 17.1352C15.2802 17.1618 15.1526 17.1724 15.025 17.1724C14.8123 17.1724 14.6103 17.1352 14.4242 17.0555C14.2382 16.981 14.0734 16.8588 13.9405 16.6993C13.7969 16.4972 13.7225 16.2633 13.7225 15.9975C13.7225 15.7955 13.7863 15.5137 13.9139 15.1575C14.0734 14.7163 14.1637 14.4505 14.1797 14.3654C13.9139 14.8864 13.7438 15.2426 13.6693 15.4393C13.5098 15.854 13.4248 16.2421 13.4248 16.5983C13.4248 16.9544 13.5205 17.316 13.7172 17.6296C13.8448 17.7678 13.983 17.8689 14.1318 17.938C14.2807 18.0071 14.4508 18.0549 14.6369 18.0921C15.0781 18.0921 15.5407 17.9911 16.0138 17.7838C16.4125 17.6137 16.8219 17.3691 17.2366 17.0555C17.6087 16.7843 17.9809 16.4653 18.3477 16.0985C18.5922 15.854 18.9272 15.4871 19.3418 15.0034L19.698 14.1368C19.7831 14.0517 19.9001 13.972 20.0436 13.8922C20.118 13.8604 20.2562 13.7966 20.4583 13.7115C20.6603 13.6264 20.8091 13.4563 20.9102 13.2011C20.9421 13.1161 21.0058 12.8875 21.0909 12.51V12.5153ZM9.83626 7.32128C9.84689 7.41697 9.83626 7.52329 9.79904 7.65089C9.76714 7.77848 9.71398 7.8848 9.65019 7.97518C9.58639 8.06556 9.49601 8.10809 9.37374 8.10809C9.34716 8.10809 9.30994 8.09746 9.25678 8.08151C9.18767 7.93797 9.15577 7.77317 9.15577 7.59773C9.15577 7.42229 9.19298 7.22027 9.27273 6.99698C9.31526 6.88534 9.395 6.70458 9.51728 6.4494C9.44285 6.76306 9.3631 7.07673 9.28868 7.37976C9.28868 7.53393 9.33652 7.67215 9.4269 7.79974C9.55449 7.78379 9.65019 7.70937 9.70866 7.58178C9.72461 7.51267 9.74056 7.45418 9.7512 7.41165C9.76183 7.36381 9.79373 7.33191 9.83626 7.31596V7.32128ZM11.6757 9.58071C11.6917 9.68172 11.7023 9.7402 11.7023 9.76147C11.7023 9.85716 11.6598 9.89969 11.5747 9.89969C11.4471 9.87311 11.3514 9.86248 11.2929 9.86248C11.1813 9.86248 11.1122 9.93159 11.0909 10.0645C11.059 10.1496 11.0271 10.3409 10.9952 10.644C10.9633 10.947 10.8995 11.149 10.7985 11.25C10.7294 11.1543 10.6603 11.0374 10.5965 10.8938C10.4157 10.4951 10.3147 10.2772 10.2881 10.2453C10.2722 10.2984 10.235 10.3303 10.1818 10.3463C10.1287 10.3622 10.0702 10.3569 10.0117 10.3356C9.916 10.2825 9.87347 10.208 9.87347 10.107C9.87347 10.0486 9.88942 9.97943 9.92663 9.89437C9.95853 9.81463 9.9798 9.75615 9.99043 9.72426C10.0223 9.69236 10.0649 9.67109 10.118 9.67109C10.1499 9.67109 10.1924 9.68173 10.235 9.70831C10.336 9.804 10.4264 9.92627 10.5008 10.0804C10.6124 10.325 10.7241 10.5695 10.8304 10.8088C10.8729 10.7131 10.9155 10.5057 10.9633 10.1761C11.0112 9.84653 11.1334 9.62324 11.3248 9.50628C11.4949 9.50628 11.6119 9.53287 11.681 9.58071H11.6757ZM16.0138 15.333C15.9872 15.5137 15.966 15.6307 15.95 15.6892C15.9075 15.8327 15.8278 15.9337 15.7055 15.9975C15.647 16.0135 15.5885 15.9922 15.5354 15.9284C15.4822 15.8646 15.4397 15.8008 15.4131 15.7317C15.3971 15.5456 15.429 15.3542 15.5088 15.1628C15.5885 14.9715 15.6736 14.7854 15.7586 14.6099C15.7586 14.6631 15.7267 14.7694 15.6576 14.9396C15.5885 15.1097 15.5566 15.2479 15.5566 15.3489C15.5566 15.5031 15.6364 15.6041 15.8012 15.6573C15.8331 15.6307 15.8703 15.5828 15.9075 15.5084C15.9447 15.434 15.9819 15.3808 16.0138 15.3383V15.333ZM7.20999 6.66737C7.18341 6.72053 7.12493 6.7418 7.02924 6.7418C6.87507 6.7418 6.77937 6.75243 6.74216 6.77901C6.70494 6.80559 6.67836 6.86407 6.6571 6.95976C6.6571 7.18305 6.63583 7.40634 6.5933 7.63494C6.58267 7.66683 6.53482 7.89012 6.43913 8.29948C6.35407 8.21442 6.22116 8.00176 6.04572 7.66152C5.96066 7.50203 5.87028 7.36912 5.7799 7.26811C5.76395 7.32127 5.73737 7.34254 5.70548 7.34254C5.58852 7.27343 5.49814 7.24153 5.43966 7.24153C5.3865 7.17242 5.36523 7.09267 5.36523 6.99698C5.36523 6.91192 5.37586 6.84813 5.39181 6.80028C5.40776 6.75243 5.43966 6.68863 5.48219 6.60357L5.5194 6.56636C5.70548 6.66205 5.89155 6.86939 6.08293 7.199C6.26901 7.52861 6.41255 7.70937 6.50292 7.7519C6.50292 7.3957 6.52419 7.10862 6.57204 6.89597C6.61988 6.68332 6.72621 6.50256 6.89633 6.34839C6.98139 6.34839 7.06645 6.36434 7.1462 6.39092C7.22594 6.42282 7.26847 6.47066 7.26847 6.53978C7.26847 6.58231 7.25252 6.62484 7.21531 6.66737H7.20999ZM7.07177 8.8258C7.10367 8.85769 7.10898 8.92149 7.07709 9.00655C7.04519 9.09161 7.03456 9.14477 7.03456 9.17135C6.74747 9.19793 6.50292 9.22452 6.31154 9.26173C6.12015 9.29363 5.96066 9.38932 5.83307 9.54349C5.8756 9.75615 5.95003 10.0326 6.05104 10.3728C6.19458 10.8513 6.27964 11.1278 6.3009 11.2075C6.32217 11.2873 6.35407 11.4148 6.39128 11.585C6.4285 11.7551 6.44976 11.9358 6.44976 12.1219C6.44976 12.3877 6.3966 12.6589 6.29559 12.9406C6.34875 12.7599 6.37002 12.5951 6.37002 12.4409C6.37002 12.2176 6.3328 11.989 6.25306 11.7498C6.23711 11.6913 6.14673 11.4733 5.98724 11.1012C5.88623 10.8726 5.80649 10.6652 5.75864 10.4898C5.70548 10.309 5.68421 10.123 5.68421 9.92627C5.68421 9.78805 5.69484 9.67109 5.71611 9.57008C5.73737 9.46907 5.7799 9.35211 5.83838 9.22452C5.93939 9.11288 6.05104 9.03844 6.168 8.99591C6.28495 8.95338 6.45508 8.91617 6.66773 8.87895C6.57204 8.76731 6.46039 8.71415 6.32217 8.71415C6.25306 8.71415 6.17331 8.74605 6.07762 8.80453C6.01914 8.86301 5.98192 8.88959 5.97661 8.87895C5.99256 8.73541 6.02977 8.61846 6.08293 8.52808C6.1361 8.43771 6.22647 8.38986 6.34343 8.37923C6.48697 8.37923 6.61988 8.42176 6.73684 8.5015C6.8538 8.58124 6.96544 8.69289 7.06645 8.8258H7.07177ZM15.9394 12.9087C15.9394 13.148 15.8703 13.3659 15.7374 13.5733C15.5991 13.7753 15.4078 13.9348 15.1632 14.0411C14.9187 14.1474 14.6263 14.2006 14.2966 14.2006C13.8873 14.2006 13.5364 14.1155 13.2387 13.9454C13.2068 13.9029 13.1483 13.8391 13.0739 13.754C12.9995 13.669 12.9516 13.5999 12.9357 13.552C12.8666 13.7115 12.7921 13.8763 12.7124 14.0411C12.6326 14.2059 12.5104 14.3229 12.3562 14.392C12.1967 14.4611 12.0266 14.493 11.8405 14.493C11.6544 14.493 11.4631 14.4398 11.2929 14.3388C11.2079 14.3069 11.1441 14.2325 11.1069 14.1208C11.0696 14.0092 11.0377 13.9029 11.0112 13.8019C10.7294 14.1527 10.3785 14.3229 9.95322 14.3229C9.86815 14.3229 9.80436 14.3229 9.76183 14.3122C9.63424 14.695 9.50664 15.0725 9.37905 15.4499C9.19298 15.8752 8.91122 16.173 8.53907 16.3431C7.78416 16.795 7.1462 17.1299 6.6252 17.3532C5.84902 17.6828 5.15258 17.8529 4.53057 17.8529C4.17969 17.8529 3.8554 17.8104 3.55237 17.72C3.24934 17.6296 2.9463 17.4808 2.63796 17.2681C2.42531 17.082 2.26582 16.8641 2.15949 16.6248C2.05316 16.3803 2 16.1145 2 15.8274V15.6626C2.01595 15.5775 2.02658 15.519 2.02658 15.4818C2.12759 14.6631 2.39341 13.9082 2.81871 13.2118C2.7177 13.5201 2.61669 13.8178 2.51037 14.1155C2.39341 14.5143 2.32961 14.8545 2.32961 15.1363C2.32961 15.535 2.44125 15.8752 2.66986 16.1517C2.89314 16.4281 3.16959 16.6248 3.48857 16.7471C3.80755 16.8641 4.16374 16.9279 4.55183 16.9279C4.89208 16.9279 5.22701 16.8907 5.56193 16.8215C5.89155 16.7471 6.21584 16.6514 6.5295 16.5345C7.24189 16.2208 7.72568 15.9975 7.97023 15.8699C8.48059 15.5988 8.92185 15.2851 9.29931 14.9236C9.29931 14.7429 9.23551 14.4824 9.10792 14.1315C8.98033 13.7806 8.9059 13.5361 8.88995 13.3925L9.23551 12.5898C9.26741 12.7865 9.32589 12.9566 9.40563 13.1001C9.48538 13.2437 9.60766 13.3447 9.76714 13.3925C9.82031 13.4085 9.87347 13.4244 9.93195 13.4297C9.99043 13.4404 10.0489 13.4404 10.0968 13.4404C10.3679 13.4404 10.6497 13.3287 10.9367 13.1107C11.0218 13.0523 11.176 12.9194 11.3939 12.7173C11.362 12.8768 11.3301 13.0363 11.3036 13.1905C11.3036 13.3021 11.3248 13.3766 11.3674 13.4191C11.4099 13.4616 11.479 13.4935 11.5694 13.5201C11.6651 13.5786 11.782 13.6105 11.9256 13.6105C12.0106 13.6105 12.0957 13.5998 12.1808 13.5733C12.2658 13.5467 12.3615 13.5095 12.4678 13.4563C12.5742 13.4031 12.6699 13.3021 12.7549 13.148C12.9569 12.7652 13.0845 12.5579 13.1377 12.5206C13.1111 12.5738 13.1005 12.6216 13.1005 12.6748C13.1005 12.7599 13.1377 12.8449 13.2174 12.93C13.2706 12.9832 13.345 13.0416 13.446 13.1107C13.6853 13.2277 13.9617 13.2915 14.2754 13.2915C14.8389 13.2915 15.3014 13.1161 15.6683 12.7705C15.3014 12.0741 15.0675 11.6115 14.9665 11.3776C14.7273 10.8673 14.5571 10.3728 14.4561 9.89969C14.3817 9.804 14.3392 9.70831 14.3392 9.6073C14.3392 9.50629 14.3711 9.38932 14.4349 9.25642C14.4987 9.12351 14.5625 8.99592 14.6209 8.86833C14.7645 8.96402 14.908 9.1235 15.0569 9.35211C15.1579 9.53818 15.2642 9.72426 15.3759 9.89969C15.3333 9.95286 15.2642 9.98475 15.1632 10.0007C15.0675 10.0166 15.0144 10.0485 15.0144 10.0911C15.0144 10.1177 15.0356 10.1708 15.0781 10.2559C15.0781 10.2665 15.3068 10.7131 15.7693 11.6062C15.9288 11.9199 16.0138 12.207 16.0138 12.4622C16.0138 12.6004 15.9872 12.7492 15.9394 12.9194V12.9087ZM12.6752 15.7157C12.6752 15.7157 12.6007 15.8008 12.5263 15.9443C12.4519 16.0879 12.3562 16.1304 12.2392 16.0719V15.7795C12.1967 15.8114 12.1595 15.8752 12.1223 15.9603C12.0532 16.1411 11.9947 16.2474 11.9415 16.2793C11.8884 16.3112 11.8405 16.3324 11.7873 16.3324C11.6332 16.3324 11.5109 16.2686 11.4152 16.1411C11.16 16.1676 10.8942 16.258 10.6231 16.4069C10.4264 16.5238 10.1924 16.6939 9.92132 16.9066C9.56512 17.1937 9.33121 17.3798 9.21956 17.4542C8.94843 17.6509 8.69856 17.7838 8.46465 17.8635C8.7092 17.8635 8.96438 17.7944 9.21956 17.6615C9.38969 17.5658 9.61297 17.4223 9.8841 17.2256C10.2562 16.9545 10.4848 16.795 10.5593 16.7524C10.8038 16.5983 11.0431 16.4972 11.2717 16.4441C11.3461 16.5876 11.4524 16.662 11.58 16.662C11.6491 16.662 11.7608 16.6195 11.9256 16.5398C12.0851 16.46 12.202 16.4175 12.2711 16.4175C12.4147 16.375 12.5157 16.274 12.5795 16.1092C12.5795 16.0985 12.6114 15.9709 12.6699 15.7157H12.6752ZM7.44391 13.7274C7.41201 13.8019 7.38012 13.871 7.35885 13.9295C7.33759 13.9879 7.30569 14.0252 7.26316 14.0464C7.13557 13.9614 7.07177 13.8444 7.07177 13.7009C7.07177 13.6317 7.09304 13.5201 7.13025 13.3713C7.16746 13.2224 7.18341 13.1107 7.17278 13.0523C7.10367 13.2224 7.0505 13.3766 7.01329 13.5095C6.97608 13.6424 6.95481 13.7859 6.95481 13.9295C6.95481 14.0145 6.96013 14.089 6.97608 14.1528C6.98671 14.2165 7.02924 14.275 7.10367 14.3335C7.1781 14.3867 7.24721 14.392 7.31632 14.3388C7.3748 14.1953 7.41733 14.073 7.44391 13.9826C7.47049 13.8869 7.47049 13.8019 7.44391 13.7274ZM3.81818 11.8401C3.7597 11.8561 3.69591 11.9146 3.63211 12.0103C3.56831 12.106 3.51515 12.1698 3.4673 12.1963C3.41946 12.2229 3.38224 12.2336 3.34503 12.2336C3.24402 12.2336 3.14301 12.1751 3.03668 12.0528C2.93567 11.771 2.88251 11.4946 2.88251 11.2235C2.88251 10.8513 2.96225 10.4366 3.12706 9.98475C3.28655 9.53286 3.44604 9.10224 3.60021 8.6982C3.24934 9.35211 3.0101 9.86248 2.87188 10.2293C2.64327 10.8354 2.52632 11.3829 2.52632 11.8774C2.52632 12.1857 2.56885 12.4834 2.65391 12.7705C2.68581 12.8821 2.7496 12.9619 2.83998 13.0151C2.93036 13.0682 3.03668 13.1054 3.16427 13.132C3.40883 13.0629 3.57363 12.8875 3.64806 12.5951C3.69059 12.4356 3.74375 12.1804 3.81287 11.8401H3.81818ZM4.96651 13.7647C4.93461 13.8072 4.89739 13.871 4.8655 13.9614C4.8336 14.0517 4.79638 14.1155 4.76449 14.1581C4.66879 14.089 4.62626 14.0039 4.62626 13.9029C4.62626 13.8604 4.64753 13.7647 4.69537 13.6158C4.74322 13.4669 4.76449 13.3553 4.76449 13.2756C4.65284 13.5307 4.59968 13.6636 4.59968 13.669C4.5412 13.8285 4.5093 13.972 4.5093 14.089C4.5093 14.2325 4.5412 14.3548 4.61031 14.4611C4.69537 14.493 4.78044 14.4611 4.8655 14.3601C4.90803 14.2591 4.93993 14.174 4.96119 14.1102C4.98246 14.0464 4.99309 13.9826 4.99309 13.9135C4.99309 13.8444 4.98246 13.7966 4.96651 13.7593V13.7647ZM20.0861 6.82154V6.66737C20.0861 6.52915 20.0223 6.46535 19.8947 6.46535C19.7937 6.46535 19.7246 6.50788 19.6927 6.59294C19.7246 6.63547 19.7937 6.678 19.8894 6.71522C19.9851 6.75243 20.0542 6.78964 20.0861 6.82154ZM16.1946 6.60357V6.42282C16.1946 6.32181 16.1361 6.26865 16.0138 6.26865C15.9181 6.26865 15.8756 6.31117 15.8756 6.39623C15.9713 6.55041 16.0776 6.61952 16.1946 6.59826V6.60357ZM18.773 13.4404C18.6879 13.4563 18.5922 13.4723 18.4912 13.4935C18.3902 13.5095 18.2945 13.5201 18.2095 13.5201C18.0553 13.5201 17.9171 13.5042 17.7948 13.4669C17.6725 13.435 17.5609 13.3712 17.4705 13.2756C17.412 13.2011 17.4067 13.1267 17.4599 13.0576C17.513 12.9725 17.6034 12.93 17.7416 12.93C17.8161 12.93 17.9277 12.9406 18.0712 12.9566C18.3158 13.0735 18.5497 13.2383 18.773 13.4404Z" fill="white"/>
</svg>
