<svg width="24" height="24" viewBox="0 0 24 24" fill="none" xmlns="http://www.w3.org/2000/svg">
<path fill-rule="evenodd" clip-rule="evenodd" d="M21.9904 12.7997C21.9904 13.3006 21.9615 13.7342 21.9085 14.1051C21.8555 14.476 21.7399 14.8469 21.5617 15.2274C21.6002 15.0829 21.6291 14.9239 21.6435 14.7554C21.658 14.5868 21.6676 14.4182 21.6676 14.2448C21.6676 13.8498 21.6291 13.4162 21.552 12.9394C21.3593 11.7448 21.263 11.0078 21.263 10.7332C21.1956 10.1455 21.1137 9.55786 21.0222 8.96538C20.9306 8.37289 20.8391 7.78041 20.7428 7.1831C20.7958 7.00006 20.8536 6.83628 20.9114 6.70141C20.9692 6.56653 21.0462 6.45092 21.1474 6.3594C21.4027 7.13012 21.658 7.89601 21.9229 8.66191C21.7977 8.50777 21.6821 8.34881 21.5665 8.18985L21.4412 8.36326C21.4412 8.85459 21.5328 9.5964 21.7206 10.5839C21.9037 11.5714 22 12.3083 22 12.8045L21.9904 12.7997ZM16.8459 9.47116C16.8459 9.57231 16.8362 9.6542 16.817 9.72646C16.7977 9.79389 16.7543 9.86615 16.6821 9.93359C16.6339 9.94322 16.5857 9.91914 16.5328 9.86615C16.5231 9.8517 16.4894 9.80353 16.4268 9.72646C16.4171 9.67347 16.4171 9.59158 16.4171 9.48561C16.4171 9.12434 16.5231 8.7727 16.7399 8.43551C16.7399 8.51258 16.711 8.63783 16.6484 8.81605C16.5857 8.99428 16.5568 9.13397 16.5568 9.23031C16.5568 9.37482 16.6098 9.50006 16.7206 9.60121L16.8459 9.47597V9.47116ZM15.8632 7.58773C15.8632 7.6648 15.8632 7.76596 15.8728 7.88638C15.8825 8.01162 15.8825 8.09351 15.8825 8.14168C15.8825 8.24283 15.8776 8.31509 15.8632 8.36326C15.8536 8.41143 15.8247 8.48368 15.7765 8.58484C15.7476 8.58484 15.7187 8.5752 15.6946 8.55112C15.6705 8.52703 15.6464 8.50295 15.6272 8.46923C15.4056 8.81605 15.0491 9.15324 14.5626 9.47597C14.1532 9.75536 13.7437 10.0251 13.3391 10.2949C13.4451 10.1696 13.9075 9.79389 14.7264 9.16287C15.0588 8.90757 15.3141 8.65228 15.4875 8.40179C15.473 8.37771 15.3719 8.29582 15.1888 8.16095C15.0443 8.05497 14.9672 7.95382 14.9672 7.86229C14.9672 7.79486 15.025 7.71779 15.1407 7.63108C15.2033 7.56364 15.2755 7.50102 15.3671 7.44804C15.4538 7.39505 15.5405 7.36615 15.6175 7.36615C15.7476 7.36615 15.8295 7.44322 15.8584 7.59736L15.8632 7.58773ZM13.4451 6.69659C13.0308 6.80256 12.5973 6.9278 12.1541 7.0675C11.711 7.20719 11.2775 7.34688 10.8536 7.48175C10.6224 7.55883 10.2611 7.67443 9.76493 7.82858C9.50482 7.9201 9.29287 8.0068 9.13873 8.08387C8.85453 8.24765 8.62813 8.44996 8.46917 8.69563C8.87861 8.47887 9.36031 8.26692 9.91426 8.05979C10.3478 7.89601 10.8439 7.73223 11.4075 7.56364C12.2457 7.30834 12.7466 7.1542 12.9008 7.10121C13.026 7.08676 13.1272 7.04341 13.2139 6.97598C13.3006 6.90854 13.3776 6.8122 13.4451 6.69659ZM14.553 11.3787C14.4374 11.4943 14.3603 11.7062 14.317 12.0145C14.2736 12.3228 14.2206 12.5251 14.1628 12.6263C14.0857 12.5492 13.9846 12.3421 13.8642 12.0001C13.8015 11.8315 13.7341 11.7014 13.657 11.6051C13.6474 11.6725 13.6137 11.711 13.5511 11.711C13.4499 11.6821 13.3825 11.6629 13.3439 11.6532C13.2909 11.6051 13.262 11.5473 13.262 11.4798C13.262 11.4268 13.2717 11.3739 13.2861 11.3305C13.3006 11.2823 13.3247 11.2293 13.3487 11.1619C13.3776 11.0945 13.4355 11.0656 13.527 11.0656C13.5751 11.0656 13.6137 11.08 13.6522 11.1137C13.7437 11.2293 13.8353 11.3835 13.9171 11.581C14.0039 11.7785 14.0809 11.9663 14.158 12.1397C14.1821 12.0916 14.2351 11.8989 14.3121 11.5569C14.394 11.2149 14.5723 11.0415 14.8516 11.0415C14.9287 11.0656 14.9672 11.1041 14.9672 11.1571C14.9383 11.2582 14.9191 11.3305 14.9094 11.3787C14.8805 11.3931 14.8324 11.3931 14.7649 11.3739C14.6975 11.3546 14.659 11.345 14.6445 11.345C14.6204 11.345 14.5915 11.3546 14.553 11.3787ZM11.4653 9.5386C11.4653 9.66384 11.4364 9.77944 11.3738 9.89505C11.3112 10.0107 11.2293 10.107 11.1329 10.1841C11.0462 10.2082 10.9836 10.1841 10.9403 10.107C10.8969 10.0347 10.8584 9.96249 10.8198 9.89505C10.8198 9.67347 10.8439 9.48079 10.8969 9.31702C10.9451 9.15324 11.0896 8.84977 11.3304 8.40179C11.2148 8.75825 11.104 9.10507 10.9933 9.45189C10.9933 9.58195 11.0414 9.71201 11.1329 9.84688C11.2004 9.84688 11.263 9.80834 11.316 9.73127C11.4075 9.60603 11.4605 9.54341 11.4653 9.53378V9.5386ZM17.4094 16.2438C17.4239 16.3353 17.3902 16.4461 17.3035 16.581C17.2649 16.6436 17.2168 16.7062 17.1541 16.7785C17.0674 16.764 17.0048 16.7255 16.9566 16.6629C16.947 16.6484 16.9277 16.6051 16.8892 16.5376C16.8892 16.3546 16.9326 16.1571 17.0145 15.95C17.1301 15.7091 17.2168 15.5357 17.2697 15.4201C17.2842 15.4972 17.2553 15.6272 17.183 15.8055C17.1108 15.9885 17.0723 16.1137 17.0723 16.1812C17.0723 16.3064 17.1397 16.3931 17.2697 16.4461L17.4094 16.2486V16.2438ZM9.30732 6.47501L9.10983 6.79775C8.11753 7.14457 7.5395 7.34688 7.37572 7.4095C6.73507 7.65035 6.17148 7.89601 5.67534 8.15131C5.86802 7.94418 6.07514 7.77559 6.30154 7.64071C6.63391 7.43359 7.12042 7.22164 7.77071 7.00488C8.60886 6.72549 9.12428 6.55208 9.30732 6.47501ZM20.6272 12.5347C20.4875 12.2794 20.2707 12.1349 19.9672 12.0964C19.341 11.9712 18.8979 11.581 18.6281 10.9162C18.527 10.6754 18.3873 10.0685 18.1994 9.09062C18.1994 9.06653 18.1705 8.90757 18.1175 8.60411C18.1031 8.5174 18.0934 8.42588 18.0934 8.32472C18.0934 8.17058 18.1272 8.04534 18.1994 7.94418C18.2476 8.0068 18.3102 8.09833 18.3969 8.22838C18.4836 8.35362 18.5462 8.44033 18.5944 8.4885C18.5077 8.12723 18.3825 7.7515 18.2139 7.36615C18.1127 7.14457 17.9393 6.79775 17.6936 6.32568C17.5877 6.46538 17.501 6.63397 17.4383 6.83628C17.4143 6.90372 17.3902 7.01451 17.3565 7.15902C17.6118 8.4596 17.8671 9.76017 18.1175 11.0559C18.1272 11.1234 18.1416 11.2197 18.1657 11.3353C18.1657 11.4268 18.0983 11.475 17.9682 11.475C17.7081 11.6147 17.4865 11.7785 17.3131 11.9712C17.1397 12.1638 16.9904 12.3854 16.8699 12.6407C16.6773 13.0357 16.5809 13.4692 16.5809 13.9461V14.0713C16.5809 14.1243 16.5809 14.1773 16.5906 14.2207C15.6561 14.4808 14.6927 14.6157 13.7004 14.6157C13.0453 14.6157 12.4143 14.5627 11.8025 14.4519C11.1956 14.3459 10.6175 14.1821 10.078 13.9654C10.025 13.9172 9.80829 13.8209 9.43256 13.6764C9.17726 13.5752 9.05202 13.4355 9.05202 13.2621C9.05202 13.2139 9.05202 13.1754 9.06166 13.1465C9.00867 13.1754 8.9605 13.2525 8.92197 13.3729C8.88343 13.4933 8.84971 13.5704 8.81599 13.6089C8.40173 13.6619 7.98266 13.7823 7.5684 13.9654C7.20713 14.1292 6.83622 14.3411 6.4605 14.6108C6.2052 14.7891 5.94027 14.9962 5.67052 15.2274C5.39595 15.4635 5.13102 15.6947 4.88054 15.9259C4.40366 16.3642 3.83044 16.764 3.17052 17.1301C3.079 17.1446 3.00674 17.1542 2.94894 17.1542C2.66956 17.1542 2.46724 17.0434 2.33719 16.817C2.27457 16.6725 2.24566 16.5376 2.24566 16.4124C2.24566 16.2053 2.33237 15.9451 2.50096 15.6369C2.70809 15.2515 2.82852 15.0107 2.85742 14.9191C2.61657 15.2563 2.45761 15.4972 2.37091 15.6369C2.20713 15.9162 2.09634 16.1812 2.03372 16.4365C2.00963 16.5424 2 16.6532 2 16.7592C2 16.9278 2.0289 17.0868 2.09152 17.2409C2.15414 17.3902 2.2553 17.5107 2.39017 17.5925C2.52023 17.6455 2.65992 17.6744 2.80443 17.6744C2.90559 17.6744 2.97784 17.6744 3.02601 17.6648C3.07418 17.6552 3.14162 17.6407 3.23314 17.6166C3.57996 17.4384 3.9894 17.1735 4.45665 16.817C4.842 16.5087 5.23218 16.2004 5.62235 15.8922C6.07033 15.5453 6.47014 15.266 6.82659 15.0588C7.12042 14.8902 7.42389 14.7505 7.73218 14.6494C8.04046 14.5482 8.3632 14.476 8.68594 14.4471C8.83044 14.8999 8.98459 15.2611 9.14836 15.5213C9.37958 15.897 9.66859 16.186 10.0154 16.3787C10.1599 16.2004 10.2803 15.974 10.3671 15.7043C10.4538 15.4297 10.5019 15.1503 10.5019 14.8661C10.9114 15.0829 11.3497 15.2371 11.8218 15.3334C12.2938 15.4297 12.79 15.4779 13.315 15.4779C13.9557 15.4779 14.606 15.4153 15.2755 15.2852C15.9403 15.16 16.605 14.9914 17.2697 14.7843C17.4383 14.8613 17.6118 14.9143 17.7852 14.948C17.9586 14.9769 18.1368 14.9962 18.3247 14.9962C18.6618 14.9962 19.0039 14.9432 19.341 14.8421C19.6782 14.7361 19.9961 14.6012 20.29 14.4326C20.5694 14.0328 20.7042 13.58 20.7042 13.0791C20.7042 12.8767 20.6753 12.6985 20.6224 12.5347H20.6272ZM10.9258 12.3613C10.9499 12.4529 10.9403 12.5588 10.8969 12.6744C10.8536 12.79 10.7861 12.8767 10.6946 12.9394C10.6272 12.9634 10.5645 12.9634 10.5116 12.9394C10.4104 12.8912 10.3622 12.8141 10.3622 12.7081C10.3526 12.6455 10.3526 12.6022 10.3526 12.5685C10.3526 12.4047 10.3911 12.2313 10.4682 12.0482C10.5212 11.9182 10.6079 11.7592 10.7235 11.5762C10.6561 11.8218 10.5886 12.0675 10.526 12.3035C10.526 12.4288 10.5694 12.5347 10.6513 12.6263C10.7283 12.6407 10.7909 12.6166 10.8343 12.5444C10.8825 12.4529 10.9114 12.3902 10.9258 12.3613ZM8.04528 10.1889C8.01638 10.3189 7.95857 10.449 7.87669 10.5839C7.7948 10.7139 7.69846 10.844 7.58285 10.9644C7.32274 10.8488 7.07225 10.7043 6.84104 10.5261C6.89403 10.3575 6.96146 10.2033 7.04335 10.0636C7.12524 9.92395 7.2264 9.80353 7.35164 9.69274C7.55877 9.78426 7.71291 9.87097 7.81407 9.94804C7.87669 9.99621 7.95376 10.0733 8.04528 10.1889ZM4.91426 7.94418C4.76975 8.16094 4.62042 8.37289 4.47592 8.58002C4.29287 8.49331 4.16763 8.43551 4.10501 8.39698C3.97977 8.32954 3.8738 8.24765 3.78227 8.15613C3.75337 8.18503 3.69557 8.27173 3.60886 8.41143C3.47881 8.61856 3.36802 8.72453 3.27168 8.72453C3.24759 8.72453 3.21387 8.71489 3.1657 8.70044L2.69364 8.43551L2.90077 8.02125C3.00193 7.85266 3.11272 7.75632 3.23796 7.73224C3.37765 7.79486 3.47881 7.83821 3.55106 7.87193C3.68112 7.93455 3.78709 7.99717 3.86416 8.05497C3.91233 8.02607 3.97977 7.9201 4.07611 7.74669C4.17245 7.57328 4.25915 7.48657 4.33622 7.48657C4.39884 7.48657 4.46146 7.51547 4.51927 7.56846C4.64451 7.6359 4.73121 7.68888 4.7842 7.71778C4.89017 7.78522 4.93353 7.86229 4.90944 7.949L4.91426 7.94418ZM6.59056 12.66C6.57611 12.7611 6.56166 12.8575 6.54239 12.949C6.51349 13.055 6.45568 13.1417 6.37861 13.2043C6.30154 13.2043 6.24374 13.1754 6.20039 13.1224C6.15703 13.0694 6.12331 12.9972 6.0896 12.9153C6.0896 12.3999 6.21484 11.9278 6.4605 11.5039C6.40751 11.6484 6.35453 11.8074 6.29672 11.9712C6.24374 12.1349 6.21484 12.2794 6.21484 12.3951C6.21484 12.5781 6.26782 12.7419 6.37861 12.8816C6.4316 12.8816 6.47013 12.8478 6.4894 12.7852C6.50867 12.7178 6.54239 12.6792 6.58574 12.6648L6.59056 12.66ZM4.91426 12.4962V12.7274C4.91426 13.0646 4.88536 13.3344 4.83237 13.527C4.7553 13.7968 4.61079 13.9991 4.39403 14.1388C3.9316 14.4471 3.66185 14.6205 3.58478 14.659C3.38247 14.7602 3.19942 14.8083 3.03083 14.8083C2.82852 14.8083 2.64547 14.7409 2.47688 14.6012C2.40944 14.3796 2.37091 14.1581 2.37091 13.9413C2.37091 13.58 2.45761 13.2043 2.6262 12.8189C2.77071 12.4866 2.98266 12.159 3.26204 11.8363C2.99229 11.4991 2.82852 11.292 2.77553 11.2245C2.62139 11.0222 2.4817 10.8151 2.36127 10.5983C2.39981 10.4056 2.43353 10.2515 2.46724 10.1359C2.49615 10.0203 2.54432 9.89505 2.60694 9.76499C2.74663 9.85169 2.89114 9.9384 3.04046 10.0251C3.18979 10.1118 3.31021 10.2082 3.40655 10.3093C3.38247 10.3575 3.34875 10.396 3.30058 10.4345C3.25241 10.4731 3.21387 10.4924 3.17534 10.4924C3.21387 10.5983 3.28613 10.7139 3.39692 10.8392C3.45954 10.9066 3.57033 11.0174 3.7341 11.1619C3.96532 10.9548 4.1869 10.6898 4.39403 10.3767C4.4711 10.2708 4.63969 9.98657 4.90462 9.53378C4.82755 9.91913 4.7264 10.266 4.60597 10.5791C4.48073 10.8922 4.31214 11.1956 4.09538 11.4991C4.31696 11.7062 4.48073 11.8604 4.58189 11.9615C4.77457 12.1446 4.89017 12.3228 4.92871 12.4914L4.91426 12.4962ZM8.79672 15.8825C8.82081 15.9692 8.81117 16.0463 8.77264 16.1234C8.72447 16.186 8.68594 16.2486 8.6474 16.3209C8.60886 16.3498 8.56551 16.369 8.52216 16.369C8.48362 16.369 8.421 16.345 8.33911 16.3016C8.25241 16.2534 8.19461 16.2342 8.1657 16.2342C8.09827 16.2342 8.04528 16.292 8.01638 16.4076C7.80925 16.7159 7.42389 16.976 6.86031 17.1831C6.36898 17.3661 6.09923 17.4673 6.06069 17.4818C6.21484 17.3758 6.45568 17.2313 6.78805 17.053C7.37572 16.7448 7.76108 16.4702 7.95376 16.2342C7.93931 16.1715 7.95376 16.1041 7.98748 16.027C7.99711 16.0126 8.079 15.8922 8.24277 15.6706C8.3054 15.6031 8.36802 15.5646 8.44027 15.5646C8.51734 15.5646 8.5896 15.5983 8.66185 15.6609C8.72929 15.7284 8.77746 15.8006 8.80154 15.8873L8.79672 15.8825ZM15.685 8.04534L15.6513 7.87193C15.6513 7.81894 15.632 7.77559 15.5886 7.73705C15.5453 7.70333 15.4923 7.68406 15.4345 7.68406C15.3671 7.68406 15.3189 7.71297 15.2948 7.76596C15.343 7.82858 15.4008 7.88156 15.473 7.9201C15.5453 7.96345 15.6175 8.00199 15.685 8.04052V8.04534ZM20.3574 13.527C20.1262 13.7053 19.7794 13.8401 19.317 13.9317C18.9557 13.9991 18.7341 14.0473 18.657 14.0713C18.6715 13.9702 18.7389 13.739 18.8545 13.3777C18.9461 13.0839 18.9942 12.8334 18.9942 12.6263C19.1002 12.7322 19.3603 12.8623 19.7697 13.0068C20.1021 13.1224 20.2996 13.2958 20.3574 13.527ZM18.5559 13.3777C18.262 13.5463 18.0838 13.6475 18.026 13.6764C17.8237 13.7775 17.6358 13.845 17.4576 13.8835C17.2649 13.792 17.0819 13.6282 16.9133 13.397C16.9904 13.1417 17.1252 12.9153 17.3179 12.7081C17.5106 12.5058 17.7274 12.3613 17.9634 12.2843C18.079 12.2698 18.185 12.3083 18.2765 12.3999C18.3391 12.4625 18.4017 12.5492 18.4595 12.6648C18.4692 12.7033 18.4884 12.79 18.5173 12.9201C18.5462 13.0502 18.5655 13.1609 18.5655 13.2428V13.2958C18.5655 13.3247 18.5655 13.3488 18.5559 13.3729V13.3777ZM8.50771 15.9885L8.21869 15.9211C8.24277 15.8825 8.28613 15.8633 8.34393 15.8633C8.43064 15.8633 8.48362 15.8922 8.50771 15.9451V15.9933V15.9885ZM4.55299 13.0887C4.2447 13.344 4.00385 13.5222 3.83526 13.6186C3.55106 13.7823 3.27649 13.8594 3.01638 13.8594C2.96339 13.8594 2.89114 13.8498 2.7948 13.8353C2.72736 13.7293 2.68882 13.6186 2.68882 13.5126C2.68882 13.3295 2.80925 13.0935 3.04528 12.8093C3.34393 12.4529 3.51734 12.2313 3.56551 12.1397L4.54817 13.0887H4.55299Z" fill="white"/>
</svg>
