<svg width="24" height="24" viewBox="0 0 24 24" fill="none" xmlns="http://www.w3.org/2000/svg">
<path fill-rule="evenodd" clip-rule="evenodd" d="M21.8926 12.0281C21.9182 12.2581 21.9438 12.5291 21.9642 12.8358C21.9898 13.1477 22 13.4136 22 13.6334C22 14.0271 21.9744 14.4003 21.9182 14.7479C21.862 15.0956 21.7751 15.4483 21.6524 15.7909C21.6524 14.9166 21.5961 13.9606 21.4785 12.933C21.407 12.2888 21.274 11.3481 21.0849 10.1211C20.8701 8.75609 20.7372 7.84096 20.681 7.38595C20.7065 7.24791 20.7577 7.10987 20.8344 6.96672C20.911 6.82869 20.9928 6.69065 21.0746 6.56284C21.2229 6.90026 21.3712 7.23258 21.5297 7.57C21.6933 7.96877 21.8006 8.33686 21.8466 8.67429C21.816 8.60271 21.7495 8.52092 21.6575 8.42889C21.5654 8.33687 21.4939 8.27551 21.453 8.23461C21.453 8.77654 21.499 9.37982 21.5961 10.0547C21.6881 10.7295 21.7853 11.3839 21.8824 12.023L21.8926 12.0281ZM17.4141 7.74382C17.3732 7.87675 17.3425 7.97388 17.3272 8.04035C17.2863 8.16305 17.2301 8.24484 17.1534 8.28574C17.0562 8.31642 16.9744 8.27551 16.908 8.16304C16.8926 8.13237 16.8671 8.07613 16.8364 8.00455C16.8364 7.80006 16.8569 7.62623 16.8926 7.47797C16.9284 7.32971 16.9949 7.18656 17.0971 7.04852C17.1074 7.11499 17.092 7.22235 17.0562 7.3655C17.0205 7.50864 17 7.61601 17 7.67225C17 7.81028 17.0562 7.91253 17.1738 7.97899C17.2147 7.96877 17.2454 7.9432 17.271 7.89208C17.2965 7.84096 17.3221 7.79495 17.3425 7.74382H17.4141ZM15.7321 7.31438C15.8037 7.46264 15.8446 7.63135 15.8446 7.8154C15.8446 8.05057 15.7832 8.23462 15.6605 8.35732L15.3538 8.20906C15.3129 8.2653 15.272 8.32665 15.226 8.39311C15.18 8.45957 15.1288 8.50046 15.0726 8.5158C15.0317 8.54136 14.9806 8.55159 14.9243 8.55159C14.8528 8.55159 14.7914 8.52092 14.7505 8.45446C14.6789 8.31642 14.638 8.16304 14.638 7.99945C14.638 7.76938 14.6943 7.56489 14.8119 7.38595C14.8272 7.41662 14.8374 7.46775 14.8374 7.53421C14.8374 7.60067 14.8374 7.67225 14.8272 7.75405C14.817 7.83585 14.817 7.88186 14.817 7.88697C14.817 8.04034 14.863 8.1477 14.9499 8.20394C15.0061 8.19372 15.0675 8.18349 15.1339 8.16304C15.2004 8.14259 15.2464 8.10169 15.2669 8.04546C15.2669 7.99433 15.2566 7.92276 15.2413 7.82562C15.226 7.72849 15.2157 7.6518 15.2157 7.59045C15.2157 7.45241 15.2618 7.35016 15.3487 7.28369C15.3793 7.33993 15.3998 7.41662 15.3998 7.50353C15.3896 7.61601 15.3896 7.69781 15.3896 7.74893C15.3896 7.92787 15.4867 8.01989 15.6861 8.01989C15.7014 7.96877 15.6963 7.88697 15.6605 7.76427C15.6299 7.64157 15.6094 7.55977 15.6094 7.51887C15.6094 7.42173 15.6503 7.35016 15.7321 7.30926V7.31438ZM15.2157 6.9565C15.2873 6.89003 15.3282 6.81846 15.3282 6.73666C15.3282 6.6293 15.2618 6.53728 15.1339 6.45548C15.1493 6.39924 15.1697 6.33789 15.1902 6.27143C15.2106 6.20496 15.2157 6.14873 15.2106 6.0976C15.2106 5.94423 15.1595 5.86243 15.0521 5.86243C14.9806 5.86243 14.8885 5.90333 14.7812 5.98513C14.6738 6.06693 14.6074 6.13851 14.5869 6.19474C14.546 6.24587 14.5256 6.29699 14.5256 6.35323C14.5256 6.43503 14.5716 6.51172 14.6585 6.58841C14.6994 6.6293 14.771 6.68043 14.8681 6.74689C14.6074 7.03319 14.2597 7.32971 13.8252 7.64157C13.59 7.8154 13.2219 8.0659 12.7311 8.40333C13.1656 8.2295 13.5644 8.01478 13.9325 7.75405C14.3006 7.49331 14.6585 7.17122 15.001 6.79801L15.2209 6.9565H15.2157ZM16.2485 9.64566C16.2178 9.68656 16.1564 9.79904 16.0746 9.98309C15.9928 10.1671 15.9008 10.2949 15.8037 10.3716C15.7628 10.3205 15.6503 10.2592 15.4663 10.1774C15.2822 10.0956 15.1902 10.0138 15.1902 9.93196C15.1902 9.89106 15.2157 9.83482 15.2618 9.75814L15.7168 9.30313L16.2434 9.64566H16.2485ZM16.9744 10.4074C16.7699 10.2183 16.5552 10.0904 16.3252 10.0138C16.1104 10.2745 15.9928 10.433 15.9673 10.479C15.911 10.571 15.8701 10.6733 15.8446 10.7857L16.5092 11.1436C16.6626 10.8982 16.8211 10.6528 16.9744 10.4074ZM17.2812 12.0639C17.2658 12.161 17.2505 12.2581 17.2454 12.3604C17.2198 12.4729 17.1636 12.5598 17.0716 12.616C16.8824 12.6671 16.7751 12.5853 16.7393 12.3706C16.7393 11.9463 16.8722 11.568 17.1329 11.2408C17.1227 11.2817 17.0767 11.435 16.9847 11.706C16.9438 11.8287 16.9233 11.9207 16.9233 11.9872C16.9233 12.0997 16.9591 12.1968 17.0358 12.2684C17.092 12.2837 17.138 12.253 17.1687 12.1763C17.1994 12.0996 17.2403 12.0588 17.2812 12.0588V12.0639ZM15.7577 10.5812C15.6452 10.525 15.5225 10.4688 15.3998 10.4074C15.2771 10.3512 15.1544 10.3103 15.0317 10.2847C14.9755 10.3665 14.8937 10.4892 14.7914 10.6477C14.6892 10.8062 14.6329 10.9442 14.6278 11.0567C14.7352 11.1129 14.8476 11.1692 14.9652 11.2305C15.0828 11.2868 15.1953 11.3174 15.3027 11.3174C15.41 11.2254 15.4969 11.1129 15.5736 10.9749C15.6145 10.8931 15.6759 10.7602 15.7577 10.5812ZM13.5746 6.59351C13.5184 6.76734 13.3139 6.89515 12.9611 6.98206C12.6084 7.06897 12.3937 7.13544 12.3119 7.18656C10.7883 7.68759 9.27505 8.18349 7.76176 8.68451C7.8589 8.42889 8.01738 8.27552 8.22699 8.21928C9.06033 7.92275 10.1697 7.57511 11.5501 7.17634C12.4601 6.9156 13.135 6.72132 13.5746 6.59862V6.59351ZM13.2423 9.95752L13.1708 10.2387C13.0787 10.208 13.002 10.1774 12.9356 10.1518C12.8691 10.1262 12.8078 10.1211 12.7515 10.1416C12.6186 10.5915 12.4959 11.0363 12.3732 11.481C12.3221 11.4401 12.2198 11.251 12.0665 10.9187C11.954 10.663 11.7853 10.5403 11.5654 10.5403C11.499 10.4994 11.4683 10.433 11.4683 10.3461C11.4683 10.3052 11.4785 10.2592 11.4939 10.2131C11.5092 10.1671 11.5297 10.1007 11.5552 10.0291C11.6472 9.93707 11.7035 9.89617 11.729 9.89617C11.7597 9.89617 11.7904 9.91151 11.816 9.9473C11.9131 10.0598 12.0153 10.2285 12.1227 10.4483C12.2045 10.6273 12.2914 10.8062 12.3783 10.9749C12.4294 10.7704 12.4755 10.5659 12.5266 10.3614C12.5982 10.1313 12.7004 9.95241 12.8333 9.81948C12.9867 9.78881 13.1299 9.83482 13.2526 9.96774L13.2423 9.95752ZM7.42434 7.56488C7.39366 7.74382 7.37321 7.85119 7.36299 7.88186C7.32209 7.98922 7.25562 8.07613 7.16871 8.15282C7.08691 8.17838 7.02556 8.1477 6.98466 8.06079C6.94376 7.97388 6.9182 7.91765 6.91309 7.8972C6.91309 7.67736 6.93354 7.48309 6.96933 7.31438C7.00511 7.14566 7.07158 6.98717 7.17382 6.82868C7.18405 6.89515 7.17382 6.97184 7.1636 7.06386C7.10736 7.33482 7.07669 7.48308 7.07669 7.51887C7.07669 7.58533 7.08691 7.64157 7.11247 7.69269C7.13804 7.74382 7.18405 7.77961 7.26074 7.80517C7.2863 7.78983 7.31186 7.74894 7.33231 7.68247C7.35787 7.61601 7.38855 7.58022 7.42945 7.57L7.42434 7.56488ZM9.93967 10.888C9.97035 10.9545 9.97546 11.0311 9.94479 11.1283C9.91411 11.2254 9.87321 11.3123 9.81697 11.3941C9.76074 11.5015 9.67894 11.5526 9.57157 11.5526C9.53067 11.5526 9.49489 11.5373 9.4591 11.5015C9.42843 11.435 9.40286 11.3583 9.38753 11.2663C9.37219 11.1743 9.36196 11.0874 9.36196 10.9954C9.36196 10.8215 9.38241 10.663 9.42843 10.5097C9.47444 10.3563 9.53579 10.2029 9.61759 10.0393C9.56646 10.3001 9.52556 10.5608 9.48466 10.8113C9.48466 10.9084 9.49489 10.9851 9.51534 11.0363C9.53579 11.0874 9.57669 11.1487 9.64315 11.2152C9.71472 11.2152 9.77607 11.1794 9.81697 11.1027C9.85787 11.026 9.89877 10.9545 9.93967 10.8829V10.888ZM19.3364 8.77654C19.0399 8.02501 18.7485 7.26836 18.4519 6.5066C18.3292 6.64464 18.2372 6.77245 18.181 6.88492C18.089 7.04852 18.0481 7.20189 18.0481 7.33993C18.1708 7.93809 18.2935 8.53114 18.411 9.12419C18.5286 9.71724 18.6462 10.341 18.7536 10.9902C18.8609 11.6395 18.9581 12.2377 19.0297 12.7898C19.0297 12.887 19.045 13.0352 19.0808 13.2295C19.1115 13.4238 19.1319 13.572 19.1319 13.6692C19.1319 13.8226 19.1012 13.9606 19.045 14.0731C18.8661 14.2264 18.6258 14.3082 18.319 14.3082C18.1145 14.3082 17.9202 14.2724 17.7311 14.1958C17.6084 14.1037 17.5368 14.0475 17.5112 14.0219C17.4397 13.9504 17.3988 13.8737 17.3988 13.8021C17.3988 13.7714 17.4039 13.7356 17.4192 13.705C17.4294 13.6743 17.4448 13.6487 17.4601 13.6334C17.3885 13.6896 17.2965 13.8481 17.184 14.1037C17.0716 14.3594 16.9335 14.5127 16.7597 14.5639C16.6626 14.5792 16.5859 14.5894 16.5399 14.5894C16.32 14.5894 16.1411 14.5178 16.0133 14.3798C15.9571 14.3236 15.9264 14.2571 15.9264 14.1855C15.9264 14.1702 15.9417 14.0833 15.9775 13.9299C15.9877 13.8737 15.9877 13.8226 15.9877 13.7817C15.8906 13.9146 15.7935 14.0373 15.7065 14.16C15.502 14.4361 15.3078 14.6201 15.1186 14.7019C15.0879 14.7121 15.0419 14.7223 14.9857 14.7326C14.9294 14.7428 14.8783 14.753 14.8374 14.753C14.5665 14.753 14.316 14.6405 14.091 14.4105C14.0348 14.3594 14.0041 14.3031 14.0041 14.2367C14.0297 14.1395 14.0552 14.0526 14.0757 13.981C14.1012 13.9095 14.1063 13.843 14.0859 13.7868C13.9734 13.8174 13.6718 14.0577 13.1912 14.4974C12.9867 14.6763 12.7924 14.8041 12.6033 14.8757C12.3834 14.9882 12.1431 15.0495 11.8926 15.0495C11.6063 15.0495 11.3303 14.9933 11.0695 14.8757C10.8088 14.7632 10.5634 14.5997 10.3333 14.3849C10.5378 14.2469 10.9213 14.1293 11.4888 14.0424C12.3988 13.9043 12.8487 13.5567 12.8487 12.9994C12.4141 12.7694 11.9438 12.6007 11.4325 12.4882C10.9213 12.3757 10.3793 12.3246 9.80675 12.3246C9.26483 12.3246 8.70245 12.3757 8.11452 12.4831C7.88446 12.5342 7.74131 12.7183 7.67996 13.0352C7.61861 13.3522 7.58793 13.5209 7.58793 13.5363L7.96626 13.388C8.18098 13.4596 8.35481 13.5414 8.49284 13.6232C8.682 13.7356 8.83027 13.8686 8.94785 14.0168C8.18098 14.344 7.48569 14.6866 6.86196 15.0495C6.51943 15.254 6.21268 15.4585 5.94172 15.663C5.72188 15.8369 5.4407 16.0618 5.10838 16.3481C4.61759 16.7827 4.34151 17.0281 4.27505 17.0843C3.97342 17.3297 3.67689 17.5444 3.39059 17.7234C3.36503 17.7234 3.32413 17.7336 3.26789 17.7489H3.14519C3.03783 17.7489 2.9407 17.7285 2.8589 17.6927C2.77198 17.6569 2.6953 17.5956 2.63395 17.5138C2.56748 17.432 2.52658 17.3502 2.50613 17.2735C2.48568 17.1968 2.47546 17.0894 2.47546 16.9463C2.47546 16.7827 2.50102 16.6089 2.55726 16.4197C2.60838 16.2305 2.66973 16.072 2.7362 15.9391C2.59816 16.159 2.50102 16.4146 2.43967 16.7009C2.41411 16.8543 2.38855 17.0178 2.3681 17.1814C2.39877 17.4268 2.45501 17.6211 2.52658 17.7694C2.63395 17.9739 2.7771 18.0966 2.95603 18.1375C3.06339 18.1273 3.22699 18.1119 3.44683 18.0864C3.62577 18.0557 3.7638 17.9943 3.86605 17.9023C4.31595 17.5035 4.75051 17.1457 5.16462 16.8338C5.61452 16.4964 6.06953 16.1999 6.53477 15.934C6.99489 15.6682 7.47035 15.4279 7.95603 15.208C8.44172 14.9933 8.94785 14.799 9.46933 14.6252C9.78119 15.0035 10.1084 15.3001 10.456 15.525C10.8037 15.75 11.1871 15.888 11.6012 15.934C12.0205 15.934 12.4039 15.8215 12.7566 15.6017C13.0583 15.4125 13.3599 15.1313 13.6513 14.753C13.6667 14.8604 13.6871 14.9677 13.7127 15.07C13.9172 15.4228 14.2342 15.5966 14.6585 15.5966C14.8067 15.5966 14.955 15.5506 15.1135 15.4534C15.2669 15.3614 15.4458 15.1927 15.6401 14.9575L15.8139 15.2643C15.9622 15.387 16.1462 15.4483 16.3661 15.4483C16.4734 15.4483 16.545 15.4381 16.5859 15.4228C16.7495 15.3972 16.8824 15.3052 16.9796 15.1416C17.0358 15.0495 17.1125 14.9064 17.2147 14.7019C17.2454 14.7939 17.2914 14.8604 17.3476 14.9064C17.4039 14.9524 17.5317 15.024 17.726 15.1211C17.7822 15.1313 17.864 15.1416 17.9714 15.1518C18.0787 15.162 18.1759 15.1722 18.2679 15.1722C18.4571 15.1722 18.6207 15.1467 18.7587 15.0904C18.8967 15.0393 19.0143 14.9473 19.1166 14.8144C19.2393 14.4974 19.3211 14.206 19.3671 13.9504C19.4131 13.6947 19.4335 13.3982 19.4335 13.0608C19.4335 12.8461 19.4233 12.6109 19.3978 12.3553C19.3722 12.0997 19.3466 11.8696 19.3108 11.6753C19.1728 11.0107 19.0348 10.3512 18.8916 9.68656C18.82 9.27757 18.7791 8.8839 18.7791 8.51069C18.82 8.41356 18.8609 8.36243 18.9018 8.36243C18.9325 8.36243 18.999 8.42889 19.091 8.56693C19.183 8.69985 19.2699 8.77143 19.3415 8.77143L19.3364 8.77654ZM10.3538 9.08329C9.75562 9.26222 9.14724 9.45138 8.5184 9.64055C7.89468 9.83482 7.32209 10.024 6.80573 10.2131C6.7137 10.2387 6.63701 10.2898 6.57055 10.3665C6.50409 10.4432 6.45297 10.5301 6.41207 10.6324C7.05624 10.3614 7.67485 10.1313 8.26278 9.9473C8.53886 9.85527 9.16769 9.67122 10.1391 9.38492L10.2618 9.26223C10.3333 9.19065 10.364 9.1293 10.3487 9.0884L10.3538 9.08329ZM16.5757 16.1283C16.5245 16.3174 16.4785 16.4504 16.4274 16.5322C16.3558 16.6651 16.2485 16.752 16.1104 16.8031C16.0542 16.8031 15.9775 16.8133 15.8906 16.8389C15.6759 16.8951 15.5429 16.9258 15.4867 16.9258C15.3384 16.9258 15.2157 16.8543 15.1186 16.706C14.863 16.7725 14.592 16.8798 14.2955 17.023C14.183 17.0792 13.9223 17.2224 13.5235 17.4524C13.1963 17.6416 12.9356 17.7745 12.7362 17.8563C12.4499 17.979 12.1636 18.0557 11.8773 18.0915C12.138 17.9943 12.4192 17.8563 12.726 17.6876C12.9458 17.5649 13.2065 17.4115 13.498 17.2223C13.8967 16.9769 14.2188 16.7929 14.454 16.6753C14.6892 16.5577 14.9141 16.4657 15.1288 16.3992C15.2209 16.389 15.3282 16.435 15.4611 16.527C15.5941 16.6191 15.6912 16.6702 15.7577 16.6804C15.7832 16.6089 15.8139 16.5271 15.8497 16.4453C15.8855 16.3635 15.9315 16.3021 15.9928 16.2612L16.0184 16.481C16.0849 16.4964 16.1309 16.5066 16.1513 16.5066C16.2434 16.5066 16.3098 16.481 16.3558 16.4248C16.4018 16.3737 16.453 16.2919 16.5092 16.1845C16.5092 16.159 16.5348 16.1385 16.5808 16.1232L16.5757 16.1283ZM3.59509 7.23257L3.50818 7.46774C3.39571 7.43707 3.30368 7.41662 3.23722 7.41662C3.16564 7.41662 3.10941 7.4473 3.07873 7.51376C3.00716 7.89208 2.93558 8.26018 2.86912 8.62828C2.78732 8.57204 2.70041 8.41355 2.6135 8.15793C2.52147 7.90231 2.41411 7.76939 2.28119 7.76939C2.22495 7.76939 2.17382 7.7796 2.13292 7.79494C2.0409 7.75404 2 7.68247 2 7.58534C2 7.53421 2.01023 7.48308 2.02556 7.42173C2.0409 7.36038 2.05624 7.29904 2.07669 7.23257C2.11759 7.16611 2.16871 7.13544 2.23517 7.13544C2.2863 7.13544 2.3272 7.15078 2.35787 7.18656C2.45501 7.29904 2.55215 7.47797 2.6544 7.71826C2.75153 7.95854 2.82822 8.11703 2.87423 8.1886C2.90491 7.93298 2.94581 7.72337 2.99182 7.54954C3.03783 7.37572 3.11452 7.22234 3.21677 7.08431C3.26789 7.07408 3.32924 7.0792 3.40593 7.08943C3.48262 7.09965 3.54908 7.15077 3.59509 7.23257ZM6.02352 8.98615C5.95706 8.97592 5.89059 8.91458 5.81902 8.79699C5.74744 8.6794 5.69632 8.60783 5.65542 8.58227L5.49693 8.8021C5.64519 9.83993 5.79346 10.8778 5.95194 11.9207C5.9775 12.1917 5.98773 12.4575 5.98773 12.7183C5.98773 13.1273 5.94683 13.5158 5.87014 13.8839C5.79346 14.252 5.66564 14.5997 5.49693 14.9268C5.56851 14.4667 5.60941 14.0219 5.60941 13.5874C5.60941 12.9892 5.54806 12.3348 5.42536 11.6191C5.30266 10.9033 5.17996 10.1722 5.05726 9.43094C4.93456 8.68452 4.87321 8.04034 4.87321 7.49331C4.84254 7.42685 4.82209 7.35527 4.82209 7.27347C4.82209 7.13544 4.85276 7.00251 4.91922 6.8747C4.98569 6.74689 5.0726 6.6293 5.19018 6.51171C5.33845 6.83891 5.48671 7.24791 5.6452 7.73871C5.76789 8.15793 5.89571 8.57204 6.02352 8.99127V8.98615ZM3.54397 8.85323C3.50307 9.02705 3.41104 9.1702 3.26278 9.28779C3.11452 9.40538 2.95092 9.48718 2.77198 9.52808L2.7362 9.47695C2.78732 9.42071 2.87423 9.36448 3.00716 9.30313C3.14008 9.24178 3.23211 9.18043 3.28834 9.10885C3.19121 9.09351 3.11963 9.07817 3.07362 9.07306C3.02761 9.06284 2.96626 9.06284 2.88446 9.06284C2.6544 9.06284 2.48057 9.12419 2.35787 9.24689C2.3272 9.19065 2.33742 9.12419 2.39366 9.05772C2.4499 8.98615 2.50614 8.91969 2.56748 8.85323C2.75665 8.79699 2.92536 8.76632 3.06851 8.76632C3.23211 8.76632 3.39059 8.79699 3.54908 8.85323H3.54397ZM10.773 16.6804C10.5429 16.9821 10.2311 17.2019 9.8272 17.3297C9.63804 17.3962 9.4182 17.4268 9.16258 17.4268C8.95808 17.4268 8.78425 17.4064 8.63599 17.3655C8.52352 17.299 8.46217 17.207 8.46217 17.0843C8.46217 17.0281 8.47239 16.9718 8.49796 16.9258C8.61043 16.7622 8.73313 16.6037 8.85583 16.4453C8.74335 16.389 8.64622 16.3174 8.57464 16.2356C8.60532 16.1232 8.66667 16.0158 8.75358 15.9238C8.84049 15.8318 8.94785 15.7397 9.08078 15.6477C9.22904 15.617 9.31595 15.6579 9.35174 15.7704C9.34151 15.8113 9.33129 15.842 9.31595 15.8675C9.23415 15.934 9.18303 15.98 9.15746 16.0005C9.07566 15.9187 8.99898 15.888 8.92229 15.9033L8.83538 15.9749C8.90695 16.1129 9.03477 16.1845 9.2137 16.1845C9.28016 16.1845 9.33129 16.1743 9.37219 16.1589C9.41309 16.1436 9.47444 16.1181 9.55113 16.0772C9.62781 16.0414 9.69939 16.0209 9.76585 16.0209C9.70961 16.1743 9.52045 16.3174 9.19325 16.4453C8.87117 16.5731 8.70757 16.752 8.70757 16.9769C8.90184 17.0894 9.12679 17.1508 9.38241 17.1508C9.60225 17.1508 9.83231 17.1048 10.0777 17.0178C10.318 16.9258 10.5481 16.8134 10.773 16.6753V16.6804ZM3.54397 11.1487C3.54397 11.297 3.52352 11.4197 3.48262 11.5168C3.44172 11.614 3.37014 11.6907 3.26278 11.7367C3.04806 11.7367 2.92536 11.6242 2.89468 11.3941C2.89468 11.159 2.93558 10.9289 3.01227 10.7142C3.08896 10.4994 3.19632 10.2847 3.33947 10.07C3.23211 10.3819 3.12986 10.6886 3.03272 10.9902C3.03272 11.1641 3.10941 11.297 3.26789 11.3941C3.33436 11.4044 3.38037 11.3788 3.41104 11.3226C3.44172 11.2663 3.47239 11.2101 3.50307 11.1487H3.55419H3.54397ZM5.2362 13.6129C5.09816 13.8481 4.90389 14.0577 4.65849 14.2367C4.46933 14.3849 4.21881 14.5281 3.90184 14.6661C3.58487 14.8041 3.34458 14.9115 3.17076 14.9831C2.8589 15.116 2.60838 15.2387 2.42434 15.3614C2.42434 15.2285 2.49591 15.0956 2.64417 14.9626C2.79243 14.8297 2.93558 14.6968 3.07362 14.5741C2.86912 14.4821 2.74131 14.4207 2.6953 14.39C2.54704 14.298 2.4499 14.1855 2.39877 14.0475C2.6135 13.6283 2.79755 13.3215 2.95092 13.1273C3.22699 12.7694 3.51329 12.5853 3.79959 12.5853C3.93763 12.5853 4.08078 12.6365 4.22904 12.7336C4.30061 12.7847 4.34151 12.8461 4.34151 12.9279C4.34151 12.9943 4.31084 13.0659 4.2546 13.1477C4.1728 13.2397 4.10634 13.3113 4.06033 13.3624C4.01431 13.4136 3.96319 13.4647 3.91718 13.5107C3.87117 13.5567 3.82004 13.5874 3.7638 13.6027C3.7229 13.5209 3.67178 13.4442 3.60532 13.3778C3.53886 13.3062 3.46728 13.2755 3.38548 13.2755C3.30368 13.2755 3.23722 13.2857 3.18098 13.3011C3.12986 13.3164 3.07873 13.3522 3.02761 13.3982C3.14008 13.5874 3.30368 13.7203 3.51841 13.797C3.73313 13.8737 3.96319 13.9146 4.21881 13.9146C4.34151 13.9146 4.52045 13.8686 4.75051 13.7714C4.98569 13.6794 5.14417 13.6232 5.2362 13.6078V13.6129ZM14.9397 6.36345C14.8988 6.34812 14.8579 6.32766 14.817 6.3021C14.7761 6.27654 14.771 6.24587 14.8067 6.20497C14.863 6.19474 14.909 6.22031 14.9397 6.27654V6.36345ZM11.0746 13.3318L9.73517 13.751L9.34151 13.2244C9.40798 13.2244 9.77096 13.2551 10.4356 13.3113C10.6247 13.3266 10.8344 13.3369 11.0746 13.3369V13.3318Z" fill="white"/>
</svg>
