<svg width="24" height="24" viewBox="0 0 24 24" fill="none" xmlns="http://www.w3.org/2000/svg">
<path fill-rule="evenodd" clip-rule="evenodd" d="M22 8.62064C21.9046 8.61004 21.8304 8.55703 21.7721 8.45632C21.6024 8.17007 21.4858 8.00575 21.4275 7.97394C21.3162 8.15417 21.2632 8.39272 21.2632 8.70017C21.2632 8.85919 21.2738 9.03942 21.3003 9.23025C21.3268 9.42108 21.3533 9.6066 21.3745 9.78152C21.5017 10.953 21.6342 12.1245 21.7668 13.2907C21.7668 14.1494 21.735 14.7802 21.6713 15.1884C21.6077 15.5965 21.5017 15.9729 21.348 16.3227C21.348 16.0577 21.3586 15.6919 21.3798 15.2149C21.401 14.7378 21.4116 14.4462 21.4116 14.3349C21.4116 14.1653 21.4116 13.9957 21.401 13.8314C21.3904 13.667 21.3745 13.5027 21.348 13.3437L20.5953 7.05691C20.5529 6.988 20.5317 6.90849 20.5317 6.81308C20.5317 6.66996 20.5953 6.50032 20.7225 6.30419C20.7543 6.24588 20.8179 6.15576 20.9133 6.03915C21.1148 6.45261 21.3215 6.87138 21.5229 7.28484C21.7615 7.78312 21.9152 8.22838 21.9947 8.62064H22ZM17.1763 6.27769C17.1073 6.48972 16.9324 6.64874 16.6568 6.74945C16.3758 6.85017 16.1108 6.94558 15.8563 7.0304C15.0082 7.33784 14.1601 7.64 13.312 7.94744C13.2961 7.76192 13.3597 7.6294 13.5028 7.55519C13.7572 7.47038 14.017 7.38026 14.2767 7.29015C14.7591 7.13642 15.2521 6.9774 15.745 6.81308C16.2433 6.64875 16.7204 6.47382 17.1763 6.283V6.27769ZM16.503 11.2287C16.5296 11.3029 16.519 11.393 16.4712 11.4937C16.4235 11.5944 16.3864 11.6792 16.3546 11.7428C16.3228 11.8064 16.2751 11.8382 16.2062 11.8382H16.0419C15.9306 11.6686 15.8776 11.4831 15.8776 11.2764C15.8776 11.0961 15.9306 10.8629 16.0419 10.5661C16.0949 10.4388 16.1426 10.3063 16.1956 10.1738C16.1956 10.2586 16.1744 10.4176 16.1267 10.6509C16.079 10.8841 16.0578 11.0378 16.0578 11.1173C16.0578 11.2764 16.0896 11.4142 16.1585 11.5255C16.2539 11.552 16.3228 11.5096 16.3705 11.4036C16.4182 11.2976 16.4606 11.2393 16.503 11.234V11.2287ZM12.2306 7.85734C12.2624 7.97396 12.2412 8.10647 12.167 8.2496C12.1246 8.31851 12.0769 8.38742 12.0292 8.45103C11.9284 8.48283 11.8489 8.47223 11.8012 8.41392C11.7482 8.35561 11.7058 8.27079 11.674 8.15947C11.7005 7.95804 11.7323 7.75131 11.7694 7.54458C11.8065 7.33784 11.8648 7.14703 11.939 6.9774C11.9496 7.05161 11.9337 7.18942 11.8966 7.38025C11.8595 7.57108 11.8383 7.69831 11.8383 7.75662C11.8383 7.95805 11.9178 8.08526 12.0822 8.12767L12.2359 7.86263L12.2306 7.85734ZM14.2025 9.90345C14.1495 9.96176 14.0965 9.99357 14.0382 9.99357C13.9958 9.99357 13.964 9.99356 13.9375 9.98296C13.8526 9.94055 13.7996 9.91406 13.7731 9.90876C13.7307 9.86635 13.6565 9.89815 13.5452 10.0042C13.4339 10.1102 13.3226 10.142 13.2165 10.0996C13.0628 9.98826 12.9886 9.81864 12.9886 9.5907C12.9886 9.49529 13.0098 9.36807 13.0469 9.20904C13.084 9.05002 13.1105 8.92809 13.1317 8.85388H13.1953C13.2218 8.92809 13.2165 9.04472 13.19 9.19845C13.1582 9.35217 13.1476 9.44228 13.1476 9.46349C13.1476 9.5589 13.1688 9.62781 13.2059 9.67552C13.243 9.72323 13.3279 9.74443 13.4551 9.74443C13.5823 9.67552 13.6459 9.5695 13.6459 9.42638C13.63 9.26735 13.6194 9.14543 13.6194 9.07122C13.6194 8.944 13.6512 8.84858 13.7201 8.79027C13.7625 8.84328 13.7837 8.92279 13.7837 9.03411C13.7731 9.18783 13.7731 9.29385 13.7731 9.35216C13.7731 9.53769 13.8473 9.6331 13.9905 9.6331C14.017 9.6331 14.0647 9.62251 14.1283 9.6066C14.1442 9.53239 14.1283 9.43168 14.0912 9.30976C14.0488 9.18784 14.0276 9.10833 14.0276 9.07652C14.0276 8.99171 14.0541 8.9175 14.1018 8.85919C14.229 9.02881 14.2926 9.23554 14.2926 9.48468C14.2926 9.6437 14.2661 9.79213 14.2184 9.91935L14.2025 9.90345ZM13.0946 5.99675C12.1723 6.23528 11.3878 6.44201 10.7411 6.62224C9.86642 6.86608 9.0978 7.11522 8.4405 7.35906C8.25497 7.43327 8.05884 7.51809 7.85741 7.6082C7.65598 7.69831 7.54996 7.84143 7.54996 8.03226C8.24437 7.70361 9.12961 7.37495 10.1951 7.0516C11.1015 6.79717 12.008 6.53743 12.9197 6.27769C12.9886 6.21938 13.031 6.17167 13.0522 6.13986C13.0734 6.10806 13.0893 6.06036 13.0946 6.00205V5.99675ZM7.76199 6.81308C7.7779 6.89789 7.77259 6.988 7.75139 7.08871C7.72489 7.18413 7.68248 7.26364 7.62417 7.32195C7.57116 7.33785 7.52346 7.33255 7.47045 7.30074C7.41744 7.26894 7.38564 7.22123 7.36973 7.14702C7.35383 7.0728 7.34323 6.988 7.34323 6.88728C7.34323 6.70705 7.38563 6.48442 7.47045 6.21408C7.51285 6.07626 7.55526 5.94373 7.59767 5.80591C7.61357 5.88012 7.60827 5.98085 7.58707 6.09746C7.51816 6.44732 7.48635 6.62223 7.48635 6.63284C7.48635 6.77596 7.52346 6.89259 7.60297 6.9774L7.76729 6.81308H7.76199ZM10.9796 9.33097C10.9637 9.47409 10.9001 9.61191 10.7888 9.74443C10.6774 9.87695 10.5714 9.99887 10.4707 10.1208C10.4177 10.0519 10.3011 9.97236 10.1103 9.88755C9.91943 9.79743 9.82401 9.71263 9.82401 9.62781C9.82401 9.5748 9.83462 9.5377 9.85052 9.51119L10.2852 8.9281C10.4018 8.9599 10.5237 9.01821 10.6403 9.09242C10.6827 9.11893 10.7994 9.19844 10.9849 9.33626L10.9796 9.33097ZM12.0981 11.7587C12.0557 11.886 12.0186 12.0132 11.9814 12.1404C11.9231 12.2835 11.8224 12.3789 11.6899 12.4213C11.6316 12.4319 11.5786 12.4107 11.5309 12.3577C11.4832 12.3047 11.4461 12.2464 11.4249 12.1775C11.4249 11.9072 11.4408 11.6739 11.4673 11.4831C11.4991 11.2923 11.5627 11.1067 11.6634 10.9318C11.6528 10.9742 11.6316 11.0802 11.5945 11.2552C11.5574 11.4301 11.5362 11.5679 11.5362 11.6686C11.5362 11.8223 11.5786 11.9549 11.6634 12.0768C11.8012 12.0768 11.9072 12.0238 11.992 11.9125C12.0186 11.8436 12.0345 11.7958 12.0451 11.7587H12.0981ZM17.1232 17.0013C16.996 17.1709 16.8688 17.3458 16.7416 17.5207C16.6409 17.6161 16.5349 17.6479 16.4235 17.6214C16.3917 17.5896 16.2433 17.4942 15.9889 17.3405C15.8086 17.2398 15.7238 17.1232 15.7238 16.996L16.3069 16.4235L17.1232 16.996V17.0013ZM18.9573 14.0381C18.687 12.045 18.4166 10.0466 18.1569 8.04816L18.2735 7.82023C18.3583 7.89444 18.4431 8.00046 18.528 8.13828C18.5704 8.20719 18.634 8.3132 18.7188 8.45632L18.7718 8.40332C18.7029 8.02166 18.5916 7.6294 18.4272 7.22654C18.2682 6.82368 18.0721 6.44201 17.8442 6.08685C17.8336 6.11866 17.7699 6.25649 17.6427 6.49502C17.5579 6.65405 17.5155 6.79186 17.5155 6.90318C17.5155 6.9986 17.5367 7.0781 17.5791 7.14702C17.6374 7.7089 17.7593 8.51464 17.9343 9.5748C18.0721 10.3805 18.2046 11.1968 18.3424 12.0238C18.4803 12.8507 18.581 13.6564 18.6499 14.4356C18.3265 14.5735 18.0085 14.6371 17.6957 14.6371C17.4307 14.6371 17.1763 14.5894 16.9271 14.4993C16.678 14.4039 16.4553 14.2607 16.2592 14.0646C16.2168 14.0222 16.2115 13.9639 16.2486 13.8844C16.2804 13.8102 16.2857 13.7519 16.2592 13.72C16.0472 13.948 15.8351 14.1759 15.6231 14.3932C15.3581 14.6583 15.1036 14.7855 14.8492 14.7855C14.7803 14.7855 14.7326 14.7855 14.6955 14.7749C14.441 14.7325 14.2396 14.6583 14.0912 14.5523C13.9428 14.4462 13.8208 14.2925 13.7201 14.0858C13.6247 13.8844 13.5452 13.6034 13.4869 13.2483C13.3438 12.3259 13.2642 11.8382 13.243 11.7852L12.9144 12.4744C12.9303 12.6864 12.9621 12.9037 13.0045 13.1211C13.0151 13.1529 13.0681 13.4497 13.1688 14.001C13.031 14.213 12.8667 14.3667 12.6653 14.4569C12.4638 14.5523 12.2412 14.5947 11.9867 14.5947C11.6899 14.5947 11.4302 14.5417 11.2128 14.4304C10.9054 14.2872 10.757 14.0646 10.757 13.7678C10.757 13.6564 10.7835 13.5398 10.8312 13.4126C10.3965 13.8102 10.0413 14.1017 9.7604 14.2766C9.32574 14.547 8.91757 14.6848 8.52531 14.6848C8.32388 14.6848 8.10655 14.6477 7.87861 14.5682C7.52876 14.4568 7.21601 14.2024 6.93507 13.8048C6.72303 13.4656 6.5163 13.1211 6.30957 12.7765C5.69997 12.8295 5.26001 13.243 5.00027 14.0222C4.67161 14.9869 4.36417 15.5806 4.08322 15.8033C3.99841 15.8457 3.90299 15.8669 3.79168 15.8669C3.73337 15.8669 3.64325 15.8563 3.52664 15.8404C3.21389 15.6177 2.97005 15.3792 2.80042 15.1142C2.60429 14.8067 2.50888 14.4887 2.50888 14.16C2.50888 13.9798 2.52478 13.7995 2.56189 13.6087C2.59369 13.4179 2.6361 13.2748 2.67851 13.1847C2.83223 13.1529 2.97535 12.9938 3.10257 12.7129C3.23509 12.4319 3.2987 12.151 3.2987 11.8754C3.2987 11.7799 3.2881 11.6898 3.2616 11.5944C3.20859 11.605 3.17678 11.6315 3.16618 11.6845C3.15558 11.7375 3.13968 11.8011 3.12907 11.8807C3.11847 11.9602 3.07607 12.0344 3.01246 12.098C2.94885 12.1616 2.86933 12.1828 2.77922 12.1563C2.6255 11.9761 2.52478 11.8064 2.46647 11.6421C2.41346 11.4778 2.38166 11.2817 2.38166 11.0484C2.38166 10.7357 2.47177 10.3222 2.6467 9.81333C2.89054 9.10832 3.02306 8.72136 3.03896 8.65775C2.71561 9.19844 2.47707 9.66492 2.32865 10.0572C2.10602 10.6191 2 11.1438 2 11.6368C2 11.8807 2.03711 12.1351 2.10602 12.3895C2.18023 12.644 2.28094 12.8719 2.41877 13.0786C2.41877 13.2059 2.40286 13.4709 2.36576 13.8685C2.33395 14.266 2.31275 14.5523 2.31275 14.7219C2.31275 15.1195 2.37636 15.4746 2.50358 15.7927C2.70501 16.1054 2.88524 16.3333 3.03896 16.4818C3.2828 16.7203 3.53724 16.8369 3.79168 16.8369C4.28465 16.6567 4.66101 16.1266 4.92605 15.2467C5.19109 14.3667 5.56215 13.8367 6.04453 13.667C6.65412 14.5841 7.00928 15.0876 7.11529 15.1831C7.41214 15.4534 7.74609 15.5912 8.12245 15.5912C8.15425 15.5912 8.20726 15.6018 8.27617 15.6177H8.4299C8.81156 15.6177 9.17201 15.5117 9.51657 15.305C9.86112 15.0983 10.1686 14.8279 10.4389 14.4993C10.4654 14.6159 10.4919 14.7378 10.529 14.8544C10.688 15.1089 10.9266 15.2891 11.2393 15.4004C11.4832 15.4852 11.7853 15.5276 12.1405 15.5276C12.4214 15.4534 12.6547 15.3474 12.8402 15.2202C13.0787 15.0611 13.2324 14.865 13.2961 14.6371C13.365 14.7802 13.4339 14.9233 13.5081 15.0718C13.5823 15.2149 13.6724 15.3315 13.7837 15.4163C14.0117 15.6177 14.282 15.7238 14.6001 15.7238C14.7008 15.7238 14.8015 15.7132 14.9075 15.6866C15.1036 15.6177 15.2892 15.4958 15.4694 15.3156C15.5966 15.1884 15.7344 15.0134 15.8776 14.7961C16.4023 15.3315 16.9907 15.5965 17.6321 15.5965C17.8866 15.5965 18.1675 15.5488 18.4697 15.4587C18.6923 15.3474 18.8301 15.1354 18.8884 14.8226C18.9149 14.653 18.9414 14.3985 18.9785 14.0593L18.9573 14.0381ZM6.43679 7.14173C6.43679 7.28485 6.41028 7.41736 6.35197 7.52868C6.29897 7.64529 6.20355 7.71951 6.07633 7.76191C5.99152 7.77782 5.8961 7.74071 5.79539 7.64529C5.69467 7.54988 5.60986 7.50748 5.54095 7.50748C5.15929 7.90505 4.76173 8.2496 4.34296 8.53584C3.9295 8.82209 3.46833 9.08182 2.97005 9.30976C3.78638 8.67366 4.5974 8.03756 5.41373 7.40146C5.36072 7.37496 5.32362 7.35905 5.29711 7.34845C5.2123 7.30604 5.15399 7.26364 5.11688 7.22123C5.14869 7.14702 5.1964 6.98799 5.2547 6.74945C5.31301 6.51092 5.40843 6.33069 5.53565 6.20347C5.75828 6.20347 5.94911 6.30949 6.10814 6.52152C6.21945 6.66464 6.32547 6.87137 6.42619 7.13111L6.43679 7.14173ZM9.28863 10.8682L9.23562 11.1332C9.0819 11.1067 8.97588 11.0961 8.91757 11.0961C8.84866 11.0961 8.80095 11.1491 8.77975 11.2499C8.73734 11.5467 8.70554 11.7905 8.67904 11.9867C8.65253 12.1828 8.57302 12.3259 8.4352 12.4213C8.38219 12.3524 8.29738 12.1563 8.17016 11.8382C8.07474 11.5944 7.95812 11.4672 7.815 11.4672C7.67188 11.4248 7.57646 11.3877 7.53406 11.3506C7.49165 11.3188 7.47045 11.2658 7.47045 11.1969C7.47045 11.0802 7.49165 10.9689 7.52876 10.8735C7.56586 10.7781 7.63477 10.7145 7.74079 10.688C7.92102 10.7887 8.07474 11.006 8.20726 11.3294C8.33978 11.658 8.4405 11.8594 8.52001 11.9337C8.56242 11.8594 8.60482 11.6633 8.65253 11.3506C8.70024 11.0378 8.79565 10.8364 8.93878 10.7516L9.29393 10.8682H9.28863ZM6.55341 9.36806C6.5004 9.42637 6.43679 9.5483 6.35197 9.73913C6.26716 9.92465 6.17175 10.0466 6.07103 10.0943L5.28121 9.72322C5.2388 9.77623 5.18579 9.86104 5.12748 9.98826C5.03207 10.2109 4.92605 10.3328 4.79883 10.3593C4.69812 10.3593 4.5709 10.3275 4.41717 10.2586C4.18924 10.1579 4.06732 10.0996 4.04612 10.0943C4.12033 9.76562 4.29526 9.49529 4.5656 9.29386C4.66631 9.33626 4.79353 9.38927 4.94726 9.45288C5.10098 9.51649 5.2282 9.55889 5.32892 9.5854C5.36072 9.55889 5.45083 9.43167 5.59396 9.20374C5.70527 9.02351 5.81129 8.9387 5.91201 8.9387C5.98092 8.9387 6.06043 8.98641 6.15584 9.07652C6.25656 9.12953 6.34137 9.17194 6.40498 9.20904C6.46859 9.24615 6.5163 9.29915 6.55341 9.36806ZM14.3774 17.3564C14.3774 17.3564 14.2608 17.4942 14.0859 17.7275C13.9693 17.8812 13.842 17.966 13.7042 17.9819C13.6724 17.966 13.5823 17.8971 13.4445 17.7699C13.3067 17.6479 13.1953 17.5843 13.1211 17.5843C13.0681 17.5843 13.0098 17.6108 12.9409 17.6586C12.7872 17.8812 12.7077 17.9978 12.6971 18.0137C12.6228 18.0985 12.5433 18.1568 12.4691 18.1939C12.4161 18.1409 12.3048 18.0561 12.1246 17.9342C11.9443 17.8123 11.833 17.7063 11.78 17.6214C11.9072 17.3988 12.0928 17.1656 12.3419 16.9217L13.031 17.2504C13.243 17.2504 13.4339 17.0914 13.6035 16.768C13.789 16.8793 13.9321 16.9588 14.0223 17.0119C14.1919 17.1126 14.3085 17.2292 14.3774 17.3564ZM6.22475 7.35906C6.16645 7.41207 6.08693 7.40676 5.99682 7.34845C5.95441 7.32195 5.8802 7.27425 5.76888 7.19474L5.8961 6.87668C5.97032 6.93499 6.03923 7.0039 6.09223 7.08871C6.14524 7.16823 6.19295 7.25833 6.22475 7.36435V7.35906ZM5.66287 7.09402C5.55155 7.05161 5.44023 7.0092 5.33422 6.96679L5.49854 6.78656C5.55685 6.82897 5.60456 6.87668 5.64697 6.92439C5.68407 6.9774 5.68937 7.03041 5.66817 7.08871L5.66287 7.09402Z" fill="white"/>
</svg>
