<svg width="24" height="24" viewBox="0 0 24 24" fill="none" xmlns="http://www.w3.org/2000/svg">
<path fill-rule="evenodd" clip-rule="evenodd" d="M21.925 12.0904C21.9471 12.2933 21.9647 12.4962 21.978 12.699C21.9912 12.9019 22 13.1047 22 13.3076C22 13.753 21.9647 14.1632 21.8897 14.5469C21.8148 14.9261 21.6869 15.3054 21.5017 15.6803C21.559 15.1996 21.6163 14.7189 21.6692 14.2426C21.6692 14.1014 21.6604 13.9559 21.6384 13.8104L21.0254 9.01655C21.0342 8.98127 21.0342 8.93276 21.0342 8.8666C21.0342 8.71666 20.9945 8.50496 20.9195 8.22271C20.8401 7.94046 20.8049 7.7376 20.8049 7.60971C20.8049 7.49064 20.8181 7.38921 20.849 7.30982C20.8754 7.23044 20.9372 7.14224 21.0298 7.04963C21.0518 7.02758 21.0783 6.99229 21.1092 6.93937C21.14 6.88645 21.1753 6.85557 21.2106 6.85116C21.4135 7.45976 21.6251 8.05955 21.8368 8.65933C21.8368 8.70343 21.828 8.77398 21.8148 8.871C21.7001 8.72106 21.5899 8.57553 21.4752 8.42559C21.4752 8.96363 21.5546 9.72217 21.7178 10.7012C21.8368 11.4201 21.9074 11.8875 21.9294 12.0992L21.925 12.0904ZM16.8975 9.98237L16.3594 10.6262C16.2889 10.5469 16.183 10.4587 16.0419 10.3616C15.9493 10.2999 15.8831 10.2514 15.839 10.2249C15.839 10.1103 15.892 9.99559 15.9978 9.88093C16.1036 9.76627 16.2051 9.6516 16.3065 9.54576C16.4212 9.56781 16.5447 9.64278 16.6858 9.77949C16.7563 9.85005 16.8269 9.91622 16.8975 9.98237ZM17.7001 7.00992C16.9724 7.19956 16.2359 7.41566 15.4818 7.6494C14.7321 7.88755 13.9868 8.12129 13.2547 8.35502C12.8181 8.50938 12.3815 8.66373 11.9405 8.8225C11.4245 9.01214 11.054 9.26351 10.8291 9.57222C11.4289 9.26351 12.0728 8.98126 12.7652 8.73429C13.1665 8.59317 13.8368 8.3859 14.7762 8.10806C15.7861 7.81258 16.4564 7.60971 16.7872 7.50387C16.9548 7.44654 17.1312 7.38479 17.312 7.31864C17.4928 7.25249 17.6207 7.14665 17.7001 7.00552V7.00992ZM15.7508 10.1323C15.5877 10.3528 15.4245 10.5689 15.2657 10.7894L14.6836 10.344L15.1819 9.65601L15.7552 10.1323H15.7508ZM11.5612 7.91841C11.5612 7.91841 11.5832 7.98016 11.5832 8.03308C11.5832 8.10364 11.5656 8.17862 11.5303 8.26242C11.495 8.3418 11.4686 8.41235 11.4465 8.46968C11.3671 8.49173 11.3054 8.46968 11.2569 8.41676C11.2084 8.35943 11.1643 8.28887 11.129 8.20508C11.129 8.07278 11.1466 7.93606 11.1775 7.79934C11.2084 7.66263 11.2834 7.48182 11.3936 7.25249C11.3451 7.45536 11.2966 7.65822 11.2569 7.85668C11.2569 7.94929 11.2834 8.03308 11.3319 8.11246L11.4377 8.18744L11.5656 7.92283L11.5612 7.91841ZM14.4939 13.3914C14.4366 13.4267 14.3793 13.4267 14.3264 13.3958C14.269 13.3649 14.2205 13.312 14.1764 13.2415C14.1544 13.1356 14.1455 13.0254 14.1455 12.9151C14.1455 12.7387 14.172 12.5667 14.2249 12.3947C14.2778 12.2271 14.3528 12.0595 14.4542 11.8964C14.4057 12.0507 14.3616 12.1874 14.3264 12.3109C14.2911 12.43 14.2734 12.5491 14.2734 12.6726C14.2734 12.849 14.3219 12.9989 14.4234 13.118C14.4719 13.118 14.516 13.0739 14.5513 12.9901C14.5865 12.9063 14.6086 12.8578 14.613 12.8534C14.6351 12.8975 14.6439 12.9372 14.6439 12.9813C14.6439 13.0386 14.6262 13.1047 14.591 13.1841C14.5336 13.3032 14.5028 13.3738 14.4939 13.3958V13.3914ZM13.4884 10.8732C13.5237 10.8997 13.5325 10.9394 13.5105 10.9879C13.4884 11.0364 13.4664 11.0849 13.4487 11.1246C13.4223 11.1334 13.3738 11.1246 13.312 11.1025C13.2503 11.0805 13.2018 11.0717 13.1753 11.0717C13.0959 11.0717 13.043 11.1158 13.0077 11.1996C12.9636 11.4818 12.9283 11.7067 12.9019 11.8787C12.8754 12.0463 12.8269 12.2359 12.7652 12.4388C12.7166 12.3462 12.6196 12.1213 12.4785 11.7597C12.4212 11.6053 12.3594 11.4686 12.2889 11.3451C12.2668 11.3804 12.2359 11.398 12.1918 11.398C12.1566 11.398 12.0728 11.3716 11.9361 11.3142C11.8743 11.2789 11.839 11.226 11.839 11.1555C11.839 11.1202 11.8611 11.0496 11.9008 10.9438C11.9228 10.8864 11.9316 10.8467 11.9316 10.8159C11.9537 10.7365 12.0287 10.7012 12.1522 10.7012C12.2845 10.8512 12.4079 11.0496 12.5138 11.3054C12.6196 11.6009 12.699 11.817 12.7563 11.9493C12.8181 11.6582 12.8666 11.4465 12.8931 11.3142C12.9504 11.0673 13.043 10.882 13.1665 10.7541C13.2282 10.7409 13.29 10.7453 13.3473 10.7762C13.409 10.8247 13.4576 10.8556 13.484 10.8732H13.4884ZM16.0904 16.4609C16.0904 16.6593 16.011 16.8269 15.8567 16.968C15.7288 16.946 15.6362 16.8622 15.5832 16.7122C15.57 16.6284 15.5612 16.5667 15.5612 16.5314C15.5612 16.3771 15.5921 16.2227 15.6582 16.0772C15.7023 15.9846 15.7729 15.8523 15.8787 15.6759C15.8699 15.6891 15.8434 15.7773 15.7905 15.9405C15.7376 16.1036 15.7111 16.2271 15.7111 16.3109C15.7111 16.4432 15.7596 16.5579 15.8611 16.6505C15.9228 16.6726 15.9713 16.6505 16.0022 16.5755C16.0331 16.505 16.0639 16.4653 16.0904 16.4609ZM19.3627 8.84014C19.2701 8.50056 19.151 8.15215 19.0011 7.78611C18.8512 7.42448 18.71 7.06726 18.5689 6.72327C18.4542 6.78501 18.366 6.89085 18.3043 7.0408C18.2558 7.18192 18.2073 7.31864 18.1544 7.45535C18.2161 7.97134 18.3175 8.69461 18.4498 9.62515C18.5557 10.3528 18.6615 11.0981 18.7718 11.8655C18.882 12.6329 18.9658 13.3429 19.032 14C18.8644 14.1411 18.6792 14.2426 18.4763 14.2999C18.2734 14.3616 18.0529 14.3881 17.806 14.3881C17.7266 14.3881 17.656 14.3881 17.5899 14.3837C17.5237 14.3837 17.3958 14.366 17.215 14.3352C17.3076 14.0441 17.3738 13.806 17.4223 13.6163C17.4708 13.4267 17.4928 13.2238 17.4928 13.0121C17.4928 12.8004 17.462 12.6108 17.4046 12.4388C17.3429 12.2712 17.2459 12.1169 17.1136 11.9846C17.0518 11.9405 16.9813 11.9228 16.9019 11.9228C16.8181 11.9228 16.7255 11.9493 16.6284 11.9978C16.3021 12.2668 16.0507 12.5711 15.8699 12.9195C15.6891 13.2635 15.6009 13.634 15.6009 14.0221C15.6009 14.0485 15.6009 14.0926 15.6053 14.1455C15.6053 14.1985 15.6141 14.2602 15.6229 14.3308C14.9526 14.516 14.4807 14.6351 14.2029 14.6924C13.6295 14.8115 13.118 14.8732 12.6681 14.8732C12.0948 14.8732 11.6053 14.8026 11.1951 14.6615C10.71 14.4939 10.3043 14.2161 9.98677 13.8368C9.75303 13.2238 9.58545 12.4785 9.4796 11.6053C9.46637 11.4995 9.40022 10.71 9.28997 9.23264C9.21941 8.29328 9.11356 7.52591 8.97244 6.92613C8.80926 7.20838 8.72106 7.37156 8.70783 7.41125C8.66373 7.51709 8.64609 7.61853 8.64609 7.71996C8.64609 7.76406 8.65491 7.81258 8.66814 7.87432C8.68137 7.93606 8.70342 7.98456 8.72988 8.02867L9.33407 13.5017C9.29879 13.5854 9.23705 13.6604 9.14884 13.731C9.06064 13.7971 8.96803 13.8589 8.86659 13.9162C8.76075 13.9603 8.65932 13.978 8.55788 13.978C8.37266 13.978 8.17861 13.9162 7.97574 13.7883C7.84785 13.7089 7.68468 13.5855 7.4774 13.409C7.44212 13.4796 7.41566 13.5502 7.39802 13.6163C7.38037 13.6825 7.35832 13.7751 7.32745 13.8986C6.96582 13.9824 6.59978 14.1411 6.22492 14.3749C5.94267 14.5513 5.61632 14.8071 5.24146 15.1378C5.21499 15.1599 4.97244 15.3716 4.5226 15.7729C4.01985 16.2183 3.61411 16.5358 3.29658 16.7255C3.20397 16.7607 3.11577 16.7784 3.03197 16.7784C2.77619 16.7784 2.56009 16.6681 2.37486 16.452C2.33076 16.333 2.3043 16.2315 2.29107 16.1522C2.27784 16.0728 2.26902 15.9758 2.26902 15.8699C2.26902 15.4686 2.48071 14.9658 2.90408 14.3661C3.21279 13.9206 3.40243 13.6472 3.46417 13.5413L3.68467 13.5854C3.8699 13.4664 4.00221 13.2635 4.086 12.9813C4.10805 12.9107 4.15215 12.6726 4.22271 12.2712C4.17861 12.333 4.14333 12.3991 4.10805 12.4609C4.086 12.5402 4.04631 12.6108 3.98456 12.677C3.92282 12.7431 3.85667 12.7652 3.77729 12.7475C3.62293 12.5932 3.51268 12.43 3.45535 12.2668C3.39361 12.0992 3.36714 11.914 3.36714 11.7023C3.36714 11.3716 3.48181 10.8953 3.71555 10.2734C3.86549 9.87653 3.95369 9.62074 3.98897 9.50166C3.53914 10.4763 3.28335 11.0496 3.22602 11.226C3.09813 11.6141 3.03638 11.9802 3.03638 12.3286C3.03638 12.5182 3.06284 12.7167 3.11136 12.9151C3.15987 13.118 3.23484 13.3032 3.33186 13.4796C2.67475 14.441 2.31753 14.9791 2.26461 15.0981C2.0882 15.4642 2 15.8302 2 16.1874C2 16.3859 2.03087 16.5976 2.09702 16.8225C2.29548 17.1268 2.58655 17.2767 2.97464 17.2767C3.02315 17.2767 3.09813 17.2679 3.19515 17.2547C3.49063 17.1136 3.82139 16.8975 4.19184 16.6108C4.50937 16.3506 4.8269 16.0904 5.14443 15.839C5.51047 15.5436 5.83682 15.3142 6.11907 15.1511C6.48512 14.9394 6.85116 14.8071 7.20838 14.7585C7.35832 15.3451 7.71555 15.7949 8.28886 16.1125C8.36825 15.8743 8.44322 15.6362 8.5226 15.4024C8.54906 15.3583 8.5667 15.3098 8.57111 15.2481C8.57111 15.1863 8.57552 15.129 8.57552 15.0717C8.57552 14.9217 8.59757 14.8291 8.64609 14.7894C8.69019 14.7497 8.76075 14.7365 8.85336 14.7541C9.00331 14.6924 9.12679 14.5733 9.22381 14.4057C9.27233 14.3219 9.33848 14.172 9.42668 13.9603C9.51047 14.1632 9.59427 14.3705 9.68247 14.5733C9.78831 14.7982 9.92503 14.9702 10.097 15.0937C10.4234 15.3054 10.7718 15.4554 11.1466 15.548C11.5215 15.6406 11.9184 15.6847 12.3418 15.6847C12.4961 15.6847 12.6329 15.6803 12.7475 15.667C12.8622 15.6582 12.9857 15.6494 13.1136 15.6406C13.5281 15.5965 13.9294 15.5347 14.3087 15.4509C14.7674 15.3451 15.3804 15.1687 16.1521 14.9217C16.3771 15.0276 16.6108 15.107 16.849 15.1643C17.0871 15.2216 17.3429 15.2481 17.6119 15.2481C17.8809 15.2481 18.1323 15.2128 18.3705 15.1378C18.6086 15.0629 18.8159 14.9482 19.0011 14.7938C19.1202 14.5557 19.2084 14.2999 19.2613 14.0353C19.3142 13.7707 19.3407 13.4928 19.3407 13.2062C19.3407 12.9195 19.3186 12.6064 19.2789 12.2977C19.1996 11.8743 19.1246 11.4289 19.0452 10.9658C18.9658 10.4983 18.9305 10.097 18.9305 9.75745C18.9217 9.70012 18.8997 9.57223 18.86 9.37818C18.8203 9.17972 18.8026 9.00772 18.8026 8.85777C18.8026 8.84454 18.8026 8.79163 18.8115 8.70343C18.8203 8.61523 18.8335 8.54466 18.8556 8.48732C18.9261 8.58435 19.0011 8.68579 19.0849 8.78281C19.1643 8.87983 19.2437 8.95039 19.323 8.99449L19.376 8.85777L19.3627 8.84014ZM11.2348 12.6417C11.2481 12.7211 11.2481 12.7916 11.2348 12.8534C11.2216 12.9151 11.1643 13.0474 11.0673 13.2459C10.9967 13.2547 10.935 13.2371 10.882 13.193C10.8291 13.1489 10.7894 13.0959 10.7585 13.0342C10.7365 12.9372 10.7277 12.849 10.7277 12.7696C10.7277 12.6064 10.7541 12.4432 10.8115 12.2845C10.8467 12.1698 10.9129 12.0287 11.0143 11.8611C10.9702 11.9669 10.935 12.0728 10.9041 12.183C10.8732 12.2933 10.8556 12.3947 10.8556 12.4961C10.8556 12.6814 10.9173 12.8357 11.0364 12.9636C11.0981 12.9548 11.1378 12.9063 11.151 12.8093C11.1643 12.7122 11.1951 12.6593 11.2348 12.6461V12.6417ZM7.90077 10.957C7.87872 11.0717 7.85667 11.1819 7.83903 11.2966C7.80375 11.4245 7.73319 11.5083 7.62734 11.5524C7.5656 11.5259 7.51709 11.4995 7.48622 11.4774C7.45535 11.4553 7.42889 11.4201 7.40684 11.3716C7.39802 11.3275 7.39802 11.2613 7.39802 11.1687C7.39802 10.9835 7.42448 10.7982 7.47299 10.6086C7.49945 10.5028 7.56119 10.3264 7.6538 10.0794C7.6538 10.15 7.64057 10.2426 7.6097 10.3528C7.54796 10.613 7.51268 10.785 7.51268 10.86C7.51268 10.9923 7.55237 11.1158 7.62734 11.2216C7.71996 11.2437 7.77288 11.204 7.79052 11.1069C7.80816 11.0099 7.84344 10.957 7.90077 10.957ZM6.55568 7.29659L6.53363 7.57002C6.49835 7.57884 6.44983 7.57001 6.3925 7.54796C6.33076 7.52591 6.29107 7.5171 6.26902 7.5171C6.24256 7.5171 6.20728 7.52591 6.172 7.54796C6.10143 7.86549 6.03528 8.18302 5.96913 8.50055C5.96913 8.59758 5.98677 8.68579 6.01764 8.75635C6.04851 8.82691 6.10584 8.88866 6.19405 8.93717C6.3925 9.06506 6.48953 9.20176 6.48953 9.35171C6.48953 9.43109 6.46307 9.50165 6.41455 9.57222C6.11907 9.57222 5.9118 9.58986 5.78831 9.62955C5.66924 9.66924 5.55899 9.73539 5.46196 9.83683C5.48401 9.99118 5.55017 10.3175 5.66483 10.8115C5.72216 11.0717 5.76626 11.301 5.80154 11.495C5.83682 11.6891 5.85447 11.9052 5.85447 12.1478C5.85447 12.4653 5.80595 12.7608 5.70452 13.0386C5.74862 12.849 5.76626 12.6593 5.76626 12.4785C5.76626 12.3109 5.75303 12.1389 5.72216 11.9713C5.6957 11.8037 5.6516 11.6097 5.59427 11.3892C5.53693 11.1687 5.4796 10.9217 5.41786 10.6395C5.35612 10.3572 5.32966 10.1014 5.32966 9.8677C5.37817 9.72658 5.42227 9.62955 5.45755 9.57222C5.52811 9.46637 5.61632 9.40464 5.72216 9.39141L6.09261 9.28556C5.99559 9.18854 5.88534 9.13562 5.76626 9.13562C5.70893 9.13562 5.6516 9.15325 5.59868 9.18853C5.5634 9.23264 5.53253 9.27233 5.50165 9.31643C5.47519 9.28115 5.45755 9.24587 5.45755 9.21059C5.45755 9.17531 5.46637 9.14003 5.48842 9.10034C5.51047 9.06065 5.53253 9.02096 5.55017 8.97686C5.6075 8.89747 5.70011 8.84455 5.82359 8.81808C5.76185 8.66814 5.6957 8.5182 5.63396 8.36384C5.55017 8.18743 5.45314 8.03308 5.3473 7.89637C5.32525 7.95811 5.29438 7.99339 5.25028 7.99339C5.22822 7.99339 5.18412 7.97576 5.11797 7.94488C5.05182 7.91401 4.9989 7.89637 4.96362 7.89637C4.9151 7.84785 4.88864 7.78171 4.88864 7.6935C4.88864 7.63617 4.89746 7.58325 4.91069 7.53033C4.92393 7.47741 4.93716 7.4333 4.94598 7.40243C4.9548 7.37156 4.97244 7.3451 4.9989 7.32305C5.02536 7.301 5.05182 7.27895 5.07828 7.24807C5.25469 7.33187 5.40904 7.49064 5.54576 7.72438C5.6516 7.92283 5.75744 8.11687 5.86329 8.30651C5.9118 8.03749 5.94708 7.83903 5.96913 7.71555C6.01764 7.4774 6.10584 7.301 6.23374 7.18634C6.29107 7.17752 6.33517 7.17752 6.36604 7.18634C6.39691 7.19516 6.45425 7.23043 6.54245 7.30099L6.55568 7.29659ZM4.95921 14.0926C4.92393 14.2205 4.89746 14.3264 4.87541 14.4101C4.85336 14.4939 4.80926 14.5601 4.7387 14.613C4.65932 14.6262 4.60639 14.6042 4.57111 14.5513C4.53583 14.4675 4.50937 14.4057 4.49614 14.3705C4.48291 14.2734 4.47409 14.1985 4.47409 14.1499C4.47409 13.9735 4.50937 13.7883 4.57993 13.5943C4.6505 13.4002 4.6946 13.2679 4.71665 13.1974C4.67255 13.4443 4.63286 13.6869 4.58875 13.9294C4.58875 14.0265 4.60198 14.1058 4.62404 14.1676C4.6505 14.2293 4.68578 14.2823 4.73429 14.3308C4.77839 14.3087 4.81367 14.2779 4.84013 14.2293C4.86659 14.1852 4.88864 14.1411 4.90187 14.097H4.9548L4.95921 14.0926ZM17.0254 13.118C17.0254 13.1444 17.0562 13.2503 17.1224 13.4267C17.1488 13.5061 17.1665 13.5678 17.1665 13.6163C17.1665 13.7133 17.1047 13.7795 16.9768 13.806C16.8622 13.8545 16.7519 13.8986 16.6417 13.9339C16.5314 13.9691 16.4212 13.9956 16.3065 14.0176C16.1742 13.8853 16.086 13.7971 16.0507 13.753C15.9581 13.6384 15.9008 13.5369 15.8831 13.4443C15.9802 13.2812 16.0948 13.1356 16.2227 13.0121C16.3859 12.8578 16.5314 12.7784 16.6549 12.7784C16.8093 12.7784 16.9327 12.8931 17.0254 13.118Z" fill="white"/>
</svg>
