<svg width="24" height="24" viewBox="0 0 24 24" fill="none" xmlns="http://www.w3.org/2000/svg">
<path fill-rule="evenodd" clip-rule="evenodd" d="M18.3565 7.29688C18.2429 7.3909 18.1097 7.47709 17.953 7.55153C17.4829 7.71607 17.0167 7.8767 16.5504 8.04124C16.6445 7.93938 16.7385 7.86103 16.8325 7.79834C17.001 7.68473 17.2321 7.5907 17.522 7.51627C17.8119 7.44183 18.0901 7.36739 18.3526 7.30079L18.3565 7.29688ZM21.9961 13.4751C21.9961 13.9962 21.9804 14.4193 21.9491 14.7445C21.9177 15.0696 21.8433 15.4183 21.7218 15.7866C21.7218 15.0148 21.667 14.1647 21.5612 13.2283C21.5064 12.7582 21.3888 11.9276 21.2086 10.7327C21.0284 9.53782 20.9109 8.67983 20.856 8.16269C20.8756 8.13919 20.9109 8.06475 20.9696 7.94722C21.0519 7.77092 21.1342 7.67298 21.2243 7.65731C21.2987 7.89629 21.3732 8.10393 21.4515 8.27631C21.714 8.90314 21.855 9.24399 21.8746 9.30275C21.8315 9.30275 21.7571 9.2479 21.6592 9.14212C21.5573 9.03635 21.4868 9.005 21.4437 9.0481C21.6239 10.529 21.8119 12.0021 22 13.4751H21.9961ZM18.2625 10.8698C18.2116 10.9247 18.1489 10.956 18.0744 10.956C18.0509 10.956 18.0196 10.9482 17.9804 10.9364L17.9256 10.8894C17.8825 10.9639 17.8511 11.0187 17.8315 11.0501C17.7884 11.1127 17.7336 11.1441 17.6709 11.1441C17.5455 11.1558 17.4711 11.101 17.4437 10.9756C17.4515 10.9247 17.4515 10.8503 17.4437 10.7562C17.4358 10.6583 17.4358 10.6034 17.4358 10.5917C17.4358 10.5408 17.4398 10.4898 17.4515 10.4311C17.4594 10.3762 17.4946 10.3253 17.5495 10.2822C17.5573 10.3253 17.5573 10.3919 17.5495 10.4781C17.5416 10.5643 17.5416 10.6113 17.5416 10.6191C17.5416 10.7366 17.5808 10.8228 17.6552 10.8738C17.7258 10.862 17.7728 10.8385 17.8002 10.8032C17.8276 10.768 17.8433 10.7249 17.8433 10.6779C17.8433 10.6348 17.8355 10.5682 17.8198 10.4859C17.8041 10.3997 17.7963 10.3488 17.7963 10.3292C17.7963 10.2469 17.8198 10.1803 17.8707 10.1333C17.8942 10.1764 17.9099 10.2391 17.9099 10.3214V10.4624C17.9099 10.5447 17.9177 10.6113 17.9334 10.6583C17.9491 10.7092 18.0157 10.7249 18.1371 10.7053C18.1489 10.6857 18.1567 10.6544 18.1567 10.6113C18.1567 10.5878 18.141 10.5329 18.1136 10.4546C18.0862 10.3762 18.0705 10.3174 18.0705 10.2822C18.0705 10.2273 18.094 10.1764 18.1371 10.1333C18.239 10.2704 18.286 10.4467 18.286 10.6583C18.286 10.7601 18.2782 10.8307 18.2664 10.8738L18.2625 10.8698ZM16.2135 10.0432C16.2135 10.149 16.1939 10.2548 16.1508 10.3645C16.1117 10.4702 16.0451 10.5408 15.9589 10.5721C15.8844 10.6034 15.8139 10.5643 15.7512 10.4506C15.7395 10.3762 15.7316 10.3174 15.7316 10.2822C15.7316 10.1803 15.7434 10.0941 15.763 10.0197C15.7865 9.94526 15.8492 9.79639 15.9549 9.57699C15.9471 9.60833 15.9314 9.68277 15.9001 9.79639C15.8688 9.91392 15.8531 10.0001 15.8531 10.0628C15.8531 10.1686 15.8883 10.2548 15.9549 10.3174C16.0372 10.3292 16.0921 10.29 16.1195 10.1999C16.1469 10.1098 16.1783 10.0589 16.2096 10.0432H16.2135ZM15.4339 7.5241C15.4025 7.66906 15.2968 7.76308 15.1126 7.8101C14.9324 7.85711 14.7561 7.90021 14.5877 7.93546C13.5847 8.24888 12.9187 8.46828 12.5896 8.59756C12.2605 8.72685 11.8923 8.89531 11.4848 9.11078C11.5906 8.87964 11.8766 8.67983 12.3389 8.50745C12.5504 8.43302 12.7698 8.35466 12.9892 8.27239C13.5299 8.09217 13.9295 7.95505 14.192 7.86886C14.6738 7.70432 15.0891 7.5907 15.4339 7.52019V7.5241ZM18.1332 12.0647C18.1019 12.1666 18.047 12.2724 17.9647 12.386C17.8472 12.5545 17.7767 12.6563 17.7571 12.6877C17.6709 12.5858 17.5495 12.4996 17.3967 12.4213C17.2439 12.3429 17.1263 12.2802 17.0441 12.2371C17.0127 12.3233 16.9736 12.4017 16.9305 12.4644C16.8443 12.578 16.7542 12.6877 16.668 12.7934L16.0294 12.5114C16.1234 12.3233 16.1861 12.2058 16.2174 12.1627C16.3193 12.0256 16.429 11.9551 16.5465 11.9551L17.0637 12.2293L17.5534 11.6103C17.5534 11.6103 17.6748 11.6965 17.8629 11.8258C17.9961 11.912 18.0862 11.9942 18.1371 12.0687L18.1332 12.0647ZM19.6376 13.2401C19.6376 12.8953 19.5005 12.0373 19.2223 10.6622C19.1048 10.0667 19.0421 9.54957 19.0421 9.11078C19.0656 9.13037 19.1283 9.19697 19.2223 9.30667C19.285 9.38894 19.3516 9.43595 19.4182 9.44771C19.2419 8.80912 19.0343 8.19403 18.7875 7.60638C18.6817 7.7004 18.6112 7.79443 18.5759 7.88845C18.5406 7.98248 18.525 8.09609 18.525 8.22538C18.525 8.30765 18.5367 8.43693 18.5642 8.62107C18.5877 8.80128 18.6033 8.94232 18.6033 9.04418L19.3164 13.1891L19.4104 13.9805C19.2615 14.0824 19.097 14.1607 18.9167 14.2156C18.7365 14.2704 18.5563 14.3018 18.3761 14.3018C18.1645 14.3018 17.9765 14.2665 17.8119 14.1999C17.7101 14.1568 17.6474 14.0941 17.6161 14.0158C17.5847 13.9374 17.5691 13.8395 17.5691 13.718V13.5221C17.4554 13.5613 17.3262 13.6553 17.1734 13.8121C16.9931 14.0001 16.8678 14.1176 16.8051 14.1607C16.6366 14.2939 16.4721 14.388 16.3115 14.4467C16.1508 14.5055 15.9902 14.5368 15.8257 14.5368C15.4065 14.5368 14.8972 14.2704 14.3017 13.7376C13.5064 13.0246 13.0284 12.6211 12.8717 12.5349C12.7894 12.4839 12.4956 12.3272 11.9863 12.0647C11.6219 11.8767 11.3477 11.6886 11.1596 11.5006C11.1518 11.4262 11.1832 11.3517 11.2458 11.2734C11.2772 11.2342 11.332 11.1754 11.4143 11.0932C11.9549 10.7915 12.5426 10.5133 13.1812 10.2548C13.7532 10.0236 14.3604 9.8003 15.0069 9.58875C15.1126 9.54957 15.7356 9.3576 16.8678 9.005C16.8874 9.005 16.9305 8.99717 17.0049 8.9815C17.0754 8.96583 17.1342 8.95799 17.1773 8.95799C17.2713 8.95799 17.3418 8.98542 17.3928 9.04418C17.4123 9.1147 17.4202 9.1813 17.4202 9.25182C17.4202 9.33409 17.4045 9.40069 17.3732 9.44771C17.0362 9.89433 16.6954 10.3331 16.3585 10.7719C15.9628 11.293 15.6768 11.7357 15.4927 12.1078L16.7816 10.5094C17.0519 10.1451 17.2282 9.90216 17.3066 9.7768C17.6004 9.30667 17.7493 8.85221 17.7493 8.41343C17.7179 8.3194 17.6396 8.27239 17.5142 8.27239C17.1459 8.33507 16.7228 8.43693 16.2527 8.57405C15.9785 8.65633 15.5788 8.78561 15.0578 8.96974C14.5367 9.14996 14.1254 9.291 13.8159 9.39286C13.3771 9.5574 12.9422 9.71803 12.5073 9.88258C11.5906 10.2352 11.0421 10.7288 10.8619 11.3674C10.6621 10.0745 10.4505 8.88355 10.2311 7.79443C10.1763 7.85711 10.1254 7.93938 10.0823 8.03733C10.0392 8.13919 9.99608 8.24105 9.96082 8.34683C10.0862 9.02459 10.2155 9.71411 10.3526 10.4154C10.4858 11.1167 10.5916 11.7944 10.666 12.4448C10.7405 13.0951 10.8149 13.7611 10.8932 14.4389C10.9755 14.8855 11.144 15.2303 11.4025 15.481C11.5788 15.6142 11.7865 15.6769 12.0215 15.6769C12.1978 15.6769 12.3859 15.6456 12.5857 15.579C12.7855 15.5124 12.9892 15.4301 13.1929 15.3361C13.3967 15.2381 13.5573 15.0853 13.6787 14.8698C13.7806 14.6935 13.8433 14.4742 13.8668 14.2117C14.1685 14.5016 14.4427 14.721 14.6934 14.8777C15.0069 15.0775 15.3164 15.2107 15.6259 15.2734C15.951 15.2734 16.2527 15.195 16.523 15.0383C16.7973 14.8816 17.0362 14.6661 17.2439 14.388C17.3457 14.3566 17.4202 14.4271 17.4711 14.6034C17.522 14.7797 17.6004 14.8777 17.7062 14.8933C17.9256 14.9639 18.1528 14.9952 18.3918 14.9952C18.6112 14.9952 18.8071 14.9639 18.9794 14.9051C19.1518 14.8463 19.2968 14.7484 19.4182 14.6074C19.5005 14.3801 19.5553 14.1529 19.5867 13.9257C19.618 13.6984 19.6337 13.4634 19.6337 13.2244L19.6376 13.2401ZM15.0578 11.1167C15.0695 11.1911 15.0774 11.2342 15.0774 11.2381C15.0774 11.3086 15.046 11.34 14.9833 11.34C14.8893 11.3204 14.8188 11.3125 14.7757 11.3125C14.7013 11.3125 14.6621 11.3674 14.6621 11.4732C14.619 11.673 14.5837 11.8219 14.5602 11.9159C14.5171 12.0843 14.4584 12.2136 14.38 12.2998C14.3369 12.2606 14.2703 12.1392 14.1881 11.9315C14.1019 11.7239 14.0039 11.622 13.8903 11.622C13.859 11.622 13.8198 11.6299 13.7689 11.6495L13.6552 11.5633C13.6748 11.481 13.6983 11.3987 13.7297 11.3086C13.761 11.2224 13.8237 11.1715 13.9177 11.1598C14.0235 11.242 14.1175 11.3556 14.1998 11.5084C14.2429 11.5829 14.3095 11.72 14.3957 11.9237C14.4388 11.8806 14.4976 11.7239 14.5642 11.4575C14.6347 11.1911 14.7287 11.0579 14.8541 11.0579C14.9089 11.0579 14.9755 11.0775 15.05 11.1127L15.0578 11.1167ZM11.2106 8.75427C11.1401 9.06769 11.0225 9.36152 10.8541 9.63968C10.9285 9.50647 10.9873 9.36935 11.0343 9.22048C11.0774 9.07161 11.1009 8.92273 11.1009 8.76602C11.1009 8.63282 11.0852 8.51529 11.0539 8.40559C11.0225 8.2959 10.9677 8.19795 10.8932 8.10784C10.905 8.04516 10.9207 7.99423 10.9363 7.95897C10.952 7.91979 10.9833 7.90021 11.0264 7.89237C11.1087 7.99423 11.1596 8.11568 11.1832 8.26064C11.2067 8.40559 11.2145 8.57014 11.2145 8.75819L11.2106 8.75427ZM15.8374 13.2949C15.8257 13.3654 15.8139 13.432 15.7982 13.5026C15.7669 13.6201 15.712 13.7298 15.6298 13.8238C15.5671 13.8473 15.5122 13.8316 15.4691 13.7768C15.4613 13.769 15.4378 13.718 15.3947 13.6162C15.3869 13.5731 15.3869 13.5026 15.3869 13.4085C15.3869 13.1069 15.4535 12.817 15.5828 12.5349C15.5514 12.7464 15.5201 12.9619 15.4887 13.1735C15.4887 13.2753 15.5005 13.3537 15.5201 13.4124C15.5436 13.4712 15.5906 13.5221 15.665 13.5692L15.7865 13.2949H15.8335H15.8374ZM17.6043 15.6181C17.6043 15.814 17.5651 15.9903 17.4868 16.1549C17.4084 16.3194 17.287 16.4487 17.1263 16.5505C17.1459 16.5114 17.2125 16.4134 17.334 16.2489C17.428 16.1235 17.475 16.0138 17.475 15.9198C17.475 15.8454 17.4515 15.7709 17.4006 15.6926C17.3692 15.673 17.3301 15.673 17.2831 15.6926C17.236 15.7122 17.2047 15.7435 17.1929 15.7866C17.1812 15.7043 17.1929 15.6299 17.24 15.5594C17.2831 15.4888 17.3301 15.4418 17.381 15.4183C17.4437 15.4066 17.4946 15.4183 17.5299 15.4614C17.569 15.5006 17.5926 15.5554 17.6043 15.6181ZM8.59745 7.71999C8.57787 7.75917 8.57003 7.79443 8.57003 7.8336C8.57003 7.8767 8.58962 7.93546 8.62488 8.00207C8.66405 8.07259 8.67973 8.12352 8.67973 8.16269C8.67973 8.21754 8.64447 8.26847 8.57787 8.31157C8.47209 8.32332 8.36631 8.41343 8.25661 8.57405C8.11949 8.78169 8.01371 8.91098 7.94711 8.95799C7.82958 9.09511 7.69246 9.22048 7.54358 9.33409C7.43781 9.40853 7.19099 9.56132 6.79922 9.78463C6.8619 9.72978 7.07737 9.54957 7.44956 9.2479C7.91969 8.86397 8.22919 8.51921 8.38198 8.20579C8.35847 8.18228 8.2762 8.1431 8.13908 8.09217C8.00196 8.04124 7.93144 7.97856 7.93144 7.90412C7.93144 7.88062 7.93928 7.84144 7.95886 7.78659C7.97845 7.73174 8.01371 7.68081 8.07248 7.62988C8.08423 7.61813 8.17434 7.55936 8.34672 7.46142C8.42899 7.44183 8.48776 7.46142 8.52693 7.52802C8.56611 7.61421 8.58962 7.67689 8.60137 7.71607L8.59745 7.71999ZM8.95397 9.4673C8.85211 9.41245 8.75025 9.34976 8.64838 9.28708C8.54652 9.2244 8.44466 9.1813 8.3428 9.15388C8.25661 9.24007 8.17826 9.33801 8.11557 9.44379C8.09598 9.47513 8.04505 9.57699 7.95495 9.75329C8.06856 9.82381 8.17434 9.87866 8.26836 9.92567C8.36631 9.97268 8.46817 10.0158 8.57395 10.051C8.73849 9.85123 8.86386 9.65143 8.95005 9.45946L8.95397 9.4673ZM9.49853 10.0589C9.40451 9.97268 9.31832 9.90216 9.23604 9.85123C9.15377 9.8003 9.06758 9.76504 8.97356 9.74937C8.81685 10.055 8.64055 10.2117 8.44858 10.2117C8.33105 10.2117 8.17826 10.1568 7.99804 10.0432C7.91185 10.1059 7.84917 10.1647 7.81783 10.2234C7.78648 10.2783 7.72772 10.4232 7.63761 10.6544C7.7238 10.7249 7.81783 10.7797 7.91577 10.8189C8.01371 10.8581 8.10774 10.8973 8.20176 10.9364C8.25661 10.8738 8.31146 10.7993 8.36239 10.7092C8.46817 10.529 8.54652 10.4115 8.59745 10.3605L9.10676 10.6505C9.18903 10.5564 9.25955 10.4624 9.32223 10.3684C9.36141 10.3057 9.42018 10.2038 9.50245 10.0589H9.49853ZM6.16063 8.85613C6.16063 9.02068 6.12537 9.15388 6.05877 9.25966C6.00784 9.27925 5.9569 9.26749 5.89814 9.23223C5.84329 9.19306 5.80411 9.14604 5.78452 9.08336C5.75318 9.01284 5.73751 8.93449 5.73751 8.8483C5.73751 8.73468 5.77277 8.60148 5.83937 8.44477C5.89422 8.33899 5.9334 8.26064 5.95299 8.20971C5.94515 8.2528 5.92556 8.33116 5.8903 8.44477C5.85504 8.55838 5.83937 8.64066 5.83937 8.68767C5.83937 8.75819 5.85504 8.82087 5.88639 8.87572L6.02742 9.02459L6.16063 8.85613ZM5.99216 11.2538C6.00392 11.3282 6 11.4066 5.98433 11.4888C5.96474 11.5711 5.92165 11.6377 5.85113 11.6847C5.78844 11.6847 5.73751 11.6573 5.70225 11.6064C5.66308 11.5515 5.63565 11.4888 5.61606 11.4183C5.59647 11.3478 5.58864 11.2695 5.58864 11.1872C5.58864 11.0853 5.60431 10.9835 5.63957 10.8777C5.67483 10.7719 5.72184 10.6661 5.78452 10.5682C5.76494 10.623 5.74535 10.6935 5.72968 10.7758C5.71009 10.8581 5.70225 10.9286 5.70225 10.9913C5.70225 11.1598 5.75318 11.3047 5.85113 11.4222C5.8903 11.4222 5.92165 11.3948 5.94515 11.3439C5.96866 11.289 5.98433 11.2616 5.99216 11.2538ZM8.88737 15.5985C8.86386 15.7004 8.84035 15.7983 8.82076 15.9002C8.78159 16.0177 8.71499 16.1 8.61312 16.1431C8.56219 16.1549 8.52302 16.1431 8.49168 16.1157C8.43683 16.0217 8.39765 15.959 8.37806 15.9276C8.36631 15.8532 8.35847 15.7983 8.35847 15.767C8.35847 15.6338 8.38981 15.4928 8.4525 15.34C8.51518 15.1872 8.57787 15.0422 8.64055 14.9012C8.64055 14.9639 8.62488 15.0422 8.59354 15.1362C8.5191 15.3635 8.47992 15.5084 8.47992 15.579C8.47992 15.6181 8.48384 15.6573 8.49559 15.7043C8.50343 15.7513 8.53869 15.8062 8.59354 15.8689C8.64447 15.8767 8.68756 15.861 8.72674 15.8219C8.76592 15.7827 8.78942 15.7396 8.80118 15.6886C8.79334 15.6769 8.80901 15.6456 8.84819 15.5946H8.88737V15.5985ZM4.51518 8.35074L4.46033 8.56622C4.39765 8.52704 4.35455 8.49962 4.32713 8.48003C4.2762 8.44085 4.22527 8.43693 4.17826 8.46044C4.10382 8.5623 4.05289 8.72293 4.02155 8.95016C3.99021 9.17738 3.96278 9.42028 3.93144 9.68277C4.04505 9.74546 4.13516 9.8003 4.20568 9.85123C4.29971 9.92567 4.37023 10.0119 4.41332 10.1059C4.38198 10.2313 4.20176 10.3096 3.87659 10.3409C3.55142 10.3723 3.37512 10.4898 3.35162 10.6975C3.48874 11.5006 3.62977 12.2998 3.77473 13.0951C3.77473 13.4399 3.75906 13.6906 3.7238 13.8512C3.68854 14.0119 3.62977 14.1803 3.55142 14.3527C3.6141 14.1725 3.65328 13.9609 3.66895 13.7219C3.68462 13.483 3.69246 13.338 3.69246 13.2792C3.69246 12.9893 3.64936 12.6563 3.55926 12.2724C3.35162 11.3752 3.24976 10.8072 3.24976 10.5721C3.24976 10.435 3.32027 10.3214 3.45739 10.2352C3.55142 10.1725 3.68071 10.1176 3.84133 10.0745C3.86484 10.0863 3.89618 10.0824 3.93536 10.0667C3.97453 10.0471 3.99412 10.0393 4.00196 10.0393C3.93144 9.96877 3.85309 9.93742 3.7669 9.93742C3.72772 9.93742 3.69246 9.94526 3.65328 9.96485L3.49265 10.1059C3.4809 10.0824 3.4809 10.0471 3.49265 10.004C3.53575 9.91783 3.56317 9.85515 3.56709 9.81597L3.80215 9.65535C3.75906 9.60442 3.67287 9.43987 3.5475 9.1578C3.45348 8.94624 3.33595 8.83654 3.19882 8.83654C3.17532 8.83654 3.13614 8.84438 3.08521 8.85613C3.01469 8.82479 2.98335 8.76994 2.98335 8.68767C2.98335 8.64849 2.99119 8.59364 3.00686 8.52312C3.02253 8.4526 3.03036 8.40951 3.03036 8.39776C3.05387 8.33507 3.09305 8.30373 3.14398 8.30373C3.16748 8.30373 3.19491 8.31157 3.21841 8.32332C3.24192 8.33507 3.26151 8.34683 3.27326 8.35074C3.36729 8.44477 3.45348 8.56622 3.52791 8.71901C3.63369 8.9384 3.74339 9.15388 3.857 9.36935C3.9001 9.07944 3.93144 8.85613 3.95103 8.69159C3.99412 8.386 4.08423 8.22929 4.22527 8.22929C4.31146 8.22929 4.4094 8.26847 4.51518 8.35074ZM9.80803 12.6015C9.72184 12.5819 9.64349 12.5741 9.57297 12.5741C9.39667 12.5741 9.18903 12.6446 8.94221 12.7817C8.44074 13.0638 8.09598 13.2048 7.90793 13.2048C7.8335 13.2048 7.75906 13.197 7.68071 13.1774C7.53183 13.1265 7.4143 13.0324 7.33595 12.8914C7.25759 12.7504 7.21058 12.5936 7.19099 12.4173C7.10872 12.4722 7.04212 12.5662 6.98335 12.6994C6.90108 12.8875 6.85015 12.9933 6.83448 13.0207L7.21841 14.3645C6.76787 14.7171 6.21547 15.0383 5.56513 15.3321C5.16552 15.5124 4.57003 15.7435 3.77865 16.0177C2.98727 16.292 2.39569 16.5231 2 16.7033C2.33301 16.6524 2.67777 16.6015 3.0382 16.5466C3.39863 16.4918 3.71988 16.4683 4.00196 16.4683C5.23213 16.0412 5.96866 15.7631 6.21156 15.6299C7.01861 15.1911 7.48874 14.6034 7.62194 13.8708C7.77865 13.8316 8.04505 13.7259 8.42116 13.5496C8.75416 13.4007 9.02449 13.2988 9.23996 13.2479C9.37708 13.2714 9.4476 13.3302 9.4476 13.4164C9.4476 13.4595 9.39275 13.5652 9.28697 13.7376C9.1812 13.9061 9.14202 14.0354 9.17336 14.1216C9.36141 13.9453 9.51812 13.765 9.64349 13.577C9.79236 13.3458 9.87072 13.1304 9.87072 12.9266C9.87072 12.8013 9.84721 12.6916 9.80411 12.5976L9.80803 12.6015ZM8.37806 7.88845V7.79443C8.37806 7.7435 8.35455 7.71999 8.30362 7.71999C8.2331 7.71999 8.18609 7.7435 8.16259 7.79443L8.37806 7.88845ZM13.6513 14.055C13.6004 14.2979 13.4319 14.4977 13.142 14.6465C12.9775 14.7327 12.7111 14.8267 12.3428 14.9208C12.2723 14.9404 12.2057 14.9482 12.1352 14.9482C12.0215 14.9482 11.9158 14.9325 11.8217 14.8973C11.7238 14.862 11.6219 14.815 11.5162 14.7523C11.285 14.4898 11.1479 14.1216 11.1087 13.6514C11.0695 13.1813 11.0304 12.7308 10.999 12.2959C11.2106 12.4761 11.5044 12.6642 11.8727 12.8522C12.6249 13.2362 13.1146 13.5339 13.3379 13.7533C13.3614 13.7846 13.428 13.8473 13.5338 13.9413C13.5847 13.9844 13.62 14.0236 13.6474 14.055H13.6513Z" fill="white"/>
</svg>
