<svg width="24" height="24" viewBox="0 0 24 24" fill="none" xmlns="http://www.w3.org/2000/svg">
<path fill-rule="evenodd" clip-rule="evenodd" d="M22 13.7722C22 14.0422 21.9705 14.3122 21.9067 14.5822C21.8429 14.8522 21.7595 15.1419 21.6465 15.4512C21.7055 15.0388 21.7349 14.6313 21.7349 14.2337C21.7349 13.6691 21.6858 13.0604 21.5876 12.4026C21.4894 11.7447 21.3913 11.0722 21.2882 10.3898C21.1851 9.70741 21.136 9.10849 21.136 8.59794C21.0722 8.5243 21.0378 8.45557 21.0378 8.38194C21.0378 8.3083 21.0673 8.22975 21.1262 8.13648C21.2882 7.8812 21.3716 7.74865 21.3716 7.73392C21.3962 7.81738 21.514 8.05793 21.7251 8.45066C21.8871 8.75994 21.9705 9.01522 21.9705 9.22632C21.9705 9.28032 21.9558 9.36377 21.9313 9.48159C21.8576 9.34413 21.8036 9.24104 21.7693 9.17231C21.7349 9.10359 21.6907 9.03977 21.6465 8.98086C21.6465 9.41777 21.7251 10.4045 21.8822 11.9362C21.9607 12.702 22 13.3157 22 13.7722ZM17.9254 7.91065C17.729 8.16593 17.4001 8.38194 16.9337 8.55867C16.541 8.71085 16.1483 8.85813 15.7555 9.01031C15.3873 9.20668 15.0241 9.39814 14.6559 9.58959C14.6362 9.53559 14.646 9.47668 14.6902 9.41286C14.7344 9.34904 14.7737 9.28523 14.813 9.22632C15.1861 9.04468 15.7015 8.81885 16.3544 8.54885C16.8797 8.33775 17.4001 8.12666 17.9254 7.91065ZM21.136 14.1257C20.9445 14.1453 20.7629 14.1551 20.5862 14.1551C20.3063 14.1551 20.002 14.1355 19.6829 14.0913C19.3638 14.0471 19.0496 13.9931 18.7501 13.9293C18.6568 13.9097 18.1757 13.7968 17.3068 13.5857C17.0172 13.512 16.7325 13.4531 16.4428 13.3991C17.0368 13.0702 17.4934 12.8395 17.8076 12.7069C18.1217 12.5744 18.4261 12.4664 18.7207 12.3878C18.8238 12.8198 18.9514 13.1389 19.1036 13.35C19.2361 13.5268 19.3932 13.6544 19.5749 13.7329C19.7712 13.7673 19.948 13.7084 20.1051 13.5562C20.1247 13.4826 20.2376 13.2666 20.4389 12.8984C20.5911 12.6235 20.6647 12.3927 20.6647 12.2111C20.6647 12.0295 20.596 11.8675 20.4585 11.7104C20.3162 11.5876 20.1296 11.5238 19.9087 11.5238C19.7909 11.5238 19.6583 11.5434 19.5061 11.5827C19.354 11.622 19.2116 11.6662 19.0741 11.7104C19.0103 11.4158 18.9465 11.1213 18.8876 10.8267C18.8679 10.7678 18.8581 10.7187 18.8581 10.6794C18.8581 10.5567 18.9514 10.4389 19.133 10.326C19.354 10.1885 19.4914 10.0903 19.5356 10.0314C19.5896 10.0167 19.6534 9.95778 19.732 9.85469C19.8743 9.66323 19.9823 9.56996 20.0461 9.56996C20.1001 9.56996 20.1591 9.60432 20.2229 9.67796L20.3211 9.44232C20.1983 9.40304 20.1345 9.34413 20.1345 9.26559C20.1345 9.24595 20.1541 9.18704 20.1983 9.08395C20.2425 8.98086 20.2621 8.90231 20.2621 8.8434C20.2621 8.79921 20.2572 8.76485 20.2425 8.74521C20.2032 8.68139 20.1591 8.62739 20.1149 8.59303C20.0707 8.55867 20.0167 8.55375 19.9578 8.5783C19.8645 8.60285 19.7909 8.65194 19.732 8.72558C19.7123 8.75012 19.6681 8.82376 19.5945 8.94158C19.57 9.03977 19.5945 9.13795 19.6829 9.23613C19.727 9.29013 19.8056 9.36868 19.9087 9.48159C19.7712 9.63868 19.6092 9.79087 19.4178 9.93814C19.2263 10.0854 19.0447 10.2229 18.8679 10.3554C18.8532 10.2621 18.8287 10.1247 18.7943 9.94305C18.7599 9.76142 18.7403 9.58959 18.7403 9.4325C18.7403 9.33923 18.7452 9.25086 18.7599 9.1674C18.7747 9.08395 18.7943 9.00049 18.8287 8.92194C18.8434 8.94158 18.8876 9.01031 18.9661 9.12813C19.0201 9.20668 19.0692 9.26068 19.1134 9.29504C19.1134 9.02013 19.0496 8.72558 18.9269 8.41139C18.8827 8.29848 18.7599 8.03829 18.5636 7.62592C18.4654 7.76338 18.3918 7.87138 18.3476 7.94993C18.2838 8.06775 18.2347 8.18066 18.2003 8.28375C18.2985 8.71576 18.3721 9.1134 18.4212 9.47177C18.4703 9.83014 18.4948 10.2081 18.4948 10.6009C18.4752 10.6402 18.4212 10.6843 18.3328 10.7334C18.2445 10.7825 18.1856 10.8316 18.161 10.8856C18.2052 10.9003 18.269 10.8856 18.3476 10.8463C18.4261 10.8071 18.485 10.7923 18.5243 10.7973L18.6519 11.8085C18.1757 12.0196 17.7192 12.2258 17.2921 12.432C16.865 12.6382 16.433 12.8542 16.001 13.0751C15.7457 13.2126 15.5493 13.35 15.4119 13.4875C15.2351 13.6642 15.1173 13.8704 15.0584 14.106C15.0977 14.1109 15.1615 14.0815 15.2548 14.0177C15.6475 14.0177 16.2072 14.1011 16.9337 14.273C17.3265 14.3662 17.6505 14.435 17.9057 14.4791C17.4541 14.651 17.1743 14.7491 17.0712 14.7835C16.541 14.9602 16.055 15.0682 15.6082 15.1075C15.5739 15.1124 15.5248 15.1173 15.4512 15.1173C15.1959 15.1173 14.9651 15.0486 14.754 14.9062C14.543 14.7639 14.376 14.5773 14.2435 14.3417C14.052 13.7477 13.9195 13.0113 13.8409 12.1325C13.7869 11.3667 13.7378 10.596 13.6937 9.82523C13.62 8.92685 13.5022 8.18557 13.3402 7.59646C13.2813 7.6701 13.2224 7.78792 13.1635 7.95975C13.1291 8.05302 13.0997 8.12175 13.0751 8.17575C13.1782 8.67157 13.2666 9.24104 13.3402 9.87433C13.3844 10.3014 13.4433 10.9298 13.5071 11.7594C13.5709 12.5891 13.6151 13.1095 13.6397 13.3108C13.6642 13.512 13.6888 13.7771 13.7231 14.0962C13.7869 14.5675 13.9048 14.9308 14.0668 15.1861C14.1846 15.3873 14.3417 15.5493 14.5331 15.6721C14.7246 15.7948 14.9259 15.8537 15.137 15.8537C15.2106 15.8537 15.2597 15.8537 15.2941 15.8439C15.6868 15.7899 16.1532 15.6917 16.6883 15.5395C16.9877 15.4561 17.4394 15.3235 18.0432 15.1468C18.4556 15.0437 18.8238 14.9651 19.1527 14.9111C19.4816 14.8571 19.8154 14.8326 20.164 14.8326C20.2229 14.8326 20.3063 14.8326 20.4094 14.8375C20.5125 14.8375 20.6892 14.8571 20.9298 14.8817C20.9887 14.7786 21.0329 14.646 21.0673 14.489C21.082 14.4448 21.1016 14.322 21.136 14.1257ZM15.5199 11.5729C15.4855 11.6662 15.4561 11.7398 15.4315 11.7938C15.407 11.8478 15.3579 11.892 15.2941 11.9264C15.4168 11.7055 15.4806 11.4453 15.4806 11.1507C15.4806 10.758 15.3873 10.4192 15.1959 10.1394L15.2941 9.87433C15.3972 9.99215 15.4806 10.1443 15.5444 10.3309C15.6082 10.5174 15.6377 10.704 15.6377 10.8954C15.6377 11.136 15.5984 11.3618 15.5199 11.5729ZM19.3098 16.1188C19.246 16.271 19.1969 16.379 19.1625 16.4526C19.1036 16.5901 19.0299 16.6981 18.9367 16.7766L18.2494 16.2366L18.6618 15.7064L19.3098 16.1188ZM11.622 8.15611L11.5533 8.3623C11.4894 8.34757 11.4207 8.33775 11.3569 8.32302C11.2833 8.32302 11.244 8.3623 11.2391 8.44084C11.2047 8.75503 11.1753 9.06431 11.1507 9.37359C11.0722 9.31468 11.0034 9.23613 10.9445 9.13795C10.8513 8.97595 10.7629 8.80903 10.6696 8.63721C10.6647 8.68139 10.6451 8.70594 10.6107 8.70594C10.5371 8.66667 10.488 8.64212 10.4536 8.63721C10.3751 8.61267 10.3358 8.55866 10.3358 8.48012C10.3358 8.43593 10.3407 8.39175 10.3554 8.35248C10.3702 8.3132 10.3849 8.2592 10.4045 8.19538C10.4438 8.1512 10.4831 8.12666 10.5223 8.12666C10.5616 8.12666 10.6058 8.14138 10.65 8.17575C10.7138 8.2592 10.7923 8.38684 10.8807 8.55376C10.9691 8.72067 11.0378 8.83849 11.0918 8.90231C11.1163 8.74521 11.1458 8.58812 11.1703 8.43103C11.2145 8.23466 11.2931 8.10211 11.406 8.02847C11.5091 8.0432 11.5827 8.08248 11.622 8.15611ZM12.1718 10.8856C12.1718 10.8856 12.1816 10.9396 12.1816 10.9838C12.1816 11.0771 12.162 11.1556 12.1276 11.2293C12.0933 11.3029 12.0344 11.3716 11.9558 11.4453C11.8969 11.4404 11.8478 11.4158 11.8036 11.3716C11.7595 11.3274 11.73 11.2833 11.7104 11.2293C11.6907 11.1311 11.6809 11.0378 11.6809 10.9445C11.6809 10.7825 11.7153 10.5812 11.7889 10.3456C11.8233 10.2327 11.8576 10.1198 11.8969 10.002C11.8969 10.0658 11.8822 10.1787 11.8576 10.3358C11.8331 10.4929 11.8184 10.6156 11.8184 10.6991C11.8184 10.7973 11.8331 10.8856 11.8625 10.9642C11.892 11.0427 11.9411 11.1065 12.0147 11.1605L12.1718 10.8856ZM7.80265 7.11537L7.7241 7.2921C7.51301 7.42464 7.20864 7.60137 6.811 7.83211C6.69318 7.89593 6.1728 8.19538 5.24988 8.72558C5.23515 8.67158 5.24497 8.62248 5.26951 8.57339C5.29406 8.5243 5.32351 8.47521 5.35788 8.42121C6.16789 7.9892 6.98282 7.55228 7.80265 7.11537ZM13.0947 15.5788C13.0309 15.6819 12.9377 15.785 12.8247 15.8783C12.7118 15.9715 12.4958 16.0893 12.1816 16.2317C11.8675 16.3741 11.5385 16.5214 11.19 16.6784C11.1851 16.6392 11.1998 16.5852 11.2391 16.5214C11.2587 16.487 11.2833 16.4575 11.3078 16.4232C11.9018 16.1433 12.5007 15.8586 13.0947 15.5788ZM9.96269 14.1551C9.96269 14.1551 9.97251 14.2091 9.97251 14.2533C9.97251 14.4153 9.91851 14.5577 9.81541 14.6755C9.68287 14.6951 9.59941 14.6411 9.56014 14.5086C9.56014 14.1502 9.63378 13.8164 9.77614 13.5071C9.79087 13.566 9.78596 13.6348 9.76632 13.7133C9.71232 13.9637 9.68778 14.0962 9.68778 14.1159C9.68778 14.2484 9.74178 14.3417 9.84487 14.4006L9.96269 14.1551ZM6.3299 10.2278L6.01571 10.6402L5.41679 10.3849C5.40206 10.4291 5.35788 10.4929 5.27933 10.5763C5.20079 10.6598 5.13697 10.7187 5.09278 10.758C5.03878 10.7432 4.97496 10.7187 4.89151 10.6794C4.80805 10.6402 4.6755 10.5714 4.49386 10.4732C4.50859 10.3505 4.57241 10.2131 4.69023 10.0609C4.74914 9.98724 4.81296 9.9136 4.87678 9.83505L5.42661 10.0118L5.83898 9.65832C5.83898 9.65832 5.96171 9.72214 6.1728 9.83505C6.32499 9.9136 6.39863 9.99214 6.39863 10.0707C6.39863 10.1247 6.37408 10.1738 6.3299 10.2278ZM12.7413 13.674C11.8822 13.0506 11.028 12.432 10.1689 11.8085C10.2229 11.8036 10.2622 11.7742 10.2965 11.73C10.3112 11.7104 10.3309 11.6662 10.3652 11.5925C10.2818 11.5729 10.1738 11.5238 10.0511 11.4453C9.82032 11.2882 9.65341 11.2047 9.55032 11.1998C9.49141 11.298 9.45214 11.3962 9.42759 11.4993C9.40304 11.6024 9.39323 11.7202 9.39323 11.8576C9.60923 12.1915 9.90869 12.5106 10.2965 12.8198C10.5714 13.0407 10.9298 13.2862 11.3667 13.5562C11.9411 13.9097 12.2995 14.1355 12.4369 14.2337C11.9902 14.4742 11.5484 14.7197 11.1114 14.9602C10.5862 15.2499 10.1394 15.4757 9.76632 15.6377C9.29013 15.8488 8.81394 16.0059 8.34266 16.1188C8.24939 16.1384 8.16102 16.1286 8.07757 16.0844C7.99411 16.0403 7.91556 15.9764 7.84193 15.893C7.78301 15.7752 7.75356 15.6573 7.75356 15.5395C7.80756 15.2646 7.85665 14.9946 7.91065 14.7246C8.11193 14.43 8.2592 14.1257 8.34266 13.8066C8.42612 13.4875 8.4703 13.1389 8.4703 12.7609C8.4703 12.6431 8.46539 12.5106 8.45066 12.3633C8.43594 12.216 8.42121 12.0589 8.40157 11.8871C8.38193 11.7153 8.31321 11.3569 8.19539 10.8071C8.02356 10.0167 7.94011 9.41777 7.94011 9.01031L8.02847 8.86303C8.14629 9.03485 8.26411 9.20177 8.38193 9.37359C8.38193 9.07413 8.3083 8.74031 8.16593 8.38194C8.07266 8.1512 7.92538 7.85665 7.7241 7.48846L7.44919 7.97938C7.44919 8.4703 7.50319 9.07413 7.6161 9.78596C7.6701 10.1345 7.77811 10.7433 7.94993 11.622C8.09229 12.3633 8.19048 12.9769 8.24448 13.4678C8.07266 13.6593 7.90083 13.8066 7.7241 13.9146C7.54737 14.0226 7.35592 14.0766 7.15464 14.0766C7.03682 14.0766 6.89936 14.0471 6.73736 13.9931C6.57536 13.9391 6.32499 13.6593 5.98625 13.1635C5.83407 12.9475 5.67207 12.8198 5.49534 12.7806C5.3137 12.8837 5.1566 13.0211 5.02406 13.188C4.89151 13.3549 4.74914 13.6348 4.59205 14.0275C4.4595 14.3613 4.35641 14.592 4.27786 14.7246C4.13549 14.9602 3.95876 15.1517 3.74767 15.2941C3.70839 15.3284 3.65439 15.3432 3.58076 15.3432C3.53657 15.3432 3.48257 15.3333 3.42366 15.3186C3.36475 15.3039 3.31075 15.2892 3.26657 15.2744C3.02602 15.1419 2.83947 14.9406 2.70692 14.6657C2.60874 14.4644 2.53019 14.2042 2.47128 13.89C2.47128 13.8311 2.46146 13.7084 2.43692 13.5218C2.41237 13.3353 2.40255 13.1978 2.40255 13.1046C2.40255 12.972 2.42219 12.864 2.46637 12.7707C2.51055 12.6775 2.57437 12.6186 2.66765 12.5842C2.8002 12.4713 2.89347 12.3289 2.95238 12.1571C3.01129 11.9853 3.04075 11.8036 3.04075 11.6122C3.04075 11.5336 3.04075 11.4796 3.03093 11.4453C2.99656 11.4796 2.96711 11.5385 2.93765 11.6318C2.9082 11.7251 2.86402 11.784 2.80511 11.8085C2.68238 11.8282 2.59401 11.7938 2.54983 11.7104C2.39273 11.4894 2.31419 11.244 2.31419 10.974C2.31419 10.7531 2.35346 10.5272 2.43201 10.2965C2.47619 10.1591 2.56456 9.95287 2.6971 9.67796C2.61856 9.71723 2.54492 9.81051 2.4811 9.95287C2.41728 10.0952 2.36819 10.1885 2.33382 10.2278C2.23073 10.4291 2.14728 10.6451 2.08837 10.866C2.02946 11.0869 2 11.3078 2 11.5238C2 11.7153 2.02455 11.892 2.07855 12.0589C2.13255 12.2258 2.216 12.3731 2.33382 12.4958C2.29455 12.7757 2.27001 12.9818 2.26019 13.1046C2.25037 13.2273 2.24546 13.4089 2.24546 13.6446C2.24546 13.9833 2.27491 14.3122 2.33873 14.6215C2.40255 14.9308 2.49583 15.2106 2.62838 15.4512C2.76092 15.6524 2.89838 15.8095 3.05056 15.9224C3.24202 16.0599 3.43839 16.1286 3.63967 16.1286C3.91458 16.0353 4.13058 15.8783 4.28768 15.6573C4.40059 15.5002 4.50859 15.2499 4.61659 14.9062C4.7246 14.5626 4.80805 14.3319 4.86696 14.214C4.99951 13.9539 5.17133 13.7477 5.38733 13.6053C5.57879 13.6053 5.75061 13.7379 5.90771 14.0079C6.10407 14.3368 6.26608 14.538 6.38881 14.6166C6.48208 14.7 6.58027 14.759 6.68336 14.7933C6.78645 14.8277 6.89936 14.8424 7.01718 14.8424C7.17428 14.8424 7.32155 14.8228 7.4541 14.7835C7.58665 14.7442 7.73392 14.6902 7.89102 14.6166C7.75847 14.9701 7.67992 15.2008 7.64556 15.3039C7.5621 15.5788 7.51792 15.8193 7.51792 16.0206C7.51792 16.1532 7.53265 16.271 7.55719 16.3839C7.58174 16.4968 7.63083 16.6048 7.69465 16.7079C7.81247 16.8257 7.97447 16.8846 8.18557 16.8846C8.29848 16.8846 8.37703 16.8797 8.43103 16.865C8.85812 16.7226 9.31468 16.5361 9.8056 16.3054C10.1443 16.1483 10.5862 15.9273 11.1213 15.6475C11.5582 15.4119 12 15.1811 12.4369 14.9504C12.5596 14.813 12.6431 14.6559 12.6824 14.4742C12.7216 14.2926 12.7413 14.0815 12.7413 13.8409V13.674ZM4.68041 8.06775C4.58223 7.9352 4.49386 7.83702 4.41532 7.76338C4.30241 7.6701 4.1944 7.6161 4.08149 7.59646C4.04222 7.64065 4.01276 7.70938 3.99313 7.80265C3.95385 7.99411 3.91949 8.11193 3.89003 8.15611C3.86058 8.2003 3.84585 8.24939 3.84585 8.29357C3.84585 8.37212 3.88022 8.44575 3.95385 8.50957C4.00785 8.55375 4.07658 8.59303 4.16004 8.61757C4.02258 8.87285 3.77221 9.17722 3.41384 9.53068C2.95729 9.97742 2.68238 10.2523 2.59892 10.3554C2.94747 10.1345 3.26166 9.87923 3.54148 9.59941C3.85076 9.29013 4.09131 8.97594 4.26804 8.65685L4.63132 8.74521C4.70496 8.61267 4.73932 8.48012 4.73932 8.34266C4.73932 8.24939 4.71969 8.16102 4.68041 8.06775ZM7.23319 11.3765L7.16446 11.6122C7.16446 11.6122 7.12027 11.5827 7.06627 11.5434C7.01227 11.5042 6.96809 11.4894 6.92882 11.5042C6.90427 11.568 6.86009 11.7447 6.80609 12.0245C6.75209 12.3044 6.66863 12.4909 6.56554 12.5842C6.54099 12.5498 6.47717 12.4026 6.37899 12.1424C6.30535 11.9509 6.20226 11.8576 6.0648 11.8576C6.02062 11.8134 5.99607 11.7644 5.99607 11.7104C5.99607 11.6711 6.00589 11.6171 6.03044 11.5533C6.05498 11.4894 6.0648 11.4404 6.0648 11.4158C6.08444 11.3913 6.10898 11.3716 6.13844 11.3569C6.16789 11.3422 6.19244 11.352 6.21208 11.3765C6.29553 11.4698 6.37899 11.6171 6.45754 11.8282C6.53608 12.0393 6.5999 12.1816 6.64408 12.2602C6.67845 12.2062 6.71772 12.0295 6.76681 11.7251C6.81591 11.4207 6.89445 11.2685 6.99755 11.2685C7.06136 11.2685 7.13991 11.3029 7.23319 11.3765ZM4.10113 12.4958C4.12077 12.5351 4.13058 12.5695 4.13058 12.6038C4.13058 12.6627 4.11586 12.7217 4.09131 12.7806C4.06676 12.8395 4.02749 12.9082 3.97349 12.9867C3.90967 13.0064 3.85076 12.9867 3.80658 12.9327C3.7624 12.8787 3.73294 12.8247 3.71821 12.7707C3.70349 12.7167 3.69858 12.6627 3.69858 12.6038C3.69858 12.5007 3.72803 12.378 3.78203 12.2406C3.83603 12.1031 3.88022 12 3.90476 11.9264C3.90476 11.9705 3.89003 12.054 3.86058 12.1718C3.83112 12.2896 3.8164 12.3731 3.8164 12.4173C3.8164 12.4811 3.82622 12.5351 3.84094 12.5744C3.85567 12.6136 3.89003 12.6529 3.94404 12.6922C3.9784 12.6873 4.00295 12.6627 4.02749 12.6235C4.05204 12.5842 4.07658 12.54 4.10113 12.4958ZM5.76043 16.1286C5.7408 16.3103 5.72116 16.433 5.69661 16.487C5.67207 16.541 5.63279 16.595 5.57388 16.6392C5.43643 16.6392 5.35297 16.5901 5.31861 16.4919C5.30388 16.4134 5.29897 16.3544 5.29897 16.3152C5.29897 16.1924 5.32351 16.0599 5.3677 15.9224C5.44134 15.7506 5.49043 15.623 5.51497 15.5395C5.5297 15.5788 5.53461 15.6132 5.53461 15.6377C5.53461 15.6917 5.52479 15.7506 5.50515 15.8144C5.45115 15.9961 5.42661 16.1041 5.42661 16.1286C5.42661 16.2317 5.48552 16.3103 5.60334 16.3544C5.64261 16.3397 5.66716 16.3053 5.68189 16.2415C5.69661 16.1777 5.72116 16.1433 5.76043 16.1286ZM20.0363 9.10849C20.002 9.12322 19.9676 9.10358 19.9234 9.05449C19.8792 9.0054 19.8547 8.97594 19.84 8.97104C19.8252 8.91213 19.8498 8.88267 19.9087 8.88267C19.948 8.88267 19.9823 8.8974 20.0167 8.93176C20.0511 8.96613 20.056 9.00049 20.0363 9.03976V9.10849ZM20.2425 12.8395C20.164 12.918 20.0658 12.9573 19.948 12.9573C19.8694 12.9573 19.7958 12.9426 19.732 12.9082C19.4767 12.756 19.3049 12.54 19.2214 12.2602C19.3196 12.2356 19.4325 12.2209 19.5552 12.2209C19.6583 12.2209 19.7614 12.2406 19.8547 12.2749C19.948 12.3093 20.0265 12.3633 20.0854 12.4369C20.1443 12.5106 20.1836 12.5793 20.2032 12.6431C20.2229 12.7069 20.2376 12.7756 20.2425 12.8395ZM4.59205 8.42121L4.4055 8.40157C4.38586 8.36721 4.38095 8.33775 4.39568 8.30339C4.41041 8.26902 4.42513 8.22975 4.44477 8.17575L4.59205 8.42121ZM4.22877 8.27393C4.20422 8.25921 4.14531 8.23957 4.05204 8.21502C4.01767 8.19538 4.00785 8.17084 4.01276 8.13648C4.04713 8.10211 4.07658 8.08738 4.10113 8.08738C4.18459 8.08738 4.22877 8.13157 4.22877 8.21502V8.27393Z" fill="white"/>
</svg>
