<svg width="24" height="24" viewBox="0 0 24 24" fill="none" xmlns="http://www.w3.org/2000/svg">
<path fill-rule="evenodd" clip-rule="evenodd" d="M21.9699 6.84326C21.9914 6.89913 21.9785 6.95499 21.9269 7.01516C21.8797 7.07532 21.8324 7.12689 21.7937 7.17416C21.6648 7.33316 21.3769 7.42341 20.9385 7.4406C20.5002 7.46209 20.2295 7.58671 20.1349 7.82307C20.2037 7.64258 20.2467 7.53944 20.2682 7.50506C20.3369 7.37614 20.4143 7.2773 20.5045 7.21713C20.8354 7.21713 21.1147 7.19135 21.3468 7.14408C21.5789 7.09681 21.7851 6.99797 21.9699 6.84326ZM22 9.8944C21.9312 9.88151 21.841 9.79986 21.7336 9.65805C21.6777 9.58069 21.6218 9.52912 21.5574 9.50334C21.5445 9.51623 21.523 9.55061 21.4972 9.60218C21.4714 9.65375 21.437 9.67953 21.4027 9.67953L21.755 13.8867C21.755 14.368 21.7293 14.759 21.682 15.0641C21.6132 15.4767 21.4929 15.842 21.321 16.1557C21.4113 15.6873 21.4542 15.1845 21.4542 14.6387C21.4542 14.166 21.4199 13.6159 21.3554 12.9885C21.2909 12.3611 21.2265 11.7595 21.1663 11.1836C21.0546 10.2898 20.9471 9.3959 20.8354 8.50205C20.93 8.31726 20.9901 8.20553 21.0116 8.17115C21.089 8.04223 21.1577 7.94769 21.2265 7.89182C21.2394 7.9348 21.3425 8.17545 21.5359 8.62238C21.7679 9.17244 21.9226 9.59358 22 9.8901V9.8944ZM17.78 8.11958C17.8015 8.22272 17.7972 8.28718 17.7757 8.31726C17.7499 8.34305 17.7069 8.36024 17.6468 8.36024C17.5565 8.36024 17.4921 8.36883 17.4491 8.38602C17.4061 8.40321 17.3889 8.46337 17.3889 8.56651C17.3631 8.72551 17.333 8.85873 17.3073 8.97046C17.2815 9.0822 17.2342 9.18533 17.174 9.27988C17.1483 9.15095 17.0494 9.00484 16.8818 8.84154C16.7142 8.67824 16.6283 8.53643 16.6283 8.41181C16.6541 8.30007 16.6841 8.23991 16.7099 8.22702C16.8217 8.27429 16.9162 8.37313 16.9979 8.51494C17.058 8.64386 17.1268 8.77279 17.1955 8.89741C17.2514 8.68254 17.2944 8.52783 17.3287 8.4247C17.3889 8.23991 17.492 8.11529 17.6296 8.05512C17.6725 8.06801 17.7026 8.07661 17.7241 8.08091C17.7456 8.08091 17.7671 8.0981 17.7843 8.12818L17.78 8.11958ZM15.2617 8.66535C15.2746 8.72122 15.2703 8.78138 15.2531 8.85014C15.2316 8.9189 15.1972 8.97906 15.15 9.03493C15.0941 9.0822 15.0425 9.0779 14.9953 9.02633C14.948 8.94468 14.9136 8.88881 14.8921 8.86303C14.8921 8.747 14.9093 8.63957 14.9394 8.53643C14.9695 8.43759 15.0125 8.33016 15.0683 8.22272C15.0769 8.24851 15.0769 8.28718 15.0683 8.33445C15.0425 8.49775 15.0254 8.5837 15.0254 8.59229C15.0254 8.69543 15.0683 8.76849 15.15 8.80716L15.2617 8.66105V8.66535ZM13.7748 8.39891C13.7748 8.56221 13.6975 8.72551 13.5471 8.88452C13.3966 9.03063 13.2462 9.16814 13.1044 9.30566C12.8638 9.37442 12.6231 9.43888 12.3825 9.50334C12.4598 9.43458 12.5544 9.37012 12.6704 9.30566C13.0056 9.12087 13.1904 9.01774 13.2162 8.99625C13.113 8.96187 13.0099 8.93609 12.9024 8.9189C12.795 8.90171 12.679 8.89311 12.5587 8.89311C12.4383 8.89311 12.3266 8.9103 12.2278 8.94038C12.1332 8.97046 12.0473 9.02633 11.9699 9.09939C12.0473 8.90171 12.1418 8.72981 12.2578 8.59229C12.4168 8.39891 12.5844 8.30437 12.7649 8.30437C12.8079 8.29578 12.8681 8.29578 12.9497 8.29578C13.0615 8.29578 13.2119 8.31297 13.4095 8.34305C13.6072 8.37313 13.7275 8.39462 13.7748 8.39891ZM12.3825 7.78869C11.9613 7.97347 11.5445 8.15826 11.1233 8.33445C10.8612 8.45908 10.6034 8.5794 10.3498 8.69543C10.1994 8.78997 10.122 8.92319 10.122 9.08649C10.3756 8.93609 10.7323 8.7513 11.1964 8.52783C11.437 8.4161 11.8066 8.24421 12.3008 8.01215L12.3825 7.78439V7.78869ZM18.1495 14.368C18.0206 14.6 17.8101 14.7977 17.5221 14.9567C17.2342 15.1157 16.9463 15.1931 16.667 15.1931C16.5037 15.1931 16.379 15.1329 16.2974 15.0083C16.2974 14.8794 16.3318 14.759 16.4005 14.6559C16.4693 14.5528 16.5724 14.4453 16.7099 14.3379C16.6841 14.325 16.6498 14.2949 16.6068 14.2519C16.5638 14.209 16.5337 14.1789 16.5122 14.166C16.5681 14.0414 16.624 13.9425 16.6755 13.8652C16.7658 13.7492 16.8646 13.6675 16.9764 13.6288C17.0881 13.6159 17.1526 13.6417 17.174 13.7105C17.1826 13.7577 17.1654 13.8007 17.1225 13.8351C17.0623 13.8953 17.0279 13.9296 17.0193 13.9382C16.9979 13.9382 16.9678 13.9253 16.9205 13.8953C16.8775 13.8695 16.8346 13.8652 16.8002 13.8867L16.7271 13.9597C16.7529 14.0199 16.8002 14.0629 16.8646 14.0886C16.9291 14.1144 17.0021 14.123 17.0752 14.123C17.2127 14.0758 17.3502 14.0242 17.4878 13.9683C17.4448 14.0843 17.2213 14.2476 16.8174 14.4539C16.6455 14.5442 16.5595 14.6301 16.5595 14.7118C16.5595 14.7676 16.5939 14.8321 16.6627 14.9094C16.9506 14.9094 17.2213 14.8665 17.4706 14.7805C17.7198 14.6946 17.9476 14.5571 18.1453 14.3723L18.1495 14.368ZM12.0344 10.5734C12.0086 10.6636 11.9785 10.7496 11.9527 10.8312C11.8754 10.784 11.7851 10.7582 11.6734 10.7582C11.5917 10.9215 11.5187 11.1192 11.4628 11.3469C11.4027 11.5747 11.3468 11.7938 11.2909 12.0087C11.2093 11.9185 11.1319 11.7595 11.0589 11.5274C10.9858 11.2953 10.9128 11.1363 10.8354 11.0461C10.8354 11.1149 10.8225 11.1578 10.7924 11.1793C10.7495 11.1922 10.7151 11.2008 10.6807 11.2008C10.5991 11.2008 10.5475 11.1621 10.526 11.0891C10.5389 10.9644 10.5561 10.8742 10.5776 10.8097C10.5991 10.7496 10.6377 10.6808 10.7022 10.6121C10.8827 10.6593 11.0116 10.7926 11.0933 11.016C11.1534 11.2094 11.2222 11.4028 11.2909 11.5919C11.3339 11.5231 11.3855 11.3469 11.4456 11.059C11.5058 10.7754 11.6089 10.582 11.7465 10.4874C11.8711 10.466 11.9656 10.496 12.0344 10.5691V10.5734ZM19.8126 9.76978C19.5634 9.17674 19.3184 8.588 19.0692 7.99496C18.9789 8.07661 18.9059 8.17545 18.8414 8.28718C18.777 8.39891 18.7469 8.51065 18.7469 8.62238V8.66965C18.7469 8.69543 18.7469 8.71692 18.7555 8.73841L19.572 13.5257L19.5806 14.2906C19.0047 14.8063 18.4418 15.1931 17.9003 15.4466C17.2686 15.7431 16.6068 15.8892 15.9192 15.8892C15.7344 15.8892 15.5539 15.8162 15.3777 15.6658C15.2015 15.5197 15.0769 15.3478 14.9996 15.1587C14.9222 14.9696 14.8878 14.7633 14.8878 14.5356C14.8878 14.2176 14.9652 13.9726 15.1156 13.7921C15.309 13.7449 15.5281 13.6718 15.7774 13.5687C16.0266 13.4698 16.263 13.371 16.4908 13.2764C16.6154 13.1819 16.9549 13.0014 17.5135 12.7393C17.9519 12.533 18.2613 12.3224 18.4418 12.1118L18.7211 11.3985C18.2957 11.652 17.8702 11.9056 17.4405 12.1634C16.9377 12.447 16.4779 12.5846 16.0567 12.5846C15.945 12.5846 15.8247 12.576 15.6872 12.5545C15.3348 12.4384 15.0683 12.2236 14.8878 11.9099C14.7073 11.5962 14.6128 11.2438 14.6128 10.8527C15.0125 10.625 15.382 10.4531 15.7258 10.337C16.147 10.1909 16.5423 10.1222 16.9205 10.1222C17.1826 10.1222 17.4276 10.1565 17.6639 10.2253H17.737C17.7241 10.1995 17.7069 10.1608 17.6854 10.1136C17.3502 9.86002 16.9205 9.7311 16.4048 9.7311C15.9923 9.7311 15.6227 9.80845 15.2918 9.96746C15.0769 10.0921 14.8964 10.2468 14.7417 10.4316C14.587 10.6164 14.4796 10.8183 14.4151 11.0289C14.3249 11.2094 14.2819 11.3942 14.2819 11.5876C14.2819 11.8368 14.3593 12.1076 14.5097 12.4041C14.6343 12.6447 14.7976 12.8854 15.0039 13.126C14.6515 13.2378 14.3034 13.2893 13.951 13.2893C13.4353 13.2893 12.9884 13.1776 12.6102 12.9498C12.5758 12.9241 12.5587 12.8553 12.5587 12.7436C12.5587 12.6662 12.5372 12.6189 12.4985 12.5975L12.2836 13.0702C11.8109 13.0702 11.3468 13.2077 10.8913 13.4827C10.5733 13.6761 10.1951 13.9941 9.74817 14.441C9.48174 14.7247 9.2153 14.9997 8.95316 15.2747C8.40309 15.8506 7.93468 16.2588 7.55221 16.4909C7.49205 16.5124 7.42329 16.521 7.35453 16.521C7.15685 16.521 6.99785 16.4479 6.88182 16.3061C6.82596 16.2502 6.78728 16.1944 6.7572 16.1428C6.73141 16.0869 6.72282 16.0311 6.73571 15.9795C7.29437 15.6271 7.69832 15.322 7.95187 15.0599C8.35153 14.6473 8.54921 14.209 8.54921 13.7406C8.54921 13.646 8.54921 13.573 8.54061 13.5257C8.54061 13.4225 8.51483 13.2764 8.45896 13.0831C8.35582 12.7264 8.30425 12.4943 8.30425 12.3912C8.30425 12.2966 8.32574 12.1978 8.36442 12.1033C8.3902 12.1462 8.47185 12.1634 8.60077 12.1634C8.57499 12.0259 8.52342 11.897 8.45466 11.7809C8.44607 11.7681 8.30855 11.5962 8.04211 11.2653C7.95187 11.3899 7.89171 11.5188 7.85733 11.6563C7.82295 11.7938 7.80576 11.9357 7.80576 12.0775C7.95187 12.7565 8.09798 13.4354 8.24839 14.1101C8.0679 14.325 7.85303 14.5227 7.59948 14.7075C7.42759 14.8321 7.18694 14.9911 6.87752 15.1931C6.89901 15.0899 6.94628 14.9438 7.02364 14.7504C7.16115 14.3938 7.2385 14.1488 7.25999 14.0199C7.14396 14.1832 7.02793 14.3981 6.9205 14.6602C6.9119 14.6817 6.82596 14.9094 6.65406 15.3521C6.35754 15.5369 6.08681 15.6873 5.83326 15.799C5.58401 15.9107 5.30468 16.0096 5.00387 16.0912C4.76321 16.1471 4.53545 16.1729 4.32488 16.1729C3.94671 16.1729 3.59862 16.0998 3.28492 15.9494C2.96691 15.8033 2.70047 15.5712 2.48131 15.2618C2.40395 15.1501 2.35668 15.0513 2.3309 14.961C2.30511 14.8708 2.29652 14.7633 2.29652 14.6301C2.41255 14.1488 2.52858 13.6632 2.6489 13.1776C2.44263 13.5558 2.29652 13.8609 2.20627 14.0972C2.06876 14.4539 2 14.7805 2 15.077C2 15.1673 2 15.2532 2.00859 15.3349C2.01719 15.4165 2.03008 15.4939 2.05157 15.5626C2.12033 15.8119 2.26644 16.0354 2.4856 16.2416C2.66609 16.4049 2.88526 16.5596 3.1474 16.6972C3.3193 16.7917 3.4826 16.8605 3.6416 16.8948C3.8006 16.9292 3.9725 16.9464 4.15728 16.9464C4.50107 16.9464 4.90073 16.8647 5.35196 16.6972C5.53245 16.6284 5.89772 16.4737 6.45638 16.233C6.45638 16.2932 6.47787 16.3748 6.52514 16.4737C6.56811 16.5725 6.5939 16.6413 6.60249 16.6757C6.68414 16.8261 6.79158 16.9421 6.9205 17.0281C7.04942 17.1097 7.19983 17.1527 7.36313 17.1527C7.42329 17.1527 7.47056 17.1527 7.49635 17.1441C7.84873 16.9636 8.2312 16.6671 8.65234 16.2459C9.00473 15.8764 9.35281 15.5068 9.7052 15.1415C10.1306 14.7075 10.5088 14.3981 10.8397 14.2133C11.278 13.964 11.7508 13.8437 12.2535 13.8437C12.3782 14.1531 12.52 14.4367 12.6747 14.6903C12.8681 14.9911 13.0786 15.2446 13.315 15.4423C13.431 15.2489 13.5213 15.047 13.59 14.8321C13.6545 14.6172 13.6889 14.4066 13.6889 14.1918C13.6889 14.1015 13.6889 14.0371 13.6803 13.9941C13.7232 14.0027 13.7877 14.0027 13.878 14.0027C14.0069 14.0027 14.196 13.9855 14.4366 13.9511C14.6773 13.9167 14.8535 13.8996 14.9609 13.8996C14.832 14.1617 14.7202 14.4582 14.63 14.7977C14.6085 14.9137 14.5999 15.0255 14.5999 15.1286C14.5999 15.4165 14.6644 15.683 14.789 15.9236C14.9179 16.1643 15.0984 16.3534 15.3305 16.4909C15.4895 16.5467 15.6356 16.5854 15.7688 16.6026C15.902 16.6241 16.0438 16.6327 16.1985 16.6327C16.6111 16.6327 17.0365 16.5339 17.4792 16.3319C17.9519 16.1127 18.5836 15.6873 19.3657 15.0513C19.5591 14.7633 19.6923 14.4754 19.7697 14.1961C19.847 13.9124 19.8814 13.5987 19.8814 13.2464C19.8814 13.0659 19.8728 12.9026 19.8599 12.7565C19.847 12.6103 19.8255 12.447 19.7997 12.2751C19.7095 11.7938 19.6193 11.291 19.5333 10.7625C19.4431 10.2382 19.4001 9.78267 19.4001 9.4045C19.4431 9.45177 19.4989 9.52053 19.5763 9.61077C19.6536 9.70102 19.7396 9.74829 19.8341 9.75689L19.8126 9.76978ZM9.58058 9.60648C9.51182 9.63226 9.45165 9.59788 9.39579 9.49904C9.33992 9.4002 9.28406 9.34434 9.23249 9.32715C9.23249 9.58069 9.27976 10.1093 9.3786 10.9043C9.42587 11.3039 9.45165 11.6219 9.45165 11.8626V12.1806C9.45165 12.649 9.43446 13.0487 9.40009 13.3839C9.36571 13.7191 9.28835 14.0457 9.16373 14.368C9.2067 14.0027 9.22389 13.646 9.22389 13.2936C9.22389 12.6662 9.16373 11.94 9.0477 11.1106C8.93167 10.2812 8.81994 9.49045 8.7168 8.73411C8.69102 8.67824 8.67383 8.62238 8.67383 8.55792C8.67383 8.48056 8.69102 8.40321 8.7297 8.32156C8.76837 8.23991 8.85002 8.11099 8.98324 7.93909C9.15514 8.30437 9.27546 8.57081 9.34422 8.7427C9.46884 9.04352 9.5462 9.33144 9.58058 9.59788V9.60648ZM7.87022 9.65805C7.89171 9.70532 7.88741 9.76548 7.85303 9.83424C7.82295 9.903 7.79287 9.96746 7.76708 10.0319C7.67684 10.1222 7.58659 10.1479 7.48775 10.1136C7.4104 10.019 7.37602 9.90729 7.37602 9.78267C7.37602 9.66664 7.4018 9.53772 7.45767 9.4002C7.53932 9.22831 7.59948 9.10798 7.63386 9.03922C7.63386 9.09939 7.60808 9.19823 7.55651 9.33144C7.50494 9.46466 7.47916 9.55921 7.47916 9.61507C7.47916 9.68383 7.50494 9.75259 7.55221 9.82135C7.58659 9.84283 7.61667 9.85143 7.64676 9.85143C7.70262 9.85143 7.74989 9.83424 7.78427 9.79556C7.82295 9.75689 7.85303 9.70961 7.87022 9.65805ZM6.44779 8.429C6.43919 8.48916 6.39622 8.52354 6.31457 8.52354C6.22432 8.51064 6.15986 8.50205 6.11689 8.50205C6.01375 8.50205 5.95359 8.55362 5.9321 8.65676C5.85045 9.00914 5.7688 9.35723 5.69575 9.70961C5.63558 9.66234 5.53674 9.47326 5.40782 9.14236C5.30468 8.88881 5.15428 8.75989 4.9523 8.75989C4.91792 8.72551 4.90073 8.69113 4.90073 8.65676C4.90073 8.61378 4.91792 8.55792 4.9523 8.48486C4.98668 8.4118 5.00387 8.36453 5.00387 8.33445L5.1156 8.2528C5.19295 8.30007 5.33047 8.54502 5.52815 8.98336C5.59691 9.14236 5.67426 9.19823 5.75591 9.15955C5.79888 8.85014 5.83326 8.64816 5.85905 8.55792C5.88483 8.46337 5.9364 8.36883 6.00516 8.27429C6.06532 8.23132 6.14697 8.21413 6.24151 8.21413C6.31887 8.21413 6.37473 8.23132 6.41771 8.26569C6.46068 8.30007 6.46927 8.35594 6.44779 8.429ZM12.6446 15.6271C12.6446 15.7388 12.6188 15.8119 12.5673 15.8506C12.5157 15.8892 12.4426 15.9064 12.3438 15.9064C12.2278 15.8978 12.1375 15.8978 12.0774 15.8978C11.9613 15.8978 11.8926 15.8978 11.8754 15.9021C11.8582 15.9021 11.8238 15.9322 11.7765 15.9795C11.7765 16.0697 11.798 16.2115 11.8367 16.4135C11.8797 16.6112 11.8969 16.7659 11.8969 16.869C11.8969 16.9851 11.8797 17.0839 11.8453 17.157C11.8453 17.0409 11.8109 16.8647 11.7465 16.637C11.682 16.4049 11.6476 16.2416 11.6476 16.1471C11.6476 16.0568 11.6519 15.9924 11.6648 15.9494C11.6734 15.9064 11.6992 15.8549 11.7422 15.7861C11.8668 15.6959 12.0301 15.6357 12.2364 15.6013C12.1805 15.5412 12.1117 15.5068 12.0301 15.5068C12.0043 15.5068 11.9699 15.5154 11.9269 15.5283L11.8453 15.6228C11.8109 15.5884 11.8109 15.5412 11.841 15.4853C11.8711 15.4251 11.8883 15.3822 11.8883 15.3564C11.9828 15.3005 12.0559 15.2575 12.1031 15.2231C12.2149 15.2231 12.318 15.2704 12.4125 15.3693C12.5157 15.4982 12.593 15.5884 12.6403 15.6357L12.6446 15.6271ZM6.18994 11.3254C6.06532 11.5102 5.94499 11.695 5.82896 11.8841L5.26171 11.4801C5.28749 11.3856 5.34336 11.2739 5.42501 11.1492C5.48088 11.0676 5.55393 10.9602 5.65277 10.8312C5.7645 10.8914 5.87624 10.9559 5.99226 11.016C6.12119 11.1063 6.18994 11.2094 6.18994 11.3254ZM10.4486 16.3491C10.4486 16.4436 10.4315 16.5338 10.4014 16.6155C10.3713 16.6971 10.3154 16.7702 10.2424 16.8304C10.1607 16.8519 10.092 16.8218 10.0361 16.7487C10.0146 16.7143 10.0017 16.6714 9.98883 16.6241C9.98023 16.5768 9.97164 16.5167 9.97164 16.4479C9.97164 16.2975 9.99742 16.1428 10.0533 15.9838C10.0619 15.9623 10.0963 15.8721 10.165 15.7173C10.1521 15.7732 10.1349 15.8506 10.1135 15.9494C10.092 16.0482 10.0834 16.1256 10.0834 16.1815C10.0834 16.3405 10.1306 16.4651 10.2295 16.5639C10.2768 16.5725 10.3154 16.551 10.3412 16.5038C10.367 16.4565 10.4014 16.4049 10.4443 16.3491H10.4486ZM3.44392 12.0775C3.40954 12.3525 3.37516 12.5588 3.34078 12.6963C3.28062 12.9455 3.16029 13.1131 2.9798 13.2034C2.73915 13.2249 2.57155 13.1303 2.47271 12.9241C2.42544 12.7307 2.39966 12.5244 2.39966 12.3052C2.39966 11.9271 2.4856 11.5274 2.6575 11.1106C2.78212 10.8097 2.9755 10.4488 3.23335 10.0276C3.12162 10.2898 3.01848 10.5476 2.91534 10.8011C2.79072 11.1363 2.73055 11.4286 2.73055 11.6692C2.73055 11.8282 2.74774 11.9657 2.78642 12.0861C2.8251 12.2064 2.89385 12.3267 2.99699 12.4513C3.05716 12.4943 3.12591 12.4857 3.19897 12.4342C3.27202 12.3826 3.3193 12.3181 3.34938 12.2451C3.35797 12.2193 3.36657 12.1892 3.38376 12.1634C3.40095 12.1376 3.41814 12.1076 3.43962 12.0818L3.44392 12.0775ZM5.61839 13.2034C5.63128 13.285 5.63988 13.3323 5.63988 13.3495C5.63988 13.4311 5.59691 13.4741 5.50666 13.4741C5.40352 13.4612 5.32617 13.4526 5.27031 13.4526C5.15428 13.4526 5.08552 13.53 5.06833 13.689C5.05114 13.848 5.02965 13.9898 4.99957 14.1187C4.97379 14.2476 4.92222 14.3508 4.85346 14.4324C4.82768 14.4066 4.75892 14.2691 4.65578 14.0199C4.57843 13.8351 4.49248 13.7406 4.39794 13.7406C4.35496 13.7406 4.31199 13.7534 4.26472 13.7835C4.17018 13.8093 4.11861 13.7749 4.11861 13.6718C4.14439 13.5687 4.16588 13.4784 4.17877 13.4054C4.19166 13.328 4.23464 13.2635 4.3034 13.2077C4.44951 13.2678 4.56983 13.3968 4.66437 13.5901C4.74173 13.7534 4.81478 13.921 4.89214 14.0843C4.948 13.8308 4.99098 13.6374 5.02535 13.5085C5.09411 13.2678 5.20584 13.1475 5.36485 13.1475C5.45509 13.1475 5.53674 13.169 5.6141 13.2077L5.61839 13.2034Z" fill="white"/>
</svg>
