<svg width="24" height="24" viewBox="0 0 24 24" fill="none" xmlns="http://www.w3.org/2000/svg">
<path fill-rule="evenodd" clip-rule="evenodd" d="M22 8.7751C21.9258 8.76939 21.8573 8.72373 21.7945 8.63812C21.7317 8.5525 21.6747 8.47259 21.6233 8.38697L21.5091 8.54679C21.5091 8.95204 21.5491 9.43149 21.629 9.99656C21.7089 10.5616 21.7888 11.0982 21.863 11.6062C21.8916 11.8173 21.9144 12.0171 21.9315 12.2055C21.9486 12.3938 21.9543 12.5936 21.9543 12.8162C21.9543 13.1758 21.9315 13.484 21.8801 13.7466C21.8288 14.0091 21.7374 14.2945 21.6005 14.597L21.5662 14.2774C21.6119 14.226 21.6404 14.1347 21.6575 14.0034C21.6747 13.8721 21.6918 13.7294 21.7146 13.5696L21.0982 8.12441C21.0982 8.00455 21.081 7.83332 21.0411 7.62213C21.0011 7.41095 20.984 7.26255 20.984 7.17693C20.984 7.04565 21.0011 6.9372 21.0354 6.85158C21.0696 6.76597 21.1438 6.66893 21.258 6.5719C21.3893 6.82875 21.5205 7.19405 21.6632 7.66208C21.8059 8.13012 21.9144 8.50112 22 8.7751ZM18.3584 7.6678C18.3584 7.85045 18.29 8.00455 18.153 8.13583C18.0788 8.15866 18.016 8.14725 17.9646 8.09588C17.9132 8.04451 17.8733 7.98172 17.8447 7.8961C17.8276 7.69063 17.8676 7.47943 17.9589 7.26825C17.9874 7.19975 18.0502 7.09131 18.1416 6.9372C18.1358 6.96573 18.0959 7.09131 18.0274 7.31391C17.9874 7.42807 17.9703 7.51368 17.9703 7.56505C17.9703 7.70204 18.0331 7.80478 18.153 7.87327C18.2043 7.87327 18.2443 7.83902 18.2728 7.77624C18.3014 7.71345 18.3299 7.67351 18.3584 7.6678ZM17.3196 8.99199C17.234 9.16893 17.1712 9.30592 17.1199 9.40295C17.0685 9.49999 17.0171 9.57989 16.9658 9.64268L16.3493 9.34587C16.3664 9.24884 16.395 9.15752 16.4406 9.08332C16.4463 9.0662 16.5434 8.93492 16.726 8.68378C16.863 8.72944 16.9772 8.7694 17.0628 8.80935C17.1484 8.8493 17.234 8.90638 17.3196 8.99199ZM18.0731 9.68834C18.0731 9.68834 17.9304 9.60844 17.7192 9.49428C17.6564 9.46574 17.5993 9.42008 17.5365 9.36871C17.4224 9.36871 17.3196 9.4372 17.2283 9.57419C17.1769 9.64839 17.1027 9.76825 17.0114 9.92807C16.9829 9.92236 16.8345 9.85387 16.5662 9.734C16.4749 9.69405 16.3836 9.67122 16.2922 9.6541C16.1781 9.83675 16.0639 10.0194 15.9498 10.202C15.9269 10.2477 15.9155 10.282 15.9155 10.3048C15.9155 10.3562 15.984 10.4018 16.1153 10.4304C16.2466 10.4589 16.3265 10.4931 16.3493 10.5331C16.4235 10.573 16.4806 10.5902 16.5205 10.5902C16.6119 10.5902 16.6975 10.4988 16.7831 10.3219C16.8687 10.145 16.9372 10.0365 16.9886 9.99656C17.2226 10.1164 17.4623 10.242 17.6963 10.3619L18.0731 9.68834ZM15.4931 8.27282C15.5616 8.38697 15.5959 8.52396 15.5959 8.68378C15.5959 8.8436 15.5559 8.98629 15.4703 9.09474C15.3333 9.07191 15.1678 9.12327 14.9795 9.24314C14.8482 9.32875 14.7511 9.37441 14.6826 9.39154C14.54 9.39154 14.4429 9.32875 14.3973 9.20889C14.3973 9.02054 14.4087 8.86072 14.4258 8.73515C14.4429 8.60958 14.4886 8.47259 14.5571 8.31848H14.6027C14.6027 8.31848 14.6256 8.38697 14.6256 8.45546C14.6256 8.49542 14.6142 8.56962 14.5856 8.67807C14.5571 8.78651 14.5457 8.87213 14.5457 8.9235C14.5457 9.00912 14.5685 9.06048 14.6142 9.07761C14.6598 9.09473 14.7283 9.10044 14.8196 9.07761C14.9281 9.03194 14.9795 8.92351 14.9795 8.74656C14.9737 8.65524 14.968 8.58675 14.968 8.54108C14.968 8.49542 14.968 8.44405 14.9852 8.38697C14.9966 8.32989 15.0365 8.28423 15.105 8.24428C15.1107 8.27282 15.1164 8.32989 15.1164 8.4041V8.54108C15.1164 8.63812 15.1221 8.71231 15.1336 8.75227C15.145 8.79222 15.1792 8.83217 15.242 8.87213C15.3048 8.87213 15.3505 8.87213 15.3904 8.86642C15.4304 8.86642 15.4532 8.84359 15.4703 8.80364C15.4703 8.76368 15.4532 8.70661 15.4247 8.62099C15.3961 8.53538 15.379 8.47258 15.379 8.42692C15.379 8.35272 15.4189 8.29564 15.4931 8.26711V8.27282ZM15.2192 7.50797C15.242 7.46231 15.2306 7.42236 15.1906 7.38811C15.1507 7.35387 15.0993 7.31962 15.0479 7.27967C15.0936 7.23971 15.1164 7.18264 15.1164 7.09702C15.1164 7.05136 15.1164 6.97716 15.105 6.88012C15.0765 6.81163 15.0479 6.76597 15.0251 6.74313C14.9795 6.69747 14.9281 6.69177 14.8653 6.72031C14.7683 6.73743 14.6769 6.78879 14.6027 6.87441C14.5285 6.96003 14.4829 7.05706 14.4658 7.16551C14.4486 7.25684 14.5 7.33104 14.6084 7.38241C14.7169 7.43378 14.7797 7.47943 14.7968 7.50797C14.5228 7.81048 14.1632 8.13012 13.7237 8.46688C13.4726 8.65524 13.0902 8.94062 12.5822 9.31163C12.8733 9.18035 13.1473 9.02624 13.4155 8.8436C13.6267 8.7009 13.8893 8.50112 14.1918 8.24998C14.2774 8.22144 14.403 8.09587 14.5799 7.88469C14.734 7.70204 14.8482 7.61072 14.9338 7.61072C14.9966 7.61072 15.0537 7.63925 15.105 7.69062L15.2192 7.50797ZM12.9931 6.83446C12.879 6.99428 12.6735 7.13126 12.3767 7.24542C12.1541 7.33104 12.0171 7.38811 11.9543 7.42806C11.3151 7.74199 10.8413 7.9703 10.5274 8.12441C9.95662 8.40409 9.49429 8.66665 9.14612 8.90067C9.14612 8.71802 9.28881 8.5582 9.56849 8.42122C9.75685 8.32989 9.88242 8.25569 9.94521 8.20432C10.9555 7.7477 11.9715 7.29108 12.9931 6.83446ZM14.774 10.5788L14.7055 10.8071C14.6769 10.8071 14.6142 10.7899 14.5285 10.7557C14.4429 10.7214 14.3744 10.7157 14.3288 10.7386C14.2603 10.847 14.2146 11.024 14.1918 11.2694C14.1689 11.5148 14.129 11.6918 14.0662 11.7888C14.0205 11.7603 13.9235 11.6119 13.7808 11.355C13.6667 11.1438 13.524 11.0525 13.347 11.0925C13.3014 11.0468 13.2785 11.0011 13.2785 10.9555C13.2785 10.9269 13.2957 10.8756 13.3242 10.8071C13.3527 10.7386 13.3699 10.6872 13.3699 10.6472L13.4612 10.5673C13.581 10.6415 13.6952 10.7728 13.7922 10.9555C13.9349 11.2237 14.0263 11.3778 14.0662 11.4235C14.0947 11.2466 14.1347 11.0639 14.1747 10.8698C14.2146 10.6758 14.3002 10.5274 14.4201 10.4304C14.4715 10.4246 14.54 10.4418 14.6142 10.4874C14.6884 10.5331 14.7454 10.5616 14.774 10.5788ZM9.24886 7.50797C9.22032 7.5251 9.19178 7.56505 9.16324 7.63354C9.1347 7.70204 9.09475 7.74199 9.04338 7.75912C8.97489 7.73058 8.92922 7.68491 8.90068 7.63354C8.87215 7.58217 8.86073 7.51939 8.86073 7.4509C8.86073 7.42807 8.87215 7.35387 8.89498 7.234C8.91781 7.11414 8.92351 7.02282 8.91781 6.96003C8.85502 7.09702 8.80936 7.21688 8.78082 7.31962C8.75228 7.42236 8.73516 7.5251 8.73516 7.63354C8.73516 7.74199 8.74087 7.8219 8.75799 7.87327C8.79795 7.93605 8.8379 7.97601 8.88356 8.00455C8.92922 8.03309 8.98059 8.0388 9.04338 8.02168C9.22032 7.8904 9.28881 7.71916 9.24886 7.50797ZM18.3813 14.9167C18.3813 15.0822 18.3356 15.2306 18.2386 15.3504C18.1416 15.4703 18.0331 15.5331 17.9018 15.5331C17.8562 15.5331 17.8219 15.5274 17.7991 15.5103C17.7306 15.5845 17.6735 15.6358 17.6336 15.6644C17.5936 15.6929 17.5422 15.7043 17.4909 15.7043C17.4452 15.7043 17.4052 15.6872 17.3653 15.6587C17.3139 15.5502 17.2112 15.4988 17.0571 15.4988C17.0171 15.4988 16.9886 15.4988 16.96 15.4988C16.9315 15.4988 16.8916 15.516 16.8288 15.5388C16.4178 15.8299 16.0068 16.1153 15.5959 16.4064C15.339 16.5719 15.1221 16.6975 14.9566 16.7831C14.734 16.8972 14.5057 16.9829 14.2603 17.0456C14.5171 16.9087 14.7568 16.766 14.9795 16.6233C15.2934 16.4121 15.5217 16.2523 15.6758 16.1438C16.0354 15.887 16.2637 15.7214 16.3607 15.653C16.6119 15.476 16.8516 15.339 17.0799 15.2306C17.1484 15.1906 17.2511 15.2135 17.3938 15.2877C17.5365 15.3619 17.6221 15.4018 17.6621 15.4018C17.7078 15.4018 17.742 15.3847 17.7648 15.3561C17.7877 15.3276 17.8048 15.2591 17.8219 15.1621L17.8904 15.0251L17.9589 15.2648C18.0674 15.2705 18.1473 15.2363 18.2043 15.1564C18.2614 15.0765 18.3185 14.9966 18.3813 14.9109V14.9167ZM19.9909 10.9783C19.8824 10.476 19.7797 9.95661 19.6769 9.41437C19.5742 8.87213 19.5228 8.38698 19.5228 7.95319L19.968 8.36414C19.9281 8.07304 19.8482 7.77624 19.7283 7.46232C19.6427 7.25113 19.5171 6.96574 19.3402 6.60615C19.2546 6.63469 19.1861 6.7146 19.1347 6.84588C19.0605 7.02853 19.0091 7.13697 18.9863 7.16551C19.0605 7.73058 19.1575 8.39268 19.2717 9.15181C19.3174 9.43149 19.4258 10.105 19.5913 11.1609C19.6998 11.8288 19.8025 12.5023 19.911 13.1701C19.8196 13.2386 19.7226 13.2842 19.6256 13.3128C19.5285 13.3413 19.4087 13.3527 19.2717 13.3527H19.1347C19.089 13.3527 19.0434 13.3527 18.9977 13.3413C18.9349 13.2956 18.8265 13.2214 18.6667 13.1244C18.5525 13.0274 18.5126 12.9075 18.5411 12.7705C18.5126 12.7991 18.4098 12.9589 18.2443 13.2386C18.1244 13.4383 17.9874 13.5696 17.8447 13.6381C17.7763 13.6667 17.6906 13.6838 17.5936 13.6838C17.4566 13.6838 17.3482 13.6495 17.2683 13.581C17.1884 13.5125 17.1427 13.444 17.1256 13.3698C17.1084 13.2956 17.1027 13.2272 17.1027 13.1587C17.1027 13.0673 17.1084 12.976 17.1256 12.8847C16.96 13.0673 16.7945 13.2443 16.6347 13.4212C16.4292 13.6267 16.2295 13.7294 16.0297 13.7294C15.9212 13.7351 15.8299 13.718 15.7443 13.6781C15.6587 13.6381 15.5845 13.581 15.5103 13.5068C15.4361 13.4326 15.4018 13.3698 15.4018 13.3071C15.4018 13.2557 15.4418 13.1701 15.516 13.0502C15.5902 12.9304 15.6244 12.8333 15.6073 12.7477C15.4646 12.7934 15.1507 12.9361 14.6712 13.1701C14.2888 13.3584 13.9749 13.4669 13.7237 13.4897C13.7009 13.2899 13.621 13.113 13.484 12.9532C13.3413 12.7648 13.1815 12.6107 13.0046 12.5023C12.8276 12.3938 12.645 12.3367 12.4452 12.3367C12.3596 12.3367 12.274 12.3482 12.1826 12.371C11.9315 12.5536 11.7431 12.7819 11.6176 13.0559C11.492 13.3299 11.4292 13.6324 11.4292 13.9577C11.5491 14.1347 11.6975 14.2546 11.8744 14.3173C12.0514 14.3801 12.2511 14.4144 12.4795 14.4144C12.6336 14.4144 12.7763 14.403 12.9132 14.3801C13.0502 14.3573 13.1929 14.3288 13.347 14.3002C13.3984 14.3744 13.4212 14.4714 13.4155 14.5856C12.3824 15.476 11.8573 15.9269 11.8516 15.9326C11.218 16.395 10.6358 16.629 10.0936 16.629C9.93379 16.629 9.77968 16.6119 9.63128 16.5833C9.48288 16.5548 9.32877 16.4977 9.16895 16.4235C8.96347 16.1552 8.86073 15.8698 8.86073 15.5559C8.86073 15.4703 8.87215 15.379 8.89498 15.2705C9.21461 15.0593 9.53995 14.8425 9.8653 14.6313C10.2534 14.3744 10.5331 14.1119 10.71 13.8436C10.7785 13.7294 10.8242 13.6153 10.8527 13.4954C10.8813 13.3756 10.8927 13.2557 10.8927 13.1244C10.8927 12.9646 10.8642 12.7306 10.8014 12.4281C10.7386 12.1256 10.71 11.8972 10.71 11.7545L10.9954 11.8687C10.9498 11.6861 10.8642 11.4749 10.7329 11.2409C10.6644 11.1096 10.5559 10.9269 10.4018 10.6815C10.3048 10.7443 10.2306 10.8299 10.1792 10.9383C10.1279 11.0468 10.0879 11.1895 10.0594 11.355C10.105 11.6119 10.1849 11.96 10.2991 12.3938C10.3904 12.7363 10.4874 13.0787 10.5845 13.4212C9.99087 13.8835 9.35731 14.3116 8.6895 14.6998C8.12443 15.0251 7.45662 15.3676 6.68037 15.7272C6.08676 16.0011 5.40753 16.2922 4.63699 16.6061C5.8242 16.4178 6.54338 16.2922 6.79452 16.2294C7.61073 16.0411 8.26142 15.7557 8.75799 15.3847C8.75228 15.4703 8.73516 15.5959 8.71233 15.7671C8.6895 15.9383 8.67808 16.0925 8.67808 16.2294C8.67808 16.4406 8.70662 16.6347 8.7637 16.8116C8.82078 16.9886 8.92352 17.1313 9.06621 17.2454C9.30023 17.3653 9.57991 17.4281 9.89954 17.4281C9.9395 17.4281 9.98516 17.4281 10.0479 17.4281C10.1107 17.4281 10.1792 17.4167 10.2534 17.4109C10.9612 17.1826 11.629 16.8116 12.2626 16.3036C12.5537 16.0582 12.839 15.7386 13.1301 15.3333C13.3984 14.9623 13.6153 14.597 13.7922 14.2488C14.2032 14.0833 14.4486 13.9806 14.5228 13.952C14.734 13.855 14.9509 13.7237 15.1735 13.5639L15.1393 13.9635C15.1678 14.1176 15.2477 14.2374 15.3733 14.3288C15.4989 14.4201 15.6473 14.4772 15.8128 14.5C16.0183 14.5228 16.2123 14.4543 16.395 14.2945C16.4635 14.2431 16.6062 14.0776 16.8288 13.8036L16.8973 14.1461C16.9429 14.2546 17.0171 14.3288 17.1142 14.3801C17.2112 14.4315 17.3196 14.4543 17.4338 14.4543C17.645 14.4543 17.8333 14.3573 17.9931 14.1575C18.0445 14.0947 18.153 13.9178 18.3128 13.621C18.3527 13.7066 18.4041 13.7808 18.4783 13.8493C18.5525 13.9178 18.621 13.9692 18.6895 14.0091C18.8322 14.0947 18.992 14.1347 19.1689 14.1347C19.403 14.1347 19.6199 14.0776 19.8082 13.9635C19.9395 13.6895 20.0251 13.4269 20.0708 13.1815C20.1164 12.9361 20.1393 12.6621 20.1393 12.3653C20.1393 12.1541 20.1221 11.9258 20.0936 11.6918C20.0651 11.4577 20.0308 11.218 19.9909 10.984V10.9783ZM9.6484 9.99656L9.61415 10.2249C9.5742 10.2306 9.53995 10.2249 9.5 10.2135C9.40297 10.1678 9.33447 10.1393 9.29452 10.1221C9.24315 10.5331 9.2089 10.7785 9.19178 10.8584C9.17466 10.9383 9.1347 11.0525 9.06621 11.2066C9.02625 11.1552 8.98059 11.0582 8.91781 10.9212C8.79794 10.6415 8.71233 10.4646 8.66667 10.3961C8.62671 10.4589 8.58105 10.4874 8.52968 10.4874C8.48973 10.4874 8.45548 10.476 8.42694 10.4475C8.3984 10.4189 8.38128 10.379 8.38128 10.3276C8.38128 10.2762 8.40411 10.202 8.44406 10.105C8.48402 10.008 8.50685 9.95661 8.50685 9.9509C8.621 9.9509 8.71804 10.0137 8.79224 10.1335C8.88356 10.3447 8.97488 10.5559 9.06621 10.7614C9.08904 10.6016 9.11758 10.4418 9.14612 10.2762C9.17466 10.1107 9.22603 9.96802 9.29452 9.83674C9.4258 9.83674 9.53995 9.88811 9.6484 9.99656ZM5.00228 8.61528C4.95662 8.74656 4.92237 8.83788 4.89954 8.90067C4.85388 9.01482 4.80251 9.10615 4.75114 9.17465C4.7968 9.04337 4.83676 8.88926 4.87671 8.7009C4.91667 8.51254 4.93379 8.34131 4.93379 8.18149C4.93379 7.95318 4.90525 7.75341 4.84817 7.58218C4.7911 7.41094 4.68836 7.25113 4.54566 7.09702L4.65982 6.86871C4.80251 6.98286 4.91096 7.14268 4.97945 7.34245C5.04795 7.54222 5.08219 7.75341 5.08219 7.96459C5.08219 8.05592 5.08219 8.15866 5.06507 8.26711C5.05365 8.37555 5.03082 8.49542 5.00228 8.61528ZM8.10731 12.0856C8.10731 12.7705 7.74772 13.3813 7.03425 13.9121C6.51484 14.2945 5.84703 14.6198 5.02511 14.8938C4.72831 14.9851 4.40868 15.0308 4.06621 15.0308C3.72374 15.0308 3.42694 14.9794 3.15297 14.871C2.879 14.7625 2.64498 14.5913 2.44521 14.3573C2.2911 14.2203 2.18265 14.0491 2.10845 13.8493C2.03425 13.6495 2 13.4269 2 13.1929C2 13.0046 2.01712 12.8105 2.04566 12.6164C2.0742 12.4224 2.1484 12.1883 2.26256 11.9144C2.26256 11.8173 2.35959 11.629 2.54795 11.355C2.64498 11.2123 2.69635 11.1096 2.69635 11.0468C2.69635 10.9269 2.61073 10.8242 2.44521 10.7386C2.35959 10.5103 2.31963 10.2648 2.31963 10.008C2.31963 9.61985 2.42808 9.20318 2.63927 8.76369C2.68493 8.66666 2.90183 8.28994 3.28995 7.64496C3.13014 8.01597 3.01027 8.30706 2.92466 8.51254C2.77055 8.88355 2.69635 9.20319 2.69635 9.46003C2.69635 9.63698 2.71918 9.78537 2.77055 9.91094C2.82192 10.0365 2.91324 10.1621 3.05023 10.2819C3.12443 10.2991 3.18151 10.2591 3.22146 10.1678C3.26142 10.0765 3.29566 10.0194 3.3242 9.99656C3.34132 10.0708 3.34703 10.1278 3.34703 10.1678C3.34703 10.2991 3.31279 10.4361 3.23858 10.5902C3.16438 10.7443 3.09589 10.887 3.0274 11.024C2.85046 11.024 2.72489 11.1153 2.63927 11.3036C2.55365 11.492 2.47945 11.6689 2.41096 11.8345C2.38813 11.9315 2.3653 12.0571 2.34247 12.2112C2.31963 12.3653 2.30822 12.4909 2.30822 12.5993C2.30822 12.7991 2.32534 12.9646 2.35959 13.0959C2.39384 13.2272 2.46233 13.3584 2.55936 13.4897C2.75913 13.7637 2.99886 13.9635 3.27854 14.0947C3.55822 14.226 3.87785 14.2888 4.22603 14.2888C4.39155 14.2888 4.58562 14.2717 4.7968 14.2317C5.31621 14.1233 5.81279 13.9406 6.28653 13.6781C6.76027 13.4155 7.22831 13.0845 7.68493 12.6792C7.51941 12.605 7.13128 12.5479 6.52055 12.5194C5.6016 12.468 5.13927 12.137 5.13927 11.5262C5.28196 10.9269 5.58447 10.3504 6.03539 9.79679C6.4863 9.24314 7 8.83788 7.57078 8.58103C7.66781 8.5582 7.77055 8.58674 7.86758 8.67236C7.91895 8.71802 7.99315 8.80364 8.08447 8.9235C8.06164 9.05478 8.04452 9.18035 8.0274 9.31163C7.99886 9.45432 7.94749 9.57989 7.87899 9.68834C7.85616 9.67122 7.80479 9.61414 7.72488 9.5114C7.64498 9.40866 7.57078 9.34588 7.50228 9.32305C7.09703 9.36871 6.7089 9.57989 6.3379 9.96231C6.13242 10.1735 5.85274 10.5445 5.49315 11.0696C5.4532 11.1667 5.47603 11.2637 5.56164 11.355C5.60731 11.4064 5.69292 11.4692 5.81279 11.5377C5.90982 11.6233 6.03539 11.6804 6.18379 11.7146C6.33219 11.7488 6.49201 11.766 6.66895 11.766H6.90868C6.99429 11.766 7.0742 11.766 7.15982 11.7545C7.371 11.7545 7.55936 11.7774 7.71347 11.8173C7.86758 11.8573 7.99886 11.9486 8.10731 12.0856ZM4.14612 12.3482C4.12329 12.4109 4.09475 12.468 4.06621 12.5308C4.03767 12.5936 3.9863 12.6164 3.91781 12.5993C3.80365 12.508 3.74658 12.3995 3.74658 12.2683C3.74658 12.1998 3.77511 12.097 3.82648 11.96C3.92352 11.7089 3.97489 11.5434 3.97489 11.4692C3.85502 11.6918 3.7637 11.8915 3.71233 12.0685C3.66096 12.2454 3.63242 12.4395 3.63242 12.645C3.67237 12.7192 3.72374 12.7819 3.78653 12.8333C3.84931 12.8847 3.92352 12.8904 3.99772 12.8619C4.07192 12.7991 4.12329 12.7249 4.14041 12.6393C4.15753 12.5536 4.16324 12.4566 4.14041 12.3482H4.14612ZM14.911 7.17693C14.8368 7.13698 14.7568 7.10272 14.6826 7.06277C14.6826 7.02281 14.7112 7.00569 14.774 7.00569C14.8881 7.00569 14.9338 7.04565 14.911 7.13127V7.17693ZM13.0616 13.6153C12.9304 13.6381 12.8048 13.6495 12.6735 13.6495C12.4909 13.6495 12.3253 13.621 12.1769 13.5639C12.0285 13.5068 11.903 13.4155 11.8059 13.2842C11.8002 13.2214 11.8174 13.1815 11.8573 13.1587C11.8973 13.1358 11.9543 13.113 12.0228 13.0902C12.2283 13.0902 12.4167 13.1358 12.5936 13.2329C12.7705 13.3299 12.9247 13.4555 13.0616 13.6153Z" fill="white"/>
</svg>
