<svg width="24" height="24" viewBox="0 0 24 24" fill="none" xmlns="http://www.w3.org/2000/svg">
<path fill-rule="evenodd" clip-rule="evenodd" d="M21.9998 9.0209C21.9032 9.03164 21.8281 8.95649 21.7636 8.79546C21.6992 8.63443 21.6348 8.53782 21.5758 8.50561L21.4362 8.80083C21.4362 9.14436 21.4684 9.5845 21.5382 10.1266C21.6939 11.3397 21.769 12.1127 21.769 12.4455C21.769 13.2613 21.7475 13.8679 21.7046 14.2597C21.6348 14.9199 21.4845 15.4889 21.2537 15.9613C21.3235 15.5855 21.3718 15.2366 21.4094 14.9253C21.4416 14.614 21.4631 14.2973 21.4631 13.9806V13.6478C21.447 13.5458 21.4362 13.4707 21.4362 13.4277L20.9317 7.79708C20.9317 7.73804 20.9156 7.66826 20.878 7.59311C20.8458 7.51796 20.8243 7.44819 20.8243 7.38914C20.8243 7.31936 20.8404 7.23348 20.878 7.13149C20.9907 6.80407 21.0981 6.64304 21.2 6.64304C21.2591 6.65378 21.4094 7.01877 21.6509 7.73804C21.8925 8.4573 22.0052 8.88671 21.9998 9.02627V9.0209ZM18.06 6.83091C17.9848 6.94363 17.8667 7.04561 17.7111 7.14223C17.593 7.21201 17.4373 7.28179 17.2495 7.3623C17.0616 7.43745 16.9167 7.4965 16.8093 7.5287C16.6268 7.60385 16.4819 7.67899 16.3692 7.74877C16.4443 7.61995 16.5463 7.5126 16.6698 7.42135C16.7932 7.3301 16.9435 7.24958 17.1153 7.16907C17.4266 7.05635 17.7379 6.94363 18.0546 6.83628L18.06 6.83091ZM18.0063 8.6237C17.9204 8.81157 17.754 8.95649 17.5017 9.04774C17.1314 9.19267 16.9167 9.28929 16.8576 9.33223C16.8308 9.27855 16.8415 9.22487 16.8845 9.16583L17.024 9.02627C16.8523 8.95649 16.7664 8.88135 16.7664 8.79546C16.7664 8.75252 16.7825 8.71495 16.82 8.67738C16.965 8.44657 17.067 8.30164 17.1314 8.25333C17.228 8.16745 17.3246 8.12451 17.4266 8.12451C17.5125 8.16745 17.5661 8.20502 17.5823 8.24259C17.593 8.30164 17.5715 8.36068 17.5286 8.4251C17.4856 8.48414 17.4481 8.54318 17.4105 8.59149C17.3783 8.47877 17.3085 8.4251 17.2065 8.4251C17.1636 8.4251 17.1314 8.4412 17.1045 8.47877L17.0025 8.59686C17.1153 8.71495 17.2817 8.77936 17.5071 8.77936L18.0117 8.6398L18.0063 8.6237ZM19.7186 8.69885C19.5575 7.97958 19.2677 7.27642 18.8544 6.6001L18.4786 7.3623C18.5967 7.50723 18.6611 7.66826 18.6611 7.84002L19.4072 13.0842C19.4072 13.154 19.4072 13.256 19.418 13.3955C19.4287 13.5351 19.4287 13.6371 19.4287 13.7068C19.4287 13.8464 19.4126 13.9645 19.3858 14.0718C19.3536 14.1792 19.3053 14.2758 19.2355 14.3617C19.2355 14.2866 19.2355 14.206 19.2409 14.1309C19.2409 14.0557 19.2462 13.9699 19.2462 13.884C19.2462 13.6102 19.2248 13.3741 19.1872 13.1808C19.1496 12.9876 19.0691 12.8158 18.951 12.6709L15.14 8.22649C15.0541 8.12451 15.0326 8.03863 15.0756 7.96885C15.1078 7.96885 15.1829 7.99568 15.2956 8.05473C15.4084 8.1084 15.4835 8.11377 15.5264 8.0601C15.0809 7.61458 14.6354 7.16907 14.2006 6.71819C14.1309 6.90605 14.0826 7.05635 14.0611 7.1637C14.0342 7.27105 14.0235 7.39988 14.0235 7.5448C14.3563 8.17282 14.8072 8.84377 15.3654 9.5523C15.7519 10.0408 16.294 10.6741 16.9864 11.4471C17.9043 12.4616 18.4572 13.0788 18.6504 13.3043C18.8061 13.5458 18.9027 13.7176 18.9456 13.8196C19.0422 14.0182 19.0852 14.2007 19.0852 14.3724C19.0852 14.4852 19.0745 14.571 19.0584 14.6301C18.7685 14.9897 18.3606 15.3225 17.8345 15.6231C17.5447 15.7841 17.0938 16.0203 16.4926 16.3316C16.863 16.2618 17.2548 16.1921 17.6789 16.1116C18.0975 16.0364 18.4357 15.913 18.6826 15.7519C19.0798 15.3332 19.3589 14.8609 19.52 14.3349C19.6595 13.8947 19.7239 13.3633 19.7239 12.7353C19.5414 11.3021 19.3643 9.86362 19.1818 8.41973L19.257 8.23723L19.7078 8.69885H19.7186ZM13.5351 8.82767C13.476 9.01017 13.417 9.13899 13.3687 9.21414C13.2828 9.3537 13.1701 9.44495 13.0359 9.49862C12.95 9.51473 12.8641 9.53083 12.7782 9.5362C12.7084 9.5362 12.6548 9.51472 12.6118 9.47178C12.542 9.37517 12.5098 9.27855 12.5098 9.17657C12.5098 9.06385 12.5581 8.94039 12.6494 8.79546C12.746 8.65591 12.8319 8.51635 12.9178 8.38752C12.9178 8.44657 12.8748 8.54855 12.7943 8.69885C12.7138 8.84377 12.6709 8.94575 12.6709 9.01017C12.6709 9.10678 12.7299 9.1873 12.8534 9.25708C12.9285 9.27318 13.0037 9.26781 13.0734 9.23024C13.1432 9.19804 13.2291 9.14436 13.3311 9.07458C13.3311 9.0048 13.2774 8.92428 13.1701 8.8384C13.0627 8.74715 13.009 8.68274 13.009 8.6398C13.009 8.58076 13.0627 8.52171 13.1647 8.4573C13.2345 8.51098 13.3042 8.55392 13.3687 8.59686C13.4653 8.67201 13.519 8.75252 13.5351 8.82767ZM14.0611 11.0552C14.002 11.1143 13.943 11.1841 13.8786 11.2592C13.782 11.388 13.6961 11.5115 13.6102 11.6349C13.5673 11.5759 13.4545 11.4954 13.2774 11.3988C13.0949 11.3021 13.009 11.2109 13.009 11.1357C13.009 11.0928 13.0359 11.0391 13.0842 10.9694L13.5351 10.4809C13.637 10.5668 13.7444 10.6473 13.8571 10.7278C13.9967 10.8459 14.0611 10.9586 14.0611 11.0606V11.0552ZM12.8265 6.83091C12.5796 6.90605 11.9784 7.09392 11.023 7.38377C10.6258 7.50186 10.03 7.68973 9.23021 7.93664C8.90278 8.03862 8.56462 8.15134 8.22109 8.26406C7.87756 8.37678 7.63065 8.54318 7.49109 8.75789C8.833 8.30164 10.2769 7.83466 11.8335 7.35157C11.9784 7.30863 12.1287 7.26569 12.2844 7.22275C12.585 7.13686 12.7675 7.00267 12.8265 6.82554V6.83091ZM11.1894 9.44495C11.1465 9.60061 11.1142 9.69722 11.0981 9.74016C11.0445 9.85289 10.9747 9.92267 10.8781 9.94414C10.819 9.96024 10.76 9.94414 10.6956 9.87972C10.6365 9.79384 10.5936 9.7348 10.5667 9.69723C10.556 9.66502 10.556 9.61134 10.556 9.54156C10.556 9.41274 10.5775 9.27855 10.6258 9.14436C10.6741 9.0048 10.7331 8.87598 10.8137 8.74715C10.7546 8.88671 10.7224 9.03701 10.7224 9.19804C10.7224 9.35907 10.7546 9.49326 10.8244 9.59524C10.8405 9.62208 10.8673 9.63818 10.8995 9.63818C10.9317 9.63818 10.9693 9.64355 11.0015 9.64355C11.0337 9.60061 11.0659 9.56303 11.0928 9.5362C11.1196 9.50399 11.1304 9.47178 11.1304 9.43958H11.184L11.1894 9.44495ZM12.6977 12.7568C12.6977 12.8695 12.6762 12.9822 12.6387 13.0896C12.6011 13.2023 12.5367 13.2774 12.4508 13.3204C12.3756 13.3204 12.3059 13.2989 12.2468 13.2506C12.1878 13.2023 12.1448 13.1379 12.118 13.0574C12.0912 12.9769 12.0804 12.9017 12.0804 12.8319C12.0804 12.7031 12.118 12.5635 12.1985 12.4079C12.1985 12.3971 12.2737 12.2683 12.4186 12.0107C12.4078 12.0697 12.381 12.1717 12.3273 12.322C12.2737 12.4669 12.2522 12.5743 12.2522 12.6441C12.2522 12.7997 12.3059 12.9178 12.4186 13.0037C12.4937 13.0305 12.5581 13.0037 12.6065 12.9285C12.6548 12.8534 12.687 12.7944 12.7031 12.7621L12.6977 12.7568ZM6.78257 6.67524C6.88455 6.85774 6.93823 7.07245 6.93823 7.31936C6.93823 7.63605 6.85234 7.95811 6.68058 8.28554C6.71279 8.19965 6.73426 8.11914 6.74499 8.03862C6.75573 7.96348 6.75573 7.86686 6.75573 7.75414C6.75573 7.61458 6.75573 7.50723 6.74499 7.42671C6.73426 7.3462 6.72889 7.27105 6.72352 7.20127C6.72352 7.1315 6.71815 7.07782 6.71815 7.03488C6.71815 6.92215 6.73962 6.80407 6.78257 6.67524ZM15.1561 14.8663C14.7428 15.0917 14.3509 15.2635 13.9859 15.3816C13.5243 15.5372 13.0895 15.6124 12.687 15.6124C12.3112 15.6124 11.9462 15.5426 11.592 15.4084C11.3451 15.2796 11.1196 15.1078 10.9156 14.8877C10.7117 14.6677 10.5775 14.4261 10.5077 14.1577C10.4755 14.3832 10.3896 14.5925 10.2608 14.7911C10.132 14.9897 9.96558 15.1293 9.75624 15.2152C9.55763 15.2742 9.38587 15.3064 9.24094 15.3064C9.06918 15.3064 8.90815 15.2688 8.75249 15.1883C8.66661 15.1561 8.54852 15.0058 8.39286 14.7374C8.32308 14.6247 8.25867 14.571 8.19962 14.571C8.15668 14.571 8.11374 14.5871 8.0708 14.6247C7.84536 14.8985 7.67359 15.0863 7.55551 15.1937C7.3408 15.3762 7.11536 15.4621 6.87382 15.4621C6.64837 15.4621 6.4444 15.3655 6.2619 15.1776C6.0794 14.9897 5.95058 14.7804 5.8808 14.5442C5.79492 13.8894 5.73588 13.1271 5.70904 12.2469C5.67683 11.3666 5.64463 10.4863 5.61242 9.60597C5.58021 8.72568 5.4997 7.95811 5.38161 7.30863L5.77882 6.6001C5.92374 7.22811 6.01499 8.03863 6.0472 9.03701C6.05793 9.88509 6.06867 10.7654 6.0794 11.6671C6.09014 12.5689 6.16529 13.3472 6.30485 13.9967C6.36389 14.1148 6.44977 14.2275 6.55712 14.3295C6.66448 14.4315 6.77183 14.5013 6.87382 14.5335C6.9758 14.5657 7.06168 14.5871 7.13146 14.5871C7.3569 14.5871 7.59845 14.4691 7.86683 14.2275C8.21036 13.9162 8.4358 13.7444 8.53778 13.7122C8.48411 13.8088 8.46264 13.884 8.46264 13.943C8.46264 14.0396 8.50558 14.1202 8.58609 14.1953C8.66661 14.2705 8.77396 14.3295 8.90278 14.3832C9.03161 14.4368 9.17116 14.4583 9.31609 14.4583C9.61668 14.4583 9.87432 14.3617 10.089 14.1738C10.2876 14.0182 10.3842 13.8196 10.3842 13.5673C10.3842 13.4385 10.3252 13.1701 10.2018 12.7568C10.1427 12.5528 10.1105 12.3864 10.1105 12.2683C10.1373 12.1234 10.1749 11.9838 10.234 11.8496C10.2876 11.7155 10.3628 11.5759 10.4487 11.431C10.4809 11.5276 10.5721 11.9946 10.717 12.8373C10.8995 13.8571 11.3397 14.4691 12.0428 14.6677C12.2844 14.7267 12.5313 14.7589 12.789 14.7589C13.1647 14.7589 13.5726 14.6945 14.002 14.5657C14.3134 14.4691 14.6837 14.3188 15.1239 14.1148C15.0702 13.9162 15.0058 13.7444 14.9306 13.5995C14.8555 13.4546 14.775 13.3096 14.6998 13.1594L15.0863 12.5796C15.2312 12.7353 15.3332 12.9017 15.3976 13.0896C15.4567 13.2721 15.4889 13.476 15.4889 13.6907C15.4889 14.1202 15.3815 14.5174 15.1668 14.877L15.1561 14.8663ZM9.35903 10.1749C9.35903 10.1749 9.29462 10.132 9.19263 10.0461C9.13359 10.0032 9.07455 9.98708 9.02624 9.99244C8.82227 10.0944 8.67197 10.293 8.58609 10.5829C8.54315 10.7385 8.48411 10.9747 8.40359 11.2914C8.37139 11.2324 8.30697 11.0874 8.22109 10.8674C8.103 10.5668 7.97955 10.3413 7.86146 10.1964C7.78631 10.1803 7.70043 10.2286 7.60381 10.336C7.56087 10.4058 7.5394 10.4648 7.5394 10.5185C7.5394 10.6205 7.58771 10.701 7.67896 10.7654C7.7058 10.7815 7.79705 10.8191 7.94734 10.8835C7.96345 10.9157 8.04396 11.0982 8.17815 11.4256C8.2372 11.5705 8.29087 11.6725 8.33381 11.7369C8.44653 11.5974 8.53242 11.3666 8.59146 11.0391C8.6505 10.7117 8.73102 10.4809 8.83837 10.3413C8.88131 10.3145 8.92425 10.3091 8.96719 10.3306C9.01013 10.3467 9.05844 10.3682 9.10675 10.395C9.1819 10.4541 9.23558 10.4594 9.26241 10.4004C9.28925 10.3467 9.31609 10.2716 9.35366 10.1749H9.35903ZM3.83036 7.21201L3.75522 7.45892C3.54051 7.40524 3.40632 7.55554 3.34728 7.9098C3.2936 8.26407 3.21845 8.48414 3.13257 8.58076C3.11647 8.56465 3.02522 8.38752 2.86419 8.05473C2.75147 7.82929 2.59581 7.7273 2.40257 7.7434C2.32743 7.7112 2.28448 7.65752 2.28448 7.58775C2.28448 7.5448 2.29522 7.49649 2.31669 7.43745C2.33816 7.38377 2.365 7.31399 2.40257 7.23885C2.44551 7.19591 2.48309 7.17443 2.52066 7.17443C2.55823 7.17443 2.59581 7.18517 2.63875 7.21201C2.74073 7.3301 2.84272 7.48576 2.95007 7.67363C3.00912 7.78635 3.08963 7.95274 3.19698 8.17818C3.25603 7.90443 3.30434 7.6951 3.33654 7.5448C3.41169 7.27642 3.51904 7.1476 3.6586 7.1476C3.71228 7.1476 3.77132 7.16907 3.8411 7.21201H3.83036ZM11.5222 16.5141C11.3343 16.761 11.1357 16.9811 10.9317 17.169C10.7278 17.0133 10.5184 16.8577 10.3145 16.7074C10.3574 16.6215 10.4165 16.5356 10.497 16.4497C10.5292 16.4068 10.6741 16.2779 10.921 16.0632C11.1357 16.1921 11.3397 16.3424 11.5276 16.5141H11.5222ZM3.69081 9.04237C3.72301 9.11752 3.71228 9.19804 3.6586 9.27318C3.60492 9.34833 3.54588 9.42347 3.48684 9.49325C3.34728 9.58987 3.19698 9.66502 3.03595 9.72943C2.87493 9.79384 2.72463 9.82605 2.58507 9.82605C2.65485 9.75627 2.75684 9.69186 2.8964 9.63281C3.19698 9.49326 3.37948 9.39664 3.44926 9.33759C3.34728 9.30539 3.26676 9.28392 3.20235 9.27318C3.14331 9.26245 3.07353 9.26245 2.99838 9.26245C2.82662 9.26245 2.68169 9.31076 2.55823 9.40201C2.58507 9.24634 2.64948 9.13899 2.75147 9.07995C2.85345 9.0209 2.98765 8.98869 3.14867 8.98869C3.26139 8.98869 3.35801 8.99406 3.43853 9.01017C3.51904 9.0209 3.60492 9.03164 3.69081 9.04237ZM9.24094 16.7825L8.50558 17.3085L8.01712 16.9489L7.49109 17.3998C7.35153 17.3676 7.21198 17.3032 7.07242 17.2066C6.93286 17.1099 6.82551 17.0133 6.75573 16.9113C6.79867 16.8845 6.90602 16.7718 7.07779 16.5785C7.19587 16.439 7.31933 16.3799 7.43742 16.396C7.65212 16.5141 7.86683 16.6322 8.08153 16.7449L8.55925 16.2296C8.71491 16.3477 8.87058 16.4658 9.02087 16.5839C9.17116 16.702 9.24631 16.7664 9.24094 16.7825ZM4.89852 13.8464L4.32956 14.5174C3.54588 14.8877 2.77294 15.2527 2 15.6124C2.09662 15.4567 2.19324 15.301 2.29522 15.1346C2.42404 14.9629 2.5636 14.8341 2.70853 14.7482C2.5475 14.6355 2.44551 14.5657 2.41331 14.5442C2.31132 14.4583 2.23081 14.3617 2.1825 14.249C2.25765 13.8947 2.42941 13.5673 2.69243 13.2613C2.95544 12.9554 3.25066 12.7675 3.58882 12.7031C3.81963 12.7031 3.98603 12.8212 4.09338 13.052C4.09338 13.1916 4.0397 13.3257 3.93235 13.4653C3.825 13.6049 3.71764 13.7337 3.61566 13.8518C3.60492 13.7766 3.56198 13.6961 3.48147 13.6156C3.40095 13.5351 3.3097 13.4707 3.21845 13.4277C3.14331 13.417 3.06279 13.4385 2.98228 13.4814C2.90176 13.5244 2.83735 13.5566 2.79441 13.5834C2.9125 13.782 3.08426 13.9269 3.3097 14.0289C3.53514 14.1255 3.77669 14.1792 4.04507 14.1792C4.24367 14.1094 4.3886 14.0611 4.48522 14.0396C4.64088 13.986 4.78044 13.9269 4.90926 13.8571L4.89852 13.8464Z" fill="white"/>
</svg>
