<svg width="24" height="24" viewBox="0 0 24 24" fill="none" xmlns="http://www.w3.org/2000/svg">
<path fill-rule="evenodd" clip-rule="evenodd" d="M21.9957 9.2426C21.9957 9.2426 21.9701 9.27678 21.9402 9.28532C21.9103 9.29387 21.8889 9.28533 21.8847 9.26397C21.859 9.20417 21.812 9.14009 21.748 9.08029C21.6839 9.02049 21.6198 8.9564 21.56 8.8966L21.4789 9.00767C21.4789 9.46474 21.5173 9.99869 21.5899 10.6053C21.7693 12.0534 21.8548 12.9632 21.8548 13.3306C21.8548 14.0611 21.7437 14.7445 21.5173 15.381C21.5173 14.595 21.4831 13.7834 21.4191 12.9504C21.355 12.1175 21.2695 11.2759 21.167 10.4301C21.0645 9.58434 20.962 8.74709 20.8595 7.92693C20.8936 7.8116 20.9406 7.68771 21.0047 7.55956C21.0474 7.4784 21.1158 7.35879 21.2097 7.20074C21.4062 7.645 21.5515 7.97819 21.6412 8.19605C21.8206 8.61467 21.9402 8.96067 22 9.2426H21.9957ZM17.2072 10.1439C17.22 10.1909 17.2243 10.2379 17.2114 10.2764C17.1986 10.3148 17.1602 10.413 17.0918 10.5625C16.968 10.5882 16.8697 10.5369 16.7928 10.4002C16.7715 10.3233 16.7629 10.2507 16.7629 10.1738C16.7629 10.0628 16.7843 9.95171 16.8227 9.83637C16.8441 9.77657 16.8868 9.66978 16.9551 9.52027C16.9338 9.64415 16.921 9.73812 16.9082 9.80219C16.8996 9.86627 16.8911 9.90899 16.8911 9.93035C16.8911 10.0072 16.8996 10.0713 16.921 10.1311C16.9423 10.1909 16.9808 10.2422 17.0449 10.2892C17.079 10.2977 17.1089 10.2763 17.1303 10.2294C17.1559 10.1824 17.1773 10.1525 17.1986 10.1482L17.2072 10.1439ZM17.8821 7.43569L12.9013 8.9735C12.6877 9.0632 12.4699 9.15717 12.2435 9.25542C12.0171 9.35367 11.906 9.50745 11.906 9.71249C11.9957 9.60143 12.141 9.51172 12.346 9.43483C12.6194 9.33231 12.7817 9.26824 12.8287 9.23834L17.6771 7.69199C17.7241 7.66636 17.7668 7.62791 17.8052 7.58093C17.8437 7.53394 17.8693 7.48695 17.8821 7.43569ZM13.8539 7.85431C13.8283 7.99954 13.8026 8.10207 13.7813 8.17042C13.7386 8.2943 13.6617 8.3541 13.5463 8.3541C13.4566 8.24304 13.4139 8.11488 13.4139 7.96537C13.4139 7.81587 13.4566 7.64073 13.5463 7.44423C13.6147 7.30754 13.6617 7.21357 13.6916 7.15803C13.6916 7.20502 13.6617 7.3289 13.5976 7.52539C13.5634 7.63646 13.5463 7.71761 13.5463 7.77314C13.5463 7.88848 13.5891 7.98673 13.6702 8.05935C13.7044 8.04654 13.7343 8.00809 13.7642 7.95256C13.7898 7.89276 13.824 7.86285 13.8582 7.85431H13.8539ZM13.085 6.87183C13.1064 6.91881 13.085 6.97435 13.0124 7.03415C12.944 7.09396 12.9013 7.13668 12.88 7.15803C12.4015 7.3289 12.047 7.45705 11.812 7.53821C11.3678 7.69626 11.0218 7.84577 10.7783 7.991C10.868 7.82868 11.0047 7.68771 11.1927 7.57665C11.3806 7.46559 11.7736 7.32035 12.3759 7.14094C12.692 7.05124 12.927 6.96154 13.085 6.8761V6.87183ZM13.7813 10.4686L13.7087 10.695C13.6617 10.7035 13.6062 10.6693 13.5378 10.5967C13.4737 10.5241 13.4139 10.4942 13.3584 10.5113C13.3157 10.5925 13.2687 10.7761 13.2132 11.0666C13.1576 11.3528 13.0679 11.5579 12.9355 11.6817C12.9013 11.6476 12.8202 11.481 12.6877 11.1777C12.5938 10.9598 12.4443 10.8616 12.2478 10.8787C12.2221 10.8445 12.205 10.8018 12.205 10.7548C12.205 10.7206 12.2179 10.6694 12.2478 10.601C12.2734 10.5327 12.2905 10.4814 12.2905 10.4472C12.3118 10.3917 12.3503 10.3661 12.4144 10.3661C12.44 10.3661 12.4742 10.3746 12.5083 10.396C12.598 10.4771 12.6707 10.5839 12.7347 10.7121C12.8287 10.9086 12.927 11.1093 13.0209 11.3058C13.0978 10.9513 13.1619 10.6779 13.2217 10.4857C13.2815 10.2934 13.3584 10.1995 13.4524 10.1995C13.5421 10.1995 13.6489 10.2892 13.7813 10.4643V10.4686ZM16.5066 16.026C16.1094 16.5301 15.5797 16.7864 14.9176 16.7864C14.768 16.7864 14.6271 16.7736 14.4989 16.7437C14.4434 16.7437 14.3921 16.7138 14.3452 16.6582C14.2982 16.5984 14.264 16.5386 14.2426 16.4703C14.2683 16.3421 14.3494 16.2012 14.4776 16.0517C14.5459 15.9748 14.6143 15.9022 14.6826 15.8253C14.6698 15.8124 14.6356 15.7911 14.5801 15.7655C14.5246 15.7398 14.4904 15.7057 14.4776 15.6629C14.4776 15.586 14.5032 15.5134 14.5502 15.4365C14.5716 15.4024 14.6271 15.3383 14.7125 15.24C14.768 15.2059 14.8236 15.176 14.8748 15.1461C14.9304 15.1204 14.9816 15.1033 15.0286 15.1033C15.097 15.1033 15.1525 15.1418 15.1909 15.2144C15.1995 15.2699 15.1824 15.3169 15.1482 15.3596C15.0927 15.4024 15.0543 15.4323 15.0244 15.4536C14.9688 15.3853 14.9261 15.3426 14.8919 15.3297C14.8578 15.3169 14.815 15.3169 14.768 15.3297C14.7339 15.3639 14.7082 15.3938 14.6869 15.4152C14.6655 15.4408 14.6741 15.4664 14.7082 15.4921C14.7894 15.569 14.9005 15.6031 15.0372 15.6031C15.1141 15.6031 15.1952 15.5946 15.2849 15.5732C15.3746 15.5519 15.4601 15.5305 15.5412 15.5134C15.4643 15.6288 15.2764 15.7441 14.9774 15.8637C14.6783 15.979 14.5032 16.1328 14.4562 16.3251C14.5502 16.3934 14.6613 16.4447 14.7851 16.4788C14.909 16.513 15.0286 16.5301 15.144 16.5301C15.3746 16.5301 15.6053 16.4831 15.8317 16.3934C16.0581 16.2994 16.2845 16.1798 16.5066 16.0303V16.026ZM7.41222 8.08071C7.39086 8.24303 7.37804 8.34128 7.3695 8.36691C7.34387 8.48225 7.28834 8.55914 7.20718 8.59331C7.16019 8.61894 7.1132 8.60186 7.07048 8.54205C7.02777 8.48225 7.00214 8.43953 6.99359 8.4139C6.98505 8.38827 6.98505 8.34556 6.98505 8.27721C6.98505 8.14906 7.00641 8.02091 7.0534 7.9013C7.09611 7.7817 7.16446 7.65781 7.25417 7.52539C7.24562 7.57238 7.21999 7.65354 7.17727 7.77314C7.13456 7.88848 7.10893 7.9782 7.10893 8.038C7.10893 8.14052 7.15164 8.23449 7.23281 8.31566C7.29261 8.31566 7.33533 8.28148 7.35241 8.20886C7.3695 8.13625 7.39086 8.09352 7.42076 8.08071H7.41222ZM19.6036 9.07601C19.5352 8.777 19.437 8.4609 19.3046 8.13198C19.1764 7.80306 19.0312 7.49121 18.8731 7.20074C18.7834 7.31608 18.7108 7.43141 18.6595 7.55102C18.604 7.66636 18.5485 7.7817 18.4972 7.9013C18.7023 8.88379 18.8304 9.49891 18.8774 9.74667C19.0226 10.4857 19.1294 11.1563 19.2021 11.7544C19.2747 12.3567 19.3088 12.9632 19.3088 13.5784C19.1636 13.7407 18.9927 13.8774 18.7962 13.9884C18.7749 14.0013 18.5869 14.0952 18.2324 14.2661C18.0829 14.3259 17.9205 14.3772 17.7497 14.4113C17.5788 14.4455 17.4122 14.4626 17.2456 14.4626C16.985 14.4626 16.7416 14.4284 16.5109 14.3558C16.2802 14.2832 16.088 14.1807 15.9299 14.044C16.2717 13.8646 16.5451 13.745 16.7501 13.6766C17.0662 13.5655 17.3567 13.5143 17.6215 13.5143C17.6685 13.3904 17.7241 13.258 17.7839 13.1127C17.8437 12.9675 17.8778 12.8394 17.8778 12.724C17.4549 12.5318 17.0064 12.3866 16.528 12.2883C16.0538 12.1901 15.5797 12.1388 15.1098 12.1388C14.6655 12.1388 14.2213 12.1858 13.777 12.284C13.6318 12.3609 13.5378 12.4805 13.4951 12.6429C13.4524 12.8052 13.4267 12.9931 13.4267 13.2067C13.4737 13.164 13.5335 13.1384 13.6062 13.1213C13.6788 13.1042 13.7898 13.0786 13.9393 13.0444C14.1102 13.0914 14.2725 13.2067 14.4306 13.3819C14.5416 13.4972 14.6527 13.6553 14.768 13.8517C14.3494 14.0482 13.9393 14.202 13.5335 14.3088C13.1277 14.4156 12.7176 14.4669 12.3076 14.4669C12.1709 14.4669 12.0299 14.4583 11.8804 14.4455C11.7352 14.4327 11.6027 14.4113 11.4874 14.3857C11.2354 14.3302 11.0004 14.1977 10.7868 13.9799C10.5733 13.762 10.428 13.5314 10.3511 13.2793C10.2486 12.7411 10.1803 11.9423 10.1461 10.8915C10.1119 9.84064 10.0906 9.28105 10.0863 9.22125C10.0308 8.4438 9.92396 7.80306 9.77018 7.30327C9.70184 7.3588 9.64203 7.45704 9.5865 7.60228C9.50534 7.81586 9.45835 7.92693 9.45408 7.93975C9.61213 8.62321 9.71892 9.30668 9.77873 9.99015C9.83853 10.6736 9.86416 11.434 9.86416 12.267C9.78727 12.3695 9.70184 12.4549 9.60786 12.5233C9.47117 12.6172 9.29176 12.7027 9.06536 12.771C8.94148 12.5233 8.80051 12.3182 8.64673 12.1474C8.46732 11.9551 8.26655 11.8056 8.04015 11.6946C7.98035 11.6732 7.91628 11.6646 7.85647 11.6646C7.69842 11.6646 7.57027 11.7202 7.46775 11.827C7.29688 12.0448 7.16446 12.2456 7.06621 12.4335C6.94233 12.6813 6.88253 12.9034 6.88253 13.1085C6.88253 13.2922 6.92952 13.4673 7.02777 13.6296C7.13029 13.6894 7.23708 13.7321 7.34387 13.7578C7.45493 13.7834 7.57881 13.792 7.72405 13.792C7.8821 13.792 8.0487 13.7749 8.22811 13.7407C8.40752 13.7065 8.5613 13.6681 8.68945 13.6296C8.73217 13.6766 8.7578 13.7364 8.76634 13.809C8.77488 13.8816 8.7877 13.9671 8.80051 14.0696C8.50577 14.343 8.22811 14.5907 7.95899 14.8086C7.63862 15.0692 7.33106 15.287 7.03631 15.4664C6.53652 15.7313 6.11363 15.9278 5.76335 16.0517C5.25929 16.2311 4.79368 16.3165 4.37078 16.3165C4.08458 16.3165 3.81119 16.2738 3.55489 16.1884C3.29859 16.1029 3.06365 15.9748 2.84579 15.8039C2.63221 15.633 2.4827 15.4494 2.40154 15.2486C2.32038 15.0521 2.27766 14.8214 2.27766 14.5608C2.27766 14.3003 2.32038 14.0055 2.41008 13.6467C2.43144 13.5698 2.50833 13.3007 2.64502 12.8351C2.51687 13.0316 2.41435 13.2324 2.33746 13.4289C2.31183 13.4972 2.24776 13.7065 2.14951 14.0525C2.05126 14.4028 2 14.7403 2 15.0692C2 15.4323 2.0598 15.7569 2.17941 16.0431C2.29902 16.3293 2.49979 16.5643 2.77745 16.7522C2.98249 16.8889 3.19607 16.9872 3.41393 17.0427C3.63178 17.1025 3.88381 17.1281 4.16147 17.1281C4.43913 17.1281 4.70824 17.1025 4.96455 17.047C5.22085 16.9914 5.46433 16.9188 5.69927 16.8206C6.45109 16.513 7.09184 16.1627 7.61726 15.7655C8.28791 15.2614 8.7578 14.6975 9.03118 14.0739L9.15506 13.4887C9.17642 13.463 9.33447 13.3434 9.62495 13.1384C9.73601 13.0572 9.82144 12.9718 9.88979 12.8821C9.95814 13.4502 10.0179 13.8176 10.0735 13.9884C10.1974 14.3857 10.4109 14.689 10.7185 14.9026C10.9449 15.0393 11.1713 15.1332 11.3934 15.1845C11.6155 15.2358 11.8761 15.2614 12.1623 15.2614C12.6194 15.2614 13.1448 15.1674 13.73 14.9837C14.1188 14.8599 14.6057 14.6762 15.1867 14.4284C15.5882 14.7573 15.8488 14.9538 15.9641 15.0222C16.1478 15.1247 16.3315 15.1931 16.5194 15.2272C16.7031 15.2614 16.8868 15.2785 17.0748 15.2785C17.4977 15.2785 17.9035 15.1845 18.2836 14.9966C18.6681 14.8086 19.0184 14.5523 19.3387 14.2234C19.4156 14.0055 19.4712 13.7791 19.5139 13.5527C19.5566 13.3221 19.5737 13.0999 19.5737 12.8821C19.5737 12.425 19.4968 11.7415 19.3473 10.8317C19.1978 9.9218 19.1209 9.24687 19.1209 8.80262L19.1807 8.70864C19.249 8.79835 19.3174 8.8667 19.3815 8.91796C19.4455 8.96922 19.5182 9.02048 19.5908 9.07601H19.6036ZM8.40752 9.34086C8.33917 9.40066 8.26228 9.50746 8.17258 9.65269C8.08287 9.79793 8.00171 9.90045 7.92482 9.95598C7.90346 9.93035 7.77958 9.84919 7.54464 9.72104C7.39513 9.63988 7.34387 9.54163 7.39086 9.42202C7.41222 9.40066 7.47202 9.31096 7.57454 9.15718C7.65143 9.04184 7.72405 8.96067 7.80094 8.90941C7.94618 8.9863 8.0487 9.04184 8.11704 9.08455C8.24519 9.16144 8.34344 9.24688 8.40325 9.34086H8.40752ZM9.12516 10.7462C9.12516 10.8573 9.11235 10.9556 9.09099 11.0495C9.06536 11.1435 9.01837 11.2118 8.94148 11.2588C8.86032 11.2674 8.80051 11.2247 8.76207 11.1392C8.72362 11.0538 8.69799 10.9983 8.68518 10.9684C8.67663 10.9256 8.67663 10.8701 8.67663 10.7932C8.67663 10.6651 8.69372 10.5497 8.72362 10.4515C8.75352 10.3532 8.80478 10.2422 8.87313 10.1183C8.85177 10.2336 8.83896 10.3362 8.82614 10.4216C8.8176 10.507 8.80906 10.5583 8.80906 10.5796C8.80906 10.7591 8.86886 10.8787 8.99274 10.947C9.03546 10.8787 9.07817 10.8103 9.12516 10.742V10.7462ZM7.22853 9.516C7.1132 9.78084 6.95515 10.003 6.75865 10.1738C6.65613 10.161 6.55361 10.1311 6.44682 10.0799C6.34003 10.0329 6.24178 9.98589 6.14353 9.93463C6.14353 9.81075 6.20333 9.6655 6.32721 9.49463C6.34003 9.47327 6.40837 9.38785 6.53225 9.23834L7.22853 9.516ZM4.74669 7.54675L4.70397 7.7817C4.58009 7.73471 4.49466 7.70907 4.44767 7.70907C4.39214 7.70907 4.3537 7.73897 4.33661 7.80305C4.25972 8.19177 4.19137 8.5805 4.12302 8.9735C4.22554 9.00767 4.31952 9.06319 4.40068 9.13581C4.42204 9.14863 4.49893 9.22979 4.63563 9.38358C4.61 9.56299 4.42631 9.67405 4.09312 9.72104C3.75993 9.76803 3.56343 9.88764 3.5079 10.0799C3.58906 10.4686 3.6745 10.8829 3.7642 11.3144C3.85391 11.7501 3.89663 12.126 3.89663 12.4464C3.89663 12.8992 3.83682 13.3093 3.71294 13.6852C3.73857 13.5741 3.75993 13.4459 3.77275 13.3007C3.78556 13.1555 3.79411 13.0145 3.79411 12.8863V12.6813C3.78129 12.5873 3.77275 12.5147 3.77275 12.4677C3.74712 12.2072 3.70013 11.9209 3.64032 11.6048C3.45664 10.7163 3.35839 10.2379 3.35412 10.1696C3.37548 9.99015 3.43956 9.83637 3.55062 9.69968C3.66168 9.56298 3.78129 9.4861 3.91371 9.46474C4.04613 9.44338 4.16574 9.42202 4.26826 9.40493C4.19137 9.32377 4.09312 9.28105 3.96924 9.28105C3.90944 9.28105 3.84537 9.28959 3.78556 9.31095C3.75139 9.36648 3.72576 9.40493 3.71294 9.42202C3.68731 9.3793 3.68304 9.32804 3.70867 9.26397C3.7343 9.19989 3.75993 9.13582 3.78556 9.07601L3.9906 8.9735C3.96924 8.93078 3.92226 8.82825 3.84537 8.65738C3.75139 8.42671 3.64887 8.25157 3.54635 8.13624L3.51645 8.24731C3.49082 8.26867 3.4481 8.26439 3.3883 8.23022C3.32849 8.20032 3.2815 8.16615 3.23879 8.13198C3.19607 8.0978 3.17898 8.05508 3.17898 8.00809C3.17898 7.98246 3.18753 7.93548 3.20889 7.87567C3.23024 7.81587 3.23879 7.76888 3.23879 7.74325C3.29432 7.68772 3.34131 7.645 3.37548 7.61509C3.41393 7.58519 3.45664 7.5852 3.50363 7.61937C3.62751 7.73471 3.73003 7.88849 3.81119 8.07644C3.89235 8.2644 3.97352 8.4438 4.05895 8.61467C4.13584 8.14905 4.17856 7.89276 4.19137 7.84577C4.23836 7.68772 4.31952 7.55103 4.42631 7.43569C4.48612 7.42288 4.54165 7.42714 4.58864 7.44423C4.63563 7.46559 4.68689 7.49976 4.74242 7.54675H4.74669ZM9.5865 15.6373C9.55233 15.9107 9.47971 16.1542 9.37292 16.372C9.26185 16.5856 9.09526 16.765 8.86886 16.9103C9.0141 16.7052 9.12089 16.5515 9.19778 16.4489C9.33447 16.2567 9.40282 16.0901 9.40282 15.9449C9.40282 15.8423 9.37292 15.7484 9.30884 15.6587C9.26613 15.6373 9.22768 15.6459 9.18924 15.68C9.15079 15.7142 9.12089 15.7313 9.1038 15.7313C9.12516 15.6373 9.15079 15.5561 9.18496 15.4963C9.21914 15.4365 9.27894 15.3896 9.3601 15.3639C9.42845 15.3639 9.47971 15.3938 9.51388 15.4579C9.52243 15.4707 9.54379 15.5348 9.5865 15.6416V15.6373ZM5.68219 12.5318C5.65656 12.6343 5.62238 12.7411 5.58821 12.8565C5.55404 12.9675 5.49851 13.0529 5.42589 13.1085C5.349 13.117 5.29774 13.0957 5.26356 13.0487C5.22939 13.0017 5.20803 12.9461 5.19522 12.8863C5.18667 12.8265 5.17813 12.7539 5.17813 12.6728C5.17813 12.5361 5.20376 12.3866 5.25929 12.22C5.29346 12.1174 5.35327 11.9765 5.44297 11.8013C5.43443 11.8441 5.4088 11.9423 5.36608 12.1046C5.32337 12.267 5.29774 12.3866 5.29774 12.4677C5.29774 12.613 5.34045 12.7326 5.42161 12.8351C5.48142 12.8351 5.52841 12.7881 5.55404 12.6984C5.57967 12.6044 5.62238 12.5532 5.67792 12.5403L5.68219 12.5318ZM4.9859 14.7061C4.9859 14.83 4.97736 14.9325 4.956 15.0179C4.93464 15.1034 4.89193 15.1717 4.82358 15.2187C4.74669 15.2315 4.68689 15.2144 4.63563 15.1632C4.58437 15.1119 4.53738 15.0435 4.49893 14.9624C4.47757 14.8812 4.46903 14.8001 4.46903 14.7146C4.46903 14.5993 4.49039 14.4711 4.52883 14.3344C4.55019 14.2746 4.59291 14.155 4.66126 13.9842C4.66126 14.0269 4.65271 14.1081 4.63135 14.2319C4.61 14.3558 4.60145 14.4541 4.60145 14.5309C4.60145 14.6249 4.61427 14.7061 4.63563 14.7702C4.66126 14.8342 4.70397 14.8898 4.77232 14.941C4.83212 14.941 4.87911 14.9154 4.90474 14.8641C4.93037 14.8129 4.96027 14.7616 4.9859 14.7061ZM16.3144 13.1085L15.3917 13.5784C15.2422 13.3733 15.1568 13.2494 15.1354 13.211C15.0927 13.1426 15.0585 13.0658 15.0329 12.9761C15.2465 12.9761 15.4558 12.9889 15.6651 13.0102C15.8744 13.0359 16.0923 13.0658 16.3144 13.1085ZM8.29645 12.9248C8.24947 12.9333 8.1683 12.9419 8.06151 12.959C7.95045 12.9761 7.8522 12.9846 7.76249 12.9846C7.67279 12.9846 7.58736 12.9718 7.50192 12.9419C7.41649 12.9162 7.34814 12.8693 7.30115 12.8095C7.2798 12.6471 7.35669 12.5275 7.52755 12.4592C7.67706 12.4592 7.81803 12.5019 7.95472 12.5873C8.08714 12.6728 8.20248 12.7838 8.29645 12.9205V12.9248Z" fill="white"/>
</svg>
