<svg width="24" height="24" viewBox="0 0 24 24" fill="none" xmlns="http://www.w3.org/2000/svg">
<path fill-rule="evenodd" clip-rule="evenodd" d="M21.9786 9.54729C21.9429 9.51159 21.9072 9.45804 21.8679 9.38306C21.7929 9.23312 21.7215 9.13672 21.6537 9.09031L21.6037 9.14029L21.9714 13.0318C21.9714 13.3531 21.9286 13.6601 21.8393 13.9564C21.7501 14.2528 21.6287 14.5348 21.4752 14.7954C21.543 14.6633 21.593 14.5062 21.6251 14.3206C21.6573 14.1349 21.6715 13.9493 21.6715 13.7601C21.6715 13.6815 21.6715 13.5566 21.6644 13.3923C21.6573 13.2281 21.6573 13.1067 21.6573 13.0318L21.2217 8.69759C21.2217 8.65118 21.211 8.59763 21.1931 8.54051C21.1717 8.47982 21.1646 8.44412 21.1646 8.43341C21.1646 8.38699 21.1789 8.34772 21.211 8.30845C21.2431 8.27275 21.2931 8.19064 21.3609 8.06568C21.4109 7.96215 21.4716 7.90145 21.5395 7.87646C21.6466 8.23705 21.7572 8.59406 21.8643 8.94751C21.8643 8.99749 21.8929 9.09745 21.95 9.2474C21.9857 9.34022 22 9.40449 22 9.44376C22 9.46518 21.9929 9.50088 21.9821 9.54729H21.9786ZM18.7583 7.96214L18.6798 8.14065L17.0339 8.92966C17.1267 8.8047 17.241 8.69403 17.3838 8.59406C17.4873 8.52623 17.6337 8.44412 17.8194 8.35486C18.1264 8.22277 18.4406 8.09067 18.7547 7.96214H18.7583ZM18.4655 9.43662C18.4655 9.47232 18.4548 9.50802 18.4298 9.54729C18.3906 9.61513 18.3692 9.6544 18.3692 9.65797C18.3513 9.63655 18.3335 9.61155 18.3192 9.59013C18.2692 9.52587 18.2156 9.50088 18.1657 9.51159C18.1371 9.66153 18.1085 9.81148 18.0764 9.96143C18.0443 10.1114 17.9979 10.247 17.9336 10.3613C17.9157 10.3434 17.8551 10.2221 17.7444 9.99356C17.6658 9.8329 17.5623 9.73651 17.4373 9.70081C17.4159 9.67225 17.4016 9.63655 17.4016 9.59727C17.4016 9.56871 17.4159 9.52587 17.4409 9.46518C17.4659 9.40449 17.4838 9.36521 17.498 9.34022C17.6016 9.40806 17.6908 9.50802 17.7729 9.64011C17.7944 9.67939 17.8551 9.80077 17.9514 10.0007C17.9514 9.99356 17.9764 9.86861 18.03 9.62227C18.0657 9.46161 18.1228 9.34379 18.2085 9.27239C18.3442 9.27239 18.4298 9.32594 18.4655 9.43662ZM21.0968 12.8711C20.9647 12.7961 20.8218 12.7604 20.6683 12.7604C20.5469 12.7604 20.422 12.7783 20.2863 12.8104C20.1507 12.8461 20.015 12.889 19.8722 12.9389C19.7365 12.3784 19.6651 11.8608 19.6651 11.3788C19.8186 11.2752 19.9686 11.161 20.1114 11.036C20.2756 10.8861 20.4113 10.7469 20.5148 10.6148L20.6505 10.7433C20.6969 10.6969 20.7219 10.6612 20.729 10.6326C20.7362 10.6041 20.7397 10.5684 20.7469 10.5291C20.6505 10.4827 20.6005 10.422 20.6005 10.3506C20.6005 10.3149 20.6184 10.2578 20.6505 10.1792C20.6862 10.1007 20.7005 10.04 20.7005 10.0007C20.7005 9.96143 20.6933 9.92216 20.6755 9.89003C20.6648 9.81149 20.6112 9.76864 20.5112 9.76864C20.3042 9.7972 20.1649 9.90431 20.09 10.0864C20.0721 10.1221 20.065 10.1506 20.065 10.1792C20.065 10.247 20.1185 10.3149 20.2221 10.3863C20.3292 10.4541 20.3934 10.5077 20.4149 10.5398C20.2828 10.704 20.1649 10.8397 20.0543 10.9432C19.8936 11.0967 19.7472 11.2003 19.6187 11.2503L19.4223 9.23669L19.508 9.06532C19.5652 9.14029 19.6294 9.21527 19.6973 9.29381C19.7651 9.37235 19.8329 9.42234 19.8936 9.4509C19.8365 9.29738 19.7437 9.04033 19.6116 8.67975C19.4795 8.31916 19.3545 8.04069 19.2331 7.84076L18.9689 8.31916C19.0903 9.10102 19.1653 9.62941 19.201 9.90431C19.2688 10.4862 19.3045 11.0218 19.3045 11.5073L19.0403 11.7037L19.3331 11.618L19.5116 13.0925C19.2653 13.2174 19.076 13.3067 18.9368 13.3566C18.7083 13.4423 18.5012 13.4852 18.312 13.4852C18.1407 13.4852 17.9729 13.4495 17.8051 13.3745C17.8158 13.2817 17.8265 13.1924 17.8408 13.0996C17.698 13.2495 17.5587 13.3923 17.4195 13.5352C17.241 13.7172 17.0696 13.8101 16.9054 13.8101C16.8768 13.8101 16.834 13.8029 16.7769 13.7922C16.6341 13.7422 16.5162 13.6351 16.427 13.4745C16.3699 13.3781 16.3056 13.2353 16.2378 13.046C16.1878 12.5819 16.1485 12.0535 16.1271 11.4573C16.1057 10.8611 16.0843 10.2685 16.0628 9.67939C16.0414 9.09031 16.0057 8.55479 15.9557 8.06925C15.8772 8.12637 15.8058 8.20848 15.7415 8.31202C15.6773 8.41912 15.6487 8.51909 15.6487 8.61548C15.713 9.51159 15.7772 10.4077 15.8451 11.3074C15.8843 11.5252 15.9057 11.7715 15.9057 12.0428V12.1535C15.9057 12.8033 15.9272 13.2317 15.9664 13.4388C16.0521 13.8886 16.2592 14.2206 16.5912 14.4313C16.6591 14.442 16.7126 14.4491 16.7447 14.4491C16.9232 14.4491 17.1053 14.3563 17.2945 14.1742C17.4302 14.0136 17.573 13.8529 17.7158 13.6958C17.8194 13.7815 17.9265 13.8422 18.0371 13.8815C18.1478 13.9172 18.2656 13.9386 18.3941 13.9386C18.5762 13.9386 18.7869 13.8993 19.0296 13.8172C19.2224 13.7422 19.4188 13.6672 19.6116 13.5958C19.658 13.8029 19.7187 13.9707 19.8008 14.1028C19.9043 14.2813 20.04 14.3991 20.2114 14.4634C20.2328 14.4705 20.272 14.4705 20.322 14.4705C20.5005 14.4705 20.6541 14.3849 20.7861 14.2135C20.7969 14.1921 20.8825 14.0243 21.0432 13.7172C21.1503 13.5102 21.2074 13.3388 21.2074 13.2031C21.2074 13.0782 21.1717 12.9675 21.1039 12.8675L21.0968 12.8711ZM17.0518 10.4898C17.0018 10.6148 16.9589 10.7112 16.9304 10.7719C16.8804 10.8861 16.8197 10.9682 16.7519 11.0218C16.8197 10.9147 16.8733 10.804 16.909 10.6969C16.9447 10.5898 16.9661 10.4755 16.9661 10.3541C16.9661 10.2113 16.934 10.09 16.8733 9.98642C16.834 9.8936 16.7947 9.80077 16.7519 9.70438C16.7519 9.66511 16.7769 9.62227 16.8304 9.57585C17.0018 9.7258 17.0875 9.94001 17.0875 10.2256C17.0875 10.3292 17.0768 10.4184 17.0518 10.4898ZM18.08 11.3109C18.0514 11.3395 18.0014 11.4145 17.93 11.5394C17.8586 11.6608 17.7872 11.7501 17.7122 11.8001L17.2588 11.4502C17.2874 11.4038 17.3302 11.3395 17.3874 11.2538C17.4802 11.111 17.5659 11.0075 17.6444 10.9468C17.7515 11.0146 17.8336 11.0682 17.8836 11.1003C17.9871 11.1681 18.0514 11.2395 18.08 11.3145V11.3109ZM14.1885 8.40484L14.1028 8.58335C14.0635 8.57264 14.01 8.55479 13.9493 8.52623C13.885 8.50124 13.8386 8.48696 13.8029 8.48696C13.7922 8.51552 13.7601 8.64405 13.7137 8.86897C13.6637 9.09388 13.603 9.25811 13.528 9.36164C13.4888 9.31523 13.4459 9.24026 13.3995 9.12958C13.296 8.88324 13.2317 8.74044 13.2031 8.70117C13.196 8.75829 13.1674 8.78685 13.1175 8.78685C13.071 8.78685 13.0246 8.769 12.9818 8.73687C12.9639 8.70116 12.9568 8.66546 12.9568 8.62619C12.9568 8.56907 12.9711 8.51552 12.9996 8.46197C13.0068 8.45126 13.0389 8.40127 13.1032 8.31559C13.2281 8.362 13.3245 8.46911 13.3959 8.64048C13.4923 8.89039 13.553 9.03319 13.5744 9.06175C13.5959 9.01177 13.628 8.87967 13.6637 8.67261C13.6994 8.46554 13.7779 8.32273 13.8993 8.24776C13.9493 8.26561 13.9886 8.27632 14.01 8.28346C14.0885 8.31202 14.1492 8.35129 14.1885 8.40484ZM14.5241 9.7258C14.5241 9.82933 14.4813 9.93287 14.3956 10.0328C14.3313 10.1114 14.2456 10.1863 14.1385 10.2542C14.0921 10.1971 14.035 10.1542 13.9672 10.1221C13.8993 10.09 13.8315 10.0578 13.7708 10.0221C13.7994 9.92573 13.8422 9.83648 13.8993 9.75079C13.9564 9.66868 14.0314 9.57942 14.1207 9.47946C14.2528 9.52587 14.342 9.56157 14.3849 9.59013C14.4313 9.61869 14.4777 9.66154 14.5205 9.71866L14.5241 9.7258ZM19.7508 14.774C19.7615 14.8204 19.7687 14.849 19.7687 14.8597C19.7687 14.9097 19.7544 14.9596 19.7222 15.0061C19.6901 15.0525 19.6616 15.0989 19.633 15.1417C19.6151 15.1524 19.5901 15.1596 19.5544 15.1596C19.5259 15.1596 19.483 15.1453 19.4259 15.1132C19.3688 15.081 19.3295 15.0668 19.3045 15.0668C19.276 15.0668 19.2474 15.0775 19.2189 15.1024C19.076 15.2845 18.8583 15.4273 18.5691 15.5309C18.2263 15.6344 17.9729 15.7094 17.8051 15.7629C18.262 15.5237 18.7226 15.2845 19.1831 15.0525C19.1831 14.9489 19.201 14.8525 19.2403 14.7597C19.276 14.6669 19.3402 14.5955 19.4259 14.5455C19.5009 14.5348 19.5616 14.5491 19.6151 14.5919C19.6687 14.6348 19.7115 14.6955 19.7508 14.7776V14.774ZM13.0675 10.8504C13.0746 10.9147 13.0603 10.9861 13.0246 11.0646C12.9889 11.1432 12.9461 11.2074 12.889 11.2538C12.8318 11.2253 12.7854 11.1789 12.7533 11.1182C12.7176 11.0539 12.7033 10.9932 12.7033 10.9289C12.714 10.8076 12.739 10.7005 12.7712 10.6005C12.8069 10.5005 12.8568 10.4041 12.9247 10.3149C12.9032 10.4077 12.8854 10.4791 12.8747 10.5291C12.8461 10.6255 12.8318 10.7076 12.8318 10.779C12.8318 10.8861 12.8675 10.9718 12.9425 11.0289C12.9818 10.9718 13.0246 10.9147 13.071 10.8575L13.0675 10.8504ZM12.357 9.90788C12.3177 9.9293 12.2535 10.0186 12.1678 10.1685C12.0821 10.3184 12.0036 10.397 11.9357 10.397C11.8786 10.397 11.8179 10.3577 11.7572 10.2756C11.7358 10.2292 11.6858 10.1971 11.6109 10.1721C11.4788 10.1257 11.4181 10.0792 11.4323 10.0257C11.468 9.99713 11.5287 9.91502 11.6216 9.77578C11.6965 9.66868 11.7644 9.61156 11.8286 9.61156C11.8572 9.61156 11.8965 9.62226 11.95 9.64726C12 9.66868 12.0643 9.70438 12.1392 9.74722C12.2142 9.79006 12.2892 9.84361 12.3606 9.90431L12.357 9.90788ZM11.3788 10.0007C11.3288 10.0864 11.2753 10.1721 11.2217 10.2578C11.1682 10.3434 11.0968 10.4256 11.0111 10.5077C10.8611 10.4505 10.754 10.4077 10.6862 10.3791C10.5541 10.322 10.4934 10.2506 10.5077 10.1649C10.5541 10.1435 10.6112 10.0685 10.6826 9.94358C10.754 9.81862 10.8183 9.75436 10.8754 9.75436C10.9218 9.75436 10.9754 9.78292 11.0396 9.84005L11.3824 10.0043L11.3788 10.0007ZM10.6326 9.09388C10.6683 9.05461 10.6826 9.00463 10.6826 8.94751C10.6826 8.91181 10.6469 8.82969 10.5791 8.69759C10.5505 8.64761 10.5362 8.59406 10.5362 8.54408C10.5362 8.47625 10.5541 8.41198 10.5862 8.35486C10.5684 8.3263 10.5434 8.27632 10.5077 8.20848C10.4684 8.1585 10.422 8.13351 10.372 8.14065C10.1899 8.30488 10.0935 8.39413 10.0793 8.40484C10.0328 8.46911 10.0114 8.54051 10.0114 8.61905C10.0471 8.69402 10.0971 8.75472 10.1685 8.80827C10.2399 8.85826 10.3113 8.90466 10.3863 8.94394C10.2149 9.29381 9.89361 9.65083 9.42592 10.015C8.82613 10.4898 8.45841 10.804 8.31917 10.9575C8.71189 10.6647 9.11175 10.3756 9.5116 10.0828C9.96858 9.72937 10.297 9.36521 10.497 8.99392C10.5077 9.00106 10.5255 9.01891 10.5541 9.05104C10.5791 9.08317 10.6041 9.09388 10.6255 9.09031L10.6326 9.09388ZM8.63692 9.14386C8.64763 9.25097 8.6262 9.34379 8.56908 9.41877C8.53338 9.46875 8.47626 9.49731 8.39772 9.49731C8.37629 9.49731 8.3513 9.49017 8.32988 9.47946C8.25491 9.40092 8.21921 9.30452 8.21921 9.19742C8.21921 9.10102 8.25491 8.9725 8.32988 8.81184C8.36558 8.73687 8.39772 8.6619 8.43342 8.59049C8.44056 8.63691 8.43342 8.69045 8.41557 8.75472C8.35844 8.9368 8.32988 9.04033 8.32988 9.06175C8.32988 9.14029 8.36558 9.2117 8.43342 9.27596C8.5191 9.26525 8.57622 9.22598 8.60478 9.16529L8.64049 9.14744L8.63692 9.14386ZM15.2417 14.6633C15.2524 14.7097 15.2417 14.7561 15.2024 14.8097C15.1667 14.8597 15.1167 14.8918 15.0596 14.9025C14.8597 14.9775 14.6276 15.0668 14.3599 15.1774C14.0957 15.2845 13.7208 15.4488 13.2424 15.6665C13.2496 15.6094 13.2674 15.5594 13.3031 15.5202C13.3388 15.4809 13.3816 15.4416 13.4388 15.3988C13.8386 15.2274 14.135 15.1025 14.3313 15.0203C14.7312 14.849 15.0346 14.7276 15.2381 14.6598L15.2417 14.6633ZM10.4077 11.5109C10.3863 11.643 10.3684 11.7251 10.3577 11.7608C10.322 11.8465 10.2685 11.9036 10.1935 11.9322C10.1578 11.95 10.1221 11.9357 10.0864 11.8929C10.0507 11.85 10.0257 11.8215 10.015 11.8036C9.98643 11.7358 9.97215 11.6715 9.97215 11.6144C9.97215 11.5287 9.99357 11.4395 10.0328 11.3502C10.0971 11.2288 10.1399 11.1432 10.1614 11.0932C10.1507 11.1503 10.1364 11.2146 10.1221 11.2824C10.1078 11.3502 10.1007 11.4109 10.1007 11.4609C10.1007 11.593 10.1435 11.6822 10.2292 11.7251C10.2649 11.7144 10.297 11.6787 10.3292 11.618C10.3613 11.5573 10.3863 11.5216 10.4113 11.5109H10.4077ZM5.92717 8.27989C5.94502 8.30845 5.94859 8.34415 5.93431 8.39056C5.91289 8.43697 5.89861 8.46911 5.89147 8.4941C5.80578 8.47268 5.74509 8.45839 5.71296 8.45839C5.68083 8.45839 5.6487 8.46911 5.62014 8.4941C5.52374 8.58692 5.47019 8.75829 5.46662 9.01177C5.45948 9.26525 5.43449 9.43662 5.38808 9.5223C5.33095 9.47589 5.24884 9.33308 5.13816 9.09388C5.05248 8.90109 4.94538 8.80113 4.81328 8.80113C4.69904 8.77257 4.64191 8.69402 4.64191 8.56907C4.64191 8.5298 4.64548 8.50124 4.65619 8.48696C4.66333 8.47268 4.67404 8.44412 4.68119 8.40484C4.68833 8.36557 4.70975 8.34772 4.74545 8.35486C4.84898 8.39413 4.94538 8.47268 5.0382 8.58692C5.06676 8.62262 5.17387 8.80827 5.35594 9.14386C5.39165 8.89752 5.42021 8.71188 5.44163 8.58692C5.48804 8.35843 5.59157 8.24419 5.74866 8.24419C5.80578 8.24419 5.86648 8.2549 5.92717 8.27989ZM10.8897 15.0989C10.8683 15.206 10.8397 15.2952 10.8111 15.3595C10.7826 15.4238 10.729 15.4809 10.6469 15.5273C10.5398 15.5273 10.472 15.4773 10.447 15.3774C10.422 15.2774 10.4077 15.1917 10.4077 15.1239C10.4077 14.9025 10.4827 14.6812 10.6291 14.4634C10.6291 14.5098 10.6219 14.5705 10.6041 14.6526C10.5648 14.8418 10.5434 14.9632 10.5434 15.0203C10.5434 15.1453 10.5826 15.2417 10.6648 15.3024C10.7112 15.3024 10.7504 15.2702 10.7861 15.2024C10.8218 15.1382 10.854 15.1024 10.8897 15.0953V15.0989ZM14.9168 12.4355C14.8026 12.1678 14.6383 11.9429 14.4206 11.7679C14.1814 11.5751 13.9243 11.4752 13.6494 11.4752C13.4102 11.5894 13.221 11.7679 13.0889 12.0143C12.9532 12.2606 12.889 12.5212 12.889 12.7926C12.9282 12.8675 12.9711 12.9282 13.0139 12.9782C13.0568 13.0282 13.1067 13.0639 13.1639 13.0925C13.221 13.1389 13.2853 13.171 13.3602 13.1924C13.4352 13.2138 13.5137 13.221 13.5994 13.221C13.628 13.221 13.7137 13.2138 13.8565 13.1996C13.9993 13.1853 14.1064 13.1781 14.1814 13.1781C14.3063 13.1781 14.4099 13.1996 14.4848 13.2388C14.5634 13.2781 14.6241 13.3495 14.6705 13.453C14.2706 13.6815 13.8708 13.86 13.4745 13.9886C13.0782 14.1171 12.6676 14.1813 12.2463 14.1813C12.0536 14.1528 11.875 14.0814 11.7108 13.9636C11.5466 13.8458 11.4323 13.6994 11.3645 13.5209L11.8001 13.2817C11.9893 13.1317 12.1321 12.9496 12.2321 12.7283C12.332 12.507 12.382 12.282 12.382 12.0464C12.3177 11.8572 12.2321 11.7001 12.125 11.5751C11.9929 11.4216 11.8429 11.3324 11.6715 11.3109C11.4359 11.3681 11.2503 11.5359 11.1146 11.8179C11.1075 11.8251 11.0218 12.0678 10.8504 12.5534C10.8147 12.6033 10.8004 12.664 10.8004 12.7319C10.8004 12.7533 10.8076 12.8104 10.8218 12.8961C10.8361 12.9818 10.8433 13.046 10.8433 13.0853C10.8433 13.1603 10.8218 13.2138 10.779 13.2495C10.7362 13.2852 10.6576 13.296 10.5434 13.2852C10.4506 13.3531 10.3756 13.3888 10.3113 13.3888C10.2435 13.3888 10.1899 13.3317 10.1578 13.2174C10.0721 12.9425 9.98643 12.7926 9.90075 12.764C9.82221 12.689 9.72938 12.6355 9.62585 12.6069C9.52231 12.5748 9.39379 12.5498 9.24027 12.5248C9.02963 12.6319 8.86898 12.8033 8.76187 13.0318C8.6869 13.1924 8.6262 13.4173 8.57265 13.7101C8.61906 13.8529 8.70118 13.9493 8.81542 14.0028C8.93324 14.0528 9.07961 14.0814 9.25812 14.0814C9.35095 14.0814 9.47947 14.0742 9.6437 14.0564C9.80793 14.0385 9.92217 14.0314 9.98643 14.0314C9.69368 14.3277 9.37237 14.5991 9.01892 14.8418C8.66548 15.0846 8.30132 15.2774 7.93003 15.4202C7.82292 15.4416 7.70868 15.4702 7.59086 15.4987C7.47305 15.5273 7.36951 15.5416 7.27669 15.5416C7.16958 15.5416 7.06962 15.5202 6.97679 15.4773C6.88397 15.4345 6.81257 15.3702 6.75544 15.281C6.69832 15.1917 6.65905 15.1167 6.6412 15.0596C6.61978 14.9989 6.61264 14.9311 6.61264 14.8597C6.61264 14.7669 6.62692 14.6883 6.65905 14.6205C6.69118 14.5526 6.74473 14.4777 6.81614 14.3991C6.83756 14.3706 7.05177 14.1885 7.45876 13.8493C7.60871 13.7244 7.72296 13.6066 7.8015 13.4995C7.9086 13.3638 7.98715 13.2103 8.03713 13.0425C8.08711 12.8747 8.10853 12.6962 8.10853 12.5069C8.10853 12.3177 8.09425 12.1428 8.06212 11.9571C8.02999 11.7751 7.96216 11.5216 7.85148 11.1931C7.88004 11.1574 7.90503 11.1432 7.93003 11.1432C7.95859 11.1432 7.99786 11.1574 8.05141 11.186C8.07997 11.186 8.10139 11.161 8.11924 11.1074C8.09782 11.1003 8.06926 11.0967 8.03356 11.0896C8.05141 11.0111 8.01214 10.8968 7.91217 10.7469C7.78722 10.5576 7.71582 10.4434 7.69796 10.4041C7.63013 10.4398 7.57301 10.5077 7.5266 10.6148C7.48019 10.7219 7.44091 10.8183 7.40521 10.9111C7.44091 11.111 7.49447 11.3681 7.56944 11.6822C7.72296 12.3463 7.81935 12.7711 7.85148 12.9604C7.53731 13.2531 7.2267 13.4994 6.92324 13.7065C6.61621 13.9136 6.27704 14.1064 5.89861 14.2885C5.62371 14.4206 5.33095 14.5241 5.01678 14.6062C4.70261 14.6847 4.39557 14.7276 4.09211 14.7276C3.78865 14.7276 3.52089 14.6812 3.25312 14.5919C2.98536 14.4991 2.76044 14.3634 2.57479 14.1813C2.46055 14.0457 2.38201 13.9029 2.33916 13.7601C2.29632 13.6173 2.2749 13.453 2.2749 13.2638C2.2749 13.0425 2.31774 12.7711 2.40343 12.457C2.42485 12.3784 2.50339 12.1214 2.63549 11.693C2.42842 12.1392 2.28918 12.4641 2.21421 12.6712C2.0714 13.071 2 13.428 2 13.7422C2 13.9529 2.0357 14.1528 2.1071 14.342C2.17851 14.5312 2.28918 14.7026 2.43556 14.8561C2.65334 15.0346 2.88897 15.1596 3.14602 15.2381C3.40307 15.3167 3.67797 15.3524 3.96715 15.3524C4.38486 15.3524 4.82399 15.2774 5.28811 15.131C5.68083 15.0061 6.07354 14.8347 6.46269 14.6169C6.41271 14.7383 6.37701 14.8525 6.35559 14.9668C6.33417 15.081 6.32703 15.2167 6.32703 15.3702C6.34845 15.5487 6.42342 15.7129 6.54481 15.8629C6.66619 16.0128 6.81614 16.1128 6.9875 16.1592C7.36594 16.1592 7.73724 16.0807 8.10139 15.92C8.40843 15.7844 8.73331 15.5844 9.0689 15.3202C9.29739 15.1382 9.59015 14.874 9.95073 14.5312C9.99 14.2956 10.1078 14.1099 10.3006 13.9743C10.4506 13.8707 10.6541 13.7958 10.9182 13.7422C10.9825 13.9029 11.0539 14.0528 11.1396 14.1956C11.2253 14.3384 11.3217 14.4598 11.4323 14.5634C11.7072 14.7133 12.0071 14.7847 12.332 14.7847C12.6926 14.7847 13.0996 14.6919 13.5566 14.5027C13.8993 14.3599 14.2778 14.1671 14.6883 13.9207C14.7919 13.7422 14.8704 13.5744 14.9275 13.4138C14.9846 13.2531 15.0132 13.0853 15.0132 12.9068C15.0132 12.7283 14.9811 12.5855 14.9204 12.4534L14.9168 12.4355ZM5.49875 10.5327C5.47733 10.6183 5.43449 10.7112 5.37737 10.8076C5.35594 10.8468 5.29525 10.9361 5.19886 11.0717C5.1703 11.0539 5.09532 11.0218 4.97751 10.9682C4.80614 10.8932 4.71689 10.8147 4.71332 10.729L5.00607 10.2578C5.18815 10.3327 5.35594 10.422 5.50232 10.5327H5.49875ZM6.70546 11.9107C6.68404 11.9964 6.66262 12.0535 6.6412 12.0857C6.61978 12.1178 6.58765 12.1178 6.54123 12.0892C6.51267 12.0714 6.49125 12.0607 6.4734 12.05C6.45555 12.0428 6.4377 12.0393 6.41271 12.0464C6.37344 12.1142 6.33417 12.2213 6.30203 12.3641C6.22706 12.714 6.18422 12.8997 6.17351 12.9211C6.04855 12.7033 5.9236 12.4855 5.79507 12.2713C5.74866 12.357 5.70225 12.3784 5.6487 12.3392C5.59157 12.3177 5.56301 12.2749 5.56301 12.2106C5.56301 12.1749 5.57015 12.1357 5.58443 12.0892C5.59871 12.0428 5.60943 12.0107 5.613 11.9964C5.66298 11.9322 5.7201 11.9107 5.77722 11.9286C5.94859 12.1 6.07354 12.307 6.15566 12.5462C6.20564 12.357 6.24491 12.2142 6.26633 12.1178C6.31632 11.9286 6.39486 11.8358 6.49839 11.8358C6.54838 11.8358 6.61978 11.8608 6.70546 11.9143V11.9107ZM3.38165 10.8325C3.32453 11.0539 3.27811 11.2181 3.24598 11.3217C3.18172 11.5109 3.09604 11.643 2.98179 11.7251C2.85684 11.7465 2.74616 11.7144 2.65691 11.6216C2.56051 11.3859 2.51053 11.1432 2.51053 10.8861C2.51053 10.5541 2.58908 10.1935 2.74973 9.80791C2.85327 9.558 3.02463 9.22955 3.26383 8.82255C3.22813 8.94394 3.15673 9.1403 3.04963 9.4152C2.87826 9.85433 2.79257 10.1935 2.79257 10.4363C2.79257 10.6576 2.84256 10.8647 2.94609 11.0539C2.97465 11.1003 3.01392 11.1217 3.06748 11.1217C3.10675 11.1217 3.14602 11.111 3.18172 11.086C3.21742 11.0646 3.24955 11.0182 3.27454 10.9504C3.29954 10.8825 3.33524 10.8433 3.38165 10.8397V10.8325ZM4.20278 12.7247C4.2135 12.7926 4.20278 12.8675 4.15994 12.9425C4.12067 13.021 4.08854 13.0782 4.06712 13.1174C4.03856 13.146 4.00286 13.1603 3.96358 13.1603C3.92431 13.1603 3.89575 13.146 3.8779 13.1174C3.81364 13.0211 3.78508 12.9175 3.78508 12.8104C3.78508 12.7069 3.81721 12.5891 3.8779 12.4534C3.94216 12.3177 3.99929 12.1928 4.05641 12.0714C4.06355 12.1285 4.04927 12.2035 4.01357 12.2927C3.92074 12.5284 3.8779 12.664 3.8779 12.7033C3.8779 12.7426 3.88504 12.7819 3.90289 12.8247C3.92074 12.864 3.97072 12.9032 4.05641 12.9354C4.07426 12.9175 4.09211 12.8782 4.1171 12.8211C4.13852 12.7604 4.16708 12.7283 4.20278 12.7212V12.7247ZM20.5255 10.2756C20.4613 10.2399 20.4113 10.2113 20.3684 10.1828C20.3256 10.1542 20.2863 10.1185 20.2542 10.0721C20.3006 10.0364 20.347 10.0221 20.3899 10.0221C20.5041 10.0221 20.5505 10.0864 20.5255 10.2113V10.2792V10.2756ZM20.8683 13.5994C20.8683 13.6494 20.8397 13.6922 20.7826 13.7279C20.754 13.7458 20.704 13.7744 20.6362 13.8136C20.6148 13.8243 20.5755 13.8315 20.5255 13.8315C20.4684 13.8315 20.4113 13.8172 20.3577 13.7922C20.3042 13.7672 20.2506 13.7315 20.2006 13.6851C20.1507 13.6494 20.1114 13.6101 20.0864 13.5601C20.0614 13.5102 20.04 13.4637 20.0221 13.4173C20.0614 13.4102 20.1292 13.3995 20.2292 13.3781C20.3256 13.3566 20.4077 13.3495 20.4684 13.3495C20.5648 13.3495 20.6469 13.3674 20.7183 13.4066C20.7861 13.4423 20.8397 13.5066 20.8718 13.5994H20.8683ZM19.5402 14.8847C19.5187 14.8454 19.4902 14.8168 19.4616 14.799C19.4331 14.7704 19.3938 14.7633 19.3402 14.774C19.3295 14.8097 19.3545 14.8347 19.4223 14.8525C19.4866 14.8704 19.5259 14.8811 19.5366 14.8882L19.5402 14.8847ZM10.4327 8.67975C10.3827 8.66904 10.3327 8.64404 10.2899 8.60834C10.2471 8.57264 10.2078 8.53337 10.1757 8.4941C10.2114 8.42984 10.2578 8.40127 10.322 8.40127C10.3791 8.40127 10.4149 8.43341 10.4327 8.4941V8.68332V8.67975ZM14.2813 12.5427C14.2456 12.5498 14.1921 12.5569 14.1171 12.5641C14.0421 12.5712 13.9779 12.5784 13.9207 12.5784C13.7994 12.5784 13.6851 12.5605 13.5709 12.5284C13.4566 12.4927 13.3638 12.4391 13.296 12.3641C13.2853 12.3284 13.2781 12.3035 13.2781 12.2856C13.2781 12.2499 13.296 12.2142 13.3352 12.1714C13.3709 12.1285 13.4388 12.1071 13.5352 12.1071C13.5744 12.1071 13.628 12.1142 13.6994 12.1249C13.9172 12.1999 14.11 12.3391 14.2813 12.5462V12.5427ZM12.0286 12.6462C11.9357 12.714 11.8358 12.7783 11.7215 12.8354C11.6073 12.8925 11.4288 12.9711 11.1896 13.0675C11.161 12.9032 11.1432 12.789 11.1325 12.7247C11.1253 12.6605 11.1182 12.5712 11.1182 12.4498C11.1182 12.3713 11.1253 12.2927 11.136 12.2178C11.1467 12.1428 11.1646 12.0821 11.186 12.0285C11.2253 11.9893 11.2645 11.9607 11.3002 11.9464C11.336 11.9322 11.3788 11.925 11.4252 11.925C11.5859 11.9464 11.7215 12.0393 11.8358 12.1999C11.9286 12.3249 11.9893 12.4748 12.025 12.6462H12.0286ZM9.6794 13.4173C9.62228 13.4173 9.52945 13.4173 9.39736 13.4245C9.2724 13.4245 9.1653 13.4102 9.07604 13.3852C8.98679 13.3602 8.91896 13.3067 8.86541 13.2281C8.90468 13.1531 8.97251 13.1174 9.07247 13.1174C9.10818 13.1174 9.15102 13.1246 9.201 13.1353C9.25098 13.146 9.29382 13.1567 9.32238 13.1603C9.38665 13.196 9.45091 13.2317 9.52231 13.271C9.59372 13.3102 9.64727 13.3602 9.6794 13.4173Z" fill="white"/>
</svg>
