<svg width="24" height="24" viewBox="0 0 24 24" fill="none" xmlns="http://www.w3.org/2000/svg">
<path fill-rule="evenodd" clip-rule="evenodd" d="M22 7.42363C21.9531 7.40604 21.8945 7.32982 21.8182 7.20082C21.742 7.07183 21.6658 6.97802 21.5954 6.93111L21.4547 7.21256C21.4547 7.623 21.484 8.10966 21.5368 8.66082C21.6658 9.96249 21.7361 10.7834 21.7361 11.1117C21.7361 11.956 21.7127 12.5893 21.6658 13.0114C21.5896 13.6975 21.4312 14.3072 21.185 14.8408C21.2436 14.2486 21.2671 13.6564 21.2671 13.0701C21.2671 12.4134 21.2319 11.6453 21.1615 10.7716C21.0912 9.89211 21.0208 8.98917 20.9446 8.05689C20.8684 7.12461 20.8332 6.37409 20.8332 5.8112C20.8977 5.68221 20.9739 5.53563 21.056 5.38319C21.1381 5.23074 21.2319 5.11346 21.3374 5.03723C21.5544 5.83465 21.7713 6.63208 22 7.4295V7.42363ZM17.1158 6.6614C17.1158 6.75521 17.0982 6.8842 17.0572 7.05424C17.0161 7.22427 16.9985 7.34742 16.9985 7.43537C16.9985 7.49987 17.0103 7.57608 17.0396 7.65816C17.0103 7.69334 16.9868 7.72853 16.9692 7.75785C16.9516 7.78717 16.9282 7.78131 16.8989 7.74613L16.8168 7.66403C16.6291 7.9572 16.3594 8.21519 16.0018 8.44972C15.9431 8.48491 15.6265 8.66082 15.046 8.97157C15.1574 8.86017 15.4565 8.63148 15.9314 8.27968C16.3067 8.01583 16.5529 7.75198 16.676 7.49399C16.6585 7.46467 16.5822 7.40019 16.4415 7.28879C16.3067 7.18325 16.2363 7.08356 16.2363 7.00147C16.2363 6.96629 16.248 6.91939 16.2773 6.86075C16.3594 6.73176 16.4298 6.63795 16.4767 6.59104C16.5588 6.50896 16.6526 6.44446 16.7581 6.40928C16.8344 6.39755 16.9106 6.421 16.9809 6.47377C17.0572 6.52654 17.0982 6.59104 17.1099 6.6614H17.1158ZM17.1568 10.1794C17.1568 10.1794 17.1862 10.2498 17.1862 10.3084C17.1862 10.3905 17.1393 10.5078 17.0513 10.6602C16.9634 10.8127 16.8754 10.8361 16.7933 10.7423C16.6995 10.6192 16.6526 10.4843 16.6526 10.3319C16.6526 10.2087 16.676 10.0973 16.7171 9.9918C16.7581 9.88626 16.8226 9.76313 16.9047 9.61068C16.8754 9.71622 16.8519 9.81589 16.8344 9.91557C16.8168 10.0152 16.805 10.0797 16.805 10.1208C16.805 10.2498 16.8402 10.3612 16.9164 10.4433C16.9809 10.4433 17.0337 10.414 17.063 10.3495C17.0982 10.2908 17.1275 10.2322 17.1568 10.1736V10.1794ZM15.0343 7.49399C15.0519 7.45881 15.0636 7.40605 15.0636 7.34155C15.0636 7.26533 15.0284 7.16565 14.9581 7.04839C14.8877 6.92525 14.8525 6.82558 14.8525 6.75522C14.8525 6.6614 14.8877 6.56172 14.9522 6.46205C14.917 6.35651 14.8701 6.28028 14.8174 6.22165C14.7646 6.16301 14.6942 6.14542 14.6004 6.16301C14.448 6.22164 14.3307 6.31545 14.2369 6.45031C14.1431 6.58517 14.0962 6.73176 14.0962 6.87834C14.2076 7.01906 14.3483 7.13633 14.5183 7.23015C13.8909 7.80476 13.2636 8.3735 12.6479 8.94812C13.0818 8.70185 13.4453 8.46731 13.7444 8.2445C14.1372 7.94547 14.4538 7.62886 14.6884 7.30051L14.9698 7.55263L15.0402 7.49399H15.0343ZM11.9502 5.27178C11.9208 5.34801 11.8388 5.49458 11.7039 5.72326C11.569 5.94606 11.4987 6.13369 11.4987 6.27441C11.4987 6.35064 11.5104 6.42686 11.5397 6.51482C11.5515 6.51482 11.5808 6.5324 11.6335 6.56171C11.6863 6.59689 11.7274 6.5969 11.7684 6.56758C11.8153 6.47377 11.8505 6.41514 11.8681 6.38582C11.8798 6.421 11.8798 6.47376 11.8798 6.53826C11.8798 6.6907 11.8212 6.81385 11.7098 6.91939C11.5984 6.93698 11.487 6.90766 11.3697 6.81971C11.3052 6.69657 11.27 6.57345 11.27 6.43859C11.27 6.26269 11.3521 6.05161 11.5104 5.81707C11.7156 5.56495 11.8622 5.38318 11.9443 5.26591L11.9502 5.27178ZM15.046 10.068C15.0753 10.1032 15.0753 10.1501 15.0519 10.2087C15.0284 10.2674 15.005 10.326 14.9874 10.3905C14.9522 10.3788 14.917 10.3788 14.8819 10.3788H14.8174C14.5945 10.3788 14.4597 10.5723 14.4186 10.9534C14.3776 11.3404 14.3072 11.5691 14.2134 11.6453C14.0727 11.2817 13.9203 10.971 13.7619 10.7189C13.7326 10.754 13.6799 10.7775 13.6095 10.7775C13.5626 10.7775 13.5157 10.7716 13.4688 10.754C13.4219 10.7423 13.3398 10.713 13.2284 10.6778C13.2108 10.6192 13.1991 10.5781 13.1991 10.5488C13.1991 10.5019 13.2108 10.4491 13.2284 10.3964C13.246 10.3436 13.2811 10.2674 13.3281 10.1853C13.4395 10.0915 13.5509 10.0563 13.6681 10.0739C13.7502 10.1794 13.8382 10.3026 13.9203 10.455C14.0317 10.6895 14.1489 10.9182 14.2721 11.1469C14.3366 10.8654 14.3893 10.625 14.4362 10.4316C14.4773 10.2322 14.5945 10.0915 14.7822 10.0094L15.0519 10.0797L15.046 10.068ZM7.83993 5.67636L7.79889 5.94607C7.68748 5.94607 7.57608 5.94606 7.45881 5.93433C7.365 6.02814 7.3005 6.16886 7.25945 6.35649C7.17737 6.79038 7.10114 7.04252 7.03665 7.11874C6.92524 6.84903 6.83729 6.64381 6.76693 6.51482C6.6438 6.26269 6.4679 6.1337 6.23336 6.1337C6.18646 6.09852 6.163 6.0516 6.163 5.99297C6.163 5.94606 6.16887 5.8933 6.18646 5.84053C6.19818 5.7819 6.21577 5.73498 6.23336 5.68808C6.30959 5.54736 6.39754 5.52976 6.50308 5.62944C6.63207 5.77016 6.76107 5.96952 6.8842 6.22165C6.94283 6.35064 7.00147 6.48549 7.06596 6.61448C7.08355 6.58517 7.13632 6.39169 7.21841 6.03988C7.27704 5.79362 7.38259 5.62945 7.5409 5.54736C7.64644 5.55909 7.74025 5.60599 7.83407 5.68808L7.83993 5.67636ZM19.0155 12.0499L18.4527 7.11287L18.5641 6.87247L18.9569 7.29464C18.9569 6.96629 18.8748 6.60277 18.7106 6.20406C18.5465 5.80535 18.3882 5.42421 18.2416 5.05482C18.0657 5.30108 17.9601 5.44182 17.9308 5.48872C17.837 5.65876 17.7901 5.82879 17.7901 5.99297C17.7901 6.12196 17.8253 6.25095 17.8898 6.37408L18.6227 12.7065C18.3588 12.9059 18.1302 13.0466 17.9308 13.1404C17.6611 13.2694 17.4031 13.3398 17.1686 13.3398C17.0572 13.3398 16.9692 13.3398 16.9164 13.3281C16.7171 13.2636 16.5529 13.1287 16.4239 12.9352C16.3301 12.7945 16.248 12.6069 16.1718 12.3723C16.0135 12.2492 15.82 12.1906 15.5972 12.1906C15.4447 12.1906 15.2806 12.2199 15.0988 12.2727C14.917 12.3313 14.7411 12.4016 14.5711 12.4837C14.1782 12.6714 13.7795 12.9411 13.375 13.2988C13.246 13.4102 12.8766 13.762 12.2785 14.3542C11.8446 14.788 11.4694 15.1164 11.1527 15.3509C10.7189 15.6676 10.2967 15.8786 9.88625 15.9842C9.65171 15.9549 9.42891 15.82 9.21196 15.5737C9.13574 15.4037 9.10056 15.2513 9.10056 15.1105C9.10056 14.9522 9.13574 14.7763 9.21196 14.5887C9.28819 14.4011 9.37614 14.2134 9.48168 14.0258C10.027 13.762 10.5723 13.4981 11.1293 13.2225C11.487 13.0232 11.7743 12.7886 11.9853 12.5189C12.0967 12.2727 12.1906 12.0264 12.2609 11.7743C12.3313 11.5221 12.3665 11.2817 12.3665 11.0589C12.3665 10.625 12.2375 10.2498 11.9853 9.93316C11.6922 9.511 11.3286 9.27647 10.8889 9.22956C10.5136 9.29406 10.2263 9.52273 10.0328 9.92144C9.92143 10.1384 9.81003 10.4961 9.71035 11.0062C9.79244 11.229 9.91557 11.3814 10.068 11.4576C10.2205 11.5339 10.4198 11.569 10.6661 11.569C10.7951 11.5573 10.9358 11.5515 11.0765 11.5397C11.2172 11.528 11.3521 11.528 11.487 11.528C11.5339 11.528 11.6042 11.528 11.698 11.5397C11.7801 11.5515 11.8388 11.5808 11.8739 11.6335C11.9091 11.6863 11.9208 11.7743 11.9208 11.9091V12.0792C11.229 12.472 10.5429 12.8297 9.87452 13.158C9.2061 13.4805 8.50835 13.7913 7.78716 14.0844C7.06596 14.3776 6.34477 14.6591 5.6353 14.9229C4.99033 15.1574 4.26327 15.4096 3.46585 15.6851C4.4333 15.5327 5.40076 15.3861 6.36236 15.2337C7.32981 14.8936 8.29727 14.5594 9.27646 14.2193C9.22955 14.3424 9.1416 14.5418 9.00674 14.8232C8.91293 15.0578 8.86602 15.2688 8.86602 15.4565C8.86602 15.5386 8.87775 15.6382 8.90706 15.7496C8.93638 15.861 8.97156 15.949 9.01847 16.0194C9.19437 16.2422 9.38786 16.4122 9.59308 16.5236C9.7983 16.635 10.0328 16.676 10.2967 16.6526C10.6719 16.4532 11.0589 16.1718 11.4635 15.8083C11.528 15.7496 11.8857 15.4037 12.5306 14.7646C13.0818 14.2134 13.5509 13.8147 13.9261 13.5685C14.2369 13.3691 14.5476 13.2225 14.8701 13.117C15.0108 13.0407 15.1457 13.0056 15.2806 13.0056C15.4799 13.0056 15.6675 13.1463 15.8434 13.4277C16.078 13.803 16.2422 14.0258 16.3301 14.0962C16.4181 14.1665 16.506 14.2134 16.5822 14.2369C16.6585 14.2603 16.7699 14.2721 16.8989 14.2721C17.0865 14.2721 17.2624 14.2486 17.4266 14.1959C17.5907 14.1431 17.7549 14.0727 17.9249 13.9789C18.3002 13.8558 18.5699 13.5861 18.7282 13.1639C18.822 12.8004 18.9217 12.4251 19.0214 12.0499H19.0155ZM15.2161 15.3275C15.046 15.5796 14.8819 15.8317 14.7235 16.0897L13.8206 15.6265C13.8968 15.4741 13.973 15.3392 14.0434 15.2102C14.1196 15.0812 14.2134 14.9698 14.3248 14.8643C14.4773 14.9288 14.6356 14.9933 14.8056 15.0636C14.9757 15.134 15.1105 15.2161 15.2161 15.3333V15.3275ZM3.9701 6.26269C3.98769 6.32719 3.98182 6.40341 3.94078 6.47964C3.9056 6.56172 3.86456 6.63794 3.82351 6.71417C3.78247 6.79039 3.72383 6.82557 3.64761 6.82557C3.58311 6.82557 3.49516 6.79039 3.3779 6.71417C3.36031 6.66726 3.34271 6.61449 3.33685 6.54999C3.32512 6.49136 3.32512 6.43273 3.32512 6.38582C3.32512 6.18647 3.38962 5.97537 3.52448 5.75256C3.61829 5.59425 3.75315 5.41249 3.93492 5.20141C3.91733 5.2659 3.84697 5.41249 3.72383 5.64703C3.6007 5.88156 3.54207 6.04574 3.54207 6.16301C3.54207 6.292 3.59484 6.40926 3.69452 6.50308C3.75902 6.50308 3.81765 6.4855 3.86456 6.44446C3.91146 6.40928 3.94664 6.34478 3.97596 6.26269H3.9701ZM6.71416 13.4395C6.57344 13.5978 6.43272 13.7561 6.292 13.9027C6.09264 13.7913 5.95192 13.7033 5.85811 13.6505C5.6822 13.5391 5.57666 13.4277 5.54735 13.3281L6.09851 12.6948C6.34477 12.8179 6.52067 12.9176 6.63207 12.9997C6.74348 13.0818 6.80211 13.1639 6.80211 13.2577C6.80211 13.3046 6.77279 13.3632 6.72002 13.4395H6.71416ZM10.6837 17.8429C10.1208 18.1067 9.52272 18.3354 8.88361 18.523C8.2445 18.7165 7.62885 18.8514 7.02492 18.9217C6.74348 18.9511 6.4679 18.9628 6.19232 18.9628C5.66461 18.9628 5.16036 18.8983 4.6737 18.7752C4.18704 18.652 3.73556 18.4468 3.32512 18.1771C2.91469 17.9074 2.58634 17.5556 2.3518 17.1334C2.11727 16.7112 2 16.2539 2 15.7555C2 15.603 2 15.4917 2.01173 15.4154C2.18177 14.4773 2.38112 13.7502 2.61566 13.2342C2.944 12.5013 3.41894 11.8915 4.03459 11.4049C3.89387 11.1586 3.50689 10.9006 2.86778 10.6309C2.33421 10.3964 2.0645 10.0856 2.0645 9.7045C2.0645 9.62241 2.0645 9.55791 2.07622 9.52273C2.15831 9.25888 2.25213 8.99501 2.34594 8.73703C2.42803 8.56699 2.55702 8.44386 2.72706 8.3735C3.11404 8.29141 3.51275 8.22691 3.93492 8.19173C4.35708 8.15655 4.79683 8.1331 5.26004 8.1331C5.88156 8.1331 6.49721 8.16242 7.11287 8.22691C7.72853 8.29141 8.39109 8.3735 9.10642 8.4849L9.25887 8.62564C9.20023 8.94226 9.07124 9.22369 8.86602 9.45823C8.6608 9.69276 8.40281 9.86281 8.09205 9.96249C7.10701 10.3847 6.50308 10.6485 6.27441 10.7482C5.58253 11.0765 4.9786 11.4225 4.47435 11.7919C3.83524 12.2433 3.34858 12.7124 3.0085 13.1991C2.58634 13.7971 2.37526 14.448 2.37526 15.1398C2.37526 15.8786 2.68015 16.5119 3.28994 17.0396C3.77074 17.4148 4.31017 17.6846 4.9141 17.8429C5.51803 18.0012 6.17473 18.0833 6.87833 18.0833C7.31809 18.0833 7.81061 18.0598 8.35591 18.0129C9.6693 17.9015 10.4433 17.8429 10.6778 17.8429H10.6837ZM16.8637 7.10701V6.95457C16.8519 6.89594 16.8285 6.84902 16.7933 6.81384C16.7581 6.77866 16.7112 6.75522 16.6526 6.75522C16.594 6.75522 16.5646 6.7904 16.5529 6.86662C16.5646 6.87835 16.5998 6.92525 16.6702 7.00734C16.7405 7.08942 16.805 7.1246 16.8578 7.10701H16.8637ZM14.7235 6.86662C14.6766 6.88421 14.618 6.86661 14.5476 6.80212C14.4773 6.74348 14.4128 6.68486 14.36 6.62622C14.36 6.55 14.4069 6.51482 14.5007 6.51482C14.6415 6.51482 14.7118 6.57344 14.7118 6.68484L14.7235 6.86662ZM11.358 10.5957C11.2524 10.6309 11.1351 10.6544 11.0062 10.6544C10.7423 10.6544 10.5078 10.5899 10.3026 10.455C10.2439 10.3319 10.2263 10.2557 10.2439 10.2322C10.3495 10.1677 10.4491 10.1325 10.5547 10.1325C10.6837 10.1325 10.8303 10.1912 10.9886 10.3026C11.0179 10.3201 11.141 10.4198 11.3521 10.5957H11.358ZM7.89856 9.25887C7.49399 9.4465 6.8842 9.7338 6.06919 10.1149C5.36558 10.4609 4.79097 10.8068 4.33949 11.1586C4.33949 10.9417 4.28086 10.7482 4.16359 10.5723C4.04632 10.3964 3.89387 10.2322 3.71211 10.0797C3.53034 9.9273 3.33685 9.78072 3.12577 9.65173C3.00264 9.57551 2.83846 9.47583 2.63325 9.34097C2.93228 9.24716 3.24304 9.18264 3.5538 9.1416C3.87042 9.10642 4.20463 9.08298 4.5623 9.08298C4.93755 9.08298 5.50044 9.11229 6.25095 9.16506C7.00147 9.22369 7.55262 9.24715 7.89856 9.24715V9.25887Z" fill="white"/>
</svg>
