<svg width="24" height="24" viewBox="0 0 24 24" fill="none" xmlns="http://www.w3.org/2000/svg">
<path fill-rule="evenodd" clip-rule="evenodd" d="M21.9949 8.64266C21.964 8.66839 21.9383 8.68897 21.9228 8.7044C21.7839 8.52431 21.645 8.34423 21.5163 8.15899C21.5163 8.64266 21.5678 9.25496 21.6656 9.9856C21.8868 11.6424 22 12.7126 22 13.1963C22 13.7211 21.9588 14.1945 21.8765 14.6061C21.7942 15.0177 21.645 15.4242 21.434 15.8307C21.5421 15.3676 21.609 15.0589 21.6295 14.8943C21.6861 14.5547 21.717 14.2254 21.717 13.9064C21.717 13.7726 21.717 13.6697 21.7067 13.5873C21.6964 13.505 21.681 13.3867 21.6553 13.2272L20.904 7.33573C20.8732 7.27914 20.8526 7.21739 20.8526 7.1505C20.8526 7.06818 20.8886 6.95498 20.9555 6.81606C21.0275 6.67713 21.1047 6.52277 21.1973 6.35812C21.4289 6.62053 21.609 6.98071 21.7427 7.4335C21.7839 7.58271 21.8714 7.98405 22 8.64266H21.9949ZM17.2663 6.66684C17.256 6.73887 17.1942 6.81606 17.081 6.88809C17.0141 6.83664 16.9524 6.81606 16.8958 6.81606C16.8238 6.81606 16.7209 6.85722 16.5922 6.94469C16.4636 7.03216 16.3761 7.07332 16.3247 7.07332C16.2269 7.07332 16.1394 7.00129 16.0674 6.85207C16.052 6.81091 16.0417 6.74402 16.0417 6.65655C16.0417 6.57423 16.0571 6.48161 16.0828 6.38385C16.1137 6.28609 16.1497 6.18832 16.2012 6.10085C16.1909 6.25521 16.1909 6.3787 16.1909 6.46103C16.1909 6.5948 16.2475 6.67713 16.3658 6.71829C16.515 6.73373 16.6025 6.71829 16.6385 6.66169C16.6694 6.61024 16.69 6.55364 16.69 6.49704C16.6746 6.34268 16.6643 6.22434 16.6643 6.1523C16.6643 6.02881 16.7054 5.95164 16.7878 5.91562C16.7878 5.92591 16.798 6.01852 16.8135 6.20376C16.8289 6.38899 16.9061 6.49704 17.0347 6.53306H17.1222C17.1325 6.47646 17.1222 6.39413 17.0965 6.29123C17.0707 6.18832 17.0605 6.12658 17.0605 6.10085C17.0605 6.02882 17.0862 5.96707 17.1325 5.91562C17.2405 5.99794 17.292 6.14716 17.292 6.35812C17.292 6.43015 17.2817 6.53306 17.2663 6.66684ZM17.7602 8.07667C17.7191 8.21559 17.6573 8.34422 17.575 8.46771C17.4927 8.58605 17.3846 8.71469 17.256 8.85876L16.5253 8.3751C16.443 8.4317 16.3761 8.50887 16.3298 8.59635C16.1806 8.85361 16.0931 8.99254 16.0725 9.01827L15.2802 8.6478C15.3471 8.47286 15.4139 8.32879 15.486 8.21559C15.558 8.1024 15.6506 7.98405 15.7741 7.87086L16.5511 8.26704L17.0553 7.63931C17.22 7.72163 17.3383 7.78338 17.4155 7.82454C17.5698 7.90687 17.6882 7.99434 17.7602 8.08181V8.07667ZM14.956 6.81606C14.8428 7.20196 14.5958 7.56213 14.2254 7.89143C13.9115 8.16928 13.5462 8.39568 13.1243 8.56033L12.8413 8.44713C12.9545 8.34937 13.1243 8.23617 13.3455 8.11268C13.8395 7.83483 14.1482 7.64446 14.2717 7.5467C14.1636 7.52097 14.0247 7.49524 13.8446 7.45923C13.6697 7.42835 13.5153 7.40777 13.3918 7.40777C13.2272 7.40777 13.0831 7.42835 12.9596 7.46951C12.8361 7.51067 12.7281 7.58786 12.6406 7.7062C12.6818 7.51582 12.7744 7.32545 12.9236 7.12992C13.0728 6.9344 13.2426 6.78518 13.4433 6.67713H14.0247C14.2048 6.67713 14.3746 6.68742 14.5238 6.70286C14.6782 6.71829 14.8171 6.75431 14.9509 6.81606H14.956ZM11.6321 7.5467C11.6475 7.59815 11.6578 7.63417 11.6578 7.65989C11.6578 7.72678 11.6475 7.78853 11.6218 7.84513C11.5704 7.91716 11.5395 7.97376 11.5241 8.00463C11.3903 8.07667 11.2925 8.09725 11.2256 8.05609C11.1999 7.94289 11.1896 7.82969 11.1896 7.72164C11.1896 7.57242 11.2102 7.42321 11.2514 7.27914C11.2668 7.22254 11.3594 6.98071 11.5241 6.5485C11.4572 6.83664 11.3903 7.12478 11.3285 7.41292C11.3285 7.56213 11.3851 7.67018 11.5035 7.73193L11.6373 7.5467H11.6321ZM14.3746 9.82094C14.4055 9.99588 14.3746 10.0782 14.2614 10.0782C14.1893 10.0679 14.1328 10.0679 14.1019 10.0679C13.9887 10.0679 13.9269 10.1451 13.9269 10.3046C13.8755 10.5773 13.8395 10.778 13.8137 10.9118C13.7623 11.1484 13.6902 11.344 13.5925 11.4932C13.4278 11.1948 13.2632 10.9015 13.0985 10.603C13.0162 10.5722 12.9545 10.5464 12.9133 10.531C12.7795 10.4744 12.7075 10.4281 12.6921 10.3972C12.6921 10.1605 12.7692 9.97015 12.9287 9.83123C13.1088 9.90326 13.2477 10.0936 13.3352 10.3972C13.4278 10.7008 13.5102 10.9015 13.5925 10.9889C13.6491 10.9169 13.716 10.6956 13.788 10.3303C13.86 9.96501 13.9835 9.77979 14.1585 9.77979C14.2254 9.77979 14.2923 9.79521 14.3694 9.83123L14.3746 9.82094ZM20.3123 13.3043C19.5405 13.3043 18.6658 13.2426 17.6933 13.1243C16.7209 13.0059 15.7947 12.8876 14.9148 12.7744C15.311 12.5531 15.6661 12.3267 15.9902 12.0952C16.371 11.8225 16.7003 11.5395 16.9884 11.2411C17.1531 11.2411 17.2869 11.4006 17.3846 11.7247C17.4824 12.0437 17.5853 12.2496 17.6933 12.3319C17.8168 12.4451 17.9609 12.5068 18.1255 12.5068C18.249 12.5068 18.3931 12.4759 18.5578 12.4193C18.6092 12.4039 18.7378 12.3473 18.9539 12.2598C19.1598 12.054 19.3038 11.8276 19.3862 11.5755C19.4685 11.3234 19.5096 11.0404 19.5096 10.7317C19.5096 10.5001 19.4788 10.1914 19.4222 9.80551C19.309 9.0337 19.2472 8.52432 19.2472 8.28763C19.2472 8.12298 19.2575 7.95832 19.2833 7.79367C19.381 7.86056 19.4685 7.95318 19.5405 8.07152C19.6126 8.18987 19.6846 8.30306 19.7515 8.41111C19.8029 8.38539 19.8235 8.32879 19.8235 8.23617C19.8235 8.15385 19.7824 7.98405 19.7052 7.72164C19.628 7.46437 19.5971 7.28943 19.6126 7.2071C19.4325 6.79547 19.2524 6.38385 19.0826 5.97222C18.9848 6.00309 18.8974 6.08541 18.8253 6.21919C18.7842 6.28608 18.7276 6.39413 18.6504 6.55364C18.815 8.1487 18.9848 9.74376 19.1546 11.3337C19.0826 11.3646 18.9694 11.4211 18.8202 11.4932C18.6144 11.5755 18.4188 11.6064 18.2285 11.5909C18.0381 11.4777 17.8992 11.2925 17.8065 11.0352C17.7396 10.814 17.6728 10.5876 17.611 10.3561C17.4206 10.4075 17.2045 10.531 16.9576 10.7368C16.3298 11.2616 15.9954 11.5395 15.9439 11.5652C15.8307 11.6578 15.3213 11.9048 14.426 12.3164C13.8086 12.5943 13.4278 12.9699 13.2786 13.4381C14.3591 13.6285 15.5323 13.788 16.8083 13.9218C15.7896 14.0967 15.0229 14.2459 14.5135 14.3797C13.68 14.5958 12.9648 14.8737 12.3627 15.2184C12.2547 15.2596 11.5189 15.8101 10.1502 16.8752C9.646 17.2611 9.16748 17.4875 8.7044 17.5544C8.46771 17.5544 8.2619 17.4618 8.09725 17.2714C8.01492 17.0553 7.97376 16.8444 7.97376 16.6283C7.97376 16.2681 8.10754 15.8564 8.36995 15.3934C8.60149 15.0332 8.83303 14.6627 9.07486 14.2923C8.81245 14.6524 8.55004 15.0126 8.29792 15.3676C8.00978 15.7947 7.83483 16.196 7.77824 16.5665C7.77824 16.6077 7.76794 16.6746 7.75251 16.762V16.9473C7.75251 17.1788 7.79367 17.3795 7.87085 17.5596C7.94803 17.7345 8.07667 17.8889 8.2619 18.0124C8.41111 18.0638 8.55004 18.0844 8.68382 18.0844C8.97196 18.0844 9.29097 17.9712 9.63571 17.7499C9.74891 17.6779 10.0268 17.4618 10.4641 17.1068C11.0558 16.6283 11.6784 16.232 12.337 15.9233C12.9905 15.6095 13.6697 15.3625 14.3746 15.1824C15.0795 15.0023 15.8153 14.848 16.5922 14.7245C17.364 14.601 18.1255 14.4826 18.8665 14.3643C19.0466 14.3386 19.2164 14.3025 19.3656 14.2511C19.5199 14.1996 19.6537 14.1379 19.7669 14.0556L20.3123 13.3043ZM9.32184 7.65989C9.33728 7.69077 9.34757 7.74222 9.34757 7.80911C9.34757 7.98405 9.27553 8.13326 9.12632 8.26704C9.05943 8.25675 9.00798 8.21559 8.97196 8.13841C8.93594 8.06123 8.89992 7.9789 8.86905 7.89658C8.86905 7.51067 8.96681 7.2071 9.16748 6.99614C9.11603 7.19166 9.07486 7.39234 9.0337 7.58786C9.0337 7.71135 9.08001 7.81425 9.16748 7.89658L9.32699 7.65989H9.32184ZM12.1106 11.488C12.1415 11.5806 12.1312 11.6784 12.0746 11.7865C11.982 11.91 11.9202 11.9974 11.8894 12.0437C11.8328 12.0437 11.7762 12.018 11.7299 11.9717C11.6836 11.9254 11.6475 11.8688 11.6373 11.8122C11.627 11.7556 11.6167 11.7041 11.6167 11.6578V11.5652C11.6167 11.2359 11.699 10.9169 11.8636 10.603C11.8636 10.6751 11.8431 10.7986 11.8071 10.9632C11.771 11.1279 11.7505 11.2411 11.7505 11.308C11.7505 11.4006 11.7607 11.4726 11.7813 11.5241C11.8019 11.5755 11.8431 11.6321 11.91 11.6887L12.1055 11.4932L12.1106 11.488ZM18.6298 17.0193C18.4394 17.2663 18.1873 17.4669 17.8683 17.6162C17.5493 17.7705 17.2251 17.8426 16.8855 17.8426C16.7209 17.8426 16.5716 17.8117 16.4327 17.7499C16.2989 17.6882 16.1857 17.5853 16.1034 17.4464C16.1034 17.2251 16.1857 17.0193 16.3504 16.8289C16.4893 16.6746 16.6694 16.5356 16.8804 16.4224C16.8495 16.3658 16.798 16.3247 16.7312 16.2989C16.6643 16.2732 16.5716 16.2526 16.4482 16.2372C16.335 16.2784 16.2526 16.2938 16.2115 16.2887C16.2629 16.196 16.3144 16.124 16.3761 16.0623C16.4379 16.0005 16.5048 15.9697 16.5819 15.9697C16.7312 15.9954 16.8495 16.016 16.9473 16.0314C17.0399 16.0468 17.1171 16.088 17.1737 16.1549C17.2045 16.3298 17.0759 16.5151 16.7775 16.7106C16.479 16.9061 16.335 17.0502 16.335 17.1325C16.335 17.2405 16.4533 17.3537 16.6951 17.4772C16.8598 17.5184 17.0039 17.539 17.1273 17.539C17.4258 17.539 17.7448 17.4618 18.0895 17.3023C18.1873 17.2611 18.3674 17.1685 18.6195 17.0193H18.6298ZM13.8858 16.9679C13.9115 17.0347 13.9064 17.1068 13.8806 17.1839C13.8498 17.2611 13.8137 17.3486 13.7623 17.4515C13.7108 17.5081 13.6594 17.539 13.6028 17.539C13.5462 17.539 13.4896 17.5081 13.4433 17.4515C13.3609 17.2971 13.3198 17.1428 13.3198 16.9936C13.3198 16.7775 13.397 16.5202 13.5565 16.2166C13.6285 16.0674 13.7108 15.9233 13.7932 15.7844C13.7366 15.9336 13.6954 16.0417 13.6697 16.1189C13.5719 16.3916 13.5205 16.6077 13.5205 16.7723C13.5205 16.9524 13.5719 17.1119 13.68 17.2406L13.8909 16.9679H13.8858ZM6.9344 8.85361L6.86236 9.15205C6.7646 9.14176 6.64626 9.13146 6.51762 9.11088C6.38384 9.0903 6.30152 9.08001 6.26035 9.08001C6.13687 9.08001 6.03396 9.09545 5.94649 9.12118C5.85902 9.15205 5.78184 9.2035 5.70466 9.28582C5.73553 9.51736 5.81271 9.84668 5.92591 10.2789C6.0391 10.7111 6.12143 11.0507 6.17288 11.2977C6.19861 11.4366 6.21919 11.5755 6.23463 11.7093C6.25006 11.8431 6.26035 11.982 6.26035 12.1209C6.26035 12.548 6.16259 12.9493 5.96192 13.3198C6.02881 13.186 6.07512 13.0368 6.11114 12.867C6.14201 12.6972 6.16259 12.548 6.16259 12.4142C6.16259 12.1981 6.13687 11.9871 6.09056 11.771C6.0391 11.5549 5.97222 11.3182 5.88474 11.0507C5.79727 10.7831 5.72524 10.5361 5.66864 10.3046C5.61204 10.0731 5.58117 9.8724 5.58117 9.69746C5.58117 9.41961 5.64291 9.17263 5.7664 8.95653C5.823 8.89993 5.91047 8.84847 6.02367 8.80731C6.0391 8.79702 6.1523 8.76614 6.35812 8.70954C6.26036 8.65809 6.16774 8.63751 6.08541 8.63751C6.00309 8.63751 5.94134 8.6581 5.90018 8.69926C5.88474 8.69926 5.86416 8.71469 5.83844 8.74041C5.81271 8.77129 5.78698 8.78158 5.7664 8.77129C5.79213 8.66324 5.823 8.57577 5.85902 8.50373C5.89503 8.4317 5.96192 8.36996 6.06483 8.31336H6.1523C6.05969 8.04065 5.98251 7.83998 5.91562 7.7062C5.79213 7.45922 5.62748 7.34603 5.42166 7.37176C5.30846 7.33059 5.24672 7.24312 5.24672 7.11449C5.24672 7.05789 5.26216 6.98071 5.29817 6.88809C5.32905 6.79547 5.35477 6.72344 5.37021 6.67199C5.51942 6.71315 5.64806 6.81091 5.75096 6.97042C5.88989 7.22769 6.03396 7.47466 6.18318 7.72164C6.21405 7.47466 6.25006 7.22768 6.28094 6.9807C6.33753 6.69256 6.45588 6.49704 6.64111 6.38899C6.79547 6.37355 6.89838 6.40443 6.93954 6.48675L6.90352 6.79547C6.83664 6.75431 6.75431 6.73373 6.65655 6.73373C6.58966 6.73373 6.52791 6.75431 6.47131 6.79547C6.43015 6.86236 6.39928 6.94983 6.38384 7.06303C6.36841 7.17623 6.35812 7.28943 6.35812 7.40263V7.73707C6.35812 7.82969 6.35812 7.91201 6.35297 7.99434C6.35297 8.07667 6.32724 8.16414 6.28608 8.25161C6.39928 8.32364 6.51762 8.41626 6.63597 8.51917C6.75431 8.62208 6.85722 8.73013 6.93954 8.84847L6.9344 8.85361ZM8.30306 12.0643C8.30306 12.1363 8.29277 12.2032 8.27734 12.2598C8.2619 12.3164 8.2053 12.4554 8.10239 12.6818C8.04579 12.7229 7.98919 12.7229 7.92745 12.6818C7.87085 12.6406 7.81425 12.5789 7.76794 12.4965C7.71649 12.3576 7.69591 12.2341 7.69591 12.1261C7.69591 11.9614 7.74222 11.7762 7.82969 11.5704C7.87085 11.4726 7.96347 11.2977 8.10239 11.0507C8.00978 11.3543 7.92745 11.6578 7.84513 11.9511C7.84513 12.1261 7.9223 12.2701 8.08181 12.3833C8.12297 12.3679 8.15385 12.3113 8.17957 12.2187C8.2053 12.1261 8.24646 12.0746 8.30306 12.0643ZM11.2153 15.1412C11.2153 15.1412 11.097 15.2956 10.9066 15.5477C10.7677 15.7381 10.6442 15.8307 10.5361 15.8307C10.4384 15.8307 10.3406 15.7587 10.2532 15.6198C10.1605 15.5529 10.0988 15.5066 10.0576 15.486C9.9753 15.4345 9.89812 15.4191 9.82094 15.4345C9.79007 15.5066 9.72833 15.5992 9.646 15.7072C9.60484 15.7587 9.5328 15.8359 9.42475 15.9439C9.29097 15.877 9.16234 15.8153 9.02856 15.7587C8.8742 15.6661 8.79187 15.5683 8.78158 15.4602C8.87934 15.311 8.95138 15.203 8.99254 15.1258C9.08516 14.9869 9.18292 14.884 9.29097 14.8171C9.44019 14.8891 9.55853 14.9509 9.64085 14.9972C9.72833 15.0435 9.82609 15.1001 9.92899 15.1773L10.4127 14.6319C10.6596 14.7656 10.7986 14.8377 10.8346 14.8531C10.9684 14.9251 11.0918 15.0229 11.2153 15.1361V15.1412ZM12.1775 13.4844L11.9408 14.4106C11.3748 14.1791 10.778 14.0659 10.1605 14.0659C9.15719 14.0659 8.23617 14.3694 7.40777 14.9817C7.04759 15.1875 6.59995 15.5323 6.07512 16.0211C5.41652 16.6385 4.98945 17.0193 4.78878 17.1582C4.27939 17.539 3.78029 17.7602 3.29663 17.8271C2.95189 17.7705 2.73579 17.7242 2.65346 17.6933C2.43221 17.6007 2.2727 17.4567 2.1698 17.2508C2.1132 17.1016 2.06689 16.9627 2.04116 16.8238C2.01029 16.69 2 16.5356 2 16.371C2 15.9182 2.15436 15.4037 2.45794 14.8274C2.73579 14.3489 3.01878 13.8703 3.29663 13.397C3.14741 13.1654 3.03936 12.9287 2.96733 12.6869C2.89529 12.4451 2.86442 12.1878 2.86442 11.9151C2.86442 11.4212 2.98276 10.8809 3.22459 10.2995C3.39954 9.87754 3.64651 9.40417 3.96553 8.86905C3.69282 9.44533 3.50759 9.91356 3.40983 10.2686C3.31207 10.6288 3.26061 10.9581 3.26061 11.2616C3.26061 11.4932 3.27605 11.6836 3.31207 11.8431C3.34294 11.9974 3.41497 12.1775 3.52303 12.373C3.67224 12.548 3.83689 12.6097 4.01698 12.5583C4.07358 12.5171 4.13018 12.4296 4.18163 12.2907C4.23308 12.1569 4.29997 12.0746 4.37201 12.0489C4.33085 12.3936 4.27939 12.6612 4.2125 12.8516C4.11474 13.15 3.96038 13.3764 3.75457 13.5307C3.68768 13.4896 3.62593 13.469 3.56933 13.469C3.47672 13.469 3.40468 13.5256 3.34294 13.6337C3.28119 13.7469 3.21945 13.8498 3.16285 13.9475C2.97247 14.2871 2.78724 14.6164 2.60715 14.9457C2.40134 15.3471 2.29843 15.7124 2.29843 16.0314C2.29843 16.2526 2.34474 16.4687 2.43221 16.6746C2.52997 16.8392 2.6689 16.9524 2.83869 17.0193C3.01363 17.0862 3.20916 17.1171 3.43041 17.1171C3.96553 16.8958 4.59326 16.4842 5.30846 15.8822C5.90018 15.3779 6.49704 14.8788 7.09905 14.3746C7.81425 13.824 8.47286 13.4639 9.07486 13.2992C9.18806 13.2478 9.33213 13.2066 9.50193 13.1757C9.67173 13.1448 9.85696 13.1088 10.0628 13.0779C9.80036 12.0643 9.53795 11.0507 9.28582 10.0422C9.32699 9.82608 9.3733 9.66658 9.4196 9.55852C9.50193 9.38358 9.59969 9.28068 9.71803 9.23951C9.85696 9.41446 9.99588 9.58426 10.14 9.7592C10.3046 9.99074 10.3869 10.1811 10.3869 10.3406C10.3869 10.4075 10.3766 10.4744 10.3509 10.5362C10.3098 10.5207 10.248 10.4847 10.1708 10.423C10.0936 10.3664 10.037 10.3252 10.0062 10.2995C10.1194 11.1227 10.2068 11.6167 10.2634 11.7813C10.4435 12.3319 10.7677 12.7229 11.2411 12.9545L12.1775 13.4844ZM4.67044 14.956C4.63957 14.9817 4.60355 15.0486 4.56753 15.1618C4.53152 15.275 4.46977 15.3213 4.38745 15.3059C4.32056 15.2339 4.28968 15.1412 4.28968 15.0332C4.28968 14.9817 4.31541 14.884 4.36172 14.7296C4.41317 14.5753 4.43375 14.4569 4.42346 14.3643C4.35657 14.4981 4.30512 14.6113 4.26396 14.709C4.18163 14.9251 4.14047 15.1207 4.14047 15.3007C4.14047 15.3728 4.14047 15.4294 4.15076 15.4602C4.20736 15.5837 4.29997 15.6455 4.42346 15.6455C4.52122 15.5735 4.59326 15.4705 4.63442 15.3419C4.67559 15.2133 4.68588 15.0846 4.67044 14.9509V14.956Z" fill="white"/>
</svg>
