<svg width="24" height="24" viewBox="0 0 24 24" fill="none" xmlns="http://www.w3.org/2000/svg">
<path fill-rule="evenodd" clip-rule="evenodd" d="M22 12.6259C22 12.9468 21.9746 13.255 21.9206 13.5536C21.8666 13.8523 21.784 14.1414 21.6728 14.4274C21.7299 14.1065 21.7554 13.7633 21.7554 13.398C21.7554 13.1851 21.7427 12.9563 21.7172 12.7117L21.282 8.86103C21.2724 8.83561 21.2661 8.79431 21.2661 8.7403C21.2661 8.65452 21.2915 8.56874 21.3423 8.47978C21.3932 8.394 21.4567 8.31139 21.533 8.23514C21.5774 8.35269 21.6473 8.52108 21.7395 8.73713C21.892 9.09932 21.9778 9.38843 22 9.60766L21.7109 9.21052L21.6569 9.30265L22 12.6259ZM18.8578 8.70535C18.8642 8.73713 18.8515 8.76889 18.8261 8.80066C18.8006 8.83243 18.7689 8.86739 18.7276 8.90233C18.0318 9.15015 17.6473 9.28995 17.5774 9.31537C17.1708 9.46787 16.7895 9.62354 16.4337 9.77922C16.4337 9.63308 16.5195 9.53141 16.6942 9.47422C16.9579 9.39162 17.104 9.34078 17.1295 9.32172C17.7045 9.11838 18.2796 8.91187 18.861 8.70535H18.8578ZM18.394 10.1382L18.3336 10.3289C18.2828 10.3098 18.2319 10.2844 18.1811 10.259C18.1493 10.259 18.1334 10.2812 18.1271 10.3289C18.1271 10.4909 18.1176 10.6339 18.1017 10.7546C18.0826 10.8753 18.0508 11.0024 18.0064 11.1359C17.9555 11.085 17.8952 10.9865 17.8221 10.8436C17.7522 10.6974 17.6886 10.5957 17.6315 10.5354C17.6156 10.5767 17.5965 10.5957 17.5711 10.5957C17.5266 10.5799 17.4885 10.5703 17.4631 10.564C17.444 10.5703 17.4249 10.564 17.4059 10.5481C17.3868 10.5322 17.3709 10.5163 17.355 10.5036C17.355 10.3511 17.4091 10.2304 17.5139 10.1382C17.6092 10.1827 17.6982 10.2749 17.7808 10.4115C17.8475 10.529 17.9142 10.6434 17.9873 10.7546C18.0064 10.5862 18.0318 10.4496 18.0604 10.3384C18.089 10.2304 18.1366 10.1351 18.2097 10.0525C18.3177 10.0429 18.3781 10.0715 18.394 10.1351V10.1382ZM16.7006 11.1136C16.7006 11.1803 16.6815 11.2439 16.6465 11.3074C16.6116 11.371 16.5639 11.4154 16.5004 11.4409C16.4178 11.4409 16.3638 11.4345 16.332 11.425C16.3002 11.4154 16.278 11.3837 16.2621 11.3328C16.2526 11.2153 16.2653 11.1009 16.3034 10.9897C16.3415 10.8785 16.3924 10.7705 16.4591 10.6688C16.4654 10.7133 16.4527 10.7832 16.421 10.8785C16.3892 10.9738 16.3765 11.0374 16.3765 11.0723C16.3765 11.139 16.3956 11.193 16.4369 11.2407C16.494 11.2598 16.5417 11.2534 16.583 11.2185C16.6243 11.1835 16.6624 11.1486 16.6974 11.1104L16.7006 11.1136ZM14.3368 10.0906C14.3622 10.1668 14.3304 10.2463 14.2383 10.3257C14.1684 10.3861 14.1176 10.4274 14.0921 10.4464C14.0508 10.456 14.0159 10.4687 13.9841 10.4845C13.9523 10.5004 13.9237 10.4972 13.892 10.4782C13.9174 10.4464 13.9492 10.421 13.9841 10.4019C14.1112 10.332 14.1779 10.2939 14.1811 10.2876C14.1144 10.2621 14.0477 10.2494 13.9746 10.2494C13.8666 10.2494 13.7712 10.2812 13.6855 10.3416C13.6791 10.3066 13.7013 10.259 13.749 10.2018C13.7967 10.1446 13.8507 10.1065 13.9079 10.0906C13.9651 10.0747 14.0349 10.0683 14.1112 10.0683C14.197 10.0683 14.2701 10.0747 14.3336 10.0906H14.3368ZM15.2836 11.5394C15.2073 11.7014 15.1533 11.8031 15.1247 11.8444C15.0421 11.9619 14.9531 12.0159 14.8578 12.0032C14.8515 11.9969 14.7689 11.9492 14.6068 11.8571C14.5115 11.7999 14.467 11.7363 14.4766 11.6601C14.5687 11.5076 14.6863 11.3741 14.8261 11.2566C14.9468 11.3074 15.0262 11.3424 15.0612 11.3646C15.1469 11.4091 15.22 11.4695 15.2836 11.5394ZM12.6307 8.29233L12.4559 8.46707C11.9222 8.55921 11.5981 8.61639 11.4805 8.64181C11.1342 8.7117 10.8133 8.79749 10.521 8.8928C10.5115 8.85785 10.521 8.81655 10.5592 8.77525C10.5973 8.73395 10.6354 8.69582 10.6799 8.66405C10.9023 8.61957 11.1438 8.56874 11.4043 8.51155C11.9444 8.394 12.3511 8.32092 12.6307 8.28915V8.29233ZM17.9237 14.7673C17.7554 14.9611 17.587 15.1104 17.4122 15.2185C17.193 15.3551 16.9801 15.425 16.7705 15.425C16.6593 15.425 16.5576 15.4059 16.4654 15.371C16.4083 15.336 16.3828 15.2756 16.3828 15.1867C16.3828 15.1517 16.3924 15.1073 16.4146 15.0564L16.6878 14.6974C16.6275 14.6656 16.583 14.6402 16.5544 14.618C16.5258 14.5957 16.5036 14.5671 16.4813 14.529C16.4972 14.4464 16.5385 14.3733 16.6021 14.3066C16.6465 14.2621 16.7164 14.2081 16.8086 14.1478C16.8785 14.1478 16.9325 14.1541 16.9674 14.17C17.0024 14.1859 17.0214 14.205 17.0214 14.2304C17.0214 14.2463 17.0151 14.2685 16.9992 14.3003L16.8689 14.421C16.8785 14.3765 16.8372 14.3384 16.7387 14.313C16.7069 14.3289 16.6783 14.3448 16.6465 14.367C16.6815 14.4274 16.7355 14.475 16.8054 14.5036C16.8308 14.5131 16.9007 14.5322 17.0119 14.5576C17.0437 14.5386 17.085 14.5195 17.1422 14.5004C17.1994 14.4814 17.2502 14.4655 17.2947 14.4496C17.2597 14.5449 17.1263 14.6402 16.8975 14.7292C16.6688 14.8181 16.5481 14.942 16.5322 15.0977C16.6529 15.1835 16.7895 15.228 16.9357 15.228C17.0945 15.228 17.2661 15.1772 17.4535 15.0755C17.5457 15.0247 17.7013 14.9198 17.9174 14.7641L17.9237 14.7673ZM13.784 11.6474C13.7649 11.7141 13.7427 11.7808 13.7236 11.8444C13.6886 11.927 13.641 11.9778 13.5774 12.0032C13.533 12.0127 13.4885 11.9969 13.4472 11.9587C13.4059 11.8984 13.3773 11.8571 13.355 11.838C13.3455 11.8126 13.3392 11.784 13.3392 11.7554V11.6855C13.3392 11.5743 13.3646 11.4599 13.4154 11.3455C13.4662 11.2312 13.5012 11.1549 13.5234 11.1136C13.5139 11.1549 13.5012 11.2121 13.4853 11.2884C13.4694 11.3646 13.4631 11.4218 13.4631 11.4631C13.4631 11.5997 13.5012 11.7077 13.5774 11.784C13.6124 11.8094 13.6537 11.7935 13.695 11.7395C13.7395 11.6823 13.7681 11.6537 13.784 11.6474ZM20.135 9.68073C20.1096 9.48375 20.027 9.22958 19.884 8.92458C19.7061 8.54332 19.5981 8.30503 19.5631 8.20654C19.5028 8.29233 19.4424 8.37811 19.3884 8.46707C19.3185 8.57827 19.2804 8.67676 19.2804 8.75619C19.2804 8.82291 19.3058 8.88963 19.3566 8.95317C19.3979 9.33442 19.4583 9.76334 19.5441 10.2431C19.6267 10.7196 19.7125 11.193 19.7951 11.6601C19.8777 12.1271 19.9444 12.556 19.9889 12.95C19.8014 13.1088 19.6394 13.2264 19.4996 13.309C19.3058 13.4266 19.1215 13.5028 18.9436 13.5378C18.8419 13.5536 18.7403 13.56 18.6386 13.56C18.4257 13.56 18.2256 13.525 18.0413 13.4583C17.857 13.3884 17.7014 13.2804 17.5806 13.1343C17.911 12.95 18.2796 12.861 18.6863 12.861C18.7371 12.7244 18.772 12.6259 18.7879 12.5719C18.807 12.5147 18.8197 12.4353 18.8292 12.3273C18.6005 12.2097 18.3431 12.1176 18.054 12.054C17.7681 11.9873 17.4821 11.9556 17.1962 11.9556C16.7069 11.9556 16.2685 12.0413 15.8777 12.2161C15.811 12.3273 15.7665 12.4162 15.7411 12.483C15.6966 12.591 15.6712 12.6831 15.6712 12.7657C15.6712 12.8102 15.6775 12.8579 15.6934 12.9023C15.7252 12.8833 15.7697 12.8483 15.8268 12.8038C15.884 12.7594 15.938 12.7339 15.9825 12.7276C16.0937 12.7435 16.2113 12.7848 16.332 12.8579C16.3765 12.8833 16.4782 12.95 16.6307 13.0548C16.5449 13.1502 16.4178 13.2391 16.2526 13.3217C16.0874 13.4043 15.9222 13.4615 15.7601 13.4965C15.7347 13.5028 15.6966 13.5028 15.6458 13.5028C15.5123 13.5028 15.3884 13.4742 15.2708 13.4202C15.1533 13.363 15.0357 13.2836 14.9214 13.1756C14.9055 13.1343 14.9118 13.0866 14.9373 13.0294C14.9627 12.9722 14.969 12.9309 14.9595 12.8992C14.7117 13.093 14.4639 13.2868 14.2192 13.4774C14.1493 13.4869 14.0985 13.4933 14.0667 13.4933C13.9651 13.4933 13.8697 13.4742 13.7776 13.4329C13.4885 13.1279 13.139 12.7339 12.7323 12.251C12.1033 11.498 11.7601 11.0946 11.7093 11.0374C11.328 10.5989 10.9563 10.2177 10.5973 9.88724L10.6735 9.811C11.4964 9.61401 12.2971 9.46151 13.0755 9.35984C13.8539 9.25817 14.6386 9.20734 15.4329 9.20734C15.4424 9.22322 15.4647 9.24546 15.5028 9.27723C15.5441 9.32171 15.5536 9.36938 15.5345 9.41386C15.4647 9.51552 15.2359 9.7824 14.8546 10.2145C14.5687 10.5386 14.3749 10.8181 14.2669 11.0533C14.5814 10.7133 14.8991 10.3702 15.22 10.0239C15.5822 9.60766 15.7887 9.21052 15.8459 8.83562C15.8268 8.76572 15.7887 8.71807 15.7347 8.699C15.6807 8.67994 15.6076 8.66723 15.5187 8.66723C13.8253 8.66723 12.2049 8.87374 10.6545 9.28359C10.4766 9.34396 10.3558 9.48057 10.2955 9.68708C10.2796 9.73156 10.251 9.91901 10.2129 10.2431C10.2891 10.3384 10.4861 10.5799 10.807 10.9675C11.2327 11.4822 11.5504 11.8888 11.7538 12.1875C11.8459 12.34 11.938 12.4893 12.0365 12.6386C12.0969 12.7339 12.1287 12.8197 12.1287 12.8896C12.1287 12.9754 12.0969 13.0453 12.0302 13.0961C11.9095 13.1787 11.7887 13.2391 11.6743 13.2804C11.56 13.3217 11.4424 13.3408 11.3185 13.3408C11.166 13.3408 11.0389 13.3027 10.9373 13.2264C10.9023 13.1502 10.8674 13.0707 10.8292 12.9849C10.7943 12.9023 10.7752 12.8197 10.7752 12.7435C10.7752 12.6831 10.7847 12.6291 10.807 12.5846C10.5115 12.7181 10.216 12.8483 9.92375 12.9818C9.79666 12.7594 9.66322 12.5878 9.52025 12.4702C9.32645 12.3082 9.13264 12.2383 8.93249 12.2637C8.77363 12.3559 8.64972 12.4893 8.55758 12.6672C8.5004 12.7753 8.43685 12.9405 8.36696 13.1692C8.3479 13.2296 8.33519 13.2741 8.33519 13.2995C8.33519 13.4361 8.41144 13.5536 8.56394 13.649C8.68467 13.7189 8.83717 13.757 9.02145 13.757C9.139 13.757 9.2502 13.7443 9.35822 13.7189C9.46624 13.6934 9.56791 13.6617 9.66958 13.6204C9.70135 13.7411 9.64098 13.8745 9.49484 14.0175C9.41223 14.0938 9.28832 14.2113 9.11994 14.367C8.92613 14.5036 8.7355 14.6434 8.54805 14.7864C8.15727 15.0723 7.82049 15.2121 7.54091 15.2121C7.42971 15.2121 7.31533 15.193 7.19778 15.1517C7.08022 15.1104 6.99444 15.031 6.94361 14.9103C6.89277 14.7895 6.86418 14.6466 6.86418 14.4782C6.86418 14.3257 6.88324 14.1891 6.91819 14.0652C7.02621 14.0302 7.12152 13.9889 7.20731 13.9381C7.29309 13.8904 7.39158 13.8301 7.50596 13.7602C7.66481 13.6521 7.78554 13.5187 7.86815 13.3567C7.95075 13.1946 8.00477 13.0167 8.02383 12.8229C8.02383 12.807 8.02383 12.7816 8.03018 12.7467C8.03018 12.6132 8.00159 12.4861 7.94122 12.3654C7.88404 12.2447 7.80461 12.143 7.70929 12.0667L7.53455 12.448C7.53455 12.5433 7.55361 12.6577 7.59492 12.7911C7.61398 12.8674 7.6521 12.9786 7.70929 13.1279C7.25814 13.3503 6.79746 13.5282 6.33042 13.6585C5.86338 13.7888 5.38999 13.8523 4.91342 13.8523C4.32248 13.8523 3.78872 13.8332 3.31215 13.7919C2.83558 13.7506 2.39714 13.668 2 13.5409C2.08578 13.6267 2.17156 13.6998 2.25417 13.7633C2.33678 13.8237 2.43844 13.8872 2.556 13.954L3.166 14.2749C3.36299 14.3416 3.56315 14.386 3.7633 14.4115C3.96346 14.4369 4.17315 14.4496 4.39237 14.4496C4.49404 14.4496 4.60207 14.4496 4.71962 14.4432C4.83717 14.4369 4.93884 14.4305 5.02462 14.421C5.29468 14.3956 5.60286 14.3479 5.95552 14.2749C6.21922 14.224 6.51152 14.1573 6.83241 14.0779C6.76569 14.2876 6.72438 14.4305 6.70214 14.5131C6.6672 14.6656 6.64813 14.8181 6.64813 14.9706C6.64813 15.1041 6.66084 15.2185 6.68626 15.3138C6.73074 15.4313 6.79746 15.5298 6.88006 15.6156C6.96267 15.6982 7.06434 15.7586 7.18189 15.7935C7.43606 15.7935 7.67117 15.7522 7.89039 15.6664C8.10961 15.5838 8.32883 15.4631 8.54488 15.3042C8.69738 15.1962 8.84988 15.0723 8.99921 14.9262C9.14853 14.78 9.37093 14.5544 9.6664 14.2431C9.75218 13.9889 9.87609 13.722 10.0413 13.4424C10.1112 13.3598 10.197 13.2995 10.2923 13.2582C10.3876 13.2169 10.502 13.1915 10.6291 13.1819C10.6386 13.2486 10.6481 13.3535 10.6608 13.5028C10.6799 13.6235 10.7276 13.7189 10.7975 13.7856C10.8928 13.8618 11.0294 13.9 11.201 13.9C11.3376 13.9 11.4678 13.8841 11.5949 13.8491C11.722 13.8142 11.83 13.7602 11.9253 13.6807C12.0207 13.6013 12.1033 13.5092 12.1668 13.4011C12.2303 13.2931 12.2844 13.1756 12.332 13.0421C12.3638 12.9595 12.4019 12.842 12.4464 12.6831C12.583 12.8515 12.7863 13.112 13.0564 13.4679C13.3042 13.7633 13.5616 13.9635 13.8253 14.0715C13.8697 14.0874 13.9174 14.0938 13.9619 14.0938C14.1461 14.0938 14.3368 13.9571 14.5401 13.6807C14.6863 13.4838 14.7752 13.3694 14.8006 13.344C14.7847 13.471 14.8165 13.595 14.8928 13.7125C14.969 13.8332 15.0643 13.9285 15.1755 13.9984C15.2581 14.0239 15.3185 14.0397 15.3598 14.0429C15.4011 14.0461 15.4583 14.0493 15.5345 14.0493C15.7697 14.0493 16.0302 13.973 16.3193 13.8205C16.5544 13.6776 16.7895 13.5346 17.0278 13.3948C17.139 13.4869 17.3042 13.6267 17.5234 13.8142C17.7109 13.9571 17.8983 14.0461 18.0794 14.0811C18.216 14.116 18.3622 14.1351 18.5147 14.1351C18.7879 14.1351 19.0516 14.0747 19.2994 13.9571C19.5473 13.8364 19.776 13.6744 19.9857 13.4647C20.0556 13.2868 20.1064 13.1088 20.1318 12.9341C20.1573 12.7594 20.17 12.5719 20.17 12.3749C20.17 12.1049 20.1382 11.7872 20.0778 11.4218C20.0016 11.0818 19.9285 10.7419 19.8554 10.3988C19.7697 10.008 19.7093 9.66803 19.6807 9.38526C19.6871 9.36938 19.6966 9.34078 19.7125 9.29312C19.7284 9.24547 19.7506 9.2137 19.7824 9.19463C19.8999 9.35349 20.0175 9.50917 20.1318 9.66802L20.135 9.68073ZM8.02701 9.22958C8.04607 9.24864 8.05878 9.27406 8.05878 9.30584C8.05878 9.33125 8.04607 9.36619 8.02065 9.4075C7.99523 9.45198 7.97935 9.48693 7.97617 9.5187C7.93487 9.57906 7.88721 9.61084 7.83002 9.61084C7.79825 9.61084 7.76648 9.59813 7.73471 9.56953C7.70294 9.54094 7.67752 9.50599 7.65846 9.45833C7.6394 9.41067 7.63304 9.36302 7.63304 9.30584V9.20734C7.64257 9.16286 7.64893 9.13109 7.64893 9.11521C7.71882 8.95317 7.79825 8.81655 7.88403 8.70217C7.88403 8.73394 7.85226 8.82609 7.7919 8.98494C7.76013 9.06119 7.74742 9.12155 7.74742 9.16921C7.74742 9.26135 7.80461 9.33125 7.91581 9.38208L8.03018 9.22958H8.02701ZM9.67276 10.4496L9.58062 10.5481L9.4726 10.4115C9.34551 10.6053 9.14853 10.7832 8.88483 10.9452C8.66243 11.0787 8.43685 11.2057 8.21446 11.3328C8.28435 11.2661 8.49087 11.1168 8.83082 10.8817C9.09452 10.6974 9.28832 10.5227 9.40905 10.3543C9.39317 10.3448 9.33916 10.3193 9.24384 10.278C9.14853 10.2367 9.08816 10.1891 9.05639 10.1319C9.08816 10.0397 9.13264 9.96032 9.19619 9.89042C9.25973 9.82053 9.3328 9.77604 9.41223 9.75698C9.4726 9.73156 9.52343 9.74427 9.56473 9.79511C9.57109 9.80464 9.5965 9.8523 9.64098 9.94126V10.1859C9.64098 10.2621 9.64734 10.3479 9.66322 10.4464L9.67276 10.4496ZM12.5925 14.6593C12.6021 14.7419 12.5862 14.8213 12.5481 14.9039C12.5068 14.9865 12.4496 15.0628 12.3733 15.1327C12.3225 15.1327 12.2844 15.1073 12.2621 15.0533C12.2399 14.9992 12.2208 14.9484 12.2049 14.8976C12.2049 14.6434 12.2875 14.3988 12.4496 14.1668C12.4083 14.3289 12.367 14.4941 12.3288 14.6625C12.3288 14.7641 12.3701 14.8436 12.4496 14.8976L12.5957 14.6625L12.5925 14.6593ZM10.9468 14.8658C10.9468 14.9675 10.8959 15.0755 10.7943 15.1867C10.7371 15.2439 10.6863 15.2979 10.6354 15.3551C10.5655 15.3233 10.502 15.2915 10.4512 15.2566C10.2637 15.1295 10.162 15.0628 10.1461 15.0596C10.2288 14.8658 10.3431 14.7006 10.4893 14.564C10.6608 14.6339 10.8133 14.7355 10.9468 14.869V14.8658ZM6.30183 11.2439C6.25735 11.3265 6.20651 11.4059 6.1525 11.4885C6.09849 11.5711 6.03813 11.6474 5.96505 11.7173C5.95552 11.7077 5.85703 11.6474 5.6664 11.5425C5.53932 11.4726 5.46624 11.3964 5.444 11.3201L5.79349 10.9071L6.29547 11.2439H6.30183ZM4.16044 9.14698L4.10008 9.33125L3.8332 9.26135C3.77601 9.36302 3.73789 9.53458 3.71882 9.77286C3.69976 10.0111 3.66164 10.1859 3.6108 10.2907C3.54091 10.2335 3.47419 10.1287 3.417 9.97302C3.35981 9.81734 3.29944 9.70615 3.23908 9.63308L3.18507 9.7411C3.18507 9.7411 3.13423 9.70297 3.06751 9.66167C2.99762 9.61719 2.95949 9.57271 2.94996 9.52188C2.96585 9.43927 2.98173 9.37255 2.99444 9.31854C3.01033 9.26453 3.04527 9.22958 3.10246 9.20734C3.2359 9.28994 3.35028 9.43927 3.44559 9.65849C3.51549 9.81735 3.56632 9.91902 3.59809 9.96985C3.62351 9.811 3.65528 9.64578 3.69023 9.46786C3.72518 9.28994 3.78554 9.14697 3.86497 9.04213C3.93487 9.05166 3.99206 9.06437 4.03654 9.07708C4.08102 9.08979 4.12232 9.1152 4.16362 9.15015L4.16044 9.14698ZM5.38681 11.4123L4.98332 11.9143L4.46545 11.6251C4.50675 11.5425 4.55123 11.4599 4.59889 11.371C4.64654 11.282 4.70056 11.2089 4.7641 11.1549C4.85941 11.1708 4.96743 11.2089 5.08499 11.2693C5.25338 11.3551 5.35504 11.4027 5.38999 11.4154L5.38681 11.4123ZM3.93169 10.6561C3.94758 10.6974 3.9444 10.7387 3.92534 10.7768C3.90627 10.8181 3.88403 10.8563 3.86497 10.8912C3.71247 10.8912 3.58539 10.9008 3.48372 10.923C3.38205 10.9421 3.29944 10.9929 3.23908 11.0755C3.3058 11.3646 3.37252 11.6537 3.43606 11.9365C3.44559 12.0064 3.45512 12.0763 3.46783 12.1398C3.47736 12.2034 3.48372 12.2637 3.48372 12.3177C3.48372 12.4893 3.44877 12.6545 3.37569 12.8134C3.40111 12.7435 3.41382 12.6545 3.41382 12.5528C3.41382 12.4162 3.38523 12.2542 3.33122 12.0636C3.27403 11.9015 3.22319 11.7395 3.17236 11.5743C3.13741 11.4313 3.11835 11.3138 3.11835 11.2248C3.11835 11.0914 3.15647 10.9802 3.23272 10.888C3.30898 10.7959 3.44241 10.7228 3.62986 10.6656C3.59492 10.6402 3.55997 10.618 3.52184 10.6021C3.48689 10.583 3.4583 10.5767 3.43924 10.5767C3.42971 10.5767 3.40747 10.583 3.37887 10.5926C3.37887 10.618 3.36934 10.6339 3.35346 10.6434C3.33439 10.6498 3.31533 10.6593 3.28991 10.6688C3.28038 10.637 3.28991 10.5989 3.31215 10.5513C3.33757 10.5036 3.35663 10.4687 3.36616 10.4496C3.40747 10.3924 3.46148 10.367 3.53455 10.367C3.59174 10.367 3.64575 10.3861 3.70294 10.4242C3.76013 10.4623 3.79825 10.4909 3.82367 10.5131C3.8745 10.5544 3.91263 10.6021 3.93805 10.6593L3.93169 10.6561ZM17.5488 12.5846L17.1612 12.807C17.1263 12.807 17.0882 12.7816 17.05 12.7308C17.0119 12.6799 16.977 12.6291 16.9484 12.5783C17.0056 12.5529 17.0755 12.5401 17.1612 12.5401C17.2184 12.5401 17.282 12.5465 17.3519 12.556C17.4218 12.5656 17.4885 12.5751 17.5488 12.5878V12.5846ZM9.49801 10.1382C9.41223 10.1065 9.32645 10.062 9.24702 10.0016C9.27244 9.96985 9.30103 9.95714 9.32963 9.95714C9.35504 9.95714 9.38046 9.9635 9.40588 9.97938C9.45036 10.0143 9.48213 10.0683 9.49801 10.1382ZM9.33916 13.1184C9.27244 13.1438 9.20572 13.1565 9.14218 13.1565C8.97379 13.1565 8.81811 13.0993 8.67832 12.9818C8.68467 12.95 8.71644 12.9119 8.77681 12.861C8.88483 12.8451 8.9865 12.8674 9.08816 12.9309C9.14535 12.9659 9.22796 13.0294 9.33916 13.1216V13.1184Z" fill="white"/>
</svg>
