<svg width="24" height="24" viewBox="0 0 24 24" fill="none" xmlns="http://www.w3.org/2000/svg">
<path fill-rule="evenodd" clip-rule="evenodd" d="M16.8287 7.35826C16.7715 7.45691 16.7352 7.51921 16.7144 7.54517C16.6573 7.61267 16.595 7.6542 16.5171 7.6594L12.1661 9.12357C12.1921 8.93665 12.3011 8.81724 12.4881 8.77051C13.054 8.59917 13.5992 8.42264 14.1184 8.2513C15.7747 7.70612 16.6781 7.40498 16.8287 7.35826ZM15.8629 9.92315L15.8214 10.1516C15.785 10.1568 15.7435 10.1516 15.6968 10.1412C15.5774 10.1049 15.5151 10.0893 15.4995 10.0893C15.4579 10.0893 15.4268 10.0945 15.406 10.1101C15.3385 10.2139 15.2918 10.3853 15.2658 10.6241C15.2399 10.8629 15.2035 11.0343 15.1568 11.1381C15.0997 11.081 14.9958 10.9148 14.8453 10.6397C14.7674 10.4995 14.6947 10.3956 14.6272 10.3178C14.6272 10.3749 14.6012 10.3956 14.5493 10.3801C14.4974 10.3645 14.4455 10.3541 14.3988 10.3385C14.3364 10.3022 14.3053 10.2606 14.3053 10.2139C14.3624 10.0841 14.3884 9.98546 14.3884 9.92315C14.4247 9.85566 14.4714 9.81931 14.5337 9.81931C14.5701 9.81931 14.5961 9.83489 14.6168 9.87123C14.7259 9.96988 14.8297 10.1049 14.918 10.2866C15.0582 10.5618 15.136 10.7175 15.1568 10.7435C15.1983 10.5358 15.2399 10.3229 15.2814 10.1101C15.3281 9.96469 15.4008 9.85566 15.4995 9.77778C15.567 9.75701 15.6345 9.76739 15.6916 9.80893C15.7487 9.85047 15.8058 9.88681 15.8629 9.92315ZM22 9.32087C21.7352 8.59917 21.4756 7.87746 21.2108 7.15057C21.1018 7.21288 21.0135 7.31672 20.9512 7.4621C20.9045 7.60228 20.8577 7.73728 20.8162 7.86708C20.92 8.70301 21.0291 9.57528 21.1381 10.4787C21.2471 11.3821 21.3043 12.1817 21.3043 12.8827C20.8474 12.8827 20.2503 12.784 19.5078 12.5919C18.9626 12.4465 18.6096 12.3583 18.4486 12.3219C18.5265 12.1142 18.5628 11.8806 18.5628 11.6262C18.4174 10.92 18.2773 10.2139 18.1371 9.50779C18.1319 9.46625 18.1059 9.38318 18.0696 9.25857C18.0332 9.13396 18.0125 9.0405 18.0125 8.97819C18.0125 8.89512 18.0384 8.81724 18.0852 8.74974L18.5317 9.19626C18.4538 8.86396 18.3396 8.52129 18.189 8.16822C18.0384 7.81516 17.8619 7.47767 17.6698 7.15057C17.5711 7.22845 17.4933 7.3271 17.4361 7.44652C17.379 7.56594 17.3375 7.70613 17.3167 7.86708C17.3531 8.07996 17.54 8.95223 17.8878 10.4735C18.0125 11.0343 18.1111 11.5483 18.1786 12.0104C17.8619 12.0467 17.6075 12.0675 17.4206 12.0779C17.2336 12.0883 16.9221 12.0935 16.486 12.0935C16.3977 12.2129 16.325 12.3375 16.2731 12.4777C16.2212 12.6179 16.1952 12.7529 16.1952 12.8827C16.6469 12.8827 17.0675 12.9138 17.4621 12.9813C17.8567 13.0488 18.2669 13.1475 18.6874 13.2773C18.2721 13.4694 17.9086 13.6251 17.5971 13.7445C17.1973 13.8951 16.7975 14.0249 16.4081 14.134C16.0187 14.243 15.6345 14.3209 15.2606 14.378C14.8868 14.4351 14.4766 14.4611 14.0249 14.4611C13.4434 14.4611 12.9657 14.3053 12.5919 13.9938C12.3011 13.7497 12.0415 13.3707 11.8131 12.8515C11.6314 12.379 11.4548 11.9117 11.2835 11.4393C11.0706 10.8785 10.8422 10.4579 10.6085 10.1724C10.5047 10.3333 10.4528 10.5047 10.4528 10.6916C10.4528 10.8318 10.4787 10.9668 10.5254 11.1018C10.5722 11.2368 10.6449 11.3873 10.7383 11.5535C10.8318 11.7196 10.9304 11.8858 11.0343 12.0519C11.2368 12.3894 11.351 12.6802 11.3769 12.9242C11.1537 13.459 10.7747 13.8847 10.2347 14.2015C9.77259 14.4766 9.22741 14.6532 8.60436 14.7207C8.44341 14.622 8.36552 14.487 8.36552 14.3053C8.4486 13.9782 8.53167 13.6563 8.61475 13.3292H8.55244C8.42264 13.5628 8.3188 13.7913 8.2513 14.0145C8.1838 14.2378 8.14746 14.4662 8.14746 14.7103C8.14746 14.9855 8.20457 15.2399 8.32399 15.4683C8.42783 15.5151 8.55244 15.541 8.69782 15.541C8.80685 15.541 8.9055 15.541 8.98339 15.5254C9.06127 15.5151 9.1703 15.4891 9.3001 15.4476C9.92316 15.1931 10.3956 14.9232 10.7227 14.648C11.2004 14.2482 11.4393 13.7809 11.4393 13.2565C11.5483 13.5005 11.6625 13.7394 11.7819 13.973C11.9273 14.2638 12.0883 14.487 12.2596 14.6376C12.4829 14.8712 12.7477 15.0374 13.0592 15.136C13.3707 15.2347 13.7186 15.2814 14.0976 15.2814C14.3105 15.2814 14.5078 15.271 14.6791 15.2555C14.8505 15.2399 15.0685 15.2087 15.3333 15.1672C15.7227 15.1049 16.0862 15.0166 16.4237 14.9076C16.4808 14.8868 17.0415 14.6635 18.1163 14.2326C18.5888 14.0457 19.0613 13.9003 19.5441 13.8017C20.027 13.703 20.5306 13.6511 21.055 13.6511C21.0914 13.6147 21.1277 13.5472 21.1745 13.4382C21.2212 13.3292 21.2783 13.2721 21.3458 13.2565C21.3458 13.2825 21.351 13.3396 21.3666 13.4226V13.6615C21.3614 13.8276 21.3562 13.9886 21.3562 14.1495V14.6168C21.3562 14.8608 21.3614 14.9907 21.3769 15.0114C21.4756 14.9699 21.5483 14.8557 21.595 14.6687C21.6158 14.6012 21.6469 14.4247 21.6885 14.1391C21.73 13.8536 21.7508 13.5317 21.7508 13.163C21.7508 12.7009 21.6937 12.026 21.5846 11.1485C21.4756 10.271 21.4185 9.61163 21.4185 9.17549C21.4029 9.09761 21.4185 9.02492 21.4444 8.95742C21.4756 8.88993 21.5171 8.82762 21.5639 8.77051C21.6054 8.82762 21.6521 8.90031 21.7092 8.99896C21.7975 9.16511 21.8962 9.27414 22 9.32087ZM20.1412 15.7695C20.001 15.9927 19.7934 16.1693 19.5078 16.2991C19.2741 16.4081 18.999 16.4912 18.6874 16.5379C18.5888 16.5171 18.4953 16.4964 18.3967 16.4756C18.2876 16.4392 18.215 16.3769 18.1786 16.2887C18.1994 16.1381 18.2721 15.9927 18.3967 15.8525C18.4953 15.7435 18.6251 15.6345 18.7913 15.5306C18.729 15.5047 18.6822 15.4839 18.6563 15.4683C18.568 15.432 18.4694 15.4164 18.3655 15.4164C18.3448 15.3749 18.3448 15.3385 18.3655 15.3126C18.4538 15.2503 18.5109 15.2035 18.5317 15.1672C18.6147 15.1672 18.703 15.1828 18.7965 15.2191C18.8899 15.2555 18.9626 15.2814 19.0197 15.3022C19.0561 15.4424 18.9626 15.5826 18.7497 15.7331C18.5369 15.8837 18.4278 15.9823 18.4278 16.0395C18.4278 16.1018 18.4953 16.1693 18.6251 16.2368C18.6719 16.242 18.7445 16.2471 18.8328 16.2471C19.0561 16.2471 19.2793 16.2056 19.5026 16.1173C19.7259 16.0291 19.9387 15.9148 20.1412 15.7695ZM13.433 11.325C13.433 11.4756 13.4278 11.5898 13.4123 11.6625C13.3967 11.7352 13.3551 11.7975 13.2773 11.8546C13.1942 11.8546 13.1215 11.8235 13.0592 11.7612C12.9969 11.6989 12.9657 11.6314 12.9657 11.5535C12.9657 11.4133 13.0021 11.2523 13.0748 11.0602C13.1475 10.8681 13.189 10.7643 13.1942 10.7435C13.215 10.8006 13.2098 10.8733 13.1838 10.972C13.1578 11.0706 13.1267 11.1745 13.1007 11.2939C13.1007 11.4029 13.1578 11.4912 13.2669 11.5535C13.3032 11.5483 13.324 11.5067 13.3396 11.4393C13.3551 11.3718 13.3863 11.3302 13.433 11.325ZM9.45587 8.57321C9.4974 8.61474 9.4974 8.67186 9.45587 8.74974C9.41952 8.82762 9.38837 8.88993 9.3676 8.94185C9.34683 8.99377 9.31568 9.03011 9.26895 9.05088C9.22222 9.07165 9.17549 9.06646 9.12876 9.0405C9.06646 8.93665 9.03531 8.80685 9.03531 8.65628C9.03531 8.53167 9.07684 8.34995 9.15473 8.1163C9.23261 7.88266 9.27934 7.73728 9.29491 7.69055C9.25337 7.93458 9.21703 8.17341 9.18069 8.40706C9.18069 8.57321 9.22742 8.68743 9.32607 8.74974L9.45068 8.57321H9.45587ZM8.02285 7.50363C8.00208 7.58152 7.9865 7.64382 7.97092 7.69055C7.95535 7.73728 7.919 7.74247 7.8567 7.70093C7.79439 7.66459 7.74247 7.64382 7.70613 7.63863C7.66978 7.63344 7.63344 7.63863 7.59709 7.6594C7.51402 7.76843 7.4621 7.96054 7.44133 8.23572C7.42056 8.5109 7.37902 8.70301 7.31672 8.82243C7.23364 8.75493 7.15057 8.60955 7.0675 8.39148C6.98442 8.17341 6.90654 8.02284 6.82866 7.93977C6.83385 8.02804 6.8027 8.07476 6.72482 8.07476C6.68847 8.07476 6.64694 8.06957 6.58982 8.054C6.52233 8.01246 6.48598 7.95535 6.48598 7.88785C6.48598 7.84112 6.50675 7.76843 6.54309 7.67497C6.57944 7.58151 6.6054 7.5244 6.61059 7.50363L6.72482 7.39979C6.83385 7.48286 6.92731 7.5919 7.00519 7.7217C7.10903 7.94496 7.21288 8.16303 7.31672 8.37591C7.35306 8.10073 7.37902 7.91381 7.39979 7.82554C7.44652 7.62305 7.53998 7.46729 7.66978 7.35826C7.83074 7.32191 7.94496 7.37383 8.02285 7.50363ZM9.35203 10.6397C9.37799 10.6656 9.37799 10.7124 9.35203 10.7695C9.32087 10.8266 9.3053 10.8733 9.3053 10.8993C9.08204 10.8577 8.96262 11.0083 8.93666 11.3562C8.9107 11.704 8.86397 11.9065 8.78609 11.9688C8.76012 11.9325 8.69782 11.8079 8.59917 11.595C8.53167 11.4341 8.45379 11.3614 8.37072 11.3666H8.15265C8.07477 11.351 8.02285 11.3146 7.99688 11.2523C8.01246 11.1641 8.02804 11.0654 8.04361 10.9668C8.05919 10.8681 8.10592 10.7902 8.1838 10.7435C8.34995 10.7643 8.47975 10.8681 8.5784 11.055C8.65628 11.216 8.72897 11.3718 8.80685 11.5223C8.82762 11.3562 8.85358 11.1848 8.88474 11.0083C8.91589 10.8318 8.98339 10.6864 9.08723 10.567C9.17549 10.5618 9.26895 10.5826 9.35722 10.6397H9.35203ZM11.6262 15.9252C11.6262 16.1173 11.5742 16.2939 11.4704 16.4548C11.3925 16.4808 11.325 16.4808 11.2575 16.4444C11.19 16.4081 11.1433 16.3562 11.1173 16.2887C11.1173 16.107 11.1641 15.8941 11.2523 15.6449C11.3821 15.2762 11.4548 15.0685 11.4704 15.0218C11.4756 15.0478 11.4808 15.0893 11.4808 15.136C11.4808 15.2191 11.4496 15.3489 11.3873 15.5202C11.325 15.6916 11.2939 15.8162 11.2939 15.8941C11.2939 16.0187 11.3406 16.1173 11.4393 16.1848C11.4756 16.1693 11.5068 16.1277 11.5379 16.055C11.5691 15.9823 11.6002 15.9408 11.6262 15.9252ZM2.90343 8.69782C2.9242 8.92108 2.87227 9.08723 2.74766 9.19626C2.68017 9.19626 2.61267 9.17549 2.55556 9.13915C2.49844 9.1028 2.46729 9.04569 2.46729 8.97819C2.4621 8.93146 2.45691 8.85877 2.45691 8.77051C2.45691 8.61994 2.47767 8.46417 2.5244 8.30322C2.57113 8.14226 2.63344 7.99169 2.71651 7.84631C2.71651 7.92419 2.69055 8.04361 2.63863 8.21495C2.58671 8.38629 2.56075 8.50571 2.56075 8.57321C2.56075 8.69782 2.60748 8.80685 2.70613 8.89512C2.76843 8.89512 2.82035 8.83801 2.86189 8.72897L2.90343 8.69782ZM7.45171 14.4507C7.41018 14.6428 7.32191 14.8193 7.18172 14.9803C7.04154 15.1412 6.87539 15.2399 6.68328 15.2814C6.64175 15.297 6.58463 15.3022 6.51713 15.3022C6.37176 15.3022 6.22118 15.2399 6.07061 15.1153C5.96158 15.027 5.83697 14.892 5.70717 14.7207C5.63967 14.5701 5.57736 14.4143 5.52025 14.2534C5.4216 13.9886 5.32814 13.729 5.23988 13.4642C5.23988 13.8847 5.03219 14.2741 4.61682 14.6272C4.34683 14.8557 3.95223 15.0893 3.43302 15.3333C3.3136 15.3697 3.17861 15.4008 3.01765 15.4372C2.8567 15.4735 2.73209 15.4891 2.63344 15.4891C2.44652 15.4891 2.29076 15.4424 2.16615 15.3437C2.10903 15.2606 2.0675 15.162 2.04154 15.0478C2.01558 14.9335 2 14.8297 2 14.731C2 14.5026 2.06231 14.2274 2.18692 13.9003C2.27518 13.6874 2.33749 13.5317 2.37383 13.4434C2.37383 13.5213 2.35826 13.6096 2.3323 13.7134C2.25441 13.999 2.21807 14.1755 2.21807 14.2534C2.21807 14.352 2.23884 14.4351 2.28037 14.5078C2.32191 14.5805 2.38941 14.6376 2.48806 14.6791C3.04361 14.6791 3.55763 14.5337 4.0405 14.2482C4.52336 13.9626 4.88681 13.5732 5.13603 13.0903C5.13603 12.8411 5.04258 12.5452 4.85566 12.2077C4.75701 12.0415 4.66355 11.8754 4.5649 11.7092C4.48183 11.5379 4.41952 11.3925 4.37799 11.2783C4.33645 11.1641 4.31568 11.0395 4.31568 10.8993C4.31568 10.7124 4.37279 10.5254 4.49221 10.3385C4.73624 10.6968 4.95431 11.1641 5.1568 11.7404C5.63967 13.1526 5.94081 13.9626 6.06023 14.1703C6.23157 14.3624 6.42887 14.4611 6.65213 14.4611C6.71443 14.4611 6.76116 14.4611 6.78712 14.4507C6.85462 14.4247 6.92731 14.3884 7 14.352C7.07269 14.3157 7.1298 14.2689 7.17134 14.2118C7.04673 13.9626 6.92731 13.7134 6.80789 13.4642L6.98442 12.8204C7.14538 12.9294 7.26999 13.0955 7.36345 13.3136C7.45691 13.5317 7.50363 13.7653 7.50363 14.0145C7.50363 14.1443 7.48806 14.2897 7.45171 14.4507ZM7.75286 16.2575L7.37902 16.839C7.12461 16.6937 6.86501 16.5535 6.61059 16.4133L6.07061 16.8494C5.92523 16.7715 5.81101 16.7196 5.72793 16.6833C5.56698 16.6054 5.4891 16.5327 5.4891 16.4548C5.51506 16.4289 5.59813 16.3198 5.73832 16.1329C5.82658 16.0083 5.93043 15.9408 6.03946 15.9252L6.71443 16.1952L7.14019 15.8318L7.75286 16.2575Z" fill="white"/>
</svg>
