<svg width="24" height="24" viewBox="0 0 24 24" fill="none" xmlns="http://www.w3.org/2000/svg">
<path fill-rule="evenodd" clip-rule="evenodd" d="M15.1207 4.4554C15.155 4.54457 15.1207 4.63372 15.011 4.72975C14.9081 4.82577 14.8052 4.88751 14.7092 4.9218C14.1811 5.155 13.4609 5.4362 12.535 5.77914C11.5062 6.16323 10.7654 6.45129 10.3265 6.63648C10.3059 6.56789 10.3196 6.49244 10.3676 6.39642C10.4156 6.3004 10.5117 6.2318 10.6557 6.17693C11.6571 5.81342 12.3978 5.53908 12.8916 5.35389C13.6598 5.06583 14.4005 4.7709 15.1139 4.46226L15.1207 4.4554ZM14.6612 7.48695C14.6063 7.50753 14.5652 7.56239 14.5377 7.6447C14.5103 7.727 14.4623 7.77502 14.4005 7.78188C14.2497 7.67214 14.1674 7.53496 14.1674 7.37035C14.1674 7.28119 14.1879 7.15773 14.2359 6.99312C14.2771 6.82851 14.3045 6.70506 14.3045 6.62961C14.085 6.90396 13.9753 7.22632 13.9753 7.60355C13.9753 7.74758 13.989 7.85047 14.0096 7.91905C14.0508 7.98764 14.1056 8.04936 14.1605 8.11795C14.2154 8.18654 14.284 8.20026 14.3594 8.16597C14.4829 8.09738 14.5652 8.00821 14.6063 7.89161C14.6475 7.77501 14.6749 7.6447 14.6749 7.48695H14.6612ZM9.31139 5.21672C9.34568 5.34704 9.3251 5.49107 9.26337 5.65568C9.19479 5.81343 9.09877 5.93689 8.96845 6.02605C8.87929 6.04663 8.8107 6.02605 8.75583 5.97804C8.70096 5.92317 8.65295 5.85458 8.60494 5.76542C8.60494 5.54594 8.63237 5.34018 8.6941 5.15499C8.75583 4.96981 8.84499 4.76405 8.96845 4.54457C8.96845 4.61316 8.94102 4.73661 8.893 4.9218C8.84499 5.10699 8.81756 5.23729 8.81756 5.3196C8.81756 5.41562 8.85185 5.5185 8.91358 5.61453C9.02332 5.62824 9.11934 5.5528 9.19479 5.40191C9.23594 5.30589 9.27709 5.24415 9.31139 5.22357V5.21672ZM22 12.8367C21.9451 12.823 21.8217 12.8093 21.6365 12.7887C21.4513 12.7682 21.321 12.727 21.2387 12.6721C21.2387 12.0549 21.0878 10.6763 20.7929 8.52262C20.6626 7.56926 20.594 6.75307 20.594 6.0672C20.6283 6.08778 20.6763 6.14951 20.7449 6.25925C20.8134 6.36213 20.882 6.42385 20.9575 6.45129C20.8066 5.59395 20.5597 4.8052 20.2167 4.07818C20.0521 4.33881 19.8944 4.6063 19.7366 4.86693C19.7366 5.54594 19.8121 6.36898 19.9698 7.3292C20.1207 8.28942 20.2785 9.23593 20.4294 10.1619C20.5802 11.0878 20.6626 11.9245 20.6626 12.6721C20.0933 12.6173 19.5995 12.5487 19.1811 12.4732C18.5981 12.3635 17.823 12.1715 16.8628 11.8971C16.9931 11.5885 17.0823 11.3141 17.1372 11.0672C17.192 10.8203 17.2126 10.5254 17.2126 10.1893C17.2126 9.8052 17.1783 9.41425 17.1166 9.02331C17.096 8.8244 17.0069 8.33744 16.856 7.55554C16.7462 6.98627 16.6776 6.4993 16.6433 6.10835C16.6845 5.93003 16.7325 5.84772 16.7737 5.84772C16.7942 5.84772 16.8697 5.92317 16.9863 6.0672C17.1029 6.21124 17.2195 6.25925 17.3155 6.20438C17.2606 6.02605 17.096 5.62824 16.8217 5.0041C16.6228 4.54457 16.4787 4.13304 16.3759 3.76953C16.1015 4.06446 15.9163 4.40054 15.8134 4.77091C15.8546 5.24416 16.0398 6.30725 16.3553 7.96706C16.5953 9.22906 16.7188 10.2922 16.7188 11.1632C16.3347 11.2867 15.9575 11.3553 15.594 11.3827C15.2236 11.4101 14.7572 11.4239 14.1879 11.4239H13.8244C13.6804 11.7188 13.5981 11.904 13.5775 11.9657C13.5089 12.1509 13.4815 12.3361 13.4815 12.5075C14.0645 12.5075 14.7298 12.5898 15.4705 12.7544C15.8957 12.8436 16.5405 12.9945 17.3978 13.214C16.8285 13.454 16.2524 13.6735 15.6763 13.8724C15.1001 14.0713 14.4623 14.2702 13.7558 14.4828C12.6036 14.7778 11.8628 14.9629 11.5336 15.0247C10.69 15.1893 9.90809 15.2716 9.19479 15.2716C8.63237 15.2716 8.09054 15.2099 7.55556 15.0795C7.02058 14.9561 6.54733 14.7572 6.12894 14.4966C5.8203 14.2977 5.6214 14.0782 5.51852 13.8313C5.41564 13.5843 5.36763 13.2826 5.36763 12.9328C5.36763 12.8367 5.36763 12.679 5.38134 12.4664C5.39506 12.2538 5.39506 12.0891 5.39506 11.9794C5.25103 12.0754 5.13443 12.3429 5.03155 12.775C4.93553 13.2071 4.88066 13.5981 4.88066 13.9547C4.88066 14.3731 5.03155 14.7778 5.34019 15.1618C5.64883 15.5528 6.0192 15.8134 6.4513 15.9506C6.8834 16.0878 7.29493 16.1838 7.68587 16.2455C8.07682 16.3073 8.50206 16.3347 8.96159 16.3347C9.38683 16.3347 9.83265 16.3073 10.2922 16.2524C10.7517 16.1975 11.2455 16.1084 11.7668 15.978C12.2881 15.8546 12.9054 15.6763 13.6187 15.4568C14.0439 15.3127 14.476 15.1687 14.9012 15.0315C15.7449 14.7435 16.465 14.524 17.0549 14.3731C17.7682 14.1742 18.3923 14.0302 18.9342 13.9273C19.4691 13.8313 20.0453 13.7764 20.6488 13.7764C20.7174 13.9067 20.7449 14.037 20.7449 14.1742C20.7449 14.2977 20.6968 14.5103 20.6077 14.8189C20.5117 15.1276 20.4705 15.3608 20.4705 15.5254C20.6488 15.3196 20.786 15.0727 20.882 14.7983C20.9506 14.6132 21.0123 14.3388 21.0809 13.9753C21.0947 13.8793 21.1495 13.8244 21.2455 13.8244C21.3141 13.8244 21.417 13.8381 21.561 13.8724C21.6914 13.749 21.7942 13.5981 21.856 13.4129C21.9246 13.2277 21.9657 13.0288 21.9863 12.823L22 12.8367ZM12.8779 8.83812C12.8642 8.94786 12.823 9.05759 12.7476 9.16733C12.7064 9.18105 12.6241 9.15362 12.5144 9.09875C12.4047 9.04388 12.3361 9.01644 12.3155 9.01644C12.2606 9.01644 12.2195 9.0576 12.1989 9.1399C12.1783 9.22221 12.1509 9.45541 12.1235 9.83949C12.096 10.2236 12.0206 10.4911 11.904 10.6488C11.7942 10.5734 11.6639 10.347 11.5199 9.98352C11.369 9.61315 11.1564 9.43482 10.8683 9.43482C10.7449 9.36624 10.69 9.28393 10.69 9.18791C10.69 9.13304 10.7037 9.07131 10.738 8.99587C10.7723 8.92728 10.8134 8.84498 10.8683 8.75582C11.1221 8.75582 11.3347 8.90671 11.513 9.21535C11.6433 9.47598 11.7737 9.74347 11.9108 10.0041C11.9657 9.58572 12.0069 9.33195 12.0274 9.24964C12.1029 8.96158 12.2332 8.7421 12.4047 8.5912C12.5144 8.63236 12.6104 8.67351 12.6859 8.7078C12.7613 8.74209 12.8299 8.78325 12.8848 8.83812H12.8779ZM20.0521 16.5062C19.7778 16.8765 19.38 17.144 18.8519 17.2949C18.4678 17.4046 17.9534 17.4595 17.3018 17.4595C17.2126 17.4252 17.1509 17.3978 17.1029 17.3772C16.9726 17.3086 16.8903 17.2195 16.856 17.096C16.856 16.8903 16.952 16.6845 17.1509 16.4856C17.2812 16.3416 17.4733 16.1975 17.727 16.0398C17.6859 15.9712 17.6173 15.93 17.5213 15.9094C17.4252 15.8889 17.3635 15.8752 17.3292 15.8752C17.2195 15.9849 17.1303 16.026 17.0686 16.0055C17.1029 15.9094 17.1646 15.8134 17.2469 15.7243C17.3361 15.6351 17.4252 15.5734 17.5075 15.5254C17.6036 15.5254 17.727 15.5597 17.8779 15.6351C18.0288 15.7037 18.1454 15.7448 18.2346 15.7586C18.2551 15.9437 18.0905 16.1426 17.7407 16.3621C17.3909 16.5747 17.2126 16.7188 17.2126 16.8011C17.2126 16.8902 17.3361 16.9863 17.5761 17.096C17.6516 17.1097 17.7613 17.1097 17.9054 17.1097C18.2757 17.1097 18.6392 17.0549 18.989 16.952C19.3388 16.8491 19.6886 16.6982 20.0453 16.4993L20.0521 16.5062ZM7.21262 4.64059C7.25377 4.77091 7.28121 4.92866 7.28121 5.10012C7.28121 5.40876 7.18519 5.6351 6.98628 5.79285H6.73937C6.65021 5.79285 6.58848 5.76542 6.56104 5.71055C6.41701 5.94374 6.24554 6.07406 6.03292 6.10835C5.79287 6.07406 5.63512 5.9506 5.57339 5.73112C5.58711 5.68997 5.61454 5.51164 5.65569 5.203C5.69685 4.89436 5.77915 4.67488 5.90261 4.54457C5.92318 4.62001 5.91632 4.75718 5.86831 4.95609C5.82716 5.15499 5.79973 5.27159 5.79973 5.3196C5.79973 5.5185 5.89575 5.64882 6.09465 5.7174C6.27984 5.7174 6.41015 5.61453 6.47188 5.40191C6.4856 5.34704 6.4856 5.28531 6.47874 5.20986C6.47874 5.14128 6.47188 5.06583 6.47188 4.99038C6.47188 4.83949 6.52675 4.72976 6.63649 4.67489V5.13442C6.63649 5.31274 6.71193 5.39504 6.86968 5.39504C6.97942 5.41562 7.06173 5.39505 7.1166 5.31274C7.09602 5.13441 7.0823 5.0041 7.0823 4.91493C7.0823 4.78462 7.12346 4.68859 7.21262 4.63373V4.64059ZM11.9383 12.5418C11.9588 12.583 11.9657 12.6584 11.952 12.7544C11.9383 12.8505 11.9177 12.9396 11.8834 13.0151C11.7531 13.1797 11.6228 13.2277 11.4856 13.166C11.3553 12.9602 11.2867 12.7201 11.2867 12.4595C11.2867 12.24 11.3278 12.0206 11.4033 11.7942C11.4787 11.5679 11.5816 11.3347 11.7188 11.0946C11.7051 11.1358 11.6502 11.3827 11.5542 11.8217C11.513 12.0068 11.4856 12.1577 11.4856 12.2675C11.4856 12.4732 11.5473 12.6584 11.6639 12.8093C11.7531 12.8093 11.8423 12.7202 11.9246 12.5487L11.9383 12.5418ZM8.8107 12.5761C8.8107 12.7407 8.79012 12.8779 8.75583 12.9876C8.71468 13.0974 8.64609 13.1934 8.55007 13.2826C8.42661 13.2826 8.33745 13.2414 8.26886 13.166C8.20028 13.0905 8.14541 12.9876 8.09054 12.8505C8.09054 12.3566 8.20713 11.8971 8.43347 11.465C8.43347 11.5405 8.41975 11.6433 8.38546 11.7805C8.31001 12.0892 8.26886 12.2881 8.26886 12.3909C8.26886 12.6241 8.36488 12.7887 8.55007 12.8985C8.60494 12.8779 8.65295 12.8162 8.70096 12.727C8.74211 12.631 8.78327 12.583 8.81756 12.5693L8.8107 12.5761ZM12.583 18.5981C11.7805 18.9684 11.0672 19.2702 10.4431 19.5034C9.6406 19.7915 8.85871 19.9904 8.09054 20.1138C7.83676 20.1481 7.59671 20.1756 7.36351 20.1961C7.13032 20.2167 6.90398 20.2304 6.67078 20.2304C6.08093 20.2304 5.51166 20.1618 4.97668 20.0247C4.4417 19.8875 3.9273 19.668 3.44719 19.3662C2.96708 19.0645 2.60357 18.6804 2.36351 18.2071C2.12346 17.7339 2 17.2263 2 16.6776C2 16.5267 2 16.4033 2.01372 16.3141C2.02744 16.225 2.04801 16.0809 2.08231 15.8889C2.28121 15.1001 2.52126 14.4142 2.80933 13.8313C3.13855 13.1385 3.56379 12.5144 4.07819 11.952C3.98217 11.8422 3.5775 11.609 2.87792 11.2455C2.34979 10.9712 2.08916 10.6351 2.08916 10.2442C2.08916 10.203 2.10288 10.1001 2.12346 9.94923C2.25377 9.58571 2.38409 9.22221 2.52126 8.86556C2.72016 8.46089 3.04938 8.22083 3.51578 8.13853C3.98217 8.06308 4.46228 8.00136 4.95611 7.9602C5.44993 7.91905 5.99177 7.89161 6.58848 7.89161C7.65158 7.89161 8.71468 7.98078 9.76406 8.15225C9.91495 8.22083 9.99726 8.33743 9.99726 8.51576C9.99726 8.55005 9.98354 8.59806 9.96296 8.66665C9.83265 9.16048 9.46914 9.53771 8.87929 9.8052C8.37174 10.0247 7.87106 10.2442 7.36351 10.4636C6.52675 10.9986 5.7037 11.5405 4.88066 12.0754L4.72977 12.5007L4.53086 12.3361C4.18793 12.5761 3.89986 12.8299 3.65295 13.0905C3.40604 13.3511 3.19342 13.6461 3.02195 13.9616C2.84362 14.2771 2.72016 14.62 2.63786 14.9904C2.55556 15.3608 2.5144 15.7586 2.5144 16.1838C2.5144 16.609 2.65844 17.0411 2.93964 17.4321C3.19342 17.7956 3.53635 18.1042 3.97531 18.3717C4.52401 18.7421 5.19616 18.9959 5.98491 19.1262C6.51989 19.2153 7.26063 19.2565 8.19342 19.2565C8.78327 19.2565 9.53772 19.1673 10.4499 18.9959C11.7119 18.7558 12.4321 18.6255 12.6036 18.5981H12.583ZM5.90261 16.9177L5.39506 17.6241C5.05213 17.5007 4.75034 17.3292 4.48971 17.096L5.06584 16.1769C5.25103 16.2867 5.44993 16.3964 5.66941 16.5062C5.88203 16.6159 5.96434 16.7531 5.90947 16.9177H5.90261ZM8.48834 9.06446C7.75446 9.44854 7.1166 9.79833 6.58162 10.1207C5.88889 10.5254 5.27846 10.93 4.7572 11.321C4.63375 11.0603 4.17421 10.69 3.37174 10.2167C3.02195 10.011 2.79561 9.77776 2.69959 9.52399C3.20713 9.31823 3.70096 9.18106 4.19479 9.11247C4.68862 9.04389 5.3059 9.01644 6.03978 9.01644C6.0535 9.01644 6.369 9.02331 6.98628 9.04388C7.60357 9.0576 8.11111 9.07131 8.4952 9.07131L8.48834 9.06446Z" fill="white"/>
</svg>
