<svg width="24" height="24" viewBox="0 0 24 24" fill="none" xmlns="http://www.w3.org/2000/svg">
<path fill-rule="evenodd" clip-rule="evenodd" d="M18.0219 7.1849C18.0616 7.40839 17.9921 7.59214 17.8083 7.7461C17.7288 7.77093 17.6643 7.75604 17.6096 7.70637C17.555 7.65671 17.5202 7.59214 17.4954 7.52261C17.4855 7.46798 17.4855 7.39347 17.4855 7.29415C17.4855 7.11039 17.5103 6.93657 17.555 6.77764C17.6047 6.61375 17.6742 6.42999 17.7686 6.2214C17.7437 6.3406 17.7189 6.47468 17.6891 6.62864C17.6593 6.77763 17.6494 6.88691 17.6494 6.95147C17.6494 7.1253 17.6891 7.27925 17.7686 7.41831C17.8331 7.41831 17.8878 7.38851 17.9275 7.32891C17.9722 7.26932 18.002 7.22462 18.0169 7.18985L18.0219 7.1849ZM20.2965 7.96959C20.3511 7.91496 20.3809 7.8504 20.3809 7.78087C20.3809 7.60704 20.2965 7.48288 20.1326 7.41335C20.1972 7.37362 20.227 7.29913 20.227 7.1849C20.227 7.12033 20.217 7.03093 20.2021 6.91173C20.1773 6.74287 20.0879 6.62368 19.929 6.55415C19.8197 6.58394 19.7204 6.64355 19.631 6.73295C19.5416 6.82234 19.477 6.92167 19.4274 7.04087C19.3876 7.10543 19.3678 7.16006 19.3678 7.20972C19.3678 7.30409 19.4423 7.40341 19.5962 7.50274C19.7452 7.60207 19.8346 7.66663 19.8594 7.7014C19.5714 8.07389 19.1741 8.46624 18.6675 8.86853C18.3894 9.09202 17.9821 9.39994 17.4408 9.79725C17.9424 9.54893 18.4043 9.26585 18.8215 8.93806C19.2833 8.58048 19.6757 8.19309 20.0035 7.77094L20.2766 8.01926L20.3015 7.96959H20.2965ZM15.5883 7.96959C15.5585 8.02423 15.5187 8.05403 15.479 8.05403C15.4542 8.05403 15.4194 8.03913 15.3698 8.00436C15.2655 7.93483 15.2009 7.8951 15.1661 7.8951C14.9377 8.25269 14.6397 8.58543 14.2722 8.89832C14.1679 8.98772 13.5719 9.40491 12.4842 10.1598C13.3335 9.39001 14.1877 8.6202 15.0469 7.84543C15.0221 7.78087 14.9327 7.69644 14.7738 7.59711C14.6149 7.49281 14.5553 7.38354 14.595 7.26435C14.6347 7.14515 14.7142 7.02597 14.8383 6.9018C14.9625 6.77764 15.0767 6.71805 15.1761 6.71805C15.2704 6.71805 15.3449 6.78756 15.4045 6.92166C15.4045 7.31898 15.4641 7.66664 15.5833 7.96959H15.5883ZM13.0256 6.41011C13.0554 6.38031 13.0752 6.34556 13.0752 6.31576C13.0752 6.2214 12.9858 6.17173 12.8021 6.17173C12.6581 6.24126 12.5587 6.41509 12.5041 6.68328C12.4495 6.95147 12.4048 7.11039 12.375 7.16006C12.2856 6.97133 12.1962 6.77268 12.1018 6.56409C12.0075 6.3555 11.8783 6.21643 11.7194 6.13696C11.6499 6.20153 11.6002 6.27602 11.5803 6.36542C11.5605 6.45481 11.5406 6.53924 11.5257 6.62864C11.5257 6.69817 11.5803 6.75777 11.6946 6.7975C11.7194 6.80743 11.7591 6.82233 11.8138 6.84717L11.8634 6.77764C11.9181 6.85711 12.0223 7.0508 12.1713 7.36368C12.2409 7.50771 12.3104 7.62195 12.375 7.71134C12.4296 7.55242 12.4842 7.38852 12.5438 7.22462C12.5687 7.13523 12.5786 7.03589 12.5786 6.92663C12.5389 6.7677 12.6034 6.65348 12.7673 6.58891C12.9362 6.51938 13.0206 6.46972 13.0305 6.42998L13.0256 6.41011ZM22 16.0749L21.4984 16.8397C21.2103 16.6907 20.9272 16.5368 20.6392 16.3878C20.6094 16.4027 20.4852 16.5666 20.2717 16.8745C20.1823 17.0036 20.0978 17.0632 20.0084 17.0632C19.929 17.0632 19.8346 17.0135 19.7204 16.9093C19.6956 16.8695 19.6211 16.8248 19.487 16.7702C19.3578 16.7205 19.2883 16.6609 19.2883 16.5964C19.2883 16.5566 19.3131 16.502 19.3578 16.4275C19.4671 16.2586 19.5515 16.1395 19.6062 16.06C19.7105 15.911 19.8247 15.8514 19.9538 15.8812L20.6342 16.2388L21.2054 15.6676L21.9901 16.0749H22ZM21.3544 10.2591C21.3146 10.3287 21.2451 10.3734 21.1458 10.3833C21.0464 10.3932 20.9769 10.4131 20.9372 10.4379C21.0713 10.7012 21.1756 10.9693 21.255 11.2425C21.3295 11.5157 21.3693 11.7987 21.3693 12.0818C21.3693 12.3649 21.3345 12.6083 21.2699 12.8268C21.2004 13.0453 21.0862 13.2589 20.9173 13.4625C20.7882 13.6065 20.6144 13.7208 20.3909 13.8102C20.1674 13.8996 19.9588 13.979 19.7601 14.0585C19.626 14.5651 19.3827 15.0419 19.035 15.4789C18.7172 15.8762 18.3149 16.2437 17.8331 16.5765C17.3861 16.8844 16.9143 17.1476 16.4127 17.3612C15.9111 17.5748 15.3946 17.7436 14.8632 17.8628C14.595 17.8628 14.3417 17.7933 14.1083 17.6542C13.8748 17.5152 13.6911 17.3215 13.5669 17.0781C13.5272 16.949 13.4974 16.8198 13.4825 16.6858C13.4676 16.5517 13.4577 16.4126 13.4577 16.2686C13.4577 15.9656 13.4974 15.6527 13.5769 15.3349C13.6563 15.0121 13.7606 14.6793 13.8848 14.3416H13.9692C13.9195 14.5402 13.8798 14.7389 13.845 14.9376C13.8103 15.1362 13.7904 15.3249 13.7904 15.5087C13.7904 15.7074 13.8152 15.8961 13.8699 16.0699C13.9195 16.2437 14.0089 16.3977 14.1281 16.5219C14.4212 16.7702 14.7887 16.8894 15.2257 16.8894C16.7604 16.502 18.1361 15.6875 19.3479 14.4459C19.3082 14.3168 19.2088 14.2572 19.0499 14.2572C18.742 14.3068 18.4291 14.3515 18.1212 14.4012C17.7636 14.3615 17.5252 14.3217 17.406 14.282C17.1527 14.1926 16.9988 14.0337 16.9392 13.8052C16.9888 13.3433 17.0534 13.0006 17.1428 12.7672C17.2868 12.3997 17.5153 12.1414 17.8331 11.9825C17.9275 11.9676 18.002 11.9577 18.0616 11.9577C18.3546 11.9577 18.6377 12.062 18.9059 12.2656C19.1443 12.4494 19.3529 12.6927 19.5366 12.9907C19.6161 13.0453 19.7154 13.0751 19.8346 13.0751C20.0035 13.0751 20.2021 13.0155 20.4405 12.8963C20.5895 12.8268 20.7882 12.7076 21.0266 12.5388C20.7882 11.7839 20.5548 11.0289 20.3213 10.274C20.3213 10.1151 20.3462 9.96612 20.3909 9.8221C20.4405 9.67807 20.52 9.53403 20.6392 9.39497C20.7584 9.4645 20.8875 9.6135 21.0315 9.83202C21.1756 10.0505 21.2799 10.1946 21.3544 10.2691V10.2591ZM13.9642 11.1432C13.9245 11.1531 13.8848 11.1978 13.85 11.2822C13.8152 11.3667 13.7557 11.3965 13.6762 11.3716C13.5818 11.2822 13.5322 11.173 13.5322 11.0389C13.5322 10.9594 13.5421 10.875 13.5669 10.7806C13.5918 10.6912 13.6166 10.582 13.6514 10.4628C13.5719 10.6118 13.5222 10.716 13.4974 10.7707C13.4179 10.9544 13.3782 11.1332 13.3782 11.3071C13.3782 11.3965 13.3782 11.466 13.3881 11.5206C13.3981 11.5753 13.4378 11.6249 13.5123 11.6696C13.5868 11.7143 13.6613 11.7342 13.7308 11.7342C13.8202 11.6001 13.8798 11.4908 13.9096 11.4114C13.9394 11.3319 13.9593 11.2425 13.9593 11.1382L13.9642 11.1432ZM9.93643 7.71134C9.88676 7.78087 9.82717 7.89013 9.75764 8.03416C9.62851 8.28745 9.51925 8.4563 9.42488 8.53576C9.40005 8.51093 9.26595 8.42154 9.01763 8.26261C8.8438 8.15335 8.77427 8.03416 8.81401 7.90503C8.9332 7.69147 9.0226 7.53255 9.08716 7.42825C9.15173 7.32395 9.21629 7.27429 9.29079 7.27429C9.34542 7.27429 9.40502 7.30408 9.46958 7.35871C9.60368 7.43818 9.68811 7.48784 9.71791 7.51267C9.8073 7.5673 9.87683 7.63684 9.93146 7.7163L9.93643 7.71134ZM6.63372 6.28099C6.64862 6.33066 6.64366 6.38033 6.62379 6.43993C6.59896 6.49952 6.57412 6.55912 6.55426 6.62368C6.51453 6.59388 6.4748 6.56408 6.43506 6.54422C6.39533 6.52435 6.35063 6.52435 6.30594 6.53925C6.2364 6.68327 6.17681 6.92663 6.13707 7.26435C6.09734 7.60703 6.04271 7.8504 5.96821 7.98946C5.90365 7.91993 5.83412 7.74611 5.75466 7.47792C5.62553 7.05577 5.42687 6.86703 5.15868 6.90676C5.11895 6.86703 5.09908 6.81737 5.09908 6.7528C5.09908 6.71307 5.11895 6.64852 5.15371 6.56409C5.18848 6.47469 5.20834 6.42005 5.20834 6.39521L5.41197 6.21643C5.5411 6.34556 5.65036 6.52932 5.74472 6.77764C5.87882 7.13523 5.96325 7.34382 5.99305 7.40838C6.04271 7.08059 6.08244 6.84221 6.11224 6.68328C6.17681 6.38032 6.29104 6.23133 6.4599 6.23133C6.51453 6.23133 6.57412 6.24623 6.63869 6.28099H6.63372ZM15.8366 11.5951L15.5634 12.2755L15.6479 13.0155C15.5187 13.095 15.3896 13.1347 15.2555 13.1347C15.186 13.1347 15.0916 13.1198 14.9774 13.095C14.8632 13.0652 14.7589 13.0404 14.6595 13.0155C14.4907 12.9907 14.4112 12.9261 14.4112 12.8119C14.4112 12.7722 14.4311 12.6927 14.4659 12.5686C14.5006 12.4444 14.5106 12.36 14.4957 12.3103C14.1381 12.7573 13.9096 13.0255 13.8053 13.1198C13.4875 13.4079 13.1646 13.532 12.8418 13.5022C12.7226 13.5122 12.6084 13.4824 12.5041 13.4178C12.3948 13.3533 12.3005 13.2639 12.2111 13.1447C12.1167 13.0751 12.067 12.9758 12.067 12.8467C12.067 12.8218 12.077 12.7523 12.0968 12.6331C12.1167 12.5139 12.1217 12.4245 12.1167 12.3699C11.7095 12.792 11.3916 13.0801 11.1631 13.239C10.7807 13.5022 10.3933 13.6314 9.99603 13.6314C9.8371 13.6165 9.68811 13.5768 9.55401 13.5172C9.41992 13.4576 9.30569 13.3781 9.20636 13.2738C9.49938 13.0602 9.7328 12.7622 9.9116 12.3798C10.0556 12.0719 10.1599 11.7044 10.2195 11.2822C10.1897 10.9942 10.1103 10.7459 9.99106 10.5373C9.87187 10.3287 9.703 10.1598 9.47951 10.0406C9.41495 10.0158 9.36032 10.0059 9.31065 10.0059C9.23119 10.0059 9.14676 10.0208 9.06233 10.0555C9.03253 10.0655 8.95307 10.1002 8.83387 10.1648C8.60541 10.5323 8.42662 10.87 8.30743 11.1779C8.15843 11.5653 8.07897 11.9328 8.07897 12.2755C8.07897 12.499 8.10877 12.7076 8.1634 12.9063C7.40849 13.1993 6.87211 13.393 6.55426 13.4774C5.96821 13.6463 5.39707 13.7257 4.85076 13.7257C4.667 13.7257 4.47331 13.7158 4.26471 13.691C3.8376 13.6363 3.45518 13.5072 3.12242 13.3086C2.74994 13.0851 2.49665 12.792 2.35759 12.4245C2.34269 12.3699 2.33275 12.2954 2.33275 12.1961C2.33275 12.052 2.37249 11.8832 2.45195 11.6845C2.49168 11.5753 2.56121 11.4064 2.65557 11.1829C2.90887 11.1283 3.09759 10.9346 3.21679 10.6118C3.28632 10.3485 3.36578 10.0853 3.44524 9.81215L3.17209 10.2045C3.11746 10.2442 3.06779 10.2641 3.02806 10.2641C2.9635 10.2641 2.9039 10.2393 2.84927 10.1946C2.79464 10.1449 2.74001 10.0853 2.69531 10.0158C2.64564 9.83202 2.62578 9.65323 2.62578 9.47941C2.62578 9.09202 2.7549 8.63014 3.01813 8.09873C3.40055 7.31899 3.60417 6.89684 3.62404 6.83724C3.07773 7.761 2.74001 8.35201 2.61088 8.61523C2.41222 9.02248 2.26819 9.39497 2.18376 9.73766C2.15893 9.85685 2.14403 9.94624 2.13409 10.0108C2.12416 10.0754 2.12416 10.1598 2.12416 10.2591C2.12416 10.4677 2.15396 10.6416 2.21356 10.7905C2.27316 10.9395 2.37249 11.0587 2.51651 11.1531C2.46188 11.2872 2.38242 11.4859 2.27812 11.7441C2.17383 12.0024 2.09933 12.211 2.04966 12.3699C2.03973 12.4195 2.0298 12.4841 2.01987 12.5686C2.00993 12.653 2 12.7324 2 12.8119C2 13.0751 2.05463 13.3185 2.15893 13.5519C2.26819 13.7804 2.43208 13.9691 2.65557 14.1131C2.9486 14.3018 3.25652 14.4409 3.57437 14.5253C3.89223 14.6098 4.22498 14.6495 4.5776 14.6495C4.76136 14.6495 4.93022 14.6396 5.08915 14.6247C5.24808 14.6098 5.41197 14.5849 5.57586 14.5551C5.98311 14.4856 6.47976 14.3515 7.06581 14.1628C7.44822 14.0337 7.91011 13.8698 8.44649 13.6612C8.65508 13.9393 8.83387 14.1479 8.98287 14.282C9.22126 14.4906 9.45965 14.5899 9.69804 14.5899C10.1053 14.5899 10.4728 14.4955 10.8056 14.3118C11.1383 14.1231 11.4413 13.8598 11.7095 13.5172L11.8535 13.9691C11.933 14.1181 12.0372 14.2373 12.1614 14.3217C12.2905 14.4062 12.4395 14.4608 12.6134 14.4806C12.9411 14.4409 13.2093 14.3714 13.4229 14.2671C13.6911 14.138 13.8997 13.9492 14.0437 13.6959C14.153 13.8251 14.3119 13.9194 14.5205 13.984C14.5453 13.9939 14.7291 14.0337 15.0668 14.1131C15.2257 14.0982 15.3648 14.0585 15.484 13.9989C15.6032 13.9393 15.6975 13.8449 15.772 13.7208C15.9707 13.3731 16.07 12.9808 16.07 12.5537C16.07 12.1812 15.9906 11.8633 15.8316 11.6001L15.8366 11.5951ZM6.54929 8.20799C6.57412 8.25766 6.58406 8.29738 6.58406 8.33711C6.58406 8.41657 6.54929 8.49605 6.4748 8.58048C6.4003 8.66491 6.33573 8.7394 6.27117 8.8139C6.16191 8.89336 6.04768 8.95296 5.93842 8.99766C5.82915 9.04236 5.70499 9.06223 5.5709 9.06223C5.6007 9.03243 5.75962 8.93309 6.03775 8.77416C6.16687 8.70463 6.26124 8.62517 6.3258 8.54571C6.23144 8.51591 6.14204 8.48611 6.06258 8.46624C5.98311 8.44638 5.89372 8.43644 5.79935 8.43644C5.65533 8.43644 5.54606 8.47121 5.4666 8.54571C5.44177 8.49604 5.4517 8.44637 5.4964 8.38678C5.5411 8.32718 5.5858 8.26758 5.63546 8.20302C5.71492 8.15335 5.81425 8.13348 5.93345 8.13348C6.00298 8.13348 6.11224 8.14342 6.25627 8.16825C6.4003 8.19308 6.49963 8.20302 6.55426 8.20302L6.54929 8.20799ZM5.66526 11.3915C5.66526 11.6448 5.57586 11.8385 5.40204 11.9775C5.27291 11.9775 5.17358 11.9279 5.10405 11.8236C5.07922 11.7839 5.05935 11.7143 5.04445 11.62C5.04445 11.4511 5.07425 11.2922 5.12888 11.1432C5.18351 10.9942 5.26794 10.8353 5.3772 10.6763C5.36727 10.7161 5.34244 10.8104 5.29774 10.9545C5.25304 11.1034 5.23318 11.2127 5.23318 11.2822C5.23318 11.4163 5.28781 11.5405 5.40204 11.6498C5.45667 11.6498 5.50137 11.61 5.53116 11.5306C5.56096 11.4511 5.5858 11.4014 5.6007 11.3865H5.66029L5.66526 11.3915ZM19.9935 7.26932C19.9042 7.21965 19.8247 7.16999 19.7452 7.11536C19.7055 7.09053 19.6707 7.06569 19.636 7.04582C19.7552 7.12529 19.8744 7.19979 19.9935 7.27429V7.26932ZM15.1761 7.43818V7.26932C15.191 7.14019 15.1363 7.08059 15.0072 7.08059C14.9426 7.08059 14.893 7.11536 14.8532 7.18985C14.9476 7.30905 15.0569 7.39348 15.1761 7.43818ZM18.6675 13.3632C18.598 13.2837 18.5036 13.2142 18.3943 13.1496C18.2851 13.0851 18.1808 13.0205 18.0864 12.9609C17.9772 12.946 17.8778 12.9361 17.7984 12.9361C17.704 12.9361 17.6196 12.951 17.55 12.9758C17.4805 13.0056 17.4209 13.0553 17.3712 13.1347C17.4755 13.2241 17.6047 13.2887 17.7636 13.3334C17.9225 13.3781 18.0814 13.3979 18.2404 13.3979C18.3844 13.3979 18.5284 13.388 18.6675 13.3632ZM9.66824 12.1712C9.52421 12.2656 9.37522 12.36 9.22126 12.4593C9.0673 12.5537 8.92824 12.6232 8.80904 12.6629C8.71468 12.5139 8.64515 12.35 8.60541 12.1762C8.56568 12.0024 8.54582 11.8087 8.54582 11.6051C8.54582 11.5107 8.54582 11.4114 8.55575 11.3071C8.56568 11.2028 8.57562 11.1134 8.59051 11.0339C8.66998 10.9793 8.74447 10.9495 8.81897 10.9495C8.9481 10.9495 9.07723 11.014 9.21132 11.1382C9.30072 11.2276 9.39508 11.3418 9.49938 11.4859C9.55401 11.605 9.59374 11.7094 9.61361 11.7938C9.63347 11.8832 9.65334 12.0073 9.66824 12.1762V12.1712Z" fill="white"/>
</svg>
