<svg width="24" height="24" viewBox="0 0 24 24" fill="none" xmlns="http://www.w3.org/2000/svg">
<path fill-rule="evenodd" clip-rule="evenodd" d="M21.5504 6.69423C21.5414 6.79315 21.5324 6.89207 21.5324 6.99998V7.25181C21.5324 7.6385 21.5773 8.22302 21.6763 9.01439C21.7752 9.80576 21.8201 10.3993 21.8201 10.7949C21.9281 11.5503 21.982 12.3417 21.982 13.1691C21.982 13.8165 21.9371 14.4191 21.8471 14.9856C21.7572 15.5521 21.6043 16.0737 21.3885 16.5683C21.4604 16.3165 21.5054 16.0558 21.5324 15.786C21.5594 15.5162 21.5683 15.2284 21.5683 14.9137C21.5683 14.509 21.4964 13.6097 21.3525 12.2158C21.2806 11.5234 21.2446 10.9748 21.2446 10.5791C21.1817 10.1205 21.1097 9.3921 21.0198 8.37591C20.9299 7.35972 20.8399 6.28955 20.741 5.14747L21.2086 4.30214C21.2536 4.473 21.3795 4.84173 21.5863 5.41727C21.8651 6.20863 22 6.84712 22 7.32374L21.5504 6.69423ZM14.8597 8.56475C14.8237 8.5018 14.7158 8.42086 14.527 8.30395C14.3381 8.18704 14.2662 8.06115 14.3022 7.91727L14.9676 7.14387L15.723 7.7554C15.5522 8.0072 15.4263 8.18704 15.3453 8.29495C15.1745 8.51078 15.0126 8.60072 14.8597 8.56475ZM16.4964 4.58992L16.5683 4.44603C16.4964 4.47301 15.768 4.7338 14.3741 5.2374C12.7914 5.80395 11.5773 6.25359 10.741 6.58632C10.4532 6.69423 10.1655 6.81115 9.86871 6.92805C9.57194 7.04496 9.42806 7.25179 9.42806 7.53956C9.95863 7.26078 10.5432 6.99998 11.1906 6.74819C11.6942 6.55934 12.2698 6.34352 12.9263 6.1097C13.5827 5.87589 14.2122 5.65107 14.8237 5.43524C15.5072 5.17445 16.0558 4.8687 16.4604 4.53596L16.4964 4.58992ZM7.01799 3.97841C7.01799 3.8705 7.09892 3.78056 7.26978 3.71761C7.44065 3.65466 7.54856 3.58274 7.59352 3.5108C7.40468 3.42986 7.20683 3.38488 7 3.38488C6.84712 3.38488 6.70324 3.42986 6.58633 3.5108C6.55036 3.42986 6.56835 3.34891 6.64928 3.26797C6.73022 3.18704 6.82914 3.1151 6.96403 3.04315C7.13489 3.01618 7.2518 3.0072 7.32374 3.0072C7.54856 3.0072 7.78237 3.05214 8.00719 3.15106C7.94424 3.33092 7.81835 3.50181 7.6205 3.65469C7.42266 3.80756 7.22482 3.91546 7.01799 3.97841ZM8.33093 5.4892C8.11511 5.39028 7.96223 5.31834 7.86331 5.27338C7.67446 5.17446 7.53057 5.08452 7.43165 4.9856C7.35971 5.03057 7.26978 5.17444 7.16187 5.39926C7.05396 5.62408 6.93705 5.741 6.80216 5.741C6.73022 5.741 6.66727 5.73202 6.6223 5.70504C6.59532 5.66907 6.47842 5.6151 6.27158 5.55215C6.06475 5.4892 5.96583 5.3903 5.99281 5.2554C6.06475 5.1385 6.15468 5.00359 6.26259 4.85072C6.3705 4.69784 6.47842 4.55396 6.58633 4.41008L7.44964 4.69783L8.13309 4.08632C8.30396 4.14927 8.45683 4.22121 8.60072 4.30214C8.80755 4.44603 8.95144 4.54497 9.05036 4.60792C9.0054 4.65288 8.93345 4.78778 8.83453 5.00361C8.69065 5.32735 8.51978 5.4892 8.33093 5.4892ZM12.8813 8.92446C12.8183 8.93345 12.7464 8.89747 12.6655 8.80755C12.5845 8.71762 12.5126 8.67266 12.4496 8.67266C12.4496 8.9964 12.4227 9.31115 12.3597 9.62589C12.2968 9.94064 12.1978 10.2194 12.054 10.4712C11.973 10.3363 11.8651 10.1295 11.7302 9.85071C11.5953 9.57194 11.5054 9.3831 11.4424 9.30217C11.4065 9.40109 11.3345 9.44603 11.2266 9.44603L11.0827 9.41008C11.0198 9.34713 10.9928 9.27516 10.9928 9.19423C10.9928 9.13128 11.0108 9.04136 11.0378 8.92446C11.0647 8.80755 11.0827 8.73561 11.0827 8.72661C11.1187 8.68165 11.1547 8.6277 11.1906 8.56475C11.2536 8.5018 11.3076 8.5018 11.3705 8.56475C11.5144 8.70863 11.6673 8.95143 11.8201 9.28416C11.973 9.6169 12.0899 9.85072 12.1619 9.96762C12.1978 9.59892 12.2248 9.26618 12.2518 8.97841C12.2788 8.69064 12.3507 8.42985 12.4856 8.18704C12.5486 8.21402 12.6205 8.25899 12.7014 8.33093C12.7824 8.40287 12.8723 8.46582 12.9532 8.52877L12.8813 8.92446ZM17.8633 15.9388C18.304 15.7949 18.6007 15.4712 18.7446 14.9676C18.8076 14.527 18.8705 14.0773 18.9424 13.6187C18.9424 13.0072 18.7806 11.5773 18.4568 9.33812C18.313 8.33992 18.241 7.4766 18.241 6.74819C18.241 6.53236 18.268 6.42446 18.313 6.42446C18.3219 6.42446 18.4119 6.54137 18.5827 6.76619C18.7176 6.95504 18.8255 7.009 18.9065 6.91008C18.6817 6.0018 18.3309 5.12051 17.8633 4.26619C17.7914 4.40108 17.7194 4.52697 17.6475 4.64387C17.5036 4.88668 17.4227 5.10251 17.4137 5.29135C17.5486 6.16366 17.6745 7.14389 17.7914 8.23202C17.9083 9.32015 18.0342 10.4173 18.1601 11.5234C18.286 12.6295 18.4029 13.6097 18.5108 14.4461C18.196 14.6529 17.8723 14.8057 17.5396 14.9047C17.2068 15.0036 16.8651 15.0576 16.5144 15.0576C16.1637 15.0576 15.8489 15.0036 15.5252 14.8957C15.5342 14.8237 15.6241 14.473 15.777 13.8525C15.8849 13.4209 15.9388 13.0701 15.9388 12.7914C15.9388 12.6744 15.9209 12.5216 15.8849 12.3417C15.8489 12.1619 15.804 12.009 15.75 11.8831C15.696 11.7572 15.6241 11.6583 15.5252 11.5863C15.4263 11.5144 15.3183 11.4784 15.2014 11.4784H15.1205C15.1205 11.4784 15.0396 11.4874 15.0036 11.5144C14.464 11.9101 14.0594 12.3777 13.7896 12.9263C13.5198 13.4748 13.3849 14.0593 13.3849 14.6798C12.1259 15.2464 10.759 15.5252 9.28417 15.5252C8.57374 15.5252 7.95324 15.4622 7.41367 15.3453C6.8741 15.2284 6.39748 14.9766 5.98381 14.5899C5.57014 14.2032 5.31835 13.7896 5.21942 13.3489C5.19245 13.4658 5.17446 13.6097 5.14748 13.7806C5.1205 13.9514 5.11151 14.0953 5.11151 14.2122C5.11151 14.7428 5.23741 15.1745 5.48921 15.5072C5.98381 15.9299 6.51439 16.2266 7.08993 16.4065C7.66547 16.5863 8.30396 16.6763 9.01439 16.6763C9.83273 16.6763 10.723 16.5593 11.6942 16.3165C12.3777 16.1457 13.196 15.8939 14.1583 15.5612C14.7608 16.0018 15.4892 16.2266 16.3525 16.2266C16.8561 16.2266 17.3597 16.1277 17.8633 15.9388ZM10.5072 13.7446C10.4263 13.7806 10.3453 13.7716 10.2644 13.7176C10.1835 13.6637 10.1475 13.5917 10.1475 13.4928C10.1475 13.205 10.2104 12.8813 10.3453 12.5216C10.4083 12.3687 10.5342 12.063 10.741 11.6043C10.741 11.7392 10.6781 11.955 10.5612 12.2518C10.4442 12.5486 10.3813 12.7644 10.3813 12.8993C10.3813 13.0881 10.4622 13.232 10.6151 13.3309C10.6511 13.3039 10.6871 13.25 10.714 13.1511C10.741 13.0522 10.795 12.9982 10.8669 12.9892C10.8309 13.1331 10.786 13.277 10.741 13.4299C10.696 13.5827 10.6151 13.6816 10.5072 13.7446ZM15.0935 18.1151C14.9946 18.1151 14.9227 18.0881 14.8597 18.0252C14.7968 17.9622 14.7428 17.8813 14.6978 17.7734C14.6709 17.5575 14.6978 17.3507 14.7518 17.1529C14.8147 16.955 14.9137 16.7212 15.0576 16.4604C15.0216 16.6313 14.9946 16.7572 14.9676 16.8381C14.9047 17.027 14.8777 17.1709 14.8777 17.2698C14.8777 17.4406 14.9586 17.5665 15.1295 17.6655C15.2284 17.7014 15.3004 17.6655 15.3453 17.5576C15.3903 17.4496 15.4442 17.3957 15.4892 17.3957C15.4442 17.6565 15.3903 17.8363 15.3363 17.9173C15.2824 17.9982 15.2014 18.0701 15.0935 18.1151ZM3.96043 5.56116C3.91547 5.55216 3.84353 5.50719 3.76259 5.43524C3.68165 5.3633 3.60971 5.32733 3.56475 5.32733C3.51978 5.64208 3.47482 5.94783 3.43885 6.24459C3.3759 6.57732 3.28597 6.8741 3.16906 7.1259C3.09712 7.06295 2.98921 6.82913 2.85432 6.42446C2.71942 6.01978 2.4946 5.83992 2.19784 5.88488C2.11691 5.83992 2.07194 5.74099 2.07194 5.59711C2.07194 5.52516 2.08094 5.44423 2.10791 5.34531C2.15288 5.24639 2.19784 5.16546 2.23381 5.10251C2.26978 5.03956 2.31475 4.99461 2.3777 4.96763C2.63849 5.11151 2.84532 5.38129 2.98921 5.77697C3.06115 5.98381 3.13309 6.18164 3.20504 6.38848C3.23201 6.30754 3.26799 6.06476 3.31295 5.67807C3.35791 5.29138 3.46583 5.01258 3.61871 4.84171C3.78957 4.84171 3.93345 4.94064 4.06835 5.12949C4.09532 5.17446 4.09532 5.22841 4.06835 5.29135C4.05036 5.3543 4.01439 5.44425 3.95144 5.56116H3.96043ZM7.70144 20.9209C7.36871 20.9658 6.99101 20.9928 6.56835 20.9928C5.92986 20.9928 5.34532 20.9209 4.79676 20.786C4.2482 20.6511 3.73561 20.4263 3.24101 20.1115C2.70144 19.7608 2.34173 19.2572 2.16187 18.5827C2.05396 18.1601 2 17.5036 2 16.6043C2.11691 16.0917 2.24281 15.6421 2.3777 15.2734C2.51259 14.9047 2.70144 14.509 2.94424 14.0863C3.18705 13.6637 3.45683 13.3039 3.7536 12.9892C4.05036 12.6744 4.41007 12.3957 4.84173 12.1439H4.09532C3.83453 12.1439 3.57374 12.1439 3.31295 12.1259H2.72842C2.53957 12.1259 2.35072 12.1439 2.14388 12.1798C2.26079 11.6493 2.5036 11.1996 2.86331 10.813C2.98022 10.6781 3.77158 10.1385 5.23741 9.19423C5.83993 8.79855 6.27158 8.40288 6.55036 8.0072C6.64928 7.93526 6.86511 7.65647 7.21583 7.17985C7.45863 6.84712 7.70144 6.69424 7.95324 6.73021C8.01619 6.88309 8.07014 7.08093 8.13309 7.32374C8.19604 7.56654 8.22302 7.77339 8.22302 7.95325C8.22302 8.35792 8.10612 8.68165 7.86331 8.92446C7.82734 8.84352 7.77338 8.66366 7.69245 8.38488C7.61151 8.10611 7.53057 7.91727 7.43165 7.80936C6.92806 8.3759 6.3795 8.93344 5.77698 9.48201C5.10252 10.0935 4.48201 10.5791 3.90647 10.9388C4.36511 10.9388 4.82374 10.9388 5.30036 10.9478C5.77698 10.9478 6.2536 10.9478 6.73022 10.9478H7.08993C7.94424 10.9478 8.76259 10.9119 9.55396 10.8399L8.9964 11.955C8.16907 12.0719 7.51259 12.1888 7.03597 12.2968C6.30755 12.4676 5.66007 12.6745 5.09353 12.9263C4.44604 13.241 3.91547 13.6097 3.49281 14.0414C3.01619 14.545 2.69245 15.1385 2.53957 15.8219C2.5036 15.9389 2.47662 16.0737 2.46763 16.2176C2.45863 16.3615 2.44964 16.5144 2.44964 16.6853C2.44964 17.3327 2.60252 17.8813 2.91727 18.3399C3.44784 18.9155 4.10432 19.3291 4.89568 19.5809C5.57014 19.7968 6.36151 19.9047 7.28777 19.9047C7.81834 19.9047 8.42986 19.8687 9.14029 19.7968C10.795 19.6259 11.7752 19.545 12.0899 19.545C11.3795 19.8957 10.6691 20.1834 9.95863 20.4173C9.2482 20.6511 8.49281 20.8129 7.70144 20.9119V20.9209ZM5.11151 18.6367C5.25539 18.6637 5.3723 18.6727 5.45324 18.6727C6.13669 18.6727 6.64928 18.4298 7 17.9352C6.68525 18.0701 6.43345 18.1601 6.2446 18.214C6.05576 18.268 5.84892 18.295 5.63309 18.295C5.4982 18.295 5.40827 18.295 5.34532 18.277C5.05755 18.178 4.91367 18.0791 4.91367 17.9712C4.91367 17.8993 5.01259 17.7914 5.21942 17.6475C5.60612 17.3867 5.78597 17.1709 5.75899 17C5.68705 16.8921 5.57914 16.8291 5.44424 16.8111C5.30935 16.7932 5.17446 16.7752 5.05755 16.7662C4.94964 16.7932 4.8687 16.8471 4.82374 16.928C4.77878 17.009 4.74281 17.1169 4.71583 17.2338L4.94964 17.1439C5.02158 17.1529 5.10252 17.1709 5.18345 17.1888C5.26439 17.2068 5.31834 17.2428 5.34532 17.3058C5.16547 17.4047 5.0036 17.5396 4.85971 17.7194C4.71583 17.8993 4.63489 18.0881 4.6259 18.277C4.67086 18.3759 4.74281 18.4479 4.83273 18.4928C4.92266 18.5378 5.01259 18.5917 5.11151 18.6367ZM15.3633 13.1151C15.4083 13.232 15.4353 13.3489 15.4442 13.4658C15.4532 13.5827 15.4622 13.7266 15.4892 13.9065C15.3813 14.0144 15.2104 14.1043 14.9856 14.1763C14.8777 14.2122 14.7068 14.2662 14.464 14.3381C14.3651 14.3021 14.2572 14.2212 14.1403 14.0863C14.0773 14.0234 13.9964 13.9245 13.8885 13.7806C13.9514 13.5557 14.0594 13.3399 14.2212 13.1511C14.3831 12.9622 14.5719 12.8003 14.7878 12.6834C14.9317 12.6744 15.0486 12.7104 15.1475 12.8094C15.1835 12.8453 15.2554 12.9442 15.3633 13.1151Z" fill="white"/>
</svg>
