<svg width="24" height="24" viewBox="0 0 24 24" fill="none" xmlns="http://www.w3.org/2000/svg">
<path fill-rule="evenodd" clip-rule="evenodd" d="M21.9953 15.0597L21.7918 15.8784C21.7018 16.1813 21.593 16.4369 21.4605 16.6498C21.5125 16.4369 21.5551 16.1813 21.5835 15.8831C21.6119 15.585 21.6309 15.32 21.6309 15.0928C21.6309 14.6243 21.5835 14.028 21.4936 13.3086C21.2948 11.7468 21.2002 10.7625 21.2002 10.346C21.0204 9.35215 20.8358 8.36303 20.6559 7.36918C20.6796 7.23194 20.7222 7.09469 20.7932 6.95272C20.8594 6.81074 20.9446 6.66402 21.044 6.50312C21.3327 7.21301 21.6214 7.9229 21.9195 8.62806C21.8817 8.59966 21.787 8.47188 21.6356 8.25418C21.5741 8.169 21.5078 8.09327 21.4321 8.01755C21.5551 9.17704 21.6782 10.3744 21.806 11.6143C21.9337 12.8543 22 13.9996 22 15.0597H21.9953ZM19.6668 11.0512C19.6384 11.2026 19.61 11.3114 19.5864 11.3824C19.5343 11.5244 19.4633 11.6238 19.3687 11.6759C19.3071 11.6901 19.2456 11.6664 19.1746 11.6096C19.1084 11.5339 19.0611 11.4818 19.0374 11.4487C18.9901 11.3209 18.9711 11.2026 18.9711 11.0985C18.9711 10.9754 18.9948 10.8524 19.0374 10.7246C19.0469 10.6962 19.1415 10.4927 19.3213 10.1236C19.2598 10.3791 19.203 10.6394 19.151 10.895C19.151 10.9944 19.1652 11.0748 19.1983 11.1411C19.2267 11.2073 19.2835 11.2689 19.3687 11.3304C19.4539 11.354 19.5201 11.3067 19.5722 11.1931C19.6006 11.1174 19.6337 11.0701 19.6621 11.0559L19.6668 11.0512ZM15.9849 6.7918C15.9991 6.88172 15.9707 6.97165 15.8949 7.0521C15.8192 7.13729 15.734 7.18461 15.6346 7.19881C14.6408 7.60108 13.8978 7.9087 13.4009 8.1264C12.9039 8.3441 12.4733 8.55707 12.0994 8.77003C12.0994 8.61859 12.1609 8.49081 12.2792 8.38196C12.3407 8.3299 12.5821 8.20686 13.008 8.01755C14.0019 7.61055 14.991 7.19881 15.9849 6.7918ZM15.3507 9.45153C15.3507 9.57931 15.3223 9.70709 15.2702 9.82541C15.2182 9.94846 15.1377 10.0431 15.0336 10.1188C14.9484 10.133 14.8822 10.1141 14.8348 10.0573C14.7875 10.0005 14.7496 9.93426 14.726 9.85854C14.726 9.64557 14.7402 9.47046 14.7733 9.32848C14.8017 9.1865 14.8632 9.06346 14.9531 8.94988C14.9626 9.0256 14.9531 9.12498 14.9248 9.25276C14.8964 9.37581 14.8869 9.45626 14.8869 9.48466C14.8869 9.58404 14.9011 9.6503 14.9248 9.68816C14.9531 9.72602 14.9957 9.76388 15.0573 9.80174C15.1188 9.76388 15.1756 9.71183 15.2276 9.64084C15.2371 9.62664 15.275 9.56038 15.3507 9.4468V9.45153ZM20.4619 14.416C20.3483 14.2504 20.2111 14.1368 20.0454 14.0753C19.8845 14.0138 19.681 13.9854 19.4397 13.9854C19.2646 13.9854 19.0516 14.0043 18.7913 14.0422C18.654 14.0564 18.4742 14.0848 18.247 14.1226L17.1585 8.35357L17.2958 8.10274L17.7832 8.68012C17.7832 8.46715 17.7028 8.21159 17.5466 7.9087C17.3431 7.52063 17.2248 7.27926 17.1964 7.17988L17.1633 7.20354C17.1396 7.11836 17.0592 6.94798 16.9266 6.69242C16.8746 6.59304 16.8367 6.50785 16.8131 6.43213C16.6711 6.55518 16.5717 6.67349 16.5196 6.7918C16.4676 6.91012 16.4392 7.0379 16.4392 7.18461C16.4392 7.29819 16.477 7.51116 16.5575 7.81878C16.638 8.13114 16.6758 8.3725 16.6758 8.5476L17.7454 14.1794V14.416C17.4946 14.4918 17.0734 14.6195 16.4865 14.8041C15.5542 15.0786 14.7875 15.2111 14.1817 15.2111C13.7132 15.2111 13.2778 15.1354 12.8803 14.984C12.4827 14.8325 12.142 14.5911 11.8628 14.2551C11.6119 13.602 11.4226 12.788 11.2948 11.8131C11.257 11.5481 11.1718 10.6915 11.044 9.24803C10.9446 8.20212 10.8216 7.37392 10.6701 6.75868C10.6417 6.74921 10.6228 6.75868 10.6133 6.77761C10.6039 6.79654 10.5944 6.81547 10.5802 6.82967C10.3767 7.02844 10.2726 7.27453 10.2726 7.56795C10.2726 7.7052 10.3057 7.89923 10.3767 8.15953C10.514 8.67538 10.5802 9.01613 10.5802 9.18177C10.6559 9.59824 10.7269 10.3034 10.7885 11.302C10.8547 12.2958 10.9399 13.0578 11.044 13.5784C11.2049 14.364 11.4699 15.0218 11.8391 15.5424C12.1704 15.7459 12.5111 15.8879 12.8519 15.9683C13.1926 16.0488 13.576 16.0866 13.9972 16.0866C14.6313 16.0866 15.3128 15.9873 16.0416 15.7932C16.6096 15.6418 17.2248 15.4241 17.8921 15.1354C18.0057 15.3862 18.1193 15.6323 18.2328 15.8737C18.3985 16.205 18.6067 16.4416 18.8575 16.5788C18.9191 16.593 19.009 16.6214 19.132 16.6593C19.2551 16.6972 19.3497 16.7161 19.4255 16.7161C19.5296 16.7161 19.6337 16.6877 19.7331 16.6356C19.9839 16.3422 20.1732 16.0772 20.301 15.85C20.4808 15.5235 20.5755 15.2206 20.5755 14.9414C20.5755 14.7662 20.5424 14.5911 20.4714 14.4208L20.4619 14.416ZM13.363 11.302C13.3488 11.3304 13.3157 11.4014 13.2731 11.5055C13.2257 11.6096 13.1832 11.6901 13.1358 11.7421C13.2731 11.5007 13.3393 11.2168 13.3393 10.8902C13.3393 10.3839 13.1974 9.94845 12.9181 9.58404C12.9039 9.53672 12.9087 9.48466 12.9418 9.42314C12.9702 9.36161 13.0033 9.30009 13.0317 9.2433C13.1926 9.38527 13.3109 9.56985 13.3914 9.78755C13.4718 10.0052 13.5097 10.2419 13.5097 10.4927C13.5097 10.7861 13.4624 11.0559 13.363 11.2972V11.302ZM15.8145 11.6759L15.734 11.9598C15.7056 11.9693 15.6488 11.9598 15.5684 11.9362C15.4879 11.9125 15.4406 11.903 15.4264 11.903C15.3412 11.903 15.2892 11.9503 15.2655 12.0403C15.2276 12.3195 15.1992 12.5561 15.1756 12.7502C15.1519 12.9442 15.1093 13.1146 15.0525 13.266C14.9626 13.1903 14.8822 13.0341 14.8064 12.7928C14.7354 12.5561 14.6597 12.3857 14.584 12.2864C14.5461 12.3479 14.4941 12.3763 14.4231 12.3763C14.3758 12.3763 14.3237 12.3668 14.2622 12.3432C14.2149 12.2958 14.1959 12.2296 14.1959 12.1397C14.1959 12.0639 14.2054 11.9977 14.2196 11.9456C14.2338 11.8936 14.2527 11.832 14.2717 11.7705C14.2906 11.7043 14.3474 11.6759 14.4373 11.6759C14.4988 11.6759 14.5651 11.7137 14.6361 11.7942C14.7071 11.8746 14.7875 12.0308 14.8727 12.258C14.9579 12.4899 15.0194 12.6366 15.0478 12.6934C15.0951 12.4141 15.1283 12.2059 15.1519 12.0687C15.204 11.8178 15.3034 11.6427 15.4453 11.5481C15.5305 11.5244 15.6488 11.567 15.8097 11.6711L15.8145 11.6759ZM13.6895 13.2092C13.6753 13.3465 13.6422 13.4648 13.5949 13.5594C13.5476 13.6588 13.4766 13.7629 13.3867 13.8765C13.3109 13.9002 13.2541 13.8907 13.2115 13.8481C13.169 13.8055 13.1311 13.7393 13.0932 13.6494C13.0838 13.602 13.0838 13.531 13.0838 13.4317C13.0838 13.266 13.1027 13.1193 13.1406 12.9868C13.1784 12.859 13.2352 12.7312 13.3109 12.6129C13.2873 12.7928 13.2636 12.9773 13.2447 13.1572C13.2447 13.2424 13.2447 13.2991 13.2541 13.337C13.2636 13.3749 13.2873 13.4317 13.3346 13.5074C13.4103 13.531 13.4718 13.4979 13.5239 13.4175C13.5712 13.3323 13.6091 13.2755 13.6328 13.2376L13.699 13.2045L13.6895 13.2092ZM9.52011 8.29204C9.43493 8.46715 9.27402 8.62806 9.03266 8.7795C8.36063 9.21017 7.99621 9.45153 7.94416 9.50832C7.99148 9.28116 8.12399 9.08239 8.35116 8.91675C8.19025 8.86469 8.07194 8.81736 7.98675 8.77477C7.90156 8.73217 7.84004 8.68485 7.79271 8.63279C7.83057 8.46715 7.91103 8.31097 8.02934 8.15953C8.15239 8.01282 8.29437 7.88031 8.46001 7.76672C8.5452 7.75253 8.61145 7.75726 8.65878 7.78566C8.70611 7.81405 8.76763 7.85664 8.83389 7.91817C8.84335 7.97969 8.82442 8.04121 8.77709 8.09801C8.72977 8.15953 8.68718 8.21632 8.63985 8.26838C8.57833 8.19266 8.53573 8.14533 8.5026 8.13113C8.43635 8.08381 8.36063 8.07434 8.2849 8.09801C8.23284 8.1264 8.18552 8.16426 8.14766 8.21159C8.13819 8.22105 8.1098 8.27311 8.05774 8.3725C8.13346 8.43875 8.23284 8.49081 8.35116 8.51921C8.47421 8.5476 8.59252 8.56653 8.71557 8.56653H8.86228C8.938 8.55233 8.99006 8.54287 9.02319 8.54287C9.07525 8.49081 9.16044 8.44349 9.27402 8.40563C9.3876 8.36776 9.46805 8.3299 9.51065 8.29204H9.52011ZM8.38429 6.71135L5.39801 7.88031L5.20398 8.21159L7.8495 7.17988C7.97255 7.12782 8.0956 7.0663 8.22338 7.00004C8.35116 6.93378 8.40322 6.83913 8.38429 6.71608V6.71135ZM17.5372 16.1955C17.5608 16.2807 17.5466 16.3611 17.504 16.4463C17.4898 16.47 17.4378 16.5362 17.3431 16.6498C17.3053 16.6972 17.2579 16.7161 17.2059 16.7161C17.168 16.7161 17.0876 16.6877 16.9692 16.6262L16.8888 16.5694C16.5386 16.8723 16.0464 17.1184 15.4122 17.3077C15.1945 17.3739 14.8585 17.4638 14.4136 17.568C15.2371 17.1515 16.0653 16.7397 16.8888 16.328C16.8888 16.2381 16.9266 16.1482 17.0071 16.0677C17.0876 15.9825 17.1727 15.9352 17.2627 15.921C17.3384 15.8973 17.3952 15.921 17.4283 15.9873C17.4614 16.0535 17.4993 16.1245 17.5372 16.1908V16.1955ZM9.43966 9.47046C9.07052 9.6503 8.69664 9.83014 8.3275 10.0052C8.12873 10.0952 7.95835 10.204 7.81638 10.3365C7.6744 10.4643 7.56555 10.611 7.49929 10.7814C7.77851 10.5826 8.0814 10.4028 8.40322 10.2419C8.72504 10.081 9.04685 9.92006 9.36394 9.76862L9.44439 9.4752L9.43966 9.47046ZM4.60293 6.97165C4.58874 7.07576 4.54614 7.17988 4.47989 7.27926C4.3663 7.44017 4.25745 7.59162 4.1486 7.74306C3.91197 7.65787 3.76526 7.60582 3.70374 7.58215C3.58069 7.53483 3.43398 7.46383 3.25887 7.36445C3.15476 7.52536 3.0743 7.63894 3.02224 7.71467C2.91813 7.86611 2.80928 7.94183 2.70516 7.94183C2.65783 7.94183 2.6247 7.94183 2.60104 7.93236C2.4496 7.87084 2.33128 7.82825 2.25083 7.79512C2.08519 7.72886 2 7.65314 2 7.56795C2 7.53956 2.01893 7.49697 2.05679 7.44491L2.53478 6.84386L3.37719 7.19408L3.77473 6.59304C4.01136 6.67822 4.18647 6.74448 4.30951 6.7918C4.43256 6.83913 4.52721 6.90066 4.60293 6.96691V6.97165ZM8.35116 12.116C8.30383 12.2769 8.27544 12.3716 8.26124 12.4094C8.21391 12.5135 8.15239 12.5987 8.0672 12.6602C7.99148 12.6602 7.92049 12.6413 7.8495 12.5987C7.78325 12.5561 7.74539 12.4993 7.74539 12.4236C7.74539 12.0687 7.81637 11.7847 7.96309 11.5717C7.96309 11.6191 7.95362 11.6948 7.93469 11.8084C7.91576 11.922 7.90629 11.9929 7.90629 12.0261C7.90629 12.1397 7.94416 12.2343 8.01988 12.31C8.0814 12.3242 8.14292 12.3006 8.21391 12.2296C8.2849 12.1586 8.3275 12.1255 8.35116 12.116ZM9.36394 15.5708C9.56271 15.2774 9.65736 14.9366 9.65736 14.5485C9.65736 14.1983 9.58637 13.8576 9.44912 13.5216C9.30715 13.1856 9.13204 12.8827 8.91907 12.6176L8.78183 13.5358C8.79602 13.5878 8.90961 13.8292 9.12257 14.2646C9.18883 14.4018 9.24562 14.5391 9.28348 14.6858C9.04685 15.0171 8.70611 15.1875 8.26124 15.1875C8.12399 15.1733 7.99621 15.1212 7.87317 15.0407C7.75012 14.9556 7.63654 14.8467 7.53242 14.7095C7.4425 14.5202 7.07336 13.4033 6.42972 11.3588C6.18836 10.5779 5.90913 9.94372 5.58732 9.45153C5.41221 9.61244 5.32702 9.85853 5.32702 10.1898C5.32702 10.2277 5.32702 10.2797 5.33649 10.3507C5.61571 10.8808 5.83341 11.3256 5.98486 11.6806C6.18836 12.1633 6.3398 12.6318 6.43919 13.0767C6.28774 13.4411 6.04165 13.8008 5.7009 14.1557C5.40748 14.4586 5.06673 14.7331 4.67866 14.984C4.39943 15.1496 4.12021 15.3152 3.85045 15.4714C3.51917 15.6607 3.22575 15.7554 2.97492 15.7554C2.77615 15.7554 2.58684 15.7033 2.407 15.5945C2.26976 15.4052 2.2035 15.1969 2.2035 14.9698C2.33128 14.4681 2.4638 13.9712 2.60104 13.4695C2.62944 13.4695 2.67203 13.4695 2.72409 13.479C2.97492 13.479 3.22575 13.4033 3.47184 13.2518C3.63275 13.1524 3.83625 12.9915 4.08708 12.7644C4.23852 12.5845 4.34264 12.3432 4.3947 12.0497C4.42309 11.8746 4.44203 11.6096 4.44203 11.2547C4.38997 11.1269 4.30951 10.9896 4.19593 10.8476C4.08708 10.7057 3.96876 10.5826 3.85045 10.4832C4.01609 10.1804 4.18646 9.87747 4.36157 9.57458C4.54141 9.22437 4.63606 8.89782 4.63606 8.58546C4.56034 8.66119 4.37104 8.91675 4.06815 9.34741C3.84098 9.6645 3.61855 9.90586 3.39612 10.0762L2.90866 9.58878C2.98438 9.57931 3.04591 9.55091 3.09797 9.49412C3.14529 9.43733 3.19262 9.38054 3.23994 9.31902L2.44487 8.95461C2.33128 8.95461 2.2461 9.02086 2.18457 9.15811C2.12305 9.38527 2.06626 9.60771 2.0142 9.83014L2.81874 10.6489C2.6389 10.9991 2.50639 11.2925 2.4212 11.5339C2.29342 11.8983 2.22717 12.2296 2.22717 12.5325C2.22717 12.859 2.30762 13.1477 2.4638 13.408C2.36441 13.7771 2.26976 14.1463 2.17984 14.5107C2.06626 14.9556 2.00947 15.3247 2.00947 15.6134C2.00947 15.9257 2.06152 16.2097 2.17037 16.4747C2.36914 16.6546 2.59631 16.7492 2.85187 16.7492C3.25887 16.6356 3.65641 16.4889 4.04449 16.3043C4.46096 16.1008 4.83483 15.8689 5.17085 15.6134C5.54946 15.3105 5.84761 14.9934 6.07004 14.6574C6.32087 14.2883 6.47705 13.8907 6.54804 13.4742C6.69948 13.9759 6.85092 14.4728 7.00237 14.9745C7.21533 15.5519 7.55608 15.9399 8.02461 16.1434C8.06247 16.1529 8.12399 16.1529 8.20445 16.1529C8.70611 16.1529 9.08945 15.9589 9.36394 15.5755V15.5708ZM10.159 16.0583C10.0454 16.2002 9.89872 16.3327 9.71415 16.4463C9.56271 16.5362 9.36867 16.6262 9.12731 16.7208C8.89068 16.8107 8.70611 16.8817 8.57832 16.9243C8.33696 17.0142 8.15239 17.1042 8.01988 17.1846C7.99621 17.1231 8.01041 17.0568 8.05774 16.9858C8.10506 16.9149 8.13819 16.8675 8.15239 16.8439C8.81969 16.5788 9.48699 16.3185 10.1496 16.0583H10.159ZM5.18505 13.0388C5.13772 13.266 5.10459 13.408 5.08093 13.4695C5.0194 13.621 4.92475 13.7203 4.79697 13.7629C4.75911 13.7487 4.72125 13.7298 4.68339 13.7061C4.61713 13.6588 4.57927 13.5973 4.57927 13.5121C4.57927 13.3323 4.59347 13.1714 4.6266 13.0341C4.63606 12.9963 4.71652 12.7454 4.87743 12.2864C4.89162 12.3526 4.88689 12.4473 4.85376 12.5609C4.77804 12.8779 4.74018 13.053 4.74018 13.0814C4.74018 13.2329 4.80644 13.337 4.93422 13.3891C4.98628 13.3607 5.0336 13.2944 5.07146 13.1998C5.10932 13.1051 5.14718 13.0483 5.18505 13.0341V13.0388ZM20.0076 15.3342C20.017 15.3815 20.0407 15.4572 20.088 15.5708C20.088 15.6181 20.0502 15.6512 19.9744 15.6749C19.8987 15.7128 19.8041 15.7317 19.6905 15.7317C19.5769 15.7317 19.4775 15.7175 19.3876 15.6938C19.3024 15.6654 19.2362 15.6465 19.1888 15.6323C19.009 15.5045 18.8765 15.3957 18.7913 15.301C18.6635 15.1591 18.5973 15.0171 18.5973 14.8798C18.6635 14.8798 18.7345 14.8798 18.8055 14.8751C18.8765 14.8751 18.9522 14.8704 19.0279 14.8704C19.2693 14.8704 19.4728 14.9035 19.629 14.965C19.7899 15.0313 19.9129 15.1543 20.0028 15.3342H20.0076ZM17.2485 16.2428L17.2153 16.3564C17.2153 16.3564 17.1775 16.3185 17.1254 16.2901C17.1159 16.276 17.1112 16.2618 17.1018 16.2428H17.2485ZM4.00663 11.8699C3.67534 12.1207 3.44345 12.2769 3.3204 12.3337C3.19735 12.3952 3.05537 12.4236 2.90393 12.4236C2.81874 12.4236 2.73355 12.4141 2.64363 12.3905C2.60577 12.3242 2.58684 12.2485 2.58684 12.1633C2.58684 11.9882 2.70516 11.761 2.93706 11.4818C3.00331 11.3966 3.10743 11.2783 3.24468 11.1174C3.38192 11.2405 3.5239 11.3635 3.67534 11.4913C3.82679 11.6191 3.93564 11.7468 4.00663 11.8652V11.8699Z" fill="white"/>
</svg>
