<svg width="24" height="24" viewBox="0 0 24 24" fill="none" xmlns="http://www.w3.org/2000/svg">
<path fill-rule="evenodd" clip-rule="evenodd" d="M20.5325 7.40904C20.4425 7.53274 20.3188 7.6452 20.167 7.74641C20.0602 7.8195 19.914 7.8926 19.734 7.96007C19.5541 8.03317 19.3798 8.10063 19.2055 8.16248C19.0368 8.22433 18.8794 8.30305 18.7444 8.39302C18.8175 8.24683 18.9131 8.12874 19.0425 8.03316C19.1662 7.93757 19.3292 7.85323 19.526 7.76889C19.7622 7.69579 19.9308 7.6452 20.0377 7.60584C20.2288 7.54399 20.3863 7.47651 20.5212 7.40341L20.5325 7.40904ZM21.9606 7.51588C21.9606 7.51588 21.8932 7.39218 21.8032 7.21787C21.7189 7.04919 21.6401 6.92549 21.5671 6.8524C21.5671 7.28535 21.6008 7.77452 21.6739 8.32555C21.8538 9.70311 21.9438 10.5578 21.9438 10.8895C21.955 11.0694 21.9663 11.2381 21.9775 11.4012C21.9888 11.5642 22 11.7498 22 11.9691C22 12.5257 21.9494 13.0261 21.8538 13.476C21.7526 13.9202 21.5783 14.3587 21.3253 14.7917C21.4152 14.5105 21.4827 14.2406 21.5221 13.9707C21.5614 13.7009 21.5839 13.3972 21.5839 13.0655C21.5839 12.6775 21.5502 12.2108 21.4883 11.6598C21.3421 10.4003 21.2747 9.62439 21.2747 9.32639C21.1285 8.20185 20.9879 7.07167 20.8417 5.9415L21.2184 5.30615C21.2184 5.30615 21.3478 5.54793 21.5839 6.00899C21.8538 6.5319 21.9888 6.9536 21.9888 7.27971C21.9888 7.33594 21.9775 7.41465 21.9606 7.52149V7.51588ZM17.142 5.54793L17.0745 5.80657C16.2086 6.12144 15.3483 6.43631 14.4824 6.75118C13.5266 7.1279 12.7 7.53837 11.9972 7.97694C12.1434 7.62833 12.4695 7.34157 12.9812 7.12791C13.4141 6.94798 13.8302 6.77367 14.235 6.59937C14.6399 6.43069 15.1066 6.24514 15.6407 6.05397C16.1692 5.86279 16.6697 5.69412 17.1364 5.54793H17.142ZM16.9677 9.77057C16.9958 9.87178 16.9902 9.97301 16.9452 10.0855C16.9058 10.1979 16.844 10.2935 16.7653 10.3778C16.6191 10.3947 16.5235 10.3216 16.4672 10.1473C16.4672 9.8493 16.4729 9.63001 16.4897 9.4782C16.501 9.33201 16.5572 9.17458 16.6472 9.01152C16.6584 9.08462 16.6472 9.20268 16.6247 9.37137C16.6022 9.54005 16.5909 9.63564 16.5909 9.66376C16.5909 9.73685 16.5966 9.80993 16.6134 9.87741C16.6247 9.9505 16.6809 10.018 16.7709 10.0798C16.8159 10.0517 16.8552 10.0011 16.8833 9.91677C16.9171 9.83805 16.9452 9.78744 16.9733 9.77057H16.9677ZM15.7419 7.97694C15.6407 7.90385 15.5283 7.87573 15.3933 7.89822C15.2696 7.98818 15.1853 8.1681 15.1515 8.43799C15.1178 8.70788 15.0897 8.87095 15.0728 8.92155C14.966 8.7585 14.8592 8.59543 14.7636 8.42112C14.6399 8.22995 14.4993 8.08939 14.3475 7.98818C14.2575 7.95445 14.1957 7.96007 14.1676 8.01068C14.1338 8.06128 14.117 8.13999 14.1057 8.24682C14.1057 8.28056 14.1057 8.33679 14.0945 8.40989C14.0945 8.4886 14.1338 8.53358 14.2182 8.54483C14.415 8.54483 14.6005 8.66853 14.7692 8.92155C14.9772 9.23643 15.1066 9.41073 15.1628 9.45009L15.2415 8.51672C15.2303 8.48298 15.2303 8.438 15.2303 8.39302C15.2303 8.28619 15.2865 8.22995 15.3933 8.22995C15.4495 8.22995 15.5226 8.22997 15.6238 8.24121C15.7307 8.24121 15.7869 8.19622 15.7869 8.10625C15.7869 8.08939 15.7757 8.04441 15.7588 7.97131L15.7419 7.97694ZM20.6674 12.6719C20.5775 12.5201 20.465 12.4133 20.3357 12.357C20.2064 12.3008 20.0489 12.2671 19.869 12.2671C19.824 12.2671 19.5766 12.3008 19.1268 12.3627C19.0031 12.3795 18.8681 12.3908 18.722 12.3908C18.5701 11.3224 18.4183 10.2429 18.2778 9.16333C18.2778 8.99465 18.2553 8.75849 18.2103 8.46049C18.1203 7.86448 18.0753 7.48214 18.0753 7.30221C18.0753 7.1504 18.0866 6.99296 18.1147 6.8299C18.2328 6.93674 18.3171 7.0267 18.379 7.09417C18.4352 7.16164 18.4914 7.24599 18.5364 7.34157C18.5533 7.16165 18.5027 6.91986 18.3733 6.61061C18.0247 5.7672 17.8448 5.33426 17.8448 5.31739C17.7549 5.44109 17.6649 5.57603 17.5693 5.7166C17.4737 5.85717 17.4287 5.99774 17.4287 6.14393C17.4287 6.24514 17.4512 6.32948 17.4962 6.40257L18.2103 12.149L18.2215 12.5651C17.7717 12.8012 17.4062 12.9643 17.1307 13.0655C16.6922 13.2286 16.2929 13.3073 15.9443 13.3073C15.7307 13.3073 15.5114 13.2679 15.2977 13.1948C15.0841 13.1161 14.8873 13.0149 14.7186 12.88C15.2303 12.5313 15.7757 12.3514 16.3492 12.3514C16.4054 12.3514 16.4616 12.3514 16.5291 12.357C16.5966 12.357 16.6753 12.3683 16.7653 12.3795C16.8552 12.2558 16.9227 12.1209 16.962 11.9859C17.0014 11.851 17.0239 11.7048 17.0239 11.5417C16.0174 11.12 15.011 10.9064 13.9989 10.9064C13.476 10.9064 12.9812 10.9626 12.5145 11.0807C12.2446 11.1144 12.0422 11.2381 11.9128 11.4461C11.7835 11.6542 11.7161 11.9016 11.7161 12.1884C11.7723 12.2221 11.851 12.2052 11.9522 12.1321C12.0534 12.059 12.1321 12.0253 12.1884 12.0253C12.4133 11.9972 12.6494 12.0815 12.9024 12.2839C13.0655 12.402 13.2398 12.5819 13.431 12.8237C12.9924 13.1049 12.537 13.2398 12.0703 13.2398C11.9185 13.2398 11.7498 13.2173 11.5699 13.1723C11.345 13.0824 11.165 12.9305 11.0357 12.7225C10.9064 12.5088 10.822 12.2727 10.7883 12.0028C10.7883 10.6815 10.7546 9.50632 10.6927 8.48298C10.6309 7.45965 10.4903 6.49254 10.2766 5.58166C10.1698 5.67162 10.0855 5.80094 10.018 5.97524C9.98988 6.03709 9.95052 6.18329 9.89429 6.4082C10.0574 7.11666 10.1754 7.83637 10.2429 8.55608C10.316 9.27579 10.3497 9.99549 10.3497 10.7152C10.361 10.7883 10.3835 11.2662 10.4228 12.1546C10.4622 13.043 10.7152 13.6615 11.1707 14.0214C11.4068 14.1001 11.6317 14.1451 11.8566 14.1451C12.1153 14.1451 12.402 14.0944 12.7113 13.9876C13.0205 13.8864 13.4254 13.684 13.9202 13.386L14.5668 13.8977C14.7355 14.0045 14.9154 14.0832 15.0953 14.1338C15.2752 14.1844 15.4552 14.2069 15.6351 14.2069C15.9949 14.2069 16.456 14.0888 17.0239 13.8583C17.7605 13.5547 18.199 13.3804 18.334 13.3466C18.3902 13.5547 18.4464 13.7627 18.5083 13.9764C18.5701 14.19 18.6657 14.3587 18.7894 14.4937C18.9806 14.7017 19.2111 14.8029 19.4923 14.8029C19.5822 14.8029 19.6666 14.7917 19.7509 14.7635C20.0489 14.5386 20.2738 14.2688 20.4313 13.9483C20.5887 13.6278 20.6674 13.296 20.6674 12.9418C20.6674 12.8237 20.6674 12.7394 20.6562 12.6832L20.6674 12.6719ZM11.5699 7.55524C11.6598 7.28535 11.7048 6.99859 11.7048 6.68934C11.7048 6.47567 11.6823 6.2845 11.643 6.12706C11.6036 5.96963 11.5305 5.81218 11.4349 5.66037L11.5417 5.51419C11.7498 5.72785 11.851 6.02022 11.851 6.38008C11.851 6.6331 11.8116 6.88613 11.7273 7.1504C11.6992 7.22912 11.6486 7.36407 11.5642 7.55524H11.5699ZM12.7731 9.51193C12.7731 9.65812 12.7563 9.78183 12.7169 9.88303C12.6832 9.98424 12.6157 10.0686 12.5145 10.1304C12.3627 10.0855 12.2615 9.98425 12.2165 9.83243C12.2165 9.60752 12.2277 9.42759 12.2502 9.29827C12.2727 9.16894 12.3289 9.02839 12.4189 8.88782C12.4301 8.9328 12.4189 9.02838 12.3964 9.18019C12.3739 9.32639 12.3627 9.42759 12.3627 9.47257C12.3627 9.64125 12.4301 9.76496 12.5651 9.83806C12.5932 9.82119 12.6269 9.77059 12.6663 9.68062C12.7057 9.59628 12.7394 9.54005 12.7675 9.51193H12.7731ZM8.98341 6.63873C9.01715 6.8524 8.93281 7.0773 8.72477 7.30221C8.65167 7.31908 8.57858 7.24598 8.51111 7.08854C8.49424 6.99858 8.48299 6.93112 8.48299 6.88613C8.48299 6.72308 8.52235 6.53752 8.60669 6.3351C8.67979 6.18329 8.73039 6.07646 8.75288 6.00899C8.75288 6.07084 8.73039 6.18328 8.67979 6.34634C8.62918 6.5094 8.60669 6.62186 8.60669 6.68371C8.60669 6.8299 8.67416 6.93674 8.80911 7.00983C8.83722 6.99297 8.86534 6.93112 8.88783 6.83553C8.91594 6.73432 8.94405 6.67246 8.98341 6.64434V6.63873ZM6.98735 6.12706C6.98735 6.12706 6.91988 6.16079 6.85803 6.15517C6.8018 6.14393 6.74557 6.13831 6.68935 6.12706C6.6275 6.12706 6.57689 6.1608 6.54315 6.2339V6.51503C6.54315 6.69496 6.53753 6.85239 6.52066 6.98734C6.50942 7.12228 6.47568 7.24598 6.4307 7.35281C6.35761 7.29096 6.26764 7.1504 6.16081 6.93674C5.98088 6.58813 5.76722 6.43069 5.52544 6.46443C5.50857 6.4082 5.49733 6.36322 5.49733 6.31823C5.49733 6.24514 5.52544 6.14955 5.57605 6.02023C5.59292 5.97525 5.6379 5.95276 5.71099 5.95276C5.74473 5.95276 5.77847 5.96963 5.80658 6.00899C5.92466 6.1102 6.03711 6.24514 6.14394 6.42507C6.25077 6.60499 6.33511 6.73994 6.38572 6.8299C6.39696 6.63873 6.40821 6.44756 6.42508 6.25076C6.45881 6.02586 6.56565 5.87966 6.73433 5.80657C6.76244 5.82343 6.81305 5.85155 6.89739 5.87966C6.9761 5.9134 7.02109 5.95276 7.02109 6.00899C7.02109 6.03711 7.00984 6.07647 6.98173 6.13269L6.98735 6.12706ZM15.0166 15.129C14.7917 15.3539 14.5555 15.5339 14.3081 15.6688C14.0607 15.8038 13.7965 15.8712 13.5209 15.8712C13.4591 15.8712 13.3635 15.86 13.2398 15.8431C13.1217 15.7813 13.0655 15.6744 13.0655 15.5339C13.0655 15.4776 13.0768 15.4327 13.1049 15.3877L13.4141 14.9547C13.296 14.8816 13.2229 14.8029 13.1836 14.7129C13.2173 14.5949 13.2792 14.4937 13.3635 14.4093C13.4479 14.325 13.5547 14.2463 13.6784 14.1732C13.6896 14.1844 13.7177 14.2013 13.7683 14.235C13.8189 14.2687 13.8414 14.3025 13.8414 14.3362C13.8246 14.415 13.7571 14.488 13.639 14.5499C13.6278 14.5049 13.5772 14.4824 13.476 14.4824C13.4422 14.5386 13.4254 14.5724 13.4366 14.5892C13.4985 14.623 13.5659 14.6567 13.639 14.6848C13.7121 14.713 13.7796 14.7186 13.8414 14.7129C13.9145 14.6567 13.9764 14.6117 14.0214 14.5724C14.072 14.533 14.1226 14.5274 14.1788 14.5499C14.1451 14.6117 13.937 14.786 13.5603 15.0784C13.3972 15.1965 13.3073 15.3202 13.2904 15.4551C13.3523 15.5001 13.4197 15.5339 13.4928 15.562C13.5659 15.5901 13.6559 15.6013 13.7627 15.6013C13.9426 15.6013 14.1451 15.5451 14.37 15.4383C14.5949 15.3314 14.8085 15.2246 15.0166 15.129ZM3.66995 7.09978C3.57998 7.13352 3.49002 7.12228 3.39443 7.06605C3.29885 7.00982 3.25387 6.93111 3.25387 6.8299C3.22013 6.66684 3.19764 6.53752 3.19764 6.43631C3.19764 6.16642 3.26511 5.93027 3.40006 5.72223C3.38319 5.79532 3.36632 5.87967 3.34383 5.96963C3.32696 6.06521 3.31572 6.14956 3.31572 6.2339C3.31572 6.3576 3.33258 6.47005 3.3607 6.56564C3.39443 6.66122 3.45066 6.74556 3.52938 6.81304C3.61934 6.84115 3.68119 6.81304 3.70931 6.74557C3.74304 6.67247 3.77116 6.59937 3.79927 6.5319C3.81614 6.63311 3.81614 6.72306 3.79365 6.80178C3.77116 6.8805 3.72617 6.98171 3.66432 7.09978H3.66995ZM10.0124 15.129C9.96739 15.2527 9.92803 15.3764 9.88867 15.4945C9.82682 15.6407 9.74248 15.725 9.63003 15.7532C9.49508 15.6182 9.42761 15.4495 9.42761 15.2415C9.42761 15.0953 9.46697 14.9266 9.54006 14.7298C9.61878 14.533 9.67501 14.3925 9.70874 14.3137C9.70874 14.3925 9.68625 14.5218 9.64689 14.6961C9.60753 14.8704 9.58504 14.9885 9.58504 15.0391C9.58504 15.1403 9.59629 15.2134 9.61878 15.2696C9.64127 15.3258 9.68625 15.3764 9.75935 15.4327C9.79309 15.4214 9.83244 15.3764 9.86618 15.2865C9.89992 15.1965 9.9449 15.1459 10.0011 15.1403L10.0124 15.129ZM9.51195 11.0807C9.54006 11.0357 9.55131 10.9851 9.55131 10.9345C9.55131 10.8108 9.48383 10.6533 9.35451 10.4734C9.22519 10.2935 9.10149 10.1248 8.98341 9.96176L8.75288 10.3778C8.7079 10.524 8.68541 10.6983 8.68541 10.9064C8.68541 11.1931 8.76975 11.6148 8.94405 12.1602C9.02277 12.4189 9.09587 12.6663 9.15772 12.8912C8.38178 13.549 7.41468 14.1732 6.24515 14.7692C5.22182 15.2527 4.19286 15.7419 3.16953 16.2255L4.85634 15.8487C5.47484 15.7925 6.08209 15.6238 6.66685 15.3371C7.33034 15.011 8.19061 14.4149 9.24206 13.5434C9.36576 13.3972 9.4501 13.2623 9.48946 13.1273C9.52882 12.9924 9.55131 12.8237 9.55131 12.6157C9.55131 12.4526 9.49508 12.0871 9.38825 11.508C9.34327 11.2662 9.32078 11.0582 9.32078 10.8895C9.36576 10.9008 9.40512 10.9289 9.44448 10.9851C9.45572 11.0132 9.47821 11.0469 9.51195 11.0919V11.0807ZM10.0124 17.5187C9.42761 17.7773 8.85409 18.0022 8.29744 18.1934C7.62272 18.4183 6.98735 18.5645 6.39696 18.6376C6.13832 18.6713 5.84031 18.6938 5.50857 18.6938C4.98566 18.6938 4.49649 18.6264 4.03542 18.4914C3.57436 18.3565 3.15266 18.1428 2.76469 17.8448C2.4948 17.6368 2.298 17.3894 2.17993 17.097C2.05623 16.8046 2 16.4785 2 16.1186C2 16.0287 2 15.9499 2.00562 15.8769C2.00562 15.8038 2.01687 15.7419 2.02811 15.6857C2.12932 14.9097 2.33736 14.2125 2.66348 13.5828C2.9896 12.953 3.42817 12.3627 3.98482 11.8172C3.89486 11.7104 3.56874 11.5136 3.01209 11.2212C2.59601 11.0132 2.39359 10.7152 2.39359 10.3328C2.45544 10.0742 2.52291 9.80432 2.59601 9.53443C2.69722 9.23642 2.85465 9.02276 3.07956 8.88782C3.46753 8.79786 3.8555 8.73038 4.24909 8.69102C4.64268 8.65166 5.07563 8.62916 5.55356 8.62916C6.11021 8.62916 6.6275 8.65166 7.10543 8.69102C7.58336 8.73038 8.10627 8.80347 8.68541 8.89906C8.68541 9.18019 8.59545 9.43884 8.41552 9.675C8.23559 9.91115 8.01068 10.0967 7.74079 10.2204L5.99775 11.1369C5.69975 11.3 5.40174 11.4743 5.09812 11.6654C4.79449 11.8566 4.51335 12.0534 4.24346 12.2614C3.97357 12.4864 3.72055 12.7225 3.49002 12.9699C3.25387 13.2173 3.05707 13.4703 2.89401 13.7346C2.70284 14.0326 2.56227 14.3362 2.46669 14.6511C2.3711 14.966 2.32612 15.3089 2.32612 15.6744C2.32612 16.1242 2.51729 16.5291 2.90526 16.8889C3.20888 17.1757 3.60247 17.4062 4.08041 17.5749C4.33343 17.6536 4.63143 17.7155 4.98566 17.7548C5.33427 17.7942 5.67726 17.8167 6.009 17.8167C6.15519 17.8167 6.30138 17.8167 6.45319 17.8111C6.605 17.8111 6.75682 17.8054 6.91425 17.8054H7.0492C7.39218 17.8054 8.02193 17.7436 8.93843 17.6143C9.39949 17.5524 9.75935 17.5187 10.018 17.5187H10.0124ZM5.90779 13.7683C5.87405 13.8414 5.80658 13.9314 5.71099 14.0438C5.61541 14.1563 5.55356 14.2463 5.5142 14.3081C5.35114 14.2181 5.23306 14.1507 5.16559 14.1057C5.03064 14.027 4.92944 13.937 4.86759 13.847C5.00253 13.5659 5.17684 13.3241 5.39612 13.1161C5.54793 13.2061 5.66039 13.2792 5.73348 13.3298C5.87967 13.4366 5.94715 13.5434 5.94715 13.639C5.94715 13.6727 5.9359 13.7177 5.90779 13.7627V13.7683ZM20.2682 13.4984C20.2963 13.5547 20.3076 13.594 20.3076 13.6221C20.3076 13.684 20.2738 13.729 20.212 13.7571C20.1108 13.8639 19.9871 13.9201 19.8353 13.9201C19.7903 13.9201 19.7284 13.9089 19.6553 13.892C19.5766 13.8752 19.5091 13.8583 19.4473 13.8527C19.1662 13.7065 18.9918 13.4816 18.9188 13.178C18.9918 13.1611 19.0818 13.1442 19.1886 13.1217C19.2955 13.1049 19.3911 13.0936 19.4698 13.0936C19.6385 13.0936 19.8015 13.1273 19.9477 13.1892C20.0939 13.251 20.2007 13.3579 20.2626 13.4984H20.2682ZM14.9772 11.9185C14.8985 11.9466 14.7973 11.9972 14.6792 12.0815C14.4543 12.2446 14.3081 12.3233 14.235 12.3233C14.1338 12.3233 14.0607 12.2783 14.0045 12.1884C13.9933 12.1771 13.9426 12.1209 13.8414 12.014C13.7796 11.9522 13.7402 11.8847 13.7177 11.8116C13.9426 11.8116 14.1563 11.8229 14.3587 11.8397C14.5611 11.8566 14.7636 11.8847 14.9716 11.9185H14.9772ZM7.47653 9.62439C6.48693 10.1361 5.46359 10.7377 4.41215 11.418C4.32218 11.1313 4.10852 10.867 3.77678 10.6196C3.47877 10.4397 3.18639 10.2598 2.89963 10.0798C2.97273 9.7987 3.20888 9.64126 3.6081 9.6019C4.00731 9.56254 4.23784 9.53442 4.30531 9.51193C5.02502 9.51193 5.62103 9.51756 6.09896 9.53443C6.57689 9.54567 7.03233 9.57941 7.47653 9.62439Z" fill="white"/>
</svg>
