<svg width="24" height="24" viewBox="0 0 24 24" fill="none" xmlns="http://www.w3.org/2000/svg">
<path fill-rule="evenodd" clip-rule="evenodd" d="M18.1163 6.6848C18.0536 6.65059 17.9852 6.62777 17.911 6.62777C17.7913 6.62777 17.6715 6.70761 17.5575 6.87299C17.2267 7.32922 17.0442 7.56874 16.9986 7.59725C16.7248 7.82537 16.4397 8.05348 16.1374 8.2759C15.8352 8.49831 15.5557 8.6751 15.2877 8.80057C15.7097 8.45269 16.1317 8.10481 16.5595 7.74553C17.0499 7.30641 17.4206 6.8958 17.6658 6.51371C17.6316 6.47949 17.5232 6.40536 17.3464 6.3027C17.1697 6.20005 17.0613 6.086 17.0271 5.96624C17.0613 5.76663 17.1297 5.58984 17.2324 5.44156C17.335 5.29329 17.4719 5.19064 17.643 5.14502C17.7457 5.14502 17.8255 5.17924 17.8825 5.25338C17.9395 5.32751 17.9909 5.42446 18.0251 5.53852C18.008 5.59555 17.9966 5.66397 17.9966 5.74381C17.9966 5.85217 18.0365 5.97194 18.122 6.09741C18.2019 6.22287 18.2475 6.31982 18.2475 6.38255C18.2475 6.46239 18.2076 6.55934 18.122 6.6677L18.1163 6.6848ZM14.706 6.35403C14.7345 6.41106 14.7459 6.46239 14.7459 6.51942C14.7459 6.59926 14.7174 6.6905 14.6661 6.78174C14.6091 6.87299 14.5577 6.95853 14.5007 7.04407C14.4266 7.06118 14.3524 7.07829 14.284 7.1011C14.2555 7.1011 14.2213 7.08969 14.1756 7.06118C14.0502 6.9072 13.9818 6.73043 13.9818 6.54223C13.9818 6.35404 14.0388 6.13162 14.1585 5.85788C14.3524 5.43016 14.4437 5.20775 14.4437 5.20205C14.4551 5.23057 14.4551 5.27618 14.4551 5.33892C14.4551 5.44727 14.4323 5.56703 14.3867 5.69249C14.2669 6.02896 14.2099 6.22856 14.2099 6.297C14.2099 6.44527 14.2726 6.57644 14.4038 6.6962L14.706 6.36544V6.35403ZM12.8298 5.7096C12.8013 5.85787 12.7841 5.93773 12.7727 5.95484C12.7385 6.05749 12.6758 6.08599 12.596 6.05178C12.5617 6.00615 12.5104 5.97194 12.4477 5.94913C12.3849 5.92632 12.2994 5.9035 12.1853 5.88639C12.077 6.02326 12.0086 6.22286 11.98 6.49089C11.9173 7.03837 11.8261 7.36914 11.7063 7.4775L10.9535 6.21716C10.9364 6.31982 10.8851 6.36544 10.8052 6.36544C10.7881 6.36544 10.7482 6.35403 10.6969 6.33692C10.6399 6.31981 10.5942 6.3027 10.5486 6.27989C10.503 6.18864 10.4802 6.09741 10.4802 6.00616C10.4802 5.82367 10.5372 5.65257 10.6456 5.4986C10.9022 5.56133 11.1189 5.74381 11.3014 6.04607C11.4497 6.3084 11.5922 6.57075 11.7405 6.82738C11.7861 6.58786 11.8375 6.34832 11.8888 6.1031C11.9629 5.84077 12.0713 5.63547 12.2196 5.4872C12.2538 5.47579 12.3051 5.47578 12.3678 5.47578C12.5218 5.47578 12.6758 5.55562 12.8355 5.7096H12.8298ZM8.78072 6.51942C8.79783 6.58215 8.78072 6.6848 8.72369 6.82167C8.66667 6.95854 8.63815 7.03838 8.62675 7.05549C8.59253 7.084 8.54691 7.11822 8.49558 7.15814C8.44425 7.19806 8.39293 7.22088 8.3359 7.22088C8.29028 7.22088 8.25606 7.20946 8.22755 7.19235C8.09068 7.05548 8.02224 6.86728 8.02224 6.63346C8.02224 6.57643 8.03365 6.4966 8.05076 6.38824L8.35301 5.77234C8.35301 5.84648 8.3416 5.92062 8.32449 5.98905C8.26176 6.24568 8.22755 6.39394 8.22755 6.43957C8.22755 6.58784 8.28457 6.70762 8.39293 6.81027C8.48417 6.82738 8.55831 6.80456 8.60964 6.73613C8.66667 6.66769 8.71799 6.59926 8.77502 6.52512L8.78072 6.51942ZM12.0257 10.4088C12.0257 10.5799 12.0086 10.7338 11.9686 10.8593C11.9344 10.9848 11.866 11.0988 11.7747 11.1901C11.6379 11.2357 11.5238 11.2186 11.4383 11.1444C11.3527 11.0646 11.29 10.9677 11.2558 10.8479C11.2216 10.7281 11.1987 10.6141 11.1987 10.5057C11.1987 10.3232 11.233 10.1293 11.3071 9.91833C11.3185 9.90122 11.3926 9.72443 11.5409 9.38226C11.4782 9.55334 11.4383 9.69592 11.4155 9.79857C11.3983 9.90122 11.3869 10.0153 11.3869 10.135C11.3869 10.2719 11.404 10.3917 11.4326 10.4886C11.4668 10.5913 11.5238 10.6825 11.6037 10.7738C11.712 10.8194 11.7975 10.7966 11.8489 10.6996C11.9059 10.6027 11.9572 10.5057 12.0143 10.4031L12.0257 10.4088ZM21.9886 11.9029C21.8631 11.3441 21.4582 10.808 20.7853 10.289C19.8158 9.53053 19.2854 9.09711 19.1828 8.98875C19.2854 8.93173 19.3881 8.8747 19.4964 8.81197C19.3767 8.6751 19.2113 8.54394 18.9946 8.41278C18.7779 8.28731 18.487 8.15044 18.1106 8.00217L17.8255 8.83478C17.797 8.88041 17.7856 8.92033 17.7856 8.96025C17.7856 9.02298 17.8369 9.10282 17.9338 9.19407C18.1449 9.37656 18.2532 9.50201 18.2646 9.57615C17.7057 9.83848 17.2723 10.2377 16.953 10.7738C16.6336 11.3098 16.4739 11.8744 16.4739 12.4789C16.4397 12.7184 16.2344 12.8781 15.8694 12.958C15.6698 13.0036 15.3676 13.0606 14.9683 13.1233C14.86 12.7241 14.6262 12.3763 14.2783 12.0911C13.9247 11.806 13.5426 11.6235 13.1206 11.5494C12.6929 11.6292 12.3621 11.9029 12.134 12.3592C11.9857 12.6443 11.8717 13.0606 11.7804 13.6195C11.9173 13.9217 12.134 14.1271 12.4249 14.2354C12.6359 14.3153 12.9381 14.3609 13.343 14.3609C13.3544 14.3609 13.5027 14.3552 13.7993 14.3381C14.0958 14.3267 14.3296 14.3152 14.5064 14.3152C14.4323 14.5148 14.2669 14.7316 14.016 14.9597C13.6966 15.2448 13.5027 15.4273 13.44 15.5072C12.5446 16.2086 11.8375 16.7048 11.3185 16.9842C10.4859 17.429 9.68748 17.6571 8.9233 17.6571C8.81494 17.6571 8.7237 17.6571 8.64956 17.6514C8.57542 17.6514 8.50128 17.64 8.41574 17.6286C8.12489 17.5203 7.90248 17.3207 7.7428 17.0412C7.58882 16.7561 7.50898 16.4538 7.50898 16.1231C7.50898 16.0774 7.50898 16.0147 7.49758 15.9292C7.49758 15.4387 7.76561 15.011 8.30738 14.6574C9.48218 13.8932 10.0924 13.283 10.1266 12.8382C10.1551 12.6728 10.1665 12.5246 10.1665 12.3877C10.1665 11.6919 9.69889 11.0988 8.76932 10.597C7.5546 9.94114 6.84175 9.4735 6.61933 9.19976C6.61933 9.0914 6.63644 9.01727 6.66496 8.98875C6.69917 8.95454 6.79042 8.94314 6.9444 8.94314C7.11548 8.94314 7.22384 8.88611 7.25806 8.77775C6.88166 8.64088 6.66496 8.56105 6.60222 8.53253C6.3627 8.42988 6.1517 8.31582 5.9578 8.19036C5.82093 8.21887 5.72398 8.29871 5.67265 8.43558C5.61563 8.6808 5.57 8.92603 5.52438 9.15985C5.81523 9.6446 6.23724 10.1065 6.78472 10.557C7.13259 10.8422 7.65155 11.2015 8.35301 11.6463C9.04876 12.0911 9.54491 12.4333 9.83576 12.6785C9.35101 13.1005 8.77502 13.494 8.09638 13.8704C7.58312 14.1556 6.9444 14.4692 6.18021 14.8171C5.13088 15.2904 4.49216 15.587 4.26404 15.7067C4.08155 15.7695 3.88765 15.8322 3.67665 15.9006C3.46564 15.9634 3.27745 15.9976 3.11776 15.9976C2.9923 15.9976 2.86684 15.9748 2.75278 15.9235C2.63872 15.8721 2.54177 15.7923 2.45623 15.6839C2.42772 15.5471 2.41631 15.4216 2.41631 15.3018C2.41631 14.954 2.51896 14.5377 2.72997 14.0586C3.03222 13.3572 3.1976 12.9637 3.22042 12.8838C2.76419 13.6252 2.49615 14.0814 2.41061 14.2525C2.13687 14.8114 2 15.3304 2 15.8151C2 15.9805 2.01141 16.1459 2.03992 16.3056C2.11406 16.4995 2.21101 16.6591 2.32506 16.796C2.44482 16.9329 2.5874 17.0241 2.76419 17.0697C3.43713 17.007 4.25834 16.739 5.21642 16.2599C6.52238 15.6098 7.28087 15.2448 7.50328 15.165C7.38352 15.4672 7.28657 15.7752 7.21813 16.0946C7.144 16.4139 7.10978 16.7162 7.10978 16.9956C7.10978 17.2522 7.144 17.4974 7.20673 17.737C7.26946 17.9765 7.37211 18.1818 7.50898 18.3643C7.69147 18.5354 7.89107 18.6608 8.11349 18.7407C8.3302 18.8205 8.56972 18.8547 8.82635 18.8547C9.08298 18.8547 9.3339 18.8148 9.57913 18.7293C10.7767 18.2731 11.8375 17.6857 12.767 16.9614C13.8506 16.1117 14.6262 15.1707 15.0824 14.1271C15.4474 14.0529 15.8295 13.9446 16.2344 13.7906C16.6336 13.6423 17.0271 13.494 17.4092 13.3458C17.7571 13.3458 18.2475 13.4655 18.8862 13.6993C19.525 13.9389 19.9983 14.0529 20.3119 14.0529C20.4374 14.0529 20.5857 14.0358 20.7568 13.9959C20.9279 13.9617 21.0761 13.9046 21.2016 13.8305C21.5096 13.6765 21.7149 13.3857 21.8061 12.9694C21.8517 12.7413 21.9145 12.3877 22 11.9029H21.9886ZM4.61762 5.82366L4.52067 6.26278C4.42943 6.09169 4.30396 6.04607 4.13858 6.13732C4.01882 6.25708 3.89906 6.58215 3.785 7.10681C3.72797 7.36914 3.64243 7.55735 3.52267 7.6657C3.45994 7.57445 3.37439 7.40335 3.27745 7.15243C3.17479 6.9015 3.07214 6.71902 2.96379 6.61066C2.95238 6.6905 2.92957 6.73613 2.88395 6.73613C2.84973 6.73613 2.78129 6.69621 2.67864 6.61066C2.62161 6.56504 2.58169 6.54223 2.55318 6.54223C2.47334 6.4852 2.42772 6.41106 2.42772 6.30841C2.42772 6.24568 2.45053 6.15443 2.49045 6.04038C2.53037 5.92632 2.55318 5.85218 2.55318 5.81226C2.57029 5.77805 2.61021 5.76093 2.66153 5.77234C2.71856 5.78375 2.76419 5.79516 2.80981 5.81226C2.94668 5.93773 3.06644 6.09169 3.16339 6.26278C3.30026 6.54792 3.43713 6.82738 3.57399 7.11252C3.68235 6.75894 3.76789 6.4852 3.81922 6.2913C3.93898 5.91491 4.10436 5.73242 4.30967 5.73242C4.41232 5.73242 4.50927 5.76094 4.61192 5.81226L4.61762 5.82366ZM4.16709 8.32722C4.16709 8.6808 3.91617 8.98306 3.41431 9.22828C2.96949 9.44499 2.73567 9.55905 2.71856 9.57046C2.7927 9.445 2.91816 9.32524 3.10066 9.21688C3.60251 8.89752 3.86484 8.72643 3.88195 8.70932C3.71657 8.6637 3.55689 8.64089 3.40291 8.64089C3.14628 8.64089 2.95238 8.70362 2.81551 8.83478C2.84403 8.62378 2.92957 8.4755 3.08355 8.38425C3.23182 8.29301 3.42572 8.24739 3.65384 8.24739C3.72797 8.24739 3.81922 8.25879 3.92757 8.2759C4.03593 8.293 4.12147 8.31012 4.1728 8.33293L4.16709 8.32722ZM5.78101 12.7641C5.73539 13.1005 5.70117 13.3001 5.68406 13.3572C5.66695 13.4142 5.60992 13.4997 5.51868 13.6081C5.39892 13.6252 5.30197 13.5967 5.21642 13.5168C5.13658 13.437 5.06815 13.3401 5.02253 13.2203C5.01112 13.1633 5.01112 13.0777 5.01112 12.958C5.01112 12.5759 5.11377 12.2052 5.32478 11.8516C5.29056 11.9714 5.25634 12.1025 5.22213 12.2394C5.18791 12.382 5.1765 12.5074 5.1765 12.6158C5.1765 12.8439 5.24494 13.0264 5.38181 13.1633C5.50157 13.1918 5.58141 13.1348 5.62133 12.9922C5.66125 12.8496 5.71258 12.7698 5.78101 12.7527V12.7641ZM17.7571 5.97764C17.6943 5.79514 17.6487 5.6925 17.6202 5.66398C17.5632 5.60125 17.4947 5.58414 17.4035 5.60695C17.3579 5.60695 17.335 5.63547 17.335 5.6868C17.335 5.74953 17.3579 5.78945 17.4035 5.81226C17.4833 5.875 17.5575 5.92632 17.6145 5.95484C17.6715 5.98905 17.7228 5.99474 17.7571 5.97764ZM21.5096 12.6044C21.3727 12.707 21.2244 12.7812 21.059 12.8325C20.8936 12.8838 20.7283 12.9066 20.5515 12.9066C20.3348 12.9066 20.0838 12.8724 19.8101 12.7983C19.5364 12.7242 19.274 12.6443 19.0174 12.5531C19.0744 12.3706 19.1657 12.074 19.2911 11.6634C19.3938 11.287 19.4394 10.962 19.4394 10.6768C19.7303 10.8935 20.0211 11.1102 20.3176 11.3212C20.9222 11.7889 21.3157 12.2166 21.5096 12.6101V12.6044ZM18.9775 11.7033C18.7494 11.8288 18.5441 11.9371 18.3559 12.017C18.1677 12.0968 17.9681 12.1767 17.7628 12.2508C17.5689 12.1938 17.3978 12.1253 17.2495 12.0341C17.1012 11.9428 16.9758 11.8288 16.8845 11.6919C17.0043 11.4638 17.1697 11.2528 17.3864 11.0532C17.6031 10.8593 17.8141 10.7338 18.0251 10.6768C18.162 10.6483 18.2817 10.6597 18.3787 10.7053C18.4813 10.751 18.5897 10.8308 18.7094 10.9391C18.8007 11.0589 18.8634 11.1787 18.9033 11.3098C18.9147 11.3269 18.9376 11.4581 18.9832 11.709L18.9775 11.7033ZM13.9019 13.2374H13.5997C13.2917 13.2374 13.0522 13.2146 12.8868 13.169C12.6302 13.0948 12.4534 12.9637 12.3507 12.7698C12.4762 12.6785 12.6131 12.6329 12.7613 12.6329C12.8868 12.6329 13.0237 12.6671 13.1719 12.7413C13.4115 12.9066 13.651 13.072 13.8962 13.2317L13.9019 13.2374Z" fill="white"/>
</svg>
