<svg width="24" height="24" viewBox="0 0 24 24" fill="none" xmlns="http://www.w3.org/2000/svg">
<path fill-rule="evenodd" clip-rule="evenodd" d="M22 14.2695C22 14.6983 21.9571 15.1271 21.8652 15.5498C21.7795 15.9724 21.6508 16.3828 21.4855 16.7871C21.5467 16.3583 21.5712 15.9357 21.5712 15.5253C21.5712 15.2496 21.559 14.9495 21.5283 14.6187C21.4977 14.2879 21.461 13.9632 21.4119 13.6386L20.487 6.87595C20.5054 6.77794 20.5176 6.70443 20.5176 6.65543C20.5176 6.53904 20.5054 6.42266 20.4747 6.30015C20.389 5.95711 20.34 5.76722 20.34 5.72434C20.34 5.57733 20.3828 5.44256 20.4747 5.32618C20.5237 5.19754 20.585 5.07503 20.6524 4.95864C20.7198 4.84226 20.7994 4.75037 20.8851 4.69524C20.9464 4.90964 21.124 5.36906 21.4303 6.07962C21.6876 6.66768 21.8101 7.11485 21.8101 7.415C21.8101 7.54976 21.7979 7.6539 21.7795 7.72128C21.7305 7.66002 21.6692 7.56201 21.6018 7.42725C21.5345 7.29249 21.4671 7.18223 21.4119 7.10259L21.1608 7.47013L22 14.2634V14.2695ZM16.9403 4.89126C16.9587 4.98927 16.928 5.09341 16.8423 5.19754C16.7565 5.3078 16.6646 5.38131 16.5544 5.43031C16.0031 5.63858 15.464 5.84073 14.925 6.049C14.3185 6.29402 13.7979 6.55129 13.3691 6.81469C13.4671 6.44103 13.7672 6.15926 14.2634 5.96324C14.6861 5.80397 15.1087 5.64471 15.5436 5.47932C15.9357 5.34455 16.2297 5.2343 16.4257 5.15466C16.6217 5.07503 16.7933 4.98927 16.9403 4.89126ZM16.928 9.87748C16.9464 9.91423 16.9587 9.98161 16.9587 10.0674C16.9587 10.1531 16.9403 10.2389 16.9096 10.3246C16.8729 10.4104 16.8239 10.5023 16.7565 10.6125C16.6401 10.6799 16.5482 10.7167 16.4931 10.7167C16.4441 10.7167 16.3951 10.6922 16.3461 10.6432C16.2971 10.5574 16.2603 10.4594 16.242 10.3492C16.2236 10.2389 16.2113 10.1348 16.2113 10.0245C16.2113 9.84073 16.2481 9.62021 16.3155 9.37518C16.3338 9.28943 16.4012 9.08116 16.5237 8.7565C16.536 8.78713 16.536 8.84226 16.536 8.91577C16.536 9.01378 16.5176 9.16079 16.4747 9.35681C16.438 9.55282 16.4135 9.69984 16.4135 9.79785C16.4135 10.0245 16.4992 10.1776 16.6769 10.2695C16.7075 10.2328 16.7443 10.1593 16.7871 10.0612C16.83 9.96324 16.879 9.90198 16.928 9.87135V9.87748ZM12.6217 4.64624C12.6401 4.7075 12.6217 4.77488 12.5605 4.85451C12.4992 4.93414 12.4441 5.00765 12.3828 5.07503C10.8453 5.74272 9.30781 6.40428 7.78254 7.05972C7.77029 6.97396 7.80092 6.87595 7.86217 6.77794C7.92343 6.67993 7.99081 6.58192 8.05819 6.48391C8.51761 6.22664 9.08116 5.98161 9.74885 5.73659C11.5253 5.0689 12.4809 4.7075 12.6156 4.64624H12.6217ZM15.3415 9.09953C15.3599 9.19754 15.3721 9.25267 15.3721 9.2588C15.3721 9.35681 15.2741 9.42419 15.0781 9.45481C14.8821 9.49157 14.7718 9.5712 14.7412 9.69984C14.7106 9.76722 14.6922 9.84685 14.6799 9.93261C14.6677 10.0184 14.6677 10.1225 14.6677 10.2389V10.6371C14.6677 10.7841 14.6616 10.8943 14.6432 10.9678C14.6309 11.0413 14.5942 11.121 14.5329 11.2129C14.2879 10.8392 14.0429 10.4655 13.7979 10.0796C13.7856 10.1654 13.7489 10.2144 13.6815 10.2144C13.5345 10.1531 13.4364 10.1164 13.3874 10.098C13.3568 10.0367 13.3446 9.96324 13.3446 9.87748C13.3446 9.69984 13.4058 9.52832 13.5345 9.36293C13.7427 9.43031 13.9265 9.58345 14.0919 9.81622C14.1715 9.92648 14.294 10.147 14.4594 10.4778C14.5391 10.098 14.6003 9.80397 14.6493 9.60795C14.7351 9.24655 14.9005 9.06278 15.1332 9.06278C15.219 9.06278 15.2925 9.07503 15.3415 9.09341V9.09953ZM12.4441 7.36599L11.5498 6.77794L10.9495 7.54364C10.8392 7.52526 10.6799 7.45175 10.4655 7.32924C10.2511 7.20673 10.0796 7.13322 9.951 7.11485C9.83461 7.28024 9.71822 7.45175 9.59571 7.62327C9.47933 7.79479 9.40582 7.95405 9.37519 8.10106C9.52221 8.18682 9.67534 8.2787 9.84074 8.37059C10 8.46247 10.1593 8.52985 10.3185 8.56661C10.3798 8.49922 10.4655 8.37059 10.5819 8.17457C10.6983 7.98468 10.8025 7.84379 10.8882 7.75803L11.856 8.37671C12.1317 8.05206 12.3277 7.71515 12.4441 7.35987V7.36599ZM14.294 13.3936C14.2573 13.657 14.2328 13.804 14.2205 13.8346C14.1715 13.9816 14.0735 14.0857 13.9265 14.1409C13.8101 14.1409 13.706 14.098 13.6263 14.0184C13.5406 13.9326 13.5038 13.8407 13.5038 13.7305C13.4855 13.5467 13.4916 13.3997 13.5161 13.2956C13.5467 13.1914 13.6508 12.928 13.8407 12.4931C13.853 12.5727 13.8407 12.6707 13.8101 12.7871C13.7121 13.1179 13.6631 13.3017 13.6631 13.3323C13.6631 13.4916 13.7305 13.6141 13.8714 13.6998C13.9816 13.7366 14.0674 13.6998 14.1348 13.5835C14.2021 13.4671 14.2573 13.3997 14.294 13.3936ZM7.72129 8.33384C7.73966 8.41347 7.75191 8.47472 7.75191 8.52373C7.75191 8.65849 7.70903 8.8055 7.61715 8.96477C7.58652 9.01377 7.53139 9.03828 7.43951 9.03828H7.26187C7.15161 8.87289 7.1026 8.68912 7.1026 8.4931C7.1026 8.32771 7.13936 8.13782 7.20674 7.93567C7.24349 7.81929 7.317 7.64777 7.42726 7.42112C7.44564 7.50688 7.42726 7.6539 7.366 7.84992C7.30475 8.04593 7.28025 8.18682 7.28025 8.27871C7.28025 8.42572 7.32925 8.5421 7.42726 8.63399C7.50689 8.65236 7.56202 8.63399 7.6049 8.56048C7.64165 8.4931 7.68453 8.41959 7.72129 8.33996V8.33384ZM18.9556 11.758C18.7106 10.4227 18.4655 9.09341 18.2205 7.75803C18.2021 7.66002 18.1899 7.59264 18.1899 7.54976C18.1899 7.37212 18.2511 7.24348 18.3675 7.1516C18.3798 7.16998 18.4594 7.28636 18.6187 7.50688C18.7167 7.6539 18.8086 7.74578 18.9005 7.78866C18.8392 7.31699 18.7044 6.79632 18.49 6.23276C18.3737 5.92649 18.1654 5.43644 17.8714 4.76263C17.755 4.86063 17.6508 5.0199 17.5651 5.23429C17.5283 5.35068 17.4548 5.53445 17.3568 5.77947C17.4426 6.55129 17.6141 7.58039 17.8714 8.85451C18.2144 10.5697 18.4104 11.5804 18.4594 11.8805C18.6371 12.977 18.7228 14 18.7228 14.9372C18.3614 15.2006 17.9449 15.3354 17.4732 15.3354C17.1669 15.3354 16.9035 15.2802 16.6769 15.1761C16.5115 15.1087 16.3767 15.023 16.2787 14.925C16.1807 14.8269 16.1317 14.7106 16.1317 14.5697C16.1317 14.539 16.1317 14.4962 16.144 14.4349C16.1562 14.3737 16.1746 14.3246 16.2052 14.2756C15.8499 14.5084 15.5008 14.7473 15.1455 14.9801C14.3982 15.4701 13.7366 15.7152 13.1608 15.7152C13.1302 15.7152 13.0812 15.7152 13.0138 15.7274H12.7933C12.389 15.7274 12.0153 15.6539 11.6662 15.513C11.317 15.3721 11.023 15.1577 10.7779 14.8759C11.1822 14.6983 11.4763 14.3675 11.6723 13.8775C11.8009 13.4364 11.9296 12.9954 12.0704 12.5544C12.0704 12.3767 12.0459 12.2113 11.9908 12.0643C11.9357 11.9112 11.8009 11.6478 11.5865 11.2619C11.3905 11.0781 11.1394 10.9801 10.8392 10.9801C10.5942 11.1087 10.3982 11.2802 10.245 11.4946C10.0919 11.709 9.96325 11.9724 9.86524 12.2787C9.7611 12.585 9.69372 12.8974 9.65697 13.2098C9.62021 13.5222 9.60796 13.8591 9.60796 14.2266L8.54824 14.6064C7.99694 14.8024 7.50077 15.0475 7.04747 15.3415C6.66769 15.5988 6.25727 15.9234 5.82848 16.3277C5.03216 17.0934 4.24809 17.8591 3.46401 18.6371C3.35375 18.6677 3.25574 18.6799 3.16998 18.6799C2.87596 18.6799 2.62481 18.5635 2.42266 18.3246C2.30628 18.0919 2.24502 17.8469 2.24502 17.5896C2.24502 17.3323 2.27565 17.1118 2.34303 16.8974C2.40429 16.683 2.55743 16.2971 2.7902 15.7519C2.82695 15.7642 2.89433 15.7825 2.98009 15.8132H3.24349C3.67228 15.8132 4.1072 15.66 4.53599 15.3599C4.87902 15.1148 5.21593 14.7718 5.55283 14.3308C5.55283 14.2634 5.56508 14.1654 5.58346 14.0367C5.60184 13.9081 5.61409 13.7305 5.61409 13.4916C5.61409 13.0812 5.55283 12.7197 5.4242 12.4196C5.29556 12.1133 5.06891 11.8622 4.73201 11.6539C4.92802 11.3905 5.13017 11.1271 5.33231 10.8576C5.72435 10.3308 5.92037 9.84685 5.92037 9.41806C5.92037 9.38131 5.92037 9.31393 5.90812 9.22817C5.38132 9.89586 4.78714 10.5574 4.1317 11.2129C4.11332 11.1822 3.89893 11.0046 3.48239 10.6677C3.23737 10.4594 3.13936 10.2511 3.18836 10.0367C3.23737 10.0245 3.2925 10.0367 3.34763 10.0796C3.42726 9.87135 3.26187 9.66309 2.84533 9.44869C2.58806 9.32005 2.42266 9.21592 2.34303 9.14241C2.23277 9.27105 2.16539 9.46707 2.12864 9.73047C2.09188 9.99387 2.06738 10.1715 2.049 10.2573C2.22665 10.5329 2.44717 10.8208 2.71057 11.1271C2.97397 11.4334 3.24349 11.7213 3.51914 11.9969L3.3415 12.1868C3.06585 12.5299 2.8392 12.9341 2.64931 13.4058C2.46554 13.8775 2.36753 14.3124 2.36753 14.7167C2.36753 15.1577 2.48392 15.4701 2.72282 15.66C2.56355 16.0398 2.40429 16.4318 2.24502 16.8361C2.08576 17.2404 2 17.6263 2 18C2 18.147 2.01838 18.3063 2.049 18.4778C2.08576 18.6493 2.17152 18.8086 2.31853 18.9556C2.43492 19.0658 2.60031 19.17 2.82083 19.2802C2.90046 19.3292 2.99234 19.3537 3.1026 19.3537C3.21899 19.3537 3.35375 19.3231 3.50077 19.2557C3.64778 19.1945 3.78867 19.1332 3.92956 19.072C4.38285 18.5635 4.81776 18.1164 5.24043 17.7366C5.71822 17.2956 6.18989 16.9158 6.64931 16.6034C7.16998 16.242 7.69066 15.9479 8.21746 15.7213C8.74426 15.4946 9.29556 15.3292 9.87136 15.219C10.0061 15.5498 10.245 15.856 10.5758 16.1378C10.9066 16.4196 11.2496 16.6156 11.6049 16.732C11.9112 16.7994 12.2236 16.8361 12.5482 16.8361C13.173 16.8361 13.7734 16.7075 14.3369 16.4441C14.9005 16.1868 15.415 15.8132 15.8867 15.3354C15.9051 15.3721 15.9173 15.4456 15.9173 15.5559C15.9173 15.6539 15.9296 15.7213 15.9479 15.7642C16.1133 16.0214 16.3216 16.1991 16.5727 16.3032C16.8239 16.4073 17.1179 16.4563 17.4609 16.4563C17.7672 16.4563 18.049 16.4073 18.3063 16.3032C18.5636 16.1991 18.7657 16.0337 18.9005 15.7948C18.9862 15.4395 19.0475 15.1148 19.0781 14.8086C19.1087 14.5023 19.121 14.1593 19.121 13.7795C19.121 13.1424 19.0659 12.4686 18.9617 11.7642L18.9556 11.758ZM10.1041 9.36293C10.1225 9.44257 10.1041 9.51607 10.0613 9.58958C10.0123 9.66309 9.9755 9.72434 9.94487 9.77334C9.19755 10.0674 8.64625 10.2818 8.28484 10.4227C7.66003 10.6677 7.11485 10.9127 6.65544 11.1577C6.60643 11.1087 6.60643 11.0413 6.66156 10.9495C6.71669 10.8637 6.74119 10.8024 6.74119 10.7718C7.85605 10.2511 8.98315 9.77947 10.1103 9.36293H10.1041ZM16.6156 17.8775C16.5054 18.0612 16.4074 18.2205 16.3216 18.3491C16.193 18.5329 16.0643 18.6861 15.9418 18.8024L14.925 18.1715C14.9862 18.0061 15.072 17.8407 15.1822 17.6692C15.2925 17.5038 15.4211 17.3446 15.5559 17.1975C15.7029 17.2343 15.8438 17.3017 15.9847 17.3874C16.0214 17.4181 16.2358 17.5773 16.6156 17.8714V17.8775ZM5.60796 6.23889L5.12404 7.23736C4.83002 7.1026 4.59724 6.99846 4.43185 6.93108C4.26646 6.8637 4.1317 6.80857 4.03369 6.77182C4.04594 6.75344 4.03369 6.73506 4.02144 6.72281C4.00306 6.71056 3.97856 6.69218 3.94793 6.67381C3.83767 6.90658 3.76417 7.08422 3.71516 7.2006C3.61715 7.415 3.47626 7.50076 3.28637 7.45175L2.41654 7.11485C2.41654 6.93108 2.49617 6.71668 2.64931 6.48391C2.77795 6.31852 2.86371 6.19601 2.91271 6.11638C3.25574 6.20213 3.44564 6.25114 3.48851 6.26339C3.67228 6.32465 3.8683 6.40428 4.06432 6.51454L4.54824 5.77947C4.79326 5.86523 4.97703 5.93261 5.09341 5.96936C5.30781 6.049 5.47933 6.14088 5.60796 6.25114V6.23889ZM8.43185 12.8545C8.43185 12.8545 8.46248 12.9341 8.46248 13.0015C8.46248 13.0812 8.4441 13.1608 8.40123 13.2527C8.33384 13.3629 8.29097 13.4364 8.26646 13.4854C8.20521 13.6018 8.11332 13.6631 7.98469 13.6631C7.9173 13.6631 7.84992 13.6386 7.77642 13.5896C7.69678 13.4426 7.66003 13.2894 7.66003 13.1363C7.66003 12.9586 7.72129 12.7442 7.83767 12.487C8.00306 12.1256 8.09495 11.9112 8.11945 11.856C8.11945 11.9847 8.0827 12.1623 8.00306 12.3828C7.92343 12.6095 7.88668 12.7749 7.88668 12.8851C7.88668 13.0015 7.92343 13.1179 7.99081 13.222C8.10107 13.2527 8.19296 13.222 8.27259 13.1179C8.32159 13.0322 8.37672 12.9403 8.43185 12.8545ZM9.53446 17.8101C9.4977 18.0245 9.46707 18.1654 9.4487 18.2205C9.38744 18.3798 9.29556 18.4778 9.16692 18.5268C8.88515 18.49 8.72588 18.3246 8.69525 18.0429C8.69525 17.8101 8.73201 17.5712 8.81164 17.3384C8.89127 17.1057 8.99541 16.8545 9.13629 16.5911C9.15467 16.6891 9.11792 16.8668 9.02603 17.1302C8.93415 17.3874 8.88515 17.5712 8.88515 17.6692C8.88515 17.8836 9.00766 18.0306 9.25268 18.1103C9.30168 18.0796 9.35069 18.0245 9.39357 17.9387C9.43645 17.853 9.48545 17.8162 9.53446 17.8162V17.8101ZM11.4885 13.3568C11.4028 13.5406 11.2251 13.6876 10.9617 13.7978C10.8147 13.8591 10.5881 13.9326 10.2879 14.0306C10.2511 13.8652 10.2144 13.6876 10.1838 13.5099C10.1531 13.3262 10.1409 13.1424 10.1409 12.9586C10.1409 12.781 10.1715 12.6156 10.2266 12.4502C10.2818 12.2848 10.3798 12.1746 10.5084 12.1072C10.7902 12.1378 11.0168 12.291 11.1822 12.5789C11.2129 12.6279 11.317 12.8851 11.4885 13.3568ZM5.16692 13.5344C4.89127 13.8591 4.59112 14.1103 4.26034 14.3001C3.92956 14.4839 3.59877 14.5819 3.25574 14.5819C3.21899 14.5819 3.16386 14.5819 3.09648 14.5697C3.04747 14.5697 2.99847 14.5452 2.94946 14.4962C2.90046 14.4472 2.86371 14.392 2.83308 14.3369C2.90046 14.0306 3.12098 13.6386 3.49464 13.1608C3.73966 12.8484 3.90505 12.6279 3.99694 12.4992C4.20521 12.5972 4.45636 12.8055 4.76263 13.1302C4.9709 13.3384 5.10567 13.4732 5.17305 13.5406L5.16692 13.5344Z" fill="white"/>
</svg>
