<svg width="24" height="24" viewBox="0 0 24 24" fill="none" xmlns="http://www.w3.org/2000/svg">
<path fill-rule="evenodd" clip-rule="evenodd" d="M22 10.0703C21.9349 10.0703 21.8512 10.0005 21.7535 9.85635C21.6187 9.6564 21.5443 9.54944 21.5303 9.53084L21.442 9.6657C21.442 10.1028 21.4699 10.8096 21.521 11.7861C21.5722 12.7627 21.6001 13.4927 21.6001 13.9856C21.6001 14.8691 21.3908 15.669 20.977 16.3851C21.0746 16.1107 21.1444 15.7992 21.1909 15.4551C21.2374 15.111 21.256 14.7529 21.256 14.3902L20.9305 8.38693C20.8933 8.23812 20.9305 8.06142 21.0514 7.86147C21.149 7.72661 21.2141 7.62896 21.2513 7.57316C21.5257 8.20557 21.6931 8.60548 21.7535 8.77753C21.9163 9.24719 22 9.67965 22 10.0703ZM17.3918 8.96353C17.4011 9.06118 17.3778 9.15419 17.3313 9.24719C17.2848 9.3402 17.2197 9.4146 17.136 9.46575C17.0244 9.5262 16.9454 9.46574 16.9035 9.29834C16.8942 9.26114 16.8942 9.20999 16.8942 9.14024C16.8942 9.00539 16.9268 8.86124 16.9872 8.71244C17.0523 8.55899 17.1174 8.41018 17.1825 8.26138C17.1825 8.32648 17.1593 8.43808 17.1081 8.59619C17.0616 8.75429 17.0337 8.85658 17.0337 8.90773C17.0337 9.01004 17.0663 9.10304 17.136 9.17745C17.2011 9.1914 17.2523 9.17743 17.2848 9.12163C17.3174 9.07048 17.3546 9.01933 17.3918 8.96353ZM18.531 7.11281C18.2567 7.19651 17.9823 7.27091 17.7033 7.34531L12.2441 9.16348C12.179 9.20068 12.1232 9.24254 12.086 9.28439C12.0209 9.36809 11.9884 9.44714 11.9977 9.53084C12.9277 9.14954 13.9926 8.76358 15.1876 8.36832C16.2665 8.02422 17.3453 7.68012 18.4241 7.33136L18.5264 7.10815L18.531 7.11281ZM17.057 10.605C16.9686 10.805 16.9082 10.9305 16.8803 10.9724C16.8152 11.0747 16.7175 11.1863 16.592 11.3072C16.5269 11.2095 16.4339 11.1212 16.313 11.0375C16.2618 11.0003 16.1455 10.9352 15.9688 10.8375C15.8805 10.8747 15.8061 10.9677 15.7456 11.1119C15.6852 11.256 15.6201 11.3537 15.5457 11.3955C15.3504 11.3072 15.2109 11.2374 15.1225 11.1956C14.9598 11.1072 14.8761 11.0096 14.8761 10.9073L15.276 10.3725C15.5364 10.4562 15.7689 10.5678 15.9688 10.7166L16.4618 10.1121C16.485 10.14 16.5827 10.2144 16.764 10.3307C16.9407 10.4469 17.043 10.5353 17.0663 10.605H17.057ZM10.9747 8.73103C10.9235 8.83333 10.8538 8.92169 10.7608 8.98679C10.6724 9.05189 10.5655 9.09838 10.4492 9.12163C10.3236 9.10768 10.2353 9.04724 10.1934 8.94494C10.1795 8.78684 10.2213 8.61943 10.3143 8.43343C10.3422 8.37298 10.4352 8.23348 10.5934 8.01027L10.5469 8.20093C10.5748 8.14978 10.612 8.12187 10.6492 8.12187C10.6957 8.12187 10.7468 8.14978 10.8073 8.20093C10.8677 8.25208 10.9235 8.30323 10.9747 8.34508C11.0351 8.37298 11.063 8.41948 11.063 8.47993C11.063 8.51713 11.0537 8.55898 11.0351 8.61014C11.0165 8.65664 10.9979 8.70314 10.9747 8.74034V8.73103ZM14.9133 13.0184C14.89 13.1393 14.8621 13.2416 14.8249 13.3253C14.7877 13.409 14.7226 13.4834 14.6343 13.5439C14.5599 13.5206 14.4994 13.4927 14.4576 13.4555C14.4111 13.4183 14.3925 13.3718 14.3925 13.3114C14.3832 13.2509 14.3832 13.2091 14.3832 13.1905C14.3832 13.0324 14.4111 12.8836 14.4715 12.7348C14.4948 12.6836 14.5645 12.5441 14.6854 12.3209C14.6761 12.3441 14.6482 12.4279 14.6017 12.5767C14.5552 12.7255 14.5273 12.8464 14.5273 12.9347C14.5273 13.0742 14.5738 13.1858 14.6715 13.2602C14.718 13.2509 14.7598 13.223 14.8017 13.1765C14.8435 13.13 14.8807 13.0789 14.9179 13.0277L14.9133 13.0184ZM13.6764 10.8515L13.6113 11.084L13.3415 11.0189C13.2811 11.1305 13.2346 11.3444 13.1974 11.6559C13.1602 11.9675 13.0951 12.1814 12.9974 12.293C12.9881 12.2837 12.9137 12.0977 12.7649 11.735C12.6766 11.5118 12.5324 11.4002 12.3418 11.4002C12.2767 11.3769 12.2395 11.3304 12.2395 11.256C12.2395 11.2188 12.2441 11.1816 12.2581 11.1491C12.2674 11.1165 12.2767 11.0793 12.286 11.0421C12.2953 11.0049 12.3046 10.9677 12.3232 10.9352C12.3418 10.9026 12.379 10.884 12.4301 10.884C12.5557 10.9305 12.6626 11.0282 12.7417 11.1816C12.8254 11.3351 12.8998 11.4792 12.9742 11.6094C13.0021 11.5629 13.0672 11.4048 13.1648 11.1305C13.2392 10.9305 13.3322 10.791 13.4439 10.7166C13.5183 10.7259 13.5741 10.7352 13.6066 10.7492C13.6392 10.7631 13.6624 10.7957 13.681 10.8515H13.6764ZM7.9614 8.89844C7.98465 8.94959 7.98465 9.01469 7.9614 9.08909C7.93815 9.16349 7.9056 9.22859 7.8591 9.28439C7.8126 9.34019 7.7568 9.36809 7.6917 9.36809C7.6545 9.36809 7.6266 9.35415 7.60335 9.3216C7.52895 9.22395 7.49175 9.10768 7.49175 8.97748C7.49175 8.86588 7.51035 8.75428 7.54755 8.64268C7.58475 8.53107 7.6359 8.41018 7.70565 8.28462C7.70565 8.29392 7.6917 8.35903 7.66845 8.48923C7.64055 8.61943 7.63125 8.71708 7.63125 8.78683C7.63125 8.92168 7.67775 9.01934 7.7754 9.08909C7.8219 9.08909 7.85445 9.07049 7.88235 9.02864C7.91025 8.98679 7.93815 8.94494 7.96605 8.89844H7.9614ZM19.8238 14.0554L19.2007 9.35879L19.303 9.20069C19.3681 9.29834 19.4425 9.39599 19.5169 9.50294C19.5913 9.60525 19.6703 9.67499 19.7494 9.70289C19.7122 9.40529 19.6099 9.06584 19.4425 8.68918C19.2751 8.30787 19.117 7.94982 18.9681 7.60572C18.8798 7.70337 18.8007 7.81031 18.7403 7.93121C18.6752 8.05212 18.6473 8.16838 18.6473 8.28928C18.6473 8.32648 18.6566 8.37298 18.6705 8.43343L19.5401 14.6273C19.3681 14.7854 19.1728 14.8831 18.9542 14.9296C18.7356 14.9761 18.4706 14.9947 18.1544 14.9947H17.6615C17.787 14.5994 17.8521 14.2181 17.8521 13.8461C17.8521 13.609 17.8242 13.3951 17.7731 13.2091C17.6987 13.0835 17.6243 12.9812 17.5452 12.9068C17.4662 12.8324 17.3732 12.7952 17.2616 12.7952C17.1872 12.7952 17.1221 12.8091 17.0616 12.8417C16.8245 13.0138 16.6059 13.2556 16.4153 13.5671C16.2199 13.8787 16.0944 14.1763 16.0339 14.4599C16.0107 14.5622 16.0014 14.6599 16.0014 14.7482C16.0014 14.8831 16.0293 14.9993 16.0897 15.0923C15.6666 15.2551 15.262 15.3806 14.8714 15.4644C14.4855 15.5481 14.0949 15.5946 13.6996 15.5946C13.3555 15.5946 13.0207 15.5481 12.6952 15.4551C12.3697 15.3621 12.0814 15.2225 11.8349 15.0365C11.5606 14.6506 11.342 14.153 11.1746 13.5392C11.0491 12.9952 10.9235 12.4511 10.8073 11.9117C10.6492 11.2793 10.4445 10.7678 10.1934 10.3818C10.1051 10.4655 10.04 10.5771 10.0028 10.7259C9.97954 10.8654 9.95629 11.0049 9.93769 11.1398C10.1841 11.6699 10.3376 12.0047 10.3934 12.1442C10.6445 12.7673 10.798 13.3625 10.8491 13.9205C10.4678 14.5018 10.0167 14.9668 9.48663 15.3155C8.90537 15.7015 8.30086 15.8968 7.66845 15.8968C7.5429 15.7945 7.4778 15.6643 7.4778 15.5062C7.4778 15.3806 7.5057 15.2086 7.56615 14.9947C7.92885 14.6971 8.15206 14.5111 8.22646 14.4367C8.45896 14.1995 8.60777 13.9484 8.68217 13.688C8.74727 13.5857 8.79377 13.4927 8.81237 13.4137C8.83097 13.3346 8.84027 13.237 8.84027 13.1161C8.84027 12.9905 8.76587 12.6743 8.61707 12.1674C8.55661 11.9675 8.52872 11.7861 8.52872 11.6327C8.52872 11.6048 8.52871 11.5629 8.53801 11.5118C8.55196 11.5257 8.57522 11.5583 8.60312 11.6141C8.63102 11.6652 8.66822 11.6931 8.71472 11.6931C8.72867 11.6652 8.74727 11.6606 8.77052 11.6838C8.79377 11.7071 8.81237 11.7117 8.82632 11.7071C8.72402 11.4606 8.62172 11.2142 8.52407 10.9724C8.44966 10.8236 8.35201 10.7259 8.23576 10.6841C8.11021 10.9212 8.04511 11.163 8.04511 11.4095C8.04511 11.6931 8.09626 12.0465 8.20321 12.4697C8.22646 12.5673 8.31946 12.9068 8.48221 13.4974C7.90095 13.9903 7.22204 14.4413 6.44083 14.8598C5.88282 15.1574 5.14811 15.5016 4.23204 15.8875C3.48803 16.1991 2.74401 16.5106 2 16.8268L2.02325 16.8919C3.12532 16.7059 4.06929 16.4874 4.8598 16.2316C5.81772 15.9201 6.67798 15.5248 7.43595 15.0505C7.35224 15.3388 7.31039 15.5015 7.30109 15.5294C7.26389 15.7015 7.24529 15.8642 7.24529 16.0224C7.24529 16.1061 7.24994 16.1805 7.26389 16.2549C7.27319 16.3293 7.28714 16.3851 7.30109 16.4223C7.41269 16.6594 7.61265 16.7664 7.9056 16.7478C8.55197 16.6501 9.16113 16.3897 9.72379 15.9666C10.3283 15.5201 10.7375 14.99 10.9514 14.3809C11.0119 14.6552 11.0816 14.897 11.156 15.1016C11.2351 15.3062 11.3374 15.4969 11.4629 15.6783C11.7466 15.9387 12.0535 16.1247 12.3883 16.2363C12.7231 16.3479 13.1044 16.4037 13.5276 16.4037C14.0205 16.4037 14.5785 16.3153 15.2016 16.134C15.7084 15.9945 16.2107 15.8085 16.7082 15.5759C17.043 15.7713 17.4522 15.8643 17.9358 15.8643C18.3915 15.8643 18.81 15.7806 19.196 15.6178C19.4425 15.4969 19.6006 15.2737 19.675 14.9389C19.7122 14.7529 19.7587 14.4646 19.8191 14.0693L19.8238 14.0554ZM5.57126 8.16372C5.55731 8.26137 5.54336 8.34043 5.52476 8.40553C5.51081 8.47063 5.46431 8.47527 5.38991 8.42412C5.36201 8.38692 5.31086 8.36832 5.24576 8.36832C5.20856 8.36832 5.16206 8.37763 5.1016 8.39158C5.0272 8.49388 4.97605 8.68453 4.9435 8.95424C4.9156 9.22394 4.8691 9.41459 4.80865 9.51689C4.73425 9.46574 4.65055 9.31229 4.5622 9.06583C4.47384 8.81473 4.35294 8.69383 4.20414 8.69383C4.15764 8.69383 4.12044 8.69383 4.09254 8.70313C4.03209 8.66593 4.00419 8.61013 4.00419 8.53573C4.00419 8.48458 4.01814 8.42877 4.04139 8.36832C4.06929 8.30787 4.09719 8.24277 4.13439 8.16837C4.25529 8.15907 4.35759 8.23812 4.45059 8.40088C4.54359 8.56363 4.6366 8.73103 4.73425 8.90308C4.78075 8.90308 4.81795 8.84728 4.85515 8.73568C4.88305 8.52178 4.9249 8.36833 4.9714 8.28462C5.0179 8.20092 5.0923 8.12188 5.18996 8.05677C5.25506 8.04282 5.32946 8.05676 5.40386 8.08931C5.47826 8.12652 5.52941 8.15442 5.56196 8.16837L5.57126 8.16372ZM5.43641 10.0377C5.38991 10.1958 5.20391 10.2888 4.8691 10.3167C4.53429 10.3446 4.36689 10.4562 4.36689 10.6422C4.36689 10.7027 4.37619 10.7817 4.39014 10.8747C4.40409 10.9724 4.47849 11.2421 4.61335 11.6885C4.67845 11.9024 4.72495 12.0791 4.7482 12.2093C4.77145 12.3395 4.78075 12.4697 4.78075 12.5952C4.78075 12.7347 4.75285 12.9022 4.6924 13.0975C4.7017 13.051 4.7017 12.9905 4.7017 12.9068C4.7017 12.7301 4.67845 12.5441 4.6366 12.3488C4.50174 11.828 4.37154 11.3072 4.24599 10.7864C4.24599 10.5911 4.29249 10.3958 4.38084 10.1958C4.43199 10.1586 4.51104 10.1214 4.62265 10.0842C4.7296 10.047 4.8505 10.0051 4.98535 9.9633C4.91095 9.8889 4.80865 9.8517 4.6831 9.8517C4.6459 9.8517 4.5901 9.86101 4.51569 9.87496L4.42734 9.9633C4.39944 9.94935 4.39014 9.91215 4.40874 9.8517C4.42734 9.79125 4.44594 9.74475 4.45989 9.70755C4.47384 9.67035 4.51569 9.63779 4.57615 9.61454C4.64125 9.58664 4.6831 9.5727 4.70635 9.5634C4.84585 9.54015 4.99 9.5913 5.12951 9.70755C5.16671 9.73545 5.26901 9.84705 5.44106 10.0424L5.43641 10.0377ZM17.5127 14.4134C17.5127 14.4134 17.3964 14.4785 17.2337 14.5901C17.1221 14.6645 17.0198 14.7017 16.9314 14.7017C16.871 14.7017 16.8105 14.6831 16.7547 14.6459C16.671 14.5808 16.592 14.5064 16.5083 14.432C16.4246 14.3576 16.3874 14.2832 16.3874 14.2088C16.3874 14.1577 16.4013 14.1112 16.4339 14.074C16.485 13.9717 16.578 13.8694 16.7129 13.7717C16.8477 13.6741 16.9733 13.6276 17.0942 13.6276C17.2802 13.6276 17.3964 13.7485 17.4383 13.9856C17.4522 14.0321 17.4708 14.0972 17.4941 14.1809C17.5173 14.2646 17.522 14.3437 17.5173 14.4088L17.5127 14.4134ZM10.6166 8.81009C10.7561 8.78219 10.8305 8.74033 10.8305 8.68918C10.8305 8.66593 10.7654 8.60083 10.6306 8.48923C10.5562 8.42878 10.5189 8.37297 10.5189 8.32182C10.5189 8.29857 10.5282 8.27067 10.5515 8.23347C10.491 8.31717 10.4492 8.39157 10.4213 8.46597C10.3934 8.54037 10.3841 8.62409 10.3841 8.71244C10.398 8.77754 10.4771 8.81473 10.6166 8.81473V8.81009Z" fill="white"/>
</svg>
