<svg width="24" height="24" viewBox="0 0 24 24" fill="none" xmlns="http://www.w3.org/2000/svg">
<path fill-rule="evenodd" clip-rule="evenodd" d="M14.9412 5.41403L14.8667 5.77144C14.8071 5.79377 14.7327 5.77144 14.6359 5.71931C14.5391 5.65975 14.4646 5.63741 14.4051 5.64485C14.271 5.80122 14.1891 6.10651 14.1519 6.55327C14.1147 7.00748 14.0179 7.30532 13.8466 7.44679C13.787 7.38722 13.6605 7.13406 13.4743 6.69474C13.3403 6.37456 13.1318 6.20331 12.8488 6.17352C12.7669 6.11395 12.7223 6.01716 12.7223 5.89057C12.7223 5.81611 12.7372 5.73421 12.7669 5.62996C12.7967 5.52572 12.8116 5.46615 12.8116 5.44381C13.0722 5.52572 13.2807 5.71931 13.4371 6.0246C13.5934 6.32989 13.7424 6.62028 13.8838 6.88834C13.8987 6.866 13.9583 6.56071 14.0625 5.97993C14.137 5.58529 14.2859 5.31723 14.5242 5.17576C14.5838 5.19065 14.6582 5.22043 14.7476 5.28C14.8369 5.33957 14.8965 5.38424 14.9337 5.40658L14.9412 5.41403ZM10.0789 7.34255C9.91512 7.42445 9.7662 7.44679 9.64706 7.39467L9.52048 7.29042C9.43857 7.42445 9.37156 7.5138 9.32688 7.57337C9.2822 7.63294 9.21519 7.67762 9.13328 7.69995C9.05138 7.72229 8.96202 7.71485 8.87267 7.67017C8.78332 7.62549 8.68652 7.53614 8.57483 7.39467C8.57483 7.05215 8.58228 6.7841 8.60462 6.60539C8.62695 6.42669 8.69397 6.24054 8.8131 6.05439C8.83544 6.12885 8.83544 6.2182 8.8131 6.33733C8.75354 6.67985 8.72375 6.85856 8.72375 6.87345C8.72375 7.05215 8.80566 7.18618 8.97692 7.28298C9.05882 7.30532 9.13328 7.30532 9.19285 7.27553C9.25242 7.24575 9.31943 7.19363 9.38645 7.12661C9.40879 7.02237 9.40879 6.88089 9.379 6.71708C9.34922 6.55327 9.33433 6.44902 9.33433 6.41179C9.33433 6.27777 9.379 6.17352 9.46091 6.09162C9.49814 6.15118 9.52048 6.32989 9.53537 6.63517C9.55026 6.94046 9.69918 7.07449 9.98213 7.03726C10.0045 6.97769 10.0045 6.90323 9.98213 6.80643C9.90022 6.52348 9.85555 6.37456 9.85555 6.35967C9.85555 6.26287 9.90022 6.17352 9.98213 6.09162C10.1236 6.32989 10.1981 6.58305 10.1981 6.85856C10.1981 7.01492 10.1608 7.17129 10.0938 7.34255H10.0789ZM18.4036 16.6873C18.344 16.8809 18.2621 17.0596 18.1504 17.2309C18.0462 17.4021 17.9121 17.5361 17.7558 17.6329C17.7111 17.5287 17.5398 17.4096 17.2494 17.2755C16.959 17.1415 16.8101 17.0224 16.8101 16.9032C16.8101 16.8064 16.8771 16.6947 17.0037 16.5607C17.1005 16.4192 17.1824 16.3075 17.2569 16.2405C17.376 16.1214 17.4877 16.0618 17.5994 16.0618C17.7185 16.0618 17.8228 16.1288 17.9196 16.2554C18.1132 16.3895 18.2323 16.4714 18.277 16.516C18.3217 16.5607 18.3663 16.6128 18.4036 16.6873ZM21.9777 12.8079C21.8958 12.7707 21.7692 12.7558 21.5905 12.7558C21.4118 12.7558 21.2926 12.7409 21.2256 12.7037L20.7044 6.93302L20.831 6.89579C20.9501 6.91068 21.0469 6.98514 21.1139 7.13406C21.1884 7.28298 21.2331 7.37233 21.2554 7.39467C21.2554 6.99258 21.1512 6.50115 20.9352 5.9278C20.7416 5.4736 20.5629 5.01939 20.3842 4.57263C20.3693 4.60986 20.2725 4.76622 20.0789 5.05662C19.9449 5.25766 19.8853 5.42892 19.8853 5.57784C19.8853 5.72676 19.9375 5.85334 20.0491 5.97248L20.6746 12.726C20.1236 12.726 19.5503 12.6516 18.9397 12.5101C18.7163 12.4505 18.1653 12.2941 17.2941 12.0484C17.3909 11.7729 17.4505 11.5421 17.4803 11.3411C17.5101 11.1475 17.5249 10.8794 17.5249 10.5443C17.5249 10.2093 17.4877 9.75506 17.4207 9.20405C17.2643 8.02758 17.1899 7.29042 17.1899 7.00748C17.1899 6.93302 17.1899 6.84366 17.1973 6.72453C17.1973 6.60539 17.2122 6.4937 17.2271 6.38201L17.8377 7.04471C17.86 6.97025 17.8749 6.866 17.8749 6.72453C17.8749 6.40435 17.7632 6.01716 17.5324 5.56295C17.3313 5.20554 17.1303 4.84068 16.9442 4.47583C16.8101 4.60986 16.7059 4.75878 16.624 4.93748C16.6016 4.98216 16.5346 5.14597 16.4304 5.42147C16.6463 7.42445 16.8622 9.41998 17.0707 11.4081C16.7133 11.5272 16.3857 11.5942 16.0804 11.6166C15.7751 11.6315 15.4773 11.6463 15.1794 11.6463C14.9784 11.6463 14.7774 11.6463 14.5838 11.6389C14.3902 11.6389 14.1891 11.6315 13.9881 11.6315C13.9062 11.8697 13.8243 12.1006 13.7349 12.3314C13.6977 12.4729 13.6902 12.6143 13.6977 12.7409C14.338 12.7409 14.9635 12.8005 15.5592 12.9122C16.1549 13.0239 16.7729 13.1802 17.4207 13.3664C16.9442 13.5674 16.4751 13.7685 16.006 13.9546C15.0752 14.3269 14.2561 14.5056 13.5413 14.5056C13.3477 14.5056 13.1541 14.4982 12.9456 14.4758C12.7372 14.4609 12.4989 14.3195 12.2234 14.0589C11.9479 13.7982 11.7841 13.5078 11.7245 13.2026L11.315 14.2897C11.3299 14.3492 11.4192 14.6024 11.583 15.0417C11.7022 15.3619 11.7617 15.63 11.7617 15.8459C11.0692 16.4788 10.28 17 9.38645 17.417C8.68652 17.7372 7.80045 18.0425 6.74311 18.3254C6.46016 18.3626 6.16977 18.3775 5.88682 18.3775C5.30603 18.3775 4.76992 18.2882 4.27848 18.1169C3.78704 17.9457 3.37007 17.6627 3.01266 17.2681C2.79672 17.0447 2.65525 16.8288 2.57334 16.6277C2.49888 16.4267 2.45421 16.1884 2.45421 15.9129C2.45421 15.4959 2.58079 14.9822 2.82651 14.379C2.96054 14.044 3.15413 13.5749 3.41474 12.9643C3.45942 12.9643 3.52643 12.9792 3.60834 13.0015C3.69025 13.0239 3.75726 13.0239 3.80194 13.0015C4.00298 12.8452 4.15935 12.6516 4.25614 12.4133C4.36039 12.175 4.40506 11.9218 4.40506 11.6612C4.40506 11.6166 4.40506 11.5347 4.39017 11.4304L4.35294 11.5049C4.29337 11.624 4.22636 11.7282 4.14445 11.8102C4.06999 11.8921 3.98064 11.9218 3.88384 11.8995C3.70514 11.7208 3.57856 11.5347 3.51154 11.3485C3.43708 11.1549 3.4073 10.9539 3.4073 10.7379C3.4073 10.4029 3.51899 9.97099 3.74981 9.43488C3.92852 9.03279 4.11467 8.62326 4.30082 8.22118C3.89873 8.77218 3.57856 9.30829 3.35517 9.82952C3.07967 10.4624 2.94564 11.0656 2.94564 11.6538C2.94564 12.0857 3.0201 12.4952 3.17647 12.8898C2.83395 13.6046 2.50633 14.4014 2.1936 15.2874C2.11914 15.5629 2.07446 15.8087 2.04468 16.0172C2.01489 16.2331 2 16.449 2 16.6575C2 17.0596 2.07446 17.4393 2.22338 17.7819C2.3723 18.1244 2.61802 18.4222 2.96798 18.6605C3.36262 18.9583 3.77215 19.1743 4.21147 19.3157C4.64334 19.4498 5.10499 19.5242 5.58153 19.5242C6.39315 19.5242 7.30156 19.3157 8.31422 18.8988C9.08861 18.5786 9.90767 18.1393 10.764 17.5957C11.1586 17.3947 11.4862 17.0745 11.7468 16.6277C11.9404 16.2331 12.1266 15.8385 12.3202 15.4513C12.5733 15.4959 12.8488 15.5257 13.1616 15.5257C13.5934 15.5257 14.0402 15.4661 14.5168 15.3545C14.9933 15.2428 15.6634 15.0045 16.5197 14.6471C17.1973 14.3716 17.7409 14.178 18.143 14.0589C18.761 13.8801 19.3343 13.7908 19.8555 13.7908C20.1906 13.7908 20.4959 13.8131 20.764 13.8653C20.8235 14.0589 20.8533 14.2897 20.8533 14.5652C20.8533 14.6024 20.8533 14.729 20.8384 14.9598C20.8235 15.1832 20.8235 15.3917 20.8235 15.5704C20.8235 15.6151 20.8235 15.6895 20.831 15.7938C20.831 15.898 20.8459 15.9799 20.8608 16.0544C21.0022 15.6374 21.1139 15.1832 21.1809 14.6992C21.2182 14.4237 21.2554 14.1482 21.2852 13.8801C21.449 13.8206 21.5979 13.6791 21.7319 13.4483C21.7766 13.3738 21.866 13.1802 22 12.86L21.9777 12.8079ZM6.48995 4.86302L6.3857 5.1832C6.34103 5.1832 6.28891 5.16831 6.24423 5.14597C6.12509 5.0864 6.05063 5.05662 6.0134 5.05662C5.9166 5.19809 5.85704 5.4736 5.8347 5.89057C5.81236 6.3001 5.7379 6.58305 5.61876 6.73942C5.5443 6.66496 5.41027 6.41924 5.20923 5.98737C5.05287 5.6523 4.83693 5.48849 4.56888 5.48849C4.50931 5.44381 4.47952 5.38424 4.47952 5.30978C4.57632 5.0864 4.621 4.92259 4.621 4.82579C4.64334 4.80345 4.68801 4.78112 4.75503 4.77367C4.82204 4.75878 4.86672 4.77367 4.88905 4.78856C5.02308 4.92259 5.12733 5.07151 5.20923 5.23532C5.34326 5.51827 5.47729 5.80867 5.61876 6.09162C5.65599 5.97248 5.69322 5.7491 5.74535 5.41403C5.79002 5.07896 5.87937 4.83324 6.0134 4.66198C6.23678 4.68432 6.40059 4.75133 6.49739 4.85558L6.48995 4.86302ZM19.9672 17.3202C19.6843 17.3947 19.379 17.484 19.0663 17.5957C18.7535 17.7074 18.4408 17.8191 18.143 17.9233C17.9643 18.0276 17.4728 18.1988 16.6761 18.4222C16.0655 18.586 15.6709 18.8317 15.4773 19.1519L19.662 17.6702C19.7587 17.6255 19.8407 17.5659 19.9002 17.4989C19.9672 17.4319 19.9896 17.3723 19.9598 17.3128L19.9672 17.3202ZM10.3917 12.5994C10.4363 12.9345 10.3544 13.2249 10.1385 13.4781C10.064 13.493 10.0045 13.4706 9.95235 13.4185C9.90022 13.3664 9.86299 13.2994 9.8481 13.2323C9.83321 13.1579 9.81832 13.0536 9.81832 12.9122C9.81832 12.6962 9.8481 12.5026 9.90022 12.3314C9.95235 12.1601 10.0417 12.0112 10.1608 11.8921C10.1013 12.0112 10.0566 12.1229 10.0268 12.2346C9.99702 12.3388 9.98213 12.458 9.98213 12.592C9.98213 12.793 10.0417 12.9643 10.1608 13.0909L10.3917 12.6069V12.5994ZM8.46314 10.8124C8.28444 11.1251 8.11318 11.4304 7.94192 11.7431C7.89724 11.6612 7.73343 11.5495 7.46538 11.4006C7.19732 11.2517 7.06329 11.1177 7.06329 10.9911L7.10052 10.8496L7.62174 10.1348C7.99404 10.3284 8.18764 10.4326 8.20998 10.455C8.32911 10.5518 8.41102 10.6709 8.46314 10.8124ZM15.3582 17.551C14.8816 17.9308 14.5093 18.1839 14.2338 18.3105C13.9583 18.4371 13.6902 18.4967 13.4296 18.4967C13.2509 18.4967 13.0722 18.4594 12.8935 18.3924C12.752 18.3105 12.6776 18.2137 12.6776 18.1095C12.6776 18.0276 12.7148 17.9308 12.7818 17.8116C12.8563 17.7 12.9233 17.5883 12.9978 17.484L13.4594 17.1638C13.4147 17.0894 13.3403 17.0522 13.2509 17.0373C13.1616 17.0224 13.0499 17.0224 12.9233 17.0224L12.8488 17.0968C12.8042 17.0224 12.8042 16.9479 12.8637 16.866C12.8861 16.8288 12.9382 16.7915 13.0275 16.7394C13.1095 16.6947 13.2063 16.665 13.3105 16.665C13.3924 16.665 13.4892 16.6873 13.586 16.7245C13.6902 16.7692 13.787 16.8213 13.8838 16.8958C13.9062 17.0596 13.7573 17.2383 13.4371 17.4245C13.1169 17.6106 12.9531 17.7372 12.9531 17.8116C12.9531 17.9159 13.0797 18.0276 13.3254 18.1318C13.385 18.1467 13.4743 18.1467 13.5934 18.1467C13.8913 18.1467 14.1966 18.0871 14.5019 17.968C14.6582 17.9084 14.9337 17.7744 15.3433 17.5585L15.3582 17.551ZM6.24423 13.1579C6.24423 13.3366 6.22189 13.5004 6.18466 13.6419C6.13998 13.7833 6.05808 13.895 5.92405 13.9621C5.84214 13.9769 5.7379 13.9025 5.61876 13.7461C5.59643 13.6642 5.58153 13.5451 5.58153 13.3887C5.58153 12.9866 5.71556 12.6516 5.97617 12.3909C5.90171 12.5548 5.85704 12.6739 5.8347 12.7484C5.77513 12.9047 5.74535 13.0313 5.74535 13.1207C5.74535 13.1951 5.76024 13.277 5.79747 13.3738C5.89427 13.5078 5.96128 13.56 6.0134 13.5376C6.05808 13.4408 6.09531 13.3589 6.11765 13.2845C6.13999 13.21 6.18466 13.1728 6.24423 13.1579Z" fill="white"/>
</svg>
