<svg width="24" height="24" viewBox="0 0 24 24" fill="none" xmlns="http://www.w3.org/2000/svg">
<path fill-rule="evenodd" clip-rule="evenodd" d="M21.99 13.049C22 13.0991 22 13.1441 22 13.1942V13.3394C22 13.5948 21.97 13.8652 21.9049 14.1506C21.8398 14.4361 21.7546 14.7465 21.6545 15.082L21.6795 13.6399L20.8983 7.6559C20.9284 7.58579 20.9184 7.49065 20.8683 7.37548C20.8182 7.26031 20.7882 7.18018 20.7882 7.14012C20.7882 7.07503 20.8182 7.01494 20.8833 6.95985C20.9484 6.84969 20.9935 6.76456 21.0135 6.70948C21.0686 6.60432 21.1387 6.53922 21.2188 6.51919C21.4291 7.17517 21.6395 7.83116 21.8548 8.49215C21.7897 8.47713 21.7346 8.43206 21.6845 8.36196C21.5944 8.23176 21.5143 8.10657 21.4342 7.97638V8.39701L21.985 13.059L21.99 13.049ZM17.7837 11.1962C17.7837 11.3464 17.7586 11.4716 17.7136 11.5618C17.6635 11.6519 17.6034 11.722 17.5333 11.7721C17.4632 11.7971 17.4031 11.7971 17.353 11.7721C17.2479 11.722 17.1978 11.6419 17.1978 11.5217C17.1878 11.4716 17.1878 11.3965 17.1878 11.2913C17.1878 11.081 17.2278 10.8657 17.308 10.6404C17.338 10.5502 17.4281 10.3449 17.5734 10.0144C17.5583 10.0795 17.5133 10.2298 17.4331 10.4701C17.358 10.7105 17.318 10.9008 17.318 11.036C17.318 11.1962 17.363 11.3464 17.4482 11.4816C17.5383 11.4967 17.6034 11.4716 17.6535 11.4115C17.6785 11.3865 17.7136 11.3214 17.7636 11.2212L17.7887 11.1962H17.7837ZM14.2283 5.99341C14.2283 6.05851 14.2033 6.11359 14.1582 6.16366C14.1082 6.21374 14.0481 6.25379 13.978 6.28384C13.0466 6.57427 12.1252 6.85971 11.2038 7.15014C11.3741 6.9248 11.6545 6.74954 12.0551 6.61935C12.3906 6.5242 12.7311 6.42405 13.0766 6.31889C13.2268 6.29386 13.4271 6.24378 13.6725 6.16867C13.9179 6.09355 14.1032 6.03347 14.2333 5.99341H14.2283ZM15.3801 8.97288C15.35 9.04298 15.32 9.10808 15.2949 9.15815C15.2699 9.20823 15.2298 9.22325 15.1748 9.19821C15.1097 9.13311 15.0346 9.11309 14.9444 9.13812C14.8743 9.24328 14.7992 9.47863 14.7291 9.84919C14.689 10.0245 14.639 10.1697 14.5839 10.2798C14.4887 10.1997 14.3786 10.0144 14.2584 9.72901C14.1933 9.57878 14.1282 9.4586 14.0681 9.36847C14.018 9.41854 13.983 9.45359 13.9579 9.47863C13.9329 9.50367 13.8878 9.50868 13.8277 9.48865C13.8027 9.46361 13.7927 9.41854 13.7927 9.35845C13.8428 9.22325 13.8678 9.11809 13.8778 9.04799C13.9579 8.99791 14.023 8.97788 14.0681 8.97788C14.1082 8.97788 14.1382 8.99291 14.1632 9.02796C14.2333 9.09806 14.2934 9.1932 14.3435 9.30337C14.4787 9.60882 14.5588 9.77408 14.5839 9.80913C14.634 9.62385 14.679 9.43857 14.7291 9.2583C14.7992 9.04298 14.9144 8.89776 15.0646 8.82765C15.1347 8.84268 15.1948 8.8577 15.2449 8.87773C15.2949 8.89275 15.335 8.92781 15.3751 8.9879L15.3801 8.97288ZM19.1057 15.8832C19.1307 15.9634 19.1157 16.0535 19.0706 16.1586C19.0005 16.2788 18.9504 16.369 18.9254 16.424C18.8052 16.424 18.7051 16.359 18.6249 16.2338C18.6149 16.1937 18.6149 16.1286 18.6149 16.0435C18.6149 15.733 18.7101 15.4125 18.9054 15.082C18.8553 15.3124 18.8152 15.5427 18.7752 15.7681C18.7752 15.9133 18.8252 16.0385 18.9304 16.1386C18.9805 16.1386 19.0105 16.1136 19.0305 16.0585C19.0506 16.0084 19.0756 15.9483 19.1107 15.8832H19.1057ZM9.63645 6.50918C9.46119 6.7195 9.21582 6.89976 8.90536 7.04999L7.39309 7.70096C7.35303 7.726 7.16274 7.81113 6.81723 7.96636C6.58688 8.07152 6.4016 8.18168 6.2664 8.30186C6.37656 8.14162 6.52178 7.9914 6.69705 7.84619C6.84727 7.74103 7.05759 7.63086 7.32298 7.51068C7.70856 7.34043 8.09414 7.17518 8.47471 7.00993C8.86029 6.84468 9.24587 6.67944 9.64146 6.50918H9.63645ZM9.0005 8.19171C8.95043 8.11158 8.8653 8.01644 8.7351 7.91128C8.60491 7.80111 8.48973 7.75104 8.38458 7.75104C8.32949 7.75104 8.27441 7.77107 8.22434 7.80612C8.17426 7.84118 8.1342 7.89626 8.10916 7.96636C8.10916 8.03146 8.08413 8.11158 8.02904 8.20673C7.97897 8.30187 7.94892 8.37197 7.93891 8.41203L8.53981 8.74754C8.63495 8.74754 8.73009 8.68745 8.81522 8.57227C8.90536 8.4571 8.96545 8.33192 8.99549 8.19171H9.0005ZM11.5143 11.4366C11.4592 11.5467 11.4141 11.6269 11.3841 11.6769C11.319 11.7671 11.2439 11.8221 11.1537 11.8472C11.0986 11.8572 11.0486 11.8422 11.0085 11.8071C10.9685 11.7721 10.9334 11.722 10.8983 11.6569C10.8733 11.5117 10.8983 11.3765 10.9785 11.2463C11.0536 11.1161 11.1587 11.0059 11.2989 10.9108C11.4692 10.9909 11.5493 11.1161 11.5493 11.2813C11.5493 11.3364 11.5393 11.3915 11.5143 11.4366ZM9.74662 9.06802C9.69654 9.1882 9.62644 9.30837 9.5313 9.42855C9.47621 9.49866 9.42113 9.56877 9.36104 9.63386L8.63996 9.24829C8.58988 9.39852 8.52479 9.50867 8.43465 9.57878C8.34452 9.64889 8.24437 9.67893 8.12419 9.67893C7.95393 9.67893 7.75864 9.61384 7.5333 9.48865C7.51828 9.43357 7.53831 9.35345 7.5984 9.25329C7.65849 9.15314 7.68352 9.08304 7.67852 9.04298C7.74361 8.96286 7.7987 8.90277 7.83876 8.86271C7.88383 8.82265 7.9339 8.80261 7.98898 8.80261C8.05408 8.80261 8.11918 8.81764 8.17927 8.85269C8.23435 8.84268 8.31948 8.87773 8.42964 8.95284C8.53981 9.02795 8.61492 9.06802 8.64497 9.06802C8.71507 9.06802 8.76515 8.99791 8.79018 8.85269C8.86029 8.66241 8.97046 8.56226 9.11567 8.56226C9.18578 8.56226 9.25087 8.5923 9.30596 8.64738C9.31597 8.6574 9.41612 8.70747 9.60641 8.80261C9.7366 8.86771 9.77666 8.95285 9.7366 9.06802H9.74662ZM15.4552 15.2473C15.3901 15.5928 15.305 15.8732 15.1898 16.0885C15.0446 16.369 14.8443 16.5843 14.5889 16.7395C14.7742 16.5092 14.9094 16.3289 14.9995 16.2087C15.1698 15.9934 15.2499 15.8031 15.2499 15.6429C15.2499 15.5377 15.2198 15.4376 15.1547 15.3424C15.0346 15.3424 14.9544 15.3975 14.9144 15.5127L14.8643 15.5227C14.9194 15.3625 14.9544 15.2723 14.9745 15.2473C15.0396 15.1421 15.1247 15.077 15.2248 15.057C15.2749 15.047 15.315 15.067 15.355 15.1071C15.3951 15.1471 15.4251 15.1972 15.4502 15.2523L15.4552 15.2473ZM19.6114 8.73251C19.5213 8.36195 19.3861 7.98139 19.2008 7.58079C19.1507 7.48565 18.9755 7.13011 18.67 6.50918C18.5648 6.62936 18.4847 6.78459 18.4296 6.97988C18.4146 7.03496 18.3896 7.13011 18.3595 7.27032C18.5498 8.2618 18.7501 9.28835 18.9604 10.3399C19.1708 11.3915 19.336 12.363 19.4662 13.2543C19.2008 13.4696 18.9554 13.6349 18.7201 13.745C18.4246 13.8903 18.1492 13.9604 17.8888 13.9604C17.6284 13.9604 17.4081 13.8903 17.1928 13.755C16.7271 13.4045 16.0361 12.8537 15.1147 12.1076C14.4186 11.5467 13.7126 10.9859 13.0065 10.42C12.2954 9.8542 11.5994 9.33842 10.9084 8.86271C10.8933 8.79761 10.9184 8.74253 10.9785 8.69246C11.6495 8.39701 12.3706 8.14163 13.1367 7.9213C13.9029 7.70597 14.669 7.5207 15.4402 7.37047C15.7506 7.30538 16.5268 7.17518 17.7586 6.97488C17.8688 7.06501 17.9089 7.14513 17.8788 7.21523C17.7436 7.41553 17.4331 7.82114 16.9524 8.42705C16.2614 9.29335 15.8408 10.0044 15.6805 10.5653C15.8157 10.1947 16.1212 9.74403 16.5919 9.20823C17.2028 8.52721 17.5684 8.09155 17.6985 7.89626C18.0591 7.37548 18.2394 6.86472 18.2394 6.36897C18.2093 6.27884 18.1492 6.22375 18.0641 6.19371C17.979 6.16366 17.8788 6.15865 17.7586 6.17367C16.9424 6.3239 16.0961 6.48414 15.2298 6.64939C14.3585 6.81464 13.5874 6.99491 12.9064 7.19521C12.0501 7.44558 11.2939 7.74103 10.648 8.08654C10.4727 8.392 10.3826 8.71749 10.3826 9.07302C10.3826 9.22325 10.3976 9.36346 10.4326 9.48364C11.1938 10.0996 11.8247 10.6554 12.3205 11.1411C12.9865 11.7971 13.5223 12.4331 13.9329 13.039C13.7827 13.1842 13.6224 13.2944 13.4622 13.3745C13.342 13.4296 13.1667 13.4896 12.9314 13.5547C12.7461 13.2994 12.5658 13.089 12.3906 12.9288C12.1602 12.7185 11.9299 12.5933 11.7046 12.5432C11.6545 12.5282 11.6144 12.5182 11.5844 12.5182C11.4492 12.5182 11.319 12.5683 11.1988 12.6734C11.0486 12.9038 10.9284 13.1091 10.8483 13.2843C10.7431 13.5247 10.693 13.745 10.693 13.9453C10.693 14.1456 10.7431 14.3359 10.8383 14.4861C11.0235 14.6163 11.2389 14.6764 11.4892 14.6764C11.8648 14.6113 12.2454 14.5462 12.6309 14.4861L12.656 14.6664C11.7847 15.5377 11.2088 16.0785 10.9384 16.2888C10.2323 16.8247 9.54632 17.0951 8.88533 17.0951C8.7351 17.0951 8.57486 17.085 8.40461 17.06C8.17426 16.9398 8.01402 16.8046 7.92389 16.6494C7.83375 16.4992 7.79369 16.3139 7.79369 16.0986C7.79369 15.8983 7.84376 15.6329 7.93891 15.3074C8.13921 14.6163 8.23936 14.1957 8.23936 14.0355C8.9304 13.8502 9.30596 13.745 9.37106 13.725C9.6014 13.6299 9.8017 13.5097 9.96194 13.3645C10.0671 13.1742 10.1372 12.9889 10.1723 12.8136C10.2073 12.6384 10.2273 12.423 10.2273 12.1777C10.2273 11.9473 10.1823 11.712 10.0971 11.4816C10.007 11.2513 9.88683 11.0209 9.7366 10.7956L9.46119 11.2863C9.47621 11.3915 9.57136 11.692 9.75163 12.1877C9.82173 12.398 9.8668 12.5683 9.88182 12.7035C9.50626 12.8938 9.23085 13.0189 9.05058 13.069C8.87531 13.1191 8.70506 13.1491 8.54482 13.1491C8.38458 13.1491 8.25939 13.1291 8.14922 13.0891C8.01903 13.0189 7.92889 12.8887 7.87882 12.7035C7.82874 12.5182 7.77867 12.3429 7.73861 12.1727L7.43816 12.8687C7.58838 13.4045 7.74862 13.9403 7.90886 14.4661C7.37807 14.9068 6.74712 15.3424 6.01102 15.7781C5.4001 16.1386 4.73911 16.4942 4.01803 16.8497C3.34702 17.1802 2.67101 17.5107 2 17.8462C2.05008 17.8462 2.11017 17.8262 2.19029 17.7911C2.27041 17.7561 2.32048 17.731 2.34552 17.726C3.01152 17.726 3.67752 17.6008 4.35353 17.3554C4.92939 17.1451 5.54031 16.8347 6.18127 16.419C6.55684 16.1787 7.11768 15.7781 7.8638 15.2172C7.7336 15.6579 7.66349 15.9183 7.64847 15.9984C7.58337 16.2788 7.55333 16.5492 7.55333 16.8046C7.55333 16.9949 7.57837 17.1902 7.62344 17.3805C7.75363 17.5708 7.91387 17.726 8.10416 17.8362C8.29444 17.9463 8.49975 18.0064 8.71507 18.0064C9.21082 17.9513 9.71157 17.7811 10.2173 17.5007C10.658 17.2503 11.0936 16.9248 11.5293 16.5142C11.8247 16.2338 12.2003 15.8332 12.646 15.3124C12.7361 15.2222 12.8262 15.032 12.9214 14.7415C13.0165 14.4511 13.1467 14.2708 13.307 14.2057C13.6675 14.0956 13.9379 13.8552 14.1132 13.4846C14.2584 13.1892 14.3285 12.8337 14.3285 12.4281C14.7041 12.7485 15.0846 13.069 15.4702 13.3895C16.2564 14.0455 16.9224 14.5012 17.4632 14.7616C17.5734 14.7866 17.6835 14.7966 17.7887 14.7966C18.0791 14.7966 18.3746 14.7165 18.68 14.5562C18.8703 14.4511 19.1307 14.2808 19.4612 14.0405C19.6615 13.5598 19.7616 13.039 19.7616 12.4781C19.7616 12.1076 19.6965 11.6118 19.5714 10.9859C19.2609 9.46361 19.0956 8.63237 19.0806 8.49716L19.2258 8.31689C19.2559 8.34193 19.321 8.43707 19.4161 8.60732C19.4812 8.71749 19.5513 8.75755 19.6314 8.7275L19.6114 8.73251ZM8.84527 11.1461C8.84527 11.2663 8.83525 11.3715 8.81021 11.4666C8.78518 11.5567 8.73009 11.6269 8.63996 11.6769C8.55984 11.6619 8.49975 11.6419 8.45468 11.6218C8.40961 11.6018 8.37456 11.5618 8.35453 11.5067C8.35453 11.2763 8.41963 11.0209 8.54482 10.7505C8.55483 10.8006 8.54482 10.8757 8.51978 10.9859C8.49474 11.0961 8.48473 11.1561 8.48473 11.1712C8.48473 11.2763 8.5348 11.3464 8.63996 11.3865C8.69003 11.3765 8.72509 11.3564 8.75012 11.3264C8.77516 11.2964 8.80521 11.2363 8.84527 11.1461ZM6.45168 9.47363C6.48172 9.53872 6.48172 9.61884 6.44667 9.71398C6.41162 9.80913 6.37656 9.90427 6.34652 9.9894C6.32148 10.0194 6.28142 10.0395 6.22634 10.0395C6.17126 10.0395 6.11617 10.0295 6.07111 10.0144C6.01602 9.97438 5.97096 9.91929 5.94592 9.85419C5.91587 9.78409 5.90586 9.70898 5.90586 9.61884C5.90586 9.53872 5.90586 9.46862 5.91587 9.40853C5.92589 9.34844 5.9359 9.28835 5.95093 9.22325C6.02103 9.08805 6.10115 8.94783 6.18127 8.80261C6.26139 8.6574 6.35153 8.54223 6.45669 8.45209C6.36655 8.60232 6.28142 8.76256 6.19629 8.9228C6.11117 9.08304 6.07111 9.23326 6.07111 9.37848C6.07111 9.51369 6.11117 9.63888 6.19129 9.74904C6.28142 9.77408 6.3365 9.73903 6.36655 9.63888C6.39659 9.54373 6.42664 9.48864 6.45669 9.46861L6.45168 9.47363ZM10.022 15.3875C9.99699 15.5578 9.97196 15.6779 9.9369 15.748C9.88182 15.8782 9.79669 15.9684 9.68653 16.0235C9.62143 16.0235 9.56635 15.9984 9.52629 15.9533C9.48122 15.9033 9.45118 15.8432 9.43615 15.7731C9.43615 15.4676 9.45618 15.2523 9.49124 15.1321C9.52629 15.0069 9.59139 14.8767 9.67651 14.7415C9.67651 14.7916 9.66149 14.8918 9.62644 15.052C9.59639 15.2122 9.57636 15.3224 9.57636 15.3775C9.57636 15.5227 9.62644 15.6379 9.72158 15.728C9.78668 15.713 9.84176 15.6579 9.89684 15.5577C9.94692 15.4626 9.99199 15.4075 10.022 15.3875ZM5.03455 7.09506C5.01953 7.16516 5.00451 7.23026 4.98448 7.28033C4.96945 7.33041 4.92939 7.34042 4.8643 7.31038C4.74412 7.23026 4.65899 7.20021 4.61392 7.21523C4.52379 7.68594 4.44367 8.15665 4.36355 8.62235C4.45368 8.64739 4.53881 8.71248 4.62894 8.81263C4.76415 8.97287 4.83926 9.058 4.84427 9.06301C4.81422 9.18319 4.69404 9.26331 4.49374 9.30337C4.003 9.40852 3.72258 9.5237 3.64246 9.6539C3.64246 9.9894 3.67251 10.38 3.73761 10.8206C3.88783 11.8622 3.96795 12.5082 3.96795 12.7535C3.96795 13.0891 3.95293 13.3795 3.92789 13.6248C3.89785 13.8702 3.83275 14.1206 3.72759 14.376C3.83275 14.0655 3.88282 13.73 3.88282 13.3795C3.88282 13.1892 3.87281 12.9889 3.84777 12.7786C3.73761 11.9473 3.62744 11.1061 3.52228 10.2648C3.52228 10.1296 3.52228 9.99441 3.52729 9.85419C3.52729 9.71899 3.56735 9.56877 3.64246 9.40853C3.7326 9.31338 3.84777 9.23327 3.99299 9.16817C4.05809 9.14313 4.19329 9.09306 4.40361 9.01294C4.37356 8.94283 4.30346 8.90277 4.1983 8.90277C4.11818 8.90277 4.04807 8.9228 3.99299 8.96286L3.82273 9.08304C3.7977 9.04298 3.7977 8.9879 3.82273 8.9228C3.84777 8.85269 3.87782 8.80262 3.91788 8.77257C4.02303 8.68244 4.14822 8.63236 4.28843 8.61734C4.25839 8.51218 4.1983 8.38199 4.11818 8.22175C4.03806 8.06151 3.96294 7.91128 3.88783 7.76606C3.87782 7.80612 3.86279 7.82615 3.83776 7.82615C3.76765 7.80111 3.71257 7.7911 3.68252 7.7911C3.63245 7.78109 3.58738 7.76106 3.53731 7.721C3.48723 7.68094 3.43716 7.63086 3.38207 7.57578C3.37206 7.54573 3.37206 7.49566 3.37206 7.43056C3.37206 7.26031 3.43215 7.1201 3.55233 6.99992C3.76264 7.08004 3.94291 7.29035 4.10315 7.63587C4.20831 7.85119 4.28843 7.99641 4.34352 8.06652C4.36855 7.86622 4.39359 7.66091 4.41362 7.4556C4.45368 7.21524 4.54382 7.03497 4.67902 6.91479C4.74412 6.90477 4.7992 6.91478 4.83926 6.9248C4.88433 6.93982 4.94442 6.99491 5.02454 7.09506H5.03455ZM6.62193 11.5167L6.52679 11.7671C6.46169 11.737 6.40661 11.707 6.35653 11.6819C6.30646 11.6569 6.26139 11.6519 6.21132 11.6719C6.14121 11.7821 6.08613 11.9223 6.05608 12.0926C5.96094 12.5482 5.90085 12.8036 5.87581 12.8487C5.79569 12.7986 5.71057 12.6484 5.62544 12.393C5.5353 12.1376 5.41512 12.0224 5.2649 12.0575C5.17476 12.0074 5.1347 11.9473 5.1347 11.8772C5.1347 11.8472 5.14472 11.8021 5.16475 11.747C5.18478 11.692 5.20481 11.6269 5.22984 11.5567C5.41512 11.5017 5.55033 11.5918 5.64046 11.8322C5.77066 12.1927 5.85078 12.388 5.88082 12.4231C5.94592 12.1526 5.99099 11.9423 6.02604 11.7971C6.09614 11.5167 6.2013 11.3765 6.3365 11.3765C6.40661 11.3765 6.50676 11.4266 6.62694 11.5217L6.62193 11.5167ZM5.20481 14.8817C5.20481 15.0169 5.18978 15.1321 5.15473 15.2323C5.12469 15.3274 5.05458 15.3975 4.94942 15.4376C4.87932 15.4376 4.81923 15.3725 4.77917 15.2473C4.76915 15.2072 4.76915 15.1521 4.76915 15.077C4.76915 14.9268 4.79419 14.7766 4.84927 14.6364C4.89935 14.4962 4.97446 14.3509 5.0696 14.1957C5.01452 14.411 4.95944 14.6264 4.89935 14.8467C4.89935 14.9568 4.92939 15.057 4.99449 15.1471C5.05959 15.0971 5.09965 15.047 5.11968 14.9919C5.13971 14.9368 5.16475 14.9018 5.1998 14.8817H5.20481ZM11.344 11.4816C11.329 11.4516 11.314 11.4115 11.2939 11.3715C11.2439 11.3014 11.1888 11.2463 11.1237 11.2162C11.0936 11.2413 11.0736 11.2763 11.0736 11.3264C11.0736 11.3514 11.0836 11.3815 11.1037 11.4215C11.1237 11.4616 11.1387 11.4917 11.1437 11.5067C11.1938 11.5467 11.2539 11.5367 11.334 11.4816H11.344ZM12.0901 13.7751C11.97 13.8252 11.8398 13.8452 11.6945 13.8452C11.4291 13.8452 11.2238 13.7651 11.0686 13.6048C11.0686 13.5097 11.1187 13.4396 11.2238 13.3995C11.5694 13.3995 11.8548 13.5247 12.0901 13.7701V13.7751Z" fill="white"/>
</svg>
