<svg width="24" height="24" viewBox="0 0 24 24" fill="none" xmlns="http://www.w3.org/2000/svg">
<path fill-rule="evenodd" clip-rule="evenodd" d="M21.9939 9.45193C21.9756 9.37259 21.9329 9.28104 21.8596 9.17118C21.7437 8.99419 21.6765 8.89654 21.6704 8.87823C21.6399 9.28714 21.6277 9.70826 21.6277 10.1355C21.6277 10.5261 21.6277 10.9228 21.6399 11.3195C21.6521 11.7223 21.6582 12.119 21.6704 12.5218C21.6704 13.242 21.6338 13.834 21.5545 14.2917C21.4446 14.8959 21.2554 15.4391 20.9808 15.9152C21.0967 15.4452 21.1822 14.9387 21.231 14.3894C21.2798 13.8401 21.3042 13.303 21.3042 12.7659C21.3042 12.296 21.2798 11.5087 21.2249 10.3918C21.17 9.28104 21.1456 8.55476 21.1456 8.22519C21.0784 8.15806 21.0418 8.07872 21.0418 7.99328C21.0418 7.92614 21.0479 7.87121 21.0662 7.8407C21.0784 7.80408 21.115 7.74915 21.1761 7.6637C21.2371 7.57826 21.2798 7.51723 21.3103 7.48061C21.3775 7.40127 21.4446 7.34634 21.5179 7.30362C21.5362 7.41958 21.6338 7.77966 21.8108 8.38998C21.939 8.84161 22 9.18949 22 9.44582L21.9939 9.45193ZM16.2508 5.92431C16.2142 6.00365 16.1898 6.08299 16.1898 6.15623C16.1898 6.22946 16.2142 6.32712 16.2691 6.43697C16.3241 6.54683 16.3485 6.62007 16.3485 6.65669C16.3485 6.73603 16.2997 6.82147 16.202 6.91912L16.025 6.72992C15.8908 6.90691 15.7321 7.0595 15.549 7.19987C15.3659 7.33414 15.1767 7.44399 14.9692 7.52333C15.195 7.34634 15.3598 7.21207 15.4696 7.11442C15.6832 6.93133 15.8236 6.76043 15.8785 6.60175C15.7992 6.55293 15.7199 6.498 15.6344 6.44307C15.549 6.38204 15.5246 6.3027 15.5551 6.19284C15.6344 6.03416 15.7626 5.906 15.9518 5.79614C16.1471 5.82666 16.2447 5.86938 16.2447 5.93041L16.2508 5.92431ZM16.6048 7.52333C16.5255 7.55995 16.4889 7.63319 16.4889 7.73084C16.4889 7.76746 16.4889 7.83459 16.5011 7.92003C16.5011 7.98107 16.4889 8.02379 16.4706 8.0543C16.3241 8.0543 16.2447 7.99938 16.2386 7.89563C16.2264 7.78577 16.2264 7.69422 16.2264 7.61488C16.2264 7.53554 16.2264 7.48061 16.2142 7.4562C16.1288 7.54164 16.08 7.66371 16.08 7.81018V8.07261C16.0494 8.10923 16.0067 8.14585 15.9579 8.18247C15.903 8.21909 15.848 8.21298 15.787 8.17636C15.7199 8.11533 15.6832 8.0482 15.6832 7.96886C15.6955 7.88952 15.7077 7.81628 15.7199 7.74305C15.7321 7.66981 15.7443 7.61488 15.7443 7.57216C15.7443 7.50502 15.7321 7.45009 15.7138 7.41347C15.5551 7.68811 15.494 7.98717 15.5246 8.30453C15.5612 8.41439 15.6588 8.48763 15.8053 8.52425C15.8358 8.51204 15.9396 8.44491 16.1288 8.31674C16.1898 8.28012 16.2447 8.25571 16.3058 8.25571C16.3729 8.25571 16.4461 8.28012 16.5255 8.32894C16.5743 8.2496 16.617 8.17027 16.6475 8.09703C16.6842 8.01769 16.6964 7.93224 16.6964 7.83459C16.6964 7.73694 16.6659 7.63319 16.6109 7.52943L16.6048 7.52333ZM14.4931 8.28623L13.9805 8.88433C13.773 8.79889 13.6265 8.72565 13.5288 8.67683C13.3518 8.59138 13.2481 8.48763 13.2054 8.37167L13.7058 7.79797C13.8889 7.88342 14.0415 7.96275 14.1575 8.02379C14.2734 8.08482 14.3894 8.17026 14.4931 8.28012V8.28623ZM12.235 6.89471L12.0458 7.18766C11.4477 7.41958 11.0082 7.59046 10.7153 7.70032C9.7693 8.07261 9.03082 8.37167 8.50595 8.60969C8.54257 8.51204 8.61581 8.42049 8.71346 8.32894C8.76228 8.28012 8.85383 8.21909 8.9942 8.13975C10.0806 7.73084 11.1608 7.31583 12.2472 6.89471H12.235ZM19.4855 9.03081C19.4672 8.89654 19.4489 8.75617 19.4245 8.6219C19.2658 8.13365 19.1193 7.64539 18.9728 7.15714C18.863 7.23648 18.7714 7.34634 18.6921 7.49282C18.6555 7.57216 18.5883 7.69422 18.5029 7.85901C18.5029 8.17027 18.5456 8.98809 18.6372 10.3064C18.6738 10.8923 18.6982 11.3927 18.6982 11.8016C18.3442 11.9359 18.0757 12.0336 17.8926 12.0824C17.5813 12.1678 17.2945 12.2167 17.0442 12.2167C17.3067 11.8871 17.4898 11.6063 17.5874 11.3866C17.6851 11.1669 17.7461 10.9594 17.7644 10.7641C17.679 10.581 17.5325 10.4162 17.3372 10.2758C17.1419 10.1355 16.8367 10.0073 16.4278 9.90356C16.3912 9.89135 16.318 9.87304 16.2203 9.84253H15.9274C15.3781 9.84253 14.8105 10.0928 14.2124 10.5871C13.7424 11.0387 13.2725 11.4843 12.8087 11.9359C12.711 11.9054 12.6134 11.8444 12.5096 11.7528C12.4059 11.6613 12.3082 11.5575 12.2106 11.4538C12.1251 11.3195 12.058 11.1913 12.0153 11.0815C11.9725 10.9716 11.9481 10.8557 11.9481 10.7397C11.9481 10.6726 11.9481 10.6115 11.9603 10.5566C11.9725 10.5017 11.9908 10.4528 12.0214 10.404C11.8749 10.404 11.6674 10.52 11.4049 10.758C11.0265 11.0998 10.8068 11.289 10.7458 11.3317C10.52 11.5087 10.1111 11.7223 9.51297 11.9786C8.58529 12.3814 8.0177 12.8575 7.8163 13.4129C8.06042 13.4129 8.38389 13.4434 8.78059 13.4983C8.81721 13.5105 9.35429 13.6021 10.3796 13.7791C9.94019 13.8767 9.574 13.9622 9.28105 14.0293C8.82942 14.1391 8.2191 14.2978 7.45011 14.5114C7.36466 14.6274 7.27312 14.7434 7.18767 14.8654C7.10223 14.9814 7.0412 15.0973 7.01068 15.2194C7.05951 15.2499 7.45621 15.3781 8.19469 15.6161C8.46933 15.7015 8.68294 15.8175 8.84162 15.9518C8.13976 16.4217 7.49893 16.7635 6.92524 16.9771C6.21117 17.2517 5.4971 17.386 4.78914 17.386C4.47788 17.386 4.14831 17.3555 3.80653 17.3006C3.50137 17.2151 3.23283 17.0687 2.98871 16.8611C2.71407 16.6292 2.53708 16.3729 2.46384 16.0983C2.46384 16.0616 2.45163 16.0006 2.43332 15.9213V15.7626C2.43332 15.5307 2.48215 15.2865 2.5798 15.0302C2.64693 14.8532 2.83613 14.487 3.15349 13.9316C2.79951 14.3833 2.54318 14.7556 2.37839 15.0607C2.12206 15.5307 2 15.9579 2 16.3485C2 16.6109 2.04883 16.8611 2.14648 17.0931C2.3906 17.4715 2.71407 17.7522 3.11077 17.9353C3.51358 18.1184 3.95301 18.2038 4.42905 18.2038C4.69149 18.2038 4.95392 18.1733 5.22246 18.1184C5.66189 18.0207 6.08911 17.8987 6.51022 17.7522C6.93134 17.6057 7.33415 17.4348 7.72475 17.2334C8.11535 17.032 8.46933 16.7818 8.7867 16.4705C9.10406 16.1654 9.34818 15.8114 9.51297 15.4086C9.43363 15.2621 9.28715 15.1401 9.07354 15.0424C8.95758 14.9936 8.78059 14.9264 8.54867 14.8349C9.31767 14.6396 10.1111 14.487 10.9228 14.3833C11.7345 14.2734 12.5584 14.2246 13.4007 14.2246L13.7547 13.5654C13.0833 13.5654 12.1312 13.4129 10.9106 13.1138C10.1294 12.9185 9.5801 12.7903 9.25664 12.7354C9.28715 12.7171 9.54349 12.5889 10.0317 12.357C10.1904 12.2777 10.3369 12.1922 10.4712 12.0946C10.5505 12.058 10.7763 11.8627 11.1425 11.5209C11.4049 11.289 11.6308 11.1974 11.8139 11.2585C11.7833 11.3439 11.7711 11.4232 11.7711 11.4904C11.7711 11.6246 11.8932 11.8993 12.1373 12.3082C12.235 12.473 12.2838 12.6256 12.2838 12.7598C12.2838 12.8453 12.2655 12.9307 12.2228 13.0101C12.3387 12.9612 12.4303 12.888 12.4852 12.7903C12.9857 12.9246 13.48 12.9979 13.9805 12.9979C14.3894 12.9979 14.7983 12.9551 15.2133 12.8636C15.5673 12.9612 15.9335 13.0101 16.3241 13.0101C16.6292 13.0101 16.9344 12.9856 17.2457 12.9307C17.5569 12.8758 17.8804 12.8087 18.2099 12.7171C18.5883 12.5401 18.8569 12.2655 19.0034 11.8993C19.1193 11.6063 19.1803 11.2218 19.1803 10.7397C19.1803 10.5444 19.1681 10.2514 19.1376 9.86084C19.1071 9.47024 19.0949 9.18949 19.0949 9.0125V8.84161C19.0949 8.76838 19.0949 8.70124 19.1071 8.64631C19.1559 8.68293 19.217 8.76227 19.2963 8.87212C19.3756 8.98198 19.4428 9.04301 19.5038 9.05522L19.4855 9.03081ZM16.7757 15.7077C16.7757 15.8053 16.7513 15.903 16.6964 15.9945C16.6414 16.086 16.556 16.1837 16.44 16.2874C16.3241 16.3912 16.1593 16.44 15.9396 16.44C15.903 16.44 15.8541 16.4339 15.7931 16.4156C15.7321 16.4034 15.6466 16.3607 15.5368 16.2935C15.4269 16.2264 15.3354 16.1898 15.2682 16.1898C15.2011 16.1898 15.1401 16.2081 15.0912 16.2508C14.8471 16.4278 14.6457 16.5743 14.4931 16.6903C14.1819 16.9161 13.9683 17.0625 13.8645 17.1297C13.5899 17.3067 13.3579 17.4409 13.1688 17.5325C12.9796 17.624 12.7537 17.7034 12.5035 17.7583C12.7293 17.679 12.9796 17.5508 13.2481 17.3799C13.4617 17.2456 13.7058 17.0748 13.9744 16.8672C14.2429 16.6597 14.4687 16.4949 14.6579 16.3668C14.9204 16.1837 15.1645 16.0372 15.3903 15.9274C15.4513 15.9396 15.5124 15.9518 15.5795 15.964C15.6466 15.9762 15.7077 16.0128 15.7565 16.0616C15.8053 16.0433 15.9335 15.9518 16.1349 15.7809C16.2936 15.6527 16.4217 15.5917 16.5316 15.5917C16.5987 15.5917 16.6842 15.6283 16.7818 15.7077H16.7757ZM6.24168 9.89136C6.19286 9.98901 6.14403 10.0928 6.09521 10.2087C6.04638 10.3186 5.99146 10.4101 5.93653 10.4773C6.11352 10.105 6.19896 9.70215 6.19896 9.26272C6.19896 9.0308 6.17455 8.8233 6.11962 8.64021C6.06469 8.45712 5.97315 8.29233 5.85108 8.13365C5.86939 8.09703 5.8938 8.04209 5.92432 7.97496C5.95484 7.90783 5.98535 7.86511 6.00977 7.85901C6.12573 8.01769 6.21727 8.20078 6.2722 8.4205C6.33323 8.64021 6.35764 8.85992 6.35764 9.08574C6.35764 9.36038 6.32103 9.62892 6.24168 9.89136ZM12.2045 16.8489C11.8322 17.2517 11.3744 17.447 10.8251 17.447C10.7763 17.447 10.7214 17.447 10.6665 17.4409C10.6054 17.4409 10.5261 17.4165 10.4162 17.3921C10.3064 17.3616 10.2576 17.2945 10.2576 17.1846C10.2576 17.1236 10.282 17.0503 10.3369 16.9649C10.3918 16.8795 10.4651 16.794 10.5566 16.7086C10.6482 16.6231 10.758 16.5499 10.8862 16.4827C10.8496 16.4339 10.7763 16.4095 10.6787 16.4095C10.6176 16.4095 10.5627 16.4217 10.5017 16.44C10.4651 16.379 10.4651 16.3302 10.5139 16.2813C10.5627 16.2325 10.6237 16.1898 10.7031 16.1471C10.8862 16.1166 11.051 16.1654 11.1852 16.2935C11.1547 16.4522 11.051 16.5804 10.8801 16.6903C10.6482 16.8367 10.5078 16.9405 10.4712 16.9954C10.6176 17.1297 10.8007 17.2029 11.0143 17.2029C11.1913 17.2029 11.4416 17.1419 11.7589 17.0137C11.9847 16.9283 12.1312 16.8733 12.1984 16.855L12.2045 16.8489ZM7.13885 11.4415C7.12664 11.4904 7.12054 11.5392 7.10833 11.588C7.09612 11.6369 7.07171 11.6918 7.03509 11.7467C6.83979 11.6979 6.72383 11.6735 6.68111 11.6735C6.56515 11.8199 6.48581 12.0641 6.45529 12.4119C6.41868 12.7598 6.37595 12.9979 6.31492 13.1199C6.24779 13.0406 6.18065 12.9368 6.12572 12.7964C5.97925 12.4669 5.89381 12.2716 5.86329 12.2228C5.84498 12.2105 5.76564 12.1983 5.63137 12.18C5.4971 12.1617 5.40555 12.119 5.36894 12.0641C5.36894 11.9298 5.38114 11.8138 5.40555 11.7284C5.42997 11.643 5.4971 11.5758 5.60085 11.5392C5.78395 11.6063 5.93042 11.7528 6.02807 11.9786C6.12572 12.2044 6.22338 12.4181 6.32103 12.6256C6.35154 12.3936 6.38206 12.1495 6.42478 11.9054C6.49191 11.643 6.62008 11.4538 6.80317 11.3317C6.852 11.3195 6.89472 11.3317 6.93744 11.3439C7.06561 11.4049 7.13274 11.4293 7.14495 11.4293L7.13885 11.4415ZM4.23985 9.81811C4.19103 9.9829 4.00793 10.3674 3.69667 10.9594C3.44034 11.4477 3.31828 11.8383 3.31828 12.1312C3.31828 12.4242 3.41593 12.6866 3.61123 12.949C3.69667 12.9795 3.78212 12.9673 3.86756 12.9124C3.95301 12.8575 4.01404 12.7842 4.06286 12.6866C4.08117 12.6072 4.11779 12.5523 4.16662 12.5096C4.19713 12.5889 4.20934 12.6683 4.20934 12.7415C4.20934 12.8697 4.16662 13.0223 4.07507 13.2115C4.02624 13.3213 3.9408 13.4678 3.81263 13.6631C3.70278 13.7485 3.58071 13.7974 3.43424 13.7974C3.38541 13.7974 3.32438 13.7852 3.24504 13.7668C3.11688 13.6692 3.02533 13.5471 2.9765 13.4007C2.92157 13.2542 2.89716 13.0833 2.89716 12.888C2.89716 12.8087 2.89716 12.7293 2.90937 12.6439C2.92157 12.5584 2.92768 12.473 2.93988 12.3875C3.08636 11.8871 3.26335 11.4293 3.47696 11.0021C3.68447 10.5749 3.9408 10.1782 4.24596 9.8059L4.23985 9.81811ZM16.0311 6.2905V6.22947C16.0189 6.19285 16.0067 6.16233 15.9884 6.14402C15.9396 6.07688 15.8908 6.06468 15.8419 6.11351C15.8419 6.16233 15.8724 6.19895 15.9396 6.22947C16.0006 6.25999 16.0372 6.27829 16.0372 6.2905H16.0311ZM17.2334 11.4782C16.7757 11.6857 16.2753 11.8444 15.7321 11.9603C15.1889 12.0763 14.6579 12.1373 14.1269 12.1373C13.7852 12.1373 13.48 12.119 13.2054 12.0763C13.7791 11.5209 14.1392 11.1913 14.2734 11.0937C14.7006 10.7702 15.1218 10.6115 15.5307 10.6115C15.6955 10.6115 15.8969 10.6481 16.141 10.7153C16.379 10.7824 16.5987 10.8801 16.8001 11.0021C17.0015 11.1242 17.1419 11.2829 17.2334 11.4782ZM16.5438 15.9579C16.495 16.0433 16.4095 16.1044 16.2936 16.1349L15.9579 16.1471C16.0677 15.9823 16.202 15.8968 16.3668 15.8968C16.4339 15.8968 16.495 15.9151 16.5438 15.9579Z" fill="white"/>
</svg>
